<svg width="69" height="21" viewBox="0 0 69 21" fill="none" xmlns="http://www.w3.org/2000/svg">
<g filter="url(#filter0_b_2211_62975)">
<path d="M0.5 2.97559C0.5 1.87102 1.39543 0.975586 2.5 0.975586H68.5V18.9756C68.5 20.0802 67.6046 20.9756 66.5 20.9756H0.5V2.97559Z" fill="url(#paint0_linear_2211_62975)"/>
<path d="M13.292 14.9756V7.14359H16.471C18.121 7.14359 19.199 8.23259 19.199 9.68459C19.199 11.1476 18.11 12.2256 16.471 12.2256H14.557V14.9756H13.292ZM14.557 11.1476H16.372C17.351 11.1476 17.89 10.5756 17.89 9.69559C17.89 8.82659 17.351 8.24359 16.372 8.24359H14.557V11.1476ZM23.3898 9.34359H24.1268V10.4216H23.3238C22.3888 10.4216 22.0258 11.0156 22.0258 11.9726V14.9756H20.8158V9.34359H21.9158L22.0588 10.0696C22.2678 9.67359 22.7408 9.34359 23.3898 9.34359ZM25.5142 8.28759V7.03359H26.8452V8.28759H25.5142ZM25.5802 14.9756V9.34359H26.7792V14.9756H25.5802ZM35.0368 9.23359C36.2248 9.23359 37.1488 10.0036 37.1488 11.4666V14.9756H35.9278V11.6866C35.9278 10.7296 35.4768 10.3226 34.7618 10.3226C34.0798 10.3226 33.5518 10.7516 33.5188 11.7196V14.9756H32.3418V11.7636C32.3418 10.7846 31.9018 10.3226 31.1868 10.3226C30.4058 10.3226 29.9218 10.8066 29.9218 11.7086V14.9756H28.7228V9.34359H29.8118L29.9548 9.98159C30.2518 9.48659 30.8128 9.23359 31.4728 9.23359C32.2868 9.23359 32.9468 9.57459 33.2768 10.2566C33.6068 9.54159 34.3328 9.23359 35.0368 9.23359ZM44.1019 14.0736H44.3109V14.9756H43.6289C43.1669 14.9756 42.7489 14.7996 42.6609 14.2606C42.3419 14.7556 41.6489 15.0856 40.7689 15.0856C39.5259 15.0856 38.7339 14.4366 38.7339 13.3586C38.7339 12.4016 39.3389 11.6976 40.8789 11.6976H42.5179V11.4116C42.5179 10.5866 42.0229 10.2016 41.2859 10.2016C40.5379 10.2016 40.0539 10.5756 40.0209 11.1586H38.9099C38.9429 9.93759 39.9439 9.23359 41.3299 9.23359C42.6499 9.23359 43.7279 9.89359 43.7279 11.4226V13.6996C43.7279 14.0076 43.8489 14.0736 44.1019 14.0736ZM42.5179 12.7536V12.5226H41.0439C40.2299 12.5226 39.9769 12.8856 39.9769 13.3036C39.9769 13.8756 40.4279 14.1286 41.0439 14.1286C41.8799 14.1286 42.5179 13.6776 42.5179 12.7536ZM48.4104 9.34359H49.1474V10.4216H48.3444C47.4094 10.4216 47.0464 11.0156 47.0464 11.9726V14.9756H45.8364V9.34359H46.9364L47.0794 10.0696C47.2884 9.67359 47.7614 9.34359 48.4104 9.34359ZM51.4224 9.34359L53.0944 14.0076L54.6454 9.33259L55.8994 9.34359L53.5344 15.8776C53.1384 16.9776 52.4454 17.1756 51.6094 17.1756H50.3664V16.1086H51.6204C52.0934 16.1086 52.3684 15.8556 52.3684 15.3606C52.3684 15.2176 52.3354 15.0746 52.2694 14.8986L50.1244 9.34359H51.4224Z" fill="white"/>
</g>
<defs>
<filter id="filter0_b_2211_62975" x="-19.5" y="-19.0244" width="108" height="60" filterUnits="userSpaceOnUse" color-interpolation-filters="sRGB">
<feFlood flood-opacity="0" result="BackgroundImageFix"/>
<feGaussianBlur in="BackgroundImageFix" stdDeviation="10"/>
<feComposite in2="SourceAlpha" operator="in" result="effect1_backgroundBlur_2211_62975"/>
<feBlend mode="normal" in="SourceGraphic" in2="effect1_backgroundBlur_2211_62975" result="shape"/>
</filter>
<linearGradient id="paint0_linear_2211_62975" x1="-22.7041" y1="13.2039" x2="83.3023" y2="24.3624" gradientUnits="userSpaceOnUse">
<stop stop-color="#E2FF6F" stop-opacity="0.72"/>
<stop offset="1" stop-color="#29B57E"/>
</linearGradient>
</defs>
</svg>
