<svg width="41" height="34" viewBox="0 0 41 34" fill="none" xmlns="http://www.w3.org/2000/svg">
<g filter="url(#filter0_d_1258_23109)">
<path fill-rule="evenodd" clip-rule="evenodd" d="M27.7955 17.4464L22.9086 22.0909L23.6359 22.8181L29.4541 17.0189L23.6359 11.1818L22.9086 11.909L27.8009 16.5934L10.7959 16.5934V17.4464L27.7955 17.4464Z" fill="#EBFF25"/>
<path d="M22.9086 22.0909L22.5642 21.7284L22.1924 22.0817L22.5551 22.4444L22.9086 22.0909ZM27.7955 17.4464L28.14 17.8088L29.0474 16.9464L27.7955 16.9464V17.4464ZM23.6359 22.8181L23.2823 23.1717L23.6353 23.5247L23.9889 23.1723L23.6359 22.8181ZM29.4541 17.0189L29.8071 17.373L30.1612 17.02L29.8082 16.6659L29.4541 17.0189ZM23.6359 11.1818L23.99 10.8288L23.6365 10.4741L23.2823 10.8282L23.6359 11.1818ZM22.9086 11.909L22.5551 11.5555L22.1938 11.9168L22.5628 12.2702L22.9086 11.909ZM27.8009 16.5934V17.0934L29.0461 17.0934L28.1467 16.2323L27.8009 16.5934ZM10.7959 16.5934L10.7959 16.0934H10.2959V16.5934H10.7959ZM10.7959 17.4464H10.2959V17.9464H10.7959L10.7959 17.4464ZM23.2531 22.4533L28.14 17.8088L27.4511 17.084L22.5642 21.7284L23.2531 22.4533ZM23.9894 22.4646L23.2622 21.7373L22.5551 22.4444L23.2823 23.1717L23.9894 22.4646ZM29.1011 16.6648L23.2829 22.464L23.9889 23.1723L29.8071 17.373L29.1011 16.6648ZM23.2818 11.5347L29.1 17.3719L29.8082 16.6659L23.99 10.8288L23.2818 11.5347ZM23.2622 12.2626L23.9894 11.5353L23.2823 10.8282L22.5551 11.5555L23.2622 12.2626ZM28.1467 16.2323L23.2544 11.5479L22.5628 12.2702L27.4551 16.9546L28.1467 16.2323ZM10.7959 17.0934L27.8009 17.0934V16.0934L10.7959 16.0934L10.7959 17.0934ZM11.2959 17.4464V16.5934H10.2959V17.4464H11.2959ZM27.7955 16.9464L10.7959 16.9464L10.7959 17.9464L27.7955 17.9464V16.9464Z" fill="#EBFF25"/>
</g>
<defs>
<filter id="filter0_d_1258_23109" x="0.295898" y="0.474091" width="39.8652" height="33.0506" filterUnits="userSpaceOnUse" color-interpolation-filters="sRGB">
<feFlood flood-opacity="0" result="BackgroundImageFix"/>
<feColorMatrix in="SourceAlpha" type="matrix" values="0 0 0 0 0 0 0 0 0 0 0 0 0 0 0 0 0 0 127 0" result="hardAlpha"/>
<feOffset/>
<feGaussianBlur stdDeviation="5"/>
<feComposite in2="hardAlpha" operator="out"/>
<feColorMatrix type="matrix" values="0 0 0 0 1 0 0 0 0 1 0 0 0 0 1 0 0 0 0.25 0"/>
<feBlend mode="normal" in2="BackgroundImageFix" result="effect1_dropShadow_1258_23109"/>
<feBlend mode="normal" in="SourceGraphic" in2="effect1_dropShadow_1258_23109" result="shape"/>
</filter>
</defs>
</svg>
