<svg width="183" height="104" viewBox="0 0 183 104" fill="none" xmlns="http://www.w3.org/2000/svg">
<path d="M181.669 -56.5788C185.426 -84.5237 166.303 -99.5451 140.155 -109.566L148.638 -147.42L127.927 -153.161L119.669 -116.304C114.224 -117.815 108.633 -119.239 103.076 -120.65L111.393 -157.75L90.6951 -163.492L82.2078 -125.651C77.7021 -126.792 73.2767 -127.92 68.9832 -129.109L69.0072 -129.228L40.4465 -137.163L34.9371 -112.552C34.9371 -112.552 50.3028 -108.633 49.979 -108.392C58.3658 -106.063 59.8824 -99.8859 59.6306 -94.99L49.9679 -51.8656C50.5455 -51.7024 51.2946 -51.4663 52.1211 -51.0968C51.4302 -51.2877 50.6949 -51.4961 49.932 -51.6993L36.3882 8.71178C35.3633 11.5467 32.7617 15.8012 26.8981 14.1856C27.1057 14.5202 11.8451 10.0061 11.8451 10.0061L1.5625 36.3826L28.5144 43.8579C33.5284 45.2569 38.4418 46.7205 43.2805 48.097L34.7101 86.3849L55.3971 92.1266L63.8844 54.2451C69.5358 55.952 75.0203 57.5266 80.3895 59.0107L71.9308 96.7137L92.6426 102.455L101.212 64.2392C136.529 71.6755 163.084 68.6774 174.261 33.1371C183.268 4.52301 173.813 -11.9816 155.233 -22.7444C168.766 -26.2168 178.959 -36.1195 181.677 -56.5757L181.67 -56.5809L181.669 -56.5788ZM134.35 17.2463C127.949 45.8604 84.647 30.3925 70.6078 26.5137L81.9809 -24.2112C96.0191 -20.3119 141.038 -12.5954 134.35 17.2463ZM140.755 -56.9935C134.916 -30.9659 98.8752 -44.1891 87.1839 -47.4315L97.4951 -93.436C109.186 -90.1936 146.837 -84.1419 140.757 -56.9935H140.755Z" stroke="url(#paint0_linear_3746_14208)" stroke-opacity="0.37"/>
<defs>
<linearGradient id="paint0_linear_3746_14208" x1="57.5728" y1="14.6343" x2="-124.547" y2="220.891" gradientUnits="userSpaceOnUse">
<stop stop-color="#E2FF6F"/>
<stop offset="1" stop-color="#E2FF6F" stop-opacity="0"/>
</linearGradient>
</defs>
</svg>
