<svg width="45" height="44" viewBox="0 0 45 44" fill="none" xmlns="http://www.w3.org/2000/svg">
<path d="M4.92709 0.7229H0.653359C0.292519 0.7229 0 1.00729 0 1.35811V5.51311C0 5.86393 0.292519 6.14832 0.653359 6.14832H4.92709C5.28793 6.14832 5.58045 5.86393 5.58045 5.51311V1.35811C5.58045 1.00729 5.28793 0.7229 4.92709 0.7229Z" fill="#E2FF6F"/>
<path d="M12.6409 6.14779H8.48246C8.12119 6.14779 7.8291 5.86381 7.8291 5.51258V1.35384C7.8291 1.0026 8.12119 0.718628 8.48246 0.718628H12.6409C13.0637 0.718628 13.4096 1.05491 13.4096 1.46593V5.39674C13.4096 5.80776 13.0637 6.14405 12.6409 6.14405V6.14779Z" fill="#E2FF6F"/>
<path d="M20.5804 0.722168H16.3067C15.9458 0.722168 15.6533 1.00656 15.6533 1.35738V5.51238C15.6533 5.8632 15.9458 6.14759 16.3067 6.14759H20.5804C20.9413 6.14759 21.2338 5.8632 21.2338 5.51238V1.35738C21.2338 1.00656 20.9413 0.722168 20.5804 0.722168Z" fill="#E2FF6F"/>
<path d="M28.4134 0.722168H24.1397C23.7788 0.722168 23.4863 1.00656 23.4863 1.35738V5.51238C23.4863 5.8632 23.7788 6.14759 24.1397 6.14759H28.4134C28.7743 6.14759 29.0668 5.8632 29.0668 5.51238V1.35738C29.0668 1.00656 28.7743 0.722168 28.4134 0.722168Z" fill="#E2FF6F"/>
<path d="M36.2611 8.28503H31.9873C31.6265 8.28503 31.334 8.56943 31.334 8.92024V13.0752C31.334 13.4261 31.6265 13.7105 31.9873 13.7105H36.2611C36.6219 13.7105 36.9144 13.4261 36.9144 13.0752V8.92024C36.9144 8.56943 36.6219 8.28503 36.2611 8.28503Z" fill="#E2FF6F"/>
<path d="M28.4134 8.28503H24.1397C23.7788 8.28503 23.4863 8.56943 23.4863 8.92024V13.0752C23.4863 13.4261 23.7788 13.7105 24.1397 13.7105H28.4134C28.7743 13.7105 29.0668 13.4261 29.0668 13.0752V8.92024C29.0668 8.56943 28.7743 8.28503 28.4134 8.28503Z" fill="#E2FF6F"/>
<path d="M20.5804 8.28503H16.3067C15.9458 8.28503 15.6533 8.56943 15.6533 8.92024V13.0752C15.6533 13.4261 15.9458 13.7105 16.3067 13.7105H20.5804C20.9413 13.7105 21.2338 13.4261 21.2338 13.0752V8.92024C21.2338 8.56943 20.9413 8.28503 20.5804 8.28503Z" fill="#E2FF6F"/>
<path d="M8.59776 8.28503H12.7562C13.1175 8.28503 13.4096 8.56901 13.4096 8.92024V13.079C13.4096 13.4302 13.1175 13.7142 12.7562 13.7142H8.59776C8.175 13.7142 7.8291 13.3779 7.8291 12.9669V9.03607C7.8291 8.62506 8.175 8.28877 8.59776 8.28877V8.28503Z" fill="#E2FF6F"/>
<path d="M4.92709 8.28503H0.653359C0.292519 8.28503 0 8.56943 0 8.92024V13.0752C0 13.4261 0.292519 13.7105 0.653359 13.7105H4.92709C5.28793 13.7105 5.58045 13.4261 5.58045 13.0752V8.92024C5.58045 8.56943 5.28793 8.28503 4.92709 8.28503Z" fill="#E2FF6F"/>
<path d="M4.8118 15.844H0.768657C0.34414 15.844 0 16.1786 0 16.5913V20.5221C0 20.9348 0.34414 21.2694 0.768657 21.2694H4.8118C5.23631 21.2694 5.58045 20.9348 5.58045 20.5221V16.5913C5.58045 16.1786 5.23631 15.844 4.8118 15.844Z" fill="#E2FF6F"/>
<path d="M12.7601 21.2694H8.60167C8.1789 21.2694 7.83301 20.9331 7.83301 20.5221V16.5913C7.83301 16.1803 8.1789 15.844 8.60167 15.844H12.7601C13.1214 15.844 13.4135 16.128 13.4135 16.4792V20.6379C13.4135 20.9892 13.1214 21.2732 12.7601 21.2732V21.2694Z" fill="#E2FF6F"/>
<path d="M20.5804 15.844H16.3067C15.9458 15.844 15.6533 16.1284 15.6533 16.4792V20.6342C15.6533 20.985 15.9458 21.2694 16.3067 21.2694H20.5804C20.9413 21.2694 21.2338 20.985 21.2338 20.6342V16.4792C21.2338 16.1284 20.9413 15.844 20.5804 15.844Z" fill="#E2FF6F"/>
<path d="M28.4134 15.844H24.1397C23.7788 15.844 23.4863 16.1284 23.4863 16.4792V20.6342C23.4863 20.985 23.7788 21.2694 24.1397 21.2694H28.4134C28.7743 21.2694 29.0668 20.985 29.0668 20.6342V16.4792C29.0668 16.1284 28.7743 15.844 28.4134 15.844Z" fill="#E2FF6F"/>
<path d="M36.2611 15.844H31.9873C31.6265 15.844 31.334 16.1284 31.334 16.4792V20.6342C31.334 20.985 31.6265 21.2694 31.9873 21.2694H36.2611C36.6219 21.2694 36.9144 20.985 36.9144 20.6342V16.4792C36.9144 16.1284 36.6219 15.844 36.2611 15.844Z" fill="#E2FF6F"/>
<path d="M44.0902 15.844H39.8164C39.4556 15.844 39.1631 16.1284 39.1631 16.4792V20.6342C39.1631 20.985 39.4556 21.2694 39.8164 21.2694H44.0902C44.451 21.2694 44.7435 20.985 44.7435 20.6342V16.4792C44.7435 16.1284 44.451 15.844 44.0902 15.844Z" fill="#E2FF6F"/>
<path d="M44.0902 23.4067H39.8164C39.4556 23.4067 39.1631 23.6911 39.1631 24.0419V28.197C39.1631 28.5478 39.4556 28.8322 39.8164 28.8322H44.0902C44.451 28.8322 44.7435 28.5478 44.7435 28.197V24.0419C44.7435 23.6911 44.451 23.4067 44.0902 23.4067Z" fill="#E2FF6F"/>
<path d="M36.2611 23.4067H31.9873C31.6265 23.4067 31.334 23.6911 31.334 24.0419V28.197C31.334 28.5478 31.6265 28.8322 31.9873 28.8322H36.2611C36.6219 28.8322 36.9144 28.5478 36.9144 28.197V24.0419C36.9144 23.6911 36.6219 23.4067 36.2611 23.4067Z" fill="#E2FF6F"/>
<path d="M28.4134 23.4067H24.1397C23.7788 23.4067 23.4863 23.6911 23.4863 24.0419V28.197C23.4863 28.5478 23.7788 28.8322 24.1397 28.8322H28.4134C28.7743 28.8322 29.0668 28.5478 29.0668 28.197V24.0419C29.0668 23.6911 28.7743 23.4067 28.4134 23.4067Z" fill="#E2FF6F"/>
<path d="M20.5804 23.4067H16.3067C15.9458 23.4067 15.6533 23.6911 15.6533 24.0419V28.197C15.6533 28.5478 15.9458 28.8322 16.3067 28.8322H20.5804C20.9413 28.8322 21.2338 28.5478 21.2338 28.197V24.0419C21.2338 23.6911 20.9413 23.4067 20.5804 23.4067Z" fill="#E2FF6F"/>
<path d="M8.59776 23.4067H12.7562C13.1175 23.4067 13.4096 23.6907 13.4096 24.0419V28.2007C13.4096 28.5519 13.1175 28.8359 12.7562 28.8359H8.59776C8.175 28.8359 7.8291 28.4996 7.8291 28.0886V24.1578C7.8291 23.7468 8.175 23.4105 8.59776 23.4105V23.4067Z" fill="#E2FF6F"/>
<path d="M4.92709 23.4067H0.653359C0.292519 23.4067 0 23.6911 0 24.0419V28.197C0 28.5478 0.292519 28.8322 0.653359 28.8322H4.92709C5.28793 28.8322 5.58045 28.5478 5.58045 28.197V24.0419C5.58045 23.6911 5.28793 23.4067 4.92709 23.4067Z" fill="#E2FF6F"/>
<path d="M4.92709 30.9657H0.653359C0.292519 30.9657 0 31.2501 0 31.6009V35.7559C0 36.1067 0.292519 36.3911 0.653359 36.3911H4.92709C5.28793 36.3911 5.58045 36.1067 5.58045 35.7559V31.6009C5.58045 31.2501 5.28793 30.9657 4.92709 30.9657Z" fill="#E2FF6F"/>
<path d="M12.7601 36.3911H8.60167C8.1789 36.3911 7.83301 36.0548 7.83301 35.6438V31.713C7.83301 31.302 8.1789 30.9657 8.60167 30.9657H12.7601C13.1214 30.9657 13.4135 31.2497 13.4135 31.6009V35.7596C13.4135 36.1109 13.1214 36.3949 12.7601 36.3949V36.3911Z" fill="#E2FF6F"/>
<path d="M20.5804 30.9657H16.3067C15.9458 30.9657 15.6533 31.2501 15.6533 31.6009V35.7559C15.6533 36.1067 15.9458 36.3911 16.3067 36.3911H20.5804C20.9413 36.3911 21.2338 36.1067 21.2338 35.7559V31.6009C21.2338 31.2501 20.9413 30.9657 20.5804 30.9657Z" fill="#E2FF6F"/>
<path d="M28.4134 30.9657H24.1397C23.7788 30.9657 23.4863 31.2501 23.4863 31.6009V35.7559C23.4863 36.1067 23.7788 36.3911 24.1397 36.3911H28.4134C28.7743 36.3911 29.0668 36.1067 29.0668 35.7559V31.6009C29.0668 31.2501 28.7743 30.9657 28.4134 30.9657Z" fill="#E2FF6F"/>
<path d="M36.2611 30.9657H31.9873C31.6265 30.9657 31.334 31.2501 31.334 31.6009V35.7559C31.334 36.1067 31.6265 36.3911 31.9873 36.3911H36.2611C36.6219 36.3911 36.9144 36.1067 36.9144 35.7559V31.6009C36.9144 31.2501 36.6219 30.9657 36.2611 30.9657Z" fill="#E2FF6F"/>
<path d="M28.4134 38.5284H24.1397C23.7788 38.5284 23.4863 38.8128 23.4863 39.1636V43.3187C23.4863 43.6695 23.7788 43.9539 24.1397 43.9539H28.4134C28.7743 43.9539 29.0668 43.6695 29.0668 43.3187V39.1636C29.0668 38.8128 28.7743 38.5284 28.4134 38.5284Z" fill="#E2FF6F"/>
<path d="M20.5804 38.5284H16.3067C15.9458 38.5284 15.6533 38.8128 15.6533 39.1636V43.3187C15.6533 43.6695 15.9458 43.9539 16.3067 43.9539H20.5804C20.9413 43.9539 21.2338 43.6695 21.2338 43.3187V39.1636C21.2338 38.8128 20.9413 38.5284 20.5804 38.5284Z" fill="#E2FF6F"/>
<path d="M8.59776 38.5284H12.7562C13.1175 38.5284 13.4096 38.8124 13.4096 39.1636V43.3224C13.4096 43.6736 13.1175 43.9576 12.7562 43.9576H8.59776C8.175 43.9576 7.8291 43.6213 7.8291 43.2103V39.2795C7.8291 38.8685 8.175 38.5322 8.59776 38.5322V38.5284Z" fill="#E2FF6F"/>
<path d="M4.92709 38.5284H0.653359C0.292519 38.5284 0 38.8128 0 39.1636V43.3187C0 43.6695 0.292519 43.9539 0.653359 43.9539H4.92709C5.28793 43.9539 5.58045 43.6695 5.58045 43.3187V39.1636C5.58045 38.8128 5.28793 38.5284 4.92709 38.5284Z" fill="#E2FF6F"/>
</svg>
