<svg width="43" height="34" viewBox="0 0 43 34" fill="none" xmlns="http://www.w3.org/2000/svg">
<path d="M36.2965 3.09773C33.5369 1.80661 30.5863 0.868278 27.5015 0.333984C27.1227 1.01893 26.6801 1.9402 26.3749 2.67306C23.0957 2.17991 19.8466 2.17991 16.6277 2.67306C16.3226 1.9402 15.87 1.01893 15.4877 0.333984C12.3996 0.868278 9.44557 1.81006 6.68603 3.10456C1.12003 11.5155 -0.388827 19.7176 0.365601 27.8032C4.05727 30.56 7.63494 32.2347 11.1522 33.3306C12.0207 32.1354 12.7952 30.8648 13.4624 29.5258C12.1917 29.0429 10.9745 28.447 9.82448 27.7553C10.1296 27.5292 10.428 27.2929 10.7163 27.0497C17.7308 30.3306 25.3523 30.3306 32.2829 27.0497C32.5747 27.2929 32.873 27.5292 33.1748 27.7553C32.0214 28.4504 30.8009 29.0463 29.5301 29.5292C30.1974 30.8648 30.9686 32.1388 31.8403 33.334C35.361 32.2381 38.942 30.5635 42.6337 27.8032C43.5189 18.4299 41.1215 10.3032 36.2965 3.09773ZM14.4181 22.8306C12.3124 22.8306 10.5856 20.8648 10.5856 18.471C10.5856 16.0772 12.2755 14.108 14.4181 14.108C16.5607 14.108 18.2875 16.0737 18.2506 18.471C18.2539 20.8648 16.5607 22.8306 14.4181 22.8306ZM28.5812 22.8306C26.4755 22.8306 24.7487 20.8648 24.7487 18.471C24.7487 16.0772 26.4386 14.108 28.5812 14.108C30.7238 14.108 32.4506 16.0737 32.4137 18.471C32.4137 20.8648 30.7238 22.8306 28.5812 22.8306Z" fill="white"/>
</svg>
