<svg width="563" height="214" viewBox="0 0 563 214" fill="none" xmlns="http://www.w3.org/2000/svg">
<g clip-path="url(#clip0_3906_6897)">
<rect width="563" height="214" fill="url(#paint0_linear_3906_6897)"/>
<path d="M13.6606 -9.83984L-6.53369 25.9632L13.6606 38.7177V16.1552V-9.83984Z" stroke="url(#paint1_linear_3906_6897)" stroke-width="0.5" stroke-linejoin="round"/>
<path d="M13.669 -9.83984L33.8633 25.9632L13.669 38.7177V16.1552V-9.83984Z" stroke="url(#paint2_linear_3906_6897)" stroke-width="0.5" stroke-linejoin="round"/>
<path d="M13.6606 60.4595V42.8007L-6.53369 30.0527L13.6606 60.4595Z" stroke="url(#paint3_linear_3906_6897)" stroke-width="0.5" stroke-linejoin="round"/>
<path d="M13.669 60.5825V42.9237L33.8633 30.1758L13.669 60.5825Z" stroke="url(#paint4_linear_3906_6897)" stroke-width="0.5" stroke-linejoin="round"/>
<path d="M13.6748 38.7148L33.8686 25.9603L13.6748 16.1523V38.7148Z" stroke="url(#paint5_linear_3906_6897)" stroke-width="0.5" stroke-linejoin="round"/>
<path d="M-6.53369 25.9603L13.6606 38.7148V16.1523L-6.53369 25.9603Z" stroke="url(#paint6_linear_3906_6897)" stroke-width="0.5" stroke-linejoin="round"/>
<path d="M547.266 173.552L525.147 183.609L530.262 196.634L538.163 185.909L547.266 173.552Z" stroke="url(#paint7_linear_3906_6897)" stroke-width="0.5" stroke-linejoin="round"/>
<path d="M547.283 173.565L544.327 197.546L530.279 196.647L538.18 185.922L547.283 173.565Z" stroke="url(#paint8_linear_3906_6897)" stroke-width="0.5" stroke-linejoin="round"/>
<path d="M522.656 206.965L528.842 198.569L523.723 185.545L522.656 206.965Z" stroke="url(#paint9_linear_3906_6897)" stroke-width="0.5" stroke-linejoin="round"/>
<path d="M522.628 207.034L528.814 198.638L542.863 199.541L522.628 207.034Z" stroke="url(#paint10_linear_3906_6897)" stroke-width="0.5" stroke-linejoin="round"/>
<path d="M530.283 196.646L544.337 197.546L538.188 185.918L530.283 196.646Z" stroke="url(#paint11_linear_3906_6897)" stroke-width="0.5" stroke-linejoin="round"/>
<path d="M525.149 183.603L530.266 196.632L538.171 185.904L525.149 183.603Z" stroke="url(#paint12_linear_3906_6897)" stroke-width="0.5" stroke-linejoin="round"/>
<path d="M487.047 24.2429L486.476 37.0757L493.916 37.8445L490.724 31.5245L487.047 24.2429Z" stroke="url(#paint13_linear_3906_6897)" stroke-width="0.5" stroke-linejoin="round"/>
<path d="M487.067 24.2336L497.768 31.4586L493.936 37.8352L490.745 31.5152L487.067 24.2336Z" stroke="url(#paint14_linear_3906_6897)" stroke-width="0.5" stroke-linejoin="round"/>
<path d="M496.984 43.9288L494.484 38.9814L487.04 38.2148L496.984 43.9288Z" stroke="url(#paint15_linear_3906_6897)" stroke-width="0.5" stroke-linejoin="round"/>
<path d="M497.018 43.9569L494.518 39.0094L498.352 32.6328L497.018 43.9569Z" stroke="url(#paint16_linear_3906_6897)" stroke-width="0.5" stroke-linejoin="round"/>
<path d="M493.932 37.8341L497.767 31.4545L490.736 31.5117L493.932 37.8341Z" stroke="url(#paint17_linear_3906_6897)" stroke-width="0.5" stroke-linejoin="round"/>
<path d="M486.468 37.0726L493.915 37.8409L490.72 31.5186L486.468 37.0726Z" stroke="url(#paint18_linear_3906_6897)" stroke-width="0.5" stroke-linejoin="round"/>
</g>
<rect x="0.25" y="0.25" width="562.5" height="213.5" stroke="url(#paint19_linear_3906_6897)" stroke-width="0.5"/>
<defs>
<linearGradient id="paint0_linear_3906_6897" x1="375.85" y1="408.881" x2="132.805" y2="4.61994" gradientUnits="userSpaceOnUse">
<stop offset="0.0198696" stop-color="#87922F" stop-opacity="0.1"/>
<stop offset="1" stop-color="white" stop-opacity="0"/>
</linearGradient>
<linearGradient id="paint1_linear_3906_6897" x1="3.56345" y1="-9.83984" x2="3.56345" y2="38.7177" gradientUnits="userSpaceOnUse">
<stop stop-color="#E2FF6F"/>
<stop offset="1" stop-color="#E2FF6F" stop-opacity="0"/>
</linearGradient>
<linearGradient id="paint2_linear_3906_6897" x1="23.7661" y1="-9.83984" x2="23.7661" y2="38.7177" gradientUnits="userSpaceOnUse">
<stop stop-color="#E2FF6F"/>
<stop offset="1" stop-color="#E2FF6F" stop-opacity="0"/>
</linearGradient>
<linearGradient id="paint3_linear_3906_6897" x1="3.56345" y1="30.0527" x2="3.56345" y2="60.4595" gradientUnits="userSpaceOnUse">
<stop stop-color="#E2FF6F"/>
<stop offset="1" stop-color="#E2FF6F" stop-opacity="0"/>
</linearGradient>
<linearGradient id="paint4_linear_3906_6897" x1="23.7661" y1="30.1758" x2="23.7661" y2="60.5825" gradientUnits="userSpaceOnUse">
<stop stop-color="#E2FF6F"/>
<stop offset="1" stop-color="#E2FF6F" stop-opacity="0"/>
</linearGradient>
<linearGradient id="paint5_linear_3906_6897" x1="23.7717" y1="16.1523" x2="23.7717" y2="38.7148" gradientUnits="userSpaceOnUse">
<stop stop-color="#E2FF6F"/>
<stop offset="1" stop-color="#E2FF6F" stop-opacity="0"/>
</linearGradient>
<linearGradient id="paint6_linear_3906_6897" x1="3.56345" y1="16.1523" x2="3.56345" y2="38.7148" gradientUnits="userSpaceOnUse">
<stop stop-color="#E2FF6F"/>
<stop offset="1" stop-color="#E2FF6F" stop-opacity="0"/>
</linearGradient>
<linearGradient id="paint7_linear_3906_6897" x1="542.475" y1="170.071" x2="525.623" y2="193.263" gradientUnits="userSpaceOnUse">
<stop stop-color="#E2FF6F"/>
<stop offset="1" stop-color="#E2FF6F" stop-opacity="0"/>
</linearGradient>
<linearGradient id="paint8_linear_3906_6897" x1="552.074" y1="177.046" x2="535.221" y2="200.238" gradientUnits="userSpaceOnUse">
<stop stop-color="#E2FF6F"/>
<stop offset="1" stop-color="#E2FF6F" stop-opacity="0"/>
</linearGradient>
<linearGradient id="paint9_linear_3906_6897" x1="528.515" y1="189.027" x2="517.96" y2="203.553" gradientUnits="userSpaceOnUse">
<stop stop-color="#E2FF6F"/>
<stop offset="1" stop-color="#E2FF6F" stop-opacity="0"/>
</linearGradient>
<linearGradient id="paint10_linear_3906_6897" x1="538.071" y1="196.059" x2="527.516" y2="210.585" gradientUnits="userSpaceOnUse">
<stop stop-color="#E2FF6F"/>
<stop offset="1" stop-color="#E2FF6F" stop-opacity="0"/>
</linearGradient>
<linearGradient id="paint11_linear_3906_6897" x1="542.98" y1="189.4" x2="535.147" y2="200.18" gradientUnits="userSpaceOnUse">
<stop stop-color="#E2FF6F"/>
<stop offset="1" stop-color="#E2FF6F" stop-opacity="0"/>
</linearGradient>
<linearGradient id="paint12_linear_3906_6897" x1="533.378" y1="182.422" x2="525.545" y2="193.202" gradientUnits="userSpaceOnUse">
<stop stop-color="#E2FF6F"/>
<stop offset="1" stop-color="#E2FF6F" stop-opacity="0"/>
</linearGradient>
<linearGradient id="paint13_linear_3906_6897" x1="484.229" y1="25.6449" x2="491.017" y2="39.2869" gradientUnits="userSpaceOnUse">
<stop stop-color="#E2FF6F"/>
<stop offset="1" stop-color="#E2FF6F" stop-opacity="0"/>
</linearGradient>
<linearGradient id="paint14_linear_3906_6897" x1="489.885" y1="22.8317" x2="496.673" y2="36.4737" gradientUnits="userSpaceOnUse">
<stop stop-color="#E2FF6F"/>
<stop offset="1" stop-color="#E2FF6F" stop-opacity="0"/>
</linearGradient>
<linearGradient id="paint15_linear_3906_6897" x1="489.86" y1="36.8123" x2="494.11" y2="45.358" gradientUnits="userSpaceOnUse">
<stop stop-color="#E2FF6F"/>
<stop offset="1" stop-color="#E2FF6F" stop-opacity="0"/>
</linearGradient>
<linearGradient id="paint16_linear_3906_6897" x1="495.533" y1="34.0353" x2="499.784" y2="42.581" gradientUnits="userSpaceOnUse">
<stop stop-color="#E2FF6F"/>
<stop offset="1" stop-color="#E2FF6F" stop-opacity="0"/>
</linearGradient>
<linearGradient id="paint17_linear_3906_6897" x1="493.557" y1="30.1089" x2="496.711" y2="36.4517" gradientUnits="userSpaceOnUse">
<stop stop-color="#E2FF6F"/>
<stop offset="1" stop-color="#E2FF6F" stop-opacity="0"/>
</linearGradient>
<linearGradient id="paint18_linear_3906_6897" x1="487.899" y1="32.9214" x2="491.054" y2="39.2641" gradientUnits="userSpaceOnUse">
<stop stop-color="#E2FF6F"/>
<stop offset="1" stop-color="#E2FF6F" stop-opacity="0"/>
</linearGradient>
<linearGradient id="paint19_linear_3906_6897" x1="-77.807" y1="-608.365" x2="21.4571" y2="244.274" gradientUnits="userSpaceOnUse">
<stop stop-color="#E2FF6F"/>
<stop offset="1" stop-color="#E2FF6F" stop-opacity="0"/>
</linearGradient>
<clipPath id="clip0_3906_6897">
<rect width="563" height="214" fill="white"/>
</clipPath>
</defs>
</svg>
