<svg width="40" height="41" viewBox="0 0 40 41" fill="none" xmlns="http://www.w3.org/2000/svg">
<g clip-path="url(#clip0_1300_9647)">
<path d="M40 20.8348C40 9.78906 31.0457 0.834767 20 0.834767C8.9543 0.834767 0 9.78906 0 20.8348C0 30.8173 7.31371 39.0914 16.875 40.5918V26.616H11.7969V20.8348H16.875V16.4285C16.875 11.416 19.8609 8.64727 24.4293 8.64727C26.6175 8.64727 28.9062 9.03789 28.9062 9.03789V13.9598H26.3843C23.8998 13.9598 23.125 15.5014 23.125 17.0831V20.8348H28.6719L27.7852 26.616H23.125V40.5918C32.6863 39.0914 40 30.8173 40 20.8348Z" fill="white"/>
<path d="M27.7852 26.6152L28.6719 20.834H23.125V17.0823C23.125 15.5007 23.8998 13.959 26.3843 13.959H28.9063V9.03711C28.9063 9.03711 26.6175 8.64648 24.4293 8.64648C19.8609 8.64648 16.875 11.4152 16.875 16.4277V20.834H11.7969V26.6152H16.875V40.591C17.8932 40.7508 18.9369 40.834 20 40.834C21.0631 40.834 22.1068 40.7508 23.125 40.591V26.6152H27.7852Z" fill="#2C2C34"/>
</g>
<defs>
<clipPath id="clip0_1300_9647">
<rect width="40" height="40" fill="white" transform="translate(0 0.833984)"/>
</clipPath>
</defs>
</svg>
