<svg width="492" height="293" viewBox="0 0 492 293" fill="none" xmlns="http://www.w3.org/2000/svg">
<path d="M481.868 36.2081C481.868 21.3283 481.822 21.4019 491.241 21.4019C481.822 21.4019 481.868 21.4755 481.868 6.5957C481.868 21.4755 481.915 21.4019 472.496 21.4019C481.915 21.4019 481.868 21.3283 481.868 36.2081Z" fill="#E2FF6F"/>
<circle cx="271.809" cy="147.984" r="128.873" fill="url(#paint0_linear_3874_7794)" fill-opacity="0.13"/>
<path d="M270.375 254.19L182.18 189.38L284.47 144.684L372.666 209.494L270.375 254.19Z" fill="#31391A" stroke="#0D0D0D" stroke-width="0.2" stroke-linecap="round" stroke-linejoin="round"/>
<path d="M372.473 209.501L284.278 144.691V106.176L372.473 170.986V209.501Z" fill="#B4CA5C" stroke="#0D0D0D" stroke-width="0.2" stroke-linecap="round" stroke-linejoin="round"/>
<path d="M372.478 170.936V209.498L270.187 254.195V215.68L372.478 170.936Z" fill="#E7FE8D" stroke="#0D0D0D" stroke-width="0.2" stroke-linecap="round" stroke-linejoin="round"/>
<path d="M284.281 106.125V144.688L181.99 189.384V150.822L284.281 106.125Z" fill="#E7FE8D" stroke="#0D0D0D" stroke-width="0.2" stroke-linecap="round" stroke-linejoin="round"/>
<path d="M270.375 254.195L182.18 189.385V151.773L270.375 215.68V254.195Z" fill="#B4CA5C" stroke="#0D0D0D" stroke-width="0.2" stroke-linecap="round" stroke-linejoin="round"/>
<path d="M372.478 150.918L367.716 163.709L265.425 208.405L270.187 195.615L372.478 150.918Z" fill="#E7FE8D" stroke="#0D0D0D" stroke-width="0.2" stroke-linecap="round" stroke-linejoin="round"/>
<path d="M270.185 195.614L265.423 208.405L181.99 121.484L186.752 108.693L270.185 195.614Z" fill="#B4CA5C" stroke="#0D0D0D" stroke-width="0.2" stroke-linecap="round" stroke-linejoin="round"/>
<path d="M186.751 108.691L270.184 195.611L372.475 150.915L289.042 63.9941L186.751 108.691Z" fill="#E2FF6F" stroke="#0D0D0D" stroke-width="0.2" stroke-linecap="round" stroke-linejoin="round"/>
<path d="M230.939 89.391L314.372 176.312L328.278 170.225L244.845 83.3047L230.939 89.391Z" fill="#953FD9" stroke="#020203" stroke-width="0.2" stroke-linecap="round" stroke-linejoin="round"/>
<path d="M223.234 146.687L233.758 157.671L336.049 112.927L325.477 101.99L223.234 146.687Z" fill="#953FD9" stroke="#020203" stroke-width="0.2" stroke-linecap="round" stroke-linejoin="round"/>
<path d="M294.184 121.816C290.664 118.16 286.106 115.67 281.124 114.684C276.142 113.698 270.976 114.262 266.326 116.3C264.58 117.065 263.045 118.239 261.85 119.722C260.656 121.205 259.837 122.954 259.463 124.82C259.089 126.686 259.171 128.615 259.703 130.443C260.234 132.271 261.199 133.944 262.516 135.32C266.017 138.986 270.557 141.497 275.527 142.517C280.498 143.537 285.661 143.017 290.327 141.026C292.094 140.259 293.65 139.076 294.861 137.578C296.072 136.081 296.902 134.314 297.281 132.427C297.66 130.54 297.576 128.589 297.037 126.742C296.498 124.894 295.519 123.204 294.184 121.816Z" fill="#953FD9" stroke="#020203" stroke-width="0.2" stroke-linecap="round" stroke-linejoin="round"/>
<path d="M221.279 109.45C235.899 111.447 248.614 106.122 249.852 97.6106C249.915 94.93 249.221 92.2858 247.848 89.9814C246.475 87.677 244.48 85.8058 242.09 84.582L202.612 101.842C208.003 106.066 214.468 108.701 221.279 109.45Z" fill="#0D0D0D" stroke="#020203" stroke-width="0.2" stroke-linecap="round" stroke-linejoin="round"/>
<path d="M328.234 104.844C325.815 106.145 323.822 108.116 322.496 110.52C321.17 112.923 320.566 115.658 320.757 118.395C322.281 126.812 335.282 131.567 349.759 128.951L351.092 128.666L328.234 104.844Z" fill="#0D0D0D" stroke="#020203" stroke-width="0.2" stroke-linecap="round" stroke-linejoin="round"/>
<path d="M314.383 176.307L309.621 189.098L323.526 183.012L328.288 170.221L314.383 176.307Z" fill="#953FD9" stroke="#020203" stroke-width="0.2" stroke-linecap="round" stroke-linejoin="round"/>
<path d="M223.236 146.686L218.426 159.429L228.998 170.413L233.76 157.669L223.236 146.686Z" fill="#953FD9" stroke="#020203" stroke-width="0.2" stroke-linecap="round" stroke-linejoin="round"/>
<path d="M247.612 96.0437L249.708 90.3853L199.658 72.0312L197.61 77.6897C194.657 85.7731 203.467 96.3766 217.277 101.464C231.087 106.552 244.66 104.127 247.612 96.0437Z" fill="#FFCB45"/>
<path d="M247.612 96.0437L249.708 90.3853L199.658 72.0312L197.61 77.6897C194.657 85.7731 203.467 96.3766 217.277 101.464C231.087 106.552 244.66 104.127 247.612 96.0437Z" stroke="#020203" stroke-width="0.2" stroke-linecap="round" stroke-linejoin="round"/>
<path d="M219.331 95.8066C233.189 100.847 246.761 98.3743 249.713 90.3384C252.666 82.3025 243.856 71.6514 230.046 66.5636C216.236 61.4758 202.616 63.996 199.663 72.0794C196.711 80.1628 205.521 91.0516 219.331 95.8066Z" fill="#FFF066" stroke="#020203" stroke-width="0.2" stroke-linecap="round" stroke-linejoin="round"/>
<path d="M241.802 92.765C234.912 95.1145 227.394 94.8265 220.705 91.9567C208.276 87.4395 201.657 78.5953 203.514 73.5075C203.88 72.6379 204.433 71.8588 205.133 71.2251C205.807 70.5514 206.62 70.0323 207.514 69.7036C214.404 67.3541 221.922 67.6421 228.61 70.5118C241.087 75.0291 247.659 83.8732 245.849 88.9135C245.467 89.7881 244.917 90.5796 244.23 91.2435C243.531 91.9073 242.705 92.4246 241.802 92.765V92.765Z" stroke="#020203" stroke-width="0.2" stroke-linecap="round" stroke-linejoin="round"/>
<path d="M371.575 92.3822L369.051 86.9141L320.715 109.31L323.287 114.826C326.906 122.624 340.669 123.908 354.003 117.726C367.337 111.545 375.146 100.18 371.575 92.3822Z" fill="#FFCB45"/>
<path d="M371.575 92.3822L369.051 86.9141L320.715 109.31L323.287 114.826C326.906 122.576 340.669 123.908 354.003 117.726C367.337 111.545 375.146 100.18 371.575 92.3822Z" stroke="#020203" stroke-width="0.2" stroke-linecap="round" stroke-linejoin="round"/>
<path d="M369.006 86.9132C365.387 79.1151 351.672 77.8311 338.338 84.0126C325.004 90.194 317.099 101.511 320.718 109.309C324.337 117.107 338.1 118.391 351.434 112.21C364.768 106.028 372.673 94.7113 369.006 86.9132Z" fill="#FFF066" stroke="#020203" stroke-width="0.2" stroke-linecap="round" stroke-linejoin="round"/>
<path d="M365.288 88.5809C363.002 83.8259 352.097 82.114 340.096 87.7249C333.334 90.4007 327.803 95.4825 324.572 101.99C324.203 102.865 323.993 103.799 323.953 104.748C323.937 105.708 324.115 106.662 324.476 107.553C326.762 112.308 337.668 114.02 349.668 108.409C356.418 105.731 361.933 100.648 365.145 94.1441C365.55 93.2786 365.777 92.3409 365.812 91.3863C365.827 90.4256 365.649 89.4716 365.288 88.5809V88.5809Z" stroke="#020203" stroke-width="0.2" stroke-linecap="round" stroke-linejoin="round"/>
<path d="M369.915 95.81L360.819 95.0016C353.104 93.7653 350.628 95.2869 348.39 105.415L344.438 119.68L346.39 105.177C348.104 95.6674 346.914 92.434 339.104 90.6747L330.437 87.7741L339.485 88.5825C346.961 89.5335 349.533 87.7266 351.962 78.1692L355.914 63.9043L353.866 78.1692C352.628 87.3462 352.914 90.6747 361.153 92.7193L369.915 95.81Z" fill="white"/>
<path d="M264.151 84.3938L258.294 83.8707C253.531 83.0624 251.769 83.8707 250.293 90.5276L247.769 99.562L249.055 90.0521C250.15 83.9182 249.34 81.9211 244.293 80.5422L238.721 78.6878L244.579 79.2108C249.341 79.829 251.007 78.6878 252.579 72.5539L255.103 63.5195L253.817 72.7917C253.007 78.6879 253.198 80.8276 258.579 82.3017L264.151 84.3938Z" fill="white"/>
<path d="M255.776 190.211L216.125 205.593L249.335 261.176L289.045 245.944L255.776 190.211Z" fill="#9724D6" stroke="#0D0D0D" stroke-width="0.15" stroke-linecap="round" stroke-linejoin="round"/>
<path d="M259.585 187.041L219.317 200.318L249.484 257.797L289.81 244.689L259.585 187.041Z" fill="#9724D6" stroke="#0D0D0D" stroke-width="0.15" stroke-linecap="round" stroke-linejoin="round"/>
<path d="M263.527 184.078L222.75 195.171L249.746 254.405L290.58 243.502L263.527 184.078Z" fill="#9724D6" stroke="#0D0D0D" stroke-width="0.15" stroke-linecap="round" stroke-linejoin="round"/>
<path d="M267.894 181.373L226.716 190.151L250.305 251.051L291.541 242.473L267.894 181.373Z" fill="#FF8EFF" stroke="#0D0D0D" stroke-width="0.15" stroke-linecap="round" stroke-linejoin="round"/>
<path d="M267.042 188.404L262.686 185.891L235.505 191.647H235.437L232.579 195.686L251.43 243.938L256.833 246.222H256.872L283.573 240.686L285.482 236.825L267.042 188.404Z" fill="#FF8EFF" stroke="#0D0D0D" stroke-width="0.15" stroke-linecap="round" stroke-linejoin="round"/>
<g style="mix-blend-mode:color-dodge">
<g style="mix-blend-mode:color-dodge">
<g style="mix-blend-mode:color-dodge">
<path d="M271.808 200.921L256.872 246.23H256.832L251.42 243.936L243.746 224.264L255.785 187.365L262.686 185.898L267.041 188.402L271.808 200.921Z" fill="white"/>
</g>
</g>
</g>
<path d="M267.042 188.404L262.686 185.891L235.505 191.647H235.437L232.579 195.686L251.43 243.938L256.833 246.222H256.872L283.573 240.686L285.482 236.825L267.042 188.404Z" stroke="#0D0D0D" stroke-width="0.2" stroke-linecap="round" stroke-linejoin="round"/>
<path d="M256.006 220.641C259.33 219.858 263.729 217.14 263.405 212.469L266.261 211.844L267.557 208.025L262.796 209.017C262.605 208.272 262.261 207.579 261.788 206.986C261.314 206.393 260.722 205.915 260.053 205.585L264.471 204.673L265.776 200.705L247.246 204.673L246.037 208.57L251.464 207.42C256.34 206.369 258.311 208.769 258.634 209.86L248.979 211.982L247.779 215.732L259.149 213.331C259.682 216.664 255.721 217.428 252.759 218.241L250.074 218.945L251.141 221.673L264.767 231.74L269.528 230.669C264.919 227.187 260.624 224.152 256.006 220.641Z" fill="#CC36CC" stroke="#0D0D0D" stroke-width="0.15" stroke-linecap="round" stroke-linejoin="round"/>
<path d="M293.12 239.83C287.997 238.113 287.911 236.085 288.77 229.702L290.246 219.574L287.561 229.447C285.896 236.096 284.22 237.326 279.573 237.027L273.824 236.406L279.287 238.068C284.05 239.598 284.793 241.747 283.827 248.34L282.162 258.402L284.74 248.429C286.607 241.359 288.06 240.551 292.908 241.005L298.551 241.57L293.12 239.83Z" fill="white" stroke="#020203" stroke-width="0.2" stroke-linecap="round" stroke-linejoin="round"/>
<path d="M239.634 194.915C235.335 193.478 235.264 191.783 235.985 186.444L237.222 177.973L234.97 186.231C233.573 191.792 232.166 192.821 228.267 192.57L223.442 192.051L228.027 193.442C232.024 194.721 232.647 196.519 231.837 202.033L230.439 210.449L232.602 202.107C234.169 196.194 235.388 195.518 239.456 195.898L244.192 196.37L239.634 194.915Z" fill="white" stroke="#020203" stroke-width="0.2" stroke-linecap="round" stroke-linejoin="round"/>
<circle cx="53.5689" cy="54.085" r="41.9004" transform="rotate(19.6621 53.5689 54.085)" fill="url(#paint1_linear_3874_7794)" fill-opacity="0.13"/>
<circle cx="437.684" cy="254.765" r="29.4925" transform="rotate(19.6621 437.684 254.765)" fill="url(#paint2_linear_3874_7794)" fill-opacity="0.13"/>
<rect x="425.618" y="229.887" width="39.4665" height="38.7356" rx="19.3678" transform="rotate(19.6621 425.618 229.887)" fill="#B4CA5C"/>
<rect x="427.887" y="234.676" width="31.9698" height="31.2433" rx="15.6216" transform="rotate(19.6621 427.887 234.676)" fill="#E2FF6F"/>
<path d="M443.116 254.731L442.174 256.033L433.64 252.984L434.582 251.682L443.116 254.731ZM435.676 263.48L432.842 256.058L433.24 254.915L435.484 255.717C436.134 255.949 436.709 256.033 437.208 255.97C437.716 255.902 438.144 255.72 438.493 255.423C438.841 255.125 439.098 254.744 439.265 254.278C439.451 253.757 439.513 253.264 439.451 252.799C439.391 252.328 439.183 251.905 438.826 251.529C438.478 251.148 437.955 250.834 437.256 250.584L434.828 249.716L435.779 248.418L437.775 249.131C438.842 249.512 439.663 249.989 440.24 250.561C440.825 251.13 441.18 251.782 441.304 252.518C441.428 253.253 441.335 254.057 441.024 254.927C440.757 255.675 440.373 256.295 439.872 256.787C439.38 257.274 438.745 257.57 437.969 257.673C437.198 257.778 436.261 257.633 435.158 257.239L437.803 264.116L437.764 264.226L435.676 263.48ZM444.286 251.457L443.344 252.759L436.465 250.301L437.407 248.999L444.286 251.457Z" fill="#953FD9"/>
<rect x="37.6055" y="19.7051" width="54" height="53" rx="26.5" transform="rotate(19.6621 37.6055 19.7051)" fill="#B4CA5C"/>
<rect x="40.6313" y="26.0957" width="44" height="43" rx="21.5" transform="rotate(19.6621 40.6313 26.0957)" fill="#E2FF6F"/>
<path d="M62.0185 50.6464L60.6523 52.5341L48.2778 48.1127L49.644 46.225L62.0185 50.6464ZM51.2303 63.3324L47.1208 52.5712L47.6983 50.913L50.9519 52.0755C51.8942 52.4122 52.7277 52.5346 53.4522 52.4426C54.1889 52.3449 54.8096 52.0805 55.3145 51.6494C55.8194 51.2183 56.1926 50.665 56.434 49.9894C56.704 49.2337 56.7939 48.519 56.7038 47.8453C56.6169 47.1626 56.3151 46.5485 55.7983 46.003C55.2935 45.4517 54.5344 44.995 53.521 44.6329L50.0007 43.3751L51.3802 41.4922L54.2738 42.5261C55.8206 43.0788 57.0121 43.7701 57.8483 44.6002C58.6965 45.4246 59.2108 46.3702 59.3909 47.437C59.5711 48.5039 59.4357 49.6685 58.9847 50.9308C58.5971 52.0154 58.0404 52.9141 57.3145 53.6271C56.6007 54.3344 55.6808 54.7626 54.5549 54.9117C53.4379 55.0639 52.0793 54.8542 50.4792 54.2824L54.3145 64.2539L54.2573 64.4139L51.2303 63.3324ZM63.7146 45.8994L62.3484 47.787L52.3742 44.2232L53.7404 42.3355L63.7146 45.8994Z" fill="#953FD9"/>
<defs>
<linearGradient id="paint0_linear_3874_7794" x1="373.309" y1="-54.5928" x2="150.94" y2="312.493" gradientUnits="userSpaceOnUse">
<stop stop-color="white"/>
<stop offset="1" stop-color="white" stop-opacity="0"/>
</linearGradient>
<linearGradient id="paint1_linear_3874_7794" x1="86.5696" y1="-11.7788" x2="14.2709" y2="107.571" gradientUnits="userSpaceOnUse">
<stop stop-color="white"/>
<stop offset="1" stop-color="white" stop-opacity="0"/>
</linearGradient>
<linearGradient id="paint2_linear_3874_7794" x1="460.913" y1="208.405" x2="410.024" y2="292.412" gradientUnits="userSpaceOnUse">
<stop stop-color="white"/>
<stop offset="1" stop-color="white" stop-opacity="0"/>
</linearGradient>
</defs>
</svg>
