<svg width="91" height="68" viewBox="0 0 91 68" fill="none" xmlns="http://www.w3.org/2000/svg">
<path d="M32.6315 43.739C46.5449 45.6396 58.6455 40.5714 59.8238 32.4713C59.884 29.9202 59.2234 27.4038 57.9168 25.2108C56.6102 23.0177 54.711 21.2369 52.4371 20.0723L14.8662 36.4986C19.9966 40.5181 26.1496 43.0259 32.6315 43.739V43.739Z" fill="#1D1D1F"/>
<path d="M63.0459 58.511C77.8573 56.2771 87.7446 45.4988 85.3188 34.4497C84.2427 31.0756 82.4587 27.9922 80.1703 25.5537C77.8819 23.1151 75.1823 21.42 72.3812 20.6624L41.9897 55.0354C48.9296 58.5743 56.2224 59.7782 63.0459 58.511V58.511Z" fill="#1D1D1F"/>
<path d="M57.6925 30.9792L59.6869 25.5942L12.055 8.12695L10.1059 13.512C7.29605 21.2048 15.6804 31.296 28.8233 36.138C41.9663 40.98 54.8826 38.672 57.6925 30.9792Z" fill="#FFCB45"/>
<path d="M30.776 30.7547C43.9642 35.5514 56.8806 33.1983 59.6905 25.5507C62.5003 17.9031 54.116 7.76663 40.9731 2.92466C27.8301 -1.91731 14.8684 0.481062 12.0586 8.17391C9.24869 15.8668 17.633 26.2294 30.776 30.7547Z" fill="#FFF066" stroke="#020203" stroke-width="0.2" stroke-linecap="round" stroke-linejoin="round"/>
<path d="M52.1609 27.8559C45.6043 30.0919 38.4495 29.8178 32.0837 27.0867C20.2551 22.7877 13.9556 14.3708 15.7231 9.52886C16.0719 8.70126 16.5982 7.95984 17.2644 7.35671C17.9056 6.7156 18.6788 6.22159 19.5304 5.90875C26.0871 3.67277 33.2413 3.94683 39.6071 6.67796C51.481 10.9769 57.7353 19.3938 56.0131 24.1905C55.6491 25.0228 55.1258 25.7761 54.4723 26.4079C53.8063 27.0397 53.0204 27.5319 52.1609 27.8559V27.8559Z" stroke="#020203" stroke-width="0.2" stroke-linecap="round" stroke-linejoin="round"/>
<path d="M21.7033 26.8703L18.2738 24.3504C15.6205 22.0818 14.2482 21.878 10.9905 25.1397L6.24856 29.3691L10.3942 24.3975C13.2324 21.2917 13.4369 19.8386 10.8085 17.1342L8.02469 13.9586L11.4543 16.4784C14.1747 18.6378 15.6052 18.6143 18.7372 15.6889L23.4795 11.4597L19.4173 16.2947C16.8392 19.3723 16.2024 20.6727 19.003 23.558L21.7033 26.8703Z" fill="white"/>
<path d="M81.9342 24.5268L78.7696 19.7351L36.5254 47.8302L39.7169 52.5854C44.2611 59.399 57.3566 58.6011 69.0309 50.862C80.7052 43.123 86.4784 31.3405 81.9342 24.5268Z" fill="#FFCB45"/>
<path d="M65.8443 46.1078C77.5088 38.3055 83.2456 26.4962 78.738 19.7093C74.2303 12.9224 61.0983 13.6936 49.424 21.4326C37.7497 29.1717 32.0227 41.0442 36.5668 47.8579C41.111 54.6716 54.4255 54.0341 65.8443 46.1078Z" fill="#FFF066" stroke="#020203" stroke-width="0.2" stroke-linecap="round" stroke-linejoin="round"/>
<path d="M76.1492 27.1449C74.0771 33.7552 69.6269 39.3642 63.6612 42.8845C53.2018 49.8844 42.6891 49.9904 39.8283 45.7027C39.367 44.9321 39.08 44.0694 38.9873 43.1755C38.8492 42.2794 38.9078 41.3637 39.1588 40.4918C41.2309 33.8816 45.6808 28.2729 51.6465 24.7526C62.1327 17.7162 72.6186 17.6467 75.4697 21.8711C75.9259 22.6567 76.2242 23.5241 76.3475 24.4246C76.4634 25.3353 76.3959 26.2601 76.1492 27.1449V27.1449Z" stroke="#020203" stroke-width="0.2" stroke-linecap="round" stroke-linejoin="round"/>
</svg>
