<svg width="34" height="26" viewBox="0 0 34 26" fill="none" xmlns="http://www.w3.org/2000/svg">
<path d="M4.56395 24.8302C4.59 24.961 4.71409 25.0483 4.84596 25.0286L29.1726 21.4055C29.2314 21.3967 29.2852 21.3673 29.3242 21.3225L30.4452 20.0367C30.5016 19.9721 30.5209 19.883 30.4962 19.8007L25.8343 4.23336C25.8 4.11891 25.6895 4.0447 25.5706 4.05626L2.28527 6.31836C2.20873 6.3258 2.13986 6.36805 2.09856 6.43292L1.23894 7.78305C1.20435 7.83739 1.19206 7.90299 1.20465 7.96616L4.56395 24.8302Z" fill="#5B1F53" stroke="#0D0D0D" stroke-width="0.5" stroke-linejoin="round"/>
<path d="M5.48667 23.7263C5.51291 23.8576 5.63786 23.9449 5.77011 23.9244L30.2953 20.122C30.3637 20.1114 30.4247 20.0729 30.4636 20.0157C30.5026 19.9585 30.5161 19.8877 30.5009 19.8201L26.6986 2.89965C26.6698 2.7718 26.5473 2.68783 26.4177 2.70722L2.2727 6.31946C2.20503 6.32958 2.14447 6.367 2.10513 6.42299C2.0658 6.47897 2.05113 6.54864 2.06455 6.61573L5.48667 23.7263Z" fill="#A82F98" stroke="#0D0D0D" stroke-width="0.5" stroke-linejoin="round"/>
<path fill-rule="evenodd" clip-rule="evenodd" d="M12.0122 22.7522L15.3531 4.59907L18.8349 3.96229L15.1739 22.1471L12.0122 22.7522Z" fill="url(#paint0_linear_1_2394)"/>
<path fill-rule="evenodd" clip-rule="evenodd" d="M7.58053 20.671L8.92181 22.0454L14.3586 4.69497L12.3216 5.03242L7.58053 20.671Z" fill="url(#paint1_linear_1_2394)"/>
<path d="M15.9983 16.0726L27.7856 14.1714M16.3785 18.5441L26.0745 17.0232" stroke="#0D0D0D" stroke-width="0.5" stroke-linejoin="round"/>
<path d="M7.44282 21.3959L5.92188 13.2208L13.1463 12.0801L14.8574 20.2552L7.44282 21.3959Z" fill="#F1FFB8" stroke="#0D0D0D" stroke-width="0.5" stroke-linejoin="round"/>
<path d="M3.26038 11.3196L15.4279 9.41845L27.5954 7.51727" stroke="#0D0D0D" stroke-width="0.5" stroke-linejoin="round"/>
<path d="M15.618 13.9813L15.2378 12.0801L27.0251 10.179L27.5954 12.0801L15.618 13.9813Z" fill="white"/>
<path d="M15.618 13.9813L15.2378 12.0801L27.0251 10.179L27.5954 12.0801L15.618 13.9813Z" stroke="#0D0D0D" stroke-width="0.5" stroke-linejoin="round"/>
<path d="M11.6301 15.4261C11.8222 16.3701 11.278 17.2362 10.4716 17.4003C9.66525 17.5644 8.8258 16.9799 8.6337 16.0359C8.44159 15.0918 8.98585 14.2258 9.79221 14.0617C10.5986 13.8976 11.438 14.4821 11.6301 15.4261Z" fill="white" stroke="#0D0D0D" stroke-width="0.5"/>
<path d="M13.5978 19.3184C13.7573 19.5831 13.8752 19.8708 13.9477 20.1709L8.14574 21.0754C8.12345 20.7674 8.14822 20.4575 8.2196 20.1568C8.31022 19.7751 8.47417 19.4157 8.70189 19.0991C8.92961 18.7826 9.21664 18.5151 9.54647 18.3118C9.8763 18.1085 10.2426 17.9733 10.6244 17.9137C11.0062 17.8542 11.3962 17.8716 11.7723 17.9648C12.1484 18.0581 12.5032 18.2255 12.8164 18.4577C13.1297 18.6899 13.3953 18.9823 13.5978 19.3184Z" fill="white" stroke="#0D0D0D" stroke-width="0.5"/>
<path fill-rule="evenodd" clip-rule="evenodd" d="M21.8234 3.37193C20.6568 4.76443 20.1609 6.70629 20.6604 8.62902C21.2093 10.7422 22.8198 12.2904 24.7481 12.8241L25.5798 17.1742L27.763 14.0721L29.5727 15.3442L26.7178 2.63971L21.8234 3.37193Z" fill="#0D0D0D"/>
<path d="M26.7304 16.5456L25.6918 11.1135L31.1235 10.0087L32.0954 15.6801L28.9135 13.4435L26.7304 16.5456Z" fill="#E2FF6F" stroke="#0D0D0D" stroke-width="0.5" stroke-linejoin="round"/>
<path d="M33.0145 4.67952C33.7918 7.67206 32.0537 10.7023 29.1478 11.4572C26.242 12.212 23.2488 10.4108 22.4714 7.41825C21.694 4.42571 23.4322 1.39543 26.338 0.640593C29.2439 -0.114246 32.2371 1.68698 33.0145 4.67952Z" fill="#E2FF6F" stroke="#0D0D0D" stroke-width="0.5"/>
<path d="M31.9301 4.7259C32.6833 7.11013 31.4099 9.62624 29.1032 10.355C26.7965 11.0838 24.3086 9.75597 23.5553 7.37174C22.8021 4.98751 24.0755 2.4714 26.3822 1.74264C28.6889 1.01388 31.1768 2.34167 31.9301 4.7259Z" fill="white" stroke="#0D0D0D" stroke-width="0.5"/>
<path d="M27.2441 3.06625L28.4311 4.6688L30.4254 4.65297L29.2681 6.27714L29.8994 8.16888L27.9971 7.57012L26.393 8.75512L26.3746 6.7609L24.752 5.60152L26.6429 4.96778L27.2441 3.06625Z" fill="#E2FF6F" stroke="#0D0D0D" stroke-width="0.5" stroke-linejoin="round"/>
<defs>
<linearGradient id="paint0_linear_1_2394" x1="19.036" y1="0.274153" x2="0.384645" y2="19.778" gradientUnits="userSpaceOnUse">
<stop stop-color="white"/>
<stop offset="1" stop-color="white" stop-opacity="0"/>
</linearGradient>
<linearGradient id="paint1_linear_1_2394" x1="14.1501" y1="-0.517421" x2="25.3992" y2="15.0836" gradientUnits="userSpaceOnUse">
<stop stop-color="white"/>
<stop offset="1" stop-color="white" stop-opacity="0"/>
</linearGradient>
</defs>
</svg>
