<svg width="146" height="108" viewBox="0 0 146 108" fill="none" xmlns="http://www.w3.org/2000/svg">
<circle cx="70.3389" cy="54.2021" r="53.1807" fill="url(#paint0_linear_861_1607)"/>
<mask id="mask0_861_1607" style="mask-type:luminance" maskUnits="userSpaceOnUse" x="43" y="71" width="30" height="10">
<path d="M65.0954 71.4636H72.3641C63.9327 71.4636 56.2891 75.05 50.3035 80.9156H43.0348C49.0205 75.0496 56.6644 71.4636 65.0954 71.4636Z" fill="white"/>
</mask>
<g mask="url(#mask0_861_1607)">
<path d="M65.0954 71.4636H72.3641C64.661 71.4636 57.615 74.4573 51.8905 79.4478H44.6218C50.3468 74.4569 57.3924 71.4636 65.0954 71.4636Z" fill="#5DB16F"/>
<path d="M44.6222 79.4478H51.8909C51.3496 79.9194 50.8205 80.409 50.3035 80.9156H43.0348C43.5518 80.409 44.0809 79.9194 44.6222 79.4478Z" fill="#5DB16F"/>
</g>
<mask id="mask1_861_1607" style="mask-type:luminance" maskUnits="userSpaceOnUse" x="8" y="13" width="65" height="27">
<path d="M72.3641 13.562C50.4646 13.562 30.7181 23.6765 15.8229 39.9058H8.55428C23.4495 23.6765 43.1959 13.562 65.0954 13.562C67.2763 13.562 70.1835 13.562 72.3641 13.562Z" fill="white"/>
</mask>
<g mask="url(#mask1_861_1607)">
<path d="M65.0954 13.562H72.3641C53.8495 13.562 36.8738 20.7916 23.0677 32.8329H15.799C29.6052 20.7916 46.5813 13.562 65.0954 13.562Z" fill="#5DB16F"/>
<path d="M15.799 32.8329H23.0677C20.7305 34.871 18.4844 37.0472 16.3371 39.3496H9.06844C11.2158 37.0476 13.4623 34.8714 15.799 32.8329Z" fill="#5DB16F"/>
<path d="M9.06843 39.3501H16.3371C16.165 39.5344 15.9938 39.7199 15.8229 39.9058H8.55428C8.72512 39.7195 8.89637 39.5344 9.06843 39.3501Z" fill="#5DB16F"/>
</g>
<mask id="mask2_861_1607" style="mask-type:luminance" maskUnits="userSpaceOnUse" x="24" y="41" width="49" height="19">
<path d="M65.1027 41.1012H72.3713C56.8742 41.1012 42.887 48.1119 32.2197 59.4076H24.951C35.6184 48.1115 49.6055 41.1012 65.1027 41.1012Z" fill="white"/>
</mask>
<g mask="url(#mask2_861_1607)">
<path d="M65.1027 41.1012H72.3714C59.0053 41.1012 46.7627 46.3161 36.8042 54.9981H29.5355C39.4936 46.3161 51.7366 41.1012 65.1027 41.1012Z" fill="#5DB16F"/>
<path d="M29.5355 54.9977H36.8042C35.2164 56.3819 33.6869 57.8542 32.2197 59.4077H24.951C26.4178 57.8542 27.9477 56.3819 29.5355 54.9977Z" fill="#5DB16F"/>
</g>
<path d="M99.5343 72.1622H106.803L96.3372 82.9262H89.0685L99.5343 72.1622Z" fill="#0B5128"/>
<path d="M65.0954 54.9607C78.5765 54.9607 90.7106 61.615 99.5339 72.1622L89.0681 82.9261C82.8533 75.8574 74.4563 71.4636 65.095 71.4636C56.6636 71.4636 49.0201 75.05 43.0344 80.9156L33.2525 69.2818C41.8033 60.4403 52.8945 54.9607 65.0954 54.9607Z" fill="url(#paint1_linear_861_1607)"/>
<mask id="mask3_861_1607" style="mask-type:luminance" maskUnits="userSpaceOnUse" x="65" y="54" width="42" height="19">
<path d="M65.0954 54.9607H72.3641C85.8451 54.9607 97.9792 61.615 106.803 72.1622H99.5339C90.7106 61.615 78.5765 54.9607 65.0954 54.9607Z" fill="white"/>
</mask>
<g mask="url(#mask3_861_1607)">
<path d="M65.0954 54.9607H72.3641C72.639 54.9607 72.9134 54.9635 73.1871 54.9688H65.9185C65.6448 54.9631 65.3707 54.9607 65.0954 54.9607Z" fill="#5DB16F"/>
<path d="M65.9189 54.9689H73.1875C74.315 54.9916 75.4324 55.0606 76.5389 55.1751H69.2702C68.1634 55.0606 67.046 54.9916 65.9189 54.9689Z" fill="#5FDD63"/>
<path d="M69.2702 55.175H76.5389C77.5482 55.279 78.5481 55.4206 79.5384 55.598H72.2697C71.2795 55.4202 70.2795 55.279 69.2702 55.175Z" fill="#5DB16F"/>
<path d="M72.2697 55.598H79.5384C80.4784 55.7665 81.4096 55.9678 82.331 56.2004H75.0624C74.1409 55.9674 73.2098 55.7665 72.2697 55.598Z" fill="#5DB16F"/>
<path d="M75.0624 56.2H82.331C83.2185 56.424 84.0966 56.6769 84.9654 56.9586H77.6967C76.8283 56.6773 75.9498 56.424 75.0624 56.2Z" fill="#5DB16F"/>
<path d="M77.6967 56.9586H84.9654C85.82 57.2355 86.6653 57.5399 87.5001 57.8703H80.2315C79.3967 57.5399 78.5514 57.2355 77.6967 56.9586Z" fill="#5DB16F"/>
<path d="M80.2319 57.8704H87.5005C88.3325 58.1996 89.1543 58.5552 89.9657 58.9363H82.697C81.8853 58.5556 81.0634 58.2 80.2319 57.8704Z" fill="#5DB16F"/>
<path d="M82.6966 58.9363H89.9652C90.7838 59.3207 91.5919 59.7311 92.3883 60.1662H85.1196C84.3233 59.7311 83.5152 59.3207 82.6966 58.9363Z" fill="#5DB16F"/>
<path d="M85.1196 60.1663H92.3883C93.2004 60.6099 94.0008 61.0796 94.7882 61.574H87.5196C86.7321 61.0796 85.9318 60.6099 85.1196 60.1663Z" fill="#5DB16F"/>
<path d="M87.5196 61.5741H94.7882C95.6064 62.0876 96.4108 62.6283 97.2011 63.1945H89.9325C89.1422 62.6283 88.3378 62.0876 87.5196 61.5741Z" fill="#5DB16F"/>
<path d="M89.9325 63.1945H97.2011C98.027 63.7863 98.8371 64.4066 99.6306 65.0532H92.362C91.5685 64.4066 90.7584 63.7863 89.9325 63.1945Z" fill="#5DB16F"/>
<path d="M92.362 65.0536H99.6306C100.484 65.7493 101.318 66.4764 102.132 67.2326H94.8631C94.0494 66.476 93.215 65.7493 92.362 65.0536Z" fill="#5DB16F"/>
<path d="M94.8631 67.2327H102.132C103.022 68.0603 103.888 68.9234 104.728 69.8196H97.4598C96.6194 68.9234 95.7534 68.0603 94.8631 67.2327Z" fill="#5DB16F"/>
<path d="M97.4598 69.8196H104.728C105.439 70.577 106.13 71.3584 106.803 72.1622H99.5343C98.8618 71.358 98.1699 70.577 97.4598 69.8196Z" fill="#5DB16F"/>
</g>
<mask id="mask4_861_1607" style="mask-type:luminance" maskUnits="userSpaceOnUse" x="65" y="25" width="46" height="14">
<path d="M72.3714 25.5676C86.3488 25.5676 99.3585 30.2833 110.45 38.3807H103.182C92.0899 30.2833 79.0801 25.5676 65.1027 25.5676C67.2832 25.5676 70.1908 25.5676 72.3714 25.5676Z" fill="white"/>
</mask>
<g mask="url(#mask4_861_1607)">
<path d="M65.1027 25.5676H72.3714C72.7932 25.5676 73.2143 25.5721 73.6345 25.5806H66.3658C65.9456 25.5721 65.5246 25.5676 65.1027 25.5676Z" fill="#5DB16F"/>
<path d="M66.3658 25.5806H73.6345C75.3405 25.6155 77.0312 25.7202 78.7052 25.8931H71.4366C69.7625 25.7202 68.0715 25.6151 66.3658 25.5806Z" fill="#5FDD63"/>
<path d="M71.4366 25.8928H78.7052C80.2355 26.0507 81.7517 26.2651 83.2529 26.5346H75.9842C74.483 26.2655 72.9669 26.0507 71.4366 25.8928Z" fill="#5DB16F"/>
<path d="M75.9842 26.5345H83.2529C84.6731 26.7895 86.0795 27.0931 87.471 27.4442H80.2023C78.8109 27.0931 77.4044 26.7895 75.9842 26.5345Z" fill="#5DB16F"/>
<path d="M80.2023 27.4442H87.471C88.8151 27.7836 90.145 28.1668 91.4604 28.593H84.1917C82.8764 28.1672 81.546 27.7836 80.2023 27.4442Z" fill="#5DB16F"/>
<path d="M84.1913 28.593H91.46C92.7514 29.0115 94.0283 29.471 95.2902 29.9707H88.0216C86.7601 29.4714 85.4828 29.0115 84.1913 28.593Z" fill="#5DB16F"/>
<path d="M88.0216 29.9711H95.2902C96.5469 30.4687 97.7881 31.0058 99.0132 31.581H91.7446C90.5195 31.0054 89.2782 30.4683 88.0216 29.9711Z" fill="#5DB16F"/>
<path d="M91.7446 31.5811H99.0132C100.249 32.1611 101.468 32.7806 102.67 33.4369H95.4016C94.1996 32.7802 92.9806 32.1611 91.7446 31.5811Z" fill="#5DB16F"/>
<path d="M95.4016 33.4369H102.67C103.898 34.1075 105.107 34.817 106.297 35.5643H99.0282C97.8384 34.817 96.6291 34.1075 95.4016 33.4369Z" fill="#5DB16F"/>
<path d="M99.0286 35.5643H106.297C107.528 36.3372 108.739 37.1507 109.928 38.0027H102.659C101.47 37.1507 100.259 36.3376 99.0286 35.5643Z" fill="#5DB16F"/>
<path d="M102.659 38.0028H109.928C110.102 38.1278 110.277 38.2541 110.45 38.3807H103.182C103.008 38.2541 102.834 38.1278 102.659 38.0028Z" fill="#5DB16F"/>
</g>
<mask id="mask5_861_1607" style="mask-type:luminance" maskUnits="userSpaceOnUse" x="104" y="21" width="11" height="5">
<path d="M114.728 21.1658C113.713 22.4976 112.842 23.9853 112.144 25.5956H104.876C105.574 23.9857 106.445 22.4976 107.46 21.1658C107.714 21.1658 108.053 21.1658 108.307 21.1658C108.577 21.1658 108.936 21.1658 109.205 21.1658C109.485 21.1658 109.857 21.1658 110.137 21.1658C110.422 21.1658 110.802 21.1658 111.087 21.1658C111.372 21.1658 111.752 21.1658 112.037 21.1658C112.317 21.1658 112.691 21.1658 112.972 21.1658C113.242 21.1658 113.604 21.1658 113.874 21.1658C114.13 21.1658 114.472 21.1658 114.728 21.1658Z" fill="white"/>
</mask>
<g mask="url(#mask5_861_1607)">
<path d="M107.707 20.8475H114.976C114.695 21.2007 114.425 21.5656 114.166 21.9411H106.897C107.156 21.5656 107.426 21.2007 107.707 20.8475Z" fill="#5DB16F"/>
<path d="M106.897 21.9415H114.165C113.93 22.2829 113.703 22.6332 113.486 22.9921H106.217C106.435 22.6332 106.662 22.2829 106.897 21.9415Z" fill="#5DB16F"/>
<path d="M106.218 22.9921H113.487C113.283 23.3278 113.089 23.6712 112.902 24.0215H105.634C105.82 23.6712 106.015 23.3282 106.218 22.9921Z" fill="#5DB16F"/>
<path d="M105.124 25.0436H112.393C112.308 25.2258 112.225 25.4097 112.144 25.5956H104.876C104.956 25.4101 105.039 25.2258 105.124 25.0436Z" fill="#5DB16F"/>
</g>
<mask id="mask6_861_1607" style="mask-type:luminance" maskUnits="userSpaceOnUse" x="107" y="15" width="14" height="7">
<path d="M120.857 15.974C118.505 17.1662 116.417 18.9498 114.728 21.1658C114.472 21.1658 114.13 21.1658 113.874 21.1658C113.603 21.1658 113.242 21.1658 112.971 21.1658C112.691 21.1658 112.317 21.1658 112.036 21.1658C111.751 21.1658 111.371 21.1658 111.086 21.1658C110.802 21.1658 110.422 21.1658 110.137 21.1658C109.857 21.1658 109.485 21.1658 109.205 21.1658C108.936 21.1658 108.576 21.1658 108.307 21.1658C108.053 21.1658 107.713 21.1658 107.459 21.1658C109.148 18.9494 111.236 17.1662 113.588 15.974C115.769 15.974 118.677 15.974 120.857 15.974Z" fill="white"/>
</mask>
<g mask="url(#mask6_861_1607)">
<path d="M113.589 15.974H120.857C119.613 16.6048 118.442 17.4008 117.366 18.3389H110.098C111.174 17.4008 112.344 16.6048 113.589 15.974Z" fill="#5DB16F"/>
<path d="M110.097 18.3389H117.366C116.886 18.7566 116.426 19.2027 115.986 19.6744H108.717C109.158 19.2027 109.618 18.7566 110.097 18.3389Z" fill="#5DB16F"/>
<path d="M108.717 19.6744H115.986C115.636 20.0495 115.299 20.4408 114.976 20.8476H107.707C108.03 20.4408 108.367 20.0495 108.717 19.6744Z" fill="#5DB16F"/>
<path d="M107.707 20.8475H114.976C114.695 21.2007 114.425 21.5656 114.166 21.9411H106.897C107.156 21.5656 107.426 21.2007 107.707 20.8475Z" fill="#5DB16F"/>
</g>
<path d="M65.0954 0C82.8549 0 99.4083 5.86441 113.588 15.9736C109.822 17.8827 106.735 21.3058 104.875 25.5953C93.0741 17.9415 79.5505 13.5616 65.0954 13.5616C43.1959 13.5616 23.4495 23.676 8.55427 39.9054L0.527344 30.3588C17.5176 11.6752 40.1041 0 65.0954 0Z" fill="url(#paint2_linear_861_1607)"/>
<mask id="mask7_861_1607" style="mask-type:luminance" maskUnits="userSpaceOnUse" x="65" y="0" width="56" height="16">
<path d="M65.0954 0H72.3641C90.1235 0 106.677 5.86441 120.857 15.9736H113.588C99.4087 5.86441 82.8553 0 65.0954 0Z" fill="white"/>
</mask>
<g mask="url(#mask7_861_1607)">
<path d="M65.0954 0H72.3641C72.9118 0 73.4588 0.00568311 74.0045 0.0166431H66.7359C66.1905 0.00568311 65.6436 0 65.0954 0Z" fill="#5DB16F"/>
<path d="M66.7359 0.0166016H74.0045C76.2174 0.0616593 78.4113 0.197644 80.5829 0.421715H73.3142C71.1426 0.19805 68.9492 0.0616593 66.7359 0.0166016Z" fill="#5FDD63"/>
<path d="M73.3142 0.422119H80.5829C82.5691 0.627112 84.537 0.905577 86.4852 1.25467H79.2165C77.2688 0.905171 75.3008 0.627112 73.3142 0.422119Z" fill="#5DB16F"/>
<path d="M79.2169 1.25476H86.4856C88.3281 1.58518 90.1527 1.97934 91.9579 2.43479H84.6893C82.8837 1.97934 81.0594 1.58518 79.2169 1.25476Z" fill="#5DB16F"/>
<path d="M84.6893 2.43518H91.9579C93.7008 2.8748 95.4254 3.37206 97.1307 3.92493H89.862C88.1564 3.37206 86.4317 2.8748 84.6893 2.43518Z" fill="#5DB16F"/>
<path d="M89.862 3.92444H97.1307C98.8043 4.46676 100.459 5.06265 102.095 5.71011H94.8263C93.1907 5.06265 91.5357 4.46676 89.862 3.92444Z" fill="#5DB16F"/>
<path d="M94.8259 5.71021H102.095C103.722 6.35482 105.33 7.05057 106.917 7.79545H99.6484C98.0614 7.05057 96.4534 6.35482 94.8259 5.71021Z" fill="#5DB16F"/>
<path d="M99.6484 7.79578H106.917C108.517 8.54715 110.096 9.34844 111.651 10.1985H104.383C102.827 9.34844 101.248 8.54674 99.6484 7.79578Z" fill="#5DB16F"/>
<path d="M104.383 10.1985H111.651C113.239 11.0659 114.804 11.9842 116.343 12.9507H109.075C107.535 11.9837 105.971 11.0659 104.383 10.1985Z" fill="#5DB16F"/>
<path d="M109.075 12.9507H116.344C117.873 13.9111 119.378 14.9194 120.857 15.974H113.589C112.109 14.9194 110.604 13.9111 109.075 12.9507Z" fill="#5DB16F"/>
</g>
<mask id="mask8_861_1607" style="mask-type:luminance" maskUnits="userSpaceOnUse" x="103" y="38" width="21" height="18">
<path d="M103.182 38.3807H110.45C111.567 46.5309 116.701 53.0882 123.373 55.1203H116.105C109.432 53.0882 104.298 46.5309 103.182 38.3807Z" fill="white"/>
</mask>
<g mask="url(#mask8_861_1607)">
<path d="M106.698 47.8453H113.967C114.307 48.3568 114.667 48.8492 115.046 49.3201H107.777C107.398 48.8488 107.038 48.3568 106.698 47.8453Z" fill="#5DB16F"/>
<path d="M107.777 49.3201H115.046C115.356 49.7065 115.679 50.0783 116.014 50.4356H108.745C108.41 50.0783 108.087 49.7061 107.777 49.3201Z" fill="#5DB16F"/>
<path d="M108.745 50.4355H116.013C116.31 50.7522 116.616 51.057 116.93 51.3493H109.662C109.347 51.057 109.041 50.7522 108.745 50.4355Z" fill="#5DB16F"/>
<path d="M109.662 51.3492H116.93C117.218 51.6172 117.514 51.8741 117.816 52.1205H110.547C110.245 51.8741 109.949 51.6167 109.662 51.3492Z" fill="#5DB16F"/>
<path d="M110.547 52.1206H117.816C118.099 52.352 118.389 52.5736 118.684 52.7851H111.415C111.12 52.5736 110.831 52.352 110.547 52.1206Z" fill="#5DB16F"/>
<path d="M111.415 52.785H118.684C118.967 52.9872 119.254 53.1804 119.547 53.3643H112.278C111.985 53.1804 111.698 52.9872 111.415 52.785Z" fill="#5DB16F"/>
<path d="M112.278 53.3643H119.547C119.831 53.5425 120.12 53.7121 120.413 53.8721H113.144C112.851 53.7117 112.562 53.5425 112.278 53.3643Z" fill="#5DB16F"/>
<path d="M113.144 53.8721H120.413C120.701 54.0296 120.994 54.1781 121.29 54.3174H114.022C113.725 54.1781 113.432 54.0296 113.144 53.8721Z" fill="#5DB16F"/>
<path d="M114.021 54.3174H121.29C121.586 54.4562 121.885 54.5857 122.188 54.7054H114.919C114.616 54.5857 114.317 54.4562 114.021 54.3174Z" fill="#5DB16F"/>
<path d="M114.919 54.7059H122.188C122.494 54.8269 122.803 54.9381 123.115 55.0396H115.847C115.534 54.9381 115.225 54.8269 114.919 54.7059Z" fill="#5DB16F"/>
</g>
<path d="M110.285 42.0941H117.554L121.795 47.1081H114.526L110.285 42.0941Z" fill="#E15A00"/>
<path d="M114.526 22.9722H121.795L117.554 27.9866H110.285L114.526 22.9722Z" fill="#983D00"/>
<path d="M116.104 55.1202H123.373L115.693 63.0196H108.424L116.104 55.1202Z" fill="#0B5128"/>
<path d="M65.1027 25.5676C79.0801 25.5676 92.0899 30.2833 103.182 38.3807C104.298 46.5309 109.432 53.0882 116.105 55.1203L108.425 63.0196C97.4614 49.5814 82.197 41.1012 65.1031 41.1012C49.6059 41.1012 35.6188 48.1119 24.9514 59.4076L15.7573 48.4724C28.8267 34.3673 46.0623 25.5676 65.1027 25.5676Z" fill="url(#paint3_linear_861_1607)"/>
<path d="M110.285 27.9866H117.554L123.52 35.0408H116.251L110.285 27.9866Z" fill="#E15A00"/>
<path d="M116.251 35.0408H123.52L117.554 42.0941H110.285L116.251 35.0408Z" fill="#983D00"/>
<path d="M120.492 40.054H127.761L121.795 47.1081H114.527L120.492 40.054Z" fill="#989898"/>
<path d="M114.527 22.9722H121.795L127.762 30.0259H120.493L114.527 22.9722Z" fill="#E1E1E1"/>
<path d="M120.492 40.054H127.761L133.727 47.1081H126.459L120.492 40.054Z" fill="#E15A00"/>
<path d="M126.459 22.9722H133.727L127.761 30.0259H120.493L126.459 22.9722Z" fill="#983D00"/>
<path d="M124.734 35.0403H132.002L137.968 42.0941H130.699L124.734 35.0403Z" fill="#E1E1E1"/>
<path d="M130.699 42.0941H137.968L133.727 47.1081H126.459L130.699 42.0941Z" fill="#989898"/>
<path d="M130.699 27.9862H137.968L132.002 35.0404H124.734L130.699 27.9862Z" fill="#989898"/>
<path d="M126.459 22.9722H133.727L137.968 27.9862H130.699L126.459 22.9722Z" fill="#E1E1E1"/>
<path d="M120.493 14.3052C130.178 14.3052 138.03 23.5883 138.03 35.0399C138.03 46.4914 130.178 55.7746 120.493 55.7746C118.978 55.7746 117.507 55.5473 116.105 55.1202C109.432 53.0882 104.298 46.5312 103.182 38.3811C103.033 37.2936 102.955 36.1773 102.955 35.0403C102.955 31.6382 103.648 28.4286 104.876 25.596C106.735 21.3066 109.823 17.883 113.589 15.9743C115.708 14.8999 118.041 14.3052 120.493 14.3052ZM130.699 42.0941L124.734 35.0407L130.699 27.9865L126.459 22.9725L120.493 30.0263L114.527 22.9725L110.286 27.9865L116.252 35.0407L110.286 42.0941L114.527 47.1081L120.492 40.0539L126.459 47.1081L130.699 42.0941Z" fill="url(#paint4_linear_861_1607)"/>
<path d="M126.459 22.9722L130.7 27.9862L124.734 35.0403L130.7 42.0941L126.459 47.1081L120.492 40.0539L114.527 47.1081L110.286 42.0941L116.252 35.0403L110.286 27.9862L114.527 22.9722L120.493 30.0259L126.459 22.9722Z" fill="#FFFCDD"/>
<mask id="mask9_861_1607" style="mask-type:luminance" maskUnits="userSpaceOnUse" x="120" y="14" width="26" height="42">
<path d="M120.493 14.3052H127.761C137.447 14.3052 145.299 23.5883 145.299 35.0399C145.299 46.4914 137.447 55.7746 127.761 55.7746H120.493C130.178 55.7746 138.03 46.4914 138.03 35.0399C138.03 23.5883 130.178 14.3052 120.493 14.3052Z" fill="white"/>
</mask>
<g mask="url(#mask9_861_1607)">
<path d="M120.493 14.3052H127.761C127.86 14.3052 127.958 14.306 128.056 14.308H120.788C120.69 14.306 120.591 14.3052 120.493 14.3052Z" fill="#EE9E38"/>
<path d="M120.788 14.308H128.056C128.475 14.3161 128.891 14.3417 129.302 14.3839H122.033C121.622 14.3417 121.207 14.3161 120.788 14.308Z" fill="#EE9E38"/>
<path d="M122.033 14.3839H129.302C129.674 14.4221 130.043 14.4744 130.408 14.5398H123.14C122.775 14.4744 122.405 14.4225 122.033 14.3839Z" fill="#EE9E38"/>
<path d="M123.14 14.5398H130.408C130.753 14.6015 131.095 14.675 131.432 14.7602H124.164C123.826 14.675 123.484 14.6015 123.14 14.5398Z" fill="#EE9E38"/>
<path d="M124.164 14.7603H131.432C131.76 14.8427 132.084 14.936 132.404 15.0399H125.136C124.815 14.936 124.491 14.8427 124.164 14.7603Z" fill="#EE9E38"/>
<path d="M125.136 15.0396H132.404C132.718 15.141 133.028 15.2527 133.334 15.374H126.066C125.76 15.2527 125.449 15.141 125.136 15.0396Z" fill="#EE9E38"/>
<path d="M126.066 15.374H133.334C133.637 15.4938 133.936 15.6233 134.231 15.7621H126.963C126.668 15.6233 126.368 15.4938 126.066 15.374Z" fill="#EE9E38"/>
<path d="M126.963 15.7621H134.232C134.529 15.9017 134.823 16.0511 135.112 16.209H127.844C127.554 16.0511 127.261 15.9017 126.963 15.7621Z" fill="#EE9E38"/>
<path d="M127.844 16.209H135.112C135.405 16.3689 135.694 16.5386 135.978 16.7168H128.709C128.425 16.5386 128.137 16.3693 127.844 16.209Z" fill="#EE9E38"/>
<path d="M128.709 16.7172H135.978C136.271 16.901 136.558 17.0947 136.841 17.2972H129.572C129.29 17.0943 129.002 16.901 128.709 16.7172Z" fill="#EE9E38"/>
<path d="M129.572 17.2969H136.841C137.138 17.51 137.43 17.7332 137.715 17.9662H130.446C130.161 17.7332 129.87 17.51 129.572 17.2969Z" fill="#EE9E38"/>
<path d="M130.446 17.9662H137.715C138.018 18.213 138.313 18.4712 138.601 18.7395H131.333C131.044 18.4712 130.749 18.213 130.446 17.9662Z" fill="#EE9E38"/>
<path d="M131.333 18.7395H138.601C138.915 19.0314 139.22 19.3354 139.515 19.6512H132.247C131.951 19.3354 131.646 19.0314 131.333 18.7395Z" fill="#EE9E38"/>
<path d="M132.247 19.6512H139.515C139.851 20.0097 140.175 20.3831 140.485 20.7708H133.217C132.906 20.3831 132.582 20.0097 132.247 19.6512Z" fill="#EE9E38"/>
<path d="M133.217 20.7708H140.485C140.866 21.2445 141.227 21.7397 141.568 22.254H134.3C133.959 21.7397 133.597 21.2445 133.217 20.7708Z" fill="#EE9E38"/>
<path d="M134.3 22.2544H141.568C142.1 23.0553 142.582 23.9037 143.011 24.7931H135.742C135.314 23.9037 134.831 23.0553 134.3 22.2544Z" fill="#EE9E38"/>
<path d="M135.742 24.7931H143.011C143.683 26.1874 144.221 27.6833 144.607 29.2558H137.339C136.953 27.6833 136.414 26.1874 135.742 24.7931Z" fill="#EE9E38"/>
<path d="M137.339 29.2559H144.607C144.844 30.222 145.023 31.2169 145.14 32.235H137.871C137.754 31.2169 137.575 30.222 137.339 29.2559Z" fill="#EE9E38"/>
<path d="M137.871 32.2354H145.14C145.213 32.8755 145.261 33.525 145.284 34.1826H138.016C137.993 33.525 137.944 32.8755 137.871 32.2354Z" fill="#EE9E38"/>
<path d="M138.016 34.1826H145.284C145.294 34.4672 145.299 34.7529 145.299 35.0403C145.299 35.2973 145.295 35.553 145.287 35.8075H138.018C138.026 35.553 138.03 35.2973 138.03 35.0403C138.03 34.7529 138.025 34.4668 138.016 34.1826Z" fill="#EE9E38"/>
<path d="M138.018 35.8071H145.287C145.272 36.2857 145.244 36.7598 145.202 37.2299H137.933C137.975 36.7602 138.004 36.2857 138.018 35.8071Z" fill="#EE9E38"/>
<path d="M137.933 37.2299H145.202C145.164 37.6646 145.113 38.0957 145.052 38.5223H137.784C137.845 38.0957 137.895 37.6646 137.933 37.2299Z" fill="#EE9E38"/>
<path d="M137.784 38.5223H145.053C144.996 38.9222 144.928 39.3184 144.852 39.7101H137.584C137.66 39.318 137.727 38.9222 137.784 38.5223Z" fill="#EE9E38"/>
<path d="M137.584 39.7101H144.852C144.778 40.0908 144.695 40.4675 144.604 40.8402H137.335C137.426 40.4675 137.509 40.0908 137.584 39.7101Z" fill="#EE9E38"/>
<path d="M137.335 40.8397H144.604C144.513 41.2071 144.415 41.57 144.308 41.9284H137.039C137.146 41.57 137.244 41.2071 137.335 40.8397Z" fill="#EE9E38"/>
<path d="M137.039 41.9285H144.308C144.202 42.2841 144.088 42.6352 143.966 42.9818H136.698C136.819 42.6352 136.933 42.2841 137.039 41.9285Z" fill="#EE9E38"/>
<path d="M136.698 42.9818H143.966C143.843 43.3325 143.713 43.678 143.574 44.0185H136.305C136.443 43.678 136.575 43.3325 136.698 42.9818Z" fill="#EE9E38"/>
<path d="M136.305 44.0186H143.574C143.432 44.3656 143.283 44.7074 143.126 45.0435H135.858C136.015 44.7074 136.164 44.3656 136.305 44.0186Z" fill="#EE9E38"/>
<path d="M135.858 45.0435H143.126C142.965 45.3885 142.796 45.727 142.619 46.0599H135.351C135.528 45.7274 135.697 45.3885 135.858 45.0435Z" fill="#EE9E38"/>
<path d="M135.351 46.0599H142.619C142.432 46.4115 142.237 46.7561 142.033 47.093H134.764C134.968 46.7557 135.164 46.4115 135.351 46.0599Z" fill="#EE9E38"/>
<path d="M134.765 47.093H142.033C141.814 47.4551 141.585 47.8083 141.348 48.1521H134.079C134.317 47.8079 134.546 47.4547 134.765 47.093Z" fill="#EE9E38"/>
<path d="M134.079 48.1521H141.347C141.087 48.5296 140.815 48.8958 140.532 49.2505H133.264C133.546 48.8958 133.818 48.5292 134.079 48.1521Z" fill="#EE9E38"/>
<path d="M133.264 49.2501H140.532C140.209 49.6569 139.871 50.0482 139.52 50.4228H132.252C132.602 50.0482 132.94 49.6569 133.264 49.2501Z" fill="#EE9E38"/>
<path d="M132.252 50.4229H139.52C139.086 50.8876 138.631 51.3269 138.159 51.7389H130.89C131.363 51.3273 131.817 50.8876 132.252 50.4229Z" fill="#EE9E38"/>
<path d="M130.89 51.7389H138.159C135.25 54.2755 131.653 55.7746 127.762 55.7746H120.493C124.385 55.7746 127.981 54.2755 130.89 51.7389Z" fill="#EE9E38"/>
</g>
<path d="M72.0944 100.22H79.3627L72.5572 107.384H65.2885L72.0944 100.22Z" fill="#0B5128"/>
<path d="M65.2885 86.3485C70.5507 86.3485 75.2802 89.0581 78.6275 93.3093L72.0944 100.22L65.2885 107.384L58.9761 99.6446L52.8969 92.1995C56.1653 88.6038 60.5036 86.3485 65.2885 86.3485Z" fill="url(#paint5_linear_861_1607)"/>
<mask id="mask10_861_1607" style="mask-type:luminance" maskUnits="userSpaceOnUse" x="65" y="86" width="21" height="8">
<path d="M65.2885 86.3485H72.5572C77.8194 86.3485 82.5488 89.0581 85.8961 93.3093H78.6275C75.2802 89.0581 70.5507 86.3485 65.2885 86.3485Z" fill="white"/>
</mask>
<g mask="url(#mask10_861_1607)">
<path d="M65.2885 86.3485H72.5572C72.66 86.3485 72.7624 86.3497 72.8649 86.3518H65.5962C65.4938 86.3493 65.3914 86.3485 65.2885 86.3485Z" fill="#5DB16F"/>
<path d="M65.5962 86.3513H72.8649C73.2875 86.3598 73.7069 86.3858 74.1219 86.4288H66.8533C66.4379 86.3858 66.0189 86.3598 65.5962 86.3513Z" fill="#5FDD63"/>
<path d="M66.8533 86.4288H74.1219C74.4996 86.4678 74.8741 86.5206 75.245 86.5872H67.9763C67.6055 86.5206 67.231 86.4678 66.8533 86.4288Z" fill="#5DB16F"/>
<path d="M67.9759 86.5872H75.2446C75.5972 86.6505 75.9466 86.726 76.2923 86.8133H69.0237C68.6783 86.726 68.3289 86.6505 67.9759 86.5872Z" fill="#5DB16F"/>
<path d="M69.0241 86.8134H76.2927C76.6263 86.8974 76.9567 86.9928 77.283 87.0987H70.0143C69.6876 86.9924 69.3577 86.8974 69.0241 86.8134Z" fill="#5DB16F"/>
<path d="M70.0143 87.0983H77.283C77.604 87.2022 77.9214 87.3167 78.2352 87.4409H70.9665C70.6528 87.3167 70.3354 87.2022 70.0143 87.0983Z" fill="#5DB16F"/>
<path d="M70.9665 87.4408H78.2352C78.5477 87.5646 78.8566 87.6982 79.1619 87.8414H71.8932C71.588 87.6982 71.2791 87.5646 70.9665 87.4408Z" fill="#5DB16F"/>
<path d="M71.8932 87.8416H79.1619C79.47 87.9861 79.7736 88.1403 80.0732 88.3043H72.8045C72.505 88.1403 72.2009 87.9861 71.8932 87.8416Z" fill="#5DB16F"/>
<path d="M72.8045 88.3042H80.0732C80.3793 88.4714 80.6813 88.6488 80.9784 88.8352H73.7098C73.4126 88.6484 73.1106 88.4714 72.8045 88.3042Z" fill="#5DB16F"/>
<path d="M73.7098 88.8352H80.9784C81.2849 89.0276 81.5865 89.2302 81.8825 89.4425H74.6138C74.3175 89.2302 74.0162 89.0276 73.7098 88.8352Z" fill="#5DB16F"/>
<path d="M74.6138 89.4425H81.8825C82.195 89.6666 82.5015 89.9012 82.8019 90.146H75.5332C75.2328 89.9008 74.9263 89.6662 74.6138 89.4425Z" fill="#5DB16F"/>
<path d="M75.5328 90.146H82.8015C83.1205 90.4062 83.4322 90.6778 83.7367 90.9607H76.468C76.164 90.6778 75.8518 90.4062 75.5328 90.146Z" fill="#5DB16F"/>
<path d="M76.468 90.9607H83.7367C84.0723 91.2724 84.399 91.598 84.7156 91.9357H77.4469C77.1303 91.5976 76.804 91.2724 76.468 90.9607Z" fill="#5DB16F"/>
<path d="M77.4473 91.9357H84.716C85.0759 92.3193 85.4229 92.7195 85.7569 93.1344H78.4882C78.1542 92.7191 77.8068 92.3193 77.4473 91.9357Z" fill="#5DB16F"/>
<path d="M78.4882 93.1344H85.7569C85.8034 93.1924 85.85 93.2509 85.8961 93.3094H78.6275C78.5813 93.2509 78.5348 93.1924 78.4882 93.1344Z" fill="#5DB16F"/>
</g>
<path d="M78.6275 93.3093H85.8961L79.3627 100.22H72.0944L78.6275 93.3093Z" fill="#0B5128"/>
<path d="M70.4847 61.6947C70.4847 61.6947 69.8007 62.6199 69.7023 62.8699C69.6038 63.1199 69.2514 63.5204 69.813 64.0658C69.813 64.0658 70.4793 64.666 70.6839 64.7768C70.6839 64.7768 69.9432 64.2435 69.7172 64.1522C69.4911 64.0608 69.0658 63.8214 68.3915 64.6279L67.6947 65.5316C67.6947 65.5316 68.3835 64.5542 68.4865 64.3406C68.5895 64.127 68.9255 63.6552 68.32 63.1111L67.5456 62.4821C67.5456 62.4821 68.1798 62.9717 68.615 63.1382C69.0503 63.3048 69.5659 62.9403 70.4847 61.6947Z" fill="white" stroke="white" stroke-width="0.0918361" stroke-miterlimit="10"/>
<path d="M98.7291 69.7743C98.7848 69.4775 98.7813 69.1725 98.7189 68.877C98.6565 68.5815 98.5365 68.3012 98.3656 68.0522C98.1947 67.8031 97.9765 67.5903 97.7232 67.4257C97.4699 67.2612 97.1865 67.1482 96.8895 67.0933L96.9967 66.4801C97.6289 66.5476 98.2628 66.3684 98.7662 65.98C99.2697 65.5915 99.6037 65.0238 99.6988 64.3951L100.289 64.4739C100.23 64.7644 100.23 65.0638 100.289 65.3544C100.348 65.6449 100.464 65.9208 100.631 66.1655C100.799 66.4102 101.013 66.6189 101.263 66.7791C101.512 66.9394 101.791 67.0479 102.083 67.0984L101.97 67.7213C101.339 67.6595 100.708 67.8409 100.206 68.2284C99.7035 68.6158 99.368 69.1801 99.2677 69.8063L98.7291 69.7743Z" fill="#EBFF25"/>
<path d="M113.353 12.4882C113.353 12.4882 113.278 14.4246 113.378 14.8659C113.478 15.3072 113.367 16.1988 114.666 16.4255C114.666 16.4255 116.163 16.6293 116.552 16.5897C116.552 16.5897 115.016 16.5496 114.615 16.6367C114.213 16.7238 113.394 16.7937 113.22 18.5556L113.107 20.4741C113.107 20.4741 113.139 18.4606 113.08 18.0656C113.021 17.6707 113.041 16.6954 111.683 16.5121L110.008 16.3706C110.008 16.3706 111.355 16.4509 112.119 16.2701C112.883 16.0893 113.255 15.0932 113.353 12.4882Z" fill="white" stroke="white" stroke-width="0.439364" stroke-miterlimit="10"/>
<path d="M92.9748 75.1179C92.6114 75.3142 92.1449 75.1549 91.9326 74.7621C91.7204 74.3692 91.8429 73.8916 92.2063 73.6953C92.5697 73.499 93.0363 73.6583 93.2485 74.0512C93.4608 74.444 93.3382 74.9216 92.9748 75.1179Z" fill="#EBFF25"/>
<path d="M117.975 70.1179C117.611 70.3142 117.145 70.1549 116.933 69.7621C116.72 69.3692 116.843 68.8916 117.206 68.6953C117.57 68.499 118.036 68.6583 118.249 69.0512C118.461 69.444 118.338 69.9216 117.975 70.1179Z" fill="#EBFF25"/>
<path d="M13.2375 36.8191C12.8741 37.0154 12.4076 36.8561 12.1953 36.4632C11.9831 36.0704 12.1056 35.5927 12.469 35.3964C12.8324 35.2001 13.299 35.3595 13.5112 35.7524C13.7234 36.1452 13.6009 36.6228 13.2375 36.8191Z" fill="#EBFF25"/>
<path d="M62.9748 56.1179C62.6114 56.3142 62.1449 56.1549 61.9326 55.7621C61.7204 55.3692 61.8429 54.8916 62.2063 54.6953C62.5697 54.499 63.0363 54.6583 63.2485 55.0512C63.4608 55.444 63.3382 55.9216 62.9748 56.1179Z" fill="#EBFF25"/>
<path d="M80.1378 32.7384C79.2388 33.224 78.0846 32.83 77.5596 31.8581C77.0346 30.8863 77.3377 29.7047 78.2366 29.2191C79.1355 28.7335 80.2899 29.1278 80.8149 30.0996C81.3399 31.0714 81.0367 32.2528 80.1378 32.7384Z" fill="#EBFF25" fill-opacity="0.44"/>
<path d="M37.6954 80.5391C37.2459 80.7819 36.6688 80.5849 36.4063 80.099C36.1438 79.6131 36.2953 79.0223 36.7448 78.7795C37.1942 78.5367 37.7714 78.7338 38.0339 79.2197C38.2964 79.7056 38.1448 80.2963 37.6954 80.5391Z" fill="#5DB16F"/>
<path d="M19.2809 2.50391C19.2809 2.50391 20.3183 7.076 20.8281 8.04476C21.3379 9.01353 21.6371 11.1667 24.8144 10.8831C24.8144 10.8831 28.4393 10.4224 29.3255 10.0857C29.3255 10.0857 25.7095 10.954 24.8263 11.4089C23.943 11.8637 22.0728 12.5401 22.7694 16.7666L23.706 21.321C23.706 21.321 22.5203 16.5953 22.135 15.7092C21.7497 14.8232 21.1867 12.5312 17.8967 12.9536L13.8955 13.6713C13.8955 13.6713 17.0934 13.0156 18.7651 12.1147C20.4367 11.2139 20.6828 8.65319 19.2809 2.50391Z" fill="white" stroke="white" stroke-width="0.439364" stroke-miterlimit="10"/>
<path d="M18.388 40.1719C18.4125 40.0861 18.4272 39.992 18.4335 39.8907C18.4343 39.8783 18.435 39.8658 18.4355 39.853C18.5043 39.9928 18.6133 40.1373 18.8534 40.1797C18.7907 40.2203 18.7209 40.2759 18.6589 40.3533M18.388 40.1719C18.3803 40.1637 18.3728 40.1554 18.3655 40.1469C18.2937 40.0633 18.2478 39.9734 18.2154 39.901C18.2146 39.8992 18.2138 39.8974 18.213 39.8956C18.1962 40.1202 18.1345 40.2686 18.0305 40.3628C18.12 40.3715 18.2005 40.3909 18.2728 40.4191M18.388 40.1719C18.4604 40.2491 18.5496 40.3115 18.6589 40.3533M18.388 40.1719C18.3616 40.2644 18.3238 40.3473 18.2728 40.4191M18.2728 40.4191C18.2241 40.4877 18.1634 40.5462 18.0891 40.5933C18.2855 40.6338 18.3995 40.7449 18.4723 40.8601C18.4816 40.757 18.5015 40.6657 18.5308 40.5847M18.2728 40.4191C18.3744 40.4588 18.4598 40.5158 18.5308 40.5847M18.5308 40.5847C18.5384 40.5921 18.5458 40.5996 18.553 40.6072C18.615 40.6723 18.6626 40.7462 18.699 40.8144C18.7312 40.604 18.8189 40.4842 18.9119 40.4082C18.8175 40.4007 18.7335 40.3818 18.6589 40.3533M18.5308 40.5847C18.5536 40.5216 18.582 40.4646 18.6155 40.4132C18.6294 40.3919 18.6439 40.372 18.6589 40.3533" fill="white" stroke="white" stroke-width="0.439364" stroke-miterlimit="10"/>
<path d="M47.6749 98.3995C47.7022 98.312 47.7181 98.2152 47.7246 98.1108C47.7249 98.1064 47.7252 98.1021 47.7254 98.0976C47.789 98.2181 47.8883 98.3374 48.0888 98.3786C48.0283 98.4191 47.9616 98.4745 47.9032 98.5511M47.6749 98.3995C47.6621 98.3866 47.6498 98.3733 47.6379 98.3595C47.5744 98.2856 47.5323 98.2067 47.502 98.1409C47.4843 98.3289 47.4312 98.4576 47.3448 98.5427C47.4319 98.5522 47.5102 98.5724 47.5803 98.6015M47.6749 98.3995C47.7379 98.4626 47.8134 98.5143 47.9032 98.5511M47.6749 98.3995C47.6519 98.4738 47.6207 98.5414 47.5803 98.6015M47.5803 98.6015C47.5344 98.6697 47.4766 98.7281 47.4052 98.7753C47.5698 98.814 47.6705 98.9066 47.737 99.0053C47.7472 98.906 47.768 98.8183 47.7981 98.7406M47.5803 98.6015C47.6643 98.6363 47.7365 98.6838 47.7981 98.7406M47.7981 98.7406C47.8103 98.7519 47.8222 98.7636 47.8336 98.7756C47.8883 98.8331 47.9314 98.8979 47.9651 98.9588C47.996 98.7837 48.069 98.6782 48.1482 98.6089C48.0566 98.6005 47.9752 98.5806 47.9032 98.5511M47.7981 98.7406C47.8186 98.6875 47.8435 98.6391 47.8723 98.5948C47.8822 98.5795 47.8926 98.565 47.9032 98.5511" fill="white" stroke="white" stroke-width="0.439364" stroke-miterlimit="10"/>
<defs>
<linearGradient id="paint0_linear_861_1607" x1="70.3389" y1="1.02148" x2="70.3389" y2="107.383" gradientUnits="userSpaceOnUse">
<stop stop-color="#112A1C"/>
<stop offset="1" stop-color="#0F1714"/>
</linearGradient>
<linearGradient id="paint1_linear_861_1607" x1="66.3932" y1="54.9607" x2="66.3932" y2="82.9261" gradientUnits="userSpaceOnUse">
<stop stop-color="#D4FA39"/>
<stop offset="1" stop-color="#4DD96A"/>
</linearGradient>
<linearGradient id="paint2_linear_861_1607" x1="57.0578" y1="0" x2="57.0578" y2="39.9054" gradientUnits="userSpaceOnUse">
<stop stop-color="#D4FA39"/>
<stop offset="1" stop-color="#4DD96A"/>
</linearGradient>
<linearGradient id="paint3_linear_861_1607" x1="65.931" y1="25.5676" x2="65.931" y2="63.0196" gradientUnits="userSpaceOnUse">
<stop stop-color="#D4FA39"/>
<stop offset="1" stop-color="#4DD96A"/>
</linearGradient>
<linearGradient id="paint4_linear_861_1607" x1="121.768" y1="20.0724" x2="117.479" y2="69.385" gradientUnits="userSpaceOnUse">
<stop stop-color="#F5D568"/>
<stop offset="1" stop-color="#FFB454"/>
</linearGradient>
<linearGradient id="paint5_linear_861_1607" x1="65.7622" y1="86.3485" x2="65.7622" y2="107.384" gradientUnits="userSpaceOnUse">
<stop stop-color="#D4FA39"/>
<stop offset="1" stop-color="#4DD96A"/>
</linearGradient>
</defs>
</svg>
