<svg width="350" height="212" viewBox="0 0 350 212" fill="none" xmlns="http://www.w3.org/2000/svg">
<path fill-rule="evenodd" clip-rule="evenodd" d="M0 18C0 8.05889 8.05888 0 18 0H332C341.941 0 350 8.05888 350 18V173.96C343.373 173.96 338 180.233 338 187.971C338 195.709 343.373 201.982 350 201.982V208.99H0V201.982C6.62742 201.982 12 195.709 12 187.971C12 180.233 6.62742 173.96 0 173.96V18Z" fill="#383840"/>
<path fill-rule="evenodd" clip-rule="evenodd" d="M0 202.075V209H350V202.075C343.374 202.075 338.002 195.804 338 188.068H12C11.9982 195.804 6.62632 202.075 0 202.075Z" fill="white"/>
<path fill-rule="evenodd" clip-rule="evenodd" d="M0 202.075V209H350V202.075C343.374 202.075 338.002 195.804 338 188.068H12C11.9982 195.804 6.62632 202.075 0 202.075Z" fill="url(#paint0_linear_4138_7037)"/>
<rect x="158.355" y="122.5" width="15" height="85.2346" fill="url(#paint1_linear_4138_7037)"/>
<rect x="103.355" y="138.848" width="10" height="72.391" fill="url(#paint2_linear_4138_7037)"/>
<rect x="10" y="83.7773" width="7.42578" height="7.42578" rx="1" fill="#E2FF6F"/>
<rect x="45.5713" y="173.316" width="7.42578" height="7.42578" rx="1" transform="rotate(24.1918 45.5713 173.316)" fill="#E2FF6F"/>
<rect x="300.355" y="121.334" width="10" height="85.2346" fill="url(#paint3_linear_4138_7037)"/>
<rect x="253.355" y="117.477" width="34" height="91.4258" fill="url(#paint4_linear_4138_7037)"/>
<path d="M299.022 162.944C299.329 162.484 299.949 162.359 300.409 162.666L305.974 166.371C306.433 166.677 306.558 167.297 306.252 167.757L302.547 173.322C302.241 173.782 301.62 173.906 301.16 173.6L295.596 169.895C295.136 169.589 295.011 168.968 295.317 168.508L299.022 162.944Z" fill="#E2FF6F"/>
<rect x="225.048" y="70.377" width="7.42578" height="7.42578" rx="1" fill="#E2FF6F"/>
<defs>
<linearGradient id="paint0_linear_4138_7037" x1="175" y1="188.068" x2="175" y2="209" gradientUnits="userSpaceOnUse">
<stop stop-color="#383840"/>
<stop offset="1" stop-color="#383840" stop-opacity="0.92"/>
</linearGradient>
<linearGradient id="paint1_linear_4138_7037" x1="168.721" y1="196.285" x2="135.64" y2="187.306" gradientUnits="userSpaceOnUse">
<stop stop-color="#4C4C56"/>
<stop offset="1" stop-color="#383840" stop-opacity="0"/>
</linearGradient>
<linearGradient id="paint2_linear_4138_7037" x1="110.266" y1="201.514" x2="87.615" y2="196.689" gradientUnits="userSpaceOnUse">
<stop stop-color="#4C4C56"/>
<stop offset="1" stop-color="#383840" stop-opacity="0"/>
</linearGradient>
<linearGradient id="paint3_linear_4138_7037" x1="307.266" y1="195.119" x2="284.338" y2="190.97" gradientUnits="userSpaceOnUse">
<stop stop-color="#4C4C56"/>
<stop offset="1" stop-color="#383840" stop-opacity="0"/>
</linearGradient>
<linearGradient id="paint4_linear_4138_7037" x1="276.85" y1="196.621" x2="216.271" y2="161.875" gradientUnits="userSpaceOnUse">
<stop stop-color="#4C4C56"/>
<stop offset="1" stop-color="#383840" stop-opacity="0"/>
</linearGradient>
</defs>
</svg>
