<svg width="97" height="97" viewBox="0 0 97 97" fill="none" xmlns="http://www.w3.org/2000/svg">
<path d="M52.6478 45.5684H44.0264V79.941H52.6478V45.5684Z" fill="url(#paint0_linear_4112_7233)"/>
<path d="M33.3849 76.8926H63.2873C63.5033 76.8926 63.7172 76.9351 63.9167 77.0178C64.1163 77.1004 64.2976 77.2216 64.4503 77.3743C64.603 77.527 64.7242 77.7083 64.8068 77.9079C64.8895 78.1074 64.932 78.3213 64.932 78.5373V85.0512C64.932 85.4871 64.7588 85.9052 64.4506 86.2135C64.1423 86.5217 63.7242 86.6949 63.2883 86.6949H33.3869C33.1709 86.6949 32.957 86.6524 32.7575 86.5697C32.558 86.4871 32.3766 86.3659 32.2239 86.2132C32.0712 86.0605 31.95 85.8791 31.8674 85.6796C31.7847 85.48 31.7422 85.2662 31.7422 85.0502V78.5353C31.7422 78.0996 31.9153 77.6818 32.2233 77.3737C32.5314 77.0657 32.9493 76.8926 33.3849 76.8926Z" fill="url(#paint1_linear_4112_7233)"/>
<path d="M40.9377 17.7754V11.2871H0.558379V11.3777C0.242507 13.524 0.0566835 15.6874 0.00192965 17.8561C-0.0464199 27.5473 3.67897 36.8769 10.3893 43.8693C15.6455 49.2446 20.0192 52.282 24.2847 53.9198L20.4802 42.6717C13.9801 39.6994 6.32576 29.6301 6.44591 17.8739V17.7754H40.9377Z" fill="url(#paint2_linear_4112_7233)"/>
<path d="M56.0591 17.7754V11.2871H96.4384V11.3777C96.7552 13.5239 96.942 15.6873 96.9978 17.8561C97.0455 27.5478 93.319 36.8774 86.6075 43.8693C81.3523 49.2446 76.9775 52.282 72.7121 53.9198L76.5215 42.6717C83.0216 39.6994 90.674 29.6301 90.5529 17.8739V17.7754H56.0591Z" fill="url(#paint3_linear_4112_7233)"/>
<g opacity="0.15">
<path d="M16.3901 11.2871V17.7754H40.9378V11.2871H16.3901ZM16.3901 39.9682V40.1278H16.4128C16.4834 41.9363 16.7208 43.7344 17.1219 45.4992C17.5692 47.4689 18.2205 49.3865 19.065 51.2213C20.706 52.3013 22.4554 53.2067 24.2848 53.9227L20.4803 42.6746C18.9977 41.9672 17.621 41.0562 16.3901 39.9682Z" fill="#1A1B1E"/>
<path d="M56.0596 11.2871V17.7754H80.2999V11.2871H56.0596ZM72.7116 53.9198C74.3794 53.271 75.9801 52.4616 77.4911 51.5029C78.5897 49.1852 79.3769 46.7323 79.8322 44.2081C80.0666 42.9033 80.213 41.5842 80.2704 40.2598C79.1291 41.2211 77.869 42.0317 76.5211 42.6717L72.7116 53.9198Z" fill="#1A1B1E"/>
</g>
<path d="M18.1343 39.8475H18.1579C18.222 41.5573 18.4455 43.2573 18.8256 44.9255C19.8818 49.5167 22.0719 53.7699 25.1957 57.2963C28.1 60.5594 31.6664 63.166 35.6572 64.9423C39.6481 66.7187 43.9717 67.624 48.34 67.598C49.4644 67.5986 50.5881 67.5397 51.7063 67.4217C56.7447 66.9286 61.5782 65.177 65.7627 62.3276C69.9472 59.4782 73.3482 55.6227 75.6532 51.1154C77.4006 47.606 78.3812 43.765 78.5299 39.8475H78.5506V2.31445H18.1343V39.8475Z" fill="url(#paint4_linear_4112_7233)"/>
<path d="M69.8702 92.809C69.8686 93.3048 69.671 93.7798 69.3204 94.1304C68.9698 94.481 68.4948 94.6787 67.9989 94.6802H28.6803C28.1845 94.6787 27.7094 94.481 27.3589 94.1304C27.0083 93.7798 26.8106 93.3048 26.8091 92.809V86.7521C26.8091 86.2558 27.0063 85.7798 27.3572 85.4289C27.7081 85.078 28.1841 84.8809 28.6803 84.8809H67.997C68.4932 84.8809 68.9692 85.078 69.3201 85.4289C69.6711 85.7798 69.8682 86.2558 69.8682 86.7521L69.8702 92.809Z" fill="#555C84"/>
<defs>
<linearGradient id="paint0_linear_4112_7233" x1="44.0264" y1="62.7547" x2="52.6478" y2="62.7547" gradientUnits="userSpaceOnUse">
<stop stop-color="#FACE00"/>
<stop offset="1" stop-color="#F68600"/>
</linearGradient>
<linearGradient id="paint1_linear_4112_7233" x1="48.3371" y1="77.3239" x2="48.3371" y2="86.0578" gradientUnits="userSpaceOnUse">
<stop stop-color="#FFCB45"/>
<stop offset="1" stop-color="#FFCB45"/>
</linearGradient>
<linearGradient id="paint2_linear_4112_7233" x1="20.4696" y1="9.75233" x2="20.4696" y2="18.5773" gradientUnits="userSpaceOnUse">
<stop stop-color="#FFCB45"/>
<stop offset="1" stop-color="#FFCB45"/>
</linearGradient>
<linearGradient id="paint3_linear_4112_7233" x1="76.5287" y1="9.75233" x2="76.5287" y2="18.5773" gradientUnits="userSpaceOnUse">
<stop stop-color="#FFCB45"/>
<stop offset="1" stop-color="#FFCB45"/>
</linearGradient>
<linearGradient id="paint4_linear_4112_7233" x1="18.7384" y1="34.9565" x2="78.9131" y2="34.9565" gradientUnits="userSpaceOnUse">
<stop stop-color="#FACE00"/>
<stop offset="1" stop-color="#F68600"/>
</linearGradient>
</defs>
</svg>
