<svg width="145" height="121" viewBox="0 0 145 121" fill="none" xmlns="http://www.w3.org/2000/svg">
<path d="M90.3164 0.722656H76.167C74.9724 0.722656 74.0039 1.70615 74.0039 2.91936V17.2884C74.0039 18.5016 74.9724 19.4851 76.167 19.4851H90.3164C91.5111 19.4851 92.4795 18.5016 92.4795 17.2884V2.91936C92.4795 1.70615 91.5111 0.722656 90.3164 0.722656Z" fill="#303032"/>
<path d="M102.15 45.627H116.3C117.494 45.627 118.463 44.6435 118.463 43.4302V29.0612C118.463 27.848 117.494 26.8645 116.3 26.8645L102.15 26.8645C100.956 26.8645 99.9872 27.848 99.9872 29.0612V43.4302C99.9872 44.6435 100.956 45.627 102.15 45.627Z" fill="#303032"/>
<path d="M102.15 19.4863L116.3 19.4863C117.494 19.4863 118.463 18.5028 118.463 17.2896V2.92059C118.463 1.70738 117.494 0.723879 116.3 0.723879L102.15 0.723879C100.956 0.723879 99.9872 1.70738 99.9872 2.92059V17.2896C99.9872 18.5028 100.956 19.4863 102.15 19.4863Z" fill="#303032"/>
<path d="M127.955 19.4863L142.104 19.4863C143.299 19.4863 144.268 18.5028 144.268 17.2896V2.92059C144.268 1.70738 143.299 0.723879 142.104 0.723879L127.955 0.723879C126.76 0.723879 125.792 1.70738 125.792 2.92059V17.2896C125.792 18.5028 126.76 19.4863 127.955 19.4863Z" fill="#303032"/>
<path d="M127.955 45.627H142.104C143.299 45.627 144.268 44.6435 144.268 43.4302V29.0612C144.268 27.848 143.299 26.8645 142.104 26.8645L127.955 26.8645C126.76 26.8645 125.792 27.848 125.792 29.0612V43.4302C125.792 44.6435 126.76 45.627 127.955 45.627Z" fill="#303032"/>
<path d="M90.3164 53.0156H76.167C74.9724 53.0156 74.0039 53.9991 74.0039 55.2123V69.5814C74.0039 70.7946 74.9724 71.7781 76.167 71.7781H90.3164C91.5111 71.7781 92.4795 70.7946 92.4795 69.5814V55.2123C92.4795 53.9991 91.5111 53.0156 90.3164 53.0156Z" fill="#303032"/>
<path d="M142.089 53.0156H127.939C126.745 53.0156 125.776 53.9991 125.776 55.2123V69.5814C125.776 70.7946 126.745 71.7781 127.939 71.7781H142.089C143.284 71.7781 144.252 70.7946 144.252 69.5814V55.2123C144.252 53.9991 143.284 53.0156 142.089 53.0156Z" fill="#303032"/>
<path d="M76.1543 97.9355H90.3037C91.4983 97.9355 92.4668 96.952 92.4668 95.7388V81.3698C92.4668 80.1566 91.4983 79.1731 90.3037 79.1731H76.1543C74.9596 79.1731 73.9912 80.1566 73.9912 81.3698V95.7388C73.9912 96.952 74.9596 97.9355 76.1543 97.9355Z" fill="#303032"/>
<path d="M50.2471 97.9355H64.3964C65.5911 97.9355 66.5596 96.952 66.5596 95.7388V81.3698C66.5596 80.1566 65.5911 79.1731 64.3964 79.1731H50.2471C49.0524 79.1731 48.0839 80.1566 48.0839 81.3698V95.7388C48.0839 96.952 49.0524 97.9355 50.2471 97.9355Z" fill="#303032"/>
<path d="M38.4892 97.9343H24.7216C23.3219 97.9343 22.1767 96.7714 22.1767 95.35L22.1767 81.7563C22.1767 80.3349 23.3219 79.1719 24.7216 79.1719H38.4892C39.6853 79.1719 40.6523 80.154 40.6523 81.3686V95.7506C40.6523 96.9652 39.6853 97.9473 38.4892 97.9473V97.9343Z" fill="#303032"/>
<path d="M16.669 101.461H2.51957C1.32491 101.461 0.356445 102.444 0.356445 103.658V118.027C0.356445 119.24 1.32491 120.223 2.51957 120.223H16.669C17.8636 120.223 18.8321 119.24 18.8321 118.027V103.658C18.8321 102.444 17.8636 101.461 16.669 101.461Z" fill="#303032"/>
</svg>
