<svg width="47" height="100" viewBox="0 0 47 100" fill="none" xmlns="http://www.w3.org/2000/svg">
<path fill-rule="evenodd" clip-rule="evenodd" d="M5.72624 38.045H101.597C102.798 38.045 103.938 38.522 104.767 39.3724L119.934 54.6583C122.731 57.4791 120.742 62.2909 116.763 62.2909H20.8931C19.6914 62.2909 18.5518 61.8139 17.723 60.9635L2.55611 45.6776C-0.261773 42.8569 1.74804 38.045 5.72624 38.045ZM2.55611 17.7813L17.723 2.49537C18.5725 1.645 19.7121 1.16797 20.8931 1.16797H116.743C120.721 1.16797 122.731 5.97982 119.913 8.80056L104.767 24.0865C103.917 24.9369 102.778 25.4139 101.597 25.4139H5.72624C1.74804 25.4139 -0.261773 20.602 2.55611 17.7813ZM119.913 82.5546L104.746 97.8406C103.896 98.6909 102.757 99.168 101.576 99.168H5.72624C1.74804 99.168 -0.261773 94.3561 2.55611 91.5354L17.723 76.2495C18.5725 75.3991 19.7121 74.922 20.8931 74.922H116.743C120.721 74.922 122.731 79.7339 119.913 82.5546Z" stroke="url(#paint0_linear_3746_14207)"/>
<defs>
<linearGradient id="paint0_linear_3746_14207" x1="61.2402" y1="1.16797" x2="-5.8134" y2="76.2315" gradientUnits="userSpaceOnUse">
<stop stop-color="#E2FF6F"/>
<stop offset="1" stop-color="#E2FF6F" stop-opacity="0"/>
</linearGradient>
</defs>
</svg>
