<svg width="40" height="42" viewBox="0 0 40 42" fill="none" xmlns="http://www.w3.org/2000/svg">
<g clip-path="url(#clip0_1300_9639)">
<path d="M20.0156 41.3659C31.0699 41.3659 40.0312 32.1806 40.0312 20.85C40.0312 9.5193 31.0699 0.333984 20.0156 0.333984C8.96128 0.333984 0 9.5193 0 20.85C0 32.1806 8.96128 41.3659 20.0156 41.3659Z" fill="white"/>
<path fill-rule="evenodd" clip-rule="evenodd" d="M9.04164 20.6271C14.8717 18.0066 18.7688 16.3129 20.733 15.4821C26.2825 13.1173 27.436 12.7019 28.1843 12.6699C28.3402 12.6699 28.7143 12.7019 28.9637 12.8936C29.1508 13.0534 29.2131 13.2771 29.2443 13.4369C29.2755 13.5967 29.3066 13.9482 29.2755 14.2358C28.9637 17.4634 27.6854 25.3566 26.9995 28.9677C26.719 30.5016 26.1578 31.0129 25.6278 31.0768C24.4742 31.1726 23.5701 30.2779 22.4477 29.5429C20.7018 28.3605 19.7041 27.6255 17.9894 26.4751C16.0253 25.1329 17.3035 24.3979 18.4259 23.2155C18.7065 22.896 23.8507 18.1345 23.9442 17.6871C23.9442 17.6232 23.9754 17.4314 23.8507 17.3356C23.726 17.2397 23.5701 17.2716 23.4454 17.3036C23.2583 17.3355 20.4524 19.2529 14.9964 23.0238C14.1858 23.599 13.4688 23.8546 12.814 23.8546C12.097 23.8546 10.7252 23.4392 9.69635 23.0877C8.44927 22.6723 7.45161 22.4486 7.54514 21.7455C7.6075 21.394 8.10633 21.0105 9.04164 20.6271Z" fill="#2C2C34"/>
</g>
<defs>
<clipPath id="clip0_1300_9639">
<rect width="40" height="41" fill="white" transform="translate(0 0.333984)"/>
</clipPath>
</defs>
</svg>
