<svg fill="#DC7633" xmlns="http://www.w3.org/2000/svg" xmlns:xlink="http://www.w3.org/1999/xlink" width="256"
  zoomAndPan="magnify" viewBox="0 0 375 374.9999" height="256" version="1.0">
  <defs>
    <path
      d="M 11.972656 11.972656 L 359.222656 11.972656 L 359.222656 359.222656 L 11.972656 359.222656 Z M 11.972656 11.972656 "
      fill="#FFFFFF"></path>
  </defs>  
  <g>
    <path
      d="M 185.597656 359.222656 C 89.675781 359.222656 11.972656 280.984375 11.972656 185.597656 C 11.972656 90.210938 89.675781 11.972656 185.597656 11.972656 C 281.519531 11.972656 359.222656 89.675781 359.222656 185.597656 C 359.222656 281.519531 280.984375 359.222656 185.597656 359.222656 Z M 185.597656 22.691406 C 95.570312 22.691406 22.691406 95.570312 22.691406 185.597656 C 22.691406 275.625 95.570312 348.503906 185.597656 348.503906 C 275.625 348.503906 348.503906 275.625 348.503906 185.597656 C 348.503906 95.570312 275.089844 22.691406 185.597656 22.691406 Z M 185.597656 22.691406 "
      fill-opacity="1" fill-rule="nonzero" fill="#FFFFFF"></path>
  </g>
  
  <g transform="translate(85, 75)"> <svg xmlns="http://www.w3.org/2000/svg" viewBox="0 0 24 24" version="1.1"
      height="205" width="205">
      <path
        d="M18.244 2.25h3.308l-7.227 8.26 8.502 11.24H16.17l-5.214-6.817L4.99 21.75H1.68l7.73-8.835L1.254 2.25H8.08l4.713 6.231zm-1.161 17.52h1.833L7.084 4.126H5.117z"
        fill="#FFFFFF"></path>
    </svg> </g>
</svg>