<svg width="129" height="191" viewBox="0 0 129 191" fill="none" xmlns="http://www.w3.org/2000/svg">
<path d="M0.449219 190.187C0.449219 176.081 2.04612 163.705 5.23993 153.059C8.43374 142.324 12.8696 132.876 18.5475 124.714C24.3141 116.551 31.0122 109.41 38.6418 103.289C46.3602 97.0787 54.6109 91.5336 63.3939 86.6542C67.8297 84.0814 72.0437 81.3755 76.036 78.5366C80.0283 75.6976 83.2665 72.5038 85.7505 68.9552C88.3233 65.4065 89.6097 61.3255 89.6097 56.7122C89.6097 50.4133 87.5692 45.5339 83.4882 42.0739C79.4073 38.5253 74.0399 36.7509 67.3861 36.7509C60.3775 36.7509 54.3891 38.5253 49.4209 42.0739C44.4528 45.5339 40.4162 50.4133 37.3111 56.7122L3.37688 41.1424C8.78858 28.6333 17.2611 18.7858 28.7943 11.5997C40.3274 4.32489 52.9696 0.6875 66.7207 0.6875C79.496 0.6875 90.4081 3.17157 99.4573 8.13972C108.595 13.0191 115.515 19.6286 120.217 27.968C125.008 36.2186 127.403 45.4008 127.403 55.5145C127.403 66.2493 125.585 75.2541 121.947 82.5288C118.399 89.7149 113.519 95.881 107.309 101.026C101.099 106.172 94.1343 111.052 86.4159 115.665C78.1652 120.544 71.334 124.891 65.9223 128.706C60.5106 132.52 56.1191 136.38 52.7478 140.284C49.4653 144.098 46.8481 148.49 44.8964 153.458H129V190.187H0.449219Z" fill="url(#paint0_linear_1300_7064)"/>
<defs>
<linearGradient id="paint0_linear_1300_7064" x1="64.7246" y1="0.6875" x2="64.7246" y2="190.187" gradientUnits="userSpaceOnUse">
<stop stop-color="#E2FF6F"/>
<stop offset="1" stop-color="#CFFF11" stop-opacity="0"/>
</linearGradient>
</defs>
</svg>
