<svg width="131" height="194" viewBox="0 0 131 194" fill="none" xmlns="http://www.w3.org/2000/svg">
<path d="M66.16 193.681C50.4373 193.681 36.948 189.893 25.692 182.316C14.436 174.739 6.03867 163.908 0.5 149.823L28.64 138.324C36.68 155.707 49.1867 164.398 66.16 164.398C76.4333 164.398 84.518 161.902 90.414 156.91C96.31 151.918 99.258 145.188 99.258 136.719C99.258 128.25 96.31 121.564 90.414 116.661C84.518 111.759 76.5227 109.307 66.428 109.307H49.946V80.0237H65.624C73.8427 80.0237 80.364 77.706 85.188 73.0706C90.1013 68.346 92.558 62.1506 92.558 54.4843C92.558 46.9071 90.1013 40.8008 85.188 36.1654C80.2747 31.53 73.8427 29.2123 65.892 29.2123C59.192 29.2123 53.1173 30.9506 47.668 34.4271C42.308 37.9037 37.9307 43.074 34.536 49.938L6.396 39.1071C11.756 26.7163 19.662 17.1334 30.114 10.3586C40.6553 3.49456 52.6707 0.0625 66.16 0.0625C77.416 0.0625 87.3767 2.29113 96.042 6.74827C104.707 11.1163 111.497 17.178 116.41 24.9334C121.323 32.5997 123.78 41.4694 123.78 51.5426C123.78 60.1003 121.725 67.9894 117.616 75.21C113.596 82.4306 107.923 88.1803 100.598 92.4591C109.978 96.2031 117.303 102.176 122.574 110.377C127.845 118.578 130.48 128.027 130.48 138.725C130.48 149.422 127.711 158.916 122.172 167.206C116.723 175.407 109.174 181.87 99.526 186.595C89.878 191.319 78.756 193.681 66.16 193.681Z" fill="url(#paint0_linear_1300_7079)"/>
<defs>
<linearGradient id="paint0_linear_1300_7079" x1="65.49" y1="0.0625" x2="65.49" y2="193.681" gradientUnits="userSpaceOnUse">
<stop stop-color="#E2FF6F"/>
<stop offset="1" stop-color="#CFFF11" stop-opacity="0"/>
</linearGradient>
</defs>
</svg>
