<svg width="125" height="97" viewBox="0 0 125 97" fill="none" xmlns="http://www.w3.org/2000/svg">
<path d="M13.5078 95.7019C13.5339 95.8327 13.658 95.92 13.7899 95.9003L108.108 81.853C108.167 81.8442 108.22 81.8148 108.259 81.77L112.605 76.7849C112.662 76.7202 112.681 76.6311 112.657 76.5489L94.5814 16.192C94.5471 16.0775 94.4367 16.0033 94.3177 16.0148L4.03719 24.7853C3.96064 24.7928 3.89178 24.835 3.85048 24.8999L0.517631 30.1346C0.483035 30.1889 0.470748 30.2545 0.483333 30.3177L13.5078 95.7019Z" fill="#5B1F53" stroke="#0D0D0D" stroke-width="0.5" stroke-linejoin="round"/>
<path d="M17.0854 91.4217C17.1116 91.553 17.2366 91.6403 17.3688 91.6198L112.456 76.8775C112.525 76.8669 112.586 76.8284 112.625 76.7712C112.664 76.714 112.677 76.6432 112.662 76.5756L97.9198 10.9725C97.8911 10.8447 97.7685 10.7607 97.6389 10.7801L4.02551 24.7852C3.95784 24.7954 3.89727 24.8328 3.85794 24.8888C3.8186 24.9448 3.80394 25.0144 3.81735 25.0815L17.0854 91.4217Z" fill="#A82F98" stroke="#0D0D0D" stroke-width="0.5" stroke-linejoin="round"/>
<path fill-rule="evenodd" clip-rule="evenodd" d="M41.6801 87.7859L54.6334 17.4036L68.1328 14.9347L53.9385 85.4397L41.6801 87.7859Z" fill="url(#paint0_linear_4112_7388)"/>
<path fill-rule="evenodd" clip-rule="evenodd" d="M24.4984 79.7165L29.6987 85.0451L50.7781 17.7752L42.88 19.0836L24.4984 79.7165Z" fill="url(#paint1_linear_4112_7388)"/>
<path d="M57.1348 61.8887L102.836 54.5176M58.609 71.4712L96.2018 65.5743" stroke="#0D0D0D" stroke-width="0.5" stroke-linejoin="round"/>
<path d="M23.9648 82.5268L18.0679 50.8309L46.0782 46.4082L52.7122 78.1041L23.9648 82.5268Z" fill="#F1FFB8" stroke="#0D0D0D" stroke-width="0.5" stroke-linejoin="round"/>
<path d="M7.74805 43.461L54.9233 36.0899L102.099 28.7188" stroke="#0D0D0D" stroke-width="0.5" stroke-linejoin="round"/>
<path d="M55.6603 53.7794L54.186 46.4082L99.8871 39.0371L102.098 46.4082L55.6603 53.7794Z" fill="white"/>
<path d="M55.6603 53.7794L54.186 46.4082L99.8871 39.0371L102.098 46.4082L55.6603 53.7794Z" stroke="#0D0D0D" stroke-width="0.5" stroke-linejoin="round"/>
<path d="M40.9038 59.2378C41.7149 63.2236 39.4269 67.0125 35.8507 67.7403C32.2744 68.468 28.6876 65.8746 27.8765 61.8888C27.0655 57.903 29.3534 54.1141 32.9297 53.3863C36.506 52.6586 40.0927 55.252 40.9038 59.2378Z" fill="white" stroke="#0D0D0D" stroke-width="0.5"/>
<path d="M48.4439 74.1023C49.2345 75.4142 49.7766 76.8626 50.0431 78.3728L26.0526 82.1127C25.8467 80.593 25.9222 79.0483 26.276 77.558C26.6489 75.9869 27.3238 74.5071 28.2619 73.2032C29.1999 71.8992 30.3828 70.7967 31.7429 69.9584C33.1029 69.12 34.6136 68.5622 36.1887 68.3167C37.7638 68.0711 39.3725 68.1427 40.9232 68.5273C42.4739 68.9118 43.9363 69.602 45.2267 70.5585C46.5172 71.515 47.6104 72.7192 48.4439 74.1023Z" fill="white" stroke="#0D0D0D" stroke-width="0.5"/>
<path fill-rule="evenodd" clip-rule="evenodd" d="M79.7198 12.6456C75.1968 18.0445 73.2739 25.5733 75.2104 33.028C77.3387 41.2212 83.5831 47.2238 91.0591 49.293L94.2838 66.1589L102.748 54.1315L109.765 59.0637L98.6959 9.80664L79.7198 12.6456Z" fill="#0D0D0D"/>
<path d="M98.7445 63.7214L94.7178 42.6604L115.777 38.377L119.545 60.3657L107.209 51.6941L98.7445 63.7214Z" fill="#E2FF6F" stroke="#0D0D0D" stroke-width="0.5" stroke-linejoin="round"/>
<path d="M123.805 17.5349C126.915 29.5057 119.965 41.6593 108.298 44.6899C96.6316 47.7205 84.6455 40.4859 81.5359 28.5151C78.4263 16.5443 85.3759 4.39076 97.0427 1.36011C108.709 -1.67053 120.696 5.56411 123.805 17.5349Z" fill="#E2FF6F" stroke="#0D0D0D" stroke-width="0.5"/>
<path d="M119.591 17.6781C122.626 27.2836 117.501 37.4549 108.161 40.4055C98.8221 43.356 88.7838 37.9753 85.7491 28.3698C82.7144 18.7642 87.8394 8.59295 97.1786 5.64239C106.518 2.69182 116.556 8.07252 119.591 17.6781Z" fill="white" stroke="#0D0D0D" stroke-width="0.5"/>
<path d="M100.737 11.4609L105.339 17.6743L113.071 17.6129L108.584 23.91L111.032 31.2446L103.656 28.9231L97.4369 33.5175L97.3656 25.7856L91.0742 21.2905L98.4056 18.8334L100.737 11.4609Z" fill="#E2FF6F" stroke="#0D0D0D" stroke-width="0.5" stroke-linejoin="round"/>
<defs>
<linearGradient id="paint0_linear_4112_7388" x1="68.9122" y1="0.635282" x2="-3.40151" y2="76.2543" gradientUnits="userSpaceOnUse">
<stop stop-color="white"/>
<stop offset="1" stop-color="white" stop-opacity="0"/>
</linearGradient>
<linearGradient id="paint1_linear_4112_7388" x1="49.9694" y1="-2.43393" x2="93.584" y2="58.0533" gradientUnits="userSpaceOnUse">
<stop stop-color="white"/>
<stop offset="1" stop-color="white" stop-opacity="0"/>
</linearGradient>
</defs>
</svg>
