<svg width="67" height="65" viewBox="0 0 67 65" fill="none" xmlns="http://www.w3.org/2000/svg">
<g id="Group 1000003844">
<path id="Vector" d="M43.3363 9.29639L45.9392 13.0609L45.0159 20.9879L42.413 17.2233L43.3363 9.29639Z" fill="#917008"/>
<path id="Vector_2" d="M49.7527 17.1147L52.3556 20.8793L51.4529 28.6298L48.85 24.8653L49.7527 17.1147Z" fill="#917008"/>
<path id="Vector_3" d="M56.0576 24.7573L58.6605 28.5219L56.9978 42.7918L54.3949 39.0273L56.0576 24.7573Z" fill="#917008"/>
<path id="Vector_4" d="M54.3873 39.0283L56.9902 42.7929L49.7895 42.8998L47.1866 39.1353L54.3873 39.0283Z" fill="#EBB62F"/>
<path id="Vector_5" d="M46.2668 47.064L48.8678 50.8285L41.5226 50.9373L38.9197 47.1728L46.2668 47.064Z" fill="#EBB62F"/>
<path id="Vector_6" d="M47.1925 39.1348L49.7954 42.8993L48.8702 50.8281L46.2692 47.0636L47.1925 39.1348Z" fill="#917008"/>
<path id="Vector_7" d="M38.059 54.5698L40.6619 58.3344L9.80615 58.7923L7.20325 55.0277L38.059 54.5698Z" fill="#EBB62F"/>
<path id="Vector_8" d="M38.9192 47.1719L41.5221 50.9364L40.6607 58.3341L38.0578 54.5696L38.9192 47.1719Z" fill="#917008"/>
<path id="Vector_9" d="M43.3342 9.29639L42.4109 17.2233L49.7561 17.1145L48.8534 24.865L56.0541 24.758L54.3914 39.028L47.1907 39.135L46.2674 47.0638L38.9203 47.1726L38.059 54.5703L7.20325 55.0282L12.4785 9.75429L43.3342 9.29639Z" fill="url(#paint0_linear_788_9155)"/>
<ellipse id="Ellipse 550" cx="8.87955" cy="9.72812" rx="0.431242" ry="0.431242" fill="white"/>
<ellipse id="Ellipse 556" cx="6.77756" cy="64.0687" rx="0.431242" ry="0.431242" fill="#EBB62F"/>
<ellipse id="Ellipse 558" cx="66.4552" cy="38.4652" rx="0.431242" ry="0.431242" fill="#EBB62F"/>
<circle id="Ellipse 560" cx="0.701205" cy="26.2305" r="0.701205" fill="#EBB62F"/>
<circle id="Ellipse 551" cx="45.1814" cy="59.4741" r="0.802477" fill="white"/>
<ellipse id="Ellipse 552" cx="49.9918" cy="6.66358" rx="0.350348" ry="0.350348" fill="white"/>
<ellipse id="Ellipse 554" cx="2.34268" cy="46.7477" rx="0.316312" ry="0.316312" fill="#FA3939"/>
<path id="Vector_10" d="M62.7955 32.3103L63.0937 33.2547L64.0381 33.553L63.0937 33.8512L62.7955 34.7956L62.4982 33.8512L61.5528 33.553L62.4982 33.2547L62.7955 32.3103Z" fill="white"/>
<path id="Vector_11" d="M11.9132 0.5L12.0552 0.949655L12.5048 1.09165L12.0552 1.23365L11.9132 1.6833L11.7717 1.23365L11.3215 1.09165L11.7717 0.949655L11.9132 0.5Z" fill="white"/>
<path id="Vector_12" d="M42.8822 6.41675L42.9745 8.7599L44.9457 10.03L42.6026 10.1223L41.3324 12.0935L41.2424 9.751L39.2689 8.48024L41.6143 8.38857L42.8822 6.41675Z" fill="#EBB62F"/>
<path id="!" d="M26.1435 27.3968L26.7454 20.97H30.4613L29.8594 27.3968C29.592 30.6265 29.1493 33.8562 28.4612 37.0859H25.7269C25.6437 33.8562 25.8411 30.6265 26.1435 27.3968ZM24.0092 44.1978L24.4338 39.6632H29.3066L28.8819 44.1978H24.0092Z" fill="#FEFFDC"/>
</g>
<defs>
<linearGradient id="paint0_linear_788_9155" x1="31.838" y1="10.5406" x2="31.838" y2="55.0277" gradientUnits="userSpaceOnUse">
<stop offset="0.609375" stop-color="#EBB62F"/>
<stop offset="1" stop-color="#FFE299" stop-opacity="0.96"/>
</linearGradient>
</defs>
</svg>
