<svg width="40" height="41" viewBox="0 0 40 41" fill="none" xmlns="http://www.w3.org/2000/svg">
<g clip-path="url(#clip0_1300_9652)">
<mask id="mask0_1300_9652" style="mask-type:luminance" maskUnits="userSpaceOnUse" x="3" y="4" width="34" height="34">
<mask id="mask1_1300_9652" style="mask-type:luminance" maskUnits="userSpaceOnUse" x="3" y="4" width="34" height="34">
<path d="M31.7882 9.01721C28.6657 5.90008 24.5024 4.18946 20.0813 4.18946C10.9622 4.17996 3.5332 11.5736 3.5332 20.6589C3.5332 23.7761 4.41169 26.8077 6.06364 29.4211L6.45514 30.0483L4.7841 36.1305L11.0481 34.496L11.6497 34.8571C14.1897 36.3586 17.1021 37.1569 20.0718 37.1569H20.0813C29.2004 37.1569 36.6294 29.7632 36.6294 20.6874C36.639 16.2683 34.9202 12.1248 31.7882 9.01721Z" fill="white"/>
</mask>
<g mask="url(#mask1_1300_9652)">
<path d="M20.0813 37.1376C17.1021 37.1376 14.1897 36.3393 11.6497 34.8378L11.0481 34.4767L4.7841 36.1113L6.45514 30.0291L6.06364 29.4018C4.40215 26.7789 3.5332 23.7473 3.5332 20.6397C3.5332 11.5734 10.9622 4.17969 20.0909 4.17969C24.512 4.17969 28.6657 5.89981 31.7977 9.00744C34.9202 12.1246 36.639 16.2586 36.639 20.6587C36.6294 29.7535 29.2004 37.1376 20.0813 37.1376Z" fill="white"/>
</g>
</mask>
<g mask="url(#mask0_1300_9652)">
<path d="M79.2175 71.2926H-39.2355C-40.2859 71.2926 -41.1357 70.4468 -41.1357 69.4015V-28.2084C-41.1357 -29.2538 -40.2859 -30.0996 -39.2355 -30.0996H79.2175C80.2679 -30.0996 81.1178 -29.2538 81.1178 -28.2084V69.411C81.1178 70.4563 80.2679 71.2926 79.2175 71.2926Z" fill="#2C2C34"/>
</g>
<path fill-rule="evenodd" clip-rule="evenodd" d="M34.1657 6.65009C30.413 2.89623 25.4094 0.833984 20.0812 0.833984C9.10957 0.833984 0.171879 9.72921 0.16233 20.6487C0.16233 24.1459 1.07902 27.5482 2.8169 30.5608L0 40.834L10.561 38.078C13.4734 39.6556 16.7486 40.4919 20.0812 40.4919H20.0907C31.0623 40.4919 40 31.5966 40.0096 20.6677C40 15.3743 37.9279 10.3945 34.1657 6.65009ZM20.0812 37.1371C17.1019 37.1371 14.1895 36.3389 11.6496 34.8373L11.048 34.4762L4.78396 36.1108L6.455 30.0286L6.0635 29.4013C4.40201 26.7784 3.53306 23.7468 3.53306 20.6392C3.53306 11.5729 10.962 4.1792 20.0907 4.1792C24.5118 4.1792 28.6656 5.89932 31.7976 9.00695C34.92 12.1241 36.6388 16.2581 36.6388 20.6582C36.6293 29.753 29.2003 37.1371 20.0812 37.1371ZM29.1621 24.8017C28.6656 24.5546 26.2211 23.3571 25.7627 23.1861C25.3044 23.0245 24.9702 22.939 24.6455 23.4332C24.3113 23.9274 23.3564 25.0488 23.0699 25.3719C22.7835 25.7045 22.4875 25.7425 21.9909 25.4954C21.4944 25.2483 19.8902 24.7256 17.99 23.034C16.5099 21.7226 15.5168 20.0975 15.2208 19.6033C14.9344 19.1091 15.1922 18.843 15.4404 18.5959C15.6601 18.3773 15.937 18.0162 16.1852 17.7311C16.4335 17.446 16.5195 17.2369 16.6818 16.9043C16.8441 16.5717 16.7677 16.2866 16.6436 16.0395C16.5195 15.7924 15.5264 13.35 15.1062 12.3617C14.7052 11.3923 14.2946 11.5254 13.989 11.5159C13.7026 11.4968 13.3683 11.4968 13.0341 11.4968C12.6999 11.4968 12.1652 11.6204 11.7069 12.1146C11.2485 12.6088 9.96897 13.8062 9.96897 16.2486C9.96897 18.691 11.7546 21.0383 12.0029 21.3709C12.2511 21.7036 15.5073 26.7024 20.5013 28.8501C21.6854 29.3633 22.6116 29.6674 23.3373 29.8955C24.5309 30.2757 25.6099 30.2186 26.4693 30.0951C27.4242 29.9525 29.4104 28.8977 29.8305 27.7382C30.2411 26.5788 30.2411 25.5905 30.117 25.3814C29.9928 25.1723 29.6586 25.0488 29.1621 24.8017Z" fill="white"/>
</g>
<defs>
<clipPath id="clip0_1300_9652">
<rect width="40" height="40" fill="white" transform="translate(0 0.833984)"/>
</clipPath>
</defs>
</svg>
