<svg width="51" height="64" viewBox="0 0 51 64" fill="none" xmlns="http://www.w3.org/2000/svg">
<circle cx="25.502" cy="31.998" r="18.791" fill="#E2FF6F"/>
<path d="M48.4277 31.999C48.4277 44.6622 38.1622 54.9277 25.499 54.9277C12.8358 54.9277 2.57031 44.6622 2.57031 31.999C2.57031 19.3358 12.8358 9.07031 25.499 9.07031C38.1622 9.07031 48.4277 19.3358 48.4277 31.999Z" fill="url(#paint0_linear_1501_21970)"/>
<path d="M25.3836 36.1553L24.5286 27.2153V20.5853H27.5286V27.2153L26.6436 36.1553H25.3836ZM25.9986 42.3353C25.3586 42.3353 24.8286 42.1153 24.4086 41.6753C23.9886 41.2353 23.7786 40.7203 23.7786 40.1303C23.7786 39.5403 23.9886 39.0253 24.4086 38.5853C24.8286 38.1353 25.3586 37.9103 25.9986 37.9103C26.6386 37.9103 27.1686 38.1353 27.5886 38.5853C28.0186 39.0253 28.2336 39.5403 28.2336 40.1303C28.2336 40.7203 28.0186 41.2353 27.5886 41.6753C27.1686 42.1153 26.6386 42.3353 25.9986 42.3353Z" fill="black"/>
<defs>
<linearGradient id="paint0_linear_1501_21970" x1="46.2499" y1="24.1498" x2="-33.5397" y2="67.3101" gradientUnits="userSpaceOnUse">
<stop stop-color="#E2FF6F"/>
<stop offset="0.755235" stop-color="#0D0D0C" stop-opacity="0"/>
</linearGradient>
</defs>
</svg>
