<svg width="415" height="244" viewBox="0 0 415 244" fill="none" xmlns="http://www.w3.org/2000/svg">
<g clip-path="url(#clip0_56_711)">
<path d="M410.415 202.61C401.339 229.757 381.776 242.53 362.882 243.891H89.1615C65.7941 243.624 12.9974 233.176 2.48309 182.643C-2.24904 159.893 1.3512 135.591 14.7566 116.314C30.5145 93.626 55.4366 85.4272 79.8132 75.348C100.951 66.6022 114.759 48.1055 131.13 33.0345C147.12 18.3055 165.496 6.79714 187.159 2.77641C232.653 -5.67535 286.384 4.47907 315.751 43.1684C328.632 60.1335 341.478 76.0797 357.482 90.248C367.928 99.4998 379.212 107.719 388.847 117.894C410.708 141 420.758 171.654 410.415 202.61Z" fill="url(#paint0_radial_56_711)"/>
<path d="M309.294 184.755H309.213C287.925 176.892 282.272 152.774 276.81 129.443C273.585 115.671 270.251 101.407 263.739 90.651C256.443 78.5819 245.847 72.2431 231.33 71.2789C206.422 69.6105 193.828 83.5873 181.704 97.1402C171.865 108.122 161.657 119.487 144.884 122.701C144.838 122.709 144.792 122.699 144.754 122.674C144.716 122.648 144.689 122.609 144.679 122.564C144.674 122.542 144.674 122.519 144.678 122.497C144.682 122.475 144.691 122.453 144.704 122.435C144.717 122.416 144.733 122.4 144.752 122.389C144.772 122.377 144.793 122.369 144.815 122.366C161.46 119.145 171.626 107.828 181.459 96.8804C193.664 83.2865 206.285 69.2275 231.357 70.896C245.99 71.867 256.682 78.2605 264.039 90.4322C270.578 101.257 273.919 115.528 277.151 129.327C282.606 152.576 288.218 176.591 309.335 184.393C309.371 184.408 309.401 184.435 309.419 184.47C309.437 184.504 309.443 184.544 309.436 184.582C309.429 184.62 309.409 184.655 309.38 184.68C309.35 184.706 309.313 184.72 309.274 184.721L309.294 184.755Z" fill="white"/>
<path d="M152.299 104.32C152.256 104.32 152.215 104.304 152.183 104.275C152.152 104.246 152.132 104.205 152.129 104.163C152.125 104.118 152.138 104.074 152.166 104.04C152.194 104.005 152.235 103.983 152.279 103.978C152.395 103.978 163.939 102.097 168.248 91.1909C168.256 91.1698 168.267 91.1505 168.283 91.1342C168.298 91.1178 168.316 91.1048 168.337 91.0958C168.357 91.0868 168.379 91.0821 168.401 91.082C168.424 91.0819 168.446 91.0864 168.466 91.0951C168.487 91.1034 168.507 91.1159 168.523 91.1318C168.54 91.1477 168.553 91.1667 168.562 91.1878C168.57 91.2088 168.575 91.2314 168.575 91.2543C168.575 91.2771 168.571 91.2997 168.562 91.3208C164.184 102.405 152.436 104.313 152.32 104.313L152.299 104.32Z" fill="white"/>
<path d="M202.477 45.3494C202.448 45.3556 202.417 45.3556 202.388 45.3494C202.35 45.3265 202.321 45.2893 202.31 45.2458C202.298 45.2022 202.304 45.1559 202.327 45.1169C205.449 40.0851 209.447 35.6567 214.13 32.0426C221.235 26.5722 232.949 21.1019 248.455 25.7448C248.476 25.751 248.496 25.7615 248.513 25.7757C248.531 25.7899 248.545 25.8074 248.555 25.8273C248.565 25.8471 248.571 25.8688 248.573 25.8911C248.574 25.9134 248.571 25.9358 248.564 25.9568C248.558 25.9783 248.547 25.9983 248.533 26.0155C248.519 26.0328 248.502 26.047 248.482 26.0572C248.462 26.0674 248.44 26.0735 248.418 26.0751C248.396 26.0766 248.374 26.0736 248.353 26.0662C232.997 21.4438 221.385 26.9073 214.348 32.3093C209.694 35.9004 205.722 40.3011 202.62 45.3015C202.602 45.3204 202.579 45.3346 202.554 45.343C202.529 45.3513 202.503 45.3535 202.477 45.3494Z" fill="white"/>
<path d="M323.673 120.39C318.511 120.39 314.059 118.749 310.602 115.528C306.074 111.323 304.806 106.057 304.894 105.305C304.899 105.26 304.921 105.218 304.956 105.189C304.992 105.16 305.037 105.147 305.082 105.151C305.127 105.156 305.169 105.178 305.198 105.213C305.226 105.249 305.24 105.294 305.235 105.339C305.16 105.975 306.422 111.172 310.833 115.282C315.395 119.528 321.457 120.957 328.855 119.535C328.877 119.53 328.899 119.529 328.921 119.533C328.942 119.537 328.963 119.545 328.982 119.558C329 119.57 329.016 119.585 329.028 119.604C329.04 119.622 329.049 119.643 329.053 119.665C329.058 119.687 329.059 119.71 329.055 119.732C329.051 119.754 329.043 119.775 329.031 119.795C329.019 119.814 329.003 119.83 328.985 119.843C328.966 119.856 328.945 119.865 328.923 119.87C327.193 120.209 325.435 120.383 323.673 120.39Z" fill="white"/>
<path d="M293.272 153.136C293.233 153.138 293.195 153.125 293.164 153.102C293.133 153.078 293.111 153.045 293.101 153.007C290.81 143.707 295.89 138.927 298.059 136.883C298.433 136.592 298.755 136.241 299.013 135.843C299.016 135.821 299.023 135.799 299.034 135.779C299.045 135.759 299.059 135.742 299.077 135.728C299.095 135.714 299.115 135.704 299.137 135.698C299.159 135.692 299.182 135.69 299.204 135.693C299.249 135.701 299.289 135.726 299.315 135.763C299.342 135.8 299.353 135.846 299.347 135.891C299.347 136.178 298.931 136.575 298.297 137.136C296.17 139.139 291.192 143.823 293.436 152.925C293.446 152.969 293.439 153.016 293.416 153.055C293.394 153.095 293.356 153.124 293.313 153.136H293.272Z" fill="white"/>
<path d="M242.21 200.743C241.187 198.692 240.321 196.586 239.483 194.52C238.698 192.592 237.887 190.595 236.953 188.701C232.309 179.292 224.679 174.56 214.861 175.025C205.717 175.442 196.505 179.962 186.7 188.859L186.468 188.606C196.334 179.655 205.621 175.101 214.84 174.683C224.809 174.232 232.569 179.032 237.26 188.571C238.201 190.479 239.012 192.476 239.796 194.411C240.635 196.462 241.494 198.603 242.524 200.613L242.21 200.743Z" fill="white"/>
<path d="M165.691 234.98C165.064 235.002 164.438 234.91 163.843 234.707L163.973 234.392C164.061 234.426 173.458 237.811 187.511 215.711C198.277 198.801 207.107 188.81 217.888 191.272C228.668 193.734 229.479 210.917 230.052 221.202L229.711 221.25C229.173 211.034 228.279 193.993 217.813 191.6C207.223 189.186 198.482 199.122 187.811 215.896C177.14 232.669 169.114 234.98 165.691 234.98Z" fill="white"/>
<path d="M342.256 202.801C341.533 202.248 341.192 192.045 345.938 185.754C353.097 176.25 359.787 172.495 363.591 171.771C366.564 171.21 367.526 172.878 364.955 173.856C362.384 174.834 360.598 176.632 361.409 179.251C362.221 181.87 360.407 183.3 358.505 182.67C356.602 182.041 352.893 181.74 351.938 186.144C350.984 190.548 353.302 194.589 349.306 196.668C345.311 198.747 345.461 204.655 345.461 204.655L342.256 202.801Z" fill="#276B65"/>
<path d="M346.439 198.664C346.405 198.664 346.372 198.658 346.341 198.644C346.311 198.631 346.283 198.612 346.26 198.588C346.237 198.563 346.219 198.534 346.208 198.503C346.196 198.472 346.191 198.438 346.193 198.405C346.541 179.942 363.922 172.598 364.072 172.523C364.135 172.5 364.205 172.502 364.267 172.528C364.329 172.555 364.379 172.604 364.406 172.666C364.419 172.697 364.426 172.731 364.427 172.764C364.427 172.798 364.421 172.831 364.408 172.863C364.395 172.894 364.376 172.922 364.353 172.946C364.329 172.97 364.301 172.989 364.269 173.001C364.099 173.07 347.046 180.311 346.705 198.411C346.704 198.446 346.696 198.479 346.682 198.51C346.668 198.542 346.649 198.57 346.624 198.593C346.599 198.617 346.57 198.635 346.538 198.647C346.507 198.66 346.473 198.665 346.439 198.664Z" fill="#1A1D30"/>
<path d="M347.235 215.444C348.108 214.918 347.638 204.21 346.492 192.749C345.531 183.231 344.808 181.063 351.674 173.979C358.541 166.895 359.175 162.245 354.668 159.824C351.258 158.005 344.235 161.807 341.842 171.018C339.449 180.229 340.567 183.798 335.705 186.711C329.486 190.445 327.148 194.397 329.337 198.753C332.575 205.194 341.549 211.588 339.483 217.817L347.235 215.444Z" fill="#61A87F"/>
<path d="M344.661 215.643C344.606 215.642 344.553 215.624 344.508 215.591C344.464 215.557 344.432 215.511 344.416 215.458C343.052 210.794 341.007 207.779 338.709 204.285C337.597 202.616 336.452 200.866 335.231 198.814C332.838 194.711 336.718 190.328 337.959 189.084C341.102 185.952 342.5 181.685 343.85 177.555C345.561 172.344 347.327 166.963 352.598 163.879C352.627 163.862 352.659 163.85 352.692 163.845C352.725 163.841 352.758 163.842 352.791 163.851C352.823 163.859 352.853 163.874 352.88 163.894C352.907 163.914 352.929 163.939 352.946 163.968C352.963 163.997 352.974 164.029 352.978 164.063C352.983 164.096 352.98 164.13 352.971 164.162C352.962 164.195 352.947 164.225 352.926 164.252C352.906 164.278 352.88 164.3 352.851 164.317C347.75 167.298 346.093 172.351 344.341 177.705C342.977 181.89 341.545 186.226 338.32 189.439C337.14 190.622 333.465 194.759 335.674 198.554C336.881 200.606 338.027 202.35 339.131 204.025C341.477 207.546 343.502 210.596 344.907 215.335C344.917 215.367 344.921 215.4 344.918 215.434C344.915 215.467 344.905 215.5 344.889 215.529C344.873 215.558 344.851 215.584 344.825 215.605C344.799 215.626 344.769 215.641 344.736 215.649L344.661 215.643Z" fill="#1A1D30"/>
<path d="M302.392 241.087C302.67 240.44 302.799 239.738 302.769 239.034C302.74 238.329 302.553 237.641 302.222 237.019C300.421 233.559 296.173 227.835 285.768 225.709C274.64 223.445 266.949 225.873 267.985 229.128C269.022 232.383 278.213 228.252 283.423 233.354C286.743 236.581 292.069 244.199 297.448 243.98C300.435 243.857 301.792 242.455 302.392 241.087Z" fill="#276B65"/>
<path d="M301.59 242.584C301.525 242.585 301.463 242.56 301.416 242.515C301.369 242.471 301.341 242.41 301.338 242.345C301.338 242.29 300.799 236.656 289.371 230.803C277.943 224.949 268.342 228.102 268.233 228.136C268.202 228.148 268.169 228.153 268.135 228.151C268.102 228.15 268.069 228.141 268.039 228.126C268.009 228.112 267.983 228.091 267.961 228.066C267.939 228.04 267.923 228.01 267.913 227.978C267.901 227.947 267.896 227.913 267.897 227.879C267.899 227.845 267.907 227.812 267.922 227.781C267.937 227.75 267.957 227.723 267.983 227.701C268.008 227.678 268.038 227.661 268.07 227.65C268.165 227.616 277.895 224.354 289.589 230.344C301.283 236.335 301.815 242.072 301.863 242.311C301.865 242.378 301.841 242.444 301.797 242.495C301.753 242.546 301.691 242.578 301.624 242.584H301.59Z" fill="#1A1D30"/>
<path d="M304.994 231.876C305.267 231.11 306.869 231.623 302.185 223.985C296.403 214.569 288.595 213.728 278.824 211.998C272.497 210.89 274.508 197.194 268.283 198.056C262.057 198.917 259.828 211.41 264.191 215.28C268.555 219.151 272.967 215.226 277.406 219.438C279.527 221.448 276.963 227.411 281.974 229.9C286.536 232.17 291.555 223.691 297.48 234.892L299.212 235.083L304.994 231.876Z" fill="#61A87F"/>
<path d="M302.53 233.477C302.497 233.476 302.464 233.468 302.433 233.454C302.402 233.44 302.374 233.42 302.352 233.395C302.329 233.37 302.311 233.341 302.3 233.309C302.288 233.277 302.283 233.244 302.285 233.21C302.285 233.155 302.36 227.739 294.505 221.51C289.671 217.688 284.004 216.47 278.515 215.294C276.19 214.795 273.988 214.323 271.867 213.66C265.383 211.609 266.671 202.453 266.685 202.357C266.695 202.29 266.731 202.229 266.785 202.189C266.84 202.149 266.908 202.131 266.975 202.141C267.042 202.151 267.102 202.188 267.142 202.242C267.182 202.297 267.199 202.365 267.19 202.432C267.19 202.521 265.955 211.28 272.017 213.175C274.117 213.858 276.306 214.296 278.624 214.795C284.168 215.985 289.896 217.209 294.819 221.107C302.906 227.5 302.803 232.998 302.79 233.23C302.789 233.264 302.781 233.296 302.768 233.327C302.754 233.357 302.735 233.384 302.711 233.407C302.687 233.43 302.659 233.448 302.628 233.46C302.597 233.472 302.564 233.477 302.53 233.477Z" fill="#1A1D30"/>
<path d="M362.178 243.999H296.671C296.054 244.001 295.457 243.781 294.987 243.38C294.517 242.979 294.205 242.422 294.107 241.811L286.709 197.104L285.652 190.738C285.545 190.095 285.676 189.434 286.02 188.88C286.364 188.326 286.897 187.917 287.521 187.73C287.771 187.657 288.03 187.62 288.291 187.62H353.634C354.268 187.618 354.882 187.843 355.365 188.254C355.849 188.665 356.171 189.236 356.273 189.863L358.141 201.098L364.742 240.997C364.799 241.368 364.775 241.747 364.672 242.108C364.57 242.469 364.391 242.804 364.147 243.089C363.904 243.374 363.602 243.603 363.262 243.76C362.922 243.917 362.552 243.999 362.178 243.999Z" fill="#1A1D30"/>
<path d="M364.178 243.05C364.294 242.892 367.246 239.22 367.246 239.22L358.914 236.752L361.198 240.417L364.178 243.05Z" fill="#1A1D30"/>
<path d="M358.113 201.092L353.926 205.386L315.326 205.762L290.69 193.645L288.385 195.608C288.216 195.749 288.013 195.843 287.796 195.88C287.579 195.918 287.356 195.898 287.15 195.823C286.943 195.747 286.759 195.619 286.617 195.451C286.475 195.282 286.379 195.08 286.34 194.863L285.658 190.76C285.551 190.116 285.681 189.455 286.025 188.902C286.369 188.348 286.903 187.939 287.526 187.751C287.777 187.679 288.036 187.642 288.297 187.642H353.639C354.273 187.64 354.887 187.865 355.371 188.276C355.854 188.687 356.176 189.257 356.278 189.884L358.113 201.092Z" fill="#C74243"/>
<path d="M344.051 181.319L296.921 196.639C294.238 197.512 292.768 200.4 293.638 203.091L302.193 229.559C303.063 232.25 305.943 233.724 308.626 232.852L355.756 217.531C358.439 216.659 359.909 213.771 359.04 211.08L350.484 184.612C349.615 181.921 346.734 180.447 344.051 181.319Z" fill="#87B6DE"/>
<path d="M365.014 240.43H299.664C299.029 240.431 298.415 240.204 297.932 239.792C297.449 239.38 297.127 238.809 297.025 238.181L290.125 195.785C290.061 195.401 290.082 195.008 290.186 194.633C290.289 194.258 290.473 193.91 290.724 193.613C290.975 193.316 291.287 193.078 291.64 192.915C291.992 192.751 292.375 192.667 292.763 192.667H358.113C358.748 192.668 359.362 192.896 359.846 193.309C360.329 193.723 360.65 194.295 360.752 194.924L367.653 237.319C367.715 237.703 367.693 238.095 367.589 238.469C367.485 238.843 367.301 239.191 367.05 239.487C366.799 239.782 366.487 240.02 366.136 240.183C365.784 240.346 365.401 240.43 365.014 240.43Z" fill="#E69E5E"/>
<path d="M364.951 220.71C364.905 220.433 364.762 220.182 364.549 220C364.335 219.819 364.065 219.719 363.785 219.718H363.349L365.333 218.398L366.09 219.274L364.951 220.71Z" fill="#1A1D30"/>
<path d="M365.119 219.718H346.497C346.186 219.713 345.886 219.602 345.647 219.403C345.408 219.204 345.243 218.929 345.181 218.624L343.756 211.02C343.724 210.827 343.733 210.629 343.784 210.44C343.834 210.251 343.924 210.075 344.049 209.924C344.173 209.773 344.328 209.651 344.503 209.565C344.678 209.479 344.87 209.432 345.065 209.427H363.666C363.977 209.431 364.277 209.542 364.517 209.741C364.756 209.94 364.92 210.215 364.982 210.521L366.408 218.125C366.44 218.316 366.431 218.512 366.381 218.7C366.332 218.887 366.244 219.062 366.122 219.213C366 219.364 365.847 219.487 365.674 219.574C365.502 219.661 365.312 219.71 365.119 219.718Z" fill="#C74243"/>
<path d="M355.763 216.497C354.822 218.138 352.565 218.61 350.731 217.543C348.897 216.477 348.181 214.295 349.122 212.654C350.063 211.013 352.32 210.541 354.154 211.601C355.988 212.661 356.711 214.856 355.763 216.497Z" fill="white"/>
<path d="M92.8092 222.945C93.3138 221.728 92.8092 205.816 85.9019 193.043C77.3854 177.281 64.8323 175.189 49.1631 171.537C39.0306 169.178 43.5037 147.194 33.3507 148.035C23.1978 148.876 18.4725 168.891 25.1684 175.544C31.8642 182.198 39.3716 176.228 46.1766 183.449C49.4359 186.902 44.7583 196.318 52.6406 200.797C59.8206 204.9 68.7053 191.607 77.29 210.268C83.3722 223.486 83.1335 227.609 83.1335 227.609L92.8092 222.945Z" fill="#427D5A"/>
<path d="M88.7027 225.182C88.6392 225.182 88.5779 225.158 88.5312 225.115C88.4844 225.072 88.4556 225.013 88.4504 224.949C88.4504 224.69 86.0639 199.109 73.7835 188.243C66.283 181.603 57.1938 179.121 48.4114 176.721C44.6884 175.702 41.17 174.745 37.8084 173.487C27.6009 169.678 30.4989 155.058 30.533 154.908C30.5395 154.875 30.5524 154.844 30.5711 154.816C30.5897 154.788 30.6137 154.764 30.6416 154.746C30.6695 154.727 30.7008 154.715 30.7337 154.708C30.7665 154.702 30.8003 154.703 30.833 154.71C30.8983 154.724 30.9554 154.764 30.9923 154.82C31.0292 154.876 31.0429 154.944 31.0307 155.011C31.0307 155.154 28.2078 169.37 37.9857 173.008C41.3269 174.253 44.8044 175.21 48.541 176.229C57.4052 178.643 66.5353 181.138 74.1245 187.853C86.5548 198.863 88.9686 224.642 88.9686 224.902C88.9724 224.935 88.9693 224.97 88.9596 225.002C88.9499 225.035 88.9337 225.065 88.9121 225.091C88.8905 225.117 88.8638 225.139 88.8337 225.154C88.8035 225.17 88.7706 225.179 88.7368 225.182H88.7027Z" fill="#1A1D30"/>
<path d="M103.928 188.024C104.351 186.362 88.9678 184.913 74.56 172.167C66.3777 164.918 64.4753 149.54 60.7728 133.149C57.1316 117.005 55.9997 110.31 47.8174 112.69C41.6465 114.495 37.6508 127.323 45.54 141.163C53.4291 155.003 58.959 157.964 56.552 167.148C53.47 178.923 55.2906 186.403 63.0025 189.029C74.4032 192.934 92.6226 190.041 97.4229 199.936L103.928 188.024Z" fill="#61A87F"/>
<path d="M100.821 191.197C100.778 191.196 100.736 191.184 100.698 191.163C93.566 187.183 87.6338 185.932 80.7538 184.475C77.4809 183.791 74.092 183.066 70.1986 182C62.6435 179.948 62.1799 170.231 62.214 167.312C62.3094 159.824 58.9887 153.048 55.7703 146.497C51.7405 138.291 47.588 129.792 50.2745 119.972C50.2835 119.94 50.2987 119.91 50.3193 119.883C50.3399 119.857 50.3655 119.835 50.3946 119.818C50.4238 119.802 50.4558 119.791 50.4891 119.787C50.5223 119.783 50.5559 119.785 50.5882 119.794C50.6204 119.803 50.6506 119.819 50.6769 119.839C50.7033 119.86 50.7253 119.886 50.7418 119.915C50.7583 119.944 50.7688 119.976 50.7729 120.01C50.7769 120.043 50.7744 120.077 50.7655 120.109C48.1198 129.737 52.061 137.765 56.2204 146.271C59.466 152.877 62.814 159.708 62.7185 167.319C62.6844 170.143 63.1208 179.524 70.3213 181.507C74.2011 182.574 77.5832 183.285 80.8561 183.976C87.7702 185.439 93.7433 186.711 100.937 190.711C100.986 190.739 101.025 190.783 101.047 190.835C101.069 190.888 101.074 190.946 101.06 191.001C101.046 191.056 101.014 191.105 100.97 191.14C100.926 191.176 100.871 191.196 100.814 191.197H100.821Z" fill="#1A1D30"/>
<path d="M132.744 235.883C131.08 234.721 129.334 211.984 139.303 197.495C154.352 175.613 168.91 166.573 177.324 164.597C183.897 163.052 186.188 166.689 180.501 169.11C174.815 171.531 171.058 175.736 173.117 181.507C175.176 187.279 171.262 190.629 166.98 189.474C162.698 188.318 154.386 187.942 152.661 197.85C150.936 207.758 156.466 216.559 147.806 221.585C139.146 226.611 139.999 239.774 139.999 239.774L132.744 235.883Z" fill="#61A87F"/>
<path d="M141.639 225.954C141.572 225.954 141.508 225.928 141.461 225.88C141.414 225.833 141.387 225.769 141.387 225.701C140.862 204.292 151.008 189.351 159.606 180.571C165.135 174.892 171.546 170.15 178.589 166.532C178.619 166.518 178.652 166.509 178.685 166.507C178.718 166.505 178.752 166.51 178.783 166.522C178.814 166.533 178.843 166.551 178.867 166.574C178.891 166.597 178.91 166.625 178.924 166.655C178.938 166.686 178.947 166.719 178.949 166.753C178.951 166.787 178.946 166.821 178.934 166.852C178.923 166.884 178.905 166.914 178.882 166.938C178.859 166.963 178.832 166.983 178.801 166.997C171.811 170.593 165.448 175.302 159.961 180.94C151.431 189.638 141.38 204.463 141.898 225.688C141.898 225.756 141.872 225.821 141.825 225.869C141.778 225.918 141.714 225.946 141.646 225.948L141.639 225.954Z" fill="#1A1D30"/>
<path d="M134.992 229.715C134.408 229.01 133.991 228.182 133.77 227.293C133.549 226.404 133.531 225.477 133.717 224.58C134.692 219.595 137.897 210.904 150.081 204.414C163.132 197.487 173.619 197.686 173.51 202.117C173.401 206.548 160.459 204.79 155.782 213.058C152.829 218.302 148.963 229.763 142.145 231.472C138.462 232.443 136.26 231.199 134.992 229.715Z" fill="#276B65"/>
<path d="M136.463 231.22C136.406 231.221 136.349 231.202 136.305 231.166C136.26 231.13 136.229 231.079 136.218 231.022C136.15 230.721 134.69 223.446 147.087 211.657C159.483 199.868 172.766 200.388 172.895 200.395C172.963 200.4 173.026 200.431 173.07 200.483C173.115 200.534 173.138 200.6 173.134 200.668C173.132 200.701 173.124 200.734 173.11 200.764C173.095 200.794 173.075 200.821 173.05 200.843C173.026 200.865 172.997 200.883 172.966 200.894C172.934 200.905 172.901 200.909 172.868 200.907C172.738 200.907 159.64 200.429 147.441 212.033C135.243 223.637 136.702 230.837 136.702 230.913C136.714 230.979 136.7 231.047 136.664 231.103C136.627 231.159 136.57 231.199 136.504 231.213L136.463 231.22Z" fill="#1A1D30"/>
<path d="M102.139 235.986C102.746 234.866 103.092 233.623 103.152 232.35C103.212 231.077 102.985 229.807 102.487 228.635C99.8074 222.091 93.0774 211.082 74.6466 205.556C54.9544 199.648 40.6898 202.78 42.0331 208.804C43.3764 214.829 60.573 208.893 69.1917 218.945C74.6466 225.305 83.0199 239.904 92.7569 240.389C98.1368 240.656 100.81 238.358 102.139 235.986Z" fill="#276B65"/>
<path d="M100.471 238.352C100.437 238.352 100.404 238.345 100.373 238.332C100.343 238.319 100.315 238.3 100.292 238.275C100.269 238.251 100.251 238.222 100.24 238.191C100.228 238.159 100.223 238.126 100.225 238.092C100.225 237.99 100.225 227.651 80.4169 215.144C60.6088 202.637 42.7713 206.809 42.6008 206.87C42.5685 206.879 42.5348 206.882 42.5015 206.877C42.4683 206.873 42.4363 206.862 42.4076 206.844C42.3788 206.827 42.3539 206.804 42.3344 206.777C42.3148 206.749 42.3011 206.718 42.294 206.685C42.2858 206.653 42.2841 206.619 42.2889 206.586C42.2938 206.553 42.3051 206.522 42.3222 206.493C42.3393 206.465 42.3619 206.44 42.3886 206.42C42.4154 206.4 42.4458 206.386 42.4781 206.378C42.6622 206.33 60.6497 202.049 80.6624 214.713C100.675 227.377 100.716 237.675 100.709 238.106C100.706 238.169 100.68 238.229 100.636 238.274C100.592 238.32 100.533 238.347 100.471 238.352Z" fill="#1A1D30"/>
<path d="M151.226 238.529L147.892 242.345L144.667 242.017L148.451 238.181L151.226 238.529Z" fill="#1A1D30"/>
<path d="M64.3969 117.853L67.7243 114.078L66.0606 119.897L64.3969 117.853Z" fill="#1A1D30"/>
<path d="M89.5518 243.891H144.462C145.194 243.916 145.922 243.773 146.591 243.473C147.26 243.173 147.851 242.724 148.321 242.16C148.79 241.596 149.125 240.933 149.3 240.219C149.475 239.506 149.486 238.762 149.331 238.044L130.157 121.716C129.854 120.108 129.014 118.652 127.774 117.589C126.534 116.526 124.969 115.919 123.338 115.87H68.4481C67.7166 115.846 66.9893 115.99 66.3215 116.29C65.6537 116.59 65.063 117.039 64.5943 117.603C64.1255 118.167 63.7911 118.83 63.6165 119.543C63.4418 120.256 63.4316 120.999 63.5864 121.716L82.7604 238.044C83.0604 239.648 83.8968 241.101 85.1315 242.164C86.3662 243.227 87.9254 243.836 89.5518 243.891Z" fill="#1A1D30"/>
<path d="M148.292 242.181L150.618 239.507L147.42 238.789L147.72 240.109L148.292 242.181Z" fill="#1A1D30"/>
<path d="M92.2145 240.854H147.125C147.857 240.877 148.584 240.734 149.252 240.433C149.92 240.133 150.511 239.684 150.98 239.121C151.449 238.557 151.785 237.894 151.96 237.181C152.136 236.468 152.147 235.725 151.993 235.007L132.819 118.679C132.517 117.072 131.676 115.616 130.436 114.552C129.196 113.489 127.631 112.883 126.001 112.833H71.1108C70.3789 112.808 69.651 112.95 68.9825 113.25C68.314 113.55 67.7227 113.999 67.2537 114.563C66.7847 115.127 66.4504 115.791 66.2763 116.505C66.1022 117.218 66.0929 117.962 66.2491 118.679L85.4231 235.007C85.7231 236.611 86.5595 238.065 87.7942 239.127C89.0289 240.19 90.5881 240.799 92.2145 240.854Z" fill="#87B6DE"/>
<path d="M94.6386 236.792H143.371C144.041 236.815 144.706 236.684 145.318 236.409C145.929 236.135 146.47 235.724 146.899 235.209C147.329 234.693 147.635 234.086 147.795 233.434C147.955 232.782 147.965 232.102 147.824 231.445L129.816 122.236C129.542 120.769 128.778 119.441 127.65 118.469C126.522 117.496 125.097 116.939 123.611 116.888H74.8714C74.2021 116.866 73.5365 116.996 72.9254 117.271C72.3142 117.545 71.7736 117.956 71.3448 118.472C70.916 118.988 70.6102 119.595 70.451 120.247C70.2917 120.899 70.283 121.579 70.4256 122.236L88.4268 231.425C88.6966 232.896 89.4596 234.23 90.5895 235.206C91.7193 236.183 93.148 236.742 94.6386 236.792Z" fill="white"/>
<path d="M88.9996 238.625H149.467L129.4 116.889H68.9324L88.9996 238.625Z" fill="#2C2C34"/>
<path d="M70.0821 152.685C70.181 152.686 70.2789 152.665 70.3691 152.625C70.4592 152.584 70.5395 152.524 70.6044 152.45C70.6693 152.375 70.7171 152.287 70.7447 152.192C70.7722 152.096 70.7788 151.996 70.764 151.898L69.3048 143.214C69.2623 142.999 69.1491 142.805 68.9835 142.663C68.8178 142.52 68.6092 142.437 68.3911 142.428C68.2923 142.427 68.1944 142.447 68.1042 142.488C68.014 142.528 67.9337 142.588 67.8689 142.663C67.804 142.738 67.7561 142.826 67.7286 142.921C67.701 143.016 67.6944 143.116 67.7093 143.214L69.1957 151.898C69.236 152.109 69.3448 152.301 69.5052 152.443C69.6656 152.585 69.8685 152.67 70.0821 152.685Z" fill="#87B6DE"/>
<path d="M71.8815 163.633C71.9803 163.634 72.0782 163.613 72.1684 163.573C72.2586 163.532 72.3389 163.472 72.4038 163.398C72.4686 163.323 72.5165 163.235 72.544 163.14C72.5716 163.044 72.5782 162.944 72.5634 162.846L71.1042 154.155C71.0651 153.939 70.9529 153.743 70.7865 153.599C70.6202 153.456 70.4097 153.375 70.1905 153.369C70.0895 153.36 69.9877 153.375 69.8936 153.413C69.7995 153.451 69.7157 153.51 69.6491 153.587C69.5825 153.664 69.5351 153.755 69.5107 153.854C69.4863 153.953 69.4855 154.056 69.5086 154.155L70.9405 162.846C70.9817 163.067 71.0983 163.266 71.27 163.409C71.4417 163.553 71.658 163.632 71.8815 163.633Z" fill="#87B6DE"/>
<path d="M136.939 143.673C137.038 143.674 137.136 143.654 137.226 143.613C137.317 143.573 137.397 143.513 137.462 143.438C137.527 143.363 137.574 143.275 137.602 143.18C137.63 143.085 137.636 142.985 137.621 142.887L136.299 135.01C136.256 134.796 136.142 134.602 135.977 134.461C135.811 134.319 135.602 134.238 135.385 134.23C135.285 134.221 135.184 134.236 135.09 134.274C134.997 134.311 134.913 134.371 134.847 134.446C134.78 134.522 134.733 134.613 134.708 134.711C134.683 134.809 134.681 134.911 134.703 135.01L135.999 142.866C136.035 143.09 136.15 143.294 136.322 143.442C136.494 143.59 136.713 143.671 136.939 143.673Z" fill="#87B6DE"/>
<path d="M104.867 115.513H108.808C108.898 115.516 108.987 115.499 109.069 115.462C109.152 115.425 109.224 115.37 109.282 115.301C109.34 115.232 109.381 115.15 109.403 115.063C109.425 114.975 109.426 114.884 109.408 114.795C109.371 114.599 109.268 114.421 109.117 114.29C108.966 114.16 108.775 114.085 108.576 114.077H104.655C104.565 114.074 104.476 114.092 104.394 114.129C104.311 114.166 104.239 114.221 104.181 114.29C104.123 114.359 104.082 114.441 104.06 114.528C104.038 114.616 104.036 114.707 104.055 114.795C104.091 114.989 104.191 115.164 104.338 115.294C104.485 115.424 104.671 115.502 104.867 115.513Z" fill="#1A1D30"/>
<path d="M100.449 114.796C100.485 114.993 100.587 115.171 100.739 115.302C100.89 115.433 101.081 115.507 101.281 115.514C101.371 115.517 101.461 115.499 101.543 115.462C101.625 115.425 101.698 115.37 101.756 115.301C101.813 115.232 101.855 115.15 101.876 115.063C101.898 114.975 101.9 114.884 101.881 114.796C101.843 114.598 101.739 114.42 101.587 114.29C101.434 114.159 101.243 114.085 101.042 114.078C100.953 114.074 100.863 114.092 100.781 114.129C100.699 114.165 100.627 114.221 100.57 114.29C100.512 114.359 100.472 114.441 100.451 114.529C100.43 114.616 100.429 114.708 100.449 114.796Z" fill="#1A1D30"/>
<path d="M92.7348 114.795C92.7732 114.993 92.877 115.171 93.0293 115.301C93.1816 115.432 93.3734 115.506 93.5735 115.513C93.6633 115.517 93.7527 115.499 93.8347 115.462C93.9167 115.426 93.9891 115.37 94.0465 115.301C94.1038 115.232 94.1444 115.15 94.1653 115.062C94.1862 114.975 94.1866 114.883 94.1667 114.795C94.1309 114.598 94.0288 114.42 93.8774 114.289C93.726 114.158 93.5345 114.084 93.3349 114.077C93.2449 114.074 93.1554 114.092 93.0733 114.129C92.9911 114.166 92.9183 114.221 92.8605 114.29C92.8027 114.359 92.7613 114.441 92.7395 114.528C92.7178 114.616 92.7162 114.707 92.7348 114.795Z" fill="#1A1D30"/>
<path d="M95.9399 114.796C95.9995 115.12 96.1666 115.415 96.4141 115.632C96.6617 115.849 96.9751 115.976 97.3037 115.992C97.4536 115.998 97.6029 115.969 97.7399 115.908C97.877 115.847 97.9983 115.755 98.0944 115.639C98.1906 115.524 98.259 115.387 98.2945 115.241C98.33 115.095 98.3316 114.943 98.2992 114.796C98.2385 114.472 98.0711 114.178 97.8238 113.961C97.5765 113.744 97.2636 113.616 96.9354 113.599C96.7859 113.595 96.6373 113.625 96.5009 113.686C96.3645 113.748 96.2438 113.84 96.148 113.955C96.0521 114.07 95.9836 114.206 95.9476 114.351C95.9115 114.497 95.9089 114.649 95.9399 114.796Z" fill="#1A1D30"/>
<path d="M88.6423 130.92C89.1582 130.92 89.5764 130.5 89.5764 129.983C89.5764 129.465 89.1582 129.046 88.6423 129.046C88.1264 129.046 87.7081 129.465 87.7081 129.983C87.7081 130.5 88.1264 130.92 88.6423 130.92Z" fill="white"/>
<path d="M115.008 132.745C115.007 132.93 114.951 133.111 114.847 133.264C114.744 133.417 114.597 133.536 114.427 133.606C114.256 133.676 114.068 133.693 113.887 133.657C113.707 133.62 113.541 133.53 113.411 133.399C113.281 133.267 113.193 133.1 113.157 132.919C113.122 132.737 113.141 132.549 113.211 132.379C113.282 132.208 113.402 132.062 113.556 131.959C113.709 131.857 113.889 131.802 114.074 131.802C114.197 131.802 114.319 131.826 114.433 131.874C114.547 131.921 114.65 131.991 114.737 132.079C114.824 132.166 114.892 132.27 114.939 132.385C114.985 132.499 115.009 132.622 115.008 132.745Z" fill="white"/>
<path d="M94.275 126.919C94.275 127.054 94.235 127.187 94.1601 127.299C94.0851 127.412 93.9787 127.499 93.8541 127.551C93.7295 127.603 93.5924 127.616 93.4601 127.59C93.3278 127.563 93.2063 127.498 93.111 127.403C93.0156 127.307 92.9507 127.185 92.9244 127.053C92.898 126.92 92.9116 126.782 92.9632 126.657C93.0148 126.533 93.1022 126.426 93.2143 126.351C93.3264 126.275 93.4583 126.235 93.5931 126.235C93.774 126.235 93.9474 126.307 94.0753 126.436C94.2031 126.564 94.275 126.738 94.275 126.919Z" fill="white"/>
<path d="M101.187 123.418C101.187 123.553 101.147 123.686 101.072 123.798C100.997 123.911 100.891 123.998 100.766 124.05C100.642 124.102 100.505 124.115 100.372 124.089C100.24 124.062 100.119 123.997 100.023 123.902C99.9278 123.806 99.8629 123.684 99.8366 123.552C99.8103 123.419 99.8238 123.281 99.8754 123.156C99.927 123.032 100.014 122.925 100.127 122.85C100.239 122.774 100.37 122.734 100.505 122.734C100.686 122.734 100.86 122.806 100.988 122.935C101.115 123.063 101.187 123.237 101.187 123.418Z" fill="white"/>
<path d="M109.073 124.937C109.073 125.072 109.033 125.204 108.958 125.317C108.883 125.429 108.777 125.517 108.652 125.568C108.528 125.62 108.39 125.634 108.258 125.607C108.126 125.581 108.004 125.516 107.909 125.42C107.814 125.325 107.749 125.203 107.722 125.07C107.696 124.937 107.71 124.8 107.761 124.675C107.813 124.55 107.9 124.443 108.012 124.368C108.125 124.293 108.256 124.253 108.391 124.253C108.572 124.253 108.745 124.325 108.873 124.453C109.001 124.581 109.073 124.755 109.073 124.937Z" fill="white"/>
<path d="M117.093 127.809C117.093 127.934 117.044 128.054 116.955 128.142C116.867 128.231 116.747 128.281 116.623 128.281C116.498 128.281 116.378 128.231 116.29 128.142C116.202 128.054 116.152 127.934 116.152 127.809C116.152 127.684 116.202 127.564 116.29 127.475C116.378 127.387 116.498 127.337 116.623 127.337C116.747 127.337 116.867 127.387 116.955 127.475C117.044 127.564 117.093 127.684 117.093 127.809Z" fill="white"/>
<path d="M106.734 129.819C106.735 129.881 106.724 129.942 106.701 130C106.678 130.057 106.644 130.109 106.601 130.153C106.558 130.197 106.506 130.231 106.45 130.255C106.393 130.279 106.332 130.291 106.271 130.291C106.146 130.291 106.026 130.242 105.938 130.153C105.85 130.065 105.8 129.945 105.8 129.819C105.8 129.694 105.85 129.574 105.938 129.486C106.026 129.397 106.146 129.348 106.271 129.348C106.332 129.348 106.393 129.36 106.45 129.384C106.506 129.407 106.558 129.442 106.601 129.486C106.644 129.53 106.678 129.582 106.701 129.639C106.724 129.697 106.735 129.758 106.734 129.819Z" fill="white"/>
<path d="M94.2782 135.597C94.2782 135.658 94.266 135.719 94.2423 135.776C94.2185 135.833 94.1838 135.885 94.14 135.928C94.0962 135.971 94.0443 136.005 93.9872 136.028C93.9302 136.051 93.8692 136.063 93.8077 136.062C93.7466 136.063 93.6859 136.051 93.6292 136.028C93.5725 136.005 93.521 135.971 93.4778 135.928C93.4346 135.884 93.4004 135.833 93.3775 135.776C93.3545 135.719 93.3431 135.658 93.344 135.597C93.3431 135.535 93.3545 135.474 93.3774 135.417C93.4003 135.36 93.4343 135.308 93.4774 135.264C93.5206 135.22 93.572 135.185 93.6287 135.161C93.6854 135.137 93.7462 135.125 93.8077 135.125C93.9325 135.125 94.0522 135.175 94.1404 135.263C94.2286 135.352 94.2782 135.472 94.2782 135.597Z" fill="white"/>
<path d="M101.61 137.676C101.575 137.677 101.54 137.667 101.511 137.648C101.481 137.628 101.459 137.6 101.446 137.567C100.607 135.256 97.1026 133.854 97.0685 133.84C97.0334 133.82 97.0068 133.787 96.9935 133.749C96.9801 133.71 96.9809 133.668 96.9957 133.63C97.0105 133.592 97.0384 133.561 97.0742 133.542C97.1101 133.522 97.1516 133.517 97.1913 133.526C97.3413 133.58 100.88 134.996 101.767 137.451C101.782 137.493 101.78 137.54 101.761 137.581C101.741 137.622 101.707 137.654 101.664 137.669L101.61 137.676Z" fill="white"/>
<path d="M106.702 138.319C106.659 138.32 106.618 138.306 106.586 138.278C106.554 138.25 106.535 138.21 106.531 138.168C106.177 134.284 110.145 130.195 110.315 130.024C110.348 129.992 110.392 129.975 110.438 129.975C110.484 129.975 110.528 129.992 110.561 130.024C110.591 130.058 110.608 130.102 110.608 130.147C110.608 130.193 110.591 130.236 110.561 130.27C110.52 130.311 106.531 134.414 106.872 138.141C106.874 138.163 106.871 138.186 106.864 138.207C106.858 138.229 106.846 138.249 106.832 138.266C106.817 138.283 106.799 138.297 106.779 138.307C106.759 138.318 106.738 138.324 106.715 138.325L106.702 138.319Z" fill="white"/>
<path d="M104.152 138.318C104.107 138.318 104.063 138.3 104.031 138.268C103.999 138.236 103.981 138.193 103.981 138.147C103.981 132.356 101.077 129.19 101.049 129.162C101.033 129.146 101.02 129.127 101.011 129.106C101.002 129.085 100.997 129.062 100.997 129.039C100.997 129.016 101.002 128.993 101.011 128.972C101.02 128.951 101.033 128.932 101.049 128.916C101.081 128.885 101.124 128.867 101.169 128.867C101.213 128.867 101.256 128.885 101.288 128.916C101.288 128.95 104.343 132.212 104.315 138.141C104.316 138.163 104.313 138.185 104.305 138.206C104.297 138.228 104.286 138.247 104.27 138.263C104.255 138.28 104.237 138.293 104.217 138.303C104.196 138.312 104.174 138.317 104.152 138.318Z" fill="white"/>
<path d="M108.006 217.068C111.699 214.252 112.082 208.525 108.861 204.278C105.64 200.03 100.035 198.87 96.3421 201.686C92.6491 204.502 92.2663 210.229 95.4871 214.476C98.708 218.724 104.313 219.884 108.006 217.068Z" fill="white"/>
<path d="M106.439 209.892L103.766 206.384L101.093 202.876L99.4976 206.384L97.9088 209.892H100.991L101.864 215.526H104.223L103.357 209.892H106.439Z" fill="#C73031"/>
<path d="M134.115 204.169C137.34 208.415 136.952 214.145 133.263 216.956C129.574 219.766 123.962 218.617 120.744 214.371C117.525 210.125 117.907 204.394 121.596 201.577C125.285 198.76 130.897 199.922 134.115 204.169Z" fill="white"/>
<path d="M131.708 208.401L130.119 211.909L128.538 215.417L125.858 211.909L123.178 208.401H126.26L125.381 202.767H127.74L128.619 208.401H131.708Z" fill="#48A871"/>
<path d="M134.859 186.526H88.0426C87.9167 186.527 87.7924 186.555 87.6782 186.608C87.564 186.661 87.4626 186.738 87.3809 186.834C87.2993 186.93 87.2394 187.043 87.2053 187.165C87.1712 187.286 87.1638 187.414 87.1835 187.538L87.8244 191.45C87.8926 191.874 88.254 192.181 88.2881 191.792H135.105C136.025 192.181 136.469 191.703 136.353 191.169L135.712 187.258C135.678 187.055 135.574 186.87 135.418 186.737C135.262 186.603 135.064 186.528 134.859 186.526Z" fill="#669DCF"/>
<path d="M132.918 176.598H86.1008C85.9749 176.598 85.8506 176.626 85.7364 176.679C85.6222 176.732 85.5208 176.809 85.4392 176.906C85.3576 177.002 85.2976 177.114 85.2636 177.236C85.2295 177.357 85.222 177.485 85.2417 177.61L85.8826 181.521C85.915 181.725 86.0185 181.91 86.1747 182.044C86.3308 182.178 86.5294 182.252 86.735 182.253H133.552C133.678 182.252 133.802 182.225 133.916 182.171C134.03 182.118 134.132 182.041 134.213 181.945C134.295 181.849 134.355 181.736 134.389 181.614C134.423 181.493 134.431 181.365 134.411 181.241L133.77 177.329C133.738 177.126 133.634 176.94 133.478 176.806C133.322 176.672 133.123 176.598 132.918 176.598Z" fill="#669DCF"/>
<path d="M126.099 230.741H108.063C107.865 230.741 107.672 230.673 107.517 230.549C107.363 230.425 107.254 230.251 107.211 230.057C107.187 229.931 107.191 229.801 107.223 229.676C107.254 229.552 107.313 229.436 107.394 229.337C107.476 229.238 107.578 229.158 107.693 229.102C107.809 229.047 107.935 229.018 108.063 229.018H126.126C126.323 229.018 126.515 229.086 126.669 229.21C126.823 229.334 126.929 229.508 126.971 229.701C126.998 229.83 126.996 229.962 126.964 230.089C126.932 230.216 126.872 230.335 126.788 230.435C126.704 230.535 126.598 230.615 126.479 230.668C126.359 230.721 126.229 230.746 126.099 230.741Z" fill="#669DCF"/>
<path d="M243.36 136.453C242.166 136.61 239.064 134.942 237.946 132.713C229.688 132.159 219.822 126.654 211.544 126.176C215.956 117.922 214.346 104.123 214.906 91.042C219.53 91.2948 224.121 91.9816 228.618 93.0934C232.478 94.041 236.269 95.2519 239.964 96.7175C241.553 97.3535 249.149 99.1313 250.717 99.8493C248.596 108.369 244.069 116.261 243.646 122.1C243.646 122.086 247.669 135.886 243.36 136.453Z" fill="#239568"/>
<path d="M238.694 96.2177C238.694 96.2177 237.719 98.8572 234.126 100.457C226.837 103.712 226.912 94.8912 228.616 93.0723C232.053 93.8542 235.422 94.906 238.694 96.2177Z" fill="#FFBB96"/>
<path d="M243.638 88.0264L243.044 88.5734C242.476 87.1012 241.792 85.6767 240.999 84.3134L235.544 90.2487L236.151 92.3617L230.696 87.4383L237.174 78.1729L242.629 80.9559C243.253 81.2718 243.792 81.7342 244.199 82.3038C244.607 82.8733 244.872 83.5332 244.971 84.2273C245.07 84.9214 245.001 85.6293 244.769 86.2907C244.536 86.9521 244.148 87.5475 243.638 88.0264Z" fill="#613830"/>
<path d="M243.07 88.5726L237.615 93.6327L236.558 92.7301L236.149 92.3608L235.542 90.2479L240.997 84.3125C241.8 85.6749 242.493 87.0995 243.07 88.5726Z" fill="#1A1D30"/>
<path d="M239.504 90.071L238.222 93.9755L237.247 96.779L236.715 98.3108L230.128 96.7654L230.878 94.6046L230.919 94.4746L231.696 92.2386L231.99 91.3634L233.149 87.8486L239.504 90.071Z" fill="#FFBB96"/>
<path d="M235.02 93.1343C233.753 93.8428 232.365 94.3067 230.928 94.5019L231.699 92.2727L231.992 91.3906L235.02 93.1343Z" fill="#1A1D30"/>
<path d="M231.159 92.8337C231.729 93.149 232.355 93.3485 233.002 93.4209C233.649 93.4932 234.304 93.437 234.929 93.2553C235.554 93.0737 236.137 92.7702 236.645 92.3623C237.153 91.9544 237.576 91.45 237.889 90.878L238.571 89.6267L241.203 84.9632C241.333 84.1631 238.155 80.9629 233.3 81.8792L230.709 87.1445C229.121 90.1122 229.598 91.9721 231.159 92.8337Z" fill="#FFBB96"/>
<path d="M239.28 88.019C239.09 88.1531 238.94 88.3381 238.849 88.553C238.758 88.7679 238.728 89.0042 238.764 89.235C238.8 89.4658 238.899 89.682 239.051 89.8591C239.203 90.0362 239.401 90.1672 239.623 90.2372C239.846 90.3071 240.083 90.3134 240.308 90.2551C240.534 90.1969 240.739 90.0765 240.9 89.9076C241.06 89.7387 241.171 89.528 241.219 89.2993C241.266 89.0707 241.249 88.8333 241.169 88.6139C240.993 88.2886 240.697 88.0448 240.345 87.9338C239.992 87.8229 239.611 87.8534 239.28 88.019Z" fill="#FFBB96"/>
<path d="M252.803 73.8094L246.96 74.4795L247.246 51.7637L251.419 51.5518L252.803 73.8094Z" fill="#FFBB96"/>
<path d="M222.309 52.5366L218.988 52.9811L217.372 73.6182L211.549 72.7839L214.911 52.27C215.033 51.5128 215.218 50.7671 215.463 50.0408L216.861 45.8286C216.92 45.6325 217.019 45.4504 217.15 45.2932C217.281 45.136 217.443 45.007 217.625 44.9138C217.807 44.8206 218.005 44.7652 218.209 44.7508C218.413 44.7365 218.618 44.7635 218.811 44.8302L221.607 45.7944C221.607 45.7944 221.825 48.4475 221.825 48.5296C221.825 48.6116 222.309 52.5366 222.309 52.5366Z" fill="#FFBB96"/>
<path d="M234.144 87.4445C234.117 87.4506 234.089 87.4506 234.062 87.4445L233.619 87.212C233.525 87.1646 233.443 87.0972 233.378 87.0145C233.313 86.9318 233.267 86.8358 233.244 86.7333C233.218 86.6295 233.215 86.5213 233.235 86.4163C233.255 86.3112 233.297 86.2117 233.36 86.1247L234.403 84.6477C234.416 84.6293 234.432 84.6137 234.451 84.6016C234.47 84.5896 234.492 84.5815 234.514 84.5777C234.536 84.5739 234.559 84.5745 234.58 84.5794C234.602 84.5844 234.623 84.5937 234.641 84.6067C234.66 84.6197 234.675 84.6363 234.687 84.6553C234.699 84.6744 234.708 84.6957 234.711 84.7179C234.715 84.7401 234.715 84.7629 234.71 84.7848C234.705 84.8068 234.695 84.8276 234.682 84.846L233.632 86.3231C233.6 86.3707 233.579 86.4244 233.568 86.4808C233.557 86.5373 233.558 86.5952 233.571 86.6513C233.585 86.7065 233.611 86.7581 233.646 86.8028C233.681 86.8475 233.725 86.8844 233.775 86.9111L234.219 87.1436C234.252 87.1614 234.278 87.1896 234.293 87.2239C234.309 87.2581 234.312 87.2965 234.304 87.3331C234.295 87.3697 234.275 87.4024 234.246 87.4263C234.217 87.4501 234.181 87.4637 234.144 87.465V87.4445Z" fill="#C97125"/>
<path d="M238.926 85.0925C238.803 84.5853 238.512 84.1347 238.101 83.8138C237.649 83.5859 237.159 83.44 236.656 83.383C236.584 83.3975 236.51 83.383 236.449 83.3426C236.389 83.3022 236.346 83.2393 236.332 83.1676C236.317 83.096 236.332 83.0215 236.372 82.9606C236.412 82.8997 236.475 82.8573 236.547 82.8428C237.052 82.7376 237.578 82.8033 238.042 83.0298C238.505 83.2562 238.881 83.6305 239.11 84.0942C239.244 84.3967 239.32 84.7212 239.335 85.0515C239.336 85.1054 239.315 85.1574 239.278 85.1968C239.242 85.2361 239.191 85.26 239.138 85.2635C239.088 85.2658 239.039 85.2497 239 85.2182C238.961 85.1867 238.935 85.142 238.926 85.0925Z" fill="#1A1D30"/>
<path d="M232.266 82.3578C232.665 82.0523 233.152 81.8867 233.654 81.8867C234.155 81.8867 234.643 82.0523 235.041 82.3578C235.086 82.4038 235.114 82.4643 235.118 82.5285C235.123 82.5927 235.105 82.6566 235.068 82.7089C235.03 82.7612 234.976 82.7986 234.914 82.8144C234.851 82.8302 234.785 82.8235 234.728 82.7954C234.007 82.5186 233.216 82.4897 232.477 82.7134C232.432 82.7286 232.382 82.7277 232.337 82.7108C232.292 82.694 232.254 82.6622 232.229 82.6207C232.205 82.5793 232.195 82.5306 232.202 82.4828C232.208 82.435 232.231 82.3909 232.266 82.3578Z" fill="#1A1D30"/>
<path d="M242.235 80.7575C241.444 81.79 236.214 81.578 234.141 80.2788C231.557 78.665 231.741 76.9008 232.525 75.8683C233.31 74.8357 235.253 75.5948 237.026 77.2701C238.574 78.6928 240.331 79.8689 242.235 80.7575Z" fill="#613830"/>
<path d="M240.556 83.8273C240.556 83.8273 239.144 82.2683 233.942 82.0563C231.937 81.9743 231.31 80.3605 231.658 79.4921C232.21 78.1245 233.655 78.4595 235.626 78.8698C238.981 79.5673 240.815 82.9247 240.556 83.8273Z" fill="#613830"/>
<path d="M231.652 79.6636H231.618C231.575 79.6537 231.538 79.6276 231.513 79.5906C231.489 79.5536 231.48 79.5087 231.489 79.4653C231.543 79.2921 231.631 79.1316 231.749 78.993C231.866 78.8545 232.009 78.7407 232.17 78.6584C233.03 78.1865 234.4 78.2891 236.262 78.9729C236.283 78.9797 236.303 78.991 236.32 79.0059C236.337 79.0209 236.351 79.0392 236.361 79.0598C236.37 79.0804 236.375 79.1027 236.376 79.1254C236.377 79.1481 236.372 79.1707 236.364 79.1917C236.348 79.2343 236.317 79.2691 236.276 79.2883C236.235 79.3075 236.188 79.3097 236.146 79.2943C233.964 78.4943 232.88 78.6652 232.348 78.9524C232.224 79.0091 232.113 79.0904 232.021 79.1916C231.93 79.2927 231.86 79.4114 231.816 79.5405C231.805 79.5754 231.783 79.606 231.754 79.6281C231.724 79.6501 231.689 79.6625 231.652 79.6636Z" fill="#1A1D30"/>
<path d="M244.56 86.9666H244.485C244.445 86.9474 244.413 86.9129 244.398 86.8706C244.383 86.8284 244.385 86.7818 244.403 86.741C244.713 85.9966 244.737 85.1637 244.472 84.4024C244.3 84.0343 244.053 83.7069 243.746 83.4417C243.44 83.1764 243.08 82.9795 242.692 82.8638C241.129 82.3667 239.483 82.1899 237.851 82.3442C236.23 82.4544 234.603 82.351 233.009 82.0364C232.987 82.0316 232.967 82.0224 232.948 82.0095C232.93 81.9965 232.914 81.98 232.902 81.961C232.89 81.9419 232.882 81.9206 232.878 81.8983C232.874 81.8761 232.875 81.8533 232.88 81.8313C232.893 81.7885 232.92 81.7518 232.958 81.7279C232.996 81.704 233.04 81.6946 233.084 81.7014C234.655 82.0127 236.26 82.1138 237.858 82.0023C239.536 81.8425 241.23 82.0263 242.835 82.5425C243.271 82.6756 243.674 82.9006 244.016 83.2026C244.358 83.5045 244.632 83.8762 244.819 84.293C245.111 85.138 245.08 86.0617 244.731 86.8846C244.714 86.9143 244.689 86.9381 244.658 86.9528C244.628 86.9675 244.594 86.9723 244.56 86.9666Z" fill="#1A1D30"/>
<path d="M235.262 77.3045C235.227 77.3035 235.193 77.2919 235.165 77.2711C235.137 77.2503 235.116 77.2214 235.105 77.1883C235.032 76.8825 234.898 76.5949 234.711 76.3432C234.523 76.0915 234.286 75.8811 234.014 75.7249C233.704 75.5871 233.354 75.5701 233.032 75.6771C233.011 75.6861 232.989 75.691 232.967 75.6914C232.944 75.6919 232.922 75.6878 232.901 75.6796C232.88 75.6713 232.861 75.659 232.845 75.6433C232.829 75.6276 232.816 75.6089 232.807 75.5882C232.79 75.5463 232.79 75.4997 232.807 75.4578C232.823 75.416 232.855 75.3819 232.896 75.3625C233.304 75.2171 233.753 75.2342 234.15 75.4104C234.467 75.5844 234.743 75.8227 234.963 76.1099C235.183 76.3972 235.34 76.7272 235.425 77.0789C235.438 77.1224 235.435 77.1694 235.414 77.2101C235.394 77.2508 235.359 77.2821 235.316 77.2977L235.262 77.3045Z" fill="#1A1D30"/>
<path d="M225.342 92.1014L214.889 98.6796L210.341 76.6613C210.237 76.1154 210.178 75.562 210.164 75.0065L209.734 57.5217C209.632 56.4687 212.803 55.0122 216.819 54.2532C218.807 53.8161 220.853 53.7144 222.874 53.9523C223.033 53.9771 223.19 54.0113 223.344 54.0549C223.938 54.2121 224.292 54.4651 224.326 54.7865V54.8412V54.9164L223.597 59.6278L220.978 76.6476C221.597 77.415 222.035 78.3125 222.26 79.2734L225.029 90.8227L225.158 91.3561L225.342 92.1014Z" fill="#239568"/>
<path d="M253.133 188.244C249.798 188.463 246.887 186.712 246.096 184.196C245.99 183.849 245.926 183.491 245.905 183.129C245.694 180.045 248.632 177.344 252.403 177.091C255.506 176.886 258.233 178.383 259.222 180.633C259.446 181.137 259.58 181.676 259.617 182.226C259.829 185.283 256.924 187.991 253.133 188.244Z" fill="#1A1D30"/>
<path opacity="0.5" d="M225.055 90.8021L223.139 89.0037C223.139 89.0037 222.607 86.7608 221.83 83.1161C221.148 79.8202 218.672 74.0695 218.672 74.0695C220.036 69.7957 221.843 61.3645 222.852 56.5506C222.955 56.0445 223.05 55.5796 223.139 55.183C223.227 54.7864 223.302 54.3624 223.371 54.0547L223.623 59.6208L221.004 76.6406C221.623 77.4079 222.062 78.3055 222.286 79.2664L225.055 90.8021Z" fill="#013D38"/>
<path d="M241.275 93.8865L244.787 81.9611C245.065 81.016 245.55 80.1449 246.205 79.4105L243.975 57.5289V57.4537C243.975 57.4537 243.975 57.4537 243.975 57.4059C244.044 57.0024 244.582 56.7221 245.462 56.6468C247.493 56.515 249.533 56.7229 251.496 57.2623C255.472 58.2196 258.56 59.8402 258.404 60.8864L257.081 78.3233C257.037 78.8767 256.948 79.4256 256.815 79.9644L249.144 104.923L239.366 97.3124L241.275 93.8865Z" fill="#239568"/>
<path d="M149.969 160.906C149.897 160.963 149.816 161.009 149.73 161.043C147.978 161.726 145.551 159.819 144.275 156.735C143 153.651 143.594 150.854 145.203 149.863C145.575 149.63 145.99 149.475 146.423 149.404C147.787 149.192 149.314 149.883 150.255 152.215C151.469 155.155 151.483 159.86 149.969 160.906Z" fill="#1A1D30"/>
<path d="M150.762 149.609L135.477 155.095L137.958 162.048L153.244 156.562L150.762 149.609Z" fill="#FFBB96"/>
<path d="M140.988 161.131L131.865 165.363L127.835 156.071L124.194 141.943L125.94 142.107C126.674 142.18 127.376 142.446 127.974 142.878C128.573 143.311 129.047 143.894 129.349 144.569C130.106 146.272 130.87 148.569 131.695 151.024C132.308 152.843 134.217 154.573 138.063 154.088H138.118C138.854 153.787 140.088 155.134 140.845 157.083C141.602 159.031 141.718 160.844 140.988 161.131Z" fill="#966D5A"/>
<path d="M125.709 156.057L127.209 158.526L123.888 159.627L125.75 163.456C126.04 164.172 126.481 164.816 127.044 165.344C127.607 165.872 128.277 166.27 129.009 166.513C129.316 166.438 131.395 165.637 131.661 165.494C132.657 164.961 133.155 163.477 132.043 160.707C131.157 158.526 129.609 157.5 128.634 152.912C128.088 150.361 126.07 140.638 123.902 141.93C122.272 142.901 122.954 148.023 124.638 153.616C124.89 154.472 125.249 155.293 125.709 156.057Z" fill="#1A1D30"/>
<path d="M123.891 159.627L125.316 163.552C126.135 165.884 128.044 167.265 129.762 166.212C131.126 165.385 128.262 159.627 128.262 159.627H123.891Z" fill="#212747"/>
<path d="M244.801 171.723L250.14 187.099L257.075 184.677L251.736 169.301L244.801 171.723Z" fill="#FFBB96"/>
<path opacity="0.5" d="M241.281 93.8862L243.326 93.8246C243.326 93.8246 243.244 92.5596 244.595 88.2175C246.926 80.6957 246.899 80.6957 249.143 76.9621C248.004 72.6337 246.626 64.1136 245.863 59.2517C245.788 58.7457 245.72 58.2808 245.651 57.8842C245.583 57.4875 245.522 57.0089 245.467 56.6738C244.588 56.7764 244.049 57.0294 243.981 57.4328C243.981 57.4328 243.981 57.4328 243.981 57.4807V57.5559L246.211 79.4375C245.555 80.1719 245.071 81.043 244.792 81.9881L241.281 93.8862Z" fill="#013D38"/>
<path d="M238.724 97.8931C239.263 99.7803 242.011 100.628 244.861 99.8214C247.711 99.0145 249.586 96.8058 249.048 94.9185C248.509 93.0312 245.754 92.1833 242.911 92.9902C240.068 93.7971 238.179 96.0331 238.724 97.8931Z" fill="#239568"/>
<path d="M244.864 81.7413C244.842 81.7471 244.819 81.7471 244.796 81.7413C244.756 81.722 244.725 81.6876 244.709 81.6453C244.694 81.6031 244.696 81.5565 244.714 81.5157C245.327 80.0835 246.279 78.823 247.487 77.8434C248.696 76.8639 250.124 76.195 251.649 75.8948C251.788 75.8664 251.925 75.8276 252.058 75.7786C252.1 75.7628 252.146 75.764 252.187 75.7819C252.227 75.7998 252.26 75.833 252.276 75.8743C252.286 75.8943 252.292 75.9162 252.293 75.9385C252.294 75.9609 252.29 75.9831 252.281 76.0038C252.273 76.0245 252.26 76.0432 252.244 76.0586C252.228 76.074 252.209 76.0858 252.188 76.0931C252.039 76.1487 251.886 76.1943 251.731 76.2299C250.256 76.5168 248.874 77.1608 247.705 78.1059C246.535 79.051 245.614 80.2685 245.021 81.6524C245.007 81.681 244.984 81.7047 244.956 81.7205C244.928 81.7363 244.896 81.7435 244.864 81.7413Z" fill="#1A1D30"/>
<path d="M238.742 96.7169H238.688C238.645 96.7013 238.61 96.67 238.59 96.6293C238.569 96.5886 238.565 96.5416 238.579 96.4981C239.513 93.5441 243.161 92.6756 244.361 92.3953L244.654 92.3201C244.675 92.311 244.697 92.3061 244.719 92.3057C244.742 92.3053 244.764 92.3093 244.785 92.3176C244.806 92.3258 244.825 92.3382 244.841 92.3538C244.857 92.3695 244.87 92.3882 244.879 92.4089C244.889 92.429 244.895 92.451 244.897 92.4735C244.898 92.4959 244.895 92.5185 244.887 92.5396C244.879 92.5608 244.867 92.5801 244.852 92.5965C244.837 92.6128 244.818 92.6258 244.797 92.6346L244.436 92.7303C243.283 93.0039 239.779 93.8381 238.906 96.6075C238.892 96.6399 238.87 96.6676 238.841 96.687C238.811 96.7065 238.777 96.7169 238.742 96.7169Z" fill="#1A1D30"/>
<path d="M226.483 94.8713C225.433 96.5329 222.822 96.7517 220.646 95.3636C218.471 93.9755 217.558 91.507 218.601 89.8522C219.644 88.1974 222.269 87.9786 224.444 89.3667C226.62 90.7548 227.533 93.2165 226.483 94.8713Z" fill="#239568"/>
<path d="M222.233 79.0274C222.198 79.0274 222.164 79.017 222.135 78.9976C222.106 78.9781 222.083 78.9504 222.07 78.918C221.548 77.5065 220.691 76.2438 219.573 75.2393C218.455 74.2349 217.11 73.5189 215.653 73.1536C215.5 73.1116 215.35 73.059 215.203 72.9963C215.181 72.9887 215.16 72.9764 215.142 72.9601C215.124 72.9438 215.11 72.9239 215.1 72.9017C215.091 72.8796 215.086 72.8557 215.087 72.8315C215.087 72.8074 215.092 72.7836 215.103 72.7617C215.113 72.7399 215.127 72.7204 215.146 72.7047C215.164 72.6889 215.185 72.6771 215.208 72.6702C215.231 72.6633 215.256 72.6614 215.279 72.6646C215.303 72.6677 215.326 72.6759 215.347 72.6886C215.478 72.743 215.612 72.7887 215.749 72.8254C217.257 73.203 218.65 73.9442 219.808 74.9845C220.965 76.0249 221.852 77.3329 222.39 78.7949C222.406 78.8376 222.405 78.8849 222.388 78.9269C222.37 78.9689 222.337 79.0024 222.295 79.0206L222.233 79.0274Z" fill="#1A1D30"/>
<path d="M226.904 93.7842C226.882 93.7833 226.86 93.778 226.839 93.7686C226.819 93.7592 226.801 93.7459 226.785 93.7294C226.77 93.7128 226.758 93.6935 226.751 93.6724C226.743 93.6513 226.739 93.6289 226.74 93.6064C226.863 90.8234 224.142 89.2917 223.249 88.8198C223.149 88.7692 223.053 88.7097 222.963 88.6421C222.929 88.6112 222.91 88.5683 222.908 88.5228C222.906 88.4773 222.922 88.4329 222.953 88.3993C222.983 88.3658 223.026 88.3458 223.072 88.3439C223.117 88.342 223.161 88.3582 223.195 88.3891L223.42 88.5258C224.354 89.0523 227.211 90.6661 227.081 93.6543C227.073 93.6941 227.05 93.7295 227.018 93.7535C226.985 93.7775 226.944 93.7885 226.904 93.7842Z" fill="#1A1D30"/>
<path d="M219.38 140.145H219.305L149.973 160.905C151.01 160.187 151.337 157.746 151.044 155.332C150.935 154.266 150.683 153.219 150.294 152.221C149.353 149.882 147.818 149.192 146.462 149.404V149.37L213.966 125.245L214.702 124.979L217.573 134.326L219.38 140.145Z" fill="#F46151"/>
<path d="M259.232 180.605C258.223 178.362 255.496 176.872 252.414 177.077C249.434 177.268 247 178.978 246.195 181.18C245.969 181.789 245.874 182.439 245.916 183.088C245.94 183.449 246.004 183.807 246.106 184.154L227.86 141.417L225.48 135.816L225.385 135.618L226.892 135.789L228.733 136.001L244.531 137.82L259.232 180.605Z" fill="#F46151"/>
<path d="M244.733 139.421L231.13 141.923H231.001L227.837 141.458L219.3 140.187L210.538 138.887L210.845 137.691L213.927 125.314V125.266L214.281 123.851C215.645 122.757 222.43 122.483 228.328 123.755C228.873 123.871 229.419 124.015 229.971 124.172C232.993 124.965 235.881 126.202 238.542 127.844C239.689 128.593 240.754 129.462 241.719 130.436C242.314 131.025 242.818 131.7 243.213 132.439C243.301 132.59 243.376 132.74 243.451 132.897V132.931C243.513 133.056 243.567 133.184 243.615 133.314C243.896 134.012 244.088 134.743 244.188 135.489L244.488 137.834L244.733 139.421Z" fill="#F46151"/>
<path opacity="0.5" d="M241.708 130.415C242.303 131.004 242.807 131.68 243.202 132.419C241.033 129.102 230.362 125.991 222.453 125.205C218.096 124.767 215.45 124.986 213.902 125.293L214.27 123.83C215.634 122.736 222.419 122.463 228.317 123.734C228.862 123.851 229.408 123.994 229.96 124.151C232.982 124.944 235.87 126.182 238.531 127.823C239.678 128.573 240.743 129.442 241.708 130.415Z" fill="#8A2121"/>
<path d="M222.892 126.346C222.869 126.344 222.848 126.338 222.828 126.328C222.807 126.318 222.79 126.304 222.775 126.287C222.76 126.269 222.749 126.249 222.743 126.228C222.736 126.207 222.733 126.184 222.735 126.161L222.98 122.913C222.981 122.891 222.987 122.868 222.997 122.848C223.006 122.827 223.021 122.809 223.038 122.794C223.055 122.779 223.075 122.768 223.097 122.762C223.119 122.755 223.142 122.753 223.165 122.756C223.187 122.757 223.208 122.762 223.228 122.772C223.248 122.781 223.266 122.795 223.281 122.811C223.296 122.828 223.307 122.847 223.314 122.869C223.321 122.89 223.323 122.912 223.321 122.934L223.076 126.189C223.074 126.211 223.068 126.233 223.058 126.253C223.048 126.273 223.034 126.291 223.016 126.306C222.999 126.321 222.98 126.332 222.958 126.339C222.937 126.345 222.914 126.348 222.892 126.346Z" fill="#1A1D30"/>
<path d="M248.728 183.02L251.347 193.058L258.67 186.48L265.57 173.658C265.57 173.658 261.07 171.272 255.949 180.989C255.949 180.989 255.847 178.889 254.176 178.725C252.506 178.561 249.015 180.996 248.728 183.02Z" fill="#966D5A"/>
<path d="M261.85 187.362L259.525 189.454L260.595 191.437L258.754 193.529C256.975 195.246 253.981 195.936 252.393 194.664C252.152 194.469 251.943 194.239 251.772 193.981C251.445 193.517 251.239 192.98 251.171 192.416C251.103 191.853 251.176 191.281 251.383 190.753C251.714 189.977 252.202 189.279 252.815 188.702C254.515 187.078 255.783 185.055 256.504 182.814C256.668 182.295 256.838 181.761 257.016 181.255C258.161 178.007 261.72 172.653 265.28 173.59C267.946 174.321 266.35 182.814 261.85 187.362Z" fill="#1A1D30"/>
<path d="M260.595 191.437L258.754 193.53C256.975 195.246 253.981 195.937 252.393 194.665C252.152 194.47 251.943 194.239 251.772 193.981C250.927 191.861 255.14 188.825 255.14 188.825L260.595 191.437Z" fill="#212747"/>
<path d="M233.121 84.2443C233.121 84.364 233.074 84.4788 232.989 84.5634C232.905 84.648 232.791 84.6956 232.671 84.6956C232.552 84.6956 232.437 84.648 232.353 84.5634C232.269 84.4788 232.221 84.364 232.221 84.2443C232.221 84.1246 232.269 84.0098 232.353 83.9251C232.437 83.8405 232.552 83.793 232.671 83.793C232.791 83.793 232.905 83.8405 232.989 83.9251C233.074 84.0098 233.121 84.1246 233.121 84.2443Z" fill="#1A1D30"/>
<path d="M233.615 85.0926C233.57 85.0926 233.526 85.0746 233.494 85.0425C233.463 85.0105 233.445 84.967 233.445 84.9216C233.428 84.7088 233.349 84.5058 233.216 84.3388C233.084 84.1718 232.904 84.0485 232.701 83.9848C232.602 83.9633 232.5 83.9664 232.402 83.9938C232.305 84.0212 232.216 84.0721 232.142 84.1421C232.109 84.1739 232.065 84.1916 232.019 84.1916C231.974 84.1916 231.93 84.1739 231.897 84.1421C231.866 84.1102 231.848 84.0672 231.848 84.0224C231.848 83.9777 231.866 83.9347 231.897 83.9028C232.012 83.7892 232.152 83.7055 232.307 83.659C232.461 83.6125 232.625 83.6047 232.783 83.6361C233.063 83.7173 233.31 83.883 233.492 84.1107C233.674 84.3384 233.781 84.6168 233.799 84.908C233.801 84.9327 233.798 84.9577 233.789 84.981C233.781 85.0043 233.767 85.0255 233.75 85.0431C233.732 85.0607 233.711 85.0742 233.688 85.0828C233.665 85.0913 233.64 85.0947 233.615 85.0926Z" fill="#1A1D30"/>
<path d="M236.969 85.7763C236.977 85.8398 236.971 85.9042 236.952 85.9652C236.933 86.0263 236.902 86.0827 236.859 86.1306C236.817 86.1785 236.765 86.2169 236.707 86.2432C236.649 86.2695 236.586 86.283 236.522 86.283C236.458 86.283 236.395 86.2695 236.337 86.2432C236.279 86.2169 236.227 86.1785 236.185 86.1306C236.143 86.0827 236.111 86.0263 236.092 85.9652C236.073 85.9042 236.068 85.8398 236.076 85.7763C236.068 85.7128 236.073 85.6484 236.092 85.5873C236.111 85.5262 236.143 85.4699 236.185 85.422C236.227 85.374 236.279 85.3357 236.337 85.3094C236.395 85.2831 236.458 85.2695 236.522 85.2695C236.586 85.2695 236.649 85.2831 236.707 85.3094C236.765 85.3357 236.817 85.374 236.859 85.422C236.902 85.4699 236.933 85.5262 236.952 85.5873C236.971 85.6484 236.977 85.7128 236.969 85.7763Z" fill="#1A1D30"/>
<path d="M237.553 86.5704C237.508 86.5704 237.465 86.5524 237.433 86.5203C237.401 86.4882 237.383 86.4448 237.383 86.3994C237.365 86.1861 237.284 85.9829 237.151 85.8159C237.017 85.649 236.837 85.526 236.633 85.4626C236.534 85.4392 236.431 85.4414 236.333 85.4689C236.235 85.4964 236.146 85.5484 236.074 85.6199C236.058 85.6362 236.04 85.6493 236.019 85.6582C235.999 85.6671 235.977 85.6717 235.954 85.6717C235.932 85.6717 235.91 85.6671 235.889 85.6582C235.869 85.6493 235.85 85.6362 235.835 85.6199C235.818 85.6051 235.804 85.5868 235.794 85.5661C235.785 85.5455 235.78 85.523 235.78 85.5002C235.78 85.4775 235.785 85.455 235.794 85.4343C235.804 85.4137 235.818 85.3953 235.835 85.3806C235.948 85.266 236.087 85.1816 236.241 85.135C236.395 85.0884 236.558 85.0812 236.715 85.1139C236.995 85.1947 237.243 85.3602 237.426 85.5878C237.609 85.8154 237.718 86.094 237.737 86.3857C237.74 86.4105 237.736 86.4354 237.728 86.4588C237.719 86.4821 237.706 86.5033 237.688 86.5209C237.671 86.5385 237.65 86.552 237.626 86.5606C237.603 86.5691 237.578 86.5724 237.553 86.5704Z" fill="#1A1D30"/>
<path d="M235.573 88.6897C235.512 88.8916 235.404 89.0765 235.26 89.2299C234.885 89.6881 234.244 90.1941 233.616 89.7701C233.492 89.6905 233.382 89.5912 233.289 89.4761L233.241 89.4145C233.161 89.2997 233.114 89.1652 233.105 89.0255C233.095 88.8858 233.123 88.7461 233.187 88.6213C233.405 88.2521 233.869 88.3752 234.394 88.4162C235.253 88.5119 235.573 88.382 235.573 88.6897Z" fill="#1A1D30"/>
<path d="M235.23 89.2295C234.855 89.6876 234.214 90.1937 233.587 89.7697C233.463 89.6901 233.352 89.5908 233.26 89.4757C233.785 89.2959 234.335 89.2013 234.889 89.1953L235.23 89.2295Z" fill="#944042"/>
<path d="M180.383 140.679C180.355 140.678 180.327 140.67 180.302 140.656C180.277 140.642 180.256 140.621 180.24 140.597C178.508 137.725 176.531 138.682 176.51 138.689C176.491 138.7 176.469 138.706 176.447 138.708C176.425 138.71 176.403 138.707 176.382 138.7C176.361 138.693 176.341 138.682 176.325 138.667C176.308 138.652 176.295 138.634 176.285 138.614C176.266 138.574 176.263 138.528 176.277 138.486C176.291 138.444 176.321 138.409 176.36 138.388C176.36 138.388 178.638 137.281 180.527 140.44C180.539 140.458 180.547 140.479 180.551 140.501C180.555 140.524 180.555 140.546 180.549 140.568C180.544 140.59 180.535 140.61 180.522 140.628C180.508 140.646 180.491 140.661 180.472 140.672C180.444 140.684 180.413 140.686 180.383 140.679Z" fill="#1A1D30"/>
<path d="M247.322 152.727C247.273 152.727 247.227 152.707 247.192 152.672C246.955 152.373 246.658 152.125 246.322 151.944C245.985 151.763 245.616 151.652 245.235 151.619C244.199 151.636 243.202 152.013 242.412 152.686C242.381 152.717 242.338 152.735 242.293 152.735C242.248 152.735 242.206 152.717 242.174 152.686C242.142 152.653 242.124 152.609 242.124 152.563C242.124 152.517 242.142 152.473 242.174 152.44C243.029 151.706 244.116 151.299 245.242 151.291C245.667 151.326 246.081 151.447 246.457 151.648C246.834 151.85 247.165 152.126 247.431 152.46C247.462 152.492 247.48 152.535 247.48 152.58C247.48 152.625 247.462 152.668 247.431 152.7C247.398 152.72 247.36 152.73 247.322 152.727Z" fill="#1A1D30"/>
<path d="M225.479 58.0212C225.962 58.4395 226.482 58.8125 227.033 59.1358L226.965 60.0384L230.688 61.2829C235.038 62.5479 239.743 60.9136 243.241 57.3579C245.217 55.3288 246.703 52.8727 247.585 50.178C248.768 46.7483 248.894 43.0405 247.946 39.5381C246.821 35.5789 244.25 32.4402 240.616 31.0726C240.521 31.0316 236.934 29.835 236.934 29.835L235.966 30.9496C233.548 30.7612 231.139 31.4158 229.147 32.8026C226.474 34.6421 224.374 37.7807 223.01 41.945C220.808 48.6121 221.469 54.5816 225.479 58.0212Z" fill="#FACA32"/>
<path opacity="0.5" d="M227.037 59.1083L226.969 60.0109L230.691 61.2554C235.042 62.5205 239.747 60.8862 243.245 57.3304L233.583 52.9541L225.482 57.9937C225.965 58.412 226.486 58.7851 227.037 59.1083Z" fill="#8B5703"/>
<path d="M218.864 53.9375L218.721 54.248L248.123 67.8223L248.266 67.5117L218.864 53.9375Z" fill="#A37010"/>
<path d="M219.248 47.8955L219.105 48.2061L248.507 61.7803L248.649 61.4697L219.248 47.8955Z" fill="#A37010"/>
<path d="M219.621 41.8476L219.478 42.1582L248.88 55.7324L249.023 55.4219L219.621 41.8476Z" fill="#A37010"/>
<path d="M219.999 35.8008L219.857 36.1113L249.259 49.6856L249.401 49.375L219.999 35.8008Z" fill="#A37010"/>
<path d="M220.373 29.7588L220.23 30.0693L249.632 43.6436L249.774 43.333L220.373 29.7588Z" fill="#A37010"/>
<path d="M220.751 23.7158L220.609 24.0264L250.011 37.6006L250.153 37.29L220.751 23.7158Z" fill="#A37010"/>
<path d="M221.124 17.6738L220.982 17.9844L250.384 31.5586L250.526 31.248L221.124 17.6738Z" fill="#A37010"/>
<path opacity="0.5" d="M229.176 32.8095C232.674 34.054 242.172 37.4593 247.948 39.5381C246.823 35.5789 244.252 32.4402 240.618 31.0726C240.522 31.0316 236.936 29.835 236.936 29.835L235.967 30.9496C233.558 30.7696 231.16 31.4263 229.176 32.8095Z" fill="white"/>
<path d="M243.717 48.8742C246.493 40.5389 243.248 31.941 236.469 29.6701C229.689 27.3993 221.943 32.3155 219.167 40.6508C216.391 48.9861 219.636 57.584 226.415 59.8549C233.195 62.1257 240.941 57.2095 243.717 48.8742Z" fill="#FAE278"/>
<path opacity="0.5" d="M219.008 27.8828L236.669 65.1641L242.28 62.4911L224.619 25.2098L219.008 27.8828Z" fill="white"/>
<path opacity="0.5" d="M227.181 21.7275L244.841 59.0088L247.379 57.7999L229.718 20.5186L227.181 21.7275Z" fill="white"/>
<path opacity="0.5" d="M212.394 29.6787L230.054 66.96L231.009 66.5052L213.348 29.2239L212.394 29.6787Z" fill="white"/>
<path d="M229.868 58.8206C228.871 58.8242 227.88 58.6625 226.936 58.3419C220.977 56.3452 218.16 48.632 220.649 41.1512C221.749 37.6721 223.985 34.6658 226.997 32.6174C229.895 30.7301 233.086 30.2241 235.978 31.1951C238.869 32.1661 241.119 34.491 242.305 37.7459C243.485 41.1985 243.471 44.9493 242.264 48.3926C240.171 54.6699 234.996 58.8206 229.868 58.8206ZM220.813 41.2059L220.977 41.2606C218.542 48.5636 221.263 56.0854 227.045 58.0205C232.827 59.9557 239.503 55.5862 241.937 48.2832C243.122 44.9139 243.139 41.2422 241.985 37.8621C240.832 34.7098 238.664 32.4533 235.848 31.5165C233.032 30.5797 229.97 31.0789 227.161 32.8841C224.214 34.8899 222.028 37.8339 220.956 41.2401L220.813 41.2059Z" fill="#A37010"/>
<path d="M217.159 45.7467C217.241 45.5621 217.418 45.0971 217.493 44.9193C217.635 44.5431 217.917 44.2369 218.28 44.0658C218.643 43.8947 219.058 43.8722 219.437 44.003L222.614 45.4321C222.672 45.4567 222.724 45.4925 222.768 45.5376C222.812 45.5827 222.846 45.6362 222.869 45.6948C222.892 45.7534 222.903 45.8161 222.901 45.879C222.9 45.9419 222.886 46.0039 222.86 46.0612C222.81 46.175 222.718 46.265 222.604 46.3122C222.489 46.3594 222.361 46.3601 222.246 46.3142L218.973 45.0082H219.034C218.953 44.9894 218.868 44.9957 218.79 45.0262C218.712 45.0567 218.645 45.11 218.598 45.1791C218.482 45.4116 218.339 45.8629 218.243 46.1365C218.216 46.2101 218.175 46.2776 218.121 46.3352C218.068 46.3927 218.004 46.4392 217.933 46.4719C217.861 46.5046 217.784 46.5229 217.706 46.5257C217.628 46.5286 217.55 46.516 217.476 46.4886C217.403 46.4612 217.336 46.4196 217.278 46.3661C217.221 46.3126 217.175 46.2483 217.142 46.1769C217.109 46.1055 217.091 46.0283 217.088 45.9498C217.085 45.8713 217.098 45.793 217.125 45.7193L217.159 45.7467Z" fill="#FFBB96"/>
<path d="M216.676 46.8341L216.901 46.2871C216.952 46.0612 217.048 45.848 217.184 45.6608C217.319 45.4735 217.492 45.3161 217.691 45.1982C217.889 45.0804 218.11 45.0045 218.339 44.9754C218.568 44.9463 218.8 44.9645 219.022 45.0289H219.063L222.275 46.4717C222.408 46.5288 222.514 46.6369 222.568 46.7722C222.623 46.9075 222.621 47.0589 222.564 47.1931C222.507 47.3273 222.4 47.4333 222.265 47.4878C222.13 47.5423 221.979 47.5408 221.845 47.4837L218.572 46.1845H218.647C218.562 46.1659 218.473 46.1812 218.399 46.2271C218.326 46.2731 218.273 46.3461 218.252 46.4307C218.183 46.6084 218.02 47.1145 217.958 47.2649C217.927 47.3493 217.879 47.4267 217.818 47.4926C217.757 47.5586 217.684 47.6118 217.602 47.6493C217.52 47.6868 217.432 47.7077 217.342 47.711C217.252 47.7143 217.163 47.6998 217.079 47.6683C216.995 47.6369 216.917 47.5892 216.852 47.5278C216.786 47.4665 216.733 47.3927 216.695 47.3108C216.658 47.2289 216.637 47.1404 216.634 47.0504C216.631 46.9604 216.645 46.8706 216.676 46.7862V46.8341Z" fill="#FFBB96"/>
<path d="M220.202 45.8703C220.173 45.8792 220.142 45.8792 220.113 45.8703C219.48 45.4702 218.791 45.1682 218.068 44.9745C217.659 44.9198 217.386 45.1933 217.243 45.754C217.238 45.7759 217.229 45.7966 217.216 45.8148C217.203 45.8331 217.186 45.8484 217.167 45.8599C217.148 45.8715 217.127 45.8789 217.104 45.8819C217.082 45.8849 217.06 45.8832 217.038 45.8771C217.016 45.8724 216.996 45.8632 216.978 45.8501C216.959 45.837 216.944 45.8204 216.933 45.8012C216.921 45.7819 216.914 45.7606 216.911 45.7383C216.908 45.7161 216.909 45.6935 216.916 45.672C217.1 44.9403 217.529 44.5711 218.109 44.6326C218.885 44.8287 219.624 45.1497 220.298 45.5831C220.336 45.6059 220.364 45.6431 220.376 45.6867C220.387 45.7302 220.381 45.7765 220.359 45.8156C220.34 45.8373 220.315 45.8538 220.288 45.8634C220.26 45.8729 220.231 45.8753 220.202 45.8703Z" fill="#C97125"/>
<path d="M216.286 47.7574L216.511 47.2104C216.561 46.9878 216.655 46.7776 216.788 46.5927C216.922 46.4077 217.091 46.2517 217.286 46.1341C217.481 46.0165 217.698 45.9398 217.923 45.9085C218.148 45.8772 218.378 45.8921 218.597 45.9522L218.713 46L221.297 47.436C221.415 47.5104 221.5 47.6263 221.536 47.7607C221.572 47.8952 221.556 48.0382 221.492 48.1615C221.427 48.2848 221.319 48.3792 221.188 48.4259C221.057 48.4727 220.914 48.4684 220.786 48.4139L218.134 47.1078L218.256 47.1557C218.17 47.135 218.08 47.1494 218.005 47.1955C217.929 47.2416 217.875 47.3158 217.854 47.4018C217.793 47.5796 217.629 48.0856 217.561 48.2361C217.533 48.325 217.488 48.4073 217.428 48.478C217.367 48.5488 217.293 48.6064 217.21 48.6474C217.126 48.6883 217.036 48.7118 216.943 48.7164C216.85 48.7209 216.758 48.7064 216.671 48.6738C216.584 48.6412 216.504 48.5911 216.437 48.5266C216.37 48.4621 216.317 48.3846 216.281 48.2988C216.245 48.213 216.227 48.1207 216.228 48.0276C216.229 47.9345 216.248 47.8426 216.286 47.7574Z" fill="#FFBB96"/>
<path d="M215.802 49.2412L216.02 48.6942C216.071 48.4722 216.166 48.2628 216.299 48.0786C216.433 47.8944 216.602 47.7391 216.797 47.6223C216.992 47.5054 217.208 47.4292 217.433 47.3984C217.658 47.3675 217.887 47.3827 218.106 47.4428C218.133 47.4389 218.161 47.4389 218.188 47.4428L220.418 48.5164C220.551 48.5753 220.655 48.6848 220.707 48.8207C220.76 48.9567 220.756 49.1079 220.697 49.2412C220.639 49.3745 220.529 49.4789 220.394 49.5315C220.258 49.5841 220.108 49.5805 219.975 49.5216L217.684 48.5779H217.772C217.685 48.5592 217.593 48.575 217.517 48.6221C217.441 48.6693 217.386 48.7441 217.363 48.8309L217.077 49.672C217.045 49.756 216.997 49.8328 216.936 49.8982C216.874 49.9636 216.8 50.0162 216.719 50.053C216.637 50.0898 216.549 50.1102 216.459 50.1128C216.37 50.1155 216.281 50.1005 216.197 50.0686C216.113 50.0367 216.037 49.9886 215.972 49.927C215.906 49.8655 215.854 49.7916 215.817 49.7097C215.78 49.6278 215.76 49.5394 215.758 49.4497C215.755 49.3599 215.77 49.2705 215.802 49.1865V49.2412Z" fill="#FFBB96"/>
<path d="M248.754 48.7827L247.602 46.7313C247.273 46.0844 246.89 45.4668 246.456 44.885C245.672 43.9003 243.592 43.9003 242.461 43.6678C242.338 43.6494 242.228 43.5841 242.152 43.4856C242.077 43.387 242.043 43.263 242.057 43.1397C242.071 43.0165 242.133 42.9035 242.228 42.8247C242.324 42.7459 242.446 42.7074 242.57 42.7174L244.895 42.8952C245.57 42.9445 246.224 43.1568 246.799 43.514C247.375 43.8711 247.856 44.3626 248.202 44.9466L250.2 47.839C250.321 48.0313 250.361 48.2639 250.311 48.4857C250.261 48.7076 250.125 48.9005 249.934 49.022C249.742 49.1435 249.51 49.1837 249.289 49.1337C249.068 49.0836 248.875 48.9475 248.754 48.7553V48.7827Z" fill="#FFBB96"/>
<path d="M248.373 50.2535C247.63 49.1252 246.573 47.3473 245.802 46.2669C245.032 45.1865 242.952 45.207 241.711 44.9472C241.585 44.9318 241.471 44.8669 241.393 44.7669C241.315 44.6669 241.28 44.5399 241.295 44.4138C241.31 44.2878 241.375 44.173 241.475 44.0948C241.575 44.0166 241.701 43.9813 241.827 43.9967L244.234 44.1813C244.827 44.2291 245.403 44.4062 245.922 44.7003C246.44 44.9944 246.888 45.3983 247.234 45.884C247.916 46.7593 249.109 48.3867 249.784 49.303C249.848 49.3955 249.893 49.4997 249.917 49.6097C249.941 49.7198 249.943 49.8334 249.923 49.9442C249.903 50.055 249.862 50.1608 249.801 50.2555C249.74 50.3502 249.662 50.432 249.569 50.4962C249.477 50.5604 249.373 50.6058 249.264 50.6297C249.154 50.6536 249.041 50.6556 248.93 50.6356C248.82 50.6156 248.714 50.574 248.62 50.5131C248.525 50.4523 248.444 50.3733 248.38 50.2808L248.373 50.2535Z" fill="#FFBB96"/>
<path d="M247.508 51.0667C246.996 50.2598 246.09 48.8033 245.585 48.0101C245.416 47.712 245.183 47.4557 244.902 47.2604C244.621 47.0651 244.3 46.9357 243.962 46.8819L241.917 46.5468C241.791 46.5314 241.676 46.4665 241.598 46.3665C241.52 46.2665 241.485 46.1395 241.501 46.0134C241.516 45.8874 241.581 45.7726 241.68 45.6944C241.78 45.6162 241.907 45.5809 242.032 45.5963L244.078 45.7399C244.597 45.7819 245.1 45.9356 245.555 46.1905C246.009 46.4454 246.403 46.7955 246.71 47.2169C247.276 47.9623 248.319 49.3367 248.899 50.0889C248.963 50.1814 249.008 50.2856 249.032 50.3956C249.056 50.5056 249.058 50.6193 249.038 50.7301C249.018 50.8409 248.976 50.9467 248.916 51.0414C248.855 51.1361 248.776 51.2179 248.684 51.2821C248.592 51.3463 248.488 51.3917 248.378 51.4156C248.268 51.4395 248.155 51.4415 248.045 51.4215C247.934 51.4015 247.829 51.3599 247.734 51.299C247.64 51.2381 247.558 51.1592 247.494 51.0667H247.508Z" fill="#FFBB96"/>
<path d="M246.539 51.7099C246.143 51.0261 245.427 49.891 245.039 49.2483C244.916 49.0237 244.744 48.8296 244.537 48.6805C244.329 48.5313 244.09 48.4309 243.839 48.3867L242.223 48.0995C242.1 48.0811 241.99 48.0157 241.915 47.9172C241.839 47.8187 241.805 47.6947 241.819 47.5714C241.833 47.4481 241.895 47.3351 241.99 47.2563C242.086 47.1775 242.208 47.139 242.332 47.149C243.464 47.2242 244.984 47.149 245.83 48.0721C246.512 48.8038 247.316 49.9594 247.943 50.7321C248.008 50.8246 248.053 50.9288 248.077 51.0389C248.1 51.1489 248.102 51.2625 248.083 51.3733C248.063 51.4841 248.021 51.5899 247.96 51.6846C247.9 51.7793 247.821 51.8611 247.729 51.9253C247.636 51.9895 247.533 52.0349 247.423 52.0588C247.313 52.0828 247.2 52.0848 247.089 52.0648C246.979 52.0448 246.873 52.0031 246.779 51.9423C246.684 51.8814 246.603 51.8024 246.539 51.7099Z" fill="#FFBB96"/>
<path d="M246.032 52.3245L245.602 50.1159L246.966 48.9944C247.927 48.0781 248.548 46.102 248.602 44.7686L248.923 45.0831C249.286 45.4352 249.596 45.8383 249.843 46.2797C250.457 47.3807 251.446 51.5518 251.446 51.5518C251.412 52.5844 248.261 52.8716 246.85 52.9194C246.665 52.9358 246.48 52.8846 246.33 52.7753C246.18 52.666 246.074 52.5059 246.032 52.3245Z" fill="#FFBB96"/>
<path d="M247.23 53.1522C247.114 53.1522 246.091 53.1522 245.832 52.5231C245.616 51.7947 245.463 51.0488 245.375 50.2939C245.327 50.0204 245.287 49.7332 245.266 49.6648C245.251 49.6317 245.247 49.5946 245.254 49.5589C245.262 49.5232 245.28 49.4909 245.307 49.4665C245.34 49.4347 245.384 49.417 245.43 49.417C245.476 49.417 245.519 49.4347 245.553 49.4665C245.6 49.5212 245.607 49.5485 245.709 50.2255C245.801 50.9535 245.947 51.6735 246.146 52.3795C246.296 52.7214 246.998 52.7966 247.23 52.7966C247.275 52.7966 247.318 52.8146 247.35 52.8467C247.382 52.8787 247.4 52.9222 247.4 52.9675C247.4 53.0129 247.382 53.0564 247.35 53.0884C247.318 53.1205 247.275 53.1385 247.23 53.1385V53.1522Z" fill="#C97125"/>
<path d="M246.992 49.3504C246.965 49.3504 246.939 49.3442 246.915 49.3323C246.892 49.3205 246.871 49.3032 246.855 49.282C245.444 47.4152 244.23 47.4289 244.21 47.4426C244.164 47.4426 244.121 47.4246 244.089 47.3925C244.057 47.3605 244.039 47.317 244.039 47.2716C244.039 47.2263 244.057 47.1828 244.089 47.1508C244.121 47.1187 244.164 47.1007 244.21 47.1007C244.271 47.1007 245.621 47.0528 247.148 49.0769C247.162 49.0948 247.172 49.1153 247.177 49.137C247.183 49.1588 247.184 49.1814 247.181 49.2036C247.178 49.2258 247.17 49.2472 247.159 49.2665C247.147 49.2858 247.132 49.3027 247.114 49.3162C247.079 49.3419 247.035 49.354 246.992 49.3504Z" fill="#C97125"/>
<path d="M247.557 47.9968C247.531 47.9963 247.505 47.9899 247.481 47.9781C247.458 47.9663 247.437 47.9493 247.421 47.9285C246.009 46.0617 244.789 46.0754 244.768 46.0822C244.746 46.0841 244.723 46.0813 244.701 46.0739C244.68 46.0665 244.66 46.0547 244.644 46.0392C244.627 46.0238 244.614 46.0051 244.605 45.9842C244.596 45.9634 244.591 45.9408 244.591 45.9181C244.59 45.8956 244.594 45.8732 244.601 45.8521C244.609 45.831 244.621 45.8117 244.636 45.7952C244.651 45.7787 244.67 45.7653 244.69 45.7559C244.71 45.7465 244.732 45.7412 244.755 45.7403C244.809 45.7403 246.159 45.6993 247.693 47.7233C247.725 47.7553 247.742 47.7982 247.742 47.843C247.742 47.8877 247.725 47.9307 247.693 47.9626C247.653 47.9898 247.605 48.002 247.557 47.9968Z" fill="#C97125"/>
<path d="M248.21 46.7176C248.184 46.7162 248.158 46.7094 248.135 46.6976C248.111 46.6859 248.09 46.6694 248.074 46.6492C246.662 44.7756 245.442 44.7893 245.428 44.8029C245.406 44.8039 245.383 44.8003 245.362 44.7926C245.341 44.7848 245.322 44.773 245.305 44.7577C245.289 44.7425 245.276 44.7241 245.266 44.7037C245.257 44.6833 245.252 44.6613 245.251 44.6388C245.249 44.5946 245.264 44.5513 245.293 44.5182C245.323 44.485 245.364 44.4645 245.408 44.461C245.469 44.461 246.819 44.4132 248.346 46.4372C248.378 46.4692 248.395 46.5121 248.395 46.5569C248.395 46.6016 248.378 46.6446 248.346 46.6765C248.328 46.6928 248.306 46.7049 248.283 46.712C248.259 46.7191 248.234 46.721 248.21 46.7176Z" fill="#C97125"/>
<path d="M250.326 47.7301C250.291 47.7292 250.257 47.7175 250.229 47.6967C250.201 47.6759 250.18 47.647 250.169 47.6139C249.835 46.513 248.662 45.4736 248.123 44.9676C247.83 44.7077 247.762 44.6462 247.741 44.5573C247.733 44.5129 247.743 44.4671 247.769 44.43C247.794 44.3928 247.833 44.3673 247.878 44.359C247.915 44.3512 247.953 44.3564 247.987 44.3739C248.02 44.3913 248.047 44.4199 248.062 44.4547L248.348 44.7146C248.935 45.2343 250.155 46.3215 250.51 47.5113C250.523 47.5539 250.518 47.5999 250.498 47.6395C250.478 47.6791 250.443 47.7092 250.401 47.7233L250.326 47.7301Z" fill="#C97125"/>
<path d="M216.663 50.1233C216.632 50.1301 216.599 50.1301 216.568 50.1233C216.531 50.097 216.505 50.0576 216.496 50.0131C216.487 49.9686 216.496 49.9224 216.52 49.8839C216.574 49.8019 217.406 48.7488 217.577 48.5163C217.601 48.4875 217.634 48.4674 217.671 48.4588C217.708 48.4501 217.747 48.4535 217.781 48.4685C218.564 48.8418 219.385 49.1284 220.229 49.3232C220.254 49.3232 220.278 49.3285 220.3 49.3387C220.322 49.3488 220.342 49.3637 220.358 49.3822C220.374 49.4007 220.386 49.4224 220.393 49.4459C220.4 49.4694 220.401 49.4941 220.398 49.5183C220.394 49.5426 220.386 49.5658 220.373 49.5864C220.359 49.607 220.342 49.6246 220.321 49.6379C220.301 49.6511 220.278 49.6598 220.254 49.6633C220.229 49.6669 220.205 49.6651 220.181 49.6583C219.345 49.4808 218.533 49.2054 217.761 48.8377C217.379 49.3164 216.847 49.9933 216.806 50.0549C216.789 50.0766 216.767 50.0942 216.743 50.106C216.718 50.1179 216.691 50.1238 216.663 50.1233Z" fill="#C97125"/>
<path d="M215.797 48.79C215.755 48.7901 215.714 48.7756 215.682 48.749C215.65 48.717 215.633 48.6741 215.633 48.6293C215.633 48.5846 215.65 48.5416 215.682 48.5097C215.811 48.3592 216.909 47.0737 217.727 47.1968C218.294 47.3122 218.83 47.5451 219.302 47.8806C219.32 47.8929 219.336 47.9088 219.348 47.9272C219.36 47.9457 219.368 47.9664 219.372 47.9881C219.376 48.0098 219.375 48.032 219.37 48.0535C219.365 48.075 219.356 48.0952 219.343 48.1131C219.317 48.1501 219.278 48.1756 219.233 48.1845C219.189 48.1934 219.143 48.185 219.104 48.1609C218.674 47.8686 218.189 47.6662 217.679 47.566C217.107 47.484 216.22 48.4003 215.92 48.7558C215.885 48.7827 215.841 48.795 215.797 48.79Z" fill="#C97125"/>
<path d="M216.479 47.1353C216.456 47.1354 216.433 47.1307 216.413 47.1216C216.392 47.1126 216.373 47.0992 216.358 47.0825C216.342 47.0658 216.331 47.0461 216.323 47.0245C216.316 47.003 216.313 46.9802 216.315 46.9575C216.331 46.4704 216.52 46.005 216.847 45.6446C216.948 45.5566 217.066 45.4914 217.194 45.4537C217.323 45.4159 217.458 45.4064 217.59 45.4258C218.368 45.6228 219.109 45.9438 219.786 46.3763C219.816 46.4029 219.837 46.4396 219.843 46.4798C219.849 46.5201 219.841 46.5613 219.819 46.5959C219.798 46.6306 219.765 46.6564 219.726 46.6688C219.688 46.6812 219.646 46.6793 219.608 46.6635C218.975 46.263 218.286 45.9609 217.563 45.7677C217.478 45.7541 217.391 45.7593 217.309 45.7829C217.226 45.8066 217.15 45.8481 217.085 45.9045C216.831 46.2059 216.685 46.5837 216.669 46.978C216.664 47.024 216.641 47.0662 216.606 47.0955C216.57 47.1249 216.525 47.1392 216.479 47.1353Z" fill="#C97125"/>
<path d="M217.243 52.722C216.946 52.7192 216.652 52.6588 216.377 52.5442C216.336 52.5252 216.303 52.4904 216.287 52.4474C216.271 52.4044 216.273 52.3569 216.292 52.3152C216.311 52.2735 216.346 52.241 216.389 52.225C216.431 52.209 216.479 52.2107 216.52 52.2297C216.752 52.336 217.007 52.3835 217.261 52.368C217.516 52.3525 217.762 52.2745 217.98 52.1408C218.423 51.7852 218.109 50.9852 217.98 50.6433C217.918 50.4928 217.898 50.445 217.925 50.3698C217.939 50.3275 217.969 50.2924 218.009 50.272C218.048 50.2515 218.094 50.2474 218.136 50.2603C218.169 50.2703 218.198 50.2901 218.218 50.317C218.239 50.344 218.251 50.3767 218.252 50.4108C218.262 50.4463 218.276 50.4807 218.293 50.5134C218.443 50.8894 218.839 51.881 218.191 52.4075C217.92 52.6183 217.586 52.7293 217.243 52.722Z" fill="#C97125"/>
<path d="M136.538 156.037C136.497 156.036 136.458 156.021 136.427 155.995C136.396 155.969 136.375 155.933 136.367 155.893C136.094 154.163 135.051 154.122 135.003 154.122C134.958 154.122 134.915 154.104 134.883 154.072C134.851 154.04 134.833 153.997 134.833 153.951C134.833 153.906 134.851 153.862 134.883 153.83C134.915 153.798 134.958 153.78 135.003 153.78C135.058 153.78 136.367 153.78 136.701 155.832C136.707 155.877 136.696 155.923 136.669 155.959C136.643 155.996 136.603 156.022 136.558 156.03L136.538 156.037Z" fill="#1A1D30"/>
<path d="M138.419 156.037C138.379 156.036 138.34 156.021 138.309 155.995C138.278 155.969 138.256 155.933 138.249 155.893C137.976 154.163 136.933 154.122 136.885 154.122C136.862 154.123 136.84 154.119 136.819 154.111C136.799 154.103 136.78 154.09 136.764 154.074C136.749 154.058 136.737 154.038 136.729 154.017C136.722 153.996 136.719 153.974 136.721 153.951C136.721 153.907 136.738 153.865 136.769 153.833C136.799 153.801 136.841 153.782 136.885 153.78C136.946 153.78 138.249 153.78 138.583 155.832C138.591 155.876 138.581 155.922 138.555 155.959C138.53 155.996 138.491 156.022 138.446 156.03L138.419 156.037Z" fill="#1A1D30"/>
<path d="M252.514 185.543H252.48C252.436 185.533 252.398 185.507 252.373 185.47C252.348 185.433 252.337 185.388 252.343 185.344C252.343 185.132 252.991 184.298 254.484 182.294C255.364 181.118 256.271 179.901 256.796 179.115C256.809 179.096 256.825 179.081 256.844 179.069C256.863 179.056 256.884 179.048 256.907 179.044C256.929 179.041 256.951 179.041 256.973 179.046C256.995 179.051 257.016 179.061 257.034 179.074C257.054 179.086 257.071 179.101 257.084 179.12C257.098 179.139 257.107 179.16 257.111 179.183C257.116 179.205 257.116 179.229 257.111 179.251C257.106 179.274 257.096 179.295 257.082 179.313C256.543 180.1 255.637 181.317 254.757 182.5C253.877 183.683 252.745 185.201 252.677 185.406C252.671 185.444 252.651 185.479 252.621 185.505C252.591 185.53 252.553 185.543 252.514 185.543Z" fill="#1A1D30"/>
<path d="M250.571 183.649H250.503C250.482 183.64 250.463 183.627 250.448 183.611C250.432 183.595 250.42 183.576 250.412 183.555C250.403 183.534 250.399 183.511 250.4 183.489C250.4 183.466 250.405 183.444 250.414 183.423C251.053 182.035 252.19 180.939 253.598 180.353C255.173 179.745 255.835 180.627 255.862 180.661C255.875 180.679 255.885 180.7 255.89 180.722C255.895 180.744 255.895 180.767 255.891 180.789C255.888 180.811 255.879 180.833 255.867 180.852C255.855 180.871 255.84 180.887 255.821 180.9C255.803 180.913 255.782 180.923 255.76 180.928C255.738 180.933 255.716 180.933 255.693 180.93C255.671 180.926 255.65 180.918 255.631 180.906C255.612 180.893 255.595 180.878 255.583 180.859C255.583 180.859 255.044 180.175 253.721 180.668C252.397 181.222 251.329 182.254 250.728 183.56C250.712 183.588 250.689 183.611 250.661 183.626C250.634 183.642 250.603 183.65 250.571 183.649Z" fill="#1A1D30"/>
<path d="M251.394 184.791H251.319C251.279 184.771 251.247 184.737 251.232 184.695C251.217 184.652 251.219 184.606 251.237 184.565C251.873 183.174 253.011 182.077 254.422 181.495C254.705 181.382 255.004 181.315 255.308 181.296C255.33 181.295 255.353 181.297 255.374 181.304C255.396 181.311 255.416 181.322 255.433 181.337C255.45 181.351 255.464 181.369 255.474 181.389C255.484 181.409 255.49 181.431 255.492 181.454C255.494 181.5 255.478 181.545 255.447 181.579C255.417 181.614 255.374 181.635 255.328 181.638C255.059 181.654 254.794 181.714 254.544 181.816C253.215 182.362 252.144 183.397 251.551 184.709C251.534 184.734 251.51 184.755 251.483 184.77C251.456 184.784 251.425 184.791 251.394 184.791Z" fill="#1A1D30"/>
<path d="M243.646 133.301C243.598 133.205 243.544 133.075 243.482 132.917C243.544 133.042 243.599 133.17 243.646 133.301Z" fill="#1A1D30"/>
<path opacity="0.5" d="M246.176 181.201C245.95 181.81 245.855 182.46 245.896 183.108C245.921 183.47 245.985 183.828 246.087 184.175L227.841 141.438L219.304 140.166L149.972 160.905C151.008 160.187 151.336 157.746 151.042 155.332C154.581 154.491 217.565 134.299 217.565 134.299C219.117 134.85 220.714 135.266 222.338 135.543C223.355 135.732 224.386 135.831 225.42 135.837C225.938 135.837 226.415 135.837 226.831 135.837C227.398 135.811 227.962 135.754 228.522 135.666L228.672 136.049L246.114 181.221L246.176 181.201Z" fill="#8A2121"/>
<path d="M309.301 220.075V226.386C309.301 226.651 309.196 226.905 309.009 227.092C308.822 227.279 308.569 227.384 308.305 227.384H284.215C284.14 227.395 284.065 227.395 283.99 227.384C283.769 227.336 283.572 227.213 283.43 227.036C283.289 226.86 283.212 226.64 283.213 226.413V220.075C283.213 219.943 283.238 219.812 283.289 219.69C283.339 219.568 283.413 219.457 283.506 219.364C283.599 219.27 283.71 219.196 283.831 219.146C283.953 219.095 284.083 219.069 284.215 219.069H308.305C308.464 219.07 308.621 219.109 308.762 219.182C308.903 219.256 309.025 219.363 309.117 219.493C309.238 219.663 309.302 219.866 309.301 220.075Z" fill="#FACA32"/>
<path d="M306.681 227.384H306.34L306.354 219.069H306.695L306.681 227.384Z" fill="#A37010"/>
<path d="M301.51 227.384H301.169L301.183 219.069H301.524L301.51 227.384Z" fill="#A37010"/>
<path d="M296.345 227.384H296.004L296.018 219.069H296.359L296.345 227.384Z" fill="#A37010"/>
<path d="M291.174 227.384H290.833L290.847 219.069H291.188L291.174 227.384Z" fill="#A37010"/>
<path d="M286.014 227.384H285.673L285.68 219.069H286.021L286.014 227.384Z" fill="#A37010"/>
<path d="M316.034 228.39V234.695C316.034 234.959 315.93 235.213 315.743 235.401C315.556 235.588 315.303 235.693 315.039 235.693H290.949C290.684 235.693 290.43 235.588 290.242 235.401C290.054 235.214 289.948 234.96 289.946 234.695V228.39C289.946 228.123 290.052 227.868 290.24 227.679C290.428 227.491 290.683 227.385 290.949 227.385H315.039C315.17 227.385 315.3 227.411 315.421 227.461C315.543 227.512 315.653 227.586 315.745 227.68C315.838 227.773 315.911 227.884 315.961 228.006C316.01 228.128 316.035 228.258 316.034 228.39Z" fill="#FACA32"/>
<path d="M313.62 235.693H313.279L313.293 227.385H313.634L313.62 235.693Z" fill="#A37010"/>
<path d="M308.444 235.693H308.103L308.117 227.385H308.458L308.444 235.693Z" fill="#A37010"/>
<path d="M303.279 235.693H302.938L302.951 227.385H303.292L303.279 235.693Z" fill="#A37010"/>
<path d="M298.108 235.693H297.767L297.781 227.385H298.122L298.108 235.693Z" fill="#A37010"/>
<path d="M292.948 235.693H292.607L292.614 227.385H292.955L292.948 235.693Z" fill="#A37010"/>
<path d="M303.766 227.385C301.175 227.809 298.571 228.458 296.818 229.47C292.843 231.741 290.757 234.305 290.129 235.296C289.997 235.123 289.926 234.912 289.925 234.695V228.39C289.925 228.123 290.03 227.868 290.218 227.679C290.406 227.491 290.661 227.385 290.927 227.385H303.766Z" fill="#1A1D30"/>
<path d="M311.944 235.692H287.86C287.307 235.692 286.858 236.142 286.858 236.698V242.995C286.858 243.551 287.307 244.001 287.86 244.001H311.944C312.497 244.001 312.946 243.551 312.946 242.995V236.698C312.946 236.142 312.497 235.692 311.944 235.692Z" fill="#FACA32"/>
<path d="M310.402 244.001H310.061L310.075 235.692H310.416L310.402 244.001Z" fill="#A37010"/>
<path d="M305.242 244.001H304.901L304.908 235.692H305.249L305.242 244.001Z" fill="#A37010"/>
<path d="M300.072 244.001H299.731L299.737 235.692H300.078L300.072 244.001Z" fill="#A37010"/>
<path d="M294.906 244.001H294.565L294.572 235.692H294.913L294.906 244.001Z" fill="#A37010"/>
<path d="M289.736 244.001H289.395L289.408 235.692H289.749L289.736 244.001Z" fill="#A37010"/>
<path d="M312.957 236.698V240.117C311.56 239.409 310.113 238.806 308.627 238.311C303.936 236.836 299.076 235.962 294.165 235.713H311.948C312.212 235.711 312.465 235.813 312.654 235.998C312.843 236.182 312.952 236.433 312.957 236.698Z" fill="#1A1D30"/>
<path opacity="0.5" d="M304.702 219.069H299.179V227.384H304.702V219.069Z" fill="white"/>
<path opacity="0.5" d="M314.811 227.385H309.472V235.7H314.811V227.385Z" fill="white"/>
<path opacity="0.5" d="M294.166 235.692H288.827V244.007H294.166V235.692Z" fill="white"/>
<path d="M165.982 88.7852L161.632 92.888C158.904 95.4317 154.745 95.7804 150.545 94.2556C147.635 93.1282 145.02 91.3483 142.901 89.0518C139.199 85.1132 137.33 80.3197 137.535 76.258C137.581 73.94 138.527 71.7316 140.174 70.1038L144.517 66.001L146.242 67.8336L147.081 68.7225L161.823 84.4088L164.257 87.0004L165.982 88.7852Z" fill="#FACA32"/>
<path d="M165.885 90.0041L142.724 112.038L142.959 112.286L166.12 90.2522L165.885 90.0041Z" fill="#A37010"/>
<path d="M163.619 84.4817L140.458 106.516L140.692 106.764L163.854 84.7297L163.619 84.4817Z" fill="#A37010"/>
<path d="M161.353 78.9582L138.192 100.992L138.426 101.24L161.587 79.2063L161.353 78.9582Z" fill="#A37010"/>
<path d="M159.094 73.4317L135.936 95.4697L136.171 95.7177L159.328 73.6797L159.094 73.4317Z" fill="#A37010"/>
<path d="M156.827 67.9024L133.67 89.9404L133.905 90.1884L157.062 68.1504L156.827 67.9024Z" fill="#A37010"/>
<path d="M154.561 62.3809L131.404 84.4189L131.638 84.667L154.796 62.6289L154.561 62.3809Z" fill="#A37010"/>
<path d="M152.299 56.8645L129.137 78.8984L129.372 79.1465L152.533 57.1125L152.299 56.8645Z" fill="#A37010"/>
<path opacity="0.5" d="M165.986 88.7855L161.636 92.8883C158.909 95.432 154.749 95.7808 150.549 94.2559L161.827 84.375L164.261 86.9666L165.986 88.7855Z" fill="#8B5703"/>
<path opacity="0.5" d="M147.087 68.6815C145.567 69.967 140.746 73.7416 137.541 76.2511C137.587 73.9331 138.534 71.7247 140.18 70.0969L144.524 65.9941L146.249 67.8267L147.087 68.6815Z" fill="white"/>
<path d="M165.979 88.7999C170.397 84.6248 169.175 76.1291 163.251 69.8241C157.326 63.5192 148.942 61.7926 144.524 65.9677C140.106 70.1428 141.327 78.6385 147.252 84.9434C153.177 91.2484 161.561 92.975 165.979 88.7999Z" fill="#FAE278"/>
<path opacity="0.5" d="M154.582 97.2574L161.937 57.2314L155.211 55.9886L147.857 96.0146L154.582 97.2574Z" fill="white"/>
<path opacity="0.5" d="M143.381 97.2271L150.735 57.2012L147.698 56.6399L140.343 96.6658L143.381 97.2271Z" fill="white"/>
<path opacity="0.5" d="M161.662 99.7925L169.016 59.7666L167.87 59.5547L160.516 99.5807L161.662 99.7925Z" fill="white"/>
<path d="M159.606 89.0652C156.108 89.0652 151.956 87.1369 148.649 83.5948C146.289 81.1865 144.676 78.144 144.005 74.8354C143.487 71.772 144.175 69.1667 145.948 67.4914C147.721 65.8161 150.34 65.2622 153.374 65.946C156.638 66.8068 159.583 68.6004 161.849 71.1087C166.977 76.5791 168.191 83.8068 164.577 87.2463C163.219 88.4774 161.436 89.1298 159.606 89.0652ZM150.885 66.0075C149.154 65.9459 147.467 66.5613 146.18 67.7239C144.496 69.3171 143.841 71.8267 144.339 74.7602C144.991 78.0147 146.574 81.0085 148.894 83.376C153.892 88.696 160.813 90.3303 164.318 87.0207C167.823 83.7111 166.602 76.6885 161.59 71.3685C159.371 68.907 156.485 67.1464 153.285 66.3016C152.499 66.1116 151.694 66.013 150.885 66.0075Z" fill="#A37010"/>
<path d="M117.268 161.753C116.986 162.238 116.66 162.696 116.293 163.121L116.6 163.846L113.873 165.897C110.634 168.167 106.297 168.14 102.41 166.191C100.209 165.072 98.2938 163.46 96.8124 161.48C94.8724 158.982 93.7293 155.955 93.5326 152.796C93.3485 149.206 94.5895 145.862 97.2215 143.742C97.2897 143.68 99.9149 141.691 99.9149 141.691L101.026 142.333C102.969 141.51 105.135 141.377 107.163 141.957C109.891 142.723 112.488 144.692 114.8 147.776C118.496 152.666 119.621 157.78 117.268 161.753Z" fill="#FACA32"/>
<path opacity="0.5" d="M116.289 163.114L116.596 163.839L113.869 165.89C110.63 168.161 106.293 168.133 102.407 166.185L109.164 159.846L117.264 161.726C116.983 162.218 116.657 162.683 116.289 163.114Z" fill="#8B5703"/>
<path d="M101.316 176.236L101.084 175.983L121.574 156.488L121.806 156.741L101.316 176.236Z" fill="#A37010"/>
<path d="M99.3158 171.347L99.0771 171.101L119.567 151.605L119.806 151.852L99.3158 171.347Z" fill="#A37010"/>
<path d="M97.3131 166.465L97.0813 166.212L117.564 146.717L117.803 146.97L97.3131 166.465Z" fill="#A37010"/>
<path d="M95.3065 161.575L95.0747 161.329L115.565 141.834L115.797 142.08L95.3065 161.575Z" fill="#A37010"/>
<path d="M93.2999 156.687L93.0681 156.44L113.558 136.945L113.79 137.191L93.2999 156.687Z" fill="#A37010"/>
<path d="M91.3002 151.804L91.0615 151.551L111.552 132.062L111.79 132.309L91.3002 151.804Z" fill="#A37010"/>
<path d="M89.2975 146.915L89.0657 146.669L109.556 127.174L109.787 127.42L89.2975 146.915Z" fill="#A37010"/>
<path opacity="0.5" d="M107.154 141.971C104.61 143.989 97.7167 149.493 93.5164 152.816C93.3323 149.226 94.5733 145.883 97.2053 143.763C97.2735 143.701 99.8986 141.711 99.8986 141.711L101.01 142.354C102.954 141.527 105.122 141.392 107.154 141.971Z" fill="white"/>
<path d="M116.988 163.543C121.952 159.758 122.225 151.742 117.598 145.64C112.971 139.537 105.195 137.659 100.231 141.445C95.2673 145.23 94.9943 153.246 99.6215 159.348C104.249 165.451 112.024 167.329 116.988 163.543Z" fill="#FAE278"/>
<path opacity="0.5" d="M108.779 134.398L104.633 170.166L110.018 170.794L114.164 135.026L108.779 134.398Z" fill="white"/>
<path opacity="0.5" d="M103.257 131.972L99.1111 167.74L101.543 168.024L105.688 132.256L103.257 131.972Z" fill="white"/>
<path opacity="0.5" d="M119.202 134.542L115.056 170.311L115.97 170.417L120.116 134.649L119.202 134.542Z" fill="white"/>
<path d="M110.973 164.139C107.352 164.139 103.418 162.143 100.684 158.539C98.7211 156.031 97.6593 152.933 97.6698 149.745C97.6157 148.358 97.8957 146.977 98.4859 145.721C99.0762 144.465 99.9594 143.369 101.061 142.528C102.162 141.686 103.45 141.123 104.814 140.885C106.179 140.648 107.58 140.743 108.9 141.164C111.965 142.008 114.658 143.863 116.544 146.429C120.71 151.899 120.539 159.1 116.169 162.437C114.671 163.563 112.845 164.162 110.973 164.139ZM106.261 141.164C104.456 141.141 102.694 141.718 101.25 142.805C100.213 143.636 99.3805 144.695 98.8155 145.899C98.2505 147.103 97.9682 148.421 97.9903 149.752C97.9818 152.864 99.0196 155.887 100.936 158.334C104.986 163.674 111.716 165.398 115.937 162.177C120.158 158.956 120.301 151.995 116.251 146.655C114.413 144.149 111.788 142.338 108.798 141.512C107.97 141.29 107.118 141.173 106.261 141.164Z" fill="#A37010"/>
<path d="M312.473 107.405L318.419 112.191C319.967 113.436 323.076 112.335 326.499 109.675C328.775 107.868 330.834 105.803 332.636 103.521C335.046 100.6 336.941 97.2886 338.241 93.7289C339.175 90.9185 339.148 88.703 337.927 87.7251L331.716 82.7334L328.668 86.6516L316.817 101.873L312.473 107.405Z" fill="#FACA32"/>
<path d="M306.655 105.953L306.445 106.223L333.923 127.752L334.133 127.483L306.655 105.953Z" fill="#A37010"/>
<path d="M335.823 121.526L308.344 99.9932L308.555 99.7266L336.034 121.259L335.823 121.526Z" fill="#A37010"/>
<path d="M337.705 115.282L310.226 93.7491L310.437 93.4824L337.916 115.015L337.705 115.282Z" fill="#A37010"/>
<path d="M339.586 109.04L312.113 87.5138L312.325 87.2402L339.797 108.773L339.586 109.04Z" fill="#A37010"/>
<path d="M341.475 102.797L313.996 81.2706L314.207 80.9971L341.686 102.53L341.475 102.797Z" fill="#A37010"/>
<path d="M343.361 96.5534L315.889 75.0274L316.1 74.7539L343.572 96.2867L343.361 96.5534Z" fill="#A37010"/>
<path d="M345.25 90.3103L317.771 68.7843L317.982 68.5107L345.461 90.0436L345.25 90.3103Z" fill="#A37010"/>
<path opacity="0.5" d="M312.473 107.405L318.419 112.192C319.967 113.436 323.076 112.335 326.499 109.675C323.656 107.412 319.892 104.396 316.79 101.907L312.473 107.405Z" fill="#8B5703"/>
<path opacity="0.5" d="M328.64 86.6516C330.924 88.3405 335.193 91.4382 338.186 93.6742C339.12 90.8638 339.093 88.6483 337.872 87.6704L331.715 82.7334L328.64 86.6516Z" fill="white"/>
<path d="M326.659 98.701C332.038 91.9365 334.411 84.8628 331.958 82.9014C329.506 80.9401 323.157 84.8339 317.778 91.5984C312.399 98.3629 310.026 105.437 312.479 107.398C314.932 109.359 321.28 105.466 326.659 98.701Z" fill="#FAE278"/>
<path opacity="0.5" d="M319.638 74.3384L320.573 115.027L325.399 114.916L324.464 74.2269L319.638 74.3384Z" fill="white"/>
<path opacity="0.5" d="M314.467 72.4409L315.402 113.13L317.583 113.079L316.649 72.3905L314.467 72.4409Z" fill="white"/>
<path opacity="0.5" d="M328.865 72.9165L329.8 113.605L330.625 113.586L329.69 72.8975L328.865 72.9165Z" fill="white"/>
<path d="M314.802 106.406C314.361 106.426 313.927 106.29 313.575 106.024C312.593 105.244 312.6 103.364 313.575 100.745C314.831 97.6952 316.534 94.8511 318.628 92.3066C320.636 89.6855 323.024 87.3806 325.712 85.4686C328.037 83.9163 329.858 83.4924 330.84 84.2719C331.822 85.0514 331.815 86.9319 330.84 89.5577C328.217 95.6354 324.028 100.903 318.703 104.82C317.141 105.873 315.805 106.406 314.802 106.406ZM318.894 92.5185C316.825 95.0394 315.138 97.8528 313.889 100.868C312.968 103.302 312.927 105.087 313.766 105.757C314.605 106.427 316.337 105.989 318.498 104.547C323.763 100.668 327.906 95.4581 330.506 89.4483C331.426 87.0139 331.474 85.2292 330.628 84.5523C329.783 83.8753 328.065 84.3266 325.896 85.7626C323.242 87.6556 320.882 89.9322 318.894 92.5185Z" fill="#A37010"/>
<path d="M302.722 147.469L297.949 151.79L297.799 151.913C297.219 152.454 297.683 154.026 298.904 156.146C300.603 158.926 302.58 161.526 304.802 163.907C306.481 165.763 308.286 167.502 310.202 169.111C312.82 171.272 314.975 172.448 315.868 172.092C315.951 172.068 316.026 172.024 316.086 171.962L316.216 171.846L321.044 167.395L321.153 167.306L305.531 150.566L302.722 147.469Z" fill="#FACA32"/>
<path d="M324.844 163.797L302.466 184.116L302.695 184.369L325.073 164.05L324.844 163.797Z" fill="#A37010"/>
<path d="M324.066 160.518L301.536 180.747L301.763 181.002L324.293 160.772L324.066 160.518Z" fill="#A37010"/>
<path d="M322.064 155.224L299.535 175.453L299.762 175.708L322.292 155.478L322.064 155.224Z" fill="#A37010"/>
<path d="M320.063 149.937L297.534 170.166L297.761 170.421L320.291 150.191L320.063 149.937Z" fill="#A37010"/>
<path d="M318.067 144.649L295.538 164.878L295.765 165.133L318.295 144.903L318.067 144.649Z" fill="#A37010"/>
<path d="M316.075 139.37L293.542 159.596L293.769 159.85L316.302 139.625L316.075 139.37Z" fill="#A37010"/>
<path d="M314.085 134.071L291.552 154.297L291.779 154.552L314.312 134.326L314.085 134.071Z" fill="#A37010"/>
<path opacity="0.5" d="M317.064 162.847C314.916 164.823 312.372 167.155 310.245 169.11C312.863 171.271 315.018 172.447 315.911 172.092C316.038 172.026 316.155 171.943 316.259 171.845L321.1 167.408L317.064 162.847Z" fill="#8B5703"/>
<path opacity="0.5" d="M302.722 147.469L297.949 151.79L297.799 151.913C297.219 152.454 297.683 154.026 298.904 156.146C301.154 154.259 303.881 151.954 305.559 150.539L302.722 147.469Z" fill="white"/>
<path d="M314.114 155.394C319.167 160.926 322.296 166.294 321.117 167.381C319.937 168.468 314.878 164.858 309.832 159.326C304.786 153.794 301.65 148.419 302.829 147.332C304.009 146.245 309.068 149.855 314.114 155.394Z" fill="#FAE278"/>
<path opacity="0.5" d="M315.519 174.943L310.706 139.977L307.903 140.365L312.716 175.331L315.519 174.943Z" fill="white"/>
<path opacity="0.5" d="M312.486 177.647L307.558 142.702L306.296 142.881L311.223 177.826L312.486 177.647Z" fill="white"/>
<path opacity="0.5" d="M318.71 175.555L313.897 140.589L313.417 140.655L318.231 175.621L318.71 175.555Z" fill="white"/>
<path d="M319.834 166.629C319.193 166.629 318.102 166.034 316.581 164.851C312.116 161.179 308.197 156.887 304.942 152.105C303.578 150.006 303.162 148.686 303.66 148.255C304.158 147.824 305.399 148.351 307.369 149.883C309.617 151.697 311.715 153.691 313.642 155.845C315.608 157.96 317.4 160.231 319.002 162.635C320.365 164.742 320.781 166.055 320.29 166.492C320.16 166.591 319.997 166.64 319.834 166.629ZM304.11 148.426C304.029 148.421 303.949 148.446 303.885 148.495C303.639 148.72 303.844 149.746 305.249 151.914C308.494 156.667 312.397 160.933 316.84 164.584C318.886 166.157 319.868 166.458 320.113 166.232C320.359 166.007 320.154 164.974 318.749 162.813C315.509 158.058 311.611 153.79 307.171 150.136C305.521 148.864 304.553 148.426 304.11 148.426Z" fill="#A37010"/>
</g>
<defs>
<radialGradient id="paint0_radial_56_711" cx="0" cy="0" r="1" gradientUnits="userSpaceOnUse" gradientTransform="translate(220.764 154.463) rotate(-92.3171) scale(85.7512 145.58)">
<stop stop-color="#E2FF6F"/>
<stop offset="1" stop-color="#E2FF6F" stop-opacity="0"/>
</radialGradient>
<clipPath id="clip0_56_711">
<rect width="414" height="244" fill="white" transform="translate(0.5)"/>
</clipPath>
</defs>
</svg>
