<svg width="17" height="21" viewBox="0 0 17 21" fill="none" xmlns="http://www.w3.org/2000/svg">
<path fill-rule="evenodd" clip-rule="evenodd" d="M8.28907 1.00529C6.48803 1.22846 4.50587 2.16171 2.8155 3.60218C2.4734 3.88621 1.75902 4.58615 1.75902 4.62673C1.75902 4.64702 2.10112 5.0122 2.52371 5.43826L3.2884 6.21935L2.96643 6.58454C1.77915 7.93371 0.974209 9.30316 0.491247 10.7538C0.189396 11.6667 0.0585938 12.4174 0.0585938 13.2594C0.0585938 14.0202 0.15921 14.639 0.39063 15.2375L0.481185 15.4809L2.72495 17.743C4.59643 19.6299 5.01902 20.0356 5.25044 20.1878C5.7334 20.5124 6.29685 20.7356 6.92068 20.8674C7.33321 20.9587 8.28907 20.9892 8.74185 20.9283C10.5328 20.7051 12.3842 19.853 14.0041 18.4937C14.4267 18.1387 15.1411 17.459 15.1411 17.4184C15.1411 17.3981 14.7889 17.033 14.3663 16.5968L13.5916 15.8055L13.8331 15.5519C14.4267 14.923 15.1512 13.9187 15.5738 13.1275C16.1775 12.0218 16.5699 10.8248 16.7007 9.72921C16.751 9.25244 16.7208 8.23803 16.6403 7.85255C16.4994 7.20333 16.2781 6.67584 15.946 6.16863C15.775 5.90489 15.4329 5.54984 13.5413 3.63261L11.3277 1.40091L11.0963 1.30961C10.7844 1.17774 10.1404 1.02557 9.74802 0.984999C9.35561 0.944422 8.74185 0.954566 8.28907 1.00529ZM10.1907 1.60379C10.3517 1.64437 10.6133 1.70523 10.7542 1.75595C11.0158 1.84725 11.0259 1.84725 11.4384 2.26316C11.8006 2.62834 11.8509 2.67906 11.7604 2.66892C11.2774 2.57762 10.5026 2.55733 9.89895 2.63849C7.9671 2.88195 5.97488 3.86592 4.14365 5.48898C3.96254 5.65128 3.80155 5.7933 3.77137 5.81359C3.74118 5.83388 3.58019 5.702 3.10729 5.22523L2.48347 4.5963L2.88593 4.24125C4.56624 2.76022 6.4176 1.82696 8.2287 1.56321C8.71167 1.4922 9.78827 1.52264 10.1907 1.60379ZM12.8269 4.82961C13.7123 4.96148 14.4871 5.34696 15.0606 5.92517C15.6241 6.49324 15.9863 7.22362 16.1573 8.13659C16.2278 8.54235 16.2278 9.45532 16.1573 9.93209C15.9259 11.403 15.2518 12.9145 14.2054 14.2941C13.9639 14.6187 13.3904 15.2983 13.2998 15.3693C13.2495 15.4099 13.1891 15.3592 12.6659 14.8317C12.3439 14.5071 12.0823 14.2332 12.0823 14.223C12.0823 14.2129 12.1729 14.1013 12.2836 13.9796C14.1047 11.9508 14.96 9.41474 14.3563 7.84241C14.1148 7.23376 13.6117 6.77728 12.9577 6.5744C12.6257 6.47296 12.0421 6.42224 11.6094 6.47296C10.9454 6.53382 10.1304 6.79757 9.34555 7.18304C8.56074 7.56852 7.84636 8.05543 7.1521 8.68437L6.84019 8.95826L6.24655 8.35976L5.65291 7.76125L5.90445 7.52794C7.44389 6.07734 9.48642 5.04264 11.2372 4.80932C11.5893 4.77889 12.4949 4.77889 12.8269 4.82961ZM4.50587 8.32932C4.28451 8.58293 4.00278 8.93797 3.86192 9.12057C2.19168 11.3624 1.42699 13.797 1.7389 15.8968L1.75902 16.0287L1.34649 15.6229C0.954086 15.2375 0.933963 15.207 0.853469 14.9636C0.0686556 12.6913 1.0547 9.55676 3.37896 6.92944L3.65063 6.62512L4.27445 7.25405L4.89828 7.88299L4.50587 8.32932ZM12.3641 7.03088L12.4446 7.05117L12.4244 7.47722C12.4043 7.98443 12.3339 8.40033 12.2333 8.75538C11.9113 9.82051 11.3176 10.8856 10.4523 11.8899L10.1203 12.2754L9.48642 11.6363L8.85253 10.9972L9.14432 10.6726C9.76815 9.98281 10.3417 9.18143 10.6938 8.50178C10.885 8.13659 11.1365 7.5178 11.207 7.23376C11.2472 7.06131 11.2472 7.06131 11.3981 7.04103C11.4786 7.03088 11.5692 7.02074 11.5994 7.01059C11.6799 7.01059 12.2936 7.01059 12.3641 7.03088ZM10.563 7.47722C10.4222 7.87284 10.1102 8.48149 9.80839 8.93797C9.47636 9.44518 9.24494 9.7495 8.7821 10.277L8.46012 10.6523L7.82624 10.0132L7.19235 9.37417L7.40364 9.18143C8.05765 8.59307 8.82234 8.06558 9.52666 7.70039C9.90901 7.50765 10.5328 7.25405 10.6234 7.24391C10.6335 7.24391 10.6133 7.34535 10.563 7.47722ZM7.42377 10.3784C7.9671 10.9262 7.99728 10.9668 7.95704 11.0277C7.92685 11.0581 7.79605 11.2102 7.65519 11.3726C7.09173 12.0218 6.56852 12.813 6.21636 13.5434C5.96482 14.0607 5.81389 14.4868 5.66297 15.065C5.47179 15.8258 5.47179 16.6678 5.68309 17.2561C6.0755 18.372 7.11185 18.8995 8.56074 18.727C9.95932 18.5546 11.5692 17.743 12.9476 16.5156L13.2394 16.2519L13.8331 16.8504L14.4267 17.4489L14.1752 17.6822C12.8873 18.8893 11.1667 19.8733 9.67759 20.2385C9.07389 20.3907 8.6513 20.4414 8.07778 20.4414C7.31309 20.4414 6.74963 20.3399 6.15599 20.0762C5.3913 19.7414 4.68698 19.0821 4.32476 18.3517C3.87198 17.4489 3.74118 16.333 3.94241 15.1259C4.22414 13.442 5.15988 11.6363 6.53834 10.0843C6.6792 9.92195 6.81 9.79007 6.82006 9.79007C6.83013 9.79007 7.10179 10.0538 7.42377 10.3784ZM9.39586 12.8637C8.5708 13.6448 7.51432 14.3448 6.63895 14.6998C6.45784 14.7708 6.29685 14.8317 6.28679 14.8317C6.27673 14.8317 6.31698 14.7201 6.36729 14.5781C6.74963 13.513 7.4137 12.4275 8.20858 11.5653L8.39975 11.3624L9.03364 11.9913L9.66753 12.6203L9.39586 12.8637ZM10.6636 13.655L11.2774 14.2738L11.0862 14.4564C10.0801 15.4099 8.53055 16.2722 7.43383 16.5055C7.16216 16.5663 6.55846 16.6272 6.26667 16.6272H6.0755V16.1606C6.0755 15.907 6.08556 15.6331 6.09562 15.5722L6.11574 15.4505L6.50815 15.3186C7.50426 14.994 8.77204 14.1926 9.70778 13.2999C9.8587 13.1579 9.99956 13.0362 10.0197 13.0362C10.0398 13.0362 10.3316 13.3101 10.6636 13.655Z" fill="#44444D"/>
</svg>

