<svg width="15" height="15" viewBox="0 0 15 15" fill="none" xmlns="http://www.w3.org/2000/svg">
<path fill-rule="evenodd" clip-rule="evenodd" d="M8.07871 3.40039L11.4817 6.80337L3.84243 14.4426L0.442652 14.4394L0.439453 11.0396L8.07871 3.40039ZM1.48985 11.4742L1.49165 13.3904L3.40792 13.3922L9.99678 6.80337L8.07871 4.88529L1.48985 11.4742Z" fill="#8B8B97"/>
<path fill-rule="evenodd" clip-rule="evenodd" d="M8.07871 3.40039L11.4817 6.80337L3.84243 14.4426L0.442652 14.4394L0.439453 11.0396L8.07871 3.40039ZM1.48985 11.4742L1.49165 13.3904L3.40792 13.3922L9.99678 6.80337L8.07871 4.88529L1.48985 11.4742Z" fill="#8B8B97"/>
<path fill-rule="evenodd" clip-rule="evenodd" d="M8.47044 9.22852L5.63769 6.39576L6.38014 5.65331L9.21289 8.48606L8.47044 9.22852Z" fill="#8B8B97"/>
<path fill-rule="evenodd" clip-rule="evenodd" d="M14.4121 14.4414H7.38649V13.3914H13.3621V1.4916H1.48946V7.57897H0.439474V0.441611H14.4121V14.4414Z" fill="#8B8B97"/>
</svg>
