<svg width="15" height="14" viewBox="0 0 15 14" fill="none" xmlns="http://www.w3.org/2000/svg">
<path fill-rule="evenodd" clip-rule="evenodd" d="M8.13926 2.95811L11.5422 6.36109L3.90298 14.0003L0.503199 13.9971L0.5 10.5974L8.13926 2.95811ZM1.55039 11.0319L1.5522 12.9481L3.46847 12.95L10.0573 6.36109L8.13926 4.44301L1.55039 11.0319Z" fill="white"/>
<path fill-rule="evenodd" clip-rule="evenodd" d="M8.13926 2.95811L11.5422 6.36109L3.90298 14.0003L0.503199 13.9971L0.5 10.5974L8.13926 2.95811ZM1.55039 11.0319L1.5522 12.9481L3.46847 12.95L10.0573 6.36109L8.13926 4.44301L1.55039 11.0319Z" fill="white"/>
<path fill-rule="evenodd" clip-rule="evenodd" d="M8.53147 8.78746L5.69872 5.9547L6.44117 5.21225L9.27393 8.04501L8.53147 8.78746Z" fill="white"/>
<path fill-rule="evenodd" clip-rule="evenodd" d="M14.4727 13.9999H7.44703V12.9499H13.4227V1.05005H1.55V7.13742H0.500021V6.48499e-05H14.4727V13.9999Z" fill="white"/>
</svg>
