<svg width="161" height="105" viewBox="0 0 161 105" fill="none" xmlns="http://www.w3.org/2000/svg">
<path d="M157.463 104.89L160.35 99.8896L154.576 99.8896L157.463 104.89ZM0.962158 -6.84087e-06L0.962156 48.6948L1.96216 48.6948L1.96216 -6.79716e-06L0.962158 -6.84087e-06ZM5.46216 53.1948L153.463 53.1948L153.463 52.1948L5.46216 52.1948L5.46216 53.1948ZM156.963 56.6948L156.963 100.39L157.963 100.39L157.963 56.6948L156.963 56.6948ZM153.463 53.1948C155.396 53.1948 156.963 54.7618 156.963 56.6948L157.963 56.6948C157.963 54.2095 155.948 52.1948 153.463 52.1948L153.463 53.1948ZM0.962156 48.6948C0.962156 51.1801 2.97688 53.1948 5.46216 53.1948L5.46216 52.1948C3.52916 52.1948 1.96216 50.6278 1.96216 48.6948L0.962156 48.6948Z" fill="#E2FF6F"/>
</svg>
