<svg width="158" height="106" viewBox="0 0 158 106" fill="none" xmlns="http://www.w3.org/2000/svg">
<path d="M3.87817 105.888L6.76492 100.888L0.99142 100.888L3.87817 105.888ZM156.378 0.512695L156.378 49.2004L157.378 49.2004L157.378 0.512695L156.378 0.512695ZM152.878 52.7004L7.87817 52.7004L7.87817 53.7004L152.878 53.7004L152.878 52.7004ZM3.37817 57.2004L3.37817 101.388L4.37817 101.388L4.37817 57.2004L3.37817 57.2004ZM7.87817 52.7004C5.3929 52.7004 3.37817 54.7151 3.37817 57.2004L4.37817 57.2004C4.37817 55.2674 5.94517 53.7004 7.87817 53.7004L7.87817 52.7004ZM156.378 49.2004C156.378 51.1334 154.811 52.7004 152.878 52.7004L152.878 53.7004C155.363 53.7004 157.378 51.6857 157.378 49.2004L156.378 49.2004Z" fill="#E2FF6F"/>
</svg>
