<svg width="446" height="401" viewBox="0 0 446 401" fill="none" xmlns="http://www.w3.org/2000/svg">
<path d="M65.7202 365.937C152.582 411.356 293.422 411.356 380.284 365.937C467.145 320.518 467.145 246.979 380.284 201.6C293.422 156.221 152.582 156.181 65.7202 201.6C-21.1416 247.019 -21.1517 320.568 65.7202 365.937Z" fill="#1B1B1B"/>
<path d="M325.518 324.746C348.312 324.746 366.789 314.077 366.789 300.916C366.789 287.755 348.312 277.086 325.518 277.086C302.725 277.086 284.247 287.755 284.247 300.916C284.247 314.077 302.725 324.746 325.518 324.746Z" fill="#4F4F4F"/>
<path d="M79.5881 321.354L76.8428 319.769C75.6672 319.003 74.689 317.97 73.9875 316.755C73.286 315.54 72.881 314.176 72.8055 312.775V72.0631C72.8803 70.6603 73.2848 69.295 73.9863 68.0779C74.6878 66.8608 75.6665 65.8263 76.8428 65.0585L187.868 0.966887C189.118 0.331279 190.502 0 191.905 0C193.308 0 194.691 0.331279 195.942 0.966887L198.687 2.55151C199.862 3.31837 200.84 4.35126 201.542 5.56647C202.243 6.78168 202.648 8.14504 202.725 9.54607V250.268C202.648 251.669 202.243 253.032 201.542 254.248C200.84 255.463 199.862 256.496 198.687 257.263L87.6627 321.354C86.4118 321.99 85.0285 322.321 83.6254 322.321C82.2223 322.321 80.839 321.99 79.5881 321.354Z" fill="#37474F"/>
<path d="M89.0454 76.8152L73.9864 68.125C73.262 69.3327 72.8557 70.7044 72.8055 72.1118V312.773C72.881 314.174 73.286 315.538 73.9875 316.753C74.689 317.969 75.6672 319.001 76.8428 319.768L79.5881 321.352C80.839 321.988 82.2223 322.319 83.6254 322.319C85.0285 322.319 86.4118 321.988 87.6627 321.352L89.0353 320.565L89.0454 76.8152Z" fill="#263238"/>
<path d="M83.6254 78.309V319.051C83.6254 321.635 85.432 322.674 87.6626 321.383L198.687 257.291C199.862 256.524 200.84 255.491 201.542 254.276C202.243 253.061 202.648 251.697 202.725 250.296V9.54428C202.725 6.97052 200.918 5.93093 198.687 7.21276L87.6626 71.3144C86.4859 72.0795 85.5068 73.112 84.8052 74.3275C84.1035 75.5431 83.6993 76.9074 83.6254 78.309Z" fill="#455A64"/>
<path d="M92.5072 93.5309L193.439 35.2429C195.346 34.1427 196.901 35.041 196.901 37.2615V229.284C196.836 230.485 196.488 231.654 195.887 232.696C195.285 233.737 194.447 234.622 193.439 235.279L92.5072 293.557C90.5895 294.667 89.0453 293.769 89.0453 291.538V99.5262C89.108 98.3245 89.4544 97.1548 90.0561 96.1127C90.6579 95.0706 91.4978 94.1859 92.5072 93.5309Z" fill="#FAFAFA"/>
<g opacity="0.4">
<path opacity="0.4" d="M143.538 108.659C154.853 102.129 164.028 107.428 164.028 120.489C164.028 133.549 154.853 149.456 143.538 155.986C132.224 162.516 123.049 157.228 123.049 144.157C123.049 131.086 132.224 115.169 143.538 108.659Z" fill="#4F4F4F"/>
<path opacity="0.4" d="M183.921 178.554C183.921 157.085 168.852 147.547 150.261 158.287L138.633 164.998C120.042 175.728 104.973 201.839 104.973 223.307V229.09L183.921 183.53V178.554Z" fill="#4F4F4F"/>
</g>
<path d="M143.175 45.5277C144.669 44.6597 145.88 45.3662 145.88 47.0921C145.83 48.0307 145.559 48.9441 145.089 49.7579C144.619 50.5718 143.963 51.263 143.175 51.7754C141.681 52.6434 140.47 51.9369 140.47 50.2109C140.52 49.2724 140.791 48.359 141.261 47.5451C141.731 46.7313 142.387 46.04 143.175 45.5277Z" fill="#263238"/>
<path d="M135.363 59.0348C140.864 56.0068 150.675 50.1629 156.095 46.9735C157.013 46.4284 157.76 46.8019 157.76 47.8011C157.72 48.3647 157.547 48.9108 157.256 49.3949C156.965 49.879 156.564 50.2875 156.084 50.5868L135.323 62.5775C134.394 63.1124 133.647 62.739 133.647 61.7297C133.694 61.1752 133.875 60.6404 134.174 60.1711C134.472 59.7017 134.881 59.3118 135.363 59.0348Z" fill="#263238"/>
<path d="M130.115 62.0706C130.952 61.5861 131.639 61.9798 131.639 62.9487C131.609 63.4766 131.456 63.99 131.191 64.4477C130.926 64.9053 130.558 65.2942 130.115 65.583C129.277 66.0675 128.591 65.6739 128.591 64.7049C128.62 64.1771 128.774 63.6636 129.038 63.206C129.303 62.7484 129.672 62.3594 130.115 62.0706Z" fill="#263238"/>
<path d="M143.175 270.606C146.203 268.88 148.595 270.283 148.595 273.735C148.494 275.614 147.95 277.443 147.008 279.072C146.066 280.701 144.753 282.085 143.175 283.111C140.147 284.837 137.765 283.434 137.765 279.982C137.867 278.104 138.41 276.277 139.35 274.647C140.29 273.018 141.6 271.634 143.175 270.606Z" fill="#263238"/>
<path d="M235.235 203.124L223.063 196.058L222.931 195.988C216.876 192.576 208.579 193.071 199.384 198.39C190.785 203.346 182.932 211.612 177.018 221.19C170.185 232.212 165.915 244.98 165.915 256.415C165.915 267.084 169.65 274.583 175.685 278.085L188.049 285.151C194.156 289.047 202.765 288.693 212.334 283.183C230.814 272.625 245.823 246.595 245.823 225.187C245.823 214.085 241.745 206.424 235.235 203.124Z" fill="#4F4F4F"/>
<path opacity="0.1" d="M187.787 285.089L175.675 278.165C169.619 274.662 165.905 267.163 165.905 256.495C165.905 245.049 170.205 232.271 177.008 221.27L189.947 228.728C183.104 239.76 178.844 252.498 178.844 263.923C178.794 274.107 182.216 281.405 187.787 285.089Z" fill="black"/>
<path opacity="0.4" d="M235.023 202.981C229.048 200.084 221.084 200.821 212.343 205.858C203.603 210.894 195.851 219.13 189.927 228.709L176.987 221.25C182.902 211.671 190.754 203.405 199.354 198.449C208.538 193.14 216.845 192.636 222.901 196.047L223.032 196.118L235.023 202.981Z" fill="#FCFCFC"/>
<path d="M229.764 216.607L225.121 213.922L206.944 256.767L210.042 258.554L229.764 216.607Z" fill="#FCFCFC"/>
<path d="M203.381 247.202L198.738 244.527L193.752 255.075L198.395 257.749L203.381 247.202Z" fill="#FCFCFC"/>
<path d="M211.233 271.123L198.395 257.749L203.381 247.202L210.042 258.557L229.764 216.609L237.072 223.735L211.233 271.123Z" fill="#F5F5F5"/>
<path d="M193.752 255.074L198.395 257.749L211.234 271.122L206.601 268.468L193.752 255.074Z" fill="#E0E0E0"/>
<path d="M329.898 97.9317C335.156 97.9317 340.198 95.8432 343.915 92.1257C347.633 88.4081 349.721 83.3661 349.721 78.1087V76.9379C349.723 74.7315 349.289 72.5465 348.446 70.5076C347.602 68.4688 346.366 66.6162 344.806 65.0555C343.246 63.4949 341.394 62.2569 339.356 61.4122C337.318 60.5676 335.133 60.1328 332.926 60.1328H326.87C322.413 60.1328 318.139 61.9034 314.987 65.0549C311.836 68.2065 310.065 72.4809 310.065 76.9379V78.1087C310.065 80.7128 310.578 83.2913 311.575 85.697C312.572 88.1027 314.033 90.2884 315.875 92.1292C317.717 93.9701 319.903 95.4301 322.309 96.4257C324.716 97.4213 327.294 97.933 329.898 97.9317Z" fill="#263238"/>
<path d="M309.45 294.013C307.138 296.439 304.604 298.642 301.88 300.594C301.465 300.872 301.12 301.241 300.871 301.674C300.517 302.421 299.962 304.258 303.343 305.439C305.053 306.031 306.871 306.248 308.672 306.074C310.473 305.899 312.215 305.339 313.78 304.429C316.565 302.693 316.687 299.08 319.311 297.011C321.249 295.487 323.671 295.093 325.246 293.095C326.336 291.702 326.053 289.855 325.478 287.564C324.862 285.061 324.569 283.173 323.742 283.365L323.883 284.516C322.874 286.161 317.494 286.645 315.112 285.525C315.072 285.505 310.954 292.368 309.45 294.013Z" fill="#263238"/>
<path d="M307.098 296.341C307.905 295.604 308.693 294.837 309.45 294.01C311.034 291.953 312.494 289.803 313.82 287.57C314.734 286.217 315.164 284.596 315.041 282.968C314.849 281.232 314.375 276.801 314.375 276.801L322.853 276.195L323.863 284.512C324.065 286.399 322.51 288.075 319.745 290.457C316.979 292.839 313.487 298.38 310.984 299.773C308.481 301.166 306.704 301.115 305.634 300.399C304.565 299.682 304.413 299.097 307.098 296.341Z" fill="#B16668"/>
<path d="M341.697 294.767V293.485C341.203 294.989 338.871 301.419 335.329 304.648C332.523 307.212 328.687 310.169 327.708 313.036C326.729 315.902 333.048 317.002 335.672 316.538C338.7 316.003 342.676 314.267 344.826 311.633C346.33 309.776 347.299 307.596 348.379 306.112C349.459 304.628 351.942 303.023 352.527 301.328C352.85 300.399 352.467 298.37 352.013 296.655C351.558 294.939 351.155 293.344 350.62 293.485V294.495C349.348 295.491 347.774 296.022 346.159 295.998C344.857 296.019 341.687 295.756 341.697 294.767Z" fill="#263238"/>
<path d="M332.785 306.943C333.653 306.165 334.531 305.408 335.329 304.682C337.801 302.431 339.689 298.626 340.769 296.002C341.386 294.514 341.705 292.919 341.707 291.308V286.262H350.62V294.538V294.76C350.196 296.617 346.098 301.543 343.777 304.752C342.222 306.902 339.265 309.648 335.702 310.122C332.321 310.505 330.605 309.446 332.785 306.943Z" fill="#B16668"/>
<path d="M348.843 156.23C355.757 171.319 348.591 224.49 348.591 224.49C348.803 226.943 351.619 231.767 352.628 242.547C353.86 255.284 350.69 287.259 350.69 287.259C349.332 288.05 347.8 288.497 346.229 288.56C344.658 288.624 343.095 288.302 341.677 287.623C341.677 287.623 333.189 239.448 331.584 226.791C330.191 215.739 327.547 189.759 327.547 189.759L320.603 227.023C321.888 230.51 322.798 234.123 323.318 237.803C324.034 245.262 323.499 279.71 323.499 279.71C323.499 279.71 320.471 282.031 314.607 281.173C314.607 281.173 304.514 233.998 303.717 225.035C303.252 219.686 309.349 154.02 309.349 154.02L348.843 156.23Z" fill="#4F4F4F"/>
<path opacity="0.6" d="M348.843 156.23C355.757 171.319 348.591 224.49 348.591 224.49C348.803 226.943 351.619 231.767 352.628 242.547C353.86 255.284 350.69 287.259 350.69 287.259C349.332 288.05 347.8 288.497 346.229 288.56C344.658 288.624 343.095 288.302 341.677 287.623C341.677 287.623 333.189 239.448 331.584 226.791C330.191 215.739 327.547 189.759 327.547 189.759L320.603 227.023C321.888 230.51 322.798 234.123 323.318 237.803C324.034 245.262 323.499 279.71 323.499 279.71C323.499 279.71 320.471 282.031 314.607 281.173C314.607 281.173 304.514 233.998 303.717 225.035C303.252 219.686 309.349 154.02 309.349 154.02L348.843 156.23Z" fill="#1B1B1B"/>
<path opacity="0.3" d="M327.537 189.759L325.296 177.415C325.296 177.415 315.798 175.447 311.499 171.359C311.499 171.359 316.01 176.981 322.722 178.818L325.246 189.608L321.279 223.319L327.537 189.759Z" fill="#101010"/>
<path d="M360.107 149.67C360.037 148.661 358.18 138.114 356.908 132.199L344.483 136.004L346.694 146.885L357.15 155.282C360.44 154.636 360.178 150.66 360.107 149.67Z" fill="#B16668"/>
<path d="M300.013 127.383L294.138 138.152L303.283 145.984L311.65 132.712L300.013 127.383Z" fill="#B16668"/>
<path d="M322.056 103.391C316.232 103.451 309.813 105.561 307.603 110.133C305.392 114.705 299.286 127.291 299.286 127.291C299.286 127.291 304.726 134.679 312.891 134.144L322.056 103.391Z" fill="#4F4F4F"/>
<path opacity="0.6" d="M322.056 103.391C316.232 103.451 309.813 105.561 307.603 110.133C305.392 114.705 299.286 127.291 299.286 127.291C299.286 127.291 304.726 134.679 312.891 134.144L322.056 103.391Z" fill="black"/>
<path d="M334.107 103.592L338.962 103.794C344.231 105.056 346.138 108.679 348.349 113.353C349.969 116.961 350.121 121.059 348.773 124.778L342.596 142.643C342.596 142.643 345.482 149.627 348.843 156.228C333.35 164.878 314.002 160.326 309.339 154.018C309.147 152.676 309.409 146.65 309.036 139.787C308.642 132.459 307.633 124.193 308.783 119.671C310.923 111.273 314.92 103.391 322.914 103.391L334.107 103.592Z" fill="#F5F5F5"/>
<path d="M338.982 103.797C344.261 104.544 352.033 105.604 354.707 118.17C357.422 130.907 357.937 133.945 357.937 133.945C357.937 133.945 353.315 138.558 344.544 138.517C344.523 138.517 336.792 113.506 338.982 103.797Z" fill="#4F4F4F"/>
<path opacity="0.6" d="M338.982 103.797C344.261 104.544 352.033 105.604 354.707 118.17C357.422 130.907 357.937 133.945 357.937 133.945C357.937 133.945 353.315 138.558 344.544 138.517C344.523 138.517 336.792 113.506 338.982 103.797Z" fill="black"/>
<path d="M344.291 137.738C343.282 134.397 342.273 130.582 341.314 126.484C341.355 131.636 341.879 136.772 342.878 141.826L344.291 137.738Z" fill="#EBEBEB"/>
<path d="M316.535 68.1484C314.446 69.3899 311.862 74.6585 312.114 85.7004C312.326 95.0568 315.364 97.3681 316.888 98.0343C318.412 98.7004 321.349 98.2967 324.206 97.8223V103.444C324.206 103.444 320.259 108.027 320.501 110.6C320.744 113.174 326.204 113.79 329.898 111.266C332.29 109.544 334.343 107.395 335.954 104.928V91.3425C335.954 91.3425 337.882 93.9163 341.001 91.827C344.119 89.7377 344.271 84.5498 342.444 82.6826C340.617 80.8153 336.651 81.4109 335.924 83.9846C335.924 83.9846 331.362 84.1562 325.296 80.8254C322.944 79.5475 320.925 77.7341 319.403 75.5319C317.881 73.3298 316.899 70.8005 316.535 68.1484Z" fill="#B16668"/>
<path d="M322.561 83.3489C322.557 83.5806 322.622 83.8083 322.747 84.0036C322.872 84.1989 323.051 84.3531 323.263 84.4471C323.475 84.541 323.71 84.5705 323.938 84.532C324.167 84.4934 324.379 84.3884 324.548 84.2301C324.717 84.0718 324.836 83.8672 324.89 83.6418C324.944 83.4164 324.93 83.1801 324.851 82.9624C324.771 82.7447 324.63 82.5552 324.443 82.4175C324.257 82.2799 324.034 82.2001 323.802 82.1882C323.645 82.1828 323.487 82.2086 323.34 82.264C323.192 82.3194 323.056 82.4034 322.941 82.5112C322.826 82.619 322.733 82.7485 322.668 82.8922C322.602 83.036 322.566 83.1912 322.561 83.3489Z" fill="#263238"/>
<path d="M322.248 91.2812L319.512 92.1593C319.559 92.3446 319.643 92.5184 319.758 92.6704C319.874 92.8224 320.019 92.9494 320.185 93.0438C320.351 93.1381 320.534 93.1978 320.724 93.2193C320.914 93.2407 321.106 93.2235 321.289 93.1687C321.664 93.0418 321.974 92.7732 322.153 92.4204C322.332 92.0677 322.366 91.6588 322.248 91.2812Z" fill="#9A4A4D"/>
<path d="M312.912 79.733L315.294 78.0878C315.195 77.921 315.062 77.7768 314.904 77.6643C314.746 77.5518 314.566 77.4736 314.376 77.4346C314.186 77.3957 313.99 77.3968 313.8 77.4381C313.611 77.4793 313.432 77.5596 313.275 77.674C312.963 77.9062 312.752 78.2486 312.685 78.6314C312.617 79.0141 312.698 79.4082 312.912 79.733Z" fill="#263238"/>
<path d="M313.457 82.4991C313.455 82.7305 313.521 82.9572 313.647 83.1512C313.773 83.3451 313.954 83.4978 314.166 83.5902C314.378 83.6826 314.612 83.7107 314.84 83.671C315.068 83.6313 315.279 83.5255 315.448 83.3668C315.616 83.208 315.734 83.0034 315.787 82.7782C315.84 82.553 315.826 82.3172 315.746 82.1001C315.666 81.8829 315.524 81.694 315.338 81.5568C315.152 81.4196 314.929 81.3402 314.698 81.3283C314.379 81.3228 314.071 81.4421 313.839 81.6609C313.607 81.8797 313.47 82.1805 313.457 82.4991Z" fill="#263238"/>
<path d="M319.008 81.8242L318.826 88.9096L315.102 87.759L319.008 81.8242Z" fill="#9A4A4D"/>
<path d="M324.206 97.8219C327.234 97.4283 333.401 95.6519 334.37 93.1992C333.983 94.4396 333.226 95.5317 332.2 96.3281C330.353 97.9127 324.206 99.6992 324.206 99.6992V97.8219Z" fill="#9A4A4D"/>
<path d="M274.941 126.727L309.107 135.72L319.2 178.131L286.71 168.694L274.941 126.727Z" fill="#4F4F4F"/>
<path opacity="0.15" d="M289.839 154.785C289.526 155.653 287.648 158.055 283.672 157.864L283.187 156.107L289.839 154.785Z" fill="black"/>
<path opacity="0.15" d="M297.479 156.109C297.631 157.24 299.952 159.339 303.878 160.641C308.35 162.135 315.203 161.348 315.203 161.348L314.587 159.238L297.479 156.109Z" fill="black"/>
<path opacity="0.15" d="M284.943 132.864C284.943 132.864 284.822 132.279 284.661 131.562C284.499 130.846 286.518 130.805 289.142 131.492L294.189 132.794C296.813 133.48 299.074 134.62 299.235 135.337L299.518 136.639L284.943 132.864Z" fill="black"/>
<path d="M282.582 127.95C282.481 127.496 283.289 127.385 284.389 127.688L286.407 128.233C286.407 128.233 285.812 125.417 290.233 126.406C294.653 127.395 295.622 130.584 295.622 130.584L297.752 131.19C298.933 131.523 299.993 132.199 300.134 132.613L300.386 133.421L282.784 128.788C282.784 128.788 282.673 128.394 282.582 127.95Z" fill="#37474F"/>
<path d="M285.004 129.351C286.619 129.745 287.285 129.957 287.527 131.067C287.8 132.339 287.911 133.267 287.911 133.267L295.703 135.286C295.703 135.286 295.329 133.681 295.208 133.056C295.087 132.43 295.35 132.046 296.591 132.379L296.692 131.885L284.479 128.816L285.004 129.351Z" fill="#37474F"/>
<path d="M284.731 132.985C284.731 132.985 284.61 132.4 284.449 131.683C284.287 130.967 286.306 130.936 288.93 131.613L293.977 132.925C296.601 133.601 298.862 134.742 299.023 135.458L299.306 136.76L284.731 132.985Z" fill="#37474F"/>
<path d="M357.15 155.281L346.683 146.884C346.683 146.884 323.55 151.002 320.825 151.213C319.387 151.252 317.971 150.856 316.762 150.076C315.554 149.296 314.609 148.169 314.052 146.843C313.043 144.168 311.196 144.502 311.196 144.502C311.196 144.502 311.993 147.883 312.205 148.963C312.417 150.043 305.947 150.981 302.334 149.71C298.721 148.438 293.482 150.265 296.722 155.18C299.962 160.095 306.27 160.671 310.641 160.671C312.473 160.657 314.303 160.536 316.121 160.307C317.534 160.126 318.947 159.984 320.371 159.884C329.384 159.238 353.113 156.553 357.15 155.281Z" fill="#B16668"/>
<path d="M278.423 139.121L279.937 144.531C280.23 145.54 284.197 147.458 286.71 148.155C289.223 148.851 291.968 149.659 290.747 153.201C289.657 156.441 285.519 157.178 283.419 157.087C281.32 156.996 278.433 154.988 277.303 151.748C275.85 147.61 276.627 143.189 276.051 140.777C275.476 138.364 277.162 137.678 278.423 139.121Z" fill="#B16668"/>
<path d="M347.198 119.673C345.722 119.675 344.26 119.385 342.896 118.821C341.532 118.257 340.292 117.43 339.248 116.387C338.204 115.343 337.376 114.105 336.81 112.741C336.245 111.377 335.954 109.916 335.954 108.44V92.6641C338.933 92.6667 341.789 93.8511 343.895 95.9573C346.001 98.0634 347.185 100.919 347.188 103.898L347.198 119.673Z" fill="#263238"/>
</svg>
