<svg width="49" height="48" viewBox="0 0 49 48" fill="none" xmlns="http://www.w3.org/2000/svg">
<path d="M34.1613 34.0119H29.9057V27.4131C29.9057 25.8395 29.8773 23.8139 27.6923 23.8139C25.4759 23.8139 25.1367 25.5283 25.1367 27.2985V34.0115H20.8811V20.4416H24.9665V22.2961H25.0237C25.4325 21.6039 26.0233 21.0345 26.7332 20.6485C27.443 20.2625 28.2453 20.0744 29.0546 20.1041C33.3678 20.1041 34.163 22.9132 34.163 26.5677L34.1613 34.0119ZM16.0794 18.5867C15.5909 18.5868 15.1134 18.4435 14.7073 18.1749C14.3011 17.9063 13.9845 17.5244 13.7975 17.0776C13.6105 16.6309 13.5615 16.1392 13.6567 15.6649C13.7519 15.1905 13.9871 14.7548 14.3324 14.4127C14.6777 14.0707 15.1177 13.8377 15.5967 13.7433C16.0758 13.6488 16.5723 13.6972 17.0236 13.8822C17.4749 14.0672 17.8606 14.3805 18.1321 14.7826C18.4035 15.1847 18.5484 15.6574 18.5485 16.141C18.5486 16.4622 18.4847 16.7801 18.3607 17.0768C18.2366 17.3735 18.0548 17.6431 17.8255 17.8702C17.5962 18.0973 17.324 18.2775 17.0244 18.4004C16.7248 18.5234 16.4037 18.5867 16.0794 18.5867ZM18.2072 34.0119H13.9471V20.4416H18.2072V34.0119ZM36.2829 9.78319H11.8087C11.2532 9.77698 10.7179 9.98939 10.3205 10.3737C9.92313 10.7581 9.69611 11.283 9.68933 11.833V36.1666C9.69588 36.7169 9.92276 37.2421 10.3202 37.6269C10.7175 38.0116 11.2529 38.2244 11.8087 38.2186H36.2829C36.8397 38.2255 37.3766 38.0133 37.7756 37.6285C38.1746 37.2438 38.403 36.718 38.4107 36.1666V11.8312C38.4027 11.2801 38.1742 10.7547 37.7752 10.3703C37.3762 9.98597 36.8395 9.77416 36.2829 9.78143" fill="white"/>
</svg>
