<svg width="21" height="20" viewBox="0 0 21 20" fill="none" xmlns="http://www.w3.org/2000/svg">
<path d="M2.21261 1.77706H12.8198V8.27394H14.1456V1.77706C14.1456 1.42542 14.006 1.08817 13.7573 0.839517C13.5086 0.590864 13.1714 0.451172 12.8198 0.451172H2.21261C1.86096 0.451172 1.52372 0.590864 1.27506 0.839517C1.02641 1.08817 0.886719 1.42542 0.886719 1.77706V17.6878C0.886719 18.0394 1.02641 18.3767 1.27506 18.6253C1.52372 18.874 1.86096 19.0137 2.21261 19.0137H12.8198C13.1714 19.0137 13.5086 18.874 13.7573 18.6253C14.006 18.3767 14.1456 18.0394 14.1456 17.6878H2.21261V1.77706Z" fill="#828282"/>
<path d="M16.2392 9.25707C16.1124 9.14846 15.9492 9.09171 15.7824 9.09815C15.6155 9.1046 15.4573 9.17376 15.3392 9.29183C15.2211 9.4099 15.152 9.56817 15.1455 9.73501C15.1391 9.90186 15.1958 10.065 15.3044 10.1918L17.5452 12.3862H7.93248C7.75665 12.3862 7.58803 12.456 7.4637 12.5803C7.33938 12.7047 7.26953 12.8733 7.26953 13.0491C7.26953 13.2249 7.33938 13.3936 7.4637 13.5179C7.58803 13.6422 7.75665 13.7121 7.93248 13.7121H17.5452L15.3044 16.0059C15.235 16.0653 15.1787 16.1384 15.1389 16.2207C15.0991 16.3029 15.0767 16.3925 15.0732 16.4838C15.0697 16.5751 15.0851 16.6662 15.1184 16.7512C15.1517 16.8363 15.2023 16.9136 15.2669 16.9782C15.3315 17.0428 15.4088 17.0933 15.4938 17.1267C15.5789 17.16 15.6699 17.1754 15.7612 17.1718C15.8525 17.1683 15.9421 17.146 16.0244 17.1062C16.1066 17.0664 16.1798 17.01 16.2392 16.9406L20.1108 13.0955L16.2392 9.25707Z" fill="#828282"/>
</svg>
