<svg width="44" height="44" viewBox="0 0 44 44" fill="none" xmlns="http://www.w3.org/2000/svg">
<g clip-path="url(#clip0_902_2609)">
<rect x="0.72168" y="0.721924" width="42.8828" height="42.8828" rx="1.68996" fill="black"/>
<path d="M2.30957 2.31018H3.89782V3.89843H2.30957V2.31018ZM3.89782 2.31018H5.48608V3.89843H3.89782V2.31018ZM5.48608 2.31018H7.07433V3.89843H5.48608V2.31018ZM7.07433 2.31018H8.66258V3.89843H7.07433V2.31018ZM8.66258 2.31018H10.2508V3.89843H8.66258V2.31018ZM10.2508 2.31018H11.8391V3.89843H10.2508V2.31018ZM11.8391 2.31018H13.4273V3.89843H11.8391V2.31018ZM16.6039 2.31018H18.1921V3.89843H16.6039V2.31018ZM21.3686 2.31018H22.9569V3.89843H21.3686V2.31018ZM22.9569 2.31018H24.5451V3.89843H22.9569V2.31018ZM24.5451 2.31018H26.1334V3.89843H24.5451V2.31018ZM26.1334 2.31018H27.7216V3.89843H26.1334V2.31018ZM30.8981 2.31018H32.4864V3.89843H30.8981V2.31018ZM32.4864 2.31018H34.0746V3.89843H32.4864V2.31018ZM34.0746 2.31018H35.6629V3.89843H34.0746V2.31018ZM35.6629 2.31018H37.2511V3.89843H35.6629V2.31018ZM37.2511 2.31018H38.8394V3.89843H37.2511V2.31018ZM38.8394 2.31018H40.4277V3.89843H38.8394V2.31018ZM40.4277 2.31018H42.0159V3.89843H40.4277V2.31018ZM2.30957 3.89843H3.89782V5.48669H2.30957V3.89843ZM11.8391 3.89843H13.4273V5.48669H11.8391V3.89843ZM15.0156 3.89843H16.6039V5.48669H15.0156V3.89843ZM19.7804 3.89843H21.3686V5.48669H19.7804V3.89843ZM21.3686 3.89843H22.9569V5.48669H21.3686V3.89843ZM22.9569 3.89843H24.5451V5.48669H22.9569V3.89843ZM24.5451 3.89843H26.1334V5.48669H24.5451V3.89843ZM26.1334 3.89843H27.7216V5.48669H26.1334V3.89843ZM27.7216 3.89843H29.3099V5.48669H27.7216V3.89843ZM30.8981 3.89843H32.4864V5.48669H30.8981V3.89843ZM40.4277 3.89843H42.0159V5.48669H40.4277V3.89843ZM2.30957 5.48669H3.89782V7.07494H2.30957V5.48669ZM5.48608 5.48669H7.07433V7.07494H5.48608V5.48669ZM7.07433 5.48669H8.66258V7.07494H7.07433V5.48669ZM8.66258 5.48669H10.2508V7.07494H8.66258V5.48669ZM11.8391 5.48669H13.4273V7.07494H11.8391V5.48669ZM15.0156 5.48669H16.6039V7.07494H15.0156V5.48669ZM16.6039 5.48669H18.1921V7.07494H16.6039V5.48669ZM18.1921 5.48669H19.7804V7.07494H18.1921V5.48669ZM19.7804 5.48669H21.3686V7.07494H19.7804V5.48669ZM21.3686 5.48669H22.9569V7.07494H21.3686V5.48669ZM24.5451 5.48669H26.1334V7.07494H24.5451V5.48669ZM30.8981 5.48669H32.4864V7.07494H30.8981V5.48669ZM34.0746 5.48669H35.6629V7.07494H34.0746V5.48669ZM35.6629 5.48669H37.2511V7.07494H35.6629V5.48669ZM37.2511 5.48669H38.8394V7.07494H37.2511V5.48669ZM40.4277 5.48669H42.0159V7.07494H40.4277V5.48669ZM2.30957 7.07494H3.89782V8.66319H2.30957V7.07494ZM5.48608 7.07494H7.07433V8.66319H5.48608V7.07494ZM7.07433 7.07494H8.66258V8.66319H7.07433V7.07494ZM8.66258 7.07494H10.2508V8.66319H8.66258V7.07494ZM11.8391 7.07494H13.4273V8.66319H11.8391V7.07494ZM16.6039 7.07494H18.1921V8.66319H16.6039V7.07494ZM18.1921 7.07494H19.7804V8.66319H18.1921V7.07494ZM19.7804 7.07494H21.3686V8.66319H19.7804V7.07494ZM26.1334 7.07494H27.7216V8.66319H26.1334V7.07494ZM27.7216 7.07494H29.3099V8.66319H27.7216V7.07494ZM30.8981 7.07494H32.4864V8.66319H30.8981V7.07494ZM34.0746 7.07494H35.6629V8.66319H34.0746V7.07494ZM35.6629 7.07494H37.2511V8.66319H35.6629V7.07494ZM37.2511 7.07494H38.8394V8.66319H37.2511V7.07494ZM40.4277 7.07494H42.0159V8.66319H40.4277V7.07494ZM2.30957 8.66319H3.89782V10.2514H2.30957V8.66319ZM5.48608 8.66319H7.07433V10.2514H5.48608V8.66319ZM7.07433 8.66319H8.66258V10.2514H7.07433V8.66319ZM8.66258 8.66319H10.2508V10.2514H8.66258V8.66319ZM11.8391 8.66319H13.4273V10.2514H11.8391V8.66319ZM15.0156 8.66319H16.6039V10.2514H15.0156V8.66319ZM24.5451 8.66319H26.1334V10.2514H24.5451V8.66319ZM26.1334 8.66319H27.7216V10.2514H26.1334V8.66319ZM27.7216 8.66319H29.3099V10.2514H27.7216V8.66319ZM30.8981 8.66319H32.4864V10.2514H30.8981V8.66319ZM34.0746 8.66319H35.6629V10.2514H34.0746V8.66319ZM35.6629 8.66319H37.2511V10.2514H35.6629V8.66319ZM37.2511 8.66319H38.8394V10.2514H37.2511V8.66319ZM40.4277 8.66319H42.0159V10.2514H40.4277V8.66319ZM2.30957 10.2514H3.89782V11.8397H2.30957V10.2514ZM11.8391 10.2514H13.4273V11.8397H11.8391V10.2514ZM15.0156 10.2514H16.6039V11.8397H15.0156V10.2514ZM16.6039 10.2514H18.1921V11.8397H16.6039V10.2514ZM19.7804 10.2514H21.3686V11.8397H19.7804V10.2514ZM26.1334 10.2514H27.7216V11.8397H26.1334V10.2514ZM30.8981 10.2514H32.4864V11.8397H30.8981V10.2514ZM40.4277 10.2514H42.0159V11.8397H40.4277V10.2514ZM2.30957 11.8397H3.89782V13.428H2.30957V11.8397ZM3.89782 11.8397H5.48608V13.428H3.89782V11.8397ZM5.48608 11.8397H7.07433V13.428H5.48608V11.8397ZM7.07433 11.8397H8.66258V13.428H7.07433V11.8397ZM8.66258 11.8397H10.2508V13.428H8.66258V11.8397ZM10.2508 11.8397H11.8391V13.428H10.2508V11.8397ZM11.8391 11.8397H13.4273V13.428H11.8391V11.8397ZM15.0156 11.8397H16.6039V13.428H15.0156V11.8397ZM18.1921 11.8397H19.7804V13.428H18.1921V11.8397ZM21.3686 11.8397H22.9569V13.428H21.3686V11.8397ZM24.5451 11.8397H26.1334V13.428H24.5451V11.8397ZM27.7216 11.8397H29.3099V13.428H27.7216V11.8397ZM30.8981 11.8397H32.4864V13.428H30.8981V11.8397ZM32.4864 11.8397H34.0746V13.428H32.4864V11.8397ZM34.0746 11.8397H35.6629V13.428H34.0746V11.8397ZM35.6629 11.8397H37.2511V13.428H35.6629V11.8397ZM37.2511 11.8397H38.8394V13.428H37.2511V11.8397ZM38.8394 11.8397H40.4277V13.428H38.8394V11.8397ZM40.4277 11.8397H42.0159V13.428H40.4277V11.8397ZM15.0156 13.428H16.6039V15.0162H15.0156V13.428ZM16.6039 13.428H18.1921V15.0162H16.6039V13.428ZM21.3686 13.428H22.9569V15.0162H21.3686V13.428ZM24.5451 13.428H26.1334V15.0162H24.5451V13.428ZM2.30957 15.0162H3.89782V16.6045H2.30957V15.0162ZM3.89782 15.0162H5.48608V16.6045H3.89782V15.0162ZM7.07433 15.0162H8.66258V16.6045H7.07433V15.0162ZM11.8391 15.0162H13.4273V16.6045H11.8391V15.0162ZM13.4273 15.0162H15.0156V16.6045H13.4273V15.0162ZM18.1921 15.0162H19.7804V16.6045H18.1921V15.0162ZM22.9569 15.0162H24.5451V16.6045H22.9569V15.0162ZM24.5451 15.0162H26.1334V16.6045H24.5451V15.0162ZM26.1334 15.0162H27.7216V16.6045H26.1334V15.0162ZM27.7216 15.0162H29.3099V16.6045H27.7216V15.0162ZM30.8981 15.0162H32.4864V16.6045H30.8981V15.0162ZM32.4864 15.0162H34.0746V16.6045H32.4864V15.0162ZM34.0746 15.0162H35.6629V16.6045H34.0746V15.0162ZM37.2511 15.0162H38.8394V16.6045H37.2511V15.0162ZM38.8394 15.0162H40.4277V16.6045H38.8394V15.0162ZM2.30957 16.6045H3.89782V18.1927H2.30957V16.6045ZM3.89782 16.6045H5.48608V18.1927H3.89782V16.6045ZM5.48608 16.6045H7.07433V18.1927H5.48608V16.6045ZM7.07433 16.6045H8.66258V18.1927H7.07433V16.6045ZM18.1921 16.6045H19.7804V18.1927H18.1921V16.6045ZM19.7804 16.6045H21.3686V18.1927H19.7804V16.6045ZM24.5451 16.6045H26.1334V18.1927H24.5451V16.6045ZM29.3099 16.6045H30.8981V18.1927H29.3099V16.6045ZM30.8981 16.6045H32.4864V18.1927H30.8981V16.6045ZM40.4277 16.6045H42.0159V18.1927H40.4277V16.6045ZM2.30957 18.1927H3.89782V19.781H2.30957V18.1927ZM3.89782 18.1927H5.48608V19.781H3.89782V18.1927ZM7.07433 18.1927H8.66258V19.781H7.07433V18.1927ZM10.2508 18.1927H11.8391V19.781H10.2508V18.1927ZM11.8391 18.1927H13.4273V19.781H11.8391V18.1927ZM15.0156 18.1927H16.6039V19.781H15.0156V18.1927ZM16.6039 18.1927H18.1921V19.781H16.6039V18.1927ZM18.1921 18.1927H19.7804V19.781H18.1921V18.1927ZM22.9569 18.1927H24.5451V19.781H22.9569V18.1927ZM24.5451 18.1927H26.1334V19.781H24.5451V18.1927ZM27.7216 18.1927H29.3099V19.781H27.7216V18.1927ZM29.3099 18.1927H30.8981V19.781H29.3099V18.1927ZM38.8394 18.1927H40.4277V19.781H38.8394V18.1927ZM40.4277 18.1927H42.0159V19.781H40.4277V18.1927ZM2.30957 19.781H3.89782V21.3692H2.30957V19.781ZM5.48608 19.781H7.07433V21.3692H5.48608V19.781ZM7.07433 19.781H8.66258V21.3692H7.07433V19.781ZM13.4273 19.781H15.0156V21.3692H13.4273V19.781ZM15.0156 19.781H16.6039V21.3692H15.0156V19.781ZM22.9569 19.781H24.5451V21.3692H22.9569V19.781ZM24.5451 19.781H26.1334V21.3692H24.5451V19.781ZM30.8981 19.781H32.4864V21.3692H30.8981V19.781ZM2.30957 21.3692H3.89782V22.9575H2.30957V21.3692ZM8.66258 21.3692H10.2508V22.9575H8.66258V21.3692ZM10.2508 21.3692H11.8391V22.9575H10.2508V21.3692ZM11.8391 21.3692H13.4273V22.9575H11.8391V21.3692ZM15.0156 21.3692H16.6039V22.9575H15.0156V21.3692ZM21.3686 21.3692H22.9569V22.9575H21.3686V21.3692ZM22.9569 21.3692H24.5451V22.9575H22.9569V21.3692ZM26.1334 21.3692H27.7216V22.9575H26.1334V21.3692ZM27.7216 21.3692H29.3099V22.9575H27.7216V21.3692ZM29.3099 21.3692H30.8981V22.9575H29.3099V21.3692ZM30.8981 21.3692H32.4864V22.9575H30.8981V21.3692ZM35.6629 21.3692H37.2511V22.9575H35.6629V21.3692ZM38.8394 21.3692H40.4277V22.9575H38.8394V21.3692ZM40.4277 21.3692H42.0159V22.9575H40.4277V21.3692ZM7.07433 22.9575H8.66258V24.5457H7.07433V22.9575ZM10.2508 22.9575H11.8391V24.5457H10.2508V22.9575ZM18.1921 22.9575H19.7804V24.5457H18.1921V22.9575ZM19.7804 22.9575H21.3686V24.5457H19.7804V22.9575ZM21.3686 22.9575H22.9569V24.5457H21.3686V22.9575ZM24.5451 22.9575H26.1334V24.5457H24.5451V22.9575ZM29.3099 22.9575H30.8981V24.5457H29.3099V22.9575ZM30.8981 22.9575H32.4864V24.5457H30.8981V22.9575ZM32.4864 22.9575H34.0746V24.5457H32.4864V22.9575ZM35.6629 22.9575H37.2511V24.5457H35.6629V22.9575ZM37.2511 22.9575H38.8394V24.5457H37.2511V22.9575ZM40.4277 22.9575H42.0159V24.5457H40.4277V22.9575ZM2.30957 24.5457H3.89782V26.134H2.30957V24.5457ZM7.07433 24.5457H8.66258V26.134H7.07433V24.5457ZM11.8391 24.5457H13.4273V26.134H11.8391V24.5457ZM15.0156 24.5457H16.6039V26.134H15.0156V24.5457ZM18.1921 24.5457H19.7804V26.134H18.1921V24.5457ZM21.3686 24.5457H22.9569V26.134H21.3686V24.5457ZM22.9569 24.5457H24.5451V26.134H22.9569V24.5457ZM27.7216 24.5457H29.3099V26.134H27.7216V24.5457ZM30.8981 24.5457H32.4864V26.134H30.8981V24.5457ZM32.4864 24.5457H34.0746V26.134H32.4864V24.5457ZM34.0746 24.5457H35.6629V26.134H34.0746V24.5457ZM37.2511 24.5457H38.8394V26.134H37.2511V24.5457ZM40.4277 24.5457H42.0159V26.134H40.4277V24.5457ZM3.89782 26.134H5.48608V27.7222H3.89782V26.134ZM7.07433 26.134H8.66258V27.7222H7.07433V26.134ZM8.66258 26.134H10.2508V27.7222H8.66258V26.134ZM18.1921 26.134H19.7804V27.7222H18.1921V26.134ZM21.3686 26.134H22.9569V27.7222H21.3686V26.134ZM22.9569 26.134H24.5451V27.7222H22.9569V26.134ZM27.7216 26.134H29.3099V27.7222H27.7216V26.134ZM34.0746 26.134H35.6629V27.7222H34.0746V26.134ZM38.8394 26.134H40.4277V27.7222H38.8394V26.134ZM2.30957 27.7222H3.89782V29.3105H2.30957V27.7222ZM3.89782 27.7222H5.48608V29.3105H3.89782V27.7222ZM5.48608 27.7222H7.07433V29.3105H5.48608V27.7222ZM11.8391 27.7222H13.4273V29.3105H11.8391V27.7222ZM15.0156 27.7222H16.6039V29.3105H15.0156V27.7222ZM16.6039 27.7222H18.1921V29.3105H16.6039V27.7222ZM19.7804 27.7222H21.3686V29.3105H19.7804V27.7222ZM21.3686 27.7222H22.9569V29.3105H21.3686V27.7222ZM26.1334 27.7222H27.7216V29.3105H26.1334V27.7222ZM27.7216 27.7222H29.3099V29.3105H27.7216V27.7222ZM29.3099 27.7222H30.8981V29.3105H29.3099V27.7222ZM30.8981 27.7222H32.4864V29.3105H30.8981V27.7222ZM32.4864 27.7222H34.0746V29.3105H32.4864V27.7222ZM34.0746 27.7222H35.6629V29.3105H34.0746V27.7222ZM35.6629 27.7222H37.2511V29.3105H35.6629V27.7222ZM37.2511 27.7222H38.8394V29.3105H37.2511V27.7222ZM15.0156 29.3105H16.6039V30.8987H15.0156V29.3105ZM16.6039 29.3105H18.1921V30.8987H16.6039V29.3105ZM18.1921 29.3105H19.7804V30.8987H18.1921V29.3105ZM22.9569 29.3105H24.5451V30.8987H22.9569V29.3105ZM24.5451 29.3105H26.1334V30.8987H24.5451V29.3105ZM26.1334 29.3105H27.7216V30.8987H26.1334V29.3105ZM27.7216 29.3105H29.3099V30.8987H27.7216V29.3105ZM34.0746 29.3105H35.6629V30.8987H34.0746V29.3105ZM35.6629 29.3105H37.2511V30.8987H35.6629V29.3105ZM40.4277 29.3105H42.0159V30.8987H40.4277V29.3105ZM2.30957 30.8987H3.89782V32.487H2.30957V30.8987ZM3.89782 30.8987H5.48608V32.487H3.89782V30.8987ZM5.48608 30.8987H7.07433V32.487H5.48608V30.8987ZM7.07433 30.8987H8.66258V32.487H7.07433V30.8987ZM8.66258 30.8987H10.2508V32.487H8.66258V30.8987ZM10.2508 30.8987H11.8391V32.487H10.2508V30.8987ZM11.8391 30.8987H13.4273V32.487H11.8391V30.8987ZM15.0156 30.8987H16.6039V32.487H15.0156V30.8987ZM21.3686 30.8987H22.9569V32.487H21.3686V30.8987ZM22.9569 30.8987H24.5451V32.487H22.9569V30.8987ZM26.1334 30.8987H27.7216V32.487H26.1334V30.8987ZM27.7216 30.8987H29.3099V32.487H27.7216V30.8987ZM30.8981 30.8987H32.4864V32.487H30.8981V30.8987ZM34.0746 30.8987H35.6629V32.487H34.0746V30.8987ZM35.6629 30.8987H37.2511V32.487H35.6629V30.8987ZM38.8394 30.8987H40.4277V32.487H38.8394V30.8987ZM40.4277 30.8987H42.0159V32.487H40.4277V30.8987ZM2.30957 32.487H3.89782V34.0752H2.30957V32.487ZM11.8391 32.487H13.4273V34.0752H11.8391V32.487ZM16.6039 32.487H18.1921V34.0752H16.6039V32.487ZM24.5451 32.487H26.1334V34.0752H24.5451V32.487ZM27.7216 32.487H29.3099V34.0752H27.7216V32.487ZM34.0746 32.487H35.6629V34.0752H34.0746V32.487ZM35.6629 32.487H37.2511V34.0752H35.6629V32.487ZM37.2511 32.487H38.8394V34.0752H37.2511V32.487ZM2.30957 34.0752H3.89782V35.6635H2.30957V34.0752ZM5.48608 34.0752H7.07433V35.6635H5.48608V34.0752ZM7.07433 34.0752H8.66258V35.6635H7.07433V34.0752ZM8.66258 34.0752H10.2508V35.6635H8.66258V34.0752ZM11.8391 34.0752H13.4273V35.6635H11.8391V34.0752ZM16.6039 34.0752H18.1921V35.6635H16.6039V34.0752ZM19.7804 34.0752H21.3686V35.6635H19.7804V34.0752ZM21.3686 34.0752H22.9569V35.6635H21.3686V34.0752ZM22.9569 34.0752H24.5451V35.6635H22.9569V34.0752ZM24.5451 34.0752H26.1334V35.6635H24.5451V34.0752ZM27.7216 34.0752H29.3099V35.6635H27.7216V34.0752ZM29.3099 34.0752H30.8981V35.6635H29.3099V34.0752ZM30.8981 34.0752H32.4864V35.6635H30.8981V34.0752ZM32.4864 34.0752H34.0746V35.6635H32.4864V34.0752ZM34.0746 34.0752H35.6629V35.6635H34.0746V34.0752ZM35.6629 34.0752H37.2511V35.6635H35.6629V34.0752ZM38.8394 34.0752H40.4277V35.6635H38.8394V34.0752ZM2.30957 35.6635H3.89782V37.2518H2.30957V35.6635ZM5.48608 35.6635H7.07433V37.2518H5.48608V35.6635ZM7.07433 35.6635H8.66258V37.2518H7.07433V35.6635ZM8.66258 35.6635H10.2508V37.2518H8.66258V35.6635ZM11.8391 35.6635H13.4273V37.2518H11.8391V35.6635ZM15.0156 35.6635H16.6039V37.2518H15.0156V35.6635ZM21.3686 35.6635H22.9569V37.2518H21.3686V35.6635ZM32.4864 35.6635H34.0746V37.2518H32.4864V35.6635ZM34.0746 35.6635H35.6629V37.2518H34.0746V35.6635ZM35.6629 35.6635H37.2511V37.2518H35.6629V35.6635ZM37.2511 35.6635H38.8394V37.2518H37.2511V35.6635ZM2.30957 37.2518H3.89782V38.84H2.30957V37.2518ZM5.48608 37.2518H7.07433V38.84H5.48608V37.2518ZM7.07433 37.2518H8.66258V38.84H7.07433V37.2518ZM8.66258 37.2518H10.2508V38.84H8.66258V37.2518ZM11.8391 37.2518H13.4273V38.84H11.8391V37.2518ZM18.1921 37.2518H19.7804V38.84H18.1921V37.2518ZM27.7216 37.2518H29.3099V38.84H27.7216V37.2518ZM32.4864 37.2518H34.0746V38.84H32.4864V37.2518ZM34.0746 37.2518H35.6629V38.84H34.0746V37.2518ZM37.2511 37.2518H38.8394V38.84H37.2511V37.2518ZM40.4277 37.2518H42.0159V38.84H40.4277V37.2518ZM2.30957 38.84H3.89782V40.4283H2.30957V38.84ZM11.8391 38.84H13.4273V40.4283H11.8391V38.84ZM15.0156 38.84H16.6039V40.4283H15.0156V38.84ZM19.7804 38.84H21.3686V40.4283H19.7804V38.84ZM22.9569 38.84H24.5451V40.4283H22.9569V38.84ZM24.5451 38.84H26.1334V40.4283H24.5451V38.84ZM26.1334 38.84H27.7216V40.4283H26.1334V38.84ZM27.7216 38.84H29.3099V40.4283H27.7216V38.84ZM29.3099 38.84H30.8981V40.4283H29.3099V38.84ZM30.8981 38.84H32.4864V40.4283H30.8981V38.84ZM35.6629 38.84H37.2511V40.4283H35.6629V38.84ZM2.30957 40.4283H3.89782V42.0165H2.30957V40.4283ZM3.89782 40.4283H5.48608V42.0165H3.89782V40.4283ZM5.48608 40.4283H7.07433V42.0165H5.48608V40.4283ZM7.07433 40.4283H8.66258V42.0165H7.07433V40.4283ZM8.66258 40.4283H10.2508V42.0165H8.66258V40.4283ZM10.2508 40.4283H11.8391V42.0165H10.2508V40.4283ZM11.8391 40.4283H13.4273V42.0165H11.8391V40.4283ZM15.0156 40.4283H16.6039V42.0165H15.0156V40.4283ZM16.6039 40.4283H18.1921V42.0165H16.6039V40.4283ZM18.1921 40.4283H19.7804V42.0165H18.1921V40.4283ZM21.3686 40.4283H22.9569V42.0165H21.3686V40.4283ZM22.9569 40.4283H24.5451V42.0165H22.9569V40.4283ZM26.1334 40.4283H27.7216V42.0165H26.1334V40.4283ZM27.7216 40.4283H29.3099V42.0165H27.7216V40.4283ZM30.8981 40.4283H32.4864V42.0165H30.8981V40.4283ZM32.4864 40.4283H34.0746V42.0165H32.4864V40.4283ZM38.8394 40.4283H40.4277V42.0165H38.8394V40.4283ZM40.4277 40.4283H42.0159V42.0165H40.4277V40.4283Z" fill="white"/>
</g>
<defs>
<clipPath id="clip0_902_2609">
<rect x="0.72168" y="0.721924" width="42.8828" height="42.8828" rx="1.68996" fill="white"/>
</clipPath>
</defs>
</svg>
