<svg width="106" height="64" viewBox="0 0 106 64" fill="none" xmlns="http://www.w3.org/2000/svg">
<path d="M0.821777 51.2093L13.8664 51.1682L26.9109 51.1527L53.0001 51.1235L79.0892 51.1527L92.1338 51.1682L105.178 51.2093L92.1338 51.2522L79.0892 51.266L53.0001 51.2952L26.9109 51.266L13.8664 51.2505L0.821777 51.2093Z" fill="#263238"/>
<path d="M53.3436 64.0002C80.5212 64.0002 102.553 61.586 102.553 58.608C102.553 55.63 80.5212 53.2158 53.3436 53.2158C26.166 53.2158 4.13428 55.63 4.13428 58.608C4.13428 61.586 26.166 64.0002 53.3436 64.0002Z" fill="#333333"/>
<path d="M87.8936 59.768H35.6055L43.1652 16.8896H95.4533L87.8936 59.768Z" fill="#333333"/>
<path d="M61.0607 12.4478H43.9488L43.1646 16.8892H61.4778L61.0607 12.4478Z" fill="#333333"/>
<g opacity="0.1">
<path opacity="0.1" d="M87.8921 59.7676H35.604L43.1637 16.8892H95.4518L87.8921 59.7676Z" fill="#333333"/>
<path opacity="0.1" d="M61.0597 12.4478H43.9479L43.1636 16.8892H61.4768L61.0597 12.4478Z" fill="#333333"/>
</g>
<path d="M42.1019 14.2602C41.9875 13.769 41.9875 13.2582 42.1019 12.7671C42.2164 13.2582 42.2164 13.769 42.1019 14.2602Z" fill="#FCFCFC"/>
<path d="M40.5817 14.6997C40.407 14.5185 40.2564 14.3155 40.1338 14.0956C40.0052 13.8804 39.9043 13.6497 39.8335 13.4092C40.0087 13.5893 40.1594 13.7919 40.2814 14.0116C40.4097 14.2276 40.5106 14.4588 40.5817 14.6997Z" fill="#FCFCFC"/>
<path d="M39.4837 15.8413C39.0014 15.6946 38.5593 15.4392 38.1914 15.0947C38.432 15.1647 38.6627 15.265 38.8779 15.3933C39.0977 15.5167 39.3013 15.6672 39.4837 15.8413Z" fill="#FCFCFC"/>
<path d="M39.099 17.3783C38.6079 17.4927 38.0971 17.4927 37.606 17.3783C38.0971 17.2639 38.6079 17.2639 39.099 17.3783Z" fill="#FCFCFC"/>
<path d="M39.545 18.8989C39.363 19.0728 39.1601 19.2232 38.9409 19.3468C38.7257 19.4752 38.495 19.5755 38.2544 19.6455C38.4356 19.4707 38.6386 19.3202 38.8585 19.1975C39.0734 19.0686 39.3041 18.9682 39.545 18.8989Z" fill="#263238"/>
<path d="M40.6845 19.9956C40.5384 20.4786 40.283 20.9214 39.938 21.2896C40.0079 21.0487 40.1088 20.8179 40.2383 20.6031C40.3607 20.3825 40.5106 20.1783 40.6845 19.9956Z" fill="#263238"/>
<path d="M42.223 20.375C42.2828 20.6193 42.3117 20.8701 42.3088 21.1215C42.3125 21.373 42.2837 21.624 42.223 21.8681C42.1615 21.6241 42.1326 21.3731 42.1372 21.1215C42.1343 20.8701 42.1632 20.6193 42.223 20.375Z" fill="#263238"/>
<path d="M43.7427 19.9439C43.9174 20.1251 44.068 20.3281 44.1906 20.548C44.3195 20.7628 44.4199 20.9936 44.4892 21.2344C44.1442 20.8662 43.8888 20.4234 43.7427 19.9404V19.9439Z" fill="#263238"/>
<path d="M44.8398 18.7944C45.0807 18.8637 45.3114 18.9641 45.5263 19.093C45.7462 19.2157 45.9492 19.3662 46.1304 19.541C45.8896 19.4717 45.6588 19.3713 45.4439 19.2424C45.2241 19.1197 45.021 18.9692 44.8398 18.7944Z" fill="#263238"/>
<path d="M45.2188 17.2567C45.7104 17.1423 46.2218 17.1423 46.7135 17.2567C46.2218 17.3711 45.7104 17.3711 45.2188 17.2567Z" fill="#FCFCFC"/>
<path d="M44.7793 15.7363C44.961 15.5626 45.164 15.4127 45.3834 15.2901C45.5979 15.1599 45.8287 15.0589 46.0699 14.9897C45.7016 15.3347 45.2588 15.5902 44.7759 15.7363H44.7793Z" fill="#FCFCFC"/>
<path d="M43.6382 14.6392C43.7088 14.3989 43.8091 14.1683 43.9368 13.9527C44.0594 13.7329 44.21 13.5298 44.3847 13.3486C44.3154 13.5895 44.215 13.8202 44.0861 14.0351C43.9635 14.2549 43.8129 14.458 43.6382 14.6392Z" fill="#FCFCFC"/>
<path d="M87.8161 59.7681H35.4164L27.9751 18.4463H80.3765L87.8161 59.7681Z" fill="#828282"/>
<path d="M46.1339 43.7062C47.3366 43.7062 48.3117 42.7312 48.3117 41.5284C48.3117 40.3256 47.3366 39.3506 46.1339 39.3506C44.9311 39.3506 43.9561 40.3256 43.9561 41.5284C43.9561 42.7312 44.9311 43.7062 46.1339 43.7062Z" fill="#263238"/>
<path d="M63.3502 43.7062C64.553 43.7062 65.528 42.7312 65.528 41.5284C65.528 40.3256 64.553 39.3506 63.3502 39.3506C62.1474 39.3506 61.1724 40.3256 61.1724 41.5284C61.1724 42.7312 62.1474 43.7062 63.3502 43.7062Z" fill="#263238"/>
<path d="M57.8707 44.0546L57.7505 43.8264C57.7403 43.8058 56.6144 41.7258 54.3508 41.7258C52.2914 41.7258 51.7766 43.6839 51.7628 43.768L51.7011 44.0169L51.2017 43.8967L51.2617 43.6462C51.2617 43.6221 51.8761 41.2109 54.3508 41.2109C56.9251 41.2109 58.1556 43.49 58.207 43.5878L58.3272 43.8144L57.8707 44.0546Z" fill="#263238"/>
<path d="M84.3568 41.3619L84.3208 41.1903C84.4324 41.1662 84.5422 41.1405 84.652 41.1113L84.6949 41.2829C84.5782 41.3121 84.4701 41.3379 84.3568 41.3619Z" fill="#263238"/>
<path d="M85.3587 41.0857L85.3038 40.9244C85.5183 40.8506 85.7329 40.7699 85.9405 40.6824L86.0074 40.8403C85.7964 40.9295 85.5784 41.0119 85.3587 41.0857ZM86.6373 40.5382L86.56 40.3872C86.7608 40.2825 86.9616 40.1692 87.1521 40.044L87.2414 40.1898C87.0457 40.3254 86.8415 40.4404 86.6373 40.5382ZM87.818 39.8123L87.7167 39.6733C87.9021 39.5377 88.0806 39.3952 88.2488 39.2494L88.362 39.3781C88.1818 39.5343 88.0102 39.6801 87.8163 39.8191L87.818 39.8123ZM88.8649 38.8993L88.7396 38.7809C88.8975 38.6092 89.0468 38.4376 89.1841 38.266L89.3196 38.3707C89.1772 38.5595 89.0245 38.7362 88.8683 38.9061L88.8649 38.8993ZM89.7144 37.8009L89.5685 37.71C89.6871 37.5183 89.7926 37.3187 89.8843 37.1127L90.0421 37.1831C89.9451 37.3979 89.8351 37.6065 89.7126 37.8078L89.7144 37.8009ZM90.2824 36.5275L90.1108 36.4795C90.1735 36.2642 90.22 36.0445 90.2498 35.8222L90.4214 35.8445C90.393 36.0779 90.3459 36.3086 90.2807 36.5344L90.2824 36.5275ZM90.4729 35.1546H90.3013V35.1048C90.3013 34.8972 90.2893 34.6861 90.2687 34.4784L90.4403 34.4613C90.4628 34.6751 90.4743 34.8899 90.4746 35.1048L90.4729 35.1546ZM90.164 33.8108C90.1178 33.5896 90.0605 33.3708 89.9924 33.1553L90.164 33.1038C90.2344 33.3269 90.2944 33.5534 90.3356 33.7748L90.164 33.8108ZM89.7573 32.5186C89.6749 32.3161 89.5856 32.1084 89.4758 31.899L89.6303 31.8218C89.7349 32.0346 89.8311 32.2474 89.9151 32.4534L89.7573 32.5186ZM89.1566 31.2949C89.0502 31.1079 88.9335 30.9105 88.8134 30.708L88.9592 30.6171C89.0845 30.8213 89.2029 31.0204 89.3025 31.2109L89.1566 31.2949ZM88.4392 30.1297C88.314 29.9409 88.187 29.7504 88.0565 29.5599L88.199 29.4638C88.3294 29.6543 88.4564 29.8448 88.5817 30.037L88.4392 30.1297ZM87.667 28.9936C87.5383 28.8048 87.4078 28.6143 87.2808 28.4255L87.4233 28.3294C87.5503 28.5182 87.679 28.7087 87.8077 28.8957L87.667 28.9936ZM86.8998 27.8506C86.7746 27.6584 86.6527 27.4627 86.5326 27.2671L86.6785 27.1779C86.7986 27.3735 86.9204 27.5657 87.044 27.7579L86.8998 27.8506ZM86.1842 26.6716C86.0675 26.4639 85.9594 26.258 85.8616 26.0606L86.016 25.9834C86.1121 26.1791 86.2202 26.3816 86.3335 26.5875L86.1842 26.6716ZM85.575 25.436C85.484 25.2214 85.4033 25.0035 85.3278 24.7907L85.4995 24.7358C85.5715 24.9434 85.6522 25.1579 85.7414 25.369L85.575 25.436ZM85.1288 24.1265C85.0721 23.9034 85.0224 23.6752 84.9846 23.4401L85.1562 23.4126C85.194 23.6323 85.2403 23.8554 85.2969 24.075L85.1288 24.1265ZM84.8988 22.7536C84.8816 22.5425 84.873 22.3297 84.873 22.1169V22.0603H85.0447V22.1152C85.0447 22.3228 85.0447 22.5322 85.0704 22.7381L84.8988 22.7536ZM85.0704 21.3807L84.8988 21.3635C84.8988 21.3172 84.9074 21.2691 84.9125 21.2193C84.9331 21.0357 84.9589 20.8521 84.9898 20.677L85.1614 20.7062C85.1322 20.8778 85.1065 21.058 85.0859 21.2382C85.0927 21.2914 85.0927 21.3378 85.079 21.3858L85.0704 21.3807ZM85.309 20.0455L85.1373 19.9991C85.2008 19.7726 85.2746 19.5512 85.357 19.3401L85.5166 19.4019C85.4386 19.6144 85.3722 19.831 85.3175 20.0506L85.309 20.0455ZM93.8606 19.045C93.7645 19.045 93.665 19.0312 93.5671 19.0175C93.4333 18.9986 93.2994 18.9763 93.1673 18.9506L93.2016 18.779C93.3286 18.803 93.4607 18.8253 93.5912 18.8442C93.6839 18.8562 93.7782 18.8648 93.8692 18.8699L93.8606 19.045ZM94.566 18.9918L94.5299 18.8201C94.7453 18.7757 94.9518 18.6956 95.1409 18.5833L95.2301 18.7292C95.028 18.8543 94.8064 18.9447 94.5745 18.9969L94.566 18.9918ZM85.8032 18.7875L85.6505 18.7069C85.7598 18.5022 85.8807 18.3039 86.0126 18.1131L86.1533 18.2109C86.0279 18.3978 85.9138 18.5921 85.8118 18.7927L85.8032 18.7875ZM92.4963 18.7772C92.2747 18.707 92.057 18.625 91.8441 18.5318L91.9145 18.3739C92.1208 18.4656 92.3322 18.5453 92.5477 18.6125L92.4963 18.7772ZM95.757 18.2418L95.6145 18.1457C95.7367 17.9684 95.8091 17.7615 95.8239 17.5467L95.9955 17.5588C95.9809 17.805 95.9003 18.0427 95.7621 18.2469L95.757 18.2418ZM91.2263 18.216C91.0255 18.0993 90.8312 17.9715 90.6445 17.8333L90.7458 17.696C90.9275 17.8301 91.1166 17.9538 91.3121 18.0667L91.2263 18.216ZM86.5755 17.6806L86.4485 17.5656C86.6039 17.3928 86.7695 17.2295 86.9445 17.0765L87.0577 17.2052C86.8894 17.3559 86.7301 17.5163 86.5806 17.6858L86.5755 17.6806ZM90.1091 17.3906C89.9382 17.2331 89.776 17.0664 89.6234 16.8912L89.7521 16.7779C89.9006 16.9481 90.0582 17.1102 90.2241 17.2636L90.1091 17.3906ZM95.6952 16.9255C95.5969 16.7294 95.461 16.5544 95.2953 16.4106L95.4086 16.2819C95.5909 16.4397 95.7407 16.6314 95.8496 16.8465L95.6952 16.9255ZM87.5915 16.7899L87.4936 16.6492C87.6856 16.5181 87.8844 16.3972 88.0892 16.2871L88.1698 16.4381C87.9727 16.5471 87.7813 16.6662 87.5966 16.7951L87.5915 16.7899ZM89.1944 16.3437C89.1291 16.251 89.0656 16.1567 89.0056 16.0588L88.7825 16.1464L88.7173 15.9885L88.9146 15.9095C88.8837 15.858 88.8528 15.8066 88.8237 15.7551L88.973 15.671C89.0073 15.731 89.0416 15.7911 89.0777 15.8426C89.1738 15.8083 89.2716 15.7757 89.3711 15.7448L89.4209 15.9164C89.3368 15.9421 89.2493 15.9696 89.1703 15.9988C89.2235 16.0829 89.2785 16.1704 89.3419 16.2442L89.1944 16.3437ZM94.7427 16.0485C94.5767 15.9658 94.4045 15.8958 94.2279 15.8392L94.1146 15.8031L94.1644 15.6315L94.2811 15.6693C94.465 15.7279 94.644 15.8007 94.8165 15.8872L94.7427 16.0485ZM90.0782 15.7413L90.0421 15.5697C90.2635 15.52 90.4935 15.4788 90.7286 15.4462L90.7544 15.6178C90.5278 15.6538 90.303 15.6967 90.0833 15.7465L90.0782 15.7413ZM93.459 15.6487C93.2445 15.6109 93.018 15.5817 92.7863 15.5611L92.8 15.3895C93.0386 15.4101 93.2702 15.4393 93.4865 15.4788L93.459 15.6487ZM91.4254 15.5491L91.4134 15.3775C91.6176 15.3655 91.8218 15.3586 92.0243 15.3586H92.1084V15.5302H92.026C91.8321 15.5354 91.6296 15.5405 91.4305 15.5543L91.4254 15.5491ZM88.5251 15.139C88.4324 14.9296 88.3534 14.7116 88.2762 14.4903L88.4478 14.4371C88.5199 14.6533 88.6006 14.8661 88.6898 15.0703L88.5251 15.139ZM88.0909 13.8209C88.0394 13.5996 87.9965 13.3696 87.9639 13.1345L88.1355 13.1105C88.1681 13.337 88.2093 13.5618 88.259 13.7798L88.0909 13.8209ZM87.8986 12.448C87.8901 12.2936 87.8849 12.1357 87.8849 11.9778C87.8849 11.904 87.8849 11.8285 87.8849 11.7547H88.0565C88.0565 11.8285 88.0565 11.9006 88.0565 11.9744C88.0565 12.1288 88.0565 12.285 88.0686 12.4343L87.8986 12.448ZM88.1029 11.0751L87.9313 11.0579C87.9553 10.8314 87.9879 10.5997 88.0274 10.3715L88.199 10.4006C88.1526 10.6289 88.12 10.8485 88.0977 11.0785L88.1029 11.0751ZM88.338 9.73476L88.1664 9.69357C88.2213 9.47219 88.2848 9.24908 88.3552 9.02598L88.5268 9.07918C88.4495 9.304 88.386 9.52195 88.3328 9.73819L88.338 9.73476ZM88.7499 8.43562L88.5903 8.37384C88.6744 8.15932 88.7619 7.9448 88.8666 7.73714L89.021 7.81265C88.9181 8.01859 88.8271 8.22797 88.7447 8.44592L88.7499 8.43562ZM89.3402 7.21199L89.1909 7.12447C89.3076 6.92711 89.4329 6.72975 89.5633 6.54097L89.7041 6.6388C89.5702 6.82757 89.4483 7.01978 89.3351 7.21543L89.3402 7.21199ZM90.1142 6.09477L89.9804 5.98665C90.1245 5.81504 90.279 5.63312 90.4386 5.4718L90.5621 5.59022C90.4008 5.75154 90.2498 5.92315 90.1091 6.0982L90.1142 6.09477ZM91.0478 5.10626L90.9328 4.97926C91.1045 4.82653 91.2761 4.6755 91.4597 4.52963L91.5661 4.66521C91.3825 4.81108 91.2074 4.96039 91.0427 5.10969L91.0478 5.10626ZM92.1136 4.25847L92.0157 4.11603C92.2028 3.98732 92.3984 3.86032 92.5975 3.74019L92.685 3.88607C92.486 4.00791 92.3006 4.13319 92.1084 4.26191L92.1136 4.25847ZM93.2788 3.5497L93.1982 3.39867C93.4007 3.29056 93.61 3.18759 93.8194 3.09148L93.8915 3.24765C93.6736 3.34547 93.4728 3.44844 93.2737 3.55313L93.2788 3.5497ZM94.5196 2.97993L94.4561 2.81861C94.6724 2.73452 94.8903 2.64699 95.1065 2.5835L95.1615 2.75511C94.9435 2.82033 94.7273 2.89927 94.5145 2.98336L94.5196 2.97993Z" fill="#BDBDBD"/>
<path d="M95.8432 2.54597L95.8003 2.37435C96.0131 2.31944 96.1435 2.29541 96.1435 2.29541L96.1744 2.46703C96.1744 2.46703 96.0509 2.49277 95.8432 2.54597Z" fill="#263238"/>
<path d="M98.8768 1.43749C98.4392 0.0817155 95.508 0.569106 96.0794 2.34191C96.6509 4.1147 99.3144 2.79497 98.8768 1.43749Z" fill="#263238"/>
<path d="M94.4853 0.89488C94.5076 0.29937 95.3348 -0.158847 96.5053 0.0522417C97.6757 0.26333 98.7757 1.05277 98.7757 1.05277C98.7757 1.05277 97.6208 1.75296 96.4383 1.88167C95.2559 2.01039 94.463 1.48867 94.4853 0.89488Z" fill="#EBEBEB"/>
<path d="M98.7755 1.0489C98.1679 1.0489 97.5621 1.03174 96.9563 1.01286C96.3505 0.993983 95.743 0.963092 95.1372 0.915039C95.7447 0.915039 96.3522 0.930484 96.9581 0.949362C97.5639 0.96824 98.1714 0.999131 98.7755 1.0489Z" fill="#263238"/>
<path d="M95.6606 0.364258C96.0055 0.529253 96.3308 0.732462 96.6303 0.970064C96.4577 0.889074 96.2903 0.797365 96.1292 0.695477C95.9667 0.59429 95.8102 0.483697 95.6606 0.364258Z" fill="#263238"/>
<path d="M97.252 0.992676C96.9416 1.24428 96.605 1.46177 96.248 1.64139C96.5601 1.38947 96.8984 1.17197 97.2572 0.992676H97.252Z" fill="#263238"/>
<path d="M97.4287 0.658203C97.6019 0.741357 97.7535 0.863544 97.8715 1.01516C97.7849 0.974295 97.7036 0.923002 97.6295 0.862426C97.555 0.802228 97.4876 0.73371 97.4287 0.658203Z" fill="#263238"/>
<path d="M95.6015 4.42193C95.967 4.89216 96.9058 4.77889 97.7312 3.92424C98.5567 3.06959 98.9943 1.78418 98.9943 1.78418C98.9943 1.78418 97.642 1.88715 96.6106 2.47065C95.5792 3.05414 95.2342 3.94998 95.6015 4.42193Z" fill="#EBEBEB"/>
<path d="M98.9935 1.78418C98.4992 2.12741 98.0187 2.5084 97.5364 2.87738C97.0542 3.24635 96.5823 3.62734 96.1206 4.02034C96.6149 3.67711 97.0954 3.29784 97.5759 2.92886C98.0564 2.55989 98.525 2.1789 98.9935 1.78418Z" fill="#263238"/>
<path d="M96.8623 4.15579C96.954 3.98909 97.036 3.81718 97.1077 3.64094C97.1807 3.46421 97.2426 3.28309 97.2931 3.09863C97.2011 3.2652 97.1191 3.43712 97.0476 3.61348C96.9753 3.79048 96.9134 3.97156 96.8623 4.15579Z" fill="#263238"/>
<path d="M97.7926 2.72098C97.3911 2.69951 96.9884 2.7208 96.5913 2.78448C96.7913 2.79649 96.9919 2.79649 97.192 2.78448C97.3932 2.77466 97.5938 2.75346 97.7926 2.72098Z" fill="#263238"/>
<path d="M98.124 2.89073C98.1699 2.80598 98.2056 2.71612 98.2304 2.62301C98.2558 2.53058 98.2708 2.4356 98.275 2.33984C98.1838 2.50973 98.1322 2.69806 98.124 2.89073Z" fill="#263238"/>
<path d="M98.8765 1.43715C98.7796 1.46862 98.6755 1.47062 98.5774 1.4429C98.4794 1.41518 98.3917 1.35898 98.3256 1.28142C98.2595 1.20387 98.2179 1.10844 98.2061 1.00722C98.1943 0.906009 98.2128 0.803562 98.2592 0.712854C98.3056 0.622146 98.378 0.547258 98.467 0.497675C98.556 0.448091 98.6577 0.426041 98.7593 0.434319C98.8609 0.442596 98.9577 0.480827 99.0375 0.544172C99.1173 0.607516 99.1766 0.693123 99.2077 0.790153C99.2493 0.919876 99.2379 1.06081 99.1758 1.18208C99.1137 1.30335 99.0061 1.39507 98.8765 1.43715Z" fill="#455A64"/>
<path d="M99.1934 2.41729C99.0965 2.44864 98.9925 2.45056 98.8946 2.42281C98.7966 2.39507 98.7091 2.3389 98.643 2.26142C98.577 2.18393 98.5354 2.0886 98.5235 1.98749C98.5117 1.88637 98.53 1.784 98.5763 1.69333C98.6226 1.60265 98.6948 1.52774 98.7836 1.47806C98.8725 1.42837 98.9741 1.40616 99.0756 1.41421C99.1771 1.42227 99.2739 1.46023 99.3538 1.52331C99.4338 1.58638 99.4932 1.67174 99.5246 1.76858C99.5455 1.83292 99.5535 1.90075 99.5481 1.96818C99.5428 2.03561 99.5242 2.10132 99.4934 2.16157C99.4627 2.22181 99.4203 2.27541 99.3688 2.31928C99.3174 2.36316 99.2577 2.39647 99.1934 2.41729Z" fill="#455A64"/>
</svg>
