<svg width="56" height="81" viewBox="0 0 56 81" fill="none" xmlns="http://www.w3.org/2000/svg">
<path d="M47.7355 21.5294V42.8404H41.7151V21.5294C41.7151 13.4312 35.5654 6.84764 28.0152 6.84764C20.465 6.84764 14.3153 13.4312 14.3153 21.5294V42.8404H8.29492V21.5294C8.29492 9.93012 17.1466 0.5 28.0304 0.5C38.9143 0.5 47.7355 9.93012 47.7355 21.5294Z" fill="#FCFCFC"/>
<path d="M8.26465 27.0625L14.285 27.3061V42.825H8.26465V27.0625Z" fill="#A6A6A6"/>
<path d="M47.7362 28.6684V42.825H41.7158V28.4248L47.7362 28.6684Z" fill="#A6A6A6"/>
<path d="M55.4458 30.7007H0.554688V80.4999H55.4458V30.7007Z" fill="#333333"/>
<path opacity="0.5" d="M55.4455 30.7007H28V80.4999H55.4455V30.7007Z" fill="#828282"/>
<path d="M30.3218 57.4235L32.6051 68.3226H22.8706L25.1539 57.4235C24.2535 56.8636 23.56 56.0256 23.1784 55.0363C22.7969 54.0471 22.748 52.9604 23.0391 51.9409C23.3303 50.9213 23.9456 50.0244 24.7921 49.3858C25.6385 48.7473 26.6699 48.4019 27.7302 48.4019C28.7905 48.4019 29.822 48.7473 30.6684 49.3858C31.5149 50.0244 32.1303 50.9213 32.4214 51.9409C32.7126 52.9604 32.6637 54.0471 32.2821 55.0363C31.9005 56.0256 31.207 56.8636 30.3066 57.4235H30.3218Z" fill="#828282"/>
</svg>
