<svg width="323" height="191" viewBox="0 0 323 191" fill="none" xmlns="http://www.w3.org/2000/svg">
<g clip-path="url(#clip0_1_737)">
<path d="M319.813 158.27C312.732 179.409 297.469 189.356 282.728 190.415H69.1731C50.942 190.208 9.75041 182.071 1.5472 142.722C-2.14478 125.007 0.664102 106.083 11.1229 91.073C23.4171 73.4057 42.8612 67.0214 61.8796 59.1729C78.3712 52.3626 89.1439 37.9594 101.917 26.2239C114.392 14.7545 128.729 5.79311 145.63 2.66221C181.124 -3.91908 223.044 3.98805 245.957 34.115C256.006 47.3255 266.029 59.7426 278.515 70.7753C286.665 77.9796 295.469 84.3798 302.986 92.3029C320.041 110.295 327.883 134.165 319.813 158.27Z" fill="url(#paint0_linear_1_737)"/>
<path d="M240.919 144.367H240.855C224.247 138.243 219.837 119.463 215.576 101.296C213.059 90.5718 210.458 79.4645 205.377 71.0888C199.685 61.6908 191.418 56.7548 180.092 56.004C160.659 54.7048 150.833 65.5884 141.374 76.1419C133.698 84.6933 125.734 93.5429 112.647 96.0455C112.612 96.0519 112.576 96.0443 112.546 96.0245C112.516 96.0046 112.495 95.974 112.487 95.939C112.484 95.9218 112.483 95.904 112.487 95.8867C112.49 95.8695 112.497 95.8531 112.507 95.8386C112.517 95.8241 112.53 95.8118 112.545 95.8025C112.56 95.7932 112.576 95.7871 112.594 95.7846C125.58 93.2767 133.512 84.4644 141.183 75.9396C150.705 65.3542 160.552 54.4066 180.113 55.7059C191.53 56.462 199.871 61.4405 205.611 70.9184C210.713 79.3474 213.32 90.46 215.842 101.205C220.097 119.309 224.476 138.009 240.951 144.085C240.979 144.097 241.002 144.118 241.016 144.144C241.031 144.171 241.036 144.202 241.03 144.232C241.024 144.262 241.009 144.289 240.986 144.308C240.963 144.328 240.934 144.339 240.903 144.34L240.919 144.367Z" fill="white"/>
<path d="M118.433 81.7327C118.399 81.7328 118.367 81.7202 118.342 81.6975C118.318 81.6748 118.302 81.6436 118.3 81.6102C118.297 81.5757 118.307 81.5414 118.329 81.5146C118.351 81.4877 118.382 81.4705 118.417 81.4664C118.507 81.4664 127.514 80.0022 130.876 71.5093C130.882 71.4929 130.891 71.4779 130.903 71.4652C130.915 71.4524 130.929 71.4423 130.945 71.4353C130.961 71.4283 130.978 71.4246 130.996 71.4246C131.013 71.4245 131.03 71.428 131.046 71.4348C131.063 71.4412 131.078 71.4509 131.091 71.4633C131.103 71.4757 131.114 71.4905 131.12 71.5069C131.127 71.5233 131.131 71.5409 131.131 71.5587C131.131 71.5765 131.128 71.5941 131.121 71.6105C127.705 80.2418 118.539 81.7274 118.449 81.7274L118.433 81.7327Z" fill="white"/>
<path d="M157.581 35.8129C157.558 35.8177 157.535 35.8177 157.512 35.8129C157.482 35.7951 157.46 35.7661 157.451 35.7322C157.442 35.6983 157.447 35.6622 157.464 35.6318C159.9 31.7136 163.019 28.2653 166.673 25.4511C172.216 21.1913 181.355 16.9316 193.453 20.547C193.469 20.5519 193.485 20.56 193.498 20.5711C193.512 20.5821 193.523 20.5958 193.531 20.6112C193.539 20.6267 193.544 20.6436 193.545 20.6609C193.546 20.6783 193.544 20.6957 193.538 20.7121C193.533 20.7288 193.525 20.7444 193.514 20.7578C193.503 20.7712 193.489 20.7823 193.474 20.7903C193.458 20.7982 193.441 20.803 193.424 20.8042C193.407 20.8054 193.389 20.8031 193.373 20.7973C181.393 17.1978 172.333 21.4522 166.843 25.6587C163.212 28.4551 160.113 31.8818 157.693 35.7756C157.678 35.7903 157.661 35.8014 157.641 35.8079C157.622 35.8144 157.601 35.8161 157.581 35.8129Z" fill="white"/>
<path d="M252.137 94.2457C248.11 94.2457 244.636 92.9678 241.939 90.4599C238.407 87.1852 237.417 83.0852 237.486 82.4995C237.49 82.4642 237.507 82.4317 237.535 82.4093C237.562 82.3868 237.597 82.3762 237.633 82.3797C237.668 82.3832 237.7 82.4006 237.723 82.4281C237.745 82.4556 237.756 82.4908 237.752 82.5261C237.694 83.0213 238.678 87.0681 242.12 90.2682C245.679 93.5748 250.408 94.6876 256.18 93.5801C256.197 93.5762 256.214 93.5758 256.231 93.5788C256.248 93.5819 256.264 93.5883 256.279 93.5977C256.293 93.6072 256.306 93.6195 256.315 93.6338C256.325 93.6482 256.331 93.6643 256.334 93.6813C256.338 93.6984 256.339 93.7162 256.336 93.7335C256.333 93.7508 256.327 93.7674 256.317 93.7822C256.308 93.7971 256.296 93.8099 256.281 93.82C256.267 93.8301 256.251 93.8373 256.233 93.841C254.884 94.1047 253.512 94.2402 252.137 94.2457Z" fill="white"/>
<path d="M228.419 119.746C228.388 119.747 228.359 119.737 228.334 119.719C228.31 119.7 228.293 119.674 228.286 119.644C226.498 112.403 230.461 108.681 232.153 107.089C232.445 106.863 232.697 106.589 232.898 106.28C232.9 106.262 232.905 106.245 232.914 106.23C232.923 106.214 232.934 106.201 232.948 106.19C232.962 106.179 232.978 106.171 232.995 106.166C233.012 106.161 233.029 106.16 233.047 106.162C233.082 106.169 233.113 106.189 233.134 106.217C233.154 106.246 233.163 106.282 233.159 106.317C233.159 106.54 232.834 106.849 232.339 107.286C230.68 108.846 226.796 112.493 228.546 119.581C228.555 119.615 228.549 119.652 228.531 119.682C228.514 119.713 228.485 119.736 228.451 119.746H228.419Z" fill="white"/>
<path d="M188.581 156.816C187.783 155.219 187.107 153.579 186.453 151.971C185.841 150.469 185.208 148.914 184.479 147.439C180.856 140.112 174.903 136.428 167.243 136.79C160.109 137.115 152.922 140.634 145.272 147.562L145.091 147.365C152.789 140.395 160.034 136.848 167.227 136.524C175.004 136.172 181.058 139.91 184.718 147.338C185.453 148.824 186.086 150.378 186.697 151.885C187.352 153.483 188.022 155.149 188.825 156.715L188.581 156.816Z" fill="white"/>
<path d="M128.881 183.477C128.392 183.494 127.903 183.421 127.439 183.264L127.541 183.019C127.61 183.045 134.94 185.681 145.905 168.472C154.305 155.304 161.194 147.524 169.605 149.441C178.015 151.358 178.648 164.739 179.095 172.747L178.829 172.785C178.409 164.83 177.712 151.561 169.546 149.697C161.284 147.817 154.464 155.554 146.139 168.615C137.813 181.677 131.552 183.477 128.881 183.477Z" fill="white"/>
<path d="M266.636 158.419C266.072 157.988 265.806 150.043 269.508 145.144C275.094 137.743 280.313 134.82 283.282 134.255C285.601 133.819 286.351 135.118 284.346 135.879C282.34 136.641 280.946 138.041 281.579 140.081C282.212 142.12 280.797 143.233 279.313 142.743C277.829 142.253 274.935 142.019 274.19 145.448C273.445 148.877 275.254 152.024 272.136 153.643C269.019 155.261 269.136 159.862 269.136 159.862L266.636 158.419Z" fill="#276B65"/>
<path d="M269.899 155.198C269.873 155.198 269.847 155.192 269.823 155.182C269.799 155.172 269.777 155.157 269.76 155.138C269.742 155.119 269.728 155.096 269.719 155.072C269.71 155.047 269.706 155.021 269.707 154.995C269.979 140.619 283.539 134.9 283.656 134.841C283.706 134.823 283.76 134.825 283.808 134.846C283.857 134.866 283.896 134.905 283.917 134.953C283.927 134.977 283.933 135.003 283.933 135.029C283.933 135.056 283.928 135.082 283.918 135.106C283.908 135.13 283.894 135.152 283.875 135.171C283.857 135.19 283.835 135.204 283.81 135.214C283.677 135.267 270.372 140.906 270.106 155.001C270.106 155.027 270.1 155.053 270.089 155.078C270.078 155.102 270.063 155.124 270.043 155.142C270.024 155.16 270.001 155.175 269.977 155.184C269.952 155.194 269.925 155.198 269.899 155.198Z" fill="#1A1D30"/>
<path d="M270.521 168.264C271.202 167.854 270.835 159.516 269.941 150.592C269.191 143.18 268.627 141.492 273.984 135.975C279.341 130.459 279.836 126.838 276.319 124.953C273.659 123.537 268.18 126.497 266.313 133.67C264.445 140.842 265.318 143.622 261.525 145.89C256.673 148.797 254.849 151.875 256.556 155.267C259.083 160.282 266.084 165.261 264.472 170.112L270.521 168.264Z" fill="#61A87F"/>
<path d="M268.512 168.419C268.469 168.418 268.427 168.404 268.393 168.378C268.359 168.352 268.333 168.316 268.321 168.275C267.257 164.643 265.661 162.295 263.868 159.574C263.001 158.275 262.107 156.912 261.155 155.315C259.288 152.12 262.315 148.707 263.283 147.738C265.735 145.299 266.826 141.976 267.879 138.76C269.215 134.703 270.592 130.512 274.705 128.111C274.727 128.098 274.752 128.089 274.777 128.085C274.803 128.081 274.829 128.082 274.855 128.089C274.88 128.095 274.904 128.107 274.924 128.122C274.945 128.138 274.963 128.158 274.976 128.18C274.989 128.203 274.998 128.228 275.001 128.254C275.005 128.28 275.003 128.306 274.996 128.332C274.989 128.357 274.977 128.381 274.961 128.401C274.944 128.422 274.924 128.439 274.901 128.452C270.922 130.773 269.629 134.708 268.262 138.877C267.198 142.136 266.081 145.512 263.565 148.015C262.645 148.936 259.777 152.157 261.501 155.112C262.442 156.71 263.336 158.068 264.198 159.372C266.028 162.114 267.608 164.489 268.704 168.179C268.712 168.204 268.715 168.23 268.713 168.256C268.71 168.282 268.703 168.307 268.69 168.33C268.678 168.353 268.661 168.373 268.64 168.389C268.62 168.406 268.596 168.417 268.571 168.424L268.512 168.419Z" fill="#1A1D30"/>
<path d="M235.534 188.232C235.751 187.728 235.851 187.181 235.828 186.632C235.805 186.084 235.659 185.548 235.401 185.064C233.997 182.369 230.682 177.913 222.564 176.257C213.882 174.494 207.881 176.384 208.69 178.919C209.499 181.453 216.67 178.237 220.734 182.21C223.325 184.723 227.48 190.654 231.677 190.484C234.007 190.388 235.066 189.297 235.534 188.232Z" fill="#276B65"/>
<path d="M234.909 189.398C234.858 189.398 234.81 189.379 234.773 189.344C234.736 189.309 234.715 189.262 234.712 189.211C234.712 189.169 234.292 184.781 225.375 180.223C216.459 175.665 208.969 178.12 208.884 178.147C208.86 178.156 208.834 178.16 208.807 178.159C208.781 178.157 208.756 178.151 208.733 178.139C208.709 178.128 208.688 178.112 208.671 178.092C208.654 178.072 208.642 178.049 208.634 178.024C208.625 177.999 208.621 177.973 208.622 177.947C208.623 177.92 208.629 177.894 208.641 177.871C208.652 177.847 208.668 177.825 208.688 177.808C208.708 177.79 208.731 177.777 208.756 177.769C208.831 177.742 216.422 175.202 225.546 179.867C234.669 184.531 235.084 188.998 235.121 189.185C235.123 189.237 235.105 189.288 235.07 189.328C235.036 189.367 234.987 189.392 234.935 189.398H234.909Z" fill="#1A1D30"/>
<path d="M237.564 181.059C237.777 180.463 239.027 180.862 235.372 174.915C230.861 167.583 224.77 166.928 217.147 165.581C212.21 164.718 213.779 154.053 208.922 154.724C204.065 155.395 202.326 165.123 205.73 168.137C209.135 171.15 212.577 168.094 216.04 171.374C217.695 172.939 215.694 177.582 219.604 179.521C223.163 181.288 227.079 174.686 231.702 183.408L233.053 183.557L237.564 181.059Z" fill="#61A87F"/>
<path d="M235.642 182.305C235.616 182.305 235.59 182.299 235.566 182.288C235.542 182.277 235.52 182.261 235.502 182.242C235.484 182.223 235.471 182.2 235.462 182.175C235.453 182.15 235.449 182.124 235.45 182.098C235.45 182.055 235.509 177.838 229.38 172.987C225.609 170.011 221.188 169.063 216.905 168.147C215.091 167.758 213.373 167.391 211.719 166.874C206.659 165.277 207.665 158.147 207.676 158.073C207.683 158.02 207.711 157.973 207.754 157.942C207.796 157.91 207.849 157.897 207.902 157.905C207.954 157.913 208.001 157.941 208.032 157.983C208.064 158.026 208.077 158.079 208.069 158.131C208.069 158.2 207.106 165.021 211.836 166.496C213.474 167.029 215.182 167.37 216.991 167.758C221.316 168.685 225.784 169.638 229.625 172.673C235.935 177.651 235.855 181.933 235.844 182.114C235.843 182.139 235.838 182.165 235.827 182.189C235.817 182.212 235.801 182.234 235.783 182.251C235.764 182.269 235.742 182.283 235.718 182.292C235.694 182.302 235.668 182.306 235.642 182.305Z" fill="#1A1D30"/>
<path d="M282.178 190.5H231.071C230.589 190.501 230.123 190.33 229.756 190.017C229.39 189.705 229.146 189.272 229.07 188.796L223.298 153.983L222.474 149.026C222.39 148.525 222.492 148.01 222.76 147.579C223.029 147.148 223.445 146.829 223.931 146.683C224.127 146.627 224.329 146.598 224.533 146.598H275.513C276.007 146.597 276.486 146.772 276.863 147.092C277.241 147.412 277.492 147.856 277.571 148.345L279.029 157.093L284.179 188.162C284.223 188.451 284.205 188.746 284.125 189.027C284.045 189.308 283.905 189.569 283.715 189.791C283.525 190.013 283.289 190.191 283.024 190.314C282.759 190.436 282.47 190.499 282.178 190.5Z" fill="#1A1D30"/>
<path d="M283.739 189.76C283.83 189.637 286.133 186.778 286.133 186.778L279.632 184.856L281.414 187.71L283.739 189.76Z" fill="#1A1D30"/>
<path d="M279.007 157.088L275.741 160.432L245.625 160.725L226.404 151.289L224.606 152.817C224.474 152.927 224.315 153 224.146 153.029C223.977 153.059 223.803 153.043 223.642 152.985C223.481 152.926 223.338 152.826 223.227 152.695C223.116 152.564 223.041 152.406 223.01 152.237L222.478 149.042C222.395 148.541 222.497 148.027 222.765 147.595C223.033 147.164 223.45 146.845 223.936 146.699C224.131 146.643 224.334 146.614 224.537 146.614H275.517C276.012 146.613 276.491 146.788 276.868 147.108C277.245 147.428 277.496 147.872 277.576 148.361L279.007 157.088Z" fill="#C74243"/>
<path d="M268.036 141.691L231.266 153.621C229.173 154.3 228.026 156.55 228.704 158.645L235.379 179.255C236.058 181.35 238.305 182.498 240.398 181.819L277.169 169.889C279.262 169.21 280.409 166.961 279.73 164.866L273.056 144.255C272.377 142.16 270.13 141.012 268.036 141.691Z" fill="#87B6DE"/>
<path d="M284.391 187.72H233.406C232.91 187.72 232.431 187.544 232.054 187.223C231.677 186.902 231.426 186.458 231.347 185.969L225.963 152.956C225.914 152.657 225.93 152.35 226.011 152.058C226.091 151.766 226.235 151.495 226.43 151.264C226.626 151.033 226.87 150.848 227.145 150.72C227.42 150.593 227.719 150.527 228.022 150.528H279.007C279.503 150.529 279.982 150.706 280.359 151.028C280.736 151.35 280.987 151.795 281.066 152.285L286.45 185.298C286.498 185.596 286.481 185.902 286.4 186.193C286.319 186.485 286.176 186.755 285.98 186.985C285.784 187.216 285.541 187.401 285.266 187.528C284.992 187.655 284.693 187.72 284.391 187.72Z" fill="#E69E5E"/>
<path d="M284.342 172.364C284.306 172.149 284.195 171.953 284.028 171.812C283.862 171.671 283.651 171.593 283.433 171.592H283.092L284.64 170.564L285.231 171.246L284.342 172.364Z" fill="#1A1D30"/>
<path d="M284.473 171.592H269.945C269.702 171.589 269.468 171.502 269.281 171.347C269.095 171.192 268.966 170.978 268.918 170.74L267.806 164.819C267.781 164.669 267.788 164.515 267.828 164.368C267.867 164.221 267.938 164.084 268.034 163.966C268.131 163.848 268.252 163.753 268.389 163.686C268.526 163.619 268.675 163.583 268.828 163.579H283.34C283.583 163.582 283.817 163.669 284.003 163.824C284.19 163.978 284.318 164.193 284.367 164.431L285.479 170.352C285.504 170.501 285.497 170.653 285.458 170.799C285.42 170.945 285.351 171.082 285.256 171.199C285.161 171.316 285.042 171.412 284.907 171.48C284.772 171.548 284.624 171.586 284.473 171.592Z" fill="#C74243"/>
<path d="M277.174 169.084C276.44 170.362 274.679 170.729 273.248 169.899C271.817 169.068 271.258 167.37 271.992 166.092C272.727 164.814 274.487 164.446 275.919 165.272C277.35 166.097 277.913 167.806 277.174 169.084Z" fill="white"/>
<path d="M72.0191 174.105C72.4127 173.158 72.0191 160.767 66.6301 150.821C59.9856 138.547 50.1917 136.918 37.9667 134.074C30.0614 132.237 33.5512 115.119 25.63 115.774C17.7087 116.429 14.0221 132.014 19.2462 137.195C24.4703 142.376 30.3274 137.727 35.6366 143.35C38.1795 146.039 34.5301 153.371 40.6798 156.859C46.2816 160.054 53.2134 149.702 59.9111 164.233C64.6564 174.526 64.4702 177.737 64.4702 177.737L72.0191 174.105Z" fill="#427D5A"/>
<path d="M68.8152 175.847C68.7656 175.847 68.7178 175.828 68.6813 175.795C68.6448 175.761 68.6223 175.715 68.6183 175.665C68.6183 175.463 66.7564 155.544 57.1753 147.083C51.3235 141.912 44.2321 139.98 37.3802 138.111C34.4755 137.317 31.7305 136.572 29.1078 135.592C21.144 132.626 23.4049 121.242 23.4315 121.125C23.4366 121.099 23.4467 121.075 23.4612 121.053C23.4758 121.032 23.4945 121.013 23.5163 120.999C23.5381 120.984 23.5625 120.974 23.5881 120.97C23.6137 120.965 23.6401 120.965 23.6656 120.971C23.7166 120.982 23.7611 121.013 23.7899 121.057C23.8187 121.1 23.8294 121.153 23.8199 121.205C23.8199 121.317 21.6175 132.387 29.2461 135.219C31.8528 136.188 34.566 136.934 37.4812 137.727C44.397 139.607 51.5203 141.55 57.4413 146.779C67.1394 155.352 69.0226 175.426 69.0226 175.628C69.0256 175.654 69.0232 175.681 69.0156 175.706C69.008 175.732 68.9954 175.755 68.9785 175.776C68.9617 175.796 68.9408 175.813 68.9173 175.825C68.8938 175.837 68.8681 175.845 68.8418 175.847H68.8152Z" fill="#1A1D30"/>
<path d="M80.694 146.912C81.0239 145.618 69.0223 144.489 57.7814 134.564C51.3976 128.92 49.9134 116.945 47.0247 104.182C44.1839 91.6103 43.3008 86.3974 36.917 88.2504C32.1025 89.6561 28.9851 99.6452 35.1401 110.422C41.2952 121.199 45.6096 123.505 43.7317 130.656C41.3271 139.825 42.7475 145.65 48.7643 147.695C57.6591 150.735 71.8737 148.483 75.6189 156.188L80.694 146.912Z" fill="#61A87F"/>
<path d="M78.27 149.383C78.2363 149.382 78.2034 149.373 78.1742 149.356C72.6097 146.257 67.9814 145.283 62.6137 144.149C60.0602 143.616 57.4162 143.052 54.3786 142.221C48.4842 140.624 48.1224 133.057 48.149 130.784C48.2235 124.953 45.6327 119.676 43.1218 114.575C39.9777 108.186 36.7379 101.567 38.834 93.9211C38.8409 93.8959 38.8528 93.8724 38.8689 93.8518C38.885 93.8312 38.9049 93.814 38.9277 93.8011C38.9504 93.7883 38.9754 93.78 39.0013 93.7769C39.0272 93.7737 39.0535 93.7757 39.0787 93.7826C39.1038 93.7896 39.1273 93.8015 39.1479 93.8176C39.1685 93.8337 39.1857 93.8537 39.1985 93.8764C39.2114 93.8992 39.2196 93.9242 39.2228 93.9502C39.2259 93.9761 39.224 94.0024 39.217 94.0276C37.1529 101.525 40.2278 107.776 43.4729 114.4C46.0051 119.543 48.6172 124.863 48.5427 130.789C48.5161 132.988 48.8565 140.294 54.4743 141.838C57.5013 142.668 60.14 143.222 62.6935 143.76C68.0878 144.899 72.748 145.89 78.3604 149.005C78.3988 149.027 78.429 149.061 78.4463 149.101C78.4636 149.142 78.4671 149.187 78.4562 149.23C78.4454 149.273 78.4208 149.311 78.3862 149.339C78.3516 149.366 78.3089 149.382 78.2647 149.383H78.27Z" fill="#1A1D30"/>
<path d="M103.176 184.18C101.878 183.274 100.516 165.57 108.294 154.287C120.034 137.248 131.392 130.209 137.957 128.67C143.085 127.467 144.873 130.299 140.436 132.184C135.999 134.069 133.068 137.344 134.675 141.838C136.281 146.332 133.228 148.941 129.887 148.041C126.546 147.141 120.061 146.848 118.715 154.564C117.369 162.279 121.684 169.132 114.927 173.046C108.171 176.959 108.836 187.209 108.836 187.209L103.176 184.18Z" fill="#61A87F"/>
<path d="M110.116 176.448C110.064 176.448 110.014 176.427 109.977 176.391C109.94 176.354 109.919 176.303 109.919 176.251C109.509 159.58 117.425 147.945 124.134 141.108C128.447 136.686 133.449 132.994 138.944 130.177C138.967 130.165 138.993 130.159 139.019 130.157C139.045 130.156 139.071 130.16 139.095 130.169C139.119 130.178 139.142 130.192 139.161 130.209C139.18 130.227 139.195 130.249 139.205 130.273C139.216 130.296 139.223 130.322 139.225 130.349C139.226 130.375 139.222 130.401 139.213 130.426C139.204 130.451 139.191 130.474 139.173 130.493C139.155 130.513 139.133 130.528 139.109 130.539C133.656 133.339 128.692 137.006 124.41 141.396C117.755 148.169 109.914 159.713 110.318 176.241C110.318 176.293 110.298 176.344 110.261 176.382C110.224 176.42 110.174 176.441 110.121 176.443L110.116 176.448Z" fill="#1A1D30"/>
<path d="M104.93 179.377C104.475 178.828 104.149 178.183 103.977 177.491C103.804 176.799 103.79 176.076 103.935 175.378C104.696 171.496 107.196 164.728 116.703 159.675C126.885 154.281 135.067 154.436 134.982 157.886C134.897 161.337 124.799 159.968 121.15 166.406C118.847 170.49 115.83 179.414 110.51 180.745C107.638 181.501 105.919 180.532 104.93 179.377Z" fill="#276B65"/>
<path d="M106.078 180.548C106.033 180.549 105.989 180.534 105.954 180.506C105.919 180.478 105.895 180.438 105.886 180.394C105.833 180.16 104.695 174.494 114.366 165.315C124.038 156.135 134.401 156.539 134.502 156.545C134.555 156.549 134.604 156.573 134.638 156.613C134.673 156.653 134.691 156.705 134.688 156.758C134.687 156.784 134.68 156.809 134.669 156.832C134.658 156.856 134.642 156.877 134.623 156.894C134.604 156.911 134.581 156.925 134.557 156.933C134.532 156.942 134.506 156.946 134.481 156.944C134.38 156.944 124.16 156.571 114.643 165.607C105.126 174.643 106.264 180.25 106.264 180.309C106.274 180.36 106.263 180.413 106.234 180.457C106.205 180.501 106.161 180.532 106.11 180.543L106.078 180.548Z" fill="#1A1D30"/>
<path d="M79.2982 184.259C79.7713 183.387 80.0414 182.42 80.0884 181.428C80.1354 180.437 79.958 179.448 79.5695 178.535C77.4788 173.44 72.2281 164.867 57.8486 160.565C42.4849 155.964 31.3557 158.403 32.4037 163.094C33.4518 167.785 46.8684 163.163 53.5927 170.99C57.8486 175.942 64.3814 187.31 71.9781 187.689C76.1755 187.896 78.2608 186.107 79.2982 184.259Z" fill="#276B65"/>
<path d="M77.9965 186.102C77.9705 186.102 77.9447 186.097 77.9207 186.086C77.8967 186.076 77.8751 186.061 77.8572 186.042C77.8393 186.023 77.8254 186.001 77.8164 185.976C77.8075 185.952 77.8036 185.926 77.805 185.9C77.805 185.82 77.805 177.769 62.3509 168.03C46.8967 158.291 32.98 161.539 32.847 161.587C32.8218 161.594 32.7954 161.596 32.7695 161.593C32.7436 161.589 32.7186 161.58 32.6962 161.567C32.6738 161.554 32.6543 161.536 32.6391 161.514C32.6239 161.493 32.6131 161.469 32.6076 161.443C32.6012 161.418 32.5999 161.392 32.6037 161.366C32.6074 161.341 32.6163 161.316 32.6296 161.294C32.643 161.271 32.6606 161.252 32.6814 161.237C32.7023 161.221 32.726 161.21 32.7512 161.204C32.8949 161.166 46.9286 157.833 62.5424 167.694C78.1561 177.556 78.1881 185.575 78.1827 185.91C78.1803 185.959 78.16 186.006 78.1258 186.041C78.0915 186.076 78.0456 186.098 77.9965 186.102Z" fill="#1A1D30"/>
<path d="M117.596 186.24L114.994 189.211L112.478 188.956L115.431 185.969L117.596 186.24Z" fill="#1A1D30"/>
<path d="M49.8521 92.2706L52.4481 89.3314L51.1501 93.8626L49.8521 92.2706Z" fill="#1A1D30"/>
<path d="M69.4778 190.415H112.319C112.89 190.434 113.458 190.323 113.979 190.089C114.501 189.856 114.963 189.506 115.329 189.067C115.695 188.628 115.957 188.111 116.093 187.556C116.23 187 116.238 186.421 116.117 185.862L101.157 95.2789C100.922 94.027 100.266 92.8932 99.2983 92.0653C98.3309 91.2373 97.1099 90.765 95.8376 90.7264H53.0128C52.4421 90.7078 51.8747 90.8196 51.3537 91.0535C50.8327 91.2874 50.3718 91.6371 50.0061 92.076C49.6404 92.5149 49.3795 93.0315 49.2433 93.5866C49.107 94.1416 49.099 94.7204 49.2198 95.2789L64.1792 185.862C64.4133 187.111 65.0658 188.243 66.0292 189.07C66.9925 189.898 68.2089 190.372 69.4778 190.415Z" fill="#1A1D30"/>
<path d="M115.307 189.084L117.121 187.002L114.626 186.443L114.86 187.47L115.307 189.084Z" fill="#1A1D30"/>
<path d="M71.5553 188.051H114.396C114.967 188.069 115.534 187.957 116.056 187.723C116.577 187.489 117.038 187.14 117.404 186.701C117.77 186.262 118.031 185.746 118.168 185.191C118.305 184.636 118.314 184.057 118.194 183.498L103.235 92.9147C102.999 91.6628 102.343 90.529 101.376 89.701C100.408 88.8731 99.1874 88.4008 97.9151 88.3621H55.0903C54.5193 88.3425 53.9514 88.4537 53.4299 88.6872C52.9083 88.9207 52.447 89.2704 52.081 89.7096C51.7151 90.1488 51.4543 90.6659 51.3185 91.2214C51.1826 91.7768 51.1754 92.356 51.2973 92.9147L66.2567 183.498C66.4908 184.747 67.1433 185.879 68.1066 186.706C69.07 187.534 70.2864 188.008 71.5553 188.051Z" fill="#87B6DE"/>
<path d="M73.4466 184.888H111.468C111.99 184.905 112.509 184.803 112.986 184.59C113.463 184.376 113.885 184.056 114.22 183.655C114.555 183.253 114.794 182.781 114.919 182.273C115.044 181.765 115.052 181.235 114.941 180.724L100.892 95.6837C100.678 94.542 100.082 93.5073 99.2021 92.7504C98.322 91.9934 97.2104 91.5593 96.0506 91.5198H58.0243C57.5022 91.5021 56.9829 91.604 56.5061 91.8177C56.0292 92.0314 55.6075 92.3513 55.2729 92.7529C54.9383 93.1545 54.6998 93.6273 54.5755 94.1352C54.4513 94.6432 54.4445 95.1728 54.5558 95.6837L68.6002 180.708C68.8106 181.853 69.406 182.892 70.2875 183.653C71.169 184.413 72.2836 184.849 73.4466 184.888Z" fill="white"/>
<path d="M69.0469 186.315H116.223L100.567 91.5196H53.3906L69.0469 186.315Z" fill="#2C2C34"/>
<path d="M54.2875 119.394C54.3646 119.395 54.441 119.379 54.5114 119.347C54.5817 119.316 54.6444 119.269 54.695 119.211C54.7456 119.153 54.7829 119.084 54.8044 119.01C54.8259 118.936 54.8311 118.858 54.8195 118.782L53.681 112.019C53.6479 111.852 53.5596 111.701 53.4303 111.59C53.3011 111.479 53.1383 111.415 52.9682 111.407C52.8911 111.406 52.8147 111.422 52.7443 111.454C52.674 111.485 52.6113 111.532 52.5607 111.59C52.5101 111.648 52.4728 111.717 52.4513 111.791C52.4298 111.865 52.4246 111.943 52.4362 112.019L53.5959 118.782C53.6273 118.946 53.7122 119.095 53.8374 119.206C53.9625 119.317 54.1208 119.383 54.2875 119.394Z" fill="#87B6DE"/>
<path d="M55.6916 127.919C55.7687 127.92 55.8451 127.904 55.9154 127.873C55.9858 127.841 56.0484 127.794 56.099 127.736C56.1496 127.678 56.187 127.609 56.2085 127.535C56.23 127.461 56.2351 127.383 56.2235 127.307L55.0851 120.539C55.0546 120.371 54.9671 120.218 54.8373 120.106C54.7075 119.995 54.5433 119.931 54.3722 119.927C54.2934 119.92 54.214 119.931 54.1406 119.961C54.0672 119.991 54.0018 120.037 53.9499 120.097C53.8979 120.157 53.8609 120.228 53.8419 120.305C53.8228 120.382 53.8223 120.462 53.8403 120.539L54.9574 127.307C54.9896 127.478 55.0805 127.633 55.2145 127.745C55.3484 127.857 55.5172 127.918 55.6916 127.919Z" fill="#87B6DE"/>
<path d="M106.449 112.377C106.526 112.377 106.603 112.362 106.673 112.33C106.743 112.298 106.806 112.252 106.857 112.194C106.907 112.135 106.945 112.067 106.966 111.993C106.988 111.918 106.993 111.841 106.981 111.764L105.949 105.63C105.916 105.464 105.827 105.313 105.698 105.203C105.569 105.093 105.406 105.029 105.236 105.023C105.158 105.016 105.079 105.028 105.006 105.057C104.933 105.087 104.868 105.133 104.817 105.192C104.765 105.251 104.728 105.321 104.708 105.398C104.689 105.474 104.687 105.553 104.704 105.63L105.715 111.748C105.744 111.923 105.833 112.082 105.968 112.196C106.102 112.311 106.272 112.375 106.449 112.377Z" fill="#87B6DE"/>
<path d="M81.4263 90.4492H84.5012C84.5714 90.4516 84.6412 90.4379 84.7053 90.4092C84.7694 90.3806 84.8262 90.3377 84.8713 90.2838C84.9164 90.2299 84.9487 90.1665 84.9657 90.0983C84.9827 90.0301 84.9839 89.9589 84.9694 89.8902C84.9405 89.7371 84.8606 89.5985 84.7427 89.4969C84.6247 89.3953 84.4758 89.3368 84.3203 89.3311H81.2614C81.1912 89.3287 81.1214 89.3424 81.0573 89.3711C80.9932 89.3997 80.9364 89.4426 80.8913 89.4965C80.8462 89.5504 80.8139 89.6138 80.7969 89.682C80.78 89.7502 80.7787 89.8214 80.7933 89.8902C80.8214 90.0406 80.899 90.1774 81.0137 90.2787C81.1284 90.38 81.2737 90.44 81.4263 90.4492Z" fill="#1A1D30"/>
<path d="M77.9796 89.8902C78.0076 90.0437 78.0872 90.1829 78.2054 90.2846C78.3235 90.3864 78.4729 90.4445 78.6287 90.4493C78.6988 90.4516 78.7686 90.438 78.8328 90.4093C78.8969 90.3806 78.9537 90.3377 78.9988 90.2839C79.0439 90.23 79.0761 90.1666 79.0931 90.0983C79.1101 90.0301 79.1114 89.959 79.0968 89.8902C79.0669 89.7367 78.9859 89.5979 78.8671 89.4964C78.7482 89.3949 78.5986 89.3366 78.4425 89.3311C78.3724 89.3286 78.3027 89.3421 78.2387 89.3708C78.1747 89.3995 78.1182 89.4425 78.0735 89.4966C78.0288 89.5506 77.997 89.6142 77.9808 89.6824C77.9645 89.7507 77.9641 89.8218 77.9796 89.8902Z" fill="#1A1D30"/>
<path d="M71.9612 89.8902C71.9912 90.0436 72.0722 90.1824 72.191 90.2839C72.3098 90.3855 72.4595 90.4437 72.6156 90.4492C72.6856 90.4518 72.7554 90.4382 72.8193 90.4095C72.8833 90.3808 72.9398 90.3378 72.9846 90.2838C73.0293 90.2298 73.061 90.1662 73.0773 90.0979C73.0936 90.0297 73.0939 89.9586 73.0784 89.8902C73.0505 89.7367 72.9708 89.5975 72.8527 89.4957C72.7346 89.394 72.5852 89.3359 72.4294 89.3311C72.3592 89.3287 72.2894 89.3424 72.2253 89.3711C72.1612 89.3997 72.1044 89.4426 72.0593 89.4965C72.0142 89.5504 71.9819 89.6138 71.9649 89.682C71.9479 89.7502 71.9467 89.8214 71.9612 89.8902Z" fill="#1A1D30"/>
<path d="M74.4616 89.8904C74.508 90.1431 74.6384 90.3725 74.8315 90.5417C75.0247 90.7108 75.2692 90.8097 75.5256 90.8223C75.6425 90.8267 75.759 90.8042 75.8659 90.7565C75.9729 90.7088 76.0675 90.6372 76.1425 90.5472C76.2175 90.4573 76.2709 90.3513 76.2986 90.2374C76.3263 90.1236 76.3275 90.0049 76.3022 89.8904C76.2549 89.6382 76.1243 89.4093 75.9313 89.2403C75.7384 89.0713 75.4943 88.9721 75.2383 88.9586C75.1216 88.9553 75.0057 88.9785 74.8992 89.0265C74.7928 89.0745 74.6987 89.1461 74.6239 89.2358C74.5491 89.3255 74.4956 89.431 74.4675 89.5444C74.4394 89.6578 74.4374 89.7761 74.4616 89.8904Z" fill="#1A1D30"/>
<path d="M68.7679 102.446C69.1704 102.446 69.4967 102.119 69.4967 101.716C69.4967 101.314 69.1704 100.987 68.7679 100.987C68.3654 100.987 68.0391 101.314 68.0391 101.716C68.0391 102.119 68.3654 102.446 68.7679 102.446Z" fill="white"/>
<path d="M89.3385 103.868C89.3374 104.012 89.2938 104.152 89.2131 104.271C89.1324 104.391 89.0182 104.483 88.8849 104.538C88.7516 104.592 88.6053 104.606 88.4642 104.577C88.3232 104.548 88.1939 104.478 88.0925 104.376C87.9911 104.274 87.9222 104.144 87.8945 104.003C87.8668 103.861 87.8815 103.715 87.9368 103.582C87.9922 103.449 88.0856 103.335 88.2053 103.255C88.325 103.175 88.4657 103.133 88.6097 103.133C88.7058 103.133 88.801 103.152 88.8898 103.189C88.9786 103.226 89.0592 103.28 89.1269 103.348C89.1946 103.417 89.2482 103.498 89.2845 103.587C89.3208 103.676 89.3392 103.771 89.3385 103.868Z" fill="white"/>
<path d="M73.1626 99.3307C73.1626 99.4361 73.1314 99.539 73.0729 99.6266C73.0145 99.7141 72.9314 99.7824 72.8342 99.8227C72.737 99.863 72.63 99.8735 72.5268 99.853C72.4236 99.8324 72.3288 99.7817 72.2544 99.7073C72.18 99.6328 72.1294 99.5379 72.1089 99.4346C72.0883 99.3313 72.0989 99.2243 72.1391 99.127C72.1794 99.0297 72.2476 98.9465 72.3351 98.888C72.4225 98.8295 72.5254 98.7983 72.6306 98.7983C72.7717 98.7983 72.907 98.8544 73.0068 98.9542C73.1066 99.0541 73.1626 99.1895 73.1626 99.3307Z" fill="white"/>
<path d="M78.5557 96.6047C78.5557 96.71 78.5245 96.8129 78.466 96.9005C78.4076 96.9881 78.3245 97.0563 78.2273 97.0966C78.1301 97.1369 78.0231 97.1475 77.9199 97.1269C77.8167 97.1064 77.7219 97.0556 77.6475 96.9812C77.5731 96.9067 77.5224 96.8118 77.5019 96.7085C77.4814 96.6053 77.4919 96.4982 77.5322 96.4009C77.5725 96.3036 77.6406 96.2205 77.7281 96.1619C77.8156 96.1034 77.9185 96.0722 78.0237 96.0722C78.1648 96.0722 78.3001 96.1283 78.3999 96.2282C78.4996 96.328 78.5557 96.4635 78.5557 96.6047Z" fill="white"/>
<path d="M84.708 97.7868C84.708 97.8921 84.6768 97.9951 84.6184 98.0826C84.5599 98.1702 84.4768 98.2384 84.3796 98.2787C84.2824 98.319 84.1754 98.3296 84.0722 98.309C83.969 98.2885 83.8743 98.2378 83.7999 98.1633C83.7255 98.0888 83.6748 97.994 83.6543 97.8907C83.6337 97.7874 83.6443 97.6803 83.6845 97.583C83.7248 97.4857 83.793 97.4026 83.8805 97.3441C83.968 97.2856 84.0708 97.2543 84.176 97.2543C84.3171 97.2543 84.4524 97.3104 84.5522 97.4103C84.652 97.5101 84.708 97.6456 84.708 97.7868Z" fill="white"/>
<path d="M90.9651 100.023C90.9651 100.121 90.9264 100.214 90.8576 100.283C90.7887 100.352 90.6954 100.391 90.598 100.391C90.5007 100.391 90.4073 100.352 90.3385 100.283C90.2696 100.214 90.231 100.121 90.231 100.023C90.231 99.9257 90.2696 99.8322 90.3385 99.7633C90.4073 99.6944 90.5007 99.6557 90.598 99.6557C90.6954 99.6557 90.7887 99.6944 90.8576 99.7633C90.9264 99.8322 90.9651 99.9257 90.9651 100.023Z" fill="white"/>
<path d="M82.8831 101.589C82.8838 101.637 82.875 101.684 82.8571 101.729C82.8393 101.773 82.8127 101.814 82.7791 101.848C82.7454 101.882 82.7053 101.91 82.661 101.928C82.6168 101.947 82.5693 101.956 82.5214 101.956C82.424 101.956 82.3307 101.917 82.2618 101.849C82.193 101.78 82.1543 101.686 82.1543 101.589C82.1543 101.491 82.193 101.398 82.2618 101.329C82.3307 101.26 82.424 101.221 82.5214 101.221C82.5693 101.221 82.6168 101.231 82.661 101.249C82.7053 101.268 82.7454 101.295 82.7791 101.329C82.8127 101.363 82.8393 101.404 82.8571 101.449C82.875 101.493 82.8838 101.541 82.8831 101.589Z" fill="white"/>
<path d="M73.1654 106.088C73.1654 106.136 73.1559 106.183 73.1373 106.228C73.1188 106.272 73.0917 106.312 73.0576 106.346C73.0234 106.38 72.9829 106.406 72.9384 106.424C72.8939 106.442 72.8463 106.451 72.7983 106.45C72.7506 106.451 72.7032 106.442 72.659 106.424C72.6148 106.406 72.5746 106.379 72.5409 106.346C72.5072 106.312 72.4806 106.272 72.4626 106.227C72.4447 106.183 72.4358 106.136 72.4366 106.088C72.4359 106.04 72.4447 105.992 72.4626 105.948C72.4804 105.903 72.507 105.863 72.5406 105.828C72.5743 105.794 72.6144 105.767 72.6586 105.749C72.7029 105.73 72.7504 105.721 72.7983 105.721C72.8957 105.721 72.989 105.759 73.0579 105.828C73.1267 105.897 73.1654 105.99 73.1654 106.088Z" fill="white"/>
<path d="M78.8853 107.707C78.8578 107.708 78.8308 107.7 78.808 107.685C78.7851 107.669 78.7675 107.647 78.7576 107.622C78.1033 105.822 75.3689 104.73 75.3423 104.72C75.3149 104.704 75.2942 104.678 75.2837 104.649C75.2733 104.619 75.274 104.586 75.2855 104.556C75.2971 104.527 75.3188 104.502 75.3468 104.487C75.3747 104.472 75.4071 104.468 75.4381 104.475C75.5551 104.517 78.3161 105.62 79.0077 107.531C79.0197 107.564 79.018 107.601 79.003 107.633C78.988 107.665 78.961 107.69 78.9279 107.702L78.8853 107.707Z" fill="white"/>
<path d="M82.858 108.207C82.825 108.209 82.7927 108.197 82.7679 108.176C82.7431 108.154 82.7277 108.123 82.725 108.09C82.4484 105.066 85.5445 101.882 85.6775 101.749C85.7033 101.724 85.7376 101.71 85.7733 101.71C85.809 101.71 85.8433 101.724 85.869 101.749C85.8926 101.775 85.9056 101.809 85.9056 101.844C85.9056 101.88 85.8926 101.914 85.869 101.94C85.8371 101.972 82.725 105.167 82.991 108.069C82.9924 108.086 82.9904 108.104 82.9851 108.121C82.9797 108.137 82.9711 108.153 82.9597 108.166C82.9483 108.18 82.9344 108.191 82.9188 108.199C82.9032 108.207 82.8861 108.211 82.8686 108.213L82.858 108.207Z" fill="white"/>
<path d="M80.8685 108.207C80.8332 108.207 80.7994 108.193 80.7744 108.168C80.7495 108.143 80.7355 108.109 80.7355 108.074C80.7355 103.564 78.4692 101.099 78.4479 101.078C78.4351 101.065 78.4248 101.05 78.4178 101.034C78.4108 101.017 78.4072 101 78.4072 100.982C78.4072 100.964 78.4108 100.946 78.4178 100.93C78.4248 100.913 78.4351 100.898 78.4479 100.886C78.4728 100.861 78.5062 100.848 78.541 100.848C78.5758 100.848 78.6093 100.861 78.6341 100.886C78.6341 100.913 81.0174 103.452 80.9961 108.069C80.9968 108.086 80.9941 108.104 80.9881 108.12C80.982 108.137 80.9728 108.152 80.961 108.165C80.9491 108.177 80.9348 108.188 80.919 108.195C80.9031 108.202 80.8859 108.207 80.8685 108.207Z" fill="white"/>
<path d="M83.8756 169.528C86.7569 167.335 87.0555 162.876 84.5426 159.569C82.0298 156.261 77.6569 155.357 74.7756 157.55C71.8943 159.743 71.5957 164.202 74.1086 167.51C76.6214 170.818 80.9943 171.721 83.8756 169.528Z" fill="white"/>
<path d="M82.6532 163.941L80.5678 161.209L78.4824 158.477L77.2376 161.209L75.998 163.941H78.4026L79.0836 168.328H80.9242L80.2486 163.941H82.6532Z" fill="#C73031"/>
<path d="M104.246 159.484C106.762 162.79 106.459 167.252 103.581 169.441C100.703 171.629 96.3244 170.735 93.8134 167.428C91.3024 164.121 91.6003 159.659 94.4784 157.466C97.3564 155.272 101.735 156.177 104.246 159.484Z" fill="white"/>
<path d="M102.368 162.78L101.129 165.512L99.8943 168.243L97.8036 165.512L95.7129 162.78H98.1175L97.4312 158.392H99.2719L99.9581 162.78H102.368Z" fill="#48A871"/>
<path d="M104.826 145.746H68.3002C68.202 145.746 68.105 145.768 68.0159 145.809C67.9268 145.851 67.8477 145.911 67.784 145.986C67.7204 146.061 67.6736 146.149 67.647 146.243C67.6204 146.338 67.6146 146.437 67.6299 146.534L68.13 149.58C68.1832 149.91 68.4652 150.15 68.4918 149.846H105.018C105.736 150.15 106.082 149.777 105.991 149.362L105.491 146.316C105.465 146.158 105.384 146.014 105.262 145.91C105.141 145.806 104.986 145.748 104.826 145.746Z" fill="#669DCF"/>
<path d="M103.311 138.015H66.7851C66.6869 138.015 66.5899 138.037 66.5008 138.078C66.4117 138.12 66.3326 138.18 66.2689 138.255C66.2052 138.329 66.1585 138.417 66.1319 138.512C66.1053 138.606 66.0995 138.706 66.1148 138.803L66.6149 141.849C66.6401 142.007 66.7209 142.151 66.8427 142.256C66.9645 142.36 67.1195 142.418 67.2799 142.418H103.806C103.904 142.418 104.001 142.396 104.09 142.355C104.179 142.314 104.258 142.253 104.322 142.179C104.386 142.104 104.433 142.016 104.459 141.921C104.486 141.827 104.492 141.727 104.476 141.63L103.976 138.585C103.951 138.426 103.87 138.282 103.748 138.177C103.627 138.073 103.472 138.015 103.311 138.015Z" fill="#669DCF"/>
<path d="M97.9912 180.175H83.9202C83.7654 180.175 83.6152 180.123 83.4943 180.026C83.3734 179.929 83.2891 179.794 83.2552 179.643C83.2365 179.545 83.2396 179.443 83.2643 179.346C83.289 179.25 83.3347 179.159 83.3982 179.082C83.4616 179.005 83.5413 178.943 83.6315 178.9C83.7217 178.857 83.8203 178.834 83.9202 178.833H98.0125C98.1667 178.834 98.3161 178.886 98.4361 178.983C98.5561 179.08 98.6394 179.215 98.6722 179.366C98.6933 179.466 98.6914 179.569 98.6666 179.668C98.6418 179.767 98.5948 179.859 98.5291 179.937C98.4635 180.015 98.3809 180.077 98.2877 180.118C98.1945 180.16 98.0931 180.179 97.9912 180.175Z" fill="#669DCF"/>
<path d="M189.478 106.754C188.547 106.877 186.126 105.577 185.254 103.841C178.811 103.41 171.114 99.1238 164.655 98.7511C168.097 92.3242 166.842 81.579 167.278 71.3929C170.886 71.5898 174.468 72.1246 177.976 72.9903C180.988 73.7282 183.945 74.6711 186.828 75.8124C188.068 76.3076 193.994 77.692 195.218 78.2511C193.563 84.8856 190.031 91.0303 189.701 95.5776C189.701 95.5669 192.84 106.312 189.478 106.754Z" fill="#29B57E"/>
<path d="M185.838 75.4238C185.838 75.4238 185.077 77.4791 182.273 78.7251C176.586 81.2596 176.645 74.3908 177.975 72.9744C180.656 73.5833 183.285 74.4023 185.838 75.4238Z" fill="#FFBB96"/>
<path d="M189.695 69.0447L189.232 69.4707C188.789 68.3243 188.255 67.215 187.636 66.1534L183.38 70.7752L183.854 72.4206L179.598 68.5868L184.652 61.3719L188.907 63.539C189.394 63.785 189.815 64.1451 190.133 64.5886C190.451 65.0321 190.658 65.5459 190.735 66.0864C190.812 66.6269 190.758 67.1781 190.577 67.6932C190.396 68.2082 190.093 68.6718 189.695 69.0447Z" fill="#613830"/>
<path d="M189.252 69.4705L184.996 73.4108L184.171 72.7079L183.852 72.4204L183.378 70.7751L187.634 66.1533C188.261 67.2142 188.802 68.3234 189.252 69.4705Z" fill="#1A1D30"/>
<path d="M186.469 70.6368L185.469 73.6771L184.708 75.8603L184.293 77.053L179.154 75.8496L179.739 74.167L179.771 74.0659L180.378 72.3247L180.607 71.6431L181.511 68.9062L186.469 70.6368Z" fill="#FFBB96"/>
<path d="M182.971 73.0223C181.983 73.574 180.9 73.9353 179.779 74.0873L180.38 72.3514L180.609 71.6646L182.971 73.0223Z" fill="#1A1D30"/>
<path d="M179.959 72.788C180.404 73.0336 180.892 73.1889 181.397 73.2453C181.902 73.3016 182.412 73.2578 182.9 73.1164C183.388 72.9749 183.843 72.7386 184.239 72.421C184.635 72.1033 184.965 71.7106 185.21 71.2652L185.742 70.2908L187.795 66.6593C187.896 66.0364 185.417 63.5444 181.63 64.2579L179.608 68.3579C178.369 70.6688 178.741 72.1171 179.959 72.788Z" fill="#FFBB96"/>
<path d="M186.295 69.0393C186.146 69.1438 186.03 69.2878 185.959 69.4552C185.888 69.6225 185.865 69.8065 185.892 69.9862C185.92 70.1659 185.998 70.3343 186.116 70.4722C186.235 70.6101 186.389 70.7121 186.563 70.7666C186.736 70.8211 186.921 70.8259 187.097 70.7806C187.273 70.7352 187.433 70.6415 187.558 70.5099C187.684 70.3784 187.77 70.2144 187.807 70.0363C187.845 69.8583 187.831 69.6734 187.769 69.5026C187.631 69.2493 187.4 69.0594 187.125 68.973C186.851 68.8866 186.553 68.9104 186.295 69.0393Z" fill="#FFBB96"/>
<path d="M196.845 57.9747L192.286 58.4965L192.51 40.8079L195.765 40.6429L196.845 57.9747Z" fill="#FFBB96"/>
<path d="M173.054 41.4095L170.463 41.7556L169.202 57.8255L164.659 57.1759L167.282 41.2019C167.377 40.6123 167.521 40.0316 167.713 39.466L168.803 36.186C168.85 36.0333 168.926 35.8915 169.029 35.7691C169.131 35.6468 169.257 35.5463 169.399 35.4737C169.541 35.4011 169.696 35.358 169.855 35.3468C170.014 35.3356 170.174 35.3566 170.325 35.4086L172.506 36.1594C172.506 36.1594 172.676 38.2254 172.676 38.2893C172.676 38.3532 173.054 41.4095 173.054 41.4095Z" fill="#FFBB96"/>
<path d="M182.287 68.5921C182.266 68.5969 182.244 68.5969 182.223 68.5921L181.878 68.4111C181.804 68.3742 181.74 68.3217 181.69 68.2573C181.639 68.1929 181.603 68.1181 181.585 68.0384C181.565 67.9575 181.562 67.8733 181.578 67.7915C181.594 67.7096 181.627 67.6322 181.675 67.5645L182.489 66.4143C182.499 66.4 182.512 66.3878 182.527 66.3784C182.542 66.3691 182.558 66.3627 182.576 66.3598C182.593 66.3568 182.611 66.3573 182.628 66.3612C182.645 66.365 182.661 66.3723 182.675 66.3824C182.69 66.3925 182.702 66.4054 182.711 66.4203C182.721 66.4351 182.727 66.4517 182.73 66.469C182.733 66.4863 182.733 66.504 182.729 66.5211C182.725 66.5382 182.718 66.5544 182.707 66.5688L181.888 67.7189C181.863 67.756 181.846 67.7978 181.838 67.8418C181.83 67.8857 181.831 67.9308 181.84 67.9745C181.851 68.0174 181.871 68.0576 181.899 68.0925C181.926 68.1273 181.961 68.156 182 68.1768L182.346 68.3578C182.371 68.3717 182.392 68.3937 182.404 68.4203C182.416 68.447 182.419 68.4769 182.412 68.5054C182.405 68.5339 182.39 68.5594 182.367 68.5779C182.344 68.5965 182.316 68.6071 182.287 68.6081V68.5921Z" fill="#C97125"/>
<path d="M186.019 66.7605C185.922 66.3655 185.695 66.0147 185.375 65.7648C185.022 65.5873 184.64 65.4737 184.247 65.4294C184.191 65.4407 184.134 65.4293 184.086 65.3979C184.039 65.3664 184.006 65.3174 183.995 65.2616C183.983 65.2058 183.995 65.1479 184.026 65.1004C184.057 65.053 184.106 65.02 184.162 65.0087C184.556 64.9268 184.966 64.9779 185.328 65.1543C185.69 65.3306 185.984 65.6221 186.162 65.9831C186.266 66.2187 186.326 66.4714 186.338 66.7286C186.338 66.7706 186.322 66.811 186.293 66.8417C186.265 66.8723 186.225 66.8909 186.184 66.8936C186.145 66.8955 186.106 66.8829 186.076 66.8584C186.046 66.8339 186.025 66.7991 186.019 66.7605Z" fill="#1A1D30"/>
<path d="M180.822 64.6306C181.133 64.3926 181.514 64.2637 181.905 64.2637C182.296 64.2637 182.677 64.3926 182.988 64.6306C183.023 64.6664 183.044 64.7135 183.048 64.7635C183.052 64.8135 183.038 64.8632 183.008 64.904C182.979 64.9447 182.936 64.9738 182.888 64.9861C182.839 64.9984 182.788 64.9932 182.743 64.9713C182.181 64.7558 181.563 64.7333 180.987 64.9075C180.952 64.9193 180.913 64.9186 180.878 64.9055C180.843 64.8923 180.813 64.8676 180.794 64.8353C180.775 64.803 180.767 64.7651 180.772 64.7279C180.777 64.6907 180.795 64.6563 180.822 64.6306Z" fill="#1A1D30"/>
<path d="M188.6 63.3848C187.983 64.1888 183.903 64.0238 182.286 63.0121C180.27 61.7555 180.413 60.3817 181.025 59.5777C181.637 58.7736 183.153 59.3647 184.536 60.6692C185.744 61.7771 187.115 62.6929 188.6 63.3848Z" fill="#613830"/>
<path d="M187.29 65.7753C187.29 65.7753 186.189 64.5612 182.13 64.3962C180.566 64.3323 180.076 63.0757 180.348 62.3994C180.779 61.3345 181.906 61.5954 183.444 61.9149C186.061 62.458 187.492 65.0724 187.29 65.7753Z" fill="#613830"/>
<path d="M180.343 62.5326H180.317C180.283 62.525 180.254 62.5046 180.235 62.4758C180.216 62.447 180.209 62.412 180.216 62.3782C180.258 62.2434 180.327 62.1184 180.419 62.0105C180.51 61.9026 180.622 61.814 180.748 61.7499C181.418 61.3825 182.487 61.4624 183.94 61.9948C183.956 62.0002 183.972 62.0089 183.985 62.0205C183.999 62.0322 184.009 62.0465 184.017 62.0625C184.024 62.0785 184.028 62.0959 184.029 62.1136C184.029 62.1313 184.026 62.1489 184.019 62.1652C184.007 62.1984 183.983 62.2255 183.951 62.2404C183.919 62.2554 183.882 62.2571 183.849 62.2451C182.147 61.6221 181.301 61.7552 180.886 61.9789C180.789 62.023 180.703 62.0864 180.631 62.1651C180.56 62.2438 180.506 62.3363 180.471 62.4368C180.462 62.464 180.445 62.4878 180.422 62.505C180.4 62.5222 180.372 62.5318 180.343 62.5326Z" fill="#1A1D30"/>
<path d="M190.414 68.2194H190.356C190.324 68.2044 190.3 68.1775 190.288 68.1447C190.276 68.1118 190.277 68.0755 190.292 68.0437C190.533 67.4641 190.552 66.8155 190.345 66.2227C190.211 65.9361 190.018 65.6811 189.779 65.4746C189.54 65.268 189.259 65.1147 188.956 65.0246C187.737 64.6375 186.453 64.4999 185.179 64.6199C183.915 64.7058 182.645 64.6252 181.402 64.3803C181.385 64.3766 181.369 64.3694 181.355 64.3593C181.34 64.3492 181.328 64.3364 181.318 64.3215C181.309 64.3067 181.303 64.2901 181.3 64.2728C181.297 64.2555 181.297 64.2377 181.301 64.2206C181.311 64.1873 181.333 64.1586 181.362 64.14C181.391 64.1214 181.426 64.1141 181.461 64.1194C182.686 64.3618 183.939 64.4406 185.185 64.3537C186.494 64.2293 187.816 64.3724 189.068 64.7744C189.408 64.878 189.722 65.0533 189.989 65.2884C190.256 65.5235 190.47 65.813 190.616 66.1375C190.844 66.7954 190.82 67.5147 190.547 68.1555C190.534 68.1786 190.515 68.1972 190.491 68.2086C190.467 68.2201 190.44 68.2238 190.414 68.2194Z" fill="#1A1D30"/>
<path d="M183.16 60.6957C183.132 60.6949 183.106 60.6858 183.084 60.6696C183.062 60.6535 183.046 60.6309 183.037 60.6051C182.981 60.367 182.876 60.1431 182.73 59.9471C182.583 59.7511 182.398 59.5872 182.186 59.4657C181.944 59.3583 181.671 59.3451 181.42 59.4284C181.404 59.4354 181.387 59.4392 181.369 59.4396C181.352 59.4399 181.334 59.4368 181.318 59.4303C181.302 59.4239 181.287 59.4143 181.274 59.4021C181.261 59.3899 181.251 59.3753 181.244 59.3592C181.232 59.3266 181.232 59.2903 181.244 59.2577C181.257 59.2251 181.282 59.1985 181.314 59.1835C181.633 59.0702 181.983 59.0836 182.293 59.2207C182.539 59.3562 182.755 59.5418 182.927 59.7654C183.098 59.9891 183.221 60.2461 183.287 60.5199C183.298 60.5538 183.295 60.5904 183.279 60.6221C183.263 60.6538 183.235 60.6782 183.202 60.6903L183.16 60.6957Z" fill="#1A1D30"/>
<path d="M175.421 72.2182L167.265 77.3405L163.717 60.1951C163.636 59.77 163.59 59.3391 163.579 58.9065L163.244 45.2914C163.164 44.4714 165.638 43.3372 168.771 42.7462C170.322 42.4058 171.918 42.3267 173.495 42.5119C173.619 42.5312 173.741 42.5578 173.862 42.5917C174.325 42.7142 174.601 42.9112 174.628 43.1615V43.2041V43.2627L174.059 46.9313L172.016 60.1844C172.499 60.782 172.841 61.4809 173.016 62.2291L175.176 71.2225L175.277 71.6378L175.421 72.2182Z" fill="#29B57E"/>
<path d="M197.102 147.083C194.501 147.253 192.23 145.89 191.612 143.931C191.53 143.661 191.48 143.382 191.463 143.1C191.299 140.699 193.591 138.595 196.533 138.398C198.954 138.239 201.082 139.405 201.853 141.156C202.028 141.549 202.133 141.969 202.162 142.397C202.327 144.777 200.06 146.886 197.102 147.083Z" fill="#1A1D30"/>
<path opacity="0.5" d="M175.196 71.2063L173.701 69.8059C173.701 69.8059 173.286 68.0594 172.68 65.2214C172.148 62.6549 170.217 58.1769 170.217 58.1769C171.281 54.8489 172.691 48.2836 173.478 44.5351C173.558 44.141 173.632 43.779 173.701 43.4701C173.77 43.1613 173.829 42.8312 173.882 42.5916L174.079 46.9258L172.036 60.1789C172.519 60.7765 172.861 61.4754 173.036 62.2236L175.196 71.2063Z" fill="#013D38"/>
<path d="M187.851 73.6079L190.591 64.3217C190.808 63.5858 191.186 62.9074 191.698 62.3356L189.958 45.2967V45.2381C189.958 45.2381 189.958 45.2381 189.958 45.2008C190.011 44.8867 190.432 44.6683 191.118 44.6098C192.703 44.5071 194.294 44.669 195.826 45.089C198.927 45.8344 201.337 47.0964 201.215 47.9111L200.183 61.489C200.149 61.9199 200.079 62.3473 199.975 62.7669L193.99 82.2019L186.362 76.2755L187.851 73.6079Z" fill="#29B57E"/>
<path d="M116.615 125.795C116.558 125.84 116.495 125.875 116.428 125.902C115.061 126.434 113.167 124.948 112.173 122.547C111.178 120.146 111.641 117.968 112.896 117.196C113.187 117.015 113.51 116.894 113.848 116.839C114.912 116.674 116.104 117.212 116.838 119.027C117.785 121.317 117.796 124.98 116.615 125.795Z" fill="#1A1D30"/>
<path d="M117.234 116.999L105.308 121.27L107.244 126.685L119.17 122.413L117.234 116.999Z" fill="#FFBB96"/>
<path d="M109.608 125.971L102.49 129.267L99.3462 122.03L96.5054 111.03L97.8673 111.158C98.44 111.214 98.9877 111.421 99.4548 111.758C99.9219 112.094 100.292 112.549 100.527 113.074C101.118 114.4 101.714 116.189 102.357 118.101C102.836 119.517 104.326 120.864 107.326 120.486H107.369C107.943 120.252 108.906 121.301 109.496 122.819C110.087 124.336 110.177 125.747 109.608 125.971Z" fill="#966D5A"/>
<path d="M97.687 122.02L98.8574 123.942L96.2666 124.799L97.7189 127.781C97.9452 128.338 98.2899 128.84 98.7289 129.251C99.168 129.662 99.691 129.972 100.262 130.161C100.501 130.102 102.124 129.479 102.331 129.368C103.108 128.952 103.496 127.797 102.629 125.64C101.938 123.942 100.73 123.143 99.9692 119.57C99.5436 117.584 97.969 110.013 96.2772 111.019C95.0058 111.775 95.5378 115.763 96.8518 120.119C97.048 120.785 97.3287 121.424 97.687 122.02Z" fill="#1A1D30"/>
<path d="M96.269 124.799L97.3809 127.856C98.0193 129.671 99.5088 130.747 100.849 129.927C101.913 129.283 99.6791 124.799 99.6791 124.799H96.269Z" fill="#212747"/>
<path d="M190.602 134.218L194.768 146.191L200.178 144.305L196.013 132.333L190.602 134.218Z" fill="#FFBB96"/>
<path opacity="0.5" d="M187.855 73.6079L189.451 73.5599C189.451 73.5599 189.388 72.5749 190.441 69.1937C192.26 63.3366 192.239 63.3366 193.989 60.4293C193.101 57.0588 192.026 50.4243 191.43 46.6384C191.372 46.2444 191.319 45.8823 191.265 45.5735C191.212 45.2647 191.164 44.892 191.122 44.631C190.436 44.7109 190.015 44.9079 189.962 45.2221C189.962 45.2221 189.962 45.2221 189.962 45.2594V45.3179L191.702 62.3568C191.19 62.9287 190.813 63.6071 190.595 64.343L187.855 73.6079Z" fill="#013D38"/>
<path d="M185.861 76.7282C186.282 78.1978 188.425 78.8581 190.649 78.2298C192.873 77.6015 194.336 75.8816 193.916 74.412C193.495 72.9424 191.346 72.2821 189.128 72.9105C186.909 73.5388 185.436 75.2799 185.861 76.7282Z" fill="#29B57E"/>
<path d="M190.652 64.1512C190.634 64.1557 190.616 64.1557 190.598 64.1512C190.567 64.1362 190.542 64.1093 190.53 64.0764C190.519 64.0436 190.52 64.0073 190.535 63.9755C191.012 62.8603 191.755 61.8787 192.698 61.116C193.641 60.3532 194.755 59.8323 195.945 59.5986C196.053 59.5765 196.16 59.5462 196.264 59.5081C196.297 59.4958 196.333 59.4967 196.364 59.5107C196.396 59.5246 196.421 59.5504 196.434 59.5826C196.442 59.5982 196.446 59.6152 196.447 59.6326C196.448 59.65 196.445 59.6674 196.438 59.6835C196.432 59.6996 196.422 59.7141 196.409 59.7261C196.397 59.7381 196.382 59.7473 196.365 59.753C196.249 59.7962 196.13 59.8318 196.009 59.8595C194.858 60.0829 193.78 60.5844 192.868 61.3203C191.955 62.0563 191.236 63.0044 190.774 64.082C190.763 64.1042 190.745 64.1227 190.723 64.135C190.701 64.1473 190.677 64.1529 190.652 64.1512Z" fill="#1A1D30"/>
<path d="M185.875 75.8123H185.832C185.799 75.8002 185.772 75.7758 185.756 75.7441C185.74 75.7124 185.737 75.6758 185.747 75.6419C186.476 73.3416 189.322 72.6654 190.258 72.4471L190.487 72.3885C190.503 72.3815 190.521 72.3777 190.538 72.3773C190.556 72.377 190.573 72.3801 190.589 72.3866C190.606 72.393 190.621 72.4026 190.633 72.4148C190.646 72.427 190.656 72.4416 190.663 72.4577C190.671 72.4734 190.675 72.4905 190.676 72.508C190.678 72.5255 190.675 72.543 190.669 72.5595C190.663 72.576 190.654 72.5911 190.642 72.6038C190.63 72.6165 190.615 72.6266 190.599 72.6335L190.317 72.708C189.418 72.921 186.683 73.5706 186.003 75.7271C185.992 75.7523 185.974 75.7739 185.952 75.789C185.929 75.8042 185.902 75.8123 185.875 75.8123Z" fill="#1A1D30"/>
<path d="M176.31 74.3747C175.491 75.6686 173.454 75.839 171.757 74.7581C170.06 73.6772 169.347 71.755 170.161 70.4664C170.975 69.1778 173.023 69.0074 174.72 70.0884C176.417 71.1693 177.13 73.0861 176.31 74.3747Z" fill="#29B57E"/>
<path d="M172.995 62.0376C172.968 62.0376 172.941 62.0295 172.918 62.0143C172.895 61.9992 172.878 61.9776 172.867 61.9524C172.46 60.8532 171.792 59.87 170.919 59.0878C170.047 58.3057 168.997 57.7482 167.861 57.4637C167.742 57.431 167.624 57.3901 167.51 57.3412C167.492 57.3353 167.476 57.3257 167.462 57.313C167.448 57.3003 167.437 57.2848 167.43 57.2676C167.422 57.2503 167.419 57.2317 167.419 57.2129C167.419 57.1941 167.423 57.1756 167.431 57.1586C167.439 57.1415 167.451 57.1264 167.465 57.1141C167.479 57.1018 167.496 57.0927 167.514 57.0873C167.532 57.0819 167.551 57.0804 167.569 57.0829C167.588 57.0853 167.606 57.0917 167.622 57.1016C167.724 57.144 167.829 57.1795 167.936 57.2081C169.112 57.5022 170.199 58.0793 171.102 58.8894C172.005 59.6995 172.697 60.718 173.117 61.8565C173.13 61.8898 173.129 61.9266 173.115 61.9593C173.101 61.992 173.075 62.0181 173.043 62.0322L172.995 62.0376Z" fill="#1A1D30"/>
<path d="M176.639 73.5281C176.622 73.5274 176.604 73.5233 176.589 73.516C176.573 73.5086 176.558 73.4983 176.547 73.4854C176.535 73.4725 176.526 73.4575 176.519 73.441C176.513 73.4246 176.511 73.4072 176.511 73.3897C176.607 71.2225 174.485 70.0298 173.788 69.6624C173.709 69.623 173.634 69.5767 173.564 69.524C173.538 69.5 173.523 69.4666 173.521 69.4311C173.52 69.3957 173.532 69.3611 173.556 69.3349C173.58 69.3088 173.614 69.2933 173.649 69.2918C173.684 69.2903 173.719 69.303 173.745 69.327L173.921 69.4335C174.649 69.8435 176.878 71.1001 176.777 73.427C176.771 73.458 176.753 73.4855 176.728 73.5042C176.702 73.5229 176.671 73.5314 176.639 73.5281Z" fill="#1A1D30"/>
<path d="M170.769 109.629H170.71L116.618 125.795C117.427 125.236 117.682 123.335 117.453 121.455C117.369 120.625 117.172 119.81 116.868 119.033C116.134 117.212 114.937 116.674 113.878 116.839V116.812L166.545 98.0269L167.119 97.8193L169.359 105.098L170.769 109.629Z" fill="#F46151"/>
<path d="M201.861 141.135C201.074 139.389 198.946 138.228 196.542 138.388C194.217 138.537 192.318 139.868 191.69 141.583C191.514 142.057 191.439 142.563 191.472 143.068C191.491 143.35 191.541 143.628 191.621 143.899L177.385 110.62L175.528 106.259L175.454 106.104L176.629 106.238L178.066 106.403L190.392 107.819L201.861 141.135Z" fill="#F46151"/>
<path d="M190.549 109.065L179.936 111.014H179.835L177.367 110.652L170.706 109.661L163.87 108.65L164.11 107.718L166.514 98.0801V98.0428L166.791 96.9406C167.855 96.0886 173.148 95.8756 177.75 96.866C178.175 96.9565 178.601 97.0684 179.032 97.1908C181.39 97.8083 183.643 98.7719 185.719 100.05C186.614 100.634 187.445 101.31 188.198 102.068C188.662 102.527 189.055 103.053 189.363 103.628C189.432 103.746 189.491 103.863 189.549 103.985V104.012C189.597 104.109 189.64 104.208 189.677 104.31C189.896 104.853 190.046 105.422 190.124 106.003L190.358 107.83L190.549 109.065Z" fill="#F46151"/>
<path opacity="0.5" d="M188.189 102.052C188.654 102.511 189.046 103.037 189.355 103.612C187.663 101.03 179.337 98.6073 173.166 97.995C169.767 97.6542 167.703 97.8246 166.495 98.0642L166.782 96.9247C167.846 96.0728 173.14 95.8598 177.741 96.8502C178.167 96.9407 178.592 97.0525 179.023 97.175C181.381 97.7924 183.635 98.756 185.71 100.034C186.605 100.618 187.436 101.294 188.189 102.052Z" fill="#8A2121"/>
<path d="M173.509 98.884C173.491 98.8827 173.474 98.8779 173.458 98.87C173.443 98.862 173.429 98.851 173.417 98.8376C173.406 98.8243 173.397 98.8088 173.392 98.7921C173.387 98.7754 173.385 98.7578 173.386 98.7403L173.578 96.2111C173.578 96.1933 173.583 96.1759 173.59 96.1599C173.598 96.1438 173.609 96.1296 173.623 96.1181C173.636 96.1066 173.652 96.098 173.669 96.0929C173.686 96.0878 173.704 96.0864 173.721 96.0886C173.739 96.0893 173.756 96.0934 173.771 96.1008C173.787 96.1082 173.801 96.1187 173.812 96.1316C173.824 96.1446 173.832 96.1597 173.838 96.1761C173.843 96.1925 173.845 96.2098 173.844 96.227L173.652 98.7616C173.651 98.7791 173.646 98.7961 173.638 98.8118C173.63 98.8274 173.619 98.8413 173.606 98.8527C173.592 98.8641 173.577 98.8727 173.56 98.8781C173.544 98.8835 173.526 98.8855 173.509 98.884Z" fill="#1A1D30"/>
<path d="M193.666 143.015L195.709 150.831L201.422 145.709L206.806 135.725C206.806 135.725 203.295 133.867 199.3 141.433C199.3 141.433 199.22 139.799 197.917 139.671C196.613 139.543 193.889 141.439 193.666 143.015Z" fill="#966D5A"/>
<path d="M203.903 146.396L202.089 148.025L202.924 149.57L201.488 151.199C200.1 152.535 197.764 153.073 196.525 152.083C196.337 151.931 196.174 151.751 196.041 151.55C195.786 151.19 195.624 150.771 195.571 150.332C195.518 149.893 195.576 149.448 195.737 149.037C195.995 148.433 196.376 147.889 196.855 147.44C198.181 146.176 199.17 144.6 199.733 142.855C199.86 142.451 199.993 142.035 200.132 141.641C201.025 139.112 203.802 134.943 206.579 135.672C208.659 136.242 207.414 142.855 203.903 146.396Z" fill="#1A1D30"/>
<path d="M202.924 149.57L201.488 151.199C200.1 152.536 197.764 153.073 196.525 152.083C196.337 151.931 196.174 151.751 196.041 151.55C195.381 149.9 198.669 147.536 198.669 147.536L202.924 149.57Z" fill="#212747"/>
<path d="M181.49 66.1C181.49 66.1932 181.453 66.2826 181.387 66.3485C181.321 66.4144 181.232 66.4514 181.139 66.4514C181.046 66.4514 180.956 66.4144 180.89 66.3485C180.825 66.2826 180.788 66.1932 180.788 66.1C180.788 66.0068 180.825 65.9174 180.89 65.8515C180.956 65.7856 181.046 65.7486 181.139 65.7486C181.232 65.7486 181.321 65.7856 181.387 65.8515C181.453 65.9174 181.49 66.0068 181.49 66.1Z" fill="#1A1D30"/>
<path d="M181.875 66.7604C181.839 66.7604 181.806 66.7464 181.781 66.7215C181.756 66.6965 181.742 66.6626 181.742 66.6273C181.729 66.4616 181.667 66.3035 181.564 66.1735C181.46 66.0435 181.32 65.9474 181.162 65.8979C181.085 65.8811 181.005 65.8835 180.929 65.9049C180.853 65.9262 180.783 65.9658 180.726 66.0203C180.7 66.0451 180.666 66.0589 180.63 66.0589C180.594 66.0589 180.56 66.0451 180.534 66.0203C180.51 65.9954 180.496 65.962 180.496 65.9271C180.496 65.8923 180.51 65.8588 180.534 65.834C180.624 65.7455 180.734 65.6803 180.854 65.6441C180.975 65.6079 181.102 65.6018 181.226 65.6263C181.444 65.6895 181.637 65.8186 181.779 65.9959C181.921 66.1731 182.004 66.39 182.018 66.6167C182.02 66.636 182.017 66.6554 182.011 66.6736C182.004 66.6917 181.994 66.7082 181.98 66.7219C181.966 66.7356 181.95 66.7461 181.932 66.7528C181.913 66.7595 181.894 66.7621 181.875 66.7604Z" fill="#1A1D30"/>
<path d="M184.492 67.2931C184.498 67.3425 184.493 67.3927 184.478 67.4402C184.464 67.4878 184.439 67.5317 184.406 67.569C184.373 67.6063 184.333 67.6362 184.287 67.6567C184.242 67.6771 184.193 67.6877 184.143 67.6877C184.093 67.6877 184.044 67.6771 183.999 67.6567C183.953 67.6362 183.913 67.6063 183.88 67.569C183.847 67.5317 183.822 67.4878 183.808 67.4402C183.793 67.3927 183.789 67.3425 183.795 67.2931C183.789 67.2437 183.793 67.1935 183.808 67.146C183.822 67.0984 183.847 67.0545 183.88 67.0172C183.913 66.9799 183.953 66.95 183.999 66.9295C184.044 66.9091 184.093 66.8985 184.143 66.8985C184.193 66.8985 184.242 66.9091 184.287 66.9295C184.333 66.95 184.373 66.9799 184.406 67.0172C184.439 67.0545 184.464 67.0984 184.478 67.146C184.493 67.1935 184.498 67.2437 184.492 67.2931Z" fill="#1A1D30"/>
<path d="M184.948 67.9108C184.912 67.9108 184.878 67.8967 184.853 67.8718C184.829 67.8468 184.815 67.8129 184.815 67.7776C184.801 67.6115 184.738 67.4533 184.633 67.3233C184.529 67.1933 184.388 67.0975 184.229 67.0482C184.152 67.0299 184.072 67.0316 183.995 67.0531C183.919 67.0745 183.85 67.1149 183.793 67.1706C183.781 67.1834 183.767 67.1935 183.751 67.2004C183.735 67.2074 183.717 67.211 183.7 67.211C183.683 67.211 183.665 67.2074 183.649 67.2004C183.633 67.1935 183.619 67.1834 183.607 67.1706C183.593 67.1591 183.583 67.1448 183.575 67.1287C183.568 67.1127 183.564 67.0952 183.564 67.0774C183.564 67.0597 183.568 67.0422 183.575 67.0261C183.583 67.01 183.593 66.9958 183.607 66.9843C183.695 66.8951 183.804 66.8293 183.924 66.793C184.044 66.7568 184.171 66.7511 184.293 66.7766C184.512 66.8396 184.706 66.9684 184.848 67.1457C184.991 67.3229 185.076 67.5398 185.091 67.767C185.093 67.7863 185.09 67.8057 185.084 67.8239C185.077 67.842 185.066 67.8585 185.053 67.8722C185.039 67.8859 185.023 67.8965 185.004 67.9031C184.986 67.9098 184.967 67.9124 184.948 67.9108Z" fill="#1A1D30"/>
<path d="M183.403 69.5612C183.355 69.7184 183.271 69.8624 183.158 69.9818C182.865 70.3386 182.365 70.7326 181.876 70.4025C181.779 70.3405 181.693 70.2632 181.62 70.1735L181.583 70.1256C181.521 70.0362 181.484 69.9315 181.477 69.8227C181.469 69.7139 181.491 69.6051 181.541 69.5079C181.711 69.2204 182.073 69.3163 182.482 69.3482C183.153 69.4227 183.403 69.3216 183.403 69.5612Z" fill="#1A1D30"/>
<path d="M183.135 69.9819C182.843 70.3387 182.342 70.7327 181.853 70.4026C181.756 70.3406 181.67 70.2633 181.598 70.1736C182.007 70.0337 182.436 69.96 182.869 69.9553L183.135 69.9819Z" fill="#944042"/>
<path d="M140.344 110.045C140.322 110.044 140.3 110.038 140.28 110.027C140.261 110.015 140.244 110 140.232 109.981C138.881 107.744 137.338 108.49 137.322 108.495C137.307 108.503 137.29 108.508 137.273 108.51C137.256 108.511 137.239 108.509 137.222 108.504C137.206 108.498 137.191 108.489 137.178 108.478C137.165 108.466 137.154 108.452 137.147 108.437C137.132 108.406 137.13 108.37 137.141 108.337C137.152 108.304 137.175 108.277 137.205 108.261C137.205 108.261 138.982 107.398 140.456 109.858C140.465 109.873 140.472 109.889 140.475 109.906C140.478 109.924 140.478 109.941 140.474 109.958C140.47 109.975 140.462 109.991 140.452 110.005C140.441 110.019 140.428 110.031 140.413 110.039C140.391 110.048 140.367 110.05 140.344 110.045Z" fill="#1A1D30"/>
<path d="M192.569 119.426C192.531 119.426 192.494 119.411 192.468 119.384C192.282 119.151 192.051 118.957 191.789 118.816C191.526 118.675 191.238 118.59 190.941 118.564C190.133 118.577 189.354 118.87 188.738 119.395C188.714 119.419 188.68 119.433 188.645 119.433C188.61 119.433 188.577 119.419 188.552 119.395C188.527 119.369 188.514 119.334 188.514 119.299C188.514 119.263 188.527 119.229 188.552 119.203C189.22 118.631 190.068 118.315 190.946 118.308C191.278 118.335 191.6 118.43 191.894 118.587C192.188 118.743 192.446 118.958 192.654 119.219C192.678 119.244 192.692 119.277 192.692 119.312C192.692 119.347 192.678 119.38 192.654 119.405C192.628 119.421 192.599 119.428 192.569 119.426Z" fill="#1A1D30"/>
<path d="M175.527 45.6801C175.904 46.0058 176.31 46.2963 176.74 46.548L176.686 47.2509L179.591 48.2199C182.985 49.205 186.656 47.9324 189.385 45.1636C190.927 43.5836 192.086 41.671 192.774 39.5727C193.697 36.9021 193.796 34.0148 193.056 31.2875C192.178 28.2045 190.172 25.7605 187.337 24.6956C187.262 24.6636 184.464 23.7318 184.464 23.7318L183.709 24.5997C181.822 24.4531 179.943 24.9628 178.389 26.0427C176.303 27.475 174.665 29.9191 173.601 33.1618C171.883 38.3533 172.399 43.0018 175.527 45.6801Z" fill="#FACA32"/>
<path opacity="0.5" d="M176.742 46.5269L176.689 47.2297L179.594 48.1988C182.988 49.1839 186.658 47.9113 189.388 45.1425L181.849 41.7347L175.529 45.659C175.906 45.9847 176.312 46.2752 176.742 46.5269Z" fill="#8B5703"/>
<path d="M170.366 42.5004L170.255 42.7422L193.194 53.3124L193.305 53.0705L170.366 42.5004Z" fill="#A37010"/>
<path d="M170.665 37.7956L170.554 38.0374L193.493 48.6075L193.605 48.3657L170.665 37.7956Z" fill="#A37010"/>
<path d="M170.957 33.0857L170.846 33.3275L193.785 43.8976L193.896 43.6558L170.957 33.0857Z" fill="#A37010"/>
<path d="M171.252 28.3774L171.141 28.6193L194.08 39.1894L194.192 38.9475L171.252 28.3774Z" fill="#A37010"/>
<path d="M171.543 23.6723L171.432 23.9142L194.371 34.4843L194.483 34.2424L171.543 23.6723Z" fill="#A37010"/>
<path d="M171.839 18.9672L171.728 19.209L194.667 29.7791L194.778 29.5373L171.839 18.9672Z" fill="#A37010"/>
<path d="M172.13 14.2621L172.019 14.504L194.958 25.0741L195.069 24.8322L172.13 14.2621Z" fill="#A37010"/>
<path opacity="0.5" d="M178.412 26.048C181.141 27.0171 188.551 29.6688 193.057 31.2875C192.179 28.2045 190.174 25.7605 187.338 24.6956C187.264 24.6636 184.466 23.7318 184.466 23.7318L183.71 24.5997C181.83 24.4596 179.959 24.971 178.412 26.048Z" fill="white"/>
<path d="M189.756 38.5574C191.922 32.0668 189.391 25.3717 184.101 23.6034C178.812 21.8351 172.769 25.6633 170.603 32.1539C168.437 38.6445 170.968 45.3397 176.258 47.1079C181.547 48.8762 187.59 45.048 189.756 38.5574Z" fill="#FAE278"/>
<path opacity="0.5" d="M170.479 22.212L184.258 51.2426L188.635 49.1611L174.857 20.1306L170.479 22.212Z" fill="white"/>
<path opacity="0.5" d="M176.855 17.4188L190.634 46.4493L192.614 45.508L178.835 16.4774L176.855 17.4188Z" fill="white"/>
<path opacity="0.5" d="M165.318 23.6103L179.097 52.6408L179.841 52.2867L166.063 23.2562L165.318 23.6103Z" fill="white"/>
<path d="M178.951 46.3029C178.174 46.3057 177.401 46.1798 176.664 45.9302C172.014 44.3754 169.817 38.3692 171.759 32.544C172.617 29.8348 174.362 27.4939 176.712 25.8988C178.973 24.4292 181.462 24.0352 183.718 24.7913C185.974 25.5474 187.729 27.3578 188.655 29.8923C189.576 32.5808 189.564 35.5015 188.623 38.1828C186.99 43.0708 182.952 46.3029 178.951 46.3029ZM171.887 32.5866L172.014 32.6292C170.115 38.3159 172.238 44.173 176.749 45.6799C181.26 47.1868 186.468 43.7843 188.368 38.0976C189.292 35.474 189.305 32.6148 188.405 29.9828C187.506 27.5281 185.814 25.771 183.617 25.0415C181.42 24.312 179.031 24.7007 176.839 26.1065C174.54 27.6683 172.835 29.9608 171.998 32.6132L171.887 32.5866Z" fill="#A37010"/>
<path d="M169.036 36.1222C169.1 35.9785 169.238 35.6164 169.297 35.4779C169.407 35.185 169.627 34.9466 169.91 34.8133C170.193 34.6801 170.517 34.6626 170.813 34.7644L173.292 35.8773C173.337 35.8964 173.378 35.9243 173.412 35.9594C173.446 35.9946 173.473 36.0362 173.491 36.0818C173.509 36.1275 173.517 36.1762 173.516 36.2252C173.515 36.2742 173.504 36.3225 173.484 36.3672C173.445 36.4557 173.373 36.5258 173.284 36.5625C173.195 36.5993 173.095 36.5999 173.005 36.5642L170.451 35.5472H170.499C170.436 35.5325 170.369 35.5374 170.308 35.5612C170.248 35.5849 170.196 35.6264 170.159 35.6803C170.068 35.8613 169.957 36.2127 169.882 36.4257C169.861 36.4831 169.828 36.5356 169.787 36.5805C169.745 36.6253 169.695 36.6614 169.64 36.6869C169.584 36.7124 169.524 36.7266 169.463 36.7289C169.402 36.7311 169.341 36.7213 169.284 36.6999C169.226 36.6786 169.174 36.6462 169.129 36.6046C169.084 36.5629 169.048 36.5129 169.023 36.4572C168.997 36.4016 168.983 36.3415 168.981 36.2804C168.979 36.2192 168.988 36.1583 169.01 36.1009L169.036 36.1222Z" fill="#FFBB96"/>
<path d="M168.66 36.9691L168.835 36.5431C168.874 36.3672 168.949 36.2012 169.055 36.0554C169.161 35.9096 169.296 35.787 169.451 35.6952C169.606 35.6035 169.778 35.5444 169.957 35.5217C170.135 35.499 170.317 35.5132 170.49 35.5634H170.521L173.027 36.6869C173.132 36.7314 173.214 36.8155 173.256 36.9209C173.299 37.0262 173.298 37.1441 173.253 37.2486C173.209 37.3531 173.125 37.4357 173.019 37.4781C172.914 37.5206 172.796 37.5194 172.692 37.4749L170.138 36.4632H170.197C170.131 36.4487 170.061 36.4607 170.004 36.4965C169.946 36.5322 169.905 36.5891 169.888 36.6549C169.835 36.7934 169.708 37.1874 169.66 37.3045C169.635 37.3703 169.598 37.4305 169.55 37.4819C169.503 37.5332 169.445 37.5747 169.382 37.6039C169.318 37.633 169.249 37.6494 169.179 37.6519C169.109 37.6544 169.039 37.6432 168.973 37.6187C168.908 37.5942 168.848 37.557 168.796 37.5093C168.745 37.4615 168.703 37.4041 168.674 37.3403C168.645 37.2765 168.629 37.2076 168.626 37.1375C168.624 37.0674 168.635 36.9975 168.66 36.9318V36.9691Z" fill="#FFBB96"/>
<path d="M171.41 36.2182C171.388 36.2252 171.364 36.2252 171.341 36.2182C170.847 35.9067 170.309 35.6716 169.745 35.5207C169.426 35.4781 169.213 35.6911 169.101 36.1277C169.098 36.1448 169.091 36.1609 169.08 36.1751C169.07 36.1893 169.057 36.2012 169.042 36.2102C169.027 36.2192 169.011 36.225 168.994 36.2273C168.976 36.2296 168.959 36.2283 168.942 36.2236C168.925 36.2199 168.909 36.2127 168.895 36.2025C168.88 36.1924 168.868 36.1794 168.859 36.1644C168.851 36.1495 168.845 36.1328 168.842 36.1155C168.84 36.0982 168.841 36.0806 168.846 36.0638C168.99 35.4941 169.325 35.2066 169.777 35.2545C170.383 35.4072 170.959 35.6572 171.485 35.9946C171.515 36.0124 171.537 36.0414 171.546 36.0753C171.555 36.1092 171.55 36.1452 171.533 36.1756C171.518 36.1926 171.498 36.2054 171.477 36.2129C171.456 36.2203 171.433 36.2222 171.41 36.2182Z" fill="#C97125"/>
<path d="M168.355 37.6877L168.53 37.2617C168.569 37.0883 168.643 36.9247 168.747 36.7807C168.851 36.6366 168.983 36.5152 169.135 36.4236C169.287 36.332 169.456 36.2723 169.632 36.2479C169.808 36.2236 169.987 36.2352 170.158 36.2819L170.249 36.3192L172.265 37.4374C172.356 37.4953 172.423 37.5856 172.451 37.6902C172.479 37.7949 172.467 37.9063 172.416 38.0023C172.366 38.0983 172.281 38.1718 172.179 38.2082C172.077 38.2446 171.966 38.2413 171.866 38.1988L169.796 37.1818L169.892 37.2191C169.825 37.203 169.755 37.2142 169.696 37.2501C169.637 37.286 169.595 37.3438 169.578 37.4108C169.53 37.5492 169.403 37.9432 169.35 38.0604C169.328 38.1296 169.293 38.1937 169.246 38.2488C169.199 38.3039 169.141 38.3487 169.076 38.3807C169.011 38.4126 168.94 38.4309 168.868 38.4344C168.795 38.4379 168.723 38.4266 168.655 38.4012C168.587 38.3758 168.525 38.3368 168.473 38.2866C168.421 38.2364 168.379 38.176 168.351 38.1092C168.323 38.0424 168.309 37.9706 168.31 37.8981C168.31 37.8256 168.326 37.754 168.355 37.6877Z" fill="#FFBB96"/>
<path d="M167.977 38.8434L168.147 38.4174C168.187 38.2445 168.261 38.0815 168.365 37.938C168.469 37.7946 168.602 37.6737 168.754 37.5827C168.906 37.4917 169.075 37.4324 169.25 37.4084C169.426 37.3843 169.604 37.3961 169.775 37.443C169.796 37.4399 169.818 37.4399 169.839 37.443L171.579 38.2789C171.682 38.3248 171.763 38.4101 171.804 38.5159C171.845 38.6218 171.843 38.7396 171.797 38.8434C171.751 38.9471 171.666 39.0285 171.56 39.0694C171.454 39.1103 171.336 39.1076 171.233 39.0617L169.445 38.3269H169.514C169.446 38.3123 169.375 38.3246 169.315 38.3613C169.256 38.398 169.213 38.4562 169.195 38.5239L168.972 39.1788C168.947 39.2442 168.91 39.304 168.862 39.3549C168.814 39.4058 168.756 39.4468 168.693 39.4755C168.629 39.5042 168.56 39.52 168.49 39.5221C168.42 39.5242 168.351 39.5125 168.286 39.4876C168.22 39.4628 168.16 39.4254 168.11 39.3774C168.059 39.3294 168.018 39.2719 167.989 39.2082C167.961 39.1444 167.945 39.0756 167.943 39.0057C167.941 38.9358 167.952 38.8661 167.977 38.8008V38.8434Z" fill="#FFBB96"/>
<path d="M193.686 38.4863L192.787 36.8889C192.531 36.3852 192.232 35.9042 191.894 35.4512C191.282 34.6845 189.659 34.6845 188.776 34.5034C188.681 34.4891 188.594 34.4382 188.536 34.3615C188.477 34.2847 188.45 34.1882 188.461 34.0922C188.472 33.9962 188.52 33.9082 188.595 33.8469C188.67 33.7855 188.765 33.7555 188.861 33.7633L190.675 33.9017C191.202 33.9401 191.712 34.1054 192.161 34.3836C192.61 34.6617 192.986 35.0444 193.255 35.4991L194.814 37.7515C194.909 37.9012 194.94 38.0823 194.901 38.2551C194.862 38.4278 194.756 38.578 194.607 38.6726C194.457 38.7672 194.276 38.7985 194.104 38.7596C193.931 38.7206 193.781 38.6147 193.686 38.465V38.4863Z" fill="#FFBB96"/>
<path d="M193.389 39.6314C192.809 38.7528 191.984 37.3684 191.383 36.5271C190.782 35.6858 189.159 35.7018 188.191 35.4994C188.093 35.4874 188.004 35.4369 187.943 35.359C187.882 35.2811 187.855 35.1822 187.867 35.0841C187.879 34.9859 187.929 34.8966 188.007 34.8357C188.085 34.7748 188.183 34.7473 188.281 34.7593L190.159 34.9031C190.622 34.9403 191.072 35.0782 191.476 35.3072C191.88 35.5362 192.23 35.8507 192.5 36.2289C193.032 36.9105 193.963 38.1777 194.49 38.8912C194.54 38.9633 194.575 39.0444 194.594 39.1301C194.612 39.2158 194.614 39.3043 194.598 39.3905C194.583 39.4768 194.55 39.5592 194.503 39.6329C194.456 39.7067 194.394 39.7704 194.322 39.8204C194.25 39.8704 194.169 39.9057 194.084 39.9243C193.998 39.943 193.91 39.9445 193.823 39.929C193.737 39.9134 193.655 39.881 193.581 39.8336C193.507 39.7861 193.444 39.7247 193.394 39.6527L193.389 39.6314Z" fill="#FFBB96"/>
<path d="M192.714 40.2649C192.315 39.6366 191.607 38.5025 191.214 37.8848C191.082 37.6526 190.9 37.4531 190.681 37.301C190.462 37.1489 190.211 37.0482 189.948 37.0062L188.352 36.7453C188.254 36.7333 188.164 36.6828 188.103 36.6049C188.043 36.527 188.015 36.4282 188.027 36.33C188.039 36.2319 188.09 36.1425 188.167 36.0816C188.245 36.0207 188.344 35.9932 188.442 36.0052L190.038 36.117C190.443 36.1497 190.836 36.2694 191.19 36.4679C191.545 36.6664 191.852 36.939 192.092 37.2671C192.533 37.8475 193.347 38.9178 193.799 39.5035C193.849 39.5755 193.884 39.6567 193.903 39.7424C193.922 39.828 193.923 39.9165 193.908 40.0028C193.892 40.0891 193.86 40.1715 193.812 40.2452C193.765 40.319 193.704 40.3827 193.632 40.4327C193.56 40.4827 193.479 40.518 193.393 40.5366C193.307 40.5552 193.219 40.5568 193.133 40.5412C193.047 40.5257 192.964 40.4932 192.891 40.4458C192.817 40.3984 192.753 40.337 192.703 40.2649H192.714Z" fill="#FFBB96"/>
<path d="M191.958 40.7655C191.65 40.2331 191.091 39.3492 190.788 38.8486C190.692 38.6737 190.558 38.5226 190.396 38.4065C190.234 38.2904 190.048 38.2122 189.851 38.1777L188.591 37.9541C188.495 37.9398 188.409 37.8889 188.35 37.8121C188.291 37.7354 188.265 37.6389 188.276 37.5429C188.287 37.4469 188.335 37.3589 188.409 37.2975C188.484 37.2362 188.579 37.2062 188.676 37.214C189.559 37.2725 190.745 37.214 191.405 37.9328C191.937 38.5025 192.565 39.4024 193.054 40.0041C193.104 40.0761 193.139 40.1573 193.158 40.243C193.176 40.3286 193.178 40.4171 193.162 40.5034C193.147 40.5897 193.114 40.6721 193.067 40.7458C193.02 40.8196 192.958 40.8833 192.886 40.9333C192.814 40.9832 192.733 41.0186 192.648 41.0372C192.562 41.0558 192.474 41.0574 192.387 41.0418C192.301 41.0262 192.219 40.9938 192.145 40.9464C192.072 40.899 192.008 40.8375 191.958 40.7655Z" fill="#FFBB96"/>
<path d="M191.562 41.2445L191.227 39.5246L192.291 38.6514C193.041 37.9379 193.525 36.399 193.568 35.3607L193.818 35.6057C194.101 35.8798 194.343 36.1937 194.536 36.5375C195.015 37.3947 195.786 40.6428 195.786 40.6428C195.76 41.4468 193.302 41.6704 192.201 41.7077C192.056 41.7205 191.912 41.6806 191.795 41.5955C191.678 41.5104 191.595 41.3857 191.562 41.2445Z" fill="#FFBB96"/>
<path d="M192.497 41.8889C192.407 41.8889 191.609 41.8889 191.407 41.3991C191.238 40.8319 191.119 40.2511 191.05 39.6632C191.013 39.4502 190.981 39.2266 190.965 39.1734C190.953 39.1476 190.95 39.1187 190.956 39.0909C190.962 39.0631 190.976 39.0379 190.997 39.019C191.023 38.9942 191.057 38.9804 191.093 38.9804C191.129 38.9804 191.163 38.9942 191.189 39.019C191.226 39.0615 191.231 39.0828 191.311 39.61C191.382 40.1768 191.496 40.7375 191.651 41.2873C191.769 41.5535 192.316 41.6121 192.497 41.6121C192.533 41.6121 192.566 41.6261 192.591 41.6511C192.616 41.676 192.63 41.7099 192.63 41.7452C192.63 41.7805 192.616 41.8143 192.591 41.8393C192.566 41.8643 192.533 41.8783 192.497 41.8783V41.8889Z" fill="#C97125"/>
<path d="M192.311 38.9285C192.291 38.9285 192.27 38.9237 192.252 38.9145C192.233 38.9052 192.217 38.8918 192.205 38.8753C191.104 37.4216 190.157 37.4323 190.141 37.4429C190.106 37.4429 190.072 37.4289 190.047 37.404C190.022 37.379 190.008 37.3451 190.008 37.3098C190.008 37.2745 190.022 37.2407 190.047 37.2157C190.072 37.1907 190.106 37.1767 190.141 37.1767C190.189 37.1767 191.242 37.1394 192.434 38.7155C192.444 38.7295 192.452 38.7454 192.456 38.7624C192.46 38.7793 192.461 38.7969 192.459 38.8142C192.456 38.8315 192.451 38.8482 192.442 38.8632C192.433 38.8783 192.421 38.8914 192.407 38.9019C192.379 38.9219 192.345 38.9313 192.311 38.9285Z" fill="#C97125"/>
<path d="M192.752 37.8743C192.732 37.8739 192.711 37.8689 192.693 37.8597C192.675 37.8505 192.658 37.8372 192.646 37.821C191.545 36.3674 190.592 36.378 190.576 36.3833C190.559 36.3848 190.541 36.3826 190.524 36.3769C190.508 36.3711 190.492 36.3619 190.479 36.3499C190.466 36.3379 190.456 36.3233 190.449 36.3071C190.442 36.2908 190.438 36.2733 190.438 36.2556C190.437 36.2381 190.44 36.2206 190.446 36.2042C190.452 36.1878 190.461 36.1727 190.473 36.1598C190.485 36.147 190.499 36.1366 190.515 36.1293C190.531 36.1219 190.548 36.1178 190.566 36.1171C190.608 36.1171 191.662 36.0852 192.859 37.6613C192.883 37.6862 192.897 37.7196 192.897 37.7545C192.897 37.7893 192.883 37.8227 192.859 37.8476C192.827 37.8688 192.79 37.8782 192.752 37.8743Z" fill="#C97125"/>
<path d="M193.262 36.8786C193.242 36.8775 193.222 36.8722 193.203 36.863C193.185 36.8539 193.169 36.841 193.156 36.8253C192.054 35.3663 191.102 35.377 191.092 35.3876C191.074 35.3884 191.057 35.3856 191.04 35.3796C191.024 35.3735 191.009 35.3643 190.996 35.3525C190.983 35.3406 190.973 35.3263 190.965 35.3104C190.958 35.2945 190.954 35.2773 190.953 35.2599C190.952 35.2254 190.964 35.1917 190.986 35.1659C191.009 35.1401 191.041 35.1241 191.076 35.1214C191.123 35.1214 192.177 35.0841 193.368 36.6602C193.393 36.6851 193.406 36.7186 193.406 36.7534C193.406 36.7883 193.393 36.8217 193.368 36.8466C193.354 36.8593 193.337 36.8687 193.319 36.8742C193.3 36.8797 193.281 36.8812 193.262 36.8786Z" fill="#C97125"/>
<path d="M194.912 37.6665C194.885 37.6658 194.859 37.6567 194.837 37.6405C194.815 37.6243 194.799 37.6018 194.79 37.576C194.529 36.7187 193.614 35.9094 193.194 35.5153C192.965 35.313 192.912 35.2651 192.896 35.1959C192.89 35.1613 192.898 35.1256 192.918 35.0967C192.937 35.0678 192.968 35.0479 193.003 35.0414C193.031 35.0354 193.061 35.0395 193.088 35.053C193.114 35.0666 193.135 35.0889 193.146 35.116L193.37 35.3183C193.827 35.723 194.779 36.5696 195.056 37.4961C195.066 37.5293 195.063 37.5651 195.047 37.596C195.031 37.6268 195.004 37.6502 194.971 37.6612L194.912 37.6665Z" fill="#C97125"/>
<path d="M168.649 39.5302C168.624 39.5355 168.599 39.5355 168.574 39.5302C168.546 39.5097 168.526 39.479 168.519 39.4444C168.512 39.4097 168.518 39.3738 168.537 39.3438C168.58 39.2799 169.229 38.4599 169.362 38.2789C169.381 38.2564 169.407 38.2407 169.435 38.234C169.464 38.2273 169.494 38.23 169.521 38.2416C170.132 38.5323 170.772 38.7555 171.431 38.9072C171.45 38.9072 171.469 38.9113 171.486 38.9192C171.504 38.9271 171.519 38.9387 171.532 38.9531C171.544 38.9675 171.553 38.9844 171.559 39.0027C171.564 39.021 171.566 39.0402 171.563 39.0591C171.56 39.078 171.553 39.0961 171.543 39.1121C171.533 39.1282 171.519 39.1419 171.503 39.1522C171.487 39.1625 171.469 39.1693 171.45 39.172C171.431 39.1748 171.412 39.1734 171.394 39.1681C170.742 39.0299 170.108 38.8154 169.505 38.5291C169.207 38.9019 168.793 39.429 168.761 39.4769C168.747 39.4939 168.73 39.5075 168.711 39.5167C168.692 39.526 168.67 39.5306 168.649 39.5302Z" fill="#C97125"/>
<path d="M167.974 38.4919C167.941 38.4919 167.909 38.4806 167.883 38.4599C167.859 38.435 167.845 38.4016 167.845 38.3667C167.845 38.3319 167.859 38.2984 167.883 38.2735C167.984 38.1564 168.841 37.1554 169.479 37.2512C169.921 37.3411 170.34 37.5225 170.708 37.7837C170.722 37.7933 170.734 37.8056 170.744 37.82C170.753 37.8344 170.759 37.8505 170.762 37.8674C170.765 37.8843 170.765 37.9016 170.761 37.9183C170.757 37.9351 170.75 37.9508 170.74 37.9647C170.72 37.9935 170.689 38.0134 170.654 38.0204C170.62 38.0273 170.584 38.0207 170.554 38.002C170.218 37.7743 169.84 37.6168 169.442 37.5387C168.995 37.4748 168.303 38.1883 168.069 38.4652C168.042 38.4862 168.008 38.4957 167.974 38.4919Z" fill="#C97125"/>
<path d="M168.505 37.2032C168.487 37.2032 168.47 37.1996 168.454 37.1925C168.437 37.1855 168.423 37.1751 168.411 37.1621C168.399 37.149 168.39 37.1337 168.384 37.1169C168.378 37.1002 168.376 37.0824 168.377 37.0647C168.39 36.6854 168.537 36.323 168.792 36.0424C168.871 35.9738 168.964 35.9231 169.064 35.8937C169.164 35.8643 169.269 35.8569 169.372 35.872C169.979 36.0254 170.557 36.2753 171.085 36.6121C171.109 36.6328 171.125 36.6614 171.13 36.6928C171.135 36.7241 171.128 36.7562 171.112 36.7832C171.095 36.8101 171.069 36.8303 171.039 36.8399C171.009 36.8496 170.976 36.8481 170.947 36.8358C170.453 36.5239 169.915 36.2887 169.351 36.1382C169.285 36.1277 169.217 36.1317 169.153 36.1501C169.089 36.1685 169.029 36.2008 168.979 36.2447C168.78 36.4794 168.666 36.7736 168.654 37.0807C168.65 37.1165 168.632 37.1493 168.604 37.1722C168.577 37.1951 168.541 37.2062 168.505 37.2032Z" fill="#C97125"/>
<path d="M169.102 41.5535C168.87 41.5512 168.641 41.5042 168.426 41.415C168.394 41.4002 168.369 41.3731 168.356 41.3396C168.344 41.3062 168.345 41.2691 168.36 41.2366C168.375 41.2042 168.402 41.1789 168.435 41.1664C168.469 41.1539 168.506 41.1553 168.538 41.1701C168.719 41.2529 168.917 41.2898 169.116 41.2778C169.314 41.2657 169.507 41.2049 169.676 41.1009C170.022 40.824 169.778 40.201 169.676 39.9348C169.629 39.8176 169.613 39.7803 169.634 39.7218C169.645 39.6889 169.668 39.6615 169.699 39.6456C169.73 39.6297 169.766 39.6265 169.799 39.6366C169.824 39.6443 169.847 39.6597 169.863 39.6807C169.879 39.7017 169.888 39.7272 169.889 39.7537C169.897 39.7814 169.908 39.8082 169.921 39.8336C170.038 40.1264 170.347 40.8985 169.841 41.3085C169.63 41.4727 169.369 41.5591 169.102 41.5535Z" fill="#C97125"/>
<path d="M106.136 122.004C106.104 122.003 106.074 121.992 106.049 121.971C106.025 121.951 106.009 121.923 106.003 121.892C105.79 120.545 104.976 120.513 104.939 120.513C104.903 120.513 104.87 120.499 104.845 120.474C104.82 120.449 104.806 120.415 104.806 120.38C104.806 120.345 104.82 120.311 104.845 120.286C104.87 120.261 104.903 120.247 104.939 120.247C104.981 120.247 106.003 120.247 106.263 121.844C106.268 121.879 106.259 121.915 106.238 121.944C106.217 121.972 106.186 121.992 106.152 121.999L106.136 122.004Z" fill="#1A1D30"/>
<path d="M107.603 122.004C107.572 122.003 107.541 121.992 107.517 121.971C107.493 121.951 107.477 121.923 107.47 121.892C107.258 120.545 106.444 120.513 106.406 120.513C106.389 120.514 106.372 120.511 106.355 120.504C106.339 120.498 106.325 120.488 106.312 120.475C106.3 120.463 106.291 120.448 106.285 120.431C106.279 120.415 106.277 120.397 106.279 120.38C106.279 120.345 106.292 120.312 106.316 120.288C106.34 120.263 106.372 120.248 106.406 120.247C106.454 120.247 107.47 120.247 107.731 121.844C107.737 121.879 107.73 121.914 107.71 121.943C107.69 121.972 107.659 121.992 107.625 121.999L107.603 122.004Z" fill="#1A1D30"/>
<path d="M196.619 144.98H196.593C196.559 144.972 196.529 144.952 196.509 144.923C196.49 144.895 196.481 144.86 196.486 144.825C196.486 144.66 196.992 144.011 198.157 142.451C198.843 141.535 199.55 140.587 199.96 139.975C199.97 139.96 199.983 139.948 199.998 139.939C200.013 139.929 200.029 139.923 200.047 139.92C200.064 139.917 200.082 139.917 200.099 139.921C200.116 139.925 200.132 139.932 200.146 139.943C200.162 139.952 200.175 139.964 200.185 139.979C200.196 139.993 200.203 140.01 200.206 140.028C200.21 140.045 200.21 140.063 200.206 140.081C200.202 140.098 200.194 140.115 200.184 140.129C199.763 140.741 199.056 141.689 198.369 142.61C197.683 143.532 196.8 144.714 196.747 144.873C196.742 144.903 196.726 144.931 196.703 144.95C196.679 144.97 196.65 144.98 196.619 144.98Z" fill="#1A1D30"/>
<path d="M195.104 143.505H195.051C195.034 143.498 195.02 143.488 195.008 143.475C194.995 143.463 194.986 143.448 194.979 143.431C194.973 143.415 194.97 143.398 194.97 143.38C194.971 143.363 194.974 143.345 194.981 143.329C195.48 142.248 196.367 141.394 197.466 140.938C198.695 140.464 199.211 141.151 199.232 141.178C199.242 141.192 199.249 141.208 199.253 141.226C199.257 141.243 199.258 141.261 199.255 141.278C199.252 141.295 199.245 141.312 199.236 141.327C199.227 141.341 199.214 141.354 199.2 141.364C199.186 141.375 199.17 141.382 199.152 141.386C199.135 141.39 199.118 141.39 199.1 141.387C199.083 141.384 199.066 141.378 199.052 141.368C199.037 141.359 199.024 141.347 199.014 141.332C199.014 141.332 198.594 140.8 197.562 141.183C196.529 141.615 195.695 142.419 195.226 143.436C195.214 143.457 195.196 143.475 195.174 143.487C195.153 143.499 195.128 143.505 195.104 143.505Z" fill="#1A1D30"/>
<path d="M195.746 144.394H195.687C195.656 144.379 195.631 144.352 195.619 144.319C195.607 144.286 195.609 144.25 195.623 144.218C196.119 143.135 197.007 142.281 198.108 141.827C198.329 141.74 198.562 141.688 198.799 141.673C198.817 141.672 198.834 141.674 198.851 141.679C198.868 141.684 198.883 141.693 198.897 141.704C198.91 141.716 198.921 141.73 198.929 141.745C198.937 141.761 198.942 141.778 198.943 141.795C198.944 141.831 198.932 141.866 198.908 141.893C198.884 141.92 198.851 141.937 198.815 141.939C198.605 141.951 198.398 141.998 198.204 142.078C197.167 142.503 196.331 143.309 195.868 144.33C195.855 144.35 195.837 144.366 195.815 144.378C195.794 144.389 195.77 144.394 195.746 144.394Z" fill="#1A1D30"/>
<path d="M189.701 104.3C189.664 104.225 189.621 104.124 189.573 104.001C189.621 104.098 189.664 104.198 189.701 104.3Z" fill="#1A1D30"/>
<path opacity="0.5" d="M191.675 141.599C191.499 142.073 191.425 142.579 191.457 143.084C191.476 143.366 191.526 143.644 191.606 143.915L177.37 110.636L170.709 109.645L116.617 125.795C117.426 125.236 117.681 123.335 117.452 121.455C120.213 120.801 169.353 105.077 169.353 105.077C170.564 105.506 171.81 105.83 173.077 106.046C173.87 106.193 174.675 106.27 175.481 106.275C175.886 106.275 176.258 106.275 176.583 106.275C177.024 106.254 177.465 106.21 177.902 106.142L178.019 106.44L191.627 141.615L191.675 141.599Z" fill="#8A2121"/>
<path d="M240.924 171.869V176.784C240.924 176.99 240.842 177.188 240.697 177.334C240.551 177.479 240.353 177.561 240.147 177.561H221.352C221.294 177.569 221.235 177.569 221.177 177.561C221.005 177.524 220.851 177.428 220.74 177.29C220.63 177.153 220.57 176.982 220.57 176.805V171.869C220.57 171.766 220.591 171.665 220.63 171.57C220.669 171.475 220.727 171.388 220.799 171.316C220.872 171.243 220.958 171.185 221.053 171.146C221.148 171.107 221.25 171.086 221.352 171.086H240.147C240.272 171.087 240.394 171.117 240.504 171.174C240.614 171.232 240.709 171.315 240.78 171.417C240.875 171.548 240.925 171.707 240.924 171.869Z" fill="#FACA32"/>
<path d="M238.88 177.561H238.614L238.625 171.086H238.891L238.88 177.561Z" fill="#A37010"/>
<path d="M234.846 177.561H234.58L234.591 171.086H234.857L234.846 177.561Z" fill="#A37010"/>
<path d="M230.816 177.561H230.55L230.56 171.086H230.826L230.816 177.561Z" fill="#A37010"/>
<path d="M226.782 177.561H226.516L226.527 171.086H226.793L226.782 177.561Z" fill="#A37010"/>
<path d="M222.756 177.561H222.49L222.496 171.086H222.762L222.756 177.561Z" fill="#A37010"/>
<path d="M246.177 178.344V183.253C246.177 183.459 246.096 183.657 245.95 183.803C245.804 183.949 245.607 184.031 245.401 184.031H226.606C226.399 184.031 226.201 183.949 226.055 183.803C225.908 183.658 225.825 183.46 225.824 183.253V178.344C225.824 178.136 225.906 177.937 226.053 177.79C226.199 177.644 226.398 177.561 226.606 177.561H245.401C245.503 177.561 245.605 177.582 245.699 177.621C245.794 177.66 245.88 177.718 245.952 177.791C246.024 177.864 246.081 177.95 246.12 178.045C246.159 178.14 246.178 178.241 246.177 178.344Z" fill="#FACA32"/>
<path d="M244.294 184.031H244.028L244.038 177.561H244.304L244.294 184.031Z" fill="#A37010"/>
<path d="M240.256 184.031H239.99L240 177.561H240.266L240.256 184.031Z" fill="#A37010"/>
<path d="M236.226 184.031H235.96L235.971 177.561H236.237L236.226 184.031Z" fill="#A37010"/>
<path d="M232.192 184.031H231.926L231.936 177.561H232.202L232.192 184.031Z" fill="#A37010"/>
<path d="M228.166 184.031H227.9L227.905 177.561H228.171L228.166 184.031Z" fill="#A37010"/>
<path d="M236.606 177.561C234.585 177.891 232.553 178.397 231.185 179.185C228.084 180.953 226.456 182.95 225.967 183.722C225.864 183.587 225.808 183.423 225.807 183.253V178.344C225.807 178.136 225.89 177.937 226.036 177.79C226.183 177.644 226.382 177.561 226.589 177.561H236.606Z" fill="#1A1D30"/>
<path d="M242.986 184.031H224.197C223.765 184.031 223.415 184.381 223.415 184.813V189.717C223.415 190.15 223.765 190.5 224.197 190.5H242.986C243.418 190.5 243.768 190.15 243.768 189.717V184.813C243.768 184.381 243.418 184.031 242.986 184.031Z" fill="#FACA32"/>
<path d="M241.783 190.5H241.517L241.528 184.031H241.794L241.783 190.5Z" fill="#A37010"/>
<path d="M237.758 190.5H237.492L237.497 184.031H237.763L237.758 190.5Z" fill="#A37010"/>
<path d="M233.724 190.5H233.458L233.463 184.031H233.729L233.724 190.5Z" fill="#A37010"/>
<path d="M229.694 190.5H229.428L229.433 184.031H229.699L229.694 190.5Z" fill="#A37010"/>
<path d="M225.66 190.5H225.394L225.404 184.031H225.67L225.66 190.5Z" fill="#A37010"/>
<path d="M243.777 184.813V187.476C242.687 186.925 241.558 186.455 240.399 186.07C236.738 184.921 232.947 184.241 229.115 184.047H242.989C243.195 184.045 243.393 184.125 243.54 184.268C243.688 184.412 243.773 184.608 243.777 184.813Z" fill="#1A1D30"/>
<path opacity="0.5" d="M237.336 171.086H233.027V177.561H237.336V171.086Z" fill="white"/>
<path opacity="0.5" d="M245.223 177.561H241.057V184.036H245.223V177.561Z" fill="white"/>
<path opacity="0.5" d="M229.116 184.031H224.95V190.505H229.116V184.031Z" fill="white"/>
<path d="M129.108 69.6355L125.714 72.8303C123.586 74.811 120.34 75.0826 117.063 73.8952C114.793 73.0173 112.753 71.6313 111.1 69.8431C108.211 66.7761 106.754 63.0435 106.913 59.8807C106.949 58.0757 107.688 56.356 108.972 55.0885L112.361 51.8937L113.707 53.3207L114.361 54.0129L125.863 66.2277L127.762 68.2457L129.108 69.6355Z" fill="#FACA32"/>
<path d="M129.032 70.5848L110.962 87.7424L111.145 87.9356L129.215 70.778L129.032 70.5848Z" fill="#A37010"/>
<path d="M127.264 66.2841L109.194 83.4417L109.377 83.6349L127.447 66.4773L127.264 66.2841Z" fill="#A37010"/>
<path d="M125.496 61.9834L107.426 79.141L107.609 79.3341L125.679 62.1766L125.496 61.9834Z" fill="#A37010"/>
<path d="M123.733 57.6798L105.666 74.8406L105.849 75.0337L123.916 57.873L123.733 57.6798Z" fill="#A37010"/>
<path d="M121.965 53.3744L103.898 70.5352L104.081 70.7283L122.148 53.5675L121.965 53.3744Z" fill="#A37010"/>
<path d="M120.197 49.0745L102.13 66.2352L102.313 66.4283L120.38 49.2676L120.197 49.0745Z" fill="#A37010"/>
<path d="M118.432 44.7788L100.362 61.9364L100.545 62.1296L118.615 44.972L118.432 44.7788Z" fill="#A37010"/>
<path opacity="0.5" d="M129.111 69.6356L125.717 72.8304C123.589 74.8112 120.344 75.0827 117.067 73.8953L125.866 66.2012L127.765 68.2192L129.111 69.6356Z" fill="#8B5703"/>
<path opacity="0.5" d="M114.366 53.981C113.18 54.982 109.419 57.9212 106.918 59.8754C106.954 58.0704 107.693 56.3507 108.977 55.0832L112.366 51.8884L113.712 53.3154L114.366 53.981Z" fill="white"/>
<path d="M129.105 69.647C132.552 66.3959 131.599 59.7804 126.977 54.8708C122.354 49.9612 115.813 48.6167 112.366 51.8678C108.919 55.1189 109.872 61.7345 114.495 66.644C119.117 71.5536 125.658 72.8981 129.105 69.647Z" fill="#FAE278"/>
<path opacity="0.5" d="M120.214 76.2326L125.951 45.0648L120.704 44.0971L114.966 75.2648L120.214 76.2326Z" fill="white"/>
<path opacity="0.5" d="M111.474 76.2091L117.212 45.0413L114.842 44.6042L109.104 75.772L111.474 76.2091Z" fill="white"/>
<path opacity="0.5" d="M125.737 78.2071L131.475 47.0394L130.58 46.8744L124.843 78.0421L125.737 78.2071Z" fill="white"/>
<path d="M124.133 69.8539C121.404 69.8539 118.164 68.3523 115.584 65.5941C113.743 63.7188 112.485 61.3496 111.961 58.7732C111.557 56.3878 112.094 54.3591 113.477 53.0546C114.861 51.75 116.903 51.3187 119.271 51.8512C121.818 52.5215 124.115 53.9182 125.883 55.8713C129.884 60.131 130.831 65.7592 128.011 68.4375C126.952 69.3962 125.561 69.9042 124.133 69.8539ZM117.329 51.8991C115.979 51.8511 114.662 52.3303 113.658 53.2356C112.344 54.4762 111.834 56.4304 112.222 58.7147C112.731 61.2489 113.965 63.5802 115.776 65.4238C119.675 69.5663 125.075 70.8389 127.809 68.2618C130.543 65.6847 129.591 60.2162 125.681 56.0736C123.95 54.1568 121.698 52.7859 119.202 52.1281C118.588 51.9802 117.96 51.9033 117.329 51.8991Z" fill="#A37010"/>
<path d="M91.1017 126.455C90.8815 126.833 90.6269 127.189 90.3409 127.52L90.5803 128.084L88.4524 129.682C85.9254 131.45 82.542 131.428 79.5097 129.911C77.7922 129.039 76.2979 127.784 75.1421 126.242C73.6286 124.297 72.7367 121.94 72.5833 119.48C72.4396 116.684 73.4078 114.081 75.4613 112.43C75.5145 112.382 77.5626 110.833 77.5626 110.833L78.4298 111.333C79.9456 110.692 81.635 110.588 83.2176 111.04C85.3456 111.637 87.3724 113.17 89.1759 115.571C92.0592 119.379 92.937 123.361 91.1017 126.455Z" fill="#FACA32"/>
<path opacity="0.5" d="M90.3381 127.515L90.5774 128.079L88.4495 129.677C85.9226 131.444 82.5392 131.423 79.5068 129.906L84.7788 124.97L91.0988 126.434C90.8795 126.817 90.6248 127.179 90.3381 127.515Z" fill="#8B5703"/>
<path d="M78.6555 137.733L78.4746 137.536L94.4608 122.355L94.6416 122.552L78.6555 137.733Z" fill="#A37010"/>
<path d="M77.0954 133.925L76.9092 133.734L92.8953 118.553L93.0815 118.745L77.0954 133.925Z" fill="#A37010"/>
<path d="M75.5329 130.124L75.3521 129.927L91.3329 114.746L91.5191 114.943L75.5329 130.124Z" fill="#A37010"/>
<path d="M73.967 126.316L73.7861 126.125L89.7723 110.944L89.9532 111.136L73.967 126.316Z" fill="#A37010"/>
<path d="M72.4016 122.509L72.2207 122.318L88.2069 107.137L88.3877 107.329L72.4016 122.509Z" fill="#A37010"/>
<path d="M70.8415 118.707L70.6553 118.51L86.6414 103.335L86.8276 103.527L70.8415 118.707Z" fill="#A37010"/>
<path d="M69.279 114.9L69.0981 114.709L85.0843 99.528L85.2652 99.7197L69.279 114.9Z" fill="#A37010"/>
<path opacity="0.5" d="M83.2103 111.051C81.226 112.622 75.8476 116.908 72.5706 119.496C72.4269 116.7 73.3951 114.097 75.4486 112.446C75.5018 112.398 77.5499 110.849 77.5499 110.849L78.4171 111.349C79.9339 110.705 81.6254 110.599 83.2103 111.051Z" fill="white"/>
<path d="M90.8829 127.849C94.7558 124.901 94.9688 118.659 91.3587 113.908C87.7485 109.156 81.6823 107.693 77.8094 110.641C73.9365 113.588 73.7235 119.83 77.3336 124.582C80.9438 129.334 87.01 130.797 90.8829 127.849Z" fill="#FAE278"/>
<path opacity="0.5" d="M84.4786 105.154L81.2441 133.006L85.4451 133.495L88.6796 105.642L84.4786 105.154Z" fill="white"/>
<path opacity="0.5" d="M80.17 103.265L76.9355 131.117L78.8326 131.338L82.0671 103.486L80.17 103.265Z" fill="white"/>
<path opacity="0.5" d="M92.6099 105.266L89.3755 133.119L90.0889 133.202L93.3233 105.349L92.6099 105.266Z" fill="white"/>
<path d="M86.1903 128.313C83.3655 128.313 80.2959 126.758 78.1627 123.952C76.6316 121.999 75.8031 119.587 75.8113 117.105C75.7691 116.024 75.9875 114.949 76.448 113.971C76.9086 112.993 77.5976 112.14 78.457 111.484C79.3164 110.829 80.3209 110.39 81.3854 110.205C82.4499 110.02 83.5433 110.095 84.5731 110.422C86.9646 111.08 89.0654 112.524 90.5366 114.522C93.787 118.782 93.6541 124.389 90.244 126.987C89.0758 127.864 87.6506 128.331 86.1903 128.313ZM82.5143 110.422C81.1058 110.405 79.731 110.854 78.6042 111.7C77.7956 112.348 77.146 113.172 76.7052 114.11C76.2644 115.047 76.0441 116.074 76.0613 117.11C76.0547 119.533 76.8644 121.887 78.3595 123.792C81.5195 127.951 86.7702 129.293 90.0632 126.785C93.3561 124.277 93.4679 118.856 90.3079 114.698C88.8745 112.747 86.8261 111.336 84.4933 110.694C83.8476 110.521 83.1827 110.429 82.5143 110.422Z" fill="#A37010"/>
<path d="M243.399 84.1346L248.038 87.8619C249.246 88.831 251.672 87.9737 254.342 85.9024C256.118 84.4955 257.725 82.8873 259.13 81.1102C261.01 78.8357 262.489 76.2572 263.503 73.4853C264.232 71.2968 264.211 69.5717 263.258 68.8102L258.412 64.9232L256.034 67.9742L246.788 79.8269L243.399 84.1346Z" fill="#FACA32"/>
<path d="M238.86 83.0038L238.696 83.2136L260.135 99.9783L260.298 99.7685L238.86 83.0038Z" fill="#A37010"/>
<path d="M261.616 95.1304L240.177 78.363L240.342 78.1553L261.781 94.9227L261.616 95.1304Z" fill="#A37010"/>
<path d="M263.085 90.2687L241.646 73.5013L241.811 73.2936L263.25 90.061L263.085 90.2687Z" fill="#A37010"/>
<path d="M264.552 85.4076L243.119 68.6455L243.284 68.4326L264.717 85.1999L264.552 85.4076Z" fill="#A37010"/>
<path d="M266.026 80.546L244.587 63.7839L244.752 63.5709L266.191 80.3383L266.026 80.546Z" fill="#A37010"/>
<path d="M267.498 75.6846L246.064 58.9225L246.229 58.7095L267.663 75.4769L267.498 75.6846Z" fill="#A37010"/>
<path d="M268.972 70.8232L247.533 54.0611L247.698 53.8481L269.137 70.6155L268.972 70.8232Z" fill="#A37010"/>
<path opacity="0.5" d="M243.399 84.1345L248.038 87.8618C249.246 88.8308 251.672 87.9736 254.342 85.9023C252.124 84.1398 249.187 81.7916 246.767 79.8535L243.399 84.1345Z" fill="#8B5703"/>
<path opacity="0.5" d="M256.012 67.9742C257.794 69.2894 261.125 71.7015 263.46 73.4427C264.189 71.2542 264.168 69.5291 263.215 68.7676L258.411 64.9232L256.012 67.9742Z" fill="white"/>
<path d="M254.467 77.357C258.664 72.0896 260.515 66.5813 258.601 65.0541C256.688 63.5268 251.734 66.5588 247.538 71.8263C243.341 77.0938 241.49 82.602 243.404 84.1293C245.317 85.6565 250.27 82.6245 254.467 77.357Z" fill="#FAE278"/>
<path opacity="0.5" d="M248.989 58.3864L249.719 90.0704L253.484 89.9836L252.755 58.2996L248.989 58.3864Z" fill="white"/>
<path opacity="0.5" d="M244.955 56.9087L245.685 88.5927L247.386 88.5535L246.657 56.8695L244.955 56.9087Z" fill="white"/>
<path opacity="0.5" d="M256.188 57.2793L256.917 88.9633L257.561 88.9485L256.832 57.2645L256.188 57.2793Z" fill="white"/>
<path d="M245.216 83.3573C244.872 83.3721 244.534 83.2667 244.259 83.0591C243.493 82.4521 243.498 80.9878 244.259 78.9485C245.238 76.574 246.567 74.3593 248.201 72.3778C249.767 70.3369 251.63 68.5421 253.728 67.0532C255.542 65.8445 256.962 65.5144 257.728 66.1214C258.495 66.7284 258.489 68.1927 257.728 70.2373C255.682 74.97 252.414 79.072 248.259 82.122C247.041 82.942 245.998 83.3573 245.216 83.3573ZM248.408 72.5429C246.794 74.5059 245.478 76.6967 244.503 79.0443C243.785 80.9399 243.753 82.3296 244.408 82.8515C245.062 83.3733 246.413 83.0325 248.1 81.909C252.207 78.889 255.44 74.8319 257.468 70.1521C258.186 68.2566 258.223 66.8668 257.564 66.3397C256.904 65.8125 255.563 66.164 253.872 67.2821C251.801 68.7562 249.96 70.529 248.408 72.5429Z" fill="#A37010"/>
<path d="M235.791 115.332L232.067 118.697L231.95 118.793C231.498 119.213 231.86 120.438 232.812 122.089C234.138 124.254 235.68 126.278 237.414 128.132C238.724 129.577 240.132 130.931 241.627 132.184C243.67 133.867 245.351 134.783 246.048 134.506C246.112 134.487 246.171 134.452 246.218 134.405L246.319 134.314L250.086 130.848L250.171 130.779L237.983 117.744L235.791 115.332Z" fill="#FACA32"/>
<path d="M253.051 128.047L235.592 143.869L235.77 144.066L253.229 128.244L253.051 128.047Z" fill="#A37010"/>
<path d="M252.443 125.493L234.866 141.245L235.043 141.443L252.621 125.691L252.443 125.493Z" fill="#A37010"/>
<path d="M250.882 121.37L233.305 137.123L233.482 137.321L251.06 121.569L250.882 121.37Z" fill="#A37010"/>
<path d="M249.321 117.253L231.743 133.006L231.921 133.204L249.498 117.452L249.321 117.253Z" fill="#A37010"/>
<path d="M247.763 113.135L230.186 128.888L230.363 129.086L247.941 113.334L247.763 113.135Z" fill="#A37010"/>
<path d="M246.209 109.026L228.629 124.775L228.806 124.973L246.386 109.224L246.209 109.026Z" fill="#A37010"/>
<path d="M244.656 104.899L227.076 120.648L227.254 120.847L244.834 105.097L244.656 104.899Z" fill="#A37010"/>
<path opacity="0.5" d="M246.98 127.307C245.305 128.846 243.32 130.661 241.661 132.184C243.703 133.867 245.385 134.783 246.081 134.506C246.18 134.455 246.272 134.39 246.353 134.314L250.13 130.858L246.98 127.307Z" fill="#8B5703"/>
<path opacity="0.5" d="M235.791 115.332L232.067 118.697L231.95 118.793C231.498 119.213 231.86 120.438 232.812 122.089C234.568 120.619 236.696 118.825 238.004 117.723L235.791 115.332Z" fill="white"/>
<path d="M244.679 121.503C248.621 125.811 251.063 129.99 250.143 130.837C249.222 131.684 245.275 128.872 241.338 124.565C237.402 120.257 234.955 116.072 235.875 115.225C236.795 114.379 240.743 117.19 244.679 121.503Z" fill="#FAE278"/>
<path opacity="0.5" d="M245.776 136.726L242.021 109.498L239.834 109.8L243.589 137.028L245.776 136.726Z" fill="white"/>
<path opacity="0.5" d="M243.409 138.831L239.564 111.62L238.58 111.76L242.424 138.971L243.409 138.831Z" fill="white"/>
<path opacity="0.5" d="M248.266 137.203L244.51 109.975L244.136 110.027L247.891 137.254L248.266 137.203Z" fill="white"/>
<path d="M249.142 130.252C248.642 130.252 247.79 129.788 246.604 128.867C243.121 126.008 240.063 122.666 237.523 118.942C236.459 117.307 236.135 116.28 236.523 115.944C236.911 115.609 237.879 116.019 239.417 117.212C241.171 118.624 242.808 120.177 244.311 121.855C245.845 123.502 247.243 125.27 248.493 127.142C249.557 128.782 249.881 129.804 249.498 130.145C249.396 130.222 249.269 130.26 249.142 130.252ZM236.874 116.077C236.811 116.074 236.749 116.093 236.698 116.131C236.507 116.306 236.667 117.105 237.762 118.793C240.294 122.494 243.34 125.816 246.806 128.66C248.402 129.884 249.168 130.119 249.36 129.943C249.551 129.767 249.392 128.963 248.296 127.281C245.768 123.578 242.726 120.254 239.263 117.409C237.975 116.418 237.22 116.077 236.874 116.077Z" fill="#A37010"/>
</g>
<defs>
<linearGradient id="paint0_linear_1_737" x1="180.276" y1="-86.4338" x2="126.244" y2="129.501" gradientUnits="userSpaceOnUse">
<stop stop-color="#E2FF6F"/>
<stop offset="1" stop-color="#2E2E32" stop-opacity="0"/>
</linearGradient>
<clipPath id="clip0_1_737">
<rect width="323" height="190" fill="white" transform="translate(0 0.5)"/>
</clipPath>
</defs>
</svg>
