<svg width="154" height="134" viewBox="0 0 154 134" fill="none" xmlns="http://www.w3.org/2000/svg">
<path d="M123.434 84.3334C124.174 82.8009 124.865 81.2515 125.439 79.5515C126.014 77.8515 126.405 76.2007 126.745 74.5331L140.083 69.8477C141.287 69.4187 141.993 68.1532 141.764 66.8504L137.61 46.171C137.381 44.8682 136.167 44.012 134.931 44.0404L120.792 44.8336C118.867 41.9551 116.625 39.3589 113.997 37.0783L116.574 23.1859C116.83 21.9352 116.084 20.6804 114.834 20.258L94.8332 13.5001C93.5831 13.0777 92.229 13.6229 91.6735 14.7723L85.2963 27.3806C81.8239 27.6 78.4494 28.354 75.1904 29.4255L64.4296 20.2185C63.4316 19.3799 61.9795 19.3907 61.0078 20.2879L45.1619 34.2094C44.1402 35.0898 43.9841 36.5412 44.6807 37.6122L52.4433 49.4272C51.7026 50.9597 50.9951 52.5591 50.4376 54.2091C49.88 55.8591 49.4725 57.5599 49.1319 59.2275L35.7939 63.9129C34.5905 64.3419 33.8843 65.6074 34.1126 66.9102L38.2672 87.5896C38.4956 88.8924 39.7104 89.7486 40.9456 89.7202L55.0854 88.927C57.0097 91.8055 59.2522 94.4017 61.8799 96.6823L59.3028 110.575C59.0474 111.825 59.7933 113.08 61.0433 113.503L81.0438 120.261C82.2939 120.683 83.648 120.138 84.2035 118.988L90.5807 106.38C94.0531 106.161 97.4276 105.407 100.687 104.335L111.447 113.542C112.445 114.381 113.897 114.37 114.869 113.473L130.715 99.5512C131.687 98.6539 131.893 97.2194 131.196 96.1484L123.434 84.3334ZM82.0253 84.3807C72.375 81.12 67.1773 70.6173 70.4381 60.9671C73.6988 51.3168 84.2015 46.1191 93.8517 49.3799C103.502 52.6406 108.7 63.1433 105.439 72.7935C102.178 82.4438 91.6755 87.6415 82.0253 84.3807Z" fill="#697222" fill-opacity="0.28"/>
<g clip-path="url(#clip0_1717_7144)" filter="url(#filter0_d_1717_7144)">
<path d="M103.482 86.1446C103.374 85.5635 103.248 84.9879 103.059 84.3941C102.87 83.8003 102.639 83.2582 102.391 82.7216L105.157 78.6652C105.405 78.2974 105.342 77.7981 105.01 77.4807L99.591 72.5517C99.259 72.2343 98.7429 72.2449 98.4032 72.5071L94.6115 75.64C93.4806 75.231 92.3189 74.9665 91.1144 74.8695L88.9752 70.4531C88.7892 70.0507 88.3222 69.8533 87.8856 69.9925L80.8999 72.2197C80.4633 72.3589 80.1968 72.7902 80.2781 73.226L81.09 78.0656C80.1639 78.8418 79.3752 79.7474 78.6842 80.7181L73.7788 80.3581C73.3271 80.329 72.9231 80.631 72.836 81.082L71.2698 88.2382C71.1652 88.6948 71.4203 89.1329 71.8357 89.2891L76.4393 90.9958C76.5477 91.5769 76.679 92.1699 76.8628 92.7462C77.0465 93.3225 77.2826 93.8822 77.5307 94.4187L74.7645 98.4752C74.5162 98.8429 74.5792 99.3423 74.9113 99.6597L80.3306 104.589C80.6627 104.906 81.1788 104.895 81.5185 104.633L85.3102 101.5C86.4411 101.909 87.6028 102.174 88.8073 102.271L90.9465 106.687C91.1325 107.09 91.5995 107.287 92.0361 107.148L99.0217 104.921C99.4583 104.781 99.7248 104.35 99.6436 103.914L98.8317 99.0748C99.7578 98.2985 100.546 97.3929 101.237 96.4223L106.143 96.7822C106.595 96.8113 106.999 96.5094 107.086 96.0584L108.652 88.9022C108.739 88.4512 108.501 88.0075 108.086 87.8513L103.482 86.1446ZM91.9097 94.6826C88.5391 95.7572 84.923 93.8896 83.8484 90.519C82.7738 87.1484 84.6414 83.5324 88.012 82.4577C91.3826 81.3831 94.9986 83.2508 96.0733 86.6214C97.1479 89.9919 95.2802 93.608 91.9097 94.6826Z" fill="#BFEA14"/>
</g>
<g clip-path="url(#clip1_1717_7144)" filter="url(#filter1_d_1717_7144)">
<path d="M62.7044 83.104C63.1013 82.2827 63.4715 81.4523 63.7793 80.5412C64.0872 79.6301 64.2965 78.7454 64.4791 77.8516L71.6275 75.3405C72.2725 75.1106 72.6509 74.4323 72.5286 73.7341L70.3019 62.6511C70.1795 61.9529 69.5284 61.494 68.8664 61.5092L61.2883 61.9343C60.257 60.3916 59.0551 59.0002 57.6468 57.7779L59.028 50.3324C59.1649 49.6621 58.7652 48.9896 58.0952 48.7632L47.3761 45.1413C46.7061 44.9149 45.9804 45.2071 45.6827 45.8231L42.2648 52.5805C40.4038 52.6981 38.5953 53.1021 36.8486 53.6764L31.0814 48.742C30.5466 48.2926 29.7683 48.2983 29.2476 48.7792L20.755 56.2403C20.2075 56.7122 20.1238 57.49 20.4971 58.0641L24.6574 64.3963C24.2605 65.2176 23.8813 66.0747 23.5825 66.9591C23.2837 67.8434 23.0653 68.7549 22.8827 69.6486L15.7343 72.1597C15.0893 72.3897 14.7109 73.0679 14.8332 73.7662L17.0599 84.8492C17.1822 85.5474 17.8333 86.0062 18.4953 85.9911L26.0735 85.5659C27.1048 87.1087 28.3067 88.5001 29.715 89.7223L28.3338 97.1679C28.1969 97.8382 28.5966 98.5107 29.2666 98.7371L39.9857 102.359C40.6557 102.585 41.3814 102.293 41.6791 101.677L45.097 94.9198C46.958 94.8022 48.7665 94.3981 50.5132 93.8238L56.2804 98.7582C56.8152 99.2077 57.5935 99.2019 58.1142 98.721L66.6068 91.2599C67.1275 90.779 67.238 90.0102 66.8647 89.4362L62.7044 83.104ZM40.5117 83.1294C35.3397 81.3818 32.5541 75.753 34.3016 70.581C36.0492 65.409 41.6781 62.6233 46.8501 64.3709C52.022 66.1184 54.8077 71.7473 53.0602 76.9193C51.3126 82.0913 45.6837 84.8769 40.5117 83.1294Z" fill="#A7BD51"/>
</g>
<defs>
<filter id="filter0_d_1717_7144" x="58.3223" y="53.9316" width="63.2773" height="63.2773" filterUnits="userSpaceOnUse" color-interpolation-filters="sRGB">
<feFlood flood-opacity="0" result="BackgroundImageFix"/>
<feColorMatrix in="SourceAlpha" type="matrix" values="0 0 0 0 0 0 0 0 0 0 0 0 0 0 0 0 0 0 127 0" result="hardAlpha"/>
<feOffset dy="-3"/>
<feGaussianBlur stdDeviation="2"/>
<feComposite in2="hardAlpha" operator="out"/>
<feColorMatrix type="matrix" values="0 0 0 0 0 0 0 0 0 0 0 0 0 0 0 0 0 0 0.25 0"/>
<feBlend mode="normal" in2="BackgroundImageFix" result="effect1_dropShadow_1717_7144"/>
<feBlend mode="normal" in="SourceGraphic" in2="effect1_dropShadow_1717_7144" result="shape"/>
</filter>
<filter id="filter1_d_1717_7144" x="-3.34277" y="23.7266" width="94.0459" height="94.0469" filterUnits="userSpaceOnUse" color-interpolation-filters="sRGB">
<feFlood flood-opacity="0" result="BackgroundImageFix"/>
<feColorMatrix in="SourceAlpha" type="matrix" values="0 0 0 0 0 0 0 0 0 0 0 0 0 0 0 0 0 0 127 0" result="hardAlpha"/>
<feOffset dy="-3"/>
<feGaussianBlur stdDeviation="2"/>
<feComposite in2="hardAlpha" operator="out"/>
<feColorMatrix type="matrix" values="0 0 0 0 0 0 0 0 0 0 0 0 0 0 0 0 0 0 0.25 0"/>
<feBlend mode="normal" in2="BackgroundImageFix" result="effect1_dropShadow_1717_7144"/>
<feBlend mode="normal" in="SourceGraphic" in2="effect1_dropShadow_1717_7144" result="shape"/>
</filter>
<clipPath id="clip0_1717_7144">
<rect width="43.9926" height="43.9926" fill="white" transform="translate(62.3223 74.2949) rotate(-17.6838)"/>
</clipPath>
<clipPath id="clip1_1717_7144">
<rect width="67.8871" height="67.8871" fill="white" transform="translate(22.3887 30.7266) rotate(18.6696)"/>
</clipPath>
</defs>
</svg>
