<svg  width="18" height="18" viewBox="0 0 18 18" fill="none" xmlns="http://www.w3.org/2000/svg">
<g clip-path="url(#clip0_552_15893)">
<path d="M9.84015 12.7665L6.6909 11.049C6.27975 11.4886 5.74589 11.7943 5.15871 11.9265C4.57153 12.0586 3.95817 12.0111 3.39835 11.7901C2.83852 11.5691 2.35812 11.1848 2.01958 10.6871C1.68104 10.1895 1.5 9.60154 1.5 8.99967C1.5 8.3978 1.68104 7.80985 2.01958 7.31221C2.35812 6.81458 2.83852 6.43029 3.39835 6.20927C3.95817 5.98825 4.57153 5.94073 5.15871 6.07288C5.74589 6.20504 6.27975 6.51075 6.6909 6.9503L9.8409 5.2328C9.66207 4.52485 9.74757 3.77599 10.0814 3.12658C10.4152 2.47716 10.9744 1.97178 11.6542 1.70517C12.3339 1.43856 13.0876 1.42903 13.7739 1.67835C14.4602 1.92767 15.032 2.41874 15.3821 3.05949C15.7323 3.70025 15.8367 4.44671 15.6758 5.15896C15.515 5.8712 15.0999 6.50033 14.5083 6.92841C13.9168 7.35649 13.1894 7.55413 12.4626 7.48429C11.7358 7.41446 11.0594 7.08193 10.5602 6.54905L7.41015 8.26655C7.53106 8.74757 7.53106 9.25103 7.41015 9.73205L10.5594 11.4495C11.0586 10.9167 11.735 10.5841 12.4619 10.5143C13.1887 10.4445 13.916 10.6421 14.5076 11.0702C15.0991 11.4983 15.5142 12.1274 15.6751 12.8396C15.8359 13.5519 15.7315 14.2983 15.3814 14.9391C15.0312 15.5799 14.4594 16.0709 13.7731 16.3202C13.0868 16.5696 12.3332 16.56 11.6534 16.2934C10.9736 16.0268 10.4144 15.5214 10.0806 14.872C9.74682 14.2226 9.66132 13.4737 9.84015 12.7658V12.7665ZM4.50015 10.4993C4.89798 10.4993 5.27951 10.3413 5.56081 10.06C5.84212 9.77865 6.00015 9.39712 6.00015 8.9993C6.00015 8.60147 5.84212 8.21994 5.56081 7.93864C5.27951 7.65733 4.89798 7.4993 4.50015 7.4993C4.10233 7.4993 3.7208 7.65733 3.43949 7.93864C3.15819 8.21994 3.00015 8.60147 3.00015 8.9993C3.00015 9.39712 3.15819 9.77865 3.43949 10.06C3.7208 10.3413 4.10233 10.4993 4.50015 10.4993ZM12.7502 5.9993C13.148 5.9993 13.5295 5.84126 13.8108 5.55996C14.0921 5.27865 14.2502 4.89712 14.2502 4.4993C14.2502 4.10147 14.0921 3.71994 13.8108 3.43864C13.5295 3.15733 13.148 2.9993 12.7502 2.9993C12.3523 2.9993 11.9708 3.15733 11.6895 3.43864C11.4082 3.71994 11.2502 4.10147 11.2502 4.4993C11.2502 4.89712 11.4082 5.27865 11.6895 5.55996C11.9708 5.84126 12.3523 5.9993 12.7502 5.9993ZM12.7502 14.9993C13.148 14.9993 13.5295 14.8413 13.8108 14.56C14.0921 14.2787 14.2502 13.8971 14.2502 13.4993C14.2502 13.1015 14.0921 12.7199 13.8108 12.4386C13.5295 12.1573 13.148 11.9993 12.7502 11.9993C12.3523 11.9993 11.9708 12.1573 11.6895 12.4386C11.4082 12.7199 11.2502 13.1015 11.2502 13.4993C11.2502 13.8971 11.4082 14.2787 11.6895 14.56C11.9708 14.8413 12.3523 14.9993 12.7502 14.9993Z" fill="#8B8B97"/>
</g>
<defs>
<clipPath id="clip0_552_15893">
<rect width="18" height="18" fill="white"/>
</clipPath>
</defs>
</svg>
