<svg width="49" height="48" viewBox="0 0 49 48" fill="none" xmlns="http://www.w3.org/2000/svg">
<path d="M24.0461 38.1328C31.7781 38.1328 38.0461 31.8648 38.0461 24.1328C38.0461 16.4008 31.7781 10.1328 24.0461 10.1328C16.3142 10.1328 10.0461 16.4008 10.0461 24.1328C10.0461 31.8648 16.3142 38.1328 24.0461 38.1328Z" fill="black"/>
<path fill-rule="evenodd" clip-rule="evenodd" d="M16.3924 23.9799C20.4703 22.1917 23.1961 21.036 24.5481 20.469C28.4298 18.8553 29.2366 18.5718 29.76 18.5718C29.869 18.5718 30.1307 18.5936 30.3051 18.7244C30.436 18.8335 30.4796 18.9861 30.5014 19.0951C30.5232 19.2042 30.545 19.4441 30.5232 19.6403C30.3051 21.8428 29.4111 27.2291 28.9313 29.6933C28.735 30.74 28.3425 31.0889 27.9718 31.1325C27.165 31.1979 26.5326 30.5874 25.7475 30.0858C24.5263 29.2789 23.8285 28.7774 22.6291 27.9923C21.2553 27.0765 22.1494 26.5749 22.9344 25.768C23.1307 25.55 26.7288 22.3007 26.7942 21.9955C26.7942 21.9518 26.816 21.821 26.7288 21.7556C26.6416 21.6902 26.5326 21.712 26.4453 21.7338C26.3145 21.7556 24.3519 23.064 20.5357 25.6372C19.9687 26.0297 19.4671 26.2042 19.0092 26.2042C18.5076 26.2042 17.5481 25.9207 16.8285 25.6808C15.9562 25.3973 15.2584 25.2447 15.3238 24.7649C15.3893 24.5032 15.7382 24.2416 16.3924 23.9799Z" fill="white"/>
</svg>
