<svg width="392" height="486" viewBox="0 0 392 486" fill="none" xmlns="http://www.w3.org/2000/svg">
<path opacity="0.5" d="M32.0087 1.32423C40.2959 24.9998 49.4049 49.9668 66.0498 63.9144C84.7232 79.5617 110.991 79.5932 124.673 102.586C135.426 120.649 134.183 146.206 139.617 168.06C147.9 201.415 172.508 224.915 198.659 230.784C217.125 234.906 237.197 231.65 253.551 243.787C282.497 265.243 284.213 321.909 309.056 351.077C330.664 376.437 363.028 374.139 391.791 370.355M23.283 17.9264C33.2307 43.2661 44.1301 69.625 62.3251 85.2347C81.375 101.581 107.94 102.506 122.652 123.473C134.154 139.832 134.448 162.509 140.731 183.007C150.236 214.026 174.723 237.411 200.063 244.606C218.518 249.839 237.752 249.664 253.531 262.69C280.479 284.961 282.782 338.172 305.981 367.276C327.064 393.692 358.911 394.669 388.076 392.279M14.5571 34.5146C26.1663 61.5318 38.8647 89.2683 58.5961 106.562C78.0308 123.579 104.804 125.406 120.633 144.373C132.851 159.005 134.691 178.774 141.844 197.941C152.525 226.581 176.951 249.972 201.494 258.444C219.955 264.832 238.246 267.584 253.532 281.617C278.478 304.537 281.346 354.541 302.939 383.51C323.526 411.139 354.783 415.259 384.399 414.232M5.85782 51.1462C19.1413 79.8062 33.6271 108.968 54.888 127.912C74.7168 145.587 101.689 148.331 118.633 165.284C131.545 178.21 134.928 195.045 142.984 212.918C154.808 239.143 179.21 262.629 202.957 272.332C221.43 279.881 237.456 288.079 253.603 300.622C278.594 320.017 279.94 371.08 299.956 399.824C319.971 428.568 350.737 435.88 380.78 436.251M-2.90019 67.7111C12.0401 98.0557 28.3272 128.549 51.1422 149.221C71.3643 167.541 98.4957 171.218 116.608 186.178C130.192 197.402 135.103 211.271 144.097 227.865C156.998 251.661 181.45 275.316 204.387 286.184C222.908 294.971 237.473 306.606 253.62 319.581C277.233 338.544 278.472 387.672 296.923 416.071C316.497 446.189 346.614 456.477 377.117 458.222M-11.6256 84.3127C4.97525 116.321 23.0657 148.172 47.4132 170.548C68.0432 189.504 95.3197 194.122 114.567 207.054C128.806 216.59 135.221 227.455 145.194 242.78C159.097 264.163 183.663 288.045 205.796 300.011C224.323 310.026 237.467 324.882 253.617 338.502C275.81 357.185 276.884 404.263 293.858 432.328C312.907 463.775 342.485 477.041 373.415 480.184M-20.3559 100.908C-2.09527 134.568 17.8135 167.781 43.6943 191.874C64.7268 211.459 92.0884 217.112 112.537 227.928C127.405 235.799 136.776 241.892 146.318 257.74C159.155 279.131 185.901 300.864 207.239 313.875C225.786 325.183 237.498 343.016 253.651 357.465C274.349 376.042 275.32 420.992 290.851 448.565C309.35 481.41 338.393 497.634 369.773 502.14M-29.0771 117.503C-9.12828 152.871 12.5653 187.383 39.9595 213.195C61.4091 233.402 88.8466 240.104 110.522 248.835C126.028 255.086 136.828 257.805 147.421 272.675C161.229 292.061 188.105 313.707 208.648 327.703C227.201 340.339 240.72 356.3 253.66 376.365C269.072 400.337 273.674 437.715 287.811 464.767C305.718 499.061 334.276 518.151 366.089 524.074M-37.8076 134.098C-16.2096 171.105 7.32253 206.977 36.2309 234.522C58.0921 255.345 85.6079 263.135 108.503 269.735C124.607 274.371 135.366 276.216 148.535 287.622C165.077 301.959 190.321 326.648 210.118 341.537C228.667 355.549 241.321 373.81 253.698 395.321C267.387 419.124 272.026 454.558 284.796 481.032C302.079 516.837 330.184 538.757 362.452 546.036M-46.5329 150.7C-23.2744 189.371 2.07931 226.572 32.5287 255.88C54.8062 277.311 82.3878 286.237 106.504 290.647C123.228 293.704 135.37 292.592 149.68 302.592C166.994 314.685 192.506 339.593 211.552 355.442C230.082 370.864 241.947 391.312 253.72 414.333C265.753 437.872 270.297 471.496 281.768 497.331C298.369 534.695 326.089 559.385 358.794 568.06M-55.2807 167.277C-30.3562 207.618 -3.17695 246.128 28.7659 277.157C51.4459 299.218 79.1101 309.312 104.451 311.497C121.791 312.997 135.297 308.969 150.755 317.497C168.859 327.476 194.625 352.524 212.95 369.257C231.434 386.132 242.612 408.649 253.704 433.241C264.169 456.442 268.489 488.368 278.698 513.549C294.54 552.517 321.938 579.937 355.088 589.982M-63.9856 183.889C-37.4006 225.895 -8.3953 265.726 25.0525 298.502C47.4683 320.433 74.5798 332.311 102.442 332.409C120.415 332.369 135.274 325.486 151.889 332.454C170.784 340.346 196.775 365.564 214.397 383.126C232.817 401.483 243.454 426.002 253.737 452.204C262.713 475.045 266.677 505.334 275.683 529.813C283.031 549.994 293.618 567.803 306.703 581.994C319.787 596.186 335.053 606.417 351.433 611.972M-72.7163 200.485C-44.4653 244.161 -13.6247 285.3 21.3234 319.829C44.8599 343.085 72.6868 355.633 100.417 353.303C119.029 351.744 135.253 342.057 153.003 347.402C172.676 353.328 199.845 377.17 215.828 396.978C233.119 418.42 244.366 443.262 253.76 471.156C261.32 493.61 264.805 522.293 272.656 546.066C286.658 588.471 313.742 621.111 347.771 633.944M-81.4416 217.086C-51.53 262.426 -18.8494 304.866 17.5945 341.156C41.5518 365.013 69.4817 378.813 98.4023 374.196C117.653 371.117 135.251 358.672 154.121 362.342C174.619 366.33 201.755 390.541 217.259 410.83C234.58 433.491 245.433 460.512 253.778 490.101C259.986 512.168 262.878 539.264 269.62 562.32C282.541 606.483 309.634 641.7 344.088 655.89M-90.1721 233.682C-58.5808 280.671 -24.0458 324.317 13.8708 362.489C38.2851 386.878 66.297 402.005 96.3775 395.09C116.292 390.508 135.272 375.339 155.235 377.289C176.604 379.354 203.033 404.701 218.691 424.695C236.737 447.661 246.646 477.768 253.787 509.074C258.749 530.823 260.896 556.234 266.564 578.563C278.25 624.519 305.511 662.283 340.407 677.864M-98.8977 250.284C-65.7005 299.109 -29.2003 343.804 10.1462 383.809C34.9683 408.834 63.1228 425.209 94.357 415.977C114.932 409.9 135.314 392.043 156.349 392.236C178.602 392.444 205.065 417.767 220.131 438.532C237.96 463.115 248.048 495.017 253.819 528.011C257.576 549.551 258.891 573.154 263.558 594.827C273.85 642.579 301.418 682.863 336.776 699.845M-107.603 266.896C-72.6772 317.268 -34.5204 363.529 6.43843 405.16C31.673 430.814 59.9807 448.448 92.3587 436.901C113.608 429.32 135.409 408.781 157.47 407.228C180.647 405.575 207.085 430.881 221.565 452.436C239.175 478.609 249.599 512.397 253.839 547.009C256.45 568.32 256.838 590.104 260.535 611.132C269.241 660.674 297.317 703.497 333.111 721.863" stroke="url(#paint0_linear_399_1813)" stroke-opacity="0.4" stroke-width="1.65164" stroke-miterlimit="10"/>
<defs>
<linearGradient id="paint0_linear_399_1813" x1="160.259" y1="430.476" x2="308.02" y2="263.089" gradientUnits="userSpaceOnUse">
<stop stop-color="white"/>
<stop offset="1" stop-color="white" stop-opacity="0"/>
</linearGradient>
</defs>
</svg>
