<svg width="19" height="12" viewBox="0 0 19 12" fill="none" xmlns="http://www.w3.org/2000/svg">
<path d="M1.21723 7.9224C2.05534 3.9924 5.55893 1.2 9.5 1.2C13.4398 1.2 16.9434 3.9924 17.7828 7.9224C17.816 8.07835 17.9113 8.21501 18.0478 8.30233C18.1842 8.38965 18.3506 8.42046 18.5103 8.388C18.67 8.35554 18.8099 8.26246 18.8994 8.12923C18.9888 7.996 19.0203 7.83355 18.9871 7.6776C18.0322 3.2076 14.0383 0 9.5 0C4.96168 0 0.967764 3.2076 0.0129104 7.6776C-0.0203338 7.83355 0.0112252 7.996 0.100645 8.12923C0.190065 8.26246 0.33002 8.35554 0.489723 8.388C0.649426 8.42046 0.815794 8.38965 0.952228 8.30233C1.08866 8.21501 1.18399 8.07835 1.21723 7.9224ZM9.5 3.6C8.35927 3.6 7.26525 4.0425 6.45863 4.83015C5.65201 5.6178 5.19886 6.68609 5.19886 7.8C5.19886 8.91391 5.65201 9.9822 6.45863 10.7698C7.26525 11.5575 8.35927 12 9.5 12C10.6407 12 11.7347 11.5575 12.5414 10.7698C13.348 9.9822 13.8011 8.91391 13.8011 7.8C13.8011 6.68609 13.348 5.6178 12.5414 4.83015C11.7347 4.0425 10.6407 3.6 9.5 3.6ZM6.42776 7.8C6.42776 7.00435 6.75144 6.24129 7.3276 5.67868C7.90375 5.11607 8.68519 4.8 9.5 4.8C10.3148 4.8 11.0962 5.11607 11.6724 5.67868C12.2486 6.24129 12.5722 7.00435 12.5722 7.8C12.5722 8.59565 12.2486 9.35871 11.6724 9.92132C11.0962 10.4839 10.3148 10.8 9.5 10.8C8.68519 10.8 7.90375 10.4839 7.3276 9.92132C6.75144 9.35871 6.42776 8.59565 6.42776 7.8Z" fill="#E2FF6F"/>
</svg>
