<svg width="26" height="25" viewBox="0 0 26 25" fill="none" xmlns="http://www.w3.org/2000/svg">
<path d="M22.1635 18.6092V19.6274C22.1635 20.7474 21.2471 21.6638 20.1271 21.6638H5.87233C4.74213 21.6638 3.83594 20.7474 3.83594 19.6274V5.37258C3.83594 4.25256 4.74213 3.33618 5.87233 3.33618H20.1271C21.2471 3.33618 22.1635 4.25256 22.1635 5.37258V6.39078H12.9997C11.8695 6.39078 10.9633 7.30716 10.9633 8.42717V16.5728C10.9633 17.6928 11.8695 18.6092 12.9997 18.6092H22.1635ZM12.9997 16.5728H23.1817V8.42717H12.9997V16.5728ZM17.0725 14.0273C16.2274 14.0273 15.5452 13.3451 15.5452 12.5C15.5452 11.6549 16.2274 10.9727 17.0725 10.9727C17.9176 10.9727 18.5998 11.6549 18.5998 12.5C18.5998 13.3451 17.9176 14.0273 17.0725 14.0273Z" fill="white"/>
</svg>
