<svg width="67" height="64" viewBox="0 0 67 64" fill="none" xmlns="http://www.w3.org/2000/svg">
<path d="M43.3364 8.79626L45.9393 12.5608L45.016 20.4877L42.4131 16.7232L43.3364 8.79626Z" fill="#917008"/>
<path d="M49.7523 16.6146L52.3552 20.3792L51.4525 28.1297L48.8496 24.3651L49.7523 16.6146Z" fill="#917008"/>
<path d="M56.0572 24.2572L58.6601 28.0217L56.9974 42.2917L54.3945 38.5272L56.0572 24.2572Z" fill="#917008"/>
<path d="M54.3872 38.5283L56.9901 42.2929L49.7894 42.3998L47.1865 38.6353L54.3872 38.5283Z" fill="#EBB62F"/>
<path d="M46.267 46.5641L48.868 50.3286L41.5228 50.4375L38.9199 46.6729L46.267 46.5641Z" fill="#EBB62F"/>
<path d="M47.1928 38.6348L49.7957 42.3993L48.8706 50.3281L46.2695 46.5636L47.1928 38.6348Z" fill="#917008"/>
<path d="M38.0588 54.0697L40.6617 57.8342L9.80602 58.2921L7.20312 54.5276L38.0588 54.0697Z" fill="#EBB62F"/>
<path d="M38.919 46.672L41.5219 50.4365L40.6605 57.8342L38.0576 54.0697L38.919 46.672Z" fill="#917008"/>
<path d="M43.3341 8.79626L42.4108 16.7232L49.7559 16.6143L48.8533 24.3649L56.0539 24.2579L54.3912 38.5279L47.1906 38.6348L46.2673 46.5636L38.9202 46.6725L38.0588 54.0702L7.20312 54.5281L12.4784 9.25416L43.3341 8.79626Z" fill="url(#paint0_linear_834_30)"/>
<ellipse cx="8.87948" cy="9.22799" rx="0.431242" ry="0.431242" fill="white"/>
<ellipse cx="6.77792" cy="63.5687" rx="0.431242" ry="0.431242" fill="#EBB62F"/>
<ellipse cx="66.4557" cy="37.9653" rx="0.431242" ry="0.431242" fill="#EBB62F"/>
<circle cx="0.701205" cy="25.7305" r="0.701205" fill="#EBB62F"/>
<circle cx="45.1814" cy="58.9741" r="0.802477" fill="white"/>
<ellipse cx="49.992" cy="6.16358" rx="0.350348" ry="0.350348" fill="white"/>
<ellipse cx="2.34268" cy="46.2476" rx="0.316312" ry="0.316312" fill="#FA3939"/>
<path d="M62.7954 31.8102L63.0936 32.7546L64.038 33.0528L63.0936 33.3511L62.7954 34.2955L62.4981 33.3511L61.5527 33.0528L62.4981 32.7546L62.7954 31.8102Z" fill="white"/>
<path d="M11.9129 0L12.0549 0.449655L12.5046 0.591651L12.0549 0.733647L11.9129 1.1833L11.7714 0.733647L11.3213 0.591651L11.7714 0.449655L11.9129 0Z" fill="white"/>
<path d="M42.8823 5.91662L42.9746 8.25978L44.9458 9.52992L42.6027 9.62221L41.3325 11.5934L41.2425 9.25088L39.269 7.98012L41.6145 7.88845L42.8823 5.91662Z" fill="#EBB62F"/>
<path d="M26.1432 26.8969L26.7451 20.4701H30.461L29.8591 26.8969C29.5917 30.1266 29.149 33.3563 28.4609 36.586H25.7265C25.6434 33.3563 25.8407 30.1266 26.1432 26.8969ZM24.0088 43.6979L24.4335 39.1633H29.3062L28.8815 43.6979H24.0088Z" fill="#FEFFDC"/>
<defs>
<linearGradient id="paint0_linear_834_30" x1="31.8379" y1="10.0405" x2="31.8379" y2="54.5276" gradientUnits="userSpaceOnUse">
<stop offset="0.609375" stop-color="#EBB62F"/>
<stop offset="1" stop-color="#FFE299" stop-opacity="0.96"/>
</linearGradient>
</defs>
</svg>
