<svg width="506" height="142" viewBox="0 0 506 142" fill="none" xmlns="http://www.w3.org/2000/svg">
<rect x="0.360352" y="0.874023" width="504.92" height="140.643" fill="url(#paint0_linear_501_371)"/>
<path d="M484.164 89.3764L484.118 95.0488C484.114 95.5278 483.719 95.9118 483.237 95.9066L477.519 95.8449C477.037 95.8397 476.649 95.4472 476.653 94.9683L476.699 89.2958C476.703 88.8169 477.098 88.4329 477.58 88.4381L483.298 88.4997C483.78 88.5049 484.168 88.8974 484.164 89.3764Z" fill="#E2FF6F"/>
<path d="M466.36 84.4425L466.407 78.77C466.411 78.2911 466.805 77.9071 467.288 77.9123L473.005 77.9739C473.488 77.9791 473.876 78.3716 473.872 78.8505L473.826 84.523C473.822 85.002 473.427 85.386 472.945 85.3808L467.227 85.3191C466.745 85.3139 466.356 84.9214 466.36 84.4425Z" fill="#E2FF6F"/>
<path d="M476.75 84.5406L476.796 78.8682C476.8 78.3892 477.195 78.0052 477.678 78.0104L483.395 78.0721C483.878 78.0773 484.266 78.4698 484.262 78.9487L484.215 84.6212C484.211 85.1001 483.817 85.4841 483.334 85.4789L477.617 85.4173C477.134 85.4121 476.746 85.0196 476.75 84.5406Z" fill="#E2FF6F"/>
<path d="M476.847 74.182L476.894 68.5095C476.898 68.0306 477.292 67.6466 477.775 67.6518L483.492 67.7134C483.975 67.7186 484.363 68.1111 484.359 68.59L484.312 74.2625C484.308 74.7415 483.914 75.1255 483.431 75.1203L477.714 75.0586C477.231 75.0534 476.843 74.6609 476.847 74.182Z" fill="#E2FF6F"/>
<path d="M466.458 74.0839L466.505 68.4114C466.509 67.9324 466.903 67.5484 467.386 67.5536L473.103 67.6153C473.586 67.6205 473.974 68.013 473.97 68.4919L473.923 74.1644C473.919 74.6433 473.525 75.0273 473.042 75.0221L467.325 74.9605C466.842 74.9553 466.454 74.5628 466.458 74.0839Z" fill="#E2FF6F"/>
<path d="M463.381 89.1808L463.335 94.8533C463.331 95.3322 462.936 95.7162 462.453 95.711L456.736 95.6494C456.254 95.6442 455.865 95.2517 455.869 94.7727L455.916 89.1003C455.92 88.6213 456.314 88.2373 456.797 88.2425L462.514 88.3042C462.997 88.3094 463.385 88.7019 463.381 89.1808Z" fill="#E2FF6F"/>
<path d="M463.577 68.3988L463.53 74.0713C463.526 74.5502 463.132 74.9343 462.649 74.929L456.932 74.8674C456.449 74.8622 456.061 74.4697 456.065 73.9908L456.112 68.3183C456.116 67.8394 456.51 67.4553 456.993 67.4605L462.71 67.5222C463.193 67.5274 463.581 67.9199 463.577 68.3988Z" fill="#E2FF6F"/>
<path d="M445.474 94.6815L445.52 89.009C445.524 88.5301 445.919 88.1461 446.401 88.1513L452.119 88.2129C452.601 88.2181 452.989 88.6106 452.985 89.0896L452.939 94.762C452.935 95.241 452.54 95.625 452.058 95.6198L446.34 95.5581C445.858 95.5529 445.47 95.1604 445.474 94.6815Z" fill="#E2FF6F"/>
<path d="M445.375 105.081L445.422 99.4082C445.426 98.9293 445.82 98.5452 446.303 98.5504L452.02 98.6121C452.503 98.6173 452.891 99.0098 452.887 99.4887L452.841 105.161C452.837 105.64 452.442 106.024 451.959 106.019L446.242 105.957C445.759 105.952 445.371 105.56 445.375 105.081Z" fill="#E2FF6F"/>
<path d="M445.324 109.808L445.279 115.328C445.274 115.889 445.733 116.353 446.299 116.359L451.707 116.417C452.273 116.423 452.739 115.969 452.744 115.408L452.789 109.889C452.793 109.409 452.406 109.017 451.922 109.012L446.2 108.95C445.717 108.945 445.323 109.329 445.319 109.808L445.324 109.808Z" fill="#E2FF6F"/>
<path d="M442.303 120.2L442.257 125.873C442.253 126.351 441.858 126.736 441.376 126.73L435.658 126.669C435.176 126.663 434.788 126.271 434.791 125.792L434.838 120.12C434.842 119.641 435.237 119.257 435.719 119.262L441.436 119.323C441.919 119.329 442.307 119.721 442.303 120.2Z" fill="#E2FF6F"/>
<path d="M424.397 125.694L424.443 120.021C424.447 119.542 424.842 119.158 425.324 119.163L431.042 119.225C431.524 119.23 431.913 119.623 431.909 120.102L431.862 125.774C431.858 126.253 431.464 126.637 430.981 126.632L425.264 126.57C424.781 126.565 424.393 126.173 424.397 125.694Z" fill="#E2FF6F"/>
<path d="M406.578 59.3971L406.625 53.7246C406.629 53.2457 407.023 52.8616 407.506 52.8668L413.223 52.9285C413.706 52.9337 414.094 53.3262 414.09 53.8051L414.044 59.4776C414.04 59.9565 413.645 60.3406 413.162 60.3354L407.445 60.2737C406.963 60.2685 406.574 59.876 406.578 59.3971Z" fill="#8D4343"/>
<path d="M424.382 64.3309L424.336 70.0034C424.332 70.4823 423.937 70.8664 423.455 70.8612L417.738 70.7995C417.255 70.7943 416.867 70.4018 416.871 69.9229L416.917 64.2504C416.921 63.7715 417.316 63.3874 417.798 63.3927L423.516 63.4543C423.998 63.4595 424.386 63.852 424.382 64.3309Z" fill="#8D4343"/>
<path d="M413.993 64.2328L413.946 69.9053C413.942 70.3842 413.548 70.7682 413.065 70.763L407.348 70.7014C406.865 70.6962 406.477 70.3037 406.481 69.8247L406.528 64.1523C406.532 63.6733 406.926 63.2893 407.409 63.2945L413.126 63.3562C413.609 63.3614 413.997 63.7539 413.993 64.2328Z" fill="#8D4343"/>
<path d="M413.896 74.5914L413.849 80.2639C413.845 80.7428 413.451 81.1269 412.968 81.1217L407.251 81.06C406.768 81.0548 406.38 80.6623 406.384 80.1834L406.43 74.5109C406.434 74.032 406.829 73.648 407.312 73.6532L413.029 73.7148C413.512 73.72 413.9 74.1125 413.896 74.5914Z" fill="#8D4343"/>
<path d="M424.285 74.6896L424.238 80.3621C424.234 80.841 423.84 81.225 423.357 81.2198L417.64 81.1582C417.157 81.1529 416.769 80.7605 416.773 80.2815L416.819 74.6091C416.823 74.1301 417.218 73.7461 417.701 73.7513L423.418 73.813C423.901 73.8182 424.289 74.2106 424.285 74.6896Z" fill="#8D4343"/>
<path d="M427.362 59.5926L427.408 53.9202C427.412 53.4412 427.807 53.0572 428.289 53.0624L434.007 53.1241C434.489 53.1293 434.877 53.5218 434.874 54.0007L434.827 59.6732C434.823 60.1521 434.429 60.5361 433.946 60.5309L428.229 60.4693C427.746 60.4641 427.358 60.0716 427.362 59.5926Z" fill="#8D4343"/>
<path d="M427.166 80.3746L427.212 74.7022C427.216 74.2232 427.611 73.8392 428.094 73.8444L433.811 73.9061C434.294 73.9113 434.682 74.3037 434.678 74.7827L434.631 80.4551C434.627 80.9341 434.233 81.3181 433.75 81.3129L428.033 81.2512C427.55 81.246 427.162 80.8536 427.166 80.3746Z" fill="#8D4343"/>
<path d="M445.269 54.0919L445.223 59.7644C445.219 60.2433 444.824 60.6274 444.342 60.6222L438.624 60.5605C438.142 60.5553 437.753 60.1628 437.757 59.6839L437.804 54.0114C437.808 53.5325 438.202 53.1484 438.685 53.1536L444.402 53.2153C444.885 53.2205 445.273 53.613 445.269 54.0919Z" fill="#8D4343"/>
<path d="M445.367 43.6928L445.321 49.3652C445.317 49.8442 444.922 50.2282 444.44 50.223L438.723 50.1613C438.24 50.1561 437.852 49.7636 437.856 49.2847L437.902 43.6122C437.906 43.1333 438.301 42.7493 438.783 42.7545L444.501 42.8161C444.983 42.8213 445.371 43.2138 445.367 43.6928Z" fill="#8D4343"/>
<path d="M445.419 38.9653L445.464 33.4458C445.469 32.8847 445.01 32.4206 444.444 32.4145L439.035 32.3562C438.47 32.3501 438.003 32.8042 437.999 33.3653L437.953 38.8848C437.95 39.3643 438.337 39.7562 438.82 39.7614L444.543 39.8231C445.026 39.8283 445.42 39.4448 445.424 38.9653L445.419 38.9653Z" fill="#8D4343"/>
<path d="M448.439 28.5734L448.486 22.9009C448.49 22.4219 448.884 22.0379 449.367 22.0431L455.084 22.1048C455.567 22.11 455.955 22.5025 455.951 22.9814L455.905 28.6539C455.901 29.1328 455.506 29.5168 455.024 29.5116L449.306 29.45C448.824 29.4448 448.436 29.0523 448.439 28.5734Z" fill="#8D4343"/>
<path d="M466.346 23.0797L466.3 28.7522C466.296 29.2311 465.901 29.6152 465.418 29.61L459.701 29.5483C459.218 29.5431 458.83 29.1506 458.834 28.6717L458.881 22.9992C458.885 22.5203 459.279 22.1362 459.762 22.1414L465.479 22.2031C465.962 22.2083 466.35 22.6008 466.346 23.0797Z" fill="#8D4343"/>
<defs>
<linearGradient id="paint0_linear_501_371" x1="39.5574" y1="4.95827" x2="558.572" y2="229.811" gradientUnits="userSpaceOnUse">
<stop stop-color="#29292F"/>
<stop offset="1" stop-color="#29292F" stop-opacity="0"/>
</linearGradient>
</defs>
</svg>
