<svg width="49" height="48" viewBox="0 0 49 48" fill="none" xmlns="http://www.w3.org/2000/svg">
<g clip-path="url(#clip0_1304_15563)">
<path d="M24.4897 34.9014C22.146 34.9014 19.9587 34.2006 18.1315 33.0081L13.6887 34.4161L15.1288 30.1578C13.7431 28.271 12.9281 25.9465 12.9281 23.44C12.9281 17.1198 18.1112 11.9788 24.483 11.9788C30.8549 11.9788 36.0379 17.1198 36.0379 23.44C36.0379 29.76 30.8549 34.9012 24.483 34.9012H24.4897V34.9014ZM24.4897 9.80908C16.9016 9.80908 10.7474 15.914 10.7474 23.4402C10.7474 26.014 11.4675 28.4262 12.7172 30.4813L10.2378 37.792L17.8462 35.3732C19.8798 36.4885 22.1659 37.0728 24.4897 37.0711C32.0776 37.0711 38.2321 30.9666 38.2321 23.4402C38.2319 15.914 32.0776 9.80908 24.4897 9.80908Z" fill="#FEFEFE"/>
<path d="M24.4897 11.979C18.1178 11.979 12.9348 17.12 12.9348 23.4402C12.9348 25.9467 13.75 28.2712 15.1357 30.158L13.6955 34.4163L18.1382 33.0083C19.9654 34.2077 22.146 34.9016 24.4964 34.9016C30.8682 34.9016 36.0513 29.7604 36.0513 23.4404C36.0513 17.1202 30.8682 11.9792 24.4964 11.9792H24.4897V11.979Z" fill="black"/>
<path d="M21.2629 17.8006C21.0388 17.2684 20.8689 17.2482 20.5294 17.2345C20.4005 17.2263 20.2713 17.2218 20.1421 17.2212C19.7004 17.2212 19.2386 17.3492 18.96 17.6321C18.6205 17.9757 17.7781 18.7775 17.7781 20.4216C17.7781 22.0657 18.9872 23.6559 19.1502 23.8783C19.32 24.1005 21.5075 27.5233 24.9039 28.9184C27.56 30.0099 28.3481 29.9087 28.9526 29.7807C29.8356 29.5921 30.943 28.945 31.2215 28.1636C31.5001 27.3819 31.5001 26.7148 31.4184 26.5733C31.337 26.4318 31.1126 26.3512 30.7731 26.1825C30.4336 26.014 28.7827 25.2055 28.4702 25.0977C28.1644 24.9832 27.8725 25.0237 27.6416 25.3471C27.3155 25.7986 26.9963 26.2569 26.7381 26.533C26.5343 26.7486 26.2013 26.7756 25.9229 26.661C25.5493 26.5062 24.5033 26.142 23.2124 25.0033C22.2138 24.1208 21.5345 23.0226 21.3377 22.6925C21.1406 22.3557 21.3173 22.1601 21.4734 21.9783C21.6432 21.7693 21.8062 21.6211 21.9761 21.4256C22.1459 21.2304 22.241 21.1292 22.3497 20.9C22.4653 20.6777 22.3837 20.4486 22.3022 20.2801C22.2207 20.1116 21.5414 18.4675 21.2629 17.8006V17.8006Z" fill="#FEFEFE"/>
</g>
<defs>
<clipPath id="clip0_1304_15563">
<rect width="28" height="28" fill="white" transform="translate(10.2375 9.80078)"/>
</clipPath>
</defs>
</svg>
