<svg width="25" height="25" viewBox="0 0 25 25" fill="none" xmlns="http://www.w3.org/2000/svg">
<path d="M3.30469 15.707C3.30469 15.707 3.44669 17.445 3.47969 17.993C3.52369 18.728 3.80769 19.549 4.28169 20.119C4.95069 20.927 5.73869 21.212 6.79069 21.214C8.02769 21.216 17.0227 21.216 18.2597 21.214C19.3117 21.212 20.0997 20.927 20.7687 20.119C21.2427 19.549 21.5267 18.728 21.5717 17.993C21.6037 17.445 21.7457 15.707 21.7457 15.707" stroke="#828282" stroke-width="1.5" stroke-linecap="round" stroke-linejoin="round"/>
<path d="M8.99609 5.55947V5.18847C8.99609 3.96847 9.98409 2.98047 11.2041 2.98047H13.7861C15.0051 2.98047 15.9941 3.96847 15.9941 5.18847L15.9951 5.55947" stroke="#828282" stroke-width="1.5" stroke-linecap="round" stroke-linejoin="round"/>
<path d="M12.4941 16.9073V15.6133" stroke="#828282" stroke-width="1.5" stroke-linecap="round" stroke-linejoin="round"/>
<path fill-rule="evenodd" clip-rule="evenodd" d="M3.25 8.61855V12.0855C5.168 13.3505 7.466 14.2365 9.988 14.5875C10.29 13.4865 11.283 12.6795 12.49 12.6795C13.678 12.6795 14.691 13.4865 14.973 14.5975C17.505 14.2465 19.812 13.3605 21.74 12.0855V8.61855C21.74 6.92455 20.377 5.56055 18.683 5.56055H6.317C4.623 5.56055 3.25 6.92455 3.25 8.61855Z" stroke="#828282" stroke-width="1.5" stroke-linecap="round" stroke-linejoin="round"/>
</svg>
