<svg width="53" height="50" viewBox="0 0 53 50" fill="none" xmlns="http://www.w3.org/2000/svg">
<path d="M33.6235 6.42137L35.6645 9.37317L34.9405 15.5887L32.8995 12.6369L33.6235 6.42137Z" fill="#1C934C"/>
<path d="M38.6584 12.5506L40.6994 15.5024L39.9916 21.5797L37.9506 18.6279L38.6584 12.5506Z" fill="#1C934C"/>
<path d="M43.5973 18.5442L45.6382 21.496L44.3345 32.6852L42.2935 29.7334L43.5973 18.5442Z" fill="#1C934C"/>
<path d="M42.2921 29.7335L44.3331 32.6853L38.687 32.7691L36.6461 29.8173L42.2921 29.7335Z" fill="#43C277"/>
<path d="M35.9226 36.0349L37.9621 38.9867L32.2027 39.072L30.1617 36.1202L35.9226 36.0349Z" fill="#43C277"/>
<path d="M36.6459 29.8168L38.6869 32.7686L37.9614 38.9856L35.9219 36.0338L36.6459 29.8168Z" fill="#1C934C"/>
<path d="M29.4857 41.9206L31.5266 44.8724L7.33245 45.2315L5.2915 42.2797L29.4857 41.9206Z" fill="#43C277"/>
<path d="M30.1628 36.1201L32.2038 39.0719L31.5284 44.8725L29.4874 41.9207L30.1628 36.1201Z" fill="#1C934C"/>
<path d="M33.622 6.42137L32.898 12.6369L38.6574 12.5516L37.9496 18.6288L43.5957 18.5449L42.292 29.7341L36.6459 29.818L35.9219 36.035L30.1611 36.1203L29.4857 41.9209L5.2915 42.28L9.42785 6.78041L33.622 6.42137Z" fill="url(#paint0_linear_595_217)"/>
<path d="M14.4062 25.2726L17.7597 28.1317L29.1108 17.7445L31.2142 19.508L18.0393 31.9443L12.3947 26.9221L14.4062 25.2726Z" fill="white"/>
<ellipse cx="6.93298" cy="7.2091" rx="0.33691" ry="0.33691" fill="#45DC76"/>
<ellipse cx="5.29309" cy="49.663" rx="0.33691" ry="0.33691" fill="#1D9A46"/>
<ellipse cx="51.9192" cy="29.6606" rx="0.33691" ry="0.33691" fill="#1D9A46"/>
<circle cx="0.547819" cy="20.1017" r="0.547819" fill="#1D9A46"/>
<ellipse cx="35.2969" cy="46.0736" rx="0.626938" ry="0.626938" fill="#45DC76"/>
<circle cx="39.0518" cy="4.81502" r="0.273711" fill="#45DC76"/>
<circle cx="3.23101" cy="34.1847" r="0.24712" fill="#45DC76"/>
<path d="M49.0621 24.8515L49.2951 25.5893L50.0329 25.8223L49.2951 26.0553L49.0621 26.7931L48.8299 26.0553L48.0912 25.8223L48.8299 25.5893L49.0621 24.8515Z" fill="#45DC76"/>
<path d="M9.30769 0L9.41862 0.351294L9.76992 0.462229L9.41862 0.573164L9.30769 0.924458L9.19712 0.573164L8.84546 0.462229L9.19712 0.351294L9.30769 0Z" fill="#45DC76"/>
<path d="M33.5053 4.62356L33.5774 6.45416L35.1175 7.44646L33.2869 7.51856L32.2946 9.05857L32.2242 7.22846L30.6824 6.23567L32.5148 6.16406L33.5053 4.62356Z" fill="#45DC76"/>
<defs>
<linearGradient id="paint0_linear_595_217" x1="24.6078" y1="7.39698" x2="24.6078" y2="42.2796" gradientUnits="userSpaceOnUse">
<stop offset="0.4375" stop-color="#D4F938"/>
<stop offset="1" stop-color="#32D875" stop-opacity="0.96"/>
</linearGradient>
</defs>
</svg>
