<svg width="53" height="50" viewBox="0 0 53 50" fill="none" xmlns="http://www.w3.org/2000/svg">
<path d="M33.8566 6.87211L35.8901 9.81315L35.1688 16.0061L33.1353 13.065L33.8566 6.87211Z" fill="#917008"/>
<path d="M38.8733 12.9803L40.9068 15.9214L40.2016 21.9765L38.1681 19.0354L38.8733 12.9803Z" fill="#917008"/>
<path d="M43.794 18.9509L45.8276 21.892L44.5286 33.0404L42.4951 30.0993L43.794 18.9509Z" fill="#917008"/>
<path d="M42.4947 30.1004L44.5282 33.0414L38.9027 33.125L36.8691 30.184L42.4947 30.1004Z" fill="#E7B73D"/>
<path d="M36.1476 36.3783L38.1797 39.3194L32.4413 39.4044L30.4077 36.4634L36.1476 36.3783Z" fill="#E7B73D"/>
<path d="M36.8695 30.1835L38.903 33.1245L38.1802 39.3189L36.1482 36.3779L36.8695 30.1835Z" fill="#917008"/>
<path d="M29.7352 42.2421L31.7687 45.1832L7.6627 45.5409L5.62918 42.5998L29.7352 42.2421Z" fill="#E7B73D"/>
<path d="M30.4079 36.4626L32.4414 39.4036L31.7684 45.1831L29.7349 42.2421L30.4079 36.4626Z" fill="#917008"/>
<path d="M33.8565 6.87211L33.1351 13.065L38.8736 12.98L38.1684 19.0351L43.7939 18.9515L42.4949 30.0999L36.8694 30.1835L36.148 36.3779L30.4082 36.4629L29.7352 42.2424L5.62918 42.6001L9.75046 7.22984L33.8565 6.87211Z" fill="url(#paint0_linear_595_276)"/>
<ellipse cx="21.5717" cy="24.6006" rx="4.79294" ry="6" transform="rotate(8.16679 21.5717 24.6006)" stroke="white" stroke-width="1.5"/>
<circle cx="6.93475" cy="7.20939" r="0.336908" fill="white"/>
<circle cx="5.2929" cy="49.6631" r="0.336908" fill="#F1BE41"/>
<circle cx="51.9204" cy="29.6604" r="0.336908" fill="#F1BE41"/>
<circle cx="0.547816" cy="20.1019" r="0.547816" fill="#F1BE41"/>
<circle cx="35.2963" cy="46.0736" r="0.626935" fill="white"/>
<circle cx="39.0514" cy="4.81539" r="0.27371" fill="white"/>
<ellipse cx="1.8297" cy="36.131" rx="0.247119" ry="0.247119" fill="#FA3939"/>
<path d="M49.062 24.8518L49.295 25.5896L50.0329 25.8226L49.295 26.0556L49.062 26.7934L48.8298 26.0556L48.0912 25.8226L48.8298 25.5896L49.062 24.8518Z" fill="white"/>
<path d="M9.30756 0L9.4185 0.351293L9.76979 0.462227L9.4185 0.573162L9.30756 0.924454L9.197 0.573162L8.84534 0.462227L9.197 0.351293L9.30756 0Z" fill="white"/>
<path d="M33.5045 4.62253L33.5766 6.45313L35.1166 7.44542L33.286 7.51752L32.2937 9.05753L32.2234 7.22742L30.6816 6.23464L32.514 6.16302L33.5045 4.62253Z" fill="#FFB834"/>
<defs>
<linearGradient id="paint0_linear_595_276" x1="24.8751" y1="7.84416" x2="24.8751" y2="42.5997" gradientUnits="userSpaceOnUse">
<stop offset="0.609375" stop-color="#EBB62F"/>
<stop offset="1" stop-color="#FFE299" stop-opacity="0.96"/>
</linearGradient>
</defs>
</svg>
