<svg width="325" height="166" viewBox="0 0 325 166" fill="none" xmlns="http://www.w3.org/2000/svg">
<g clip-path="url(#clip0_12_1226)">
<rect width="325" height="166" fill="url(#paint0_linear_12_1226)"/>
<g opacity="0.37" clip-path="url(#clip1_12_1226)">
<path d="M259.508 66.5332L253.861 66.5332C253.386 66.5332 253 66.1122 253 65.5928L253 59.4287C253 58.9093 253.386 58.4883 253.861 58.4883L259.508 58.4883C259.984 58.4883 260.37 58.9093 260.37 59.4287L260.37 65.5928C260.37 66.1122 259.984 66.5332 259.508 66.5332Z" fill="#666666" fill-opacity="0.63"/>
<path d="M264.199 66.5332L269.691 66.5332C270.253 66.5332 270.707 66.0373 270.707 65.4238L270.707 59.594C270.707 58.9842 270.253 58.4846 269.691 58.4846L264.199 58.4846C263.725 58.4846 263.338 58.907 263.338 59.425L263.338 65.5928C263.338 66.1108 263.725 66.5332 264.199 66.5332Z" fill="#666666" fill-opacity="0.63"/>
<path d="M280.18 66.5332L274.534 66.5332C274.058 66.5332 273.672 66.1122 273.672 65.5928L273.672 59.4287C273.672 58.9093 274.058 58.4883 274.534 58.4883L280.18 58.4883C280.656 58.4883 281.042 58.9093 281.042 59.4287L281.042 65.5928C281.042 66.1122 280.656 66.5332 280.18 66.5332Z" fill="#666666" fill-opacity="0.63"/>
<path d="M290.518 66.5332L284.871 66.5332C284.396 66.5332 284.01 66.1122 284.01 65.5928L284.01 59.4287C284.01 58.9093 284.396 58.4883 284.871 58.4883L290.518 58.4883C290.994 58.4883 291.38 58.9093 291.38 59.4287L291.38 65.5928C291.38 66.1122 290.994 66.5332 290.518 66.5332Z" fill="#666666" fill-opacity="0.63"/>
<path d="M295.233 47.2804L300.88 47.2804C301.355 47.2804 301.741 47.7015 301.741 48.2208L301.741 54.385C301.741 54.9043 301.355 55.3254 300.88 55.3254L295.233 55.3254C294.757 55.3254 294.371 54.9043 294.371 54.385L294.371 48.2208C294.371 47.7015 294.757 47.2804 295.233 47.2804Z" fill="#666666" fill-opacity="0.63"/>
<path d="M311.221 66.5332L305.574 66.5332C305.098 66.5332 304.713 66.1122 304.713 65.5928L304.713 59.4287C304.713 58.9093 305.098 58.4883 305.574 58.4883L311.221 58.4883C311.697 58.4883 312.082 58.9093 312.082 59.4287L312.082 65.5928C312.082 66.1122 311.697 66.5332 311.221 66.5332Z" fill="#666666" fill-opacity="0.63"/>
<path d="M305.574 47.2804L311.221 47.2804C311.697 47.2804 312.082 47.7015 312.082 48.2208L312.082 54.385C312.082 54.9043 311.697 55.3254 311.221 55.3254L305.574 55.3254C305.098 55.3254 304.713 54.9043 304.713 54.385L304.713 48.2208C304.713 47.7015 305.098 47.2804 305.574 47.2804Z" fill="#666666" fill-opacity="0.63"/>
<path d="M274.53 47.2804L280.177 47.2804C280.653 47.2804 281.039 47.7015 281.039 48.2208L281.039 54.385C281.039 54.9043 280.653 55.3254 280.177 55.3254L274.53 55.3254C274.055 55.3254 273.669 54.9043 273.669 54.385L273.669 48.2208C273.669 47.7015 274.055 47.2804 274.53 47.2804Z" fill="#666666" fill-opacity="0.63"/>
<path d="M269.849 47.2804L264.357 47.2804C263.799 47.2804 263.341 47.7763 263.341 48.3898L263.341 54.2197C263.341 54.8295 263.795 55.329 264.357 55.329L269.849 55.329C270.324 55.329 270.711 54.9066 270.711 54.3886L270.711 48.2245C270.711 47.7066 270.324 47.2841 269.849 47.2841L269.849 47.2804Z" fill="#666666" fill-opacity="0.63"/>
<path d="M259.353 44.1139L254.016 44.1139C253.455 44.1139 253 43.6172 253 43.0045L253 37.1783C253 36.5656 253.455 36.0689 254.016 36.0689L259.353 36.0689C259.915 36.0689 260.37 36.5656 260.37 37.1783L260.37 43.0045C260.37 43.6172 259.915 44.1139 259.353 44.1139Z" fill="#666666" fill-opacity="0.63"/>
<path d="M264.354 44.1139L269.846 44.1139C270.32 44.1139 270.707 43.6914 270.707 43.1735L270.707 37.0093C270.707 36.4914 270.32 36.0689 269.846 36.0689L264.354 36.0689C263.795 36.0689 263.338 36.5649 263.338 37.1783L263.338 43.0082C263.338 43.618 263.792 44.1176 264.354 44.1176L264.354 44.1139Z" fill="#666666" fill-opacity="0.63"/>
<path d="M280.18 44.1139L274.534 44.1139C274.058 44.1139 273.672 43.6929 273.672 43.1735L273.672 37.0094C273.672 36.49 274.058 36.0689 274.534 36.0689L280.18 36.0689C280.656 36.0689 281.042 36.49 281.042 37.0094L281.042 43.1735C281.042 43.6929 280.656 44.1139 280.18 44.1139Z" fill="#666666" fill-opacity="0.63"/>
<path d="M290.518 44.1139L284.871 44.1139C284.396 44.1139 284.01 43.6929 284.01 43.1735L284.01 37.0094C284.01 36.49 284.396 36.0689 284.871 36.0689L290.518 36.0689C290.994 36.0689 291.38 36.49 291.38 37.0094L291.38 43.1735C291.38 43.6929 290.994 44.1139 290.518 44.1139Z" fill="#666666" fill-opacity="0.63"/>
<path d="M311.221 44.1139L305.574 44.1139C305.098 44.1139 304.713 43.6929 304.713 43.1735L304.713 37.0094C304.713 36.49 305.098 36.0689 305.574 36.0689L311.221 36.0689C311.697 36.0689 312.082 36.49 312.082 37.0094L312.082 43.1735C312.082 43.6929 311.697 44.1139 311.221 44.1139Z" fill="#666666" fill-opacity="0.63"/>
<path d="M295.233 24.8611L300.88 24.8611C301.355 24.8611 301.741 25.2822 301.741 25.8015L301.741 31.9656C301.741 32.485 301.355 32.9061 300.88 32.9061L295.233 32.9061C294.757 32.9061 294.371 32.485 294.371 31.9656L294.371 25.8015C294.371 25.2822 294.757 24.8611 295.233 24.8611Z" fill="#666666" fill-opacity="0.63"/>
<path d="M284.872 24.8611L290.518 24.8611C290.994 24.8611 291.38 25.2822 291.38 25.8015L291.38 31.9656C291.38 32.485 290.994 32.9061 290.518 32.9061L284.872 32.9061C284.396 32.9061 284.01 32.485 284.01 31.9656L284.01 25.8015C284.01 25.2822 284.396 24.8611 284.872 24.8611Z" fill="#666666" fill-opacity="0.63"/>
<path d="M269.849 24.8611L264.357 24.8611C263.799 24.8611 263.341 25.357 263.341 25.9705L263.341 31.8003C263.341 32.4101 263.795 32.9097 264.357 32.9097L269.849 32.9097C270.324 32.9097 270.711 32.4873 270.711 31.9693L270.711 25.8052C270.711 25.2872 270.324 24.8648 269.849 24.8648L269.849 24.8611Z" fill="#666666" fill-opacity="0.63"/>
<path d="M253.862 24.8611L259.508 24.8611C259.984 24.8611 260.37 25.2822 260.37 25.8015L260.37 31.9656C260.37 32.485 259.984 32.9061 259.508 32.9061L253.862 32.9061C253.386 32.9061 253 32.485 253 31.9656L253 25.8015C253 25.2822 253.386 24.8611 253.862 24.8611Z" fill="#666666" fill-opacity="0.63"/>
<path d="M259.508 21.6946L253.861 21.6946C253.386 21.6946 253 21.2735 253 20.7542L253 14.59C253 14.0707 253.386 13.6496 253.861 13.6496L259.508 13.6496C259.984 13.6496 260.37 14.0707 260.37 14.59L260.37 20.7542C260.37 21.2735 259.984 21.6946 259.508 21.6946Z" fill="#666666" fill-opacity="0.63"/>
<path d="M264.354 21.6946L269.846 21.6946C270.32 21.6946 270.707 21.2721 270.707 20.7542L270.707 14.59C270.707 14.0721 270.32 13.6496 269.846 13.6496L264.354 13.6496C263.795 13.6496 263.338 14.1455 263.338 14.759L263.338 20.5888C263.338 21.1986 263.792 21.6982 264.354 21.6982L264.354 21.6946Z" fill="#666666" fill-opacity="0.63"/>
<path d="M280.18 21.6946L274.534 21.6946C274.058 21.6946 273.672 21.2735 273.672 20.7542L273.672 14.59C273.672 14.0707 274.058 13.6496 274.534 13.6496L280.18 13.6496C280.656 13.6496 281.042 14.0707 281.042 14.59L281.042 20.7542C281.042 21.2735 280.656 21.6946 280.18 21.6946Z" fill="#666666" fill-opacity="0.63"/>
<path d="M290.518 21.6946L284.871 21.6946C284.396 21.6946 284.01 21.2735 284.01 20.7542L284.01 14.59C284.01 14.0707 284.396 13.6496 284.871 13.6496L290.518 13.6496C290.994 13.6496 291.38 14.0707 291.38 14.59L291.38 20.7542C291.38 21.2735 290.994 21.6946 290.518 21.6946Z" fill="#666666" fill-opacity="0.63"/>
<path d="M300.883 21.6946L295.236 21.6946C294.76 21.6946 294.375 21.2735 294.375 20.7542L294.375 14.59C294.375 14.0707 294.76 13.6496 295.236 13.6496L300.883 13.6496C301.359 13.6496 301.744 14.0707 301.744 14.59L301.744 20.7542C301.744 21.2735 301.359 21.6946 300.883 21.6946Z" fill="#666666" fill-opacity="0.63"/>
<path d="M311.221 21.6946L305.574 21.6946C305.098 21.6946 304.713 21.2735 304.713 20.7542L304.713 14.59C304.713 14.0707 305.098 13.6496 305.574 13.6496L311.221 13.6496C311.697 13.6496 312.082 14.0707 312.082 14.59L312.082 20.7542C312.082 21.2735 311.697 21.6946 311.221 21.6946Z" fill="#666666" fill-opacity="0.63"/>
<path d="M284.872 2.43811L290.518 2.43811C290.994 2.43811 291.38 2.85915 291.38 3.37852L291.38 9.54264C291.38 10.062 290.994 10.4831 290.518 10.4831L284.872 10.4831C284.396 10.4831 284.01 10.062 284.01 9.54264L284.01 3.37852C284.01 2.85915 284.396 2.43811 284.872 2.43811Z" fill="#666666" fill-opacity="0.63"/>
<path d="M274.53 2.43811L280.177 2.43811C280.653 2.43811 281.039 2.85915 281.039 3.37852L281.039 9.54264C281.039 10.062 280.653 10.4831 280.177 10.4831L274.53 10.4831C274.055 10.4831 273.669 10.062 273.669 9.54264L273.669 3.37852C273.669 2.85915 274.055 2.43811 274.53 2.43811Z" fill="#666666" fill-opacity="0.63"/>
<path d="M305.574 2.43811L311.221 2.43811C311.697 2.43811 312.082 2.85915 312.082 3.37852L312.082 9.54264C312.082 10.062 311.697 10.4831 311.221 10.4831L305.574 10.4831C305.098 10.4831 304.713 10.062 304.713 9.54264L304.713 3.37852C304.713 2.85915 305.098 2.43811 305.574 2.43811Z" fill="#666666" fill-opacity="0.63"/>
<path d="M316.12 47.2804L321.767 47.2804C322.243 47.2804 322.629 47.7015 322.629 48.2208L322.629 54.385C322.629 54.9043 322.243 55.3254 321.767 55.3254L316.12 55.3254C315.645 55.3254 315.259 54.9043 315.259 54.385L315.259 48.2208C315.259 47.7015 315.645 47.2804 316.12 47.2804Z" fill="#666666" fill-opacity="0.63"/>
<path d="M321.612 44.1139L316.275 44.1139C315.714 44.1139 315.259 43.6172 315.259 43.0045L315.259 37.1783C315.259 36.5656 315.714 36.0689 316.275 36.0689L321.612 36.0689C322.174 36.0689 322.629 36.5656 322.629 37.1783L322.629 43.0045C322.629 43.6172 322.174 44.1139 321.612 44.1139Z" fill="#666666" fill-opacity="0.63"/>
<path d="M316.12 24.8611L321.767 24.8611C322.243 24.8611 322.629 25.2822 322.629 25.8015L322.629 31.9656C322.629 32.485 322.243 32.9061 321.767 32.9061L316.12 32.9061C315.645 32.9061 315.259 32.485 315.259 31.9656L315.259 25.8015C315.259 25.2822 315.645 24.8611 316.12 24.8611Z" fill="#666666" fill-opacity="0.63"/>
<path d="M321.767 21.6945L316.12 21.6945C315.645 21.6945 315.259 21.2735 315.259 20.7541L315.259 14.59C315.259 14.0706 315.645 13.6496 316.12 13.6496L321.767 13.6496C322.243 13.6496 322.629 14.0706 322.629 14.59L322.629 20.7541C322.629 21.2735 322.243 21.6945 321.767 21.6945Z" fill="#666666" fill-opacity="0.63"/>
<path d="M316.12 2.43811L321.767 2.43811C322.243 2.43811 322.629 2.85915 322.629 3.37852L322.629 9.54264C322.629 10.062 322.243 10.4831 321.767 10.4831L316.12 10.4831C315.645 10.4831 315.259 10.062 315.259 9.54264L315.259 3.37852C315.259 2.85915 315.645 2.43811 316.12 2.43811Z" fill="#666666" fill-opacity="0.63"/>
</g>
<g opacity="0.37" clip-path="url(#clip2_12_1226)">
<path d="M3.23286 36.2804L8.8796 36.2804C9.35539 36.2804 9.74109 36.7015 9.74109 37.2208L9.74109 43.385C9.74109 43.9043 9.35539 44.3254 8.87961 44.3254L3.23286 44.3254C2.75708 44.3254 2.37137 43.9043 2.37137 43.385L2.37137 37.2208C2.37137 36.7015 2.75707 36.2804 3.23286 36.2804Z" fill="#666666" fill-opacity="0.63"/>
<path d="M19.2208 55.5332L13.574 55.5332C13.0982 55.5332 12.7125 55.1122 12.7125 54.5928L12.7125 48.4287C12.7125 47.9093 13.0982 47.4883 13.574 47.4883L19.2208 47.4883C19.6965 47.4883 20.0822 47.9093 20.0822 48.4287L20.0822 54.5928C20.0822 55.1122 19.6965 55.5332 19.2208 55.5332Z" fill="#666666" fill-opacity="0.63"/>
<path d="M13.574 36.2804L19.2208 36.2804C19.6966 36.2804 20.0823 36.7015 20.0823 37.2208L20.0823 43.385C20.0823 43.9043 19.6966 44.3254 19.2208 44.3254L13.574 44.3254C13.0983 44.3254 12.7126 43.9043 12.7126 43.385L12.7126 37.2208C12.7126 36.7015 13.0983 36.2804 13.574 36.2804Z" fill="#666666" fill-opacity="0.63"/>
<path d="M19.2208 33.1139L13.574 33.1139C13.0982 33.1139 12.7125 32.6929 12.7125 32.1735L12.7125 26.0094C12.7125 25.49 13.0982 25.0689 13.574 25.0689L19.2208 25.0689C19.6965 25.0689 20.0822 25.49 20.0822 26.0094L20.0822 32.1735C20.0822 32.6929 19.6965 33.1139 19.2208 33.1139Z" fill="#666666" fill-opacity="0.63"/>
<path d="M3.23286 13.8611L8.8796 13.8611C9.35539 13.8611 9.74109 14.2822 9.74109 14.8015L9.74109 20.9656C9.74109 21.485 9.35539 21.9061 8.87961 21.9061L3.23286 21.9061C2.75708 21.9061 2.37137 21.485 2.37137 20.9656L2.37137 14.8015C2.37137 14.2822 2.75707 13.8611 3.23286 13.8611Z" fill="#666666" fill-opacity="0.63"/>
<path d="M8.88299 10.6946L3.23624 10.6946C2.76046 10.6946 2.37476 10.2735 2.37476 9.75416L2.37475 3.59005C2.37475 3.07067 2.76046 2.64963 3.23624 2.64963L8.88298 2.64963C9.35877 2.64963 9.74447 3.07067 9.74447 3.59005L9.74447 9.75416C9.74447 10.2735 9.35877 10.6946 8.88299 10.6946Z" fill="#666666" fill-opacity="0.63"/>
<path d="M19.2208 10.6946L13.574 10.6946C13.0982 10.6946 12.7125 10.2735 12.7125 9.75416L12.7125 3.59005C12.7125 3.07067 13.0982 2.64963 13.574 2.64963L19.2208 2.64963C19.6965 2.64963 20.0822 3.07067 20.0822 3.59005L20.0822 9.75416C20.0822 10.2735 19.6965 10.6946 19.2208 10.6946Z" fill="#666666" fill-opacity="0.63"/>
<path d="M60.7772 55.5332L55.1304 55.5332C54.6546 55.5332 54.2689 55.1121 54.2689 54.5928L54.2689 48.4286C54.2689 47.9093 54.6546 47.4882 55.1304 47.4882L60.7771 47.4882C61.2529 47.4882 61.6386 47.9093 61.6386 48.4286L61.6386 54.5928C61.6386 55.1121 61.2529 55.5332 60.7772 55.5332Z" fill="#666666" fill-opacity="0.63"/>
<path d="M71.1419 55.5332L65.4951 55.5332C65.0194 55.5332 64.6337 55.1121 64.6337 54.5928L64.6337 48.4286C64.6337 47.9093 65.0194 47.4882 65.4951 47.4882L71.1419 47.4882C71.6177 47.4882 72.0034 47.9093 72.0034 48.4286L72.0034 54.5928C72.0034 55.1121 71.6177 55.5332 71.1419 55.5332Z" fill="#666666" fill-opacity="0.63"/>
<path d="M65.4918 36.2804L71.1385 36.2804C71.6143 36.2804 72 36.7015 72 37.2208L72 43.385C72 43.9043 71.6143 44.3254 71.1385 44.3254L65.4918 44.3254C65.016 44.3254 64.6303 43.9043 64.6303 43.385L64.6303 37.2208C64.6303 36.7015 65.016 36.2804 65.4918 36.2804Z" fill="#666666" fill-opacity="0.63"/>
<path d="M55.1304 36.2804L60.7772 36.2804C61.253 36.2804 61.6387 36.7015 61.6387 37.2208L61.6387 43.385C61.6387 43.9043 61.253 44.3254 60.7772 44.3254L55.1304 44.3254C54.6547 44.3254 54.269 43.9043 54.269 43.385L54.269 37.2208C54.269 36.7015 54.6547 36.2804 55.1304 36.2804Z" fill="#666666" fill-opacity="0.63"/>
<path d="M44.7927 36.2804L50.4394 36.2804C50.9152 36.2804 51.3009 36.7015 51.3009 37.2208L51.3009 43.385C51.3009 43.9043 50.9152 44.3254 50.4394 44.3254L44.7927 44.3254C44.3169 44.3254 43.9312 43.9043 43.9312 43.385L43.9312 37.2208C43.9312 36.7015 44.3169 36.2804 44.7927 36.2804Z" fill="#666666" fill-opacity="0.63"/>
<path d="M40.1084 36.2804L34.6164 36.2804C34.0578 36.2804 33.6001 36.7763 33.6001 37.3898L33.6001 43.2197C33.6001 43.8295 34.0544 44.329 34.6164 44.329L40.1084 44.329C40.5829 44.329 40.9698 43.9066 40.9698 43.3886L40.9698 37.2245C40.9698 36.7066 40.5829 36.2841 40.1084 36.2841L40.1084 36.2804Z" fill="#666666" fill-opacity="0.63"/>
<path d="M24.1204 36.2804L29.7672 36.2804C30.243 36.2804 30.6287 36.7015 30.6287 37.2208L30.6287 43.385C30.6287 43.9043 30.243 44.3254 29.7672 44.3254L24.1204 44.3254C23.6446 44.3254 23.2589 43.9043 23.2589 43.385L23.2589 37.2208C23.2589 36.7015 23.6446 36.2804 24.1204 36.2804Z" fill="#666666" fill-opacity="0.63"/>
<path d="M29.6123 33.1139L24.2752 33.1139C23.7139 33.1139 23.2589 32.6172 23.2589 32.0045L23.2589 26.1783C23.2589 25.5656 23.7139 25.0689 24.2752 25.0689L29.6123 25.0689C30.1736 25.0689 30.6286 25.5656 30.6286 26.1783L30.6286 32.0045C30.6286 32.6172 30.1736 33.1139 29.6123 33.1139Z" fill="#666666" fill-opacity="0.63"/>
<path d="M50.436 33.1139L44.7892 33.1139C44.3134 33.1139 43.9277 32.6928 43.9277 32.1734L43.9277 26.0093C43.9277 25.49 44.3134 25.0689 44.7892 25.0689L50.436 25.0689C50.9117 25.0689 51.2974 25.4899 51.2974 26.0093L51.2974 32.1734C51.2974 32.6928 50.9117 33.1139 50.436 33.1139Z" fill="#666666" fill-opacity="0.63"/>
<path d="M60.7772 33.1139L55.1304 33.1139C54.6546 33.1139 54.2689 32.6928 54.2689 32.1734L54.2689 26.0093C54.2689 25.49 54.6546 25.0689 55.1304 25.0689L60.7771 25.0689C61.2529 25.0689 61.6386 25.4899 61.6386 26.0093L61.6386 32.1734C61.6386 32.6928 61.2529 33.1139 60.7772 33.1139Z" fill="#666666" fill-opacity="0.63"/>
<path d="M71.1419 33.1139L65.4951 33.1139C65.0194 33.1139 64.6337 32.6928 64.6337 32.1734L64.6337 26.0093C64.6337 25.49 65.0194 25.0689 65.4951 25.0689L71.1419 25.0689C71.6177 25.0689 72.0034 25.4899 72.0034 26.0093L72.0034 32.1734C72.0034 32.6928 71.6177 33.1139 71.1419 33.1139Z" fill="#666666" fill-opacity="0.63"/>
<path d="M55.1304 13.8611L60.7772 13.8611C61.253 13.8611 61.6387 14.2821 61.6387 14.8015L61.6387 20.9656C61.6387 21.485 61.253 21.906 60.7772 21.906L55.1304 21.906C54.6547 21.906 54.269 21.485 54.269 20.9656L54.269 14.8015C54.269 14.2821 54.6547 13.8611 55.1304 13.8611Z" fill="#666666" fill-opacity="0.63"/>
<path d="M44.7927 13.8611L50.4394 13.8611C50.9152 13.8611 51.3009 14.2821 51.3009 14.8015L51.3009 20.9656C51.3009 21.485 50.9152 21.906 50.4394 21.906L44.7927 21.906C44.3169 21.906 43.9312 21.485 43.9312 20.9656L43.9312 14.8015C43.9312 14.2821 44.3169 13.8611 44.7927 13.8611Z" fill="#666666" fill-opacity="0.63"/>
<path d="M40.1084 13.8611L34.6164 13.8611C34.0578 13.8611 33.6001 14.357 33.6001 14.9705L33.6001 20.8003C33.6001 21.4101 34.0544 21.9097 34.6164 21.9097L40.1084 21.9097C40.5829 21.9097 40.9698 21.4873 40.9698 20.9693L40.9698 14.8052C40.9698 14.2872 40.5829 13.8648 40.1084 13.8648L40.1084 13.8611Z" fill="#666666" fill-opacity="0.63"/>
<path d="M24.1204 13.8611L29.7672 13.8611C30.243 13.8611 30.6287 14.2822 30.6287 14.8015L30.6287 20.9656C30.6287 21.485 30.243 21.9061 29.7672 21.9061L24.1204 21.9061C23.6446 21.9061 23.2589 21.485 23.2589 20.9656L23.2589 14.8015C23.2589 14.2822 23.6446 13.8611 24.1204 13.8611Z" fill="#666666" fill-opacity="0.63"/>
<path d="M29.7671 10.6945L24.1204 10.6945C23.6446 10.6945 23.2589 10.2735 23.2589 9.75413L23.2589 3.59002C23.2589 3.07064 23.6446 2.6496 24.1204 2.6496L29.7671 2.6496C30.2429 2.6496 30.6286 3.07064 30.6286 3.59002L30.6286 9.75413C30.6286 10.2735 30.2429 10.6945 29.7671 10.6945Z" fill="#666666" fill-opacity="0.63"/>
<path d="M50.436 10.6945L44.7892 10.6945C44.3134 10.6945 43.9277 10.2735 43.9277 9.75413L43.9277 3.59002C43.9277 3.07064 44.3134 2.6496 44.7892 2.6496L50.436 2.6496C50.9117 2.6496 51.2974 3.07064 51.2974 3.59002L51.2974 9.75413C51.2974 10.2735 50.9117 10.6945 50.436 10.6945Z" fill="#666666" fill-opacity="0.63"/>
<path d="M60.7772 10.6945L55.1304 10.6945C54.6546 10.6945 54.2689 10.2735 54.2689 9.75413L54.2689 3.59002C54.2689 3.07064 54.6546 2.6496 55.1304 2.6496L60.7771 2.6496C61.2529 2.6496 61.6386 3.07064 61.6386 3.59002L61.6386 9.75413C61.6386 10.2735 61.2529 10.6945 60.7772 10.6945Z" fill="#666666" fill-opacity="0.63"/>
<path d="M71.1419 10.6945L65.4951 10.6945C65.0194 10.6945 64.6337 10.2735 64.6337 9.75413L64.6337 3.59002C64.6337 3.07064 65.0194 2.6496 65.4951 2.6496L71.1419 2.6496C71.6177 2.6496 72.0034 3.07064 72.0034 3.59002L72.0034 9.75413C72.0034 10.2735 71.6177 10.6945 71.1419 10.6945Z" fill="#666666" fill-opacity="0.63"/>
</g>
</g>
<rect x="0.05" y="0.05" width="324.9" height="165.9" stroke="#E2FF6F" stroke-width="0.1"/>
<defs>
<linearGradient id="paint0_linear_12_1226" x1="140.39" y1="232.748" x2="17.3806" y2="49.2273" gradientUnits="userSpaceOnUse">
<stop stop-color="#87922F" stop-opacity="0.1"/>
<stop offset="1" stop-color="white" stop-opacity="0"/>
</linearGradient>
<clipPath id="clip0_12_1226">
<rect width="325" height="166" fill="white"/>
</clipPath>
<clipPath id="clip1_12_1226">
<rect width="111" height="108.533" fill="white" transform="matrix(1 -1.99497e-07 -1.53241e-07 -1 253 66.5332)"/>
</clipPath>
<clipPath id="clip2_12_1226">
<rect width="111" height="108.533" fill="white" transform="matrix(1 -1.99497e-07 -1.53241e-07 -1 -39 55.5332)"/>
</clipPath>
</defs>
</svg>
