<svg width="28" height="15" viewBox="0 0 28 15" fill="none" xmlns="http://www.w3.org/2000/svg">
<path d="M26.3092 14.7H0.959011C0.603809 14.7 0.3 14.4002 0.3 14.0111V1.02406C0.3 0.615787 0.617885 0.3 0.993099 0.3H26.2796C26.6535 0.3 26.9727 0.614351 26.9727 1.02406V14.0083C26.9707 14.4005 26.6662 14.7 26.3092 14.7Z" stroke="#A9A9A9" stroke-width="0.6"/>
<path d="M18.5 11C20.433 11 22 9.433 22 7.5C22 5.567 20.433 4 18.5 4C16.567 4 15 5.567 15 7.5C15 9.433 16.567 11 18.5 11Z" stroke="#A9A9A9" stroke-width="0.5"/>
<path d="M22.3778 2.41022C22.5576 3.51781 23.4526 4.39567 24.5818 4.57207V10.4259C23.4526 10.6023 22.5576 11.4801 22.3778 12.5877H4.59714C4.36712 11.5396 3.49723 10.7315 2.41822 10.5633V4.70949C3.59551 4.52694 4.51559 3.58344 4.64106 2.41022H22.3778ZM22.7625 2H4.23329C4.23538 2.04512 4.23748 2.09025 4.23748 2.13742C4.23748 3.34962 3.23584 4.33209 2 4.33209V10.9428C3.18774 10.9428 4.16011 11.8514 4.23329 13H22.7625C22.7625 11.7878 23.7642 10.8053 25 10.8053V4.19467C23.7642 4.19467 22.7625 3.21219 22.7625 2Z" fill="white"/>
</svg>
