<svg width="325" height="220" viewBox="0 0 325 220" fill="none" xmlns="http://www.w3.org/2000/svg">
<g clip-path="url(#clip0_14_36)">
<rect width="325" height="220" fill="url(#paint0_linear_14_36)"/>
<g opacity="0.37" clip-path="url(#clip1_14_36)">
<path d="M261.508 69L255.861 69C255.386 69 255 68.5694 255 68.0382L255 61.734C255 61.2028 255.386 60.7722 255.861 60.7722L261.508 60.7722C261.984 60.7722 262.37 61.2028 262.37 61.734L262.37 68.0382C262.37 68.5694 261.984 69 261.508 69Z" fill="#666666" fill-opacity="0.63"/>
<path d="M266.199 69L271.691 69C272.253 69 272.707 68.4928 272.707 67.8654L272.707 61.9031C272.707 61.2794 272.253 60.7685 271.691 60.7685L266.199 60.7685C265.725 60.7685 265.338 61.2005 265.338 61.7302L265.338 68.0382C265.338 68.5679 265.725 69 266.199 69Z" fill="#666666" fill-opacity="0.63"/>
<path d="M282.18 69L276.534 69C276.058 69 275.672 68.5694 275.672 68.0382L275.672 61.734C275.672 61.2028 276.058 60.7722 276.534 60.7722L282.18 60.7722C282.656 60.7722 283.042 61.2028 283.042 61.734L283.042 68.0382C283.042 68.5694 282.656 69 282.18 69Z" fill="#666666" fill-opacity="0.63"/>
<path d="M292.518 69L286.871 69C286.396 69 286.01 68.5694 286.01 68.0382L286.01 61.734C286.01 61.2028 286.396 60.7722 286.871 60.7722L292.518 60.7722C292.994 60.7722 293.38 61.2028 293.38 61.734L293.38 68.0382C293.38 68.5694 292.994 69 292.518 69Z" fill="#666666" fill-opacity="0.63"/>
<path d="M297.233 49.3097L302.88 49.3097C303.355 49.3097 303.741 49.7403 303.741 50.2714L303.741 56.5757C303.741 57.1068 303.355 57.5374 302.88 57.5374L297.233 57.5374C296.757 57.5374 296.371 57.1068 296.371 56.5757L296.371 50.2715C296.371 49.7403 296.757 49.3097 297.233 49.3097Z" fill="#666666" fill-opacity="0.63"/>
<path d="M313.221 69L307.574 69C307.098 69 306.713 68.5694 306.713 68.0382L306.713 61.734C306.713 61.2028 307.098 60.7722 307.574 60.7722L313.221 60.7722C313.697 60.7722 314.082 61.2028 314.082 61.734L314.082 68.0382C314.082 68.5694 313.697 69 313.221 69Z" fill="#666666" fill-opacity="0.63"/>
<path d="M307.574 49.3097L313.221 49.3097C313.697 49.3097 314.082 49.7403 314.082 50.2714L314.082 56.5757C314.082 57.1068 313.697 57.5374 313.221 57.5374L307.574 57.5374C307.098 57.5374 306.713 57.1068 306.713 56.5757L306.713 50.2715C306.713 49.7403 307.098 49.3097 307.574 49.3097Z" fill="#666666" fill-opacity="0.63"/>
<path d="M276.53 49.3097L282.177 49.3097C282.653 49.3097 283.039 49.7403 283.039 50.2714L283.039 56.5757C283.039 57.1068 282.653 57.5374 282.177 57.5374L276.53 57.5374C276.055 57.5374 275.669 57.1068 275.669 56.5757L275.669 50.2715C275.669 49.7403 276.055 49.3097 276.53 49.3097Z" fill="#666666" fill-opacity="0.63"/>
<path d="M271.849 49.3097L266.357 49.3097C265.799 49.3097 265.341 49.8169 265.341 50.4443L265.341 56.4066C265.341 57.0303 265.795 57.5412 266.357 57.5412L271.849 57.5412C272.324 57.5412 272.711 57.1092 272.711 56.5794L272.711 50.2752C272.711 49.7455 272.324 49.3134 271.849 49.3134L271.849 49.3097Z" fill="#666666" fill-opacity="0.63"/>
<path d="M261.353 46.0712L256.016 46.0712C255.455 46.0712 255 45.5632 255 44.9366L255 38.978C255 38.3514 255.455 37.8434 256.016 37.8434L261.353 37.8434C261.915 37.8434 262.37 38.3514 262.37 38.978L262.37 44.9366C262.37 45.5632 261.915 46.0712 261.353 46.0712Z" fill="#666666" fill-opacity="0.63"/>
<path d="M266.354 46.0712L271.846 46.0712C272.32 46.0712 272.707 45.6391 272.707 45.1094L272.707 38.8052C272.707 38.2754 272.32 37.8434 271.846 37.8434L266.354 37.8434C265.795 37.8434 265.338 38.3506 265.338 38.978L265.338 44.9403C265.338 45.564 265.792 46.0749 266.354 46.0749L266.354 46.0712Z" fill="#666666" fill-opacity="0.63"/>
<path d="M282.18 46.0711L276.534 46.0711C276.058 46.0711 275.672 45.6405 275.672 45.1093L275.672 38.8051C275.672 38.274 276.058 37.8434 276.534 37.8434L282.18 37.8433C282.656 37.8433 283.042 38.274 283.042 38.8051L283.042 45.1093C283.042 45.6405 282.656 46.0711 282.18 46.0711Z" fill="#666666" fill-opacity="0.63"/>
<path d="M292.518 46.0711L286.871 46.0711C286.396 46.0711 286.01 45.6405 286.01 45.1093L286.01 38.8051C286.01 38.274 286.396 37.8434 286.871 37.8434L292.518 37.8433C292.994 37.8433 293.38 38.274 293.38 38.8051L293.38 45.1093C293.38 45.6405 292.994 46.0711 292.518 46.0711Z" fill="#666666" fill-opacity="0.63"/>
<path d="M313.221 46.0711L307.574 46.0711C307.098 46.0711 306.713 45.6405 306.713 45.1093L306.713 38.8051C306.713 38.274 307.098 37.8434 307.574 37.8434L313.221 37.8433C313.697 37.8433 314.082 38.274 314.082 38.8051L314.082 45.1093C314.082 45.6405 313.697 46.0711 313.221 46.0711Z" fill="#666666" fill-opacity="0.63"/>
<path d="M297.233 26.3808L302.88 26.3808C303.355 26.3808 303.741 26.8114 303.741 27.3426L303.741 33.6468C303.741 34.178 303.355 34.6086 302.88 34.6086L297.233 34.6086C296.757 34.6086 296.371 34.178 296.371 33.6468L296.371 27.3426C296.371 26.8114 296.757 26.3808 297.233 26.3808Z" fill="#666666" fill-opacity="0.63"/>
<path d="M286.872 26.3808L292.518 26.3808C292.994 26.3808 293.38 26.8114 293.38 27.3426L293.38 33.6468C293.38 34.178 292.994 34.6086 292.518 34.6086L286.872 34.6086C286.396 34.6086 286.01 34.178 286.01 33.6468L286.01 27.3426C286.01 26.8114 286.396 26.3808 286.872 26.3808Z" fill="#666666" fill-opacity="0.63"/>
<path d="M271.849 26.3808L266.357 26.3808C265.799 26.3808 265.341 26.888 265.341 27.5154L265.341 33.4778C265.341 34.1014 265.795 34.6124 266.357 34.6124L271.849 34.6124C272.324 34.6124 272.711 34.1803 272.711 33.6506L272.711 27.3464C272.711 26.8166 272.324 26.3846 271.849 26.3846L271.849 26.3808Z" fill="#666666" fill-opacity="0.63"/>
<path d="M255.862 26.3808L261.508 26.3808C261.984 26.3808 262.37 26.8114 262.37 27.3426L262.37 33.6468C262.37 34.178 261.984 34.6086 261.508 34.6086L255.862 34.6086C255.386 34.6086 255 34.178 255 33.6468L255 27.3426C255 26.8114 255.386 26.3808 255.862 26.3808Z" fill="#666666" fill-opacity="0.63"/>
<path d="M261.508 23.1423L255.861 23.1423C255.386 23.1423 255 22.7117 255 22.1805L255 15.8763C255 15.3451 255.386 14.9145 255.861 14.9145L261.508 14.9145C261.984 14.9145 262.37 15.3451 262.37 15.8763L262.37 22.1805C262.37 22.7117 261.984 23.1423 261.508 23.1423Z" fill="#666666" fill-opacity="0.63"/>
<path d="M266.354 23.1423L271.846 23.1423C272.32 23.1423 272.707 22.7102 272.707 22.1805L272.707 15.8763C272.707 15.3466 272.32 14.9145 271.846 14.9145L266.354 14.9145C265.795 14.9145 265.338 15.4217 265.338 16.0491L265.338 22.0115C265.338 22.6351 265.792 23.1461 266.354 23.1461L266.354 23.1423Z" fill="#666666" fill-opacity="0.63"/>
<path d="M282.18 23.1423L276.534 23.1423C276.058 23.1423 275.672 22.7117 275.672 22.1805L275.672 15.8763C275.672 15.3451 276.058 14.9145 276.534 14.9145L282.18 14.9145C282.656 14.9145 283.042 15.3451 283.042 15.8763L283.042 22.1805C283.042 22.7117 282.656 23.1423 282.18 23.1423Z" fill="#666666" fill-opacity="0.63"/>
<path d="M292.518 23.1423L286.871 23.1423C286.396 23.1423 286.01 22.7117 286.01 22.1805L286.01 15.8763C286.01 15.3451 286.396 14.9145 286.871 14.9145L292.518 14.9145C292.994 14.9145 293.38 15.3451 293.38 15.8763L293.38 22.1805C293.38 22.7117 292.994 23.1423 292.518 23.1423Z" fill="#666666" fill-opacity="0.63"/>
<path d="M302.883 23.1423L297.236 23.1423C296.76 23.1423 296.375 22.7117 296.375 22.1805L296.375 15.8763C296.375 15.3451 296.76 14.9145 297.236 14.9145L302.883 14.9145C303.359 14.9145 303.744 15.3451 303.744 15.8763L303.744 22.1805C303.744 22.7117 303.359 23.1423 302.883 23.1423Z" fill="#666666" fill-opacity="0.63"/>
<path d="M313.221 23.1423L307.574 23.1423C307.098 23.1423 306.713 22.7117 306.713 22.1805L306.713 15.8763C306.713 15.3451 307.098 14.9145 307.574 14.9145L313.221 14.9145C313.697 14.9145 314.082 15.3451 314.082 15.8763L314.082 22.1805C314.082 22.7117 313.697 23.1423 313.221 23.1423Z" fill="#666666" fill-opacity="0.63"/>
<path d="M286.872 3.44821L292.518 3.44821C292.994 3.44821 293.38 3.87882 293.38 4.41L293.38 10.7142C293.38 11.2454 292.994 11.676 292.518 11.676L286.872 11.676C286.396 11.676 286.01 11.2454 286.01 10.7142L286.01 4.41C286.01 3.87882 286.396 3.44821 286.872 3.44821Z" fill="#666666" fill-opacity="0.63"/>
<path d="M276.53 3.44821L282.177 3.44821C282.653 3.44821 283.039 3.87882 283.039 4.41L283.039 10.7142C283.039 11.2454 282.653 11.676 282.177 11.676L276.53 11.676C276.055 11.676 275.669 11.2454 275.669 10.7142L275.669 4.41C275.669 3.87882 276.055 3.44821 276.53 3.44821Z" fill="#666666" fill-opacity="0.63"/>
<path d="M307.574 3.44821L313.221 3.44821C313.697 3.44821 314.082 3.87882 314.082 4.41L314.082 10.7142C314.082 11.2454 313.697 11.676 313.221 11.676L307.574 11.676C307.098 11.676 306.713 11.2454 306.713 10.7142L306.713 4.41C306.713 3.87882 307.098 3.44821 307.574 3.44821Z" fill="#666666" fill-opacity="0.63"/>
<path d="M318.12 49.3097L323.767 49.3097C324.243 49.3097 324.629 49.7403 324.629 50.2714L324.629 56.5757C324.629 57.1068 324.243 57.5374 323.767 57.5374L318.12 57.5374C317.645 57.5374 317.259 57.1068 317.259 56.5757L317.259 50.2715C317.259 49.7403 317.645 49.3097 318.12 49.3097Z" fill="#666666" fill-opacity="0.63"/>
<path d="M323.612 46.0711L318.275 46.0711C317.714 46.0711 317.259 45.5632 317.259 44.9365L317.259 38.978C317.259 38.3513 317.714 37.8434 318.275 37.8434L323.612 37.8433C324.174 37.8433 324.629 38.3513 324.629 38.978L324.629 44.9365C324.629 45.5632 324.174 46.0711 323.612 46.0711Z" fill="#666666" fill-opacity="0.63"/>
<path d="M318.12 26.3808L323.767 26.3808C324.243 26.3808 324.629 26.8114 324.629 27.3426L324.629 33.6468C324.629 34.178 324.243 34.6086 323.767 34.6086L318.12 34.6086C317.645 34.6086 317.259 34.178 317.259 33.6468L317.259 27.3426C317.259 26.8114 317.645 26.3808 318.12 26.3808Z" fill="#666666" fill-opacity="0.63"/>
<path d="M323.767 23.1423L318.12 23.1423C317.645 23.1423 317.259 22.7117 317.259 22.1805L317.259 15.8763C317.259 15.3451 317.645 14.9145 318.12 14.9145L323.767 14.9145C324.243 14.9145 324.629 15.3451 324.629 15.8763L324.629 22.1805C324.629 22.7117 324.243 23.1423 323.767 23.1423Z" fill="#666666" fill-opacity="0.63"/>
<path d="M318.12 3.44821L323.767 3.44821C324.243 3.44821 324.629 3.87882 324.629 4.41L324.629 10.7142C324.629 11.2454 324.243 11.676 323.767 11.676L318.12 11.676C317.645 11.676 317.259 11.2454 317.259 10.7142L317.259 4.41C317.259 3.87882 317.645 3.44821 318.12 3.44821Z" fill="#666666" fill-opacity="0.63"/>
<path d="M266.199 0.622986L271.691 0.622985C272.25 0.622984 272.707 0.11579 272.707 -0.511625L272.707 -6.47395C272.707 -7.09761 272.253 -7.60856 271.691 -7.60856L266.199 -7.60856C265.725 -7.60856 265.338 -7.17651 265.338 -6.64677L265.338 -0.342561C265.338 0.187173 265.725 0.619231 266.199 0.619231L266.199 0.622986Z" fill="#666666" fill-opacity="0.63"/>
<path d="M282.18 0.622985L276.534 0.622986C276.058 0.622986 275.672 0.19238 275.672 -0.3388L275.672 -6.64301C275.672 -7.17419 276.058 -7.6048 276.534 -7.6048L282.18 -7.6048C282.656 -7.6048 283.042 -7.17419 283.042 -6.64301L283.042 -0.338802C283.042 0.192379 282.656 0.622984 282.18 0.622985Z" fill="#666666" fill-opacity="0.63"/>
<path d="M292.518 0.622985L286.871 0.622986C286.396 0.622986 286.01 0.19238 286.01 -0.3388L286.01 -6.64301C286.01 -7.17419 286.396 -7.6048 286.871 -7.6048L292.518 -7.6048C292.994 -7.6048 293.38 -7.17419 293.38 -6.64301L293.38 -0.338802C293.38 0.192379 292.994 0.622984 292.518 0.622985Z" fill="#666666" fill-opacity="0.63"/>
<path d="M302.883 0.622954L297.236 0.622955C296.76 0.622955 296.375 0.19235 296.375 -0.338831L296.375 -6.64304C296.375 -7.17422 296.76 -7.60483 297.236 -7.60483L302.883 -7.60483C303.359 -7.60483 303.744 -7.17422 303.744 -6.64304L303.744 -0.338832C303.744 0.192348 303.359 0.622954 302.883 0.622954Z" fill="#666666" fill-opacity="0.63"/>
<path d="M313.221 0.622954L307.574 0.622955C307.098 0.622955 306.713 0.19235 306.713 -0.338831L306.713 -6.64304C306.713 -7.17422 307.098 -7.60483 307.574 -7.60483L313.221 -7.60483C313.697 -7.60483 314.082 -7.17422 314.082 -6.64304L314.082 -0.338832C314.082 0.192348 313.697 0.622954 313.221 0.622954Z" fill="#666666" fill-opacity="0.63"/>
<path d="M323.767 0.622954L318.12 0.622955C317.645 0.622955 317.259 0.19235 317.259 -0.338831L317.259 -6.64304C317.259 -7.17422 317.645 -7.60483 318.12 -7.60483L323.767 -7.60483C324.243 -7.60483 324.629 -7.17422 324.629 -6.64304L324.629 -0.338832C324.629 0.192348 324.243 0.622954 323.767 0.622954Z" fill="#666666" fill-opacity="0.63"/>
</g>
<g opacity="0.37" clip-path="url(#clip2_14_36)">
<path d="M8.22075 57L2.57401 57C2.09822 57 1.71252 56.5694 1.71252 56.0382L1.71252 49.734C1.71252 49.2028 2.09822 48.7722 2.574 48.7722L8.22075 48.7722C8.69654 48.7722 9.08224 49.2028 9.08224 49.734L9.08224 56.0382C9.08224 56.5694 8.69654 57 8.22075 57Z" fill="#666666" fill-opacity="0.63"/>
<path d="M2.57405 37.3097L8.22079 37.3097C8.69658 37.3097 9.08228 37.7403 9.08228 38.2714L9.08228 44.5757C9.08228 45.1068 8.69658 45.5374 8.22079 45.5374L2.57405 45.5374C2.09826 45.5374 1.71256 45.1068 1.71256 44.5757L1.71256 38.2715C1.71256 37.7403 2.09826 37.3097 2.57405 37.3097Z" fill="#666666" fill-opacity="0.63"/>
<path d="M8.22075 34.0711L2.57401 34.0711C2.09822 34.0711 1.71252 33.6405 1.71252 33.1093L1.71252 26.8051C1.71252 26.274 2.09822 25.8434 2.574 25.8434L8.22075 25.8433C8.69654 25.8433 9.08224 26.274 9.08224 26.8051L9.08224 33.1093C9.08224 33.6405 8.69654 34.0711 8.22075 34.0711Z" fill="#666666" fill-opacity="0.63"/>
<path d="M8.22075 11.1423L2.57401 11.1423C2.09822 11.1423 1.71252 10.7117 1.71252 10.1805L1.71252 3.87631C1.71252 3.34513 2.09822 2.91451 2.574 2.91451L8.22075 2.91451C8.69654 2.91451 9.08224 3.34512 9.08224 3.8763L9.08224 10.1805C9.08224 10.7117 8.69654 11.1423 8.22075 11.1423Z" fill="#666666" fill-opacity="0.63"/>
<path d="M49.7772 57L44.1304 57C43.6546 57 43.2689 56.5694 43.2689 56.0382L43.2689 49.734C43.2689 49.2028 43.6546 48.7722 44.1304 48.7722L49.7771 48.7722C50.2529 48.7722 50.6386 49.2028 50.6386 49.734L50.6386 56.0382C50.6386 56.5694 50.2529 57 49.7772 57Z" fill="#666666" fill-opacity="0.63"/>
<path d="M60.1419 57L54.4951 57C54.0194 57 53.6337 56.5694 53.6337 56.0382L53.6337 49.734C53.6337 49.2028 54.0194 48.7722 54.4951 48.7722L60.1419 48.7722C60.6177 48.7722 61.0034 49.2028 61.0034 49.734L61.0034 56.0382C61.0034 56.5694 60.6177 57 60.1419 57Z" fill="#666666" fill-opacity="0.63"/>
<path d="M54.4918 37.3097L60.1385 37.3097C60.6143 37.3097 61 37.7403 61 38.2714L61 44.5757C61 45.1068 60.6143 45.5374 60.1385 45.5374L54.4918 45.5374C54.016 45.5374 53.6303 45.1068 53.6303 44.5757L53.6303 38.2715C53.6303 37.7403 54.016 37.3097 54.4918 37.3097Z" fill="#666666" fill-opacity="0.63"/>
<path d="M44.1304 37.3097L49.7772 37.3097C50.253 37.3097 50.6387 37.7403 50.6387 38.2714L50.6387 44.5757C50.6387 45.1068 50.253 45.5374 49.7772 45.5374L44.1304 45.5374C43.6547 45.5374 43.269 45.1068 43.269 44.5757L43.269 38.2715C43.269 37.7403 43.6547 37.3097 44.1304 37.3097Z" fill="#666666" fill-opacity="0.63"/>
<path d="M33.7927 37.3097L39.4394 37.3097C39.9152 37.3097 40.3009 37.7403 40.3009 38.2714L40.3009 44.5757C40.3009 45.1068 39.9152 45.5374 39.4394 45.5374L33.7927 45.5374C33.3169 45.5374 32.9312 45.1068 32.9312 44.5757L32.9312 38.2715C32.9312 37.7403 33.3169 37.3097 33.7927 37.3097Z" fill="#666666" fill-opacity="0.63"/>
<path d="M29.1084 37.3097L23.6164 37.3097C23.0578 37.3097 22.6001 37.8169 22.6001 38.4443L22.6001 44.4066C22.6001 45.0303 23.0544 45.5412 23.6164 45.5412L29.1084 45.5412C29.5829 45.5412 29.9698 45.1092 29.9698 44.5794L29.9698 38.2752C29.9698 37.7455 29.5829 37.3134 29.1084 37.3134L29.1084 37.3097Z" fill="#666666" fill-opacity="0.63"/>
<path d="M13.1204 37.3097L18.7672 37.3097C19.243 37.3097 19.6287 37.7403 19.6287 38.2714L19.6287 44.5757C19.6287 45.1068 19.243 45.5374 18.7672 45.5374L13.1204 45.5374C12.6446 45.5374 12.2589 45.1068 12.2589 44.5757L12.2589 38.2715C12.2589 37.7403 12.6446 37.3097 13.1204 37.3097Z" fill="#666666" fill-opacity="0.63"/>
<path d="M18.6123 34.0711L13.2752 34.0711C12.7139 34.0711 12.2589 33.5632 12.2589 32.9365L12.2589 26.978C12.2589 26.3513 12.7139 25.8434 13.2752 25.8434L18.6123 25.8433C19.1736 25.8433 19.6286 26.3513 19.6286 26.978L19.6286 32.9365C19.6286 33.5632 19.1736 34.0711 18.6123 34.0711Z" fill="#666666" fill-opacity="0.63"/>
<path d="M39.436 34.0711L33.7892 34.0711C33.3134 34.0711 32.9277 33.6405 32.9277 33.1093L32.9277 26.8051C32.9277 26.274 33.3134 25.8434 33.7892 25.8434L39.436 25.8433C39.9117 25.8433 40.2974 26.274 40.2974 26.8051L40.2974 33.1093C40.2974 33.6405 39.9117 34.0711 39.436 34.0711Z" fill="#666666" fill-opacity="0.63"/>
<path d="M49.7772 34.0711L44.1304 34.0711C43.6546 34.0711 43.2689 33.6405 43.2689 33.1093L43.2689 26.8051C43.2689 26.274 43.6546 25.8434 44.1304 25.8434L49.7771 25.8433C50.2529 25.8433 50.6386 26.274 50.6386 26.8051L50.6386 33.1093C50.6386 33.6405 50.2529 34.0711 49.7772 34.0711Z" fill="#666666" fill-opacity="0.63"/>
<path d="M60.1419 34.0711L54.4951 34.0711C54.0194 34.0711 53.6337 33.6405 53.6337 33.1093L53.6337 26.8051C53.6337 26.274 54.0194 25.8434 54.4951 25.8434L60.1419 25.8433C60.6177 25.8433 61.0034 26.274 61.0034 26.8051L61.0034 33.1093C61.0034 33.6405 60.6177 34.0711 60.1419 34.0711Z" fill="#666666" fill-opacity="0.63"/>
<path d="M44.1304 14.3808L49.7772 14.3808C50.253 14.3808 50.6387 14.8114 50.6387 15.3426L50.6387 21.6468C50.6387 22.178 50.253 22.6086 49.7772 22.6086L44.1304 22.6086C43.6547 22.6086 43.269 22.178 43.269 21.6468L43.269 15.3426C43.269 14.8114 43.6547 14.3808 44.1304 14.3808Z" fill="#666666" fill-opacity="0.63"/>
<path d="M33.7927 14.3808L39.4394 14.3808C39.9152 14.3808 40.3009 14.8114 40.3009 15.3426L40.3009 21.6468C40.3009 22.178 39.9152 22.6086 39.4394 22.6086L33.7927 22.6086C33.3169 22.6086 32.9312 22.178 32.9312 21.6468L32.9312 15.3426C32.9312 14.8114 33.3169 14.3808 33.7927 14.3808Z" fill="#666666" fill-opacity="0.63"/>
<path d="M29.1084 14.3808L23.6164 14.3808C23.0578 14.3808 22.6001 14.888 22.6001 15.5154L22.6001 21.4777C22.6001 22.1014 23.0544 22.6123 23.6164 22.6123L29.1084 22.6123C29.5829 22.6123 29.9698 22.1803 29.9698 21.6506L29.9698 15.3463C29.9698 14.8166 29.5829 14.3846 29.1084 14.3846L29.1084 14.3808Z" fill="#666666" fill-opacity="0.63"/>
<path d="M13.1204 14.3808L18.7672 14.3808C19.243 14.3808 19.6287 14.8114 19.6287 15.3426L19.6287 21.6468C19.6287 22.178 19.243 22.6086 18.7672 22.6086L13.1204 22.6086C12.6446 22.6086 12.2589 22.178 12.2589 21.6468L12.2589 15.3426C12.2589 14.8114 12.6446 14.3808 13.1204 14.3808Z" fill="#666666" fill-opacity="0.63"/>
<path d="M18.7671 11.1423L13.1204 11.1423C12.6446 11.1423 12.2589 10.7117 12.2589 10.1805L12.2589 3.87631C12.2589 3.34513 12.6446 2.91451 13.1204 2.91451L18.7671 2.91451C19.2429 2.91451 19.6286 3.34512 19.6286 3.8763L19.6286 10.1805C19.6286 10.7117 19.2429 11.1423 18.7671 11.1423Z" fill="#666666" fill-opacity="0.63"/>
<path d="M39.436 11.1423L33.7892 11.1423C33.3134 11.1423 32.9277 10.7117 32.9277 10.1805L32.9277 3.87631C32.9277 3.34513 33.3134 2.91451 33.7892 2.91451L39.436 2.91451C39.9117 2.91451 40.2974 3.34512 40.2974 3.8763L40.2974 10.1805C40.2974 10.7117 39.9117 11.1423 39.436 11.1423Z" fill="#666666" fill-opacity="0.63"/>
<path d="M49.7772 11.1423L44.1304 11.1423C43.6546 11.1423 43.2689 10.7117 43.2689 10.1805L43.2689 3.87631C43.2689 3.34513 43.6546 2.91451 44.1304 2.91451L49.7771 2.91451C50.2529 2.91451 50.6386 3.34512 50.6386 3.8763L50.6386 10.1805C50.6386 10.7117 50.2529 11.1423 49.7772 11.1423Z" fill="#666666" fill-opacity="0.63"/>
<path d="M60.1419 11.1423L54.4951 11.1423C54.0194 11.1423 53.6337 10.7117 53.6337 10.1805L53.6337 3.87631C53.6337 3.34513 54.0194 2.91451 54.4951 2.91451L60.1419 2.91451C60.6177 2.91451 61.0034 3.34512 61.0034 3.8763L61.0034 10.1805C61.0034 10.7117 60.6177 11.1423 60.1419 11.1423Z" fill="#666666" fill-opacity="0.63"/>
</g>
</g>
<rect x="0.05" y="0.05" width="324.9" height="219.9" stroke="#E2FF6F" stroke-width="0.1"/>
<defs>
<linearGradient id="paint0_linear_14_36" x1="140.39" y1="308.461" x2="-34.6269" y2="111.44" gradientUnits="userSpaceOnUse">
<stop stop-color="#87922F" stop-opacity="0.1"/>
<stop offset="1" stop-color="white" stop-opacity="0"/>
</linearGradient>
<clipPath id="clip0_14_36">
<rect width="325" height="220" fill="white"/>
</clipPath>
<clipPath id="clip1_14_36">
<rect width="111" height="111" fill="white" transform="matrix(1 -2.04031e-07 -1.49835e-07 -1 255 69)"/>
</clipPath>
<clipPath id="clip2_14_36">
<rect width="111" height="111" fill="white" transform="matrix(1 -2.04031e-07 -1.49835e-07 -1 -50 57)"/>
</clipPath>
</defs>
</svg>
