<svg width="229" height="186" viewBox="0 0 229 186" fill="none" xmlns="http://www.w3.org/2000/svg">
<mask id="mask0_18_35" style="mask-type:alpha" maskUnits="userSpaceOnUse" x="-1" y="0" width="230" height="186">
<path d="M-2.89316e-09 185.591L227.927 185.625L228.092 111.553L228.064 1.79545L2.16639 1.00005L-2.89316e-09 185.591Z" fill="white" stroke="#919191" stroke-width="0.5"/>
</mask>
<g mask="url(#mask0_18_35)">
<path opacity="0.5" d="M261.223 -20.0962C256.262 -7.1995 250.81 6.40075 240.846 13.9984C229.669 22.5219 213.945 22.5391 205.755 35.0638C199.318 44.9031 200.063 58.8251 196.81 70.7295C191.851 88.8992 177.121 101.7 161.468 104.897C150.414 107.143 138.399 105.369 128.61 111.98C111.283 123.668 110.256 154.535 95.3854 170.424C82.4508 184.238 63.0783 182.987 45.8607 180.926M266.446 -11.0526C260.492 2.75071 253.967 17.1091 243.076 25.6122C231.673 34.5165 215.771 35.0201 206.965 46.4417C200.08 55.3529 199.904 67.7057 196.143 78.8718C190.453 95.7685 175.796 108.507 160.627 112.426C149.58 115.277 138.067 115.182 128.622 122.277C112.491 134.409 111.113 163.394 97.2259 179.248C84.6056 193.638 65.5423 194.17 48.0843 192.868M271.669 -2.01651C264.72 12.7005 257.119 27.8094 245.308 37.2295C233.675 46.4997 217.648 47.4947 208.173 57.8265C200.86 65.7967 199.759 76.5656 195.477 87.0066C189.083 102.608 174.462 115.35 159.771 119.964C148.72 123.444 137.771 124.943 128.621 132.587C113.689 145.072 111.972 172.311 99.0468 188.091C86.7235 203.142 68.0131 205.386 50.2857 204.826M276.877 7.04318C268.925 22.6551 260.254 38.5403 247.528 48.8598C235.658 58.488 219.513 59.9824 209.37 69.2172C201.642 76.2586 199.616 85.429 194.794 95.1649C187.717 109.45 173.11 122.244 158.895 127.529C147.837 131.642 138.244 136.107 128.579 142.94C113.619 153.505 112.814 181.32 100.833 196.978C88.8515 212.636 70.4351 216.619 52.452 216.821M282.119 16.0666C273.176 32.5961 263.427 49.2065 249.77 60.4674C237.665 70.4465 221.425 72.4495 210.583 80.5989C202.451 86.7128 199.512 94.2675 194.128 103.307C186.406 116.27 171.769 129.155 158.039 135.075C146.953 139.861 138.234 146.199 128.568 153.267C114.434 163.597 113.692 190.359 102.648 205.828C90.9309 222.234 72.9031 227.839 54.6442 228.789M287.342 25.1099C277.405 42.546 266.576 59.8958 252.002 72.0848C239.653 82.4104 223.326 84.9263 211.804 91.9705C203.281 97.165 199.441 103.084 193.471 111.432C185.149 123.079 170.445 136.089 157.195 142.607C146.105 148.063 138.238 156.155 128.571 163.574C115.286 173.751 114.643 199.396 104.483 214.684C93.0799 231.814 75.3748 239.04 56.8603 240.752M292.568 34.1498C281.637 52.4853 269.72 70.5772 254.228 83.7016C241.638 94.3704 225.26 97.4497 213.02 103.341C204.12 107.629 198.51 110.948 192.798 119.581C185.115 131.233 169.104 143.072 156.332 150.159C145.23 156.319 138.219 166.033 128.55 173.904C116.161 184.023 115.579 208.509 106.283 223.529C95.2092 241.42 77.8243 250.258 59.0403 252.712M297.788 43.1896C285.847 62.4554 272.862 81.2551 256.464 95.3159C243.624 106.323 227.2 109.974 214.226 114.73C204.944 118.135 198.479 119.616 192.138 127.716C183.873 138.276 167.785 150.068 155.489 157.691C144.383 164.575 136.29 173.269 128.545 184.199C119.319 197.257 116.565 217.618 108.102 232.354C97.3834 251.035 80.2889 261.434 61.2457 264.661M303.014 52.2296C290.086 72.3881 276 91.9289 258.696 106.933C245.61 118.276 229.139 122.52 215.434 126.115C205.795 128.64 199.354 129.645 191.471 135.858C181.569 143.668 166.459 157.117 154.608 165.227C143.505 172.86 135.93 182.808 128.522 194.525C120.328 207.491 117.551 226.793 109.907 241.214C99.5616 260.718 82.7379 272.659 63.4225 276.624M308.237 61.2729C294.315 82.338 279.139 102.603 260.912 118.567C247.577 130.242 231.067 135.104 216.631 137.506C206.62 139.172 199.352 138.566 190.786 144.013C180.422 150.6 165.151 164.168 153.75 172.802C142.658 181.203 135.556 192.341 128.509 204.881C121.306 217.704 118.586 236.02 111.72 250.093C101.782 270.446 85.1895 283.895 65.6126 288.621M313.474 70.303C298.554 92.2779 282.285 113.255 263.164 130.158C249.588 142.175 233.029 147.673 217.86 148.864C207.48 149.681 199.396 147.486 190.143 152.132C179.306 157.568 163.883 171.212 152.913 180.327C141.849 189.52 135.158 201.785 128.518 215.181C122.254 227.819 119.668 245.211 113.557 258.927C104.074 280.154 87.6743 295.091 67.8307 300.563M318.684 79.3521C302.771 102.234 285.409 123.931 265.387 141.785C251.969 153.731 235.74 160.202 219.063 160.255C208.304 160.233 199.409 156.484 189.464 160.28C178.153 164.579 162.595 178.316 152.047 187.882C141.021 197.882 134.654 211.238 128.498 225.511C123.126 237.953 120.753 254.452 115.362 267.787C110.963 278.78 104.626 288.481 96.7939 296.211C88.9616 303.942 79.8236 309.515 70.0189 312.541M323.911 88.3923C307 112.184 288.539 134.593 267.619 153.402C253.531 166.071 236.874 172.906 220.275 171.637C209.134 170.787 199.422 165.511 188.797 168.422C177.021 171.65 160.758 184.638 151.191 195.428C140.841 207.108 134.108 220.64 128.485 235.835C123.96 248.066 121.874 263.69 117.174 276.64C108.792 299.739 92.5803 317.519 72.2107 324.51M329.133 97.4356C311.229 122.133 291.666 145.252 269.851 165.02C255.511 178.016 238.792 185.533 221.48 183.018C209.957 181.34 199.423 174.561 188.128 176.56C175.858 178.733 159.615 191.921 150.334 202.973C139.966 215.317 133.469 230.036 128.474 246.154C124.758 258.175 123.027 272.935 118.991 285.494C111.257 309.551 95.039 328.735 74.4153 336.465M334.359 106.476C315.449 132.072 294.777 155.847 272.08 176.64C257.466 189.926 240.698 198.166 222.693 194.399C210.772 191.903 199.411 183.64 187.461 184.702C174.67 185.828 158.849 199.634 149.477 210.526C138.675 223.036 132.743 239.436 128.469 256.489C125.498 268.337 124.213 282.179 120.821 294.342C113.825 319.376 97.507 339.947 76.6189 348.434M339.582 115.519C319.711 142.116 297.862 166.462 274.31 188.254C259.451 201.886 242.598 210.806 223.902 205.777C211.586 202.466 199.385 192.739 186.794 192.844C173.474 192.958 157.633 206.752 148.615 218.064C137.943 231.454 131.904 248.832 128.45 266.805C126.201 278.538 125.413 291.395 122.62 303.201C116.459 329.214 99.9573 351.157 78.7924 360.408M344.793 124.568C323.887 152.007 301.047 177.207 276.529 199.884C261.424 213.859 244.479 223.465 225.098 217.175C212.378 213.045 199.329 201.857 186.123 201.011C172.249 200.111 156.424 213.895 147.756 225.637C137.215 239.894 130.976 258.3 128.438 277.154C126.875 288.763 126.643 300.629 124.429 312.083C119.218 339.07 102.412 362.397 80.9858 372.402" stroke="url(#paint0_linear_18_35)" stroke-opacity="0.25" stroke-width="1.65164" stroke-miterlimit="10"/>
</g>
<defs>
<linearGradient id="paint0_linear_18_35" x1="184.453" y1="213.675" x2="105.245" y2="115.073" gradientUnits="userSpaceOnUse">
<stop stop-color="white"/>
<stop offset="1" stop-color="white" stop-opacity="0"/>
</linearGradient>
</defs>
</svg>
