<svg width="156" height="120" viewBox="0 0 156 120" fill="none" xmlns="http://www.w3.org/2000/svg">
<path d="M57.1572 36.9127L75.5505 47.3814L119.83 34.7221L96.9616 59.5566L115.693 70.2036L145.95 32.7099L123.29 19.8214L57.1572 36.9127Z" fill="black" fill-opacity="0.2"/>
<path d="M7.7793 53.2907L115.407 90.708L128.181 79.0167L24.6376 43.7644L7.7793 53.2907Z" fill="black" fill-opacity="0.2"/>
<path d="M31.7399 68.4462L1.30127 105.838L23.9611 118.727L87.3359 102.425L71.8564 91.2684L27.5773 103.928L50.4453 79.0932L31.7399 68.4462Z" fill="black" fill-opacity="0.2"/>
<ellipse cx="17.6243" cy="106.293" rx="1.07498" ry="0.996018" fill="#0B7030"/>
<path d="M88.9233 19.1538L89.0079 52.5404L101.01 59.3489L100.925 25.8803L88.9233 19.1538Z" fill="#14AB4C"/>
<path d="M100.925 25.8807L101.01 59.3493L129.916 51.1462L129.831 17.7596L100.925 25.8807Z" fill="#0B7030"/>
<path d="M88.9233 19.1544L100.925 25.8809L129.831 17.7598L114.871 33.8379L127.127 40.7285L146.904 16.4473L132.113 8.0802L88.9233 19.1544Z" fill="#75EF81"/>
<path d="M114.872 33.8378L114.957 67.2243L127.212 74.1149L127.128 40.7284L114.872 33.8378Z" fill="#14AB4C"/>
<path d="M127.126 40.7283L127.211 74.1148L146.989 49.8337L146.904 16.4471L127.126 40.7283Z" fill="url(#paint0_linear_4238_40465)"/>
<path d="M41.6758 40.0721L112.419 58.9392L123.407 52.7869L52.6634 33.9198L41.6758 40.0721Z" fill="#75EF81"/>
<path d="M41.6768 40.0723L41.7613 73.5409L112.505 92.3259L112.42 58.9394L41.6768 40.0723Z" fill="#14AB4C"/>
<path d="M112.419 58.9392L112.504 92.3257L123.492 86.1734L123.407 52.7869L112.419 58.9392Z" fill="url(#paint1_linear_4238_40465)"/>
<path d="M42.8594 71.8999L42.9439 105.369L57.904 89.2085L57.8195 55.8219L42.8594 71.8999Z" fill="#0B7030"/>
<path d="M45.5649 48.9316L25.7026 73.1307L40.4937 81.4979L83.7682 70.5058L71.7663 63.6972L42.8603 71.9003L57.8204 55.8222L45.5649 48.9316Z" fill="#75EF81"/>
<path d="M25.7026 73.1311L25.7872 106.6L40.5782 114.885L40.4937 81.4982L25.7026 73.1311Z" fill="#14AB4C"/>
<path d="M40.4946 81.498L40.5791 114.885L83.9381 103.892L83.7691 70.5059L40.4946 81.498Z" fill="url(#paint2_linear_4238_40465)"/>
<path d="M142.454 15.3885C142.454 15.3885 139.655 22.3467 139.453 24.0813C139.251 25.8159 137.678 28.9228 142.223 31.4008C142.223 31.4008 147.534 34.0469 149.038 34.3985C149.038 34.3985 143.365 32.2976 141.756 32.1044C140.147 31.9113 137.004 31.1243 134.063 37.3209L131.144 44.1652C131.144 44.1652 133.884 36.8716 134.178 35.3577C134.472 33.8439 135.817 30.3172 130.993 27.9211L124.938 25.2759C124.938 25.2759 129.853 27.2819 132.934 27.5947C136.015 27.9076 138.698 24.7529 142.454 15.3885Z" fill="white" stroke="white" stroke-width="0.103171" stroke-miterlimit="10"/>
<path d="M50.9373 80.1731C50.9373 80.1731 46.1432 80.9768 45.1114 81.4407C44.0796 81.9047 41.8324 82.0915 41.9506 85.3245C41.9506 85.3245 42.2277 89.0205 42.5275 89.9362C42.5275 89.9362 41.8277 86.2272 41.4053 85.3082C40.9828 84.3891 40.3854 82.4586 35.9682 82.9357L31.198 83.6383C31.198 83.6383 36.1594 82.6928 37.0987 82.3504C38.0379 82.0081 40.4436 81.5616 40.1878 78.207L39.6653 74.116C39.6653 74.116 40.1679 77.3901 41.0088 79.1317C41.8497 80.8732 44.4891 81.2607 50.9373 80.1731Z" fill="white" stroke="white" stroke-width="0.103171" stroke-miterlimit="10"/>
<ellipse cx="145.678" cy="9.25068" rx="1.31105" ry="1.17024" fill="#14AB4C"/>
<ellipse cx="97.1167" cy="1.99202" rx="2.14993" ry="1.99202" fill="#0B7030"/>
<ellipse cx="89.6774" cy="93.5727" rx="0.754025" ry="0.735508" fill="#14AB4C"/>
<ellipse cx="22.389" cy="49.7166" rx="1.18632" ry="1.17024" fill="#14AB4C"/>
<ellipse cx="142.416" cy="91.6024" rx="2.54695" ry="2.27339" fill="#D8FF35"/>
<ellipse cx="72.8049" cy="20.5063" rx="1.67894" ry="1.49861" fill="#D5FA39"/>
<defs>
<linearGradient id="paint0_linear_4238_40465" x1="137.143" y1="18.0161" x2="123.718" y2="71.1504" gradientUnits="userSpaceOnUse">
<stop offset="0.4267" stop-color="#D4F938"/>
<stop offset="1" stop-color="#32D875" stop-opacity="0.96"/>
</linearGradient>
<linearGradient id="paint1_linear_4238_40465" x1="118.003" y1="53.8626" x2="107.02" y2="89.2056" gradientUnits="userSpaceOnUse">
<stop offset="0.4267" stop-color="#D4F938"/>
<stop offset="1" stop-color="#32D875" stop-opacity="0.96"/>
</linearGradient>
<linearGradient id="paint2_linear_4238_40465" x1="62.4026" y1="71.7133" x2="58.5658" y2="114.873" gradientUnits="userSpaceOnUse">
<stop offset="0.4267" stop-color="#D4F938"/>
<stop offset="1" stop-color="#32D875" stop-opacity="0.96"/>
</linearGradient>
</defs>
</svg>
