<svg width="105" height="80" viewBox="0 0 105 80" fill="none" xmlns="http://www.w3.org/2000/svg">
<path d="M38.6045 24.6083L50.8667 31.5874L80.3861 23.1479L65.1408 39.7043L77.6284 46.8023L97.7995 21.8064L82.6929 13.2141L38.6045 24.6083Z" fill="black" fill-opacity="0.2"/>
<path d="M5.68555 35.527L77.4376 60.4719L85.9534 52.6777L16.9244 29.1761L5.68555 35.527Z" fill="black" fill-opacity="0.2"/>
<path d="M21.6596 45.6307L1.36719 70.5587L16.4738 79.151L58.7237 68.2833L48.404 60.8456L18.8846 69.2851L34.1299 52.7288L21.6596 45.6307Z" fill="black" fill-opacity="0.2"/>
<ellipse cx="12.2489" cy="70.8618" rx="0.716653" ry="0.664013" fill="#0B7030"/>
<path d="M59.7822 12.7693L59.8386 35.027L67.8399 39.5661L67.7835 17.2536L59.7822 12.7693Z" fill="#14AB4C"/>
<path d="M67.7832 17.2538L67.8396 39.5662L87.1102 34.0975L87.0539 11.8397L67.7832 17.2538Z" fill="#0B7030"/>
<path d="M59.7822 12.7694L67.7835 17.2538L87.0542 11.8397L77.0808 22.5584L85.2511 27.1522L98.4363 10.9647L88.5756 5.3866L59.7822 12.7694Z" fill="#75EF81"/>
<path d="M77.0811 22.5583L77.1374 44.8161L85.3077 49.4098L85.2514 27.1521L77.0811 22.5583Z" fill="#14AB4C"/>
<path d="M85.251 27.1523L85.3073 49.4101L98.4925 33.2226L98.4362 10.9648L85.251 27.1523Z" fill="url(#paint0_linear_4238_37188)"/>
<path d="M28.2837 26.715L75.4462 39.293L82.7713 35.1915L35.6088 22.6134L28.2837 26.715Z" fill="#75EF81"/>
<path d="M28.2842 26.715L28.3405 49.0274L75.503 61.5508L75.4467 39.2931L28.2842 26.715Z" fill="#14AB4C"/>
<path d="M75.4463 39.2931L75.5026 61.5508L82.8278 57.4493L82.7714 35.1915L75.4463 39.2931Z" fill="url(#paint1_linear_4238_37188)"/>
<path d="M29.0728 47.9334L29.1291 70.2459L39.1025 59.4725L39.0462 37.2147L29.0728 47.9334Z" fill="#0B7030"/>
<path d="M30.8763 32.6211L17.6348 48.7539L27.4955 54.332L56.3452 47.0039L48.3439 42.4648L29.0732 47.9335L39.0467 37.2148L30.8763 32.6211Z" fill="#75EF81"/>
<path d="M17.6348 48.7542L17.6911 71.0666L27.5518 76.59L27.4955 54.3323L17.6348 48.7542Z" fill="#14AB4C"/>
<path d="M27.4961 54.3319L27.5524 76.5896L56.4585 69.2615L56.3458 47.0038L27.4961 54.3319Z" fill="url(#paint2_linear_4238_37188)"/>
<path d="M95.4694 10.2592C95.4694 10.2592 93.6034 14.8979 93.4687 16.0543C93.334 17.2107 92.2851 19.282 95.3151 20.934C95.3151 20.934 98.8559 22.6981 99.8587 22.9325C99.8587 22.9325 96.0764 21.5319 95.0039 21.4031C93.9314 21.2743 91.8361 20.7497 89.8751 24.8807L87.9293 29.4436C87.9293 29.4436 89.7561 24.5812 89.9521 23.572C90.1481 22.5627 91.0448 20.2116 87.8286 18.6142L83.7921 16.8507C83.7921 16.8507 87.0685 18.188 89.1227 18.3966C91.177 18.6052 92.9657 16.5021 95.4694 10.2592Z" fill="white" stroke="white" stroke-width="0.103171" stroke-miterlimit="10"/>
<path d="M34.4579 53.4487C34.4579 53.4487 31.2618 53.9845 30.5739 54.2938C29.8861 54.6031 28.3879 54.7277 28.4667 56.883C28.4667 56.883 28.6514 59.347 28.8514 59.9575C28.8514 59.9575 28.3848 57.4848 28.1032 56.8721C27.8215 56.2594 27.4233 54.9724 24.4785 55.2905L21.2983 55.7589C21.2983 55.7589 24.6059 55.1285 25.2321 54.9003C25.8583 54.672 27.462 54.3744 27.2915 52.138L26.9432 49.4107C26.9432 49.4107 27.2783 51.5934 27.8389 52.7544C28.3995 53.9155 30.1591 54.1738 34.4579 53.4487Z" fill="white" stroke="white" stroke-width="0.103171" stroke-miterlimit="10"/>
<ellipse cx="97.6187" cy="6.167" rx="0.874035" ry="0.780158" fill="#14AB4C"/>
<ellipse cx="65.2443" cy="1.32801" rx="1.43329" ry="1.32801" fill="#0B7030"/>
<ellipse cx="60.2849" cy="62.3818" rx="0.502684" ry="0.490339" fill="#14AB4C"/>
<ellipse cx="15.4256" cy="33.1444" rx="0.790881" ry="0.780158" fill="#14AB4C"/>
<ellipse cx="95.4441" cy="61.0683" rx="1.69797" ry="1.5156" fill="#D8FF35"/>
<ellipse cx="49.0363" cy="13.6708" rx="1.1193" ry="0.999077" fill="#D5FA39"/>
<defs>
<linearGradient id="paint0_linear_4238_37188" x1="91.9285" y1="12.0108" x2="82.9784" y2="47.4337" gradientUnits="userSpaceOnUse">
<stop offset="0.4267" stop-color="#D4F938"/>
<stop offset="1" stop-color="#32D875" stop-opacity="0.96"/>
</linearGradient>
<linearGradient id="paint1_linear_4238_37188" x1="79.1687" y1="35.9087" x2="71.8464" y2="59.4708" gradientUnits="userSpaceOnUse">
<stop offset="0.4267" stop-color="#D4F938"/>
<stop offset="1" stop-color="#32D875" stop-opacity="0.96"/>
</linearGradient>
<linearGradient id="paint2_linear_4238_37188" x1="42.1014" y1="47.8087" x2="39.5436" y2="76.5816" gradientUnits="userSpaceOnUse">
<stop offset="0.4267" stop-color="#D4F938"/>
<stop offset="1" stop-color="#32D875" stop-opacity="0.96"/>
</linearGradient>
</defs>
</svg>
