<svg width="244" height="182" viewBox="0 0 244 182" fill="none" xmlns="http://www.w3.org/2000/svg">
<g opacity="0.15" clip-path="url(#clip0_113_30716)">
<path d="M239.388 -1.09961L245.101 -1.09961C245.582 -1.09961 245.973 -0.687539 245.973 -0.179224L245.973 5.85362C245.973 6.36193 245.582 6.774 245.101 6.774L239.388 6.774C238.907 6.774 238.517 6.36193 238.517 5.85362L238.517 -0.179223C238.517 -0.687539 238.907 -1.09961 239.388 -1.09961Z" fill="#383840" style="mix-blend-mode:multiply"/>
<path d="M228.903 -1.09961L234.615 -1.09961C235.096 -1.09961 235.487 -0.687539 235.487 -0.179224L235.487 5.85362C235.487 6.36193 235.096 6.774 234.615 6.774L228.903 6.774C228.421 6.774 228.031 6.36193 228.031 5.85362L228.031 -0.179223C228.031 -0.687539 228.421 -1.09961 228.903 -1.09961Z" fill="#383840" style="mix-blend-mode:multiply"/>
<path d="M245.1 17.7437L239.388 17.7437C238.907 17.7437 238.516 17.3316 238.516 16.8233L238.516 10.7904C238.516 10.2821 238.907 9.87003 239.388 9.87003L245.1 9.87003C245.582 9.87003 245.972 10.2821 245.972 10.7904L245.972 16.8233C245.972 17.3316 245.582 17.7437 245.1 17.7437Z" fill="#383840" style="mix-blend-mode:multiply"/>
</g>
<g opacity="0.15" clip-path="url(#clip1_113_30716)">
<path d="M238.641 20.5127L244.354 20.5127C244.835 20.5127 245.225 20.9248 245.225 21.4331L245.225 27.4659C245.225 27.9742 244.835 28.3863 244.354 28.3863L238.641 28.3863C238.16 28.3863 237.77 27.9742 237.77 27.4659L237.77 21.4331C237.77 20.9248 238.16 20.5127 238.641 20.5127Z" fill="#383840" style="mix-blend-mode:multiply"/>
<path d="M228.156 20.5127L233.869 20.5127C234.35 20.5127 234.74 20.9248 234.74 21.4331L234.74 27.4659C234.74 27.9742 234.35 28.3863 233.869 28.3863L228.156 28.3863C227.675 28.3863 227.285 27.9742 227.285 27.4659L227.285 21.4331C227.285 20.9248 227.675 20.5127 228.156 20.5127Z" fill="#383840" style="mix-blend-mode:multiply"/>
<path d="M233.872 39.356L228.16 39.356C227.678 39.356 227.288 38.9439 227.288 38.4356L227.288 32.4027C227.288 31.8944 227.678 31.4823 228.16 31.4823L233.872 31.4823C234.354 31.4823 234.744 31.8944 234.744 32.4027L234.744 38.4356C234.744 38.9439 234.354 39.356 233.872 39.356Z" fill="#383840" style="mix-blend-mode:multiply"/>
<path d="M244.354 39.356L238.641 39.356C238.16 39.356 237.77 38.9439 237.77 38.4356L237.77 32.4027C237.77 31.8944 238.16 31.4823 238.641 31.4823L244.354 31.4823C244.835 31.4823 245.225 31.8944 245.225 32.4027L245.225 38.4356C245.225 38.9439 244.835 39.356 244.354 39.356Z" fill="#383840" style="mix-blend-mode:multiply"/>
<path d="M238.641 42.4546L244.354 42.4546C244.835 42.4546 245.225 42.8667 245.225 43.375L245.225 49.4078C245.225 49.9161 244.835 50.3282 244.354 50.3282L238.641 50.3282C238.16 50.3282 237.77 49.9161 237.77 49.4078L237.77 43.375C237.77 42.8667 238.16 42.4546 238.641 42.4546Z" fill="#383840" style="mix-blend-mode:multiply"/>
<path d="M228.156 42.4546L233.869 42.4546C234.35 42.4546 234.74 42.8667 234.74 43.375L234.74 49.4078C234.74 49.9161 234.35 50.3282 233.869 50.3282L228.156 50.3282C227.675 50.3282 227.285 49.9161 227.285 49.4078L227.285 43.375C227.285 42.8667 227.675 42.4546 228.156 42.4546Z" fill="#383840" style="mix-blend-mode:multiply"/>
<path d="M244.354 61.2969L238.641 61.2969C238.16 61.2969 237.77 60.8848 237.77 60.3765L237.77 54.3436C237.77 53.8353 238.16 53.4233 238.641 53.4233L244.354 53.4233C244.835 53.4233 245.225 53.8353 245.225 54.3436L245.225 60.3765C245.225 60.8848 244.835 61.2969 244.354 61.2969Z" fill="#383840" style="mix-blend-mode:multiply"/>
<path d="M238.641 64.397L244.354 64.397C244.835 64.397 245.225 64.809 245.225 65.3174L245.225 71.3502C245.225 71.8585 244.835 72.2706 244.354 72.2706L238.641 72.2706C238.16 72.2706 237.77 71.8585 237.77 71.3502L237.77 65.3174C237.77 64.809 238.16 64.397 238.641 64.397Z" fill="#383840" style="mix-blend-mode:multiply"/>
<path d="M228.156 64.397L233.869 64.397C234.35 64.397 234.74 64.809 234.74 65.3174L234.74 71.3502C234.74 71.8585 234.35 72.2706 233.869 72.2706L228.156 72.2706C227.675 72.2706 227.285 71.8585 227.285 71.3502L227.285 65.3174C227.285 64.809 227.675 64.397 228.156 64.397Z" fill="#383840" style="mix-blend-mode:multiply"/>
</g>
<g opacity="0.15" clip-path="url(#clip2_113_30716)">
<path d="M211.297 139.363L217.009 139.363C217.491 139.363 217.881 138.951 217.881 138.442L217.881 132.41C217.881 131.901 217.491 131.489 217.009 131.489L211.297 131.489C210.816 131.489 210.425 131.901 210.425 132.41L210.425 138.442C210.425 138.951 210.816 139.363 211.297 139.363Z" fill="#383840" style="mix-blend-mode:multiply"/>
<path d="M206.551 139.363L200.995 139.363C200.427 139.363 199.967 138.877 199.967 138.277L199.967 132.571C199.967 131.975 200.427 131.486 200.995 131.486L206.551 131.486C207.031 131.486 207.423 131.899 207.423 132.406L207.423 138.442C207.423 138.949 207.031 139.363 206.551 139.363Z" fill="#383840" style="mix-blend-mode:multiply"/>
<path d="M190.384 139.363L196.096 139.363C196.578 139.363 196.968 138.951 196.968 138.442L196.968 132.41C196.968 131.901 196.578 131.489 196.096 131.489L190.384 131.489C189.902 131.489 189.512 131.901 189.512 132.41L189.512 138.442C189.512 138.951 189.902 139.363 190.384 139.363Z" fill="#383840" style="mix-blend-mode:multiply"/>
<path d="M179.926 139.363L185.638 139.363C186.12 139.363 186.51 138.951 186.51 138.442L186.51 132.41C186.51 131.901 186.12 131.489 185.638 131.489L179.926 131.489C179.445 131.489 179.054 131.901 179.054 132.41L179.054 138.442C179.054 138.951 179.445 139.363 179.926 139.363Z" fill="#383840" style="mix-blend-mode:multiply"/>
<path d="M175.156 120.52L169.444 120.52C168.962 120.52 168.572 120.932 168.572 121.44L168.572 127.473C168.572 127.981 168.962 128.393 169.444 128.393L175.156 128.393C175.637 128.393 176.028 127.981 176.028 127.473L176.028 121.44C176.028 120.932 175.637 120.52 175.156 120.52Z" fill="#383840" style="mix-blend-mode:multiply"/>
<path d="M158.982 139.363L164.695 139.363C165.176 139.363 165.566 138.951 165.566 138.442L165.566 132.41C165.566 131.901 165.176 131.489 164.695 131.489L158.982 131.489C158.501 131.489 158.111 131.901 158.111 132.41L158.111 138.442C158.111 138.951 158.501 139.363 158.982 139.363Z" fill="#383840" style="mix-blend-mode:multiply"/>
<path d="M164.695 120.52L158.982 120.52C158.501 120.52 158.111 120.932 158.111 121.44L158.111 127.473C158.111 127.981 158.501 128.393 158.982 128.393L164.695 128.393C165.176 128.393 165.566 127.981 165.566 127.473L165.566 121.44C165.566 120.932 165.176 120.52 164.695 120.52Z" fill="#383840" style="mix-blend-mode:multiply"/>
<path d="M196.1 120.52L190.387 120.52C189.906 120.52 189.516 120.932 189.516 121.44L189.516 127.473C189.516 127.981 189.906 128.393 190.387 128.393L196.1 128.393C196.581 128.393 196.971 127.981 196.971 127.473L196.971 121.44C196.971 120.932 196.581 120.52 196.1 120.52Z" fill="#383840" style="mix-blend-mode:multiply"/>
<path d="M200.836 120.52L206.391 120.52C206.957 120.52 207.42 121.005 207.42 121.605L207.42 127.311C207.42 127.908 206.96 128.397 206.391 128.397L200.836 128.397C200.356 128.397 199.964 127.983 199.964 127.476L199.964 121.444C199.964 120.937 200.356 120.523 200.836 120.523L200.836 120.52Z" fill="#383840" style="mix-blend-mode:multiply"/>
<path d="M211.453 117.421L216.853 117.421C217.421 117.421 217.881 116.935 217.881 116.335L217.881 110.633C217.881 110.033 217.421 109.547 216.853 109.547L211.453 109.547C210.886 109.547 210.425 110.033 210.425 110.633L210.425 116.335C210.425 116.935 210.886 117.421 211.453 117.421Z" fill="#383840" style="mix-blend-mode:multiply"/>
<path d="M158.982 117.421L164.695 117.421C165.176 117.421 165.566 117.009 165.566 116.501L165.566 110.468C165.566 109.959 165.176 109.547 164.695 109.547L158.982 109.547C158.501 109.547 158.111 109.959 158.111 110.468L158.111 116.501C158.111 117.009 158.501 117.421 158.982 117.421Z" fill="#383840" style="mix-blend-mode:multiply"/>
<path d="M175.156 98.5786L169.444 98.5786C168.962 98.5786 168.572 98.9907 168.572 99.499L168.572 105.532C168.572 106.04 168.962 106.452 169.444 106.452L175.156 106.452C175.637 106.452 176.028 106.04 176.028 105.532L176.028 99.499C176.028 98.9907 175.637 98.5786 175.156 98.5786Z" fill="#383840" style="mix-blend-mode:multiply"/>
<path d="M185.638 98.5786L179.926 98.5786C179.445 98.5786 179.054 98.9907 179.054 99.499L179.054 105.532C179.054 106.04 179.445 106.452 179.926 106.452L185.638 106.452C186.12 106.452 186.51 106.04 186.51 105.532L186.51 99.499C186.51 98.9907 186.12 98.5786 185.638 98.5786Z" fill="#383840" style="mix-blend-mode:multiply"/>
<path d="M211.297 95.4785L217.009 95.4785C217.491 95.4785 217.881 95.0664 217.881 94.5581L217.881 88.5253C217.881 88.017 217.491 87.6049 217.009 87.6049L211.297 87.6049C210.816 87.6049 210.425 88.017 210.425 88.5253L210.425 94.5581C210.425 95.0664 210.816 95.4785 211.297 95.4785Z" fill="#383840" style="mix-blend-mode:multiply"/>
<path d="M206.394 95.4788L200.839 95.4788C200.358 95.4788 199.967 95.0654 199.967 94.5584L199.967 88.5256C199.967 88.0187 200.358 87.6052 200.839 87.6052L206.394 87.6052C206.96 87.6052 207.423 88.0906 207.423 88.691L207.423 94.3967C207.423 94.9935 206.963 95.4824 206.394 95.4824L206.394 95.4788Z" fill="#383840" style="mix-blend-mode:multiply"/>
<path d="M169.44 95.4785L175.152 95.4785C175.634 95.4785 176.024 95.0664 176.024 94.5581L176.024 88.5253C176.024 88.017 175.634 87.6049 175.152 87.6049L169.44 87.6049C168.959 87.6049 168.568 88.017 168.568 88.5253L168.568 94.5581C168.568 95.0664 168.959 95.4785 169.44 95.4785Z" fill="#383840" style="mix-blend-mode:multiply"/>
<path d="M158.982 95.4785L164.695 95.4785C165.176 95.4785 165.566 95.0664 165.566 94.5581L165.566 88.5253C165.566 88.017 165.176 87.6049 164.695 87.6049L158.982 87.6049C158.501 87.6049 158.111 88.017 158.111 88.5253L158.111 94.5581C158.111 95.0664 158.501 95.4785 158.982 95.4785Z" fill="#383840" style="mix-blend-mode:multiply"/>
<path d="M185.638 76.6328L179.926 76.6328C179.445 76.6328 179.054 77.0449 179.054 77.5532L179.054 83.586C179.054 84.0944 179.445 84.5064 179.926 84.5064L185.638 84.5064C186.12 84.5064 186.51 84.0944 186.51 83.586L186.51 77.5532C186.51 77.0449 186.12 76.6328 185.638 76.6328Z" fill="#383840" style="mix-blend-mode:multiply"/>
<path d="M196.1 76.6328L190.387 76.6328C189.906 76.6328 189.516 77.0449 189.516 77.5532L189.516 83.586C189.516 84.0944 189.906 84.5064 190.387 84.5064L196.1 84.5064C196.581 84.5064 196.971 84.0944 196.971 83.586L196.971 77.5532C196.971 77.0449 196.581 76.6328 196.1 76.6328Z" fill="#383840" style="mix-blend-mode:multiply"/>
<path d="M164.695 76.6328L158.982 76.6328C158.501 76.6328 158.111 77.0449 158.111 77.5532L158.111 83.586C158.111 84.0944 158.501 84.5064 158.982 84.5064L164.695 84.5064C165.176 84.5064 165.566 84.0944 165.566 83.586L165.566 77.5532C165.566 77.0449 165.176 76.6328 164.695 76.6328Z" fill="#383840" style="mix-blend-mode:multiply"/>
<path d="M116.941 139.363L122.654 139.363C123.135 139.363 123.525 138.951 123.525 138.442L123.525 132.41C123.525 131.901 123.135 131.489 122.654 131.489L116.941 131.489C116.46 131.489 116.07 131.901 116.07 132.41L116.07 138.442C116.07 138.951 116.46 139.363 116.941 139.363Z" fill="#383840" style="mix-blend-mode:multiply"/>
<path d="M106.456 139.363L112.168 139.363C112.65 139.363 113.04 138.951 113.04 138.442L113.04 132.41C113.04 131.901 112.65 131.489 112.168 131.489L106.456 131.489C105.975 131.489 105.584 131.901 105.584 132.41L105.584 138.442C105.584 138.951 105.975 139.363 106.456 139.363Z" fill="#383840" style="mix-blend-mode:multiply"/>
<path d="M112.172 120.52L106.459 120.52C105.978 120.52 105.588 120.932 105.588 121.44L105.588 127.473C105.588 127.981 105.978 128.393 106.459 128.393L112.172 128.393C112.653 128.393 113.044 127.981 113.044 127.473L113.044 121.44C113.044 120.932 112.653 120.52 112.172 120.52Z" fill="#383840" style="mix-blend-mode:multiply"/>
<path d="M148.469 117.421L153.869 117.421C154.436 117.421 154.897 116.935 154.897 116.335L154.897 110.633C154.897 110.033 154.436 109.547 153.869 109.547L148.469 109.547C147.902 109.547 147.441 110.033 147.441 110.633L147.441 116.335C147.441 116.935 147.902 117.421 148.469 117.421Z" fill="#383840" style="mix-blend-mode:multiply"/>
<path d="M116.941 117.421L122.654 117.421C123.135 117.421 123.525 117.009 123.525 116.501L123.525 110.468C123.525 109.959 123.135 109.547 122.654 109.547L116.941 109.547C116.46 109.547 116.07 109.959 116.07 110.468L116.07 116.501C116.07 117.009 116.46 117.421 116.941 117.421Z" fill="#383840" style="mix-blend-mode:multiply"/>
<path d="M106.456 117.421L112.168 117.421C112.65 117.421 113.04 117.009 113.04 116.501L113.04 110.468C113.04 109.959 112.65 109.547 112.168 109.547L106.456 109.547C105.975 109.547 105.584 109.959 105.584 110.468L105.584 116.501C105.584 117.009 105.975 117.421 106.456 117.421Z" fill="#383840" style="mix-blend-mode:multiply"/>
<path d="M122.654 98.5786L116.941 98.5786C116.46 98.5786 116.07 98.9907 116.07 99.499L116.07 105.532C116.07 106.04 116.46 106.452 116.941 106.452L122.654 106.452C123.135 106.452 123.525 106.04 123.525 105.532L123.525 99.499C123.525 98.9907 123.135 98.5786 122.654 98.5786Z" fill="#383840" style="mix-blend-mode:multiply"/>
<path d="M137.851 98.5786L143.407 98.5786C143.972 98.5786 144.435 99.064 144.435 99.6644L144.435 105.37C144.435 105.967 143.976 106.456 143.407 106.456L137.851 106.456C137.371 106.456 136.98 106.042 136.98 105.535L136.98 99.5026C136.98 98.9957 137.371 98.5822 137.851 98.5822L137.851 98.5786Z" fill="#383840" style="mix-blend-mode:multiply"/>
<path d="M154.025 98.5786L148.313 98.5786C147.831 98.5786 147.441 98.9907 147.441 99.499L147.441 105.532C147.441 106.04 147.831 106.452 148.313 106.452L154.025 106.452C154.507 106.452 154.897 106.04 154.897 105.532L154.897 99.499C154.897 98.9907 154.507 98.5786 154.025 98.5786Z" fill="#383840" style="mix-blend-mode:multiply"/>
<path d="M148.313 95.4785L154.025 95.4785C154.507 95.4785 154.897 95.0664 154.897 94.5581L154.897 88.5253C154.897 88.017 154.507 87.6049 154.025 87.6049L148.313 87.6049C147.831 87.6049 147.441 88.017 147.441 88.5253L147.441 94.5581C147.441 95.0664 147.831 95.4785 148.313 95.4785Z" fill="#383840" style="mix-blend-mode:multiply"/>
<path d="M127.403 95.4785L133.116 95.4785C133.597 95.4785 133.987 95.0664 133.987 94.5581L133.987 88.5253C133.987 88.017 133.597 87.6049 133.116 87.6049L127.403 87.6049C126.922 87.6049 126.532 88.017 126.532 88.5253L126.532 94.5581C126.532 95.0664 126.922 95.4785 127.403 95.4785Z" fill="#383840" style="mix-blend-mode:multiply"/>
<path d="M116.941 95.4785L122.654 95.4785C123.135 95.4785 123.525 95.0664 123.525 94.5581L123.525 88.5253C123.525 88.017 123.135 87.6049 122.654 87.6049L116.941 87.6049C116.46 87.6049 116.07 88.017 116.07 88.5253L116.07 94.5581C116.07 95.0664 116.46 95.4785 116.941 95.4785Z" fill="#383840" style="mix-blend-mode:multiply"/>
<path d="M106.456 95.4785L112.168 95.4785C112.65 95.4785 113.04 95.0664 113.04 94.5581L113.04 88.5253C113.04 88.017 112.65 87.6049 112.168 87.6049L106.456 87.6049C105.975 87.6049 105.584 88.017 105.584 88.5253L105.584 94.5581C105.584 95.0664 105.975 95.4785 106.456 95.4785Z" fill="#383840" style="mix-blend-mode:multiply"/>
<path d="M122.654 76.6328L116.941 76.6328C116.46 76.6328 116.07 77.0449 116.07 77.5532L116.07 83.586C116.07 84.0944 116.46 84.5064 116.941 84.5064L122.654 84.5064C123.135 84.5064 123.525 84.0944 123.525 83.586L123.525 77.5532C123.525 77.0449 123.135 76.6328 122.654 76.6328Z" fill="#383840" style="mix-blend-mode:multiply"/>
<path d="M133.112 76.6328L127.4 76.6328C126.918 76.6328 126.528 77.0449 126.528 77.5532L126.528 83.586C126.528 84.0944 126.918 84.5064 127.4 84.5064L133.112 84.5064C133.593 84.5064 133.984 84.0944 133.984 83.586L133.984 77.5532C133.984 77.0449 133.593 76.6328 133.112 76.6328Z" fill="#383840" style="mix-blend-mode:multiply"/>
<path d="M137.851 76.6328L143.407 76.6328C143.972 76.6328 144.435 77.1182 144.435 77.7186L144.435 83.4243C144.435 84.0211 143.976 84.51 143.407 84.51L137.851 84.51C137.371 84.51 136.98 84.0966 136.98 83.5896L136.98 77.5568C136.98 77.0499 137.371 76.6364 137.851 76.6364L137.851 76.6328Z" fill="#383840" style="mix-blend-mode:multiply"/>
<path d="M154.025 76.6328L148.313 76.6328C147.831 76.6328 147.441 77.0449 147.441 77.5532L147.441 83.586C147.441 84.0944 147.831 84.5064 148.313 84.5064L154.025 84.5064C154.507 84.5064 154.897 84.0944 154.897 83.586L154.897 77.5532C154.897 77.0449 154.507 76.6328 154.025 76.6328Z" fill="#383840" style="mix-blend-mode:multiply"/>
<path d="M206.551 73.9287L200.995 73.9287C200.43 73.9287 199.967 73.4433 199.967 72.8429L199.967 67.1373C199.967 66.5405 200.427 66.0515 200.995 66.0515L206.551 66.0515C207.031 66.0515 207.423 66.465 207.423 66.9719L207.423 73.0047C207.423 73.5117 207.031 73.9251 206.551 73.9251L206.551 73.9287Z" fill="#383840" style="mix-blend-mode:multiply"/>
<path d="M190.384 73.9287L196.096 73.9287C196.578 73.9287 196.968 73.5166 196.968 73.0083L196.968 66.9755C196.968 66.4672 196.578 66.0551 196.096 66.0551L190.384 66.0551C189.902 66.0551 189.512 66.4672 189.512 66.9755L189.512 73.0083C189.512 73.5166 189.902 73.9287 190.384 73.9287Z" fill="#383840" style="mix-blend-mode:multiply"/>
<path d="M179.926 73.9287L185.638 73.9287C186.12 73.9287 186.51 73.5166 186.51 73.0083L186.51 66.9755C186.51 66.4672 186.12 66.0551 185.638 66.0551L179.926 66.0551C179.445 66.0551 179.054 66.4672 179.054 66.9755L179.054 73.0083C179.054 73.5166 179.445 73.9287 179.926 73.9287Z" fill="#383840" style="mix-blend-mode:multiply"/>
<path d="M169.44 73.9287L175.152 73.9287C175.634 73.9287 176.024 73.5166 176.024 73.0083L176.024 66.9755C176.024 66.4672 175.634 66.0551 175.152 66.0551L169.44 66.0551C168.959 66.0551 168.568 66.4672 168.568 66.9755L168.568 73.0083C168.568 73.5166 168.959 73.9287 169.44 73.9287Z" fill="#383840" style="mix-blend-mode:multiply"/>
<path d="M175.156 55.0864L169.444 55.0864C168.962 55.0864 168.572 55.4985 168.572 56.0068L168.572 62.0397C168.572 62.548 168.962 62.96 169.444 62.96L175.156 62.96C175.637 62.96 176.028 62.548 176.028 62.0397L176.028 56.0068C176.028 55.4985 175.637 55.0864 175.156 55.0864Z" fill="#383840" style="mix-blend-mode:multiply"/>
<path d="M158.982 73.9287L164.695 73.9287C165.176 73.9287 165.566 73.5166 165.566 73.0083L165.566 66.9755C165.566 66.4672 165.176 66.0551 164.695 66.0551L158.982 66.0551C158.501 66.0551 158.111 66.4672 158.111 66.9755L158.111 73.0083C158.111 73.5166 158.501 73.9287 158.982 73.9287Z" fill="#383840" style="mix-blend-mode:multiply"/>
<path d="M164.695 55.0864L158.982 55.0864C158.501 55.0864 158.111 55.4985 158.111 56.0068L158.111 62.0397C158.111 62.548 158.501 62.96 158.982 62.96L164.695 62.96C165.176 62.96 165.566 62.548 165.566 62.0397L165.566 56.0068C165.566 55.4985 165.176 55.0864 164.695 55.0864Z" fill="#383840" style="mix-blend-mode:multiply"/>
<path d="M185.638 55.0864L179.926 55.0864C179.445 55.0864 179.054 55.4985 179.054 56.0068L179.054 62.0397C179.054 62.548 179.445 62.96 179.926 62.96L185.638 62.96C186.12 62.96 186.51 62.548 186.51 62.0397L186.51 56.0068C186.51 55.4985 186.12 55.0864 185.638 55.0864Z" fill="#383840" style="mix-blend-mode:multiply"/>
<path d="M196.1 55.0864L190.387 55.0864C189.906 55.0864 189.516 55.4985 189.516 56.0068L189.516 62.0397C189.516 62.548 189.906 62.96 190.387 62.96L196.1 62.96C196.581 62.96 196.971 62.548 196.971 62.0397L196.971 56.0068C196.971 55.4985 196.581 55.0864 196.1 55.0864Z" fill="#383840" style="mix-blend-mode:multiply"/>
<path d="M200.836 55.0864L206.391 55.0864C206.957 55.0864 207.42 55.5718 207.42 56.1722L207.42 61.8779C207.42 62.4747 206.96 62.9636 206.391 62.9636L200.836 62.9636C200.356 62.9636 199.964 62.5502 199.964 62.0432L199.964 56.0104C199.964 55.5035 200.356 55.09 200.836 55.09L200.836 55.0864Z" fill="#383840" style="mix-blend-mode:multiply"/>
<path d="M217.009 55.0864L211.297 55.0864C210.816 55.0864 210.425 55.4985 210.425 56.0068L210.425 62.0397C210.425 62.548 210.816 62.96 211.297 62.96L217.009 62.96C217.491 62.96 217.881 62.548 217.881 62.0397L217.881 56.0068C217.881 55.4985 217.491 55.0864 217.009 55.0864Z" fill="#383840" style="mix-blend-mode:multiply"/>
<path d="M211.453 51.9878L216.853 51.9878C217.421 51.9878 217.881 51.5017 217.881 50.902L217.881 45.1999C217.881 44.6003 217.421 44.1142 216.853 44.1142L211.453 44.1142C210.886 44.1142 210.425 44.6003 210.425 45.1999L210.425 50.902C210.425 51.5017 210.886 51.9878 211.453 51.9878Z" fill="#383840" style="mix-blend-mode:multiply"/>
<path d="M179.926 51.9878L185.638 51.9878C186.12 51.9878 186.51 51.5757 186.51 51.0674L186.51 45.0346C186.51 44.5263 186.12 44.1142 185.638 44.1142L179.926 44.1142C179.445 44.1142 179.054 44.5262 179.054 45.0346L179.054 51.0674C179.054 51.5757 179.445 51.9878 179.926 51.9878Z" fill="#383840" style="mix-blend-mode:multiply"/>
<path d="M169.44 51.9878L175.152 51.9878C175.634 51.9878 176.024 51.5757 176.024 51.0674L176.024 45.0346C176.024 44.5263 175.634 44.1142 175.152 44.1142L169.44 44.1142C168.959 44.1142 168.568 44.5262 168.568 45.0346L168.568 51.0674C168.568 51.5757 168.959 51.9878 169.44 51.9878Z" fill="#383840" style="mix-blend-mode:multiply"/>
<path d="M158.982 51.9878L164.695 51.9878C165.176 51.9878 165.566 51.5757 165.566 51.0674L165.566 45.0346C165.566 44.5263 165.176 44.1142 164.695 44.1142L158.982 44.1142C158.501 44.1142 158.111 44.5262 158.111 45.0346L158.111 51.0674C158.111 51.5757 158.501 51.9878 158.982 51.9878Z" fill="#383840" style="mix-blend-mode:multiply"/>
<path d="M175.156 33.1445L169.444 33.1445C168.962 33.1445 168.572 33.5566 168.572 34.0649L168.572 40.0978C168.572 40.6061 168.962 41.0182 169.444 41.0182L175.156 41.0182C175.637 41.0182 176.028 40.6061 176.028 40.0978L176.028 34.0649C176.028 33.5566 175.637 33.1445 175.156 33.1445Z" fill="#383840" style="mix-blend-mode:multiply"/>
<path d="M185.638 33.1445L179.926 33.1445C179.445 33.1445 179.054 33.5566 179.054 34.0649L179.054 40.0978C179.054 40.6061 179.445 41.0182 179.926 41.0182L185.638 41.0182C186.12 41.0182 186.51 40.6061 186.51 40.0978L186.51 34.0649C186.51 33.5566 186.12 33.1445 185.638 33.1445Z" fill="#383840" style="mix-blend-mode:multiply"/>
<path d="M196.1 33.1445L190.387 33.1445C189.906 33.1445 189.516 33.5566 189.516 34.0649L189.516 40.0978C189.516 40.6061 189.906 41.0182 190.387 41.0182L196.1 41.0182C196.581 41.0182 196.971 40.6061 196.971 40.0978L196.971 34.0649C196.971 33.5566 196.581 33.1445 196.1 33.1445Z" fill="#383840" style="mix-blend-mode:multiply"/>
<path d="M200.836 33.1445L206.391 33.1445C206.957 33.1445 207.42 33.6299 207.42 34.2303L207.42 39.936C207.42 40.5328 206.96 41.0217 206.391 41.0217L200.836 41.0217C200.356 41.0217 199.964 40.6083 199.964 40.1014L199.964 34.0685C199.964 33.5616 200.356 33.1481 200.836 33.1481L200.836 33.1445Z" fill="#383840" style="mix-blend-mode:multiply"/>
<path d="M217.009 33.1445L211.297 33.1445C210.816 33.1445 210.425 33.5566 210.425 34.0649L210.425 40.0978C210.425 40.6061 210.816 41.0182 211.297 41.0182L217.009 41.0182C217.491 41.0182 217.881 40.6061 217.881 40.0978L217.881 34.0649C217.881 33.5566 217.491 33.1445 217.009 33.1445Z" fill="#383840" style="mix-blend-mode:multiply"/>
<path d="M148.313 73.9287L154.025 73.9287C154.507 73.9287 154.897 73.5166 154.897 73.0083L154.897 66.9755C154.897 66.4672 154.507 66.0551 154.025 66.0551L148.313 66.0551C147.831 66.0551 147.441 66.4672 147.441 66.9755L147.441 73.0083C147.441 73.5166 147.831 73.9287 148.313 73.9287Z" fill="#383840" style="mix-blend-mode:multiply"/>
<path d="M143.567 73.9287L138.011 73.9287C137.446 73.9287 136.983 73.4433 136.983 72.8429L136.983 67.1373C136.983 66.5405 137.442 66.0515 138.011 66.0515L143.567 66.0515C144.047 66.0515 144.438 66.465 144.438 66.9719L144.438 73.0047C144.438 73.5117 144.047 73.9251 143.567 73.9251L143.567 73.9287Z" fill="#383840" style="mix-blend-mode:multiply"/>
<path d="M127.403 73.9287L133.116 73.9287C133.597 73.9287 133.987 73.5166 133.987 73.0083L133.987 66.9755C133.987 66.4672 133.597 66.0551 133.116 66.0551L127.403 66.0551C126.922 66.0551 126.532 66.4672 126.532 66.9755L126.532 73.0083C126.532 73.5166 126.922 73.9287 127.403 73.9287Z" fill="#383840" style="mix-blend-mode:multiply"/>
<path d="M116.941 73.9287L122.654 73.9287C123.135 73.9287 123.525 73.5166 123.525 73.0083L123.525 66.9755C123.525 66.4672 123.135 66.0551 122.654 66.0551L116.941 66.0551C116.46 66.0551 116.07 66.4672 116.07 66.9755L116.07 73.0083C116.07 73.5166 116.46 73.9287 116.941 73.9287Z" fill="#383840" style="mix-blend-mode:multiply"/>
<path d="M112.172 55.0864L106.459 55.0864C105.978 55.0864 105.588 55.4985 105.588 56.0068L105.588 62.0397C105.588 62.548 105.978 62.96 106.459 62.96L112.172 62.96C112.653 62.96 113.044 62.548 113.044 62.0397L113.044 56.0068C113.044 55.4985 112.653 55.0864 112.172 55.0864Z" fill="#383840" style="mix-blend-mode:multiply"/>
<path d="M122.654 55.0864L116.941 55.0864C116.46 55.0864 116.07 55.4985 116.07 56.0068L116.07 62.0397C116.07 62.548 116.46 62.96 116.941 62.96L122.654 62.96C123.135 62.96 123.525 62.548 123.525 62.0397L123.525 56.0068C123.525 55.4985 123.135 55.0864 122.654 55.0864Z" fill="#383840" style="mix-blend-mode:multiply"/>
<path d="M137.851 55.0864L143.407 55.0864C143.972 55.0864 144.435 55.5718 144.435 56.1722L144.435 61.8779C144.435 62.4747 143.976 62.9636 143.407 62.9636L137.851 62.9636C137.371 62.9636 136.98 62.5502 136.98 62.0432L136.98 56.0104C136.98 55.5035 137.371 55.09 137.851 55.09L137.851 55.0864Z" fill="#383840" style="mix-blend-mode:multiply"/>
<path d="M148.469 51.9878L153.869 51.9878C154.436 51.9878 154.897 51.5017 154.897 50.902L154.897 45.1999C154.897 44.6003 154.436 44.1142 153.869 44.1142L148.469 44.1142C147.902 44.1142 147.441 44.6003 147.441 45.1999L147.441 50.902C147.441 51.5017 147.902 51.9878 148.469 51.9878Z" fill="#383840" style="mix-blend-mode:multiply"/>
<path d="M143.41 51.9876L137.854 51.9876C137.374 51.9876 136.983 51.5742 136.983 51.0672L136.983 45.0344C136.983 44.5275 137.374 44.114 137.854 44.114L143.41 44.114C143.975 44.114 144.438 44.5994 144.438 45.1998L144.438 50.9054C144.438 51.5023 143.979 51.9912 143.41 51.9912L143.41 51.9876Z" fill="#383840" style="mix-blend-mode:multiply"/>
<path d="M127.403 51.9878L133.116 51.9878C133.597 51.9878 133.987 51.5757 133.987 51.0674L133.987 45.0346C133.987 44.5263 133.597 44.1142 133.116 44.1142L127.403 44.1142C126.922 44.1142 126.532 44.5262 126.532 45.0346L126.532 51.0674C126.532 51.5757 126.922 51.9878 127.403 51.9878Z" fill="#383840" style="mix-blend-mode:multiply"/>
<path d="M116.942 51.9878L122.654 51.9878C123.136 51.9878 123.526 51.5757 123.526 51.0674L123.526 45.0346C123.526 44.5263 123.136 44.1142 122.654 44.1142L116.942 44.1142C116.46 44.1142 116.07 44.5262 116.07 45.0346L116.07 51.0674C116.07 51.5757 116.46 51.9878 116.942 51.9878Z" fill="#383840" style="mix-blend-mode:multiply"/>
<path d="M106.456 51.9878L112.168 51.9878C112.65 51.9878 113.04 51.5757 113.04 51.0674L113.04 45.0346C113.04 44.5263 112.65 44.1142 112.168 44.1142L106.456 44.1142C105.975 44.1142 105.584 44.5262 105.584 45.0346L105.584 51.0674C105.584 51.5757 105.975 51.9878 106.456 51.9878Z" fill="#383840" style="mix-blend-mode:multiply"/>
<path d="M122.654 33.1445L116.941 33.1445C116.46 33.1445 116.07 33.5566 116.07 34.0649L116.07 40.0978C116.07 40.6061 116.46 41.0182 116.941 41.0182L122.654 41.0182C123.135 41.0182 123.525 40.6061 123.525 40.0978L123.525 34.0649C123.525 33.5566 123.135 33.1445 122.654 33.1445Z" fill="#383840" style="mix-blend-mode:multiply"/>
<path d="M133.112 33.1445L127.4 33.1445C126.918 33.1445 126.528 33.5566 126.528 34.0649L126.528 40.0978C126.528 40.6061 126.918 41.0182 127.4 41.0182L133.112 41.0182C133.593 41.0182 133.984 40.6061 133.984 40.0978L133.984 34.0649C133.984 33.5566 133.593 33.1445 133.112 33.1445Z" fill="#383840" style="mix-blend-mode:multiply"/>
<path d="M137.851 33.1445L143.407 33.1445C143.972 33.1445 144.435 33.6299 144.435 34.2303L144.435 39.936C144.435 40.5328 143.976 41.0217 143.407 41.0217L137.851 41.0217C137.371 41.0217 136.98 40.6083 136.98 40.1014L136.98 34.0685C136.98 33.5616 137.371 33.1481 137.851 33.1481L137.851 33.1445Z" fill="#383840" style="mix-blend-mode:multiply"/>
<path d="M154.025 33.1445L148.313 33.1445C147.831 33.1445 147.441 33.5566 147.441 34.0649L147.441 40.0978C147.441 40.6061 147.831 41.0182 148.313 41.0182L154.025 41.0182C154.507 41.0182 154.897 40.6061 154.897 40.0978L154.897 34.0649C154.897 33.5566 154.507 33.1445 154.025 33.1445Z" fill="#383840" style="mix-blend-mode:multiply"/>
</g>
<g opacity="0.15" clip-path="url(#clip3_113_30716)">
<path d="M210.55 30.3755L216.263 30.3755C216.744 30.3755 217.134 29.9634 217.134 29.4551L217.134 23.4223C217.134 22.9139 216.744 22.5019 216.263 22.5019L210.55 22.5019C210.069 22.5019 209.679 22.9139 209.679 23.4223L209.679 29.4551C209.679 29.9634 210.069 30.3755 210.55 30.3755Z" fill="#383840" style="mix-blend-mode:multiply"/>
<path d="M205.805 30.3755L200.249 30.3755C199.68 30.3755 199.221 29.8901 199.221 29.2897L199.221 23.584C199.221 22.9872 199.68 22.4983 200.249 22.4983L205.805 22.4983C206.285 22.4983 206.676 22.9117 206.676 23.4187L206.676 29.4551C206.676 29.962 206.285 30.3755 205.805 30.3755Z" fill="#383840" style="mix-blend-mode:multiply"/>
<path d="M189.637 30.3755L195.35 30.3755C195.831 30.3755 196.221 29.9634 196.221 29.4551L196.221 23.4223C196.221 22.9139 195.831 22.5019 195.35 22.5019L189.637 22.5019C189.156 22.5019 188.766 22.9139 188.766 23.4223L188.766 29.4551C188.766 29.9634 189.156 30.3755 189.637 30.3755Z" fill="#383840" style="mix-blend-mode:multiply"/>
<path d="M179.18 30.3755L184.892 30.3755C185.373 30.3755 185.764 29.9634 185.764 29.4551L185.764 23.4223C185.764 22.9139 185.373 22.5019 184.892 22.5019L179.18 22.5019C178.698 22.5019 178.308 22.9139 178.308 23.4223L178.308 29.4551C178.308 29.9634 178.698 30.3755 179.18 30.3755Z" fill="#383840" style="mix-blend-mode:multiply"/>
<path d="M174.41 11.5322L168.697 11.5322C168.216 11.5322 167.826 11.9443 167.826 12.4526L167.826 18.4855C167.826 18.9938 168.216 19.4058 168.697 19.4058L174.41 19.4058C174.891 19.4058 175.281 18.9938 175.281 18.4855L175.281 12.4526C175.281 11.9443 174.891 11.5322 174.41 11.5322Z" fill="#383840" style="mix-blend-mode:multiply"/>
<path d="M158.236 30.3755L163.948 30.3755C164.43 30.3755 164.82 29.9634 164.82 29.4551L164.82 23.4223C164.82 22.9139 164.43 22.5019 163.948 22.5019L158.236 22.5019C157.754 22.5019 157.364 22.9139 157.364 23.4223L157.364 29.4551C157.364 29.9634 157.754 30.3755 158.236 30.3755Z" fill="#383840" style="mix-blend-mode:multiply"/>
<path d="M163.948 11.5322L158.236 11.5322C157.754 11.5322 157.364 11.9443 157.364 12.4526L157.364 18.4855C157.364 18.9938 157.754 19.4058 158.236 19.4058L163.948 19.4058C164.43 19.4058 164.82 18.9938 164.82 18.4855L164.82 12.4526C164.82 11.9443 164.43 11.5322 163.948 11.5322Z" fill="#383840" style="mix-blend-mode:multiply"/>
<path d="M195.353 11.5322L189.641 11.5322C189.16 11.5322 188.769 11.9443 188.769 12.4526L188.769 18.4855C188.769 18.9938 189.16 19.4058 189.641 19.4058L195.353 19.4058C195.835 19.4058 196.225 18.9938 196.225 18.4855L196.225 12.4526C196.225 11.9443 195.835 11.5322 195.353 11.5322Z" fill="#383840" style="mix-blend-mode:multiply"/>
<path d="M200.089 11.5322L205.645 11.5322C206.21 11.5322 206.673 12.0176 206.673 12.618L206.673 18.3237C206.673 18.9205 206.214 19.4094 205.645 19.4094L200.089 19.4094C199.609 19.4094 199.218 18.996 199.218 18.4891L199.218 12.4562C199.218 11.9493 199.609 11.5358 200.089 11.5358L200.089 11.5322Z" fill="#383840" style="mix-blend-mode:multiply"/>
<path d="M210.707 8.43359L216.106 8.43359C216.674 8.43359 217.134 7.94748 217.134 7.34782L217.134 1.64574C217.134 1.04609 216.674 0.559978 216.106 0.559978L210.707 0.559976C210.139 0.559976 209.679 1.04609 209.679 1.64574L209.679 7.34782C209.679 7.94748 210.139 8.43359 210.707 8.43359Z" fill="#383840" style="mix-blend-mode:multiply"/>
<path d="M205.648 8.43342L200.092 8.43342C199.612 8.43342 199.221 8.01996 199.221 7.51303L199.221 1.48018C199.221 0.973253 199.612 0.5598 200.092 0.5598L205.648 0.559801C206.213 0.559801 206.676 1.04516 206.676 1.64557L206.676 7.35124C206.676 7.94806 206.217 8.43701 205.648 8.43701L205.648 8.43342Z" fill="#383840" style="mix-blend-mode:multiply"/>
<path d="M189.637 8.43359L195.35 8.43359C195.831 8.43359 196.221 8.02152 196.221 7.51321L196.221 1.48036C196.221 0.972048 195.831 0.559978 195.35 0.559978L189.637 0.559976C189.156 0.559976 188.766 0.972046 188.766 1.48036L188.766 7.51321C188.766 8.02152 189.156 8.43359 189.637 8.43359Z" fill="#383840" style="mix-blend-mode:multiply"/>
<path d="M179.18 8.43359L184.892 8.43359C185.373 8.43359 185.764 8.02152 185.764 7.51321L185.764 1.48036C185.764 0.972048 185.373 0.559978 184.892 0.559978L179.18 0.559976C178.698 0.559976 178.308 0.972046 178.308 1.48036L178.308 7.51321C178.308 8.02152 178.698 8.43359 179.18 8.43359Z" fill="#383840" style="mix-blend-mode:multiply"/>
<path d="M158.236 8.43359L163.948 8.43359C164.43 8.43359 164.82 8.02152 164.82 7.51321L164.82 1.48036C164.82 0.972048 164.43 0.559978 163.948 0.559978L158.236 0.559976C157.754 0.559976 157.364 0.972046 157.364 1.48036L157.364 7.51321C157.364 8.02152 157.754 8.43359 158.236 8.43359Z" fill="#383840" style="mix-blend-mode:multiply"/>
<path d="M116.195 30.3755L121.907 30.3755C122.389 30.3755 122.779 29.9634 122.779 29.4551L122.779 23.4223C122.779 22.9139 122.389 22.5019 121.907 22.5019L116.195 22.5019C115.713 22.5019 115.323 22.9139 115.323 23.4223L115.323 29.4551C115.323 29.9634 115.713 30.3755 116.195 30.3755Z" fill="#383840" style="mix-blend-mode:multiply"/>
<path d="M105.709 30.3755L111.422 30.3755C111.903 30.3755 112.293 29.9634 112.293 29.4551L112.293 23.4223C112.293 22.9139 111.903 22.5019 111.422 22.5019L105.709 22.5019C105.228 22.5019 104.838 22.9139 104.838 23.4223L104.838 29.4551C104.838 29.9634 105.228 30.3755 105.709 30.3755Z" fill="#383840" style="mix-blend-mode:multiply"/>
<path d="M111.426 11.5322L105.713 11.5322C105.232 11.5322 104.842 11.9443 104.842 12.4526L104.842 18.4855C104.842 18.9938 105.232 19.4058 105.713 19.4058L111.426 19.4058C111.907 19.4058 112.297 18.9938 112.297 18.4855L112.297 12.4526C112.297 11.9443 111.907 11.5322 111.426 11.5322Z" fill="#383840" style="mix-blend-mode:multiply"/>
<path d="M121.907 11.5322L116.195 11.5322C115.713 11.5322 115.323 11.9443 115.323 12.4526L115.323 18.4855C115.323 18.9938 115.713 19.4058 116.195 19.4058L121.907 19.4058C122.389 19.4058 122.779 18.9938 122.779 18.4855L122.779 12.4526C122.779 11.9443 122.389 11.5322 121.907 11.5322Z" fill="#383840" style="mix-blend-mode:multiply"/>
<path d="M132.366 11.5322L126.653 11.5322C126.172 11.5322 125.782 11.9443 125.782 12.4526L125.782 18.4855C125.782 18.9938 126.172 19.4058 126.653 19.4058L132.366 19.4058C132.847 19.4058 133.237 18.9938 133.237 18.4855L133.237 12.4526C133.237 11.9443 132.847 11.5322 132.366 11.5322Z" fill="#383840" style="mix-blend-mode:multiply"/>
<path d="M137.105 11.5322L142.661 11.5322C143.226 11.5322 143.689 12.0176 143.689 12.618L143.689 18.3237C143.689 18.9205 143.229 19.4094 142.661 19.4094L137.105 19.4094C136.625 19.4094 136.233 18.996 136.233 18.4891L136.233 12.4562C136.233 11.9493 136.625 11.5358 137.105 11.5358L137.105 11.5322Z" fill="#383840" style="mix-blend-mode:multiply"/>
<path d="M153.279 11.5322L147.566 11.5322C147.085 11.5322 146.695 11.9443 146.695 12.4526L146.695 18.4855C146.695 18.9938 147.085 19.4058 147.566 19.4058L153.279 19.4058C153.76 19.4058 154.15 18.9938 154.15 18.4855L154.15 12.4526C154.15 11.9443 153.76 11.5322 153.279 11.5322Z" fill="#383840" style="mix-blend-mode:multiply"/>
<path d="M147.723 8.43359L153.122 8.43359C153.69 8.43359 154.15 7.94748 154.15 7.34782L154.15 1.64574C154.15 1.04609 153.69 0.559978 153.122 0.559978L147.723 0.559976C147.155 0.559976 146.695 1.04609 146.695 1.64574L146.695 7.34782C146.695 7.94748 147.155 8.43359 147.723 8.43359Z" fill="#383840" style="mix-blend-mode:multiply"/>
<path d="M126.657 8.43359L132.369 8.43359C132.851 8.43359 133.241 8.02152 133.241 7.51321L133.241 1.48036C133.241 0.972048 132.851 0.559978 132.369 0.559978L126.657 0.559976C126.175 0.559976 125.785 0.972046 125.785 1.48036L125.785 7.51321C125.785 8.02152 126.175 8.43359 126.657 8.43359Z" fill="#383840" style="mix-blend-mode:multiply"/>
<path d="M116.195 8.43359L121.907 8.43359C122.389 8.43359 122.779 8.02152 122.779 7.51321L122.779 1.48036C122.779 0.972047 122.389 0.559977 121.907 0.559977L116.195 0.559976C115.713 0.559976 115.323 0.972045 115.323 1.48036L115.323 7.51321C115.323 8.02152 115.713 8.43359 116.195 8.43359Z" fill="#383840" style="mix-blend-mode:multiply"/>
<path d="M105.709 8.43359L111.422 8.43359C111.903 8.43359 112.293 8.02152 112.293 7.51321L112.293 1.48036C112.293 0.972048 111.903 0.559978 111.422 0.559978L105.709 0.559976C105.228 0.559976 104.838 0.972046 104.838 1.48036L104.838 7.51321C104.838 8.02152 105.228 8.43359 105.709 8.43359Z" fill="#383840" style="mix-blend-mode:multiply"/>
</g>
<g opacity="0.15" clip-path="url(#clip4_113_30716)">
<path d="M42.7247 9.8667L48.4373 9.8667C48.9186 9.8667 49.3088 9.45463 49.3088 8.94631L49.3088 2.91347C49.3088 2.40516 48.9186 1.99309 48.4373 1.99309L42.7247 1.99309C42.2434 1.99309 41.8532 2.40516 41.8532 2.91347L41.8532 8.94631C41.8532 9.45463 42.2434 9.8667 42.7247 9.8667Z" fill="#383840" style="mix-blend-mode:multiply"/>
<path d="M32.243 9.8667L37.9555 9.8667C38.4368 9.8667 38.827 9.45463 38.827 8.94631L38.827 2.91347C38.827 2.40516 38.4368 1.99309 37.9555 1.99309L32.243 1.99309C31.7617 1.99309 31.3715 2.40516 31.3715 2.91347L31.3715 8.94631C31.3715 9.45463 31.7617 9.8667 32.243 9.8667Z" fill="#383840" style="mix-blend-mode:multiply"/>
<path d="M6.58398 12.9668L0.871456 12.9668C0.390131 12.9668 -6.10978e-05 13.3789 -6.11752e-05 13.8872L-6.20929e-05 19.92C-6.21702e-05 20.4283 0.390129 20.8404 0.871455 20.8404L6.58398 20.8404C7.06531 20.8404 7.4555 20.4283 7.4555 19.92L7.4555 13.8872C7.4555 13.3789 7.06531 12.9668 6.58398 12.9668Z" fill="#383840" style="mix-blend-mode:multiply"/>
<path d="M11.4864 12.9665L17.0424 12.9665C17.5224 12.9665 17.9139 13.3799 17.9139 13.8869L17.9139 19.9197C17.9139 20.4266 17.5224 20.8401 17.0424 20.8401L11.4864 20.8401C10.9213 20.8401 10.4583 20.3547 10.4583 19.7543L10.4583 14.0487C10.4583 13.4518 10.9179 12.9629 11.4864 12.9629L11.4864 12.9665Z" fill="#383840" style="mix-blend-mode:multiply"/>
<path d="M48.4409 12.9668L42.7284 12.9668C42.247 12.9668 41.8568 13.3789 41.8568 13.8872L41.8568 19.92C41.8568 20.4283 42.247 20.8404 42.7284 20.8404L48.4409 20.8404C48.9222 20.8404 49.3124 20.4283 49.3124 19.92L49.3124 13.8872C49.3124 13.3789 48.9222 12.9668 48.4409 12.9668Z" fill="#383840" style="mix-blend-mode:multiply"/>
<path d="M58.8986 12.9668L53.1861 12.9668C52.7048 12.9668 52.3146 13.3789 52.3146 13.8872L52.3146 19.92C52.3146 20.4283 52.7048 20.8404 53.1861 20.8404L58.8986 20.8404C59.38 20.8404 59.7702 20.4283 59.7702 19.92L59.7702 13.8872C59.7702 13.3789 59.38 12.9668 58.8986 12.9668Z" fill="#383840" style="mix-blend-mode:multiply"/>
<path d="M32.243 31.8125L37.9555 31.8125C38.4368 31.8125 38.827 31.4004 38.827 30.8921L38.827 24.8593C38.827 24.351 38.4368 23.9389 37.9555 23.9389L32.243 23.9389C31.7617 23.9389 31.3715 24.351 31.3715 24.8593L31.3715 30.8921C31.3715 31.4004 31.7617 31.8125 32.243 31.8125Z" fill="#383840" style="mix-blend-mode:multiply"/>
<path d="M21.781 31.8125L27.4935 31.8125C27.9749 31.8125 28.3651 31.4004 28.3651 30.8921L28.3651 24.8593C28.3651 24.351 27.9749 23.9389 27.4935 23.9389L21.781 23.9389C21.2997 23.9389 20.9095 24.351 20.9095 24.8593L20.9095 30.8921C20.9095 31.4004 21.2997 31.8125 21.781 31.8125Z" fill="#383840" style="mix-blend-mode:multiply"/>
<path d="M53.1861 31.8125L58.8986 31.8125C59.38 31.8125 59.7701 31.4004 59.7701 30.8921L59.7701 24.8593C59.7701 24.351 59.38 23.9389 58.8986 23.9389L53.1861 23.9389C52.7048 23.9389 52.3146 24.351 52.3146 24.8593L52.3146 30.8921C52.3146 31.4004 52.7048 31.8125 53.1861 31.8125Z" fill="#383840" style="mix-blend-mode:multiply"/>
<path d="M80.0295 9.8667L74.4735 9.8667C73.9084 9.8667 73.4454 9.38134 73.4454 8.78093L73.4454 3.07526C73.4454 2.47844 73.905 1.98949 74.4735 1.98949L80.0295 1.98949C80.5095 1.98949 80.901 2.40294 80.901 2.90988L80.901 8.94272C80.901 9.44965 80.5095 9.86311 80.0295 9.86311L80.0295 9.8667Z" fill="#383840" style="mix-blend-mode:multiply"/>
<path d="M63.8556 9.8667L69.5681 9.8667C70.0494 9.8667 70.4396 9.45463 70.4396 8.94631L70.4396 2.91347C70.4396 2.40516 70.0494 1.99309 69.5681 1.99309L63.8556 1.99309C63.3742 1.99309 62.984 2.40516 62.984 2.91347L62.984 8.94631C62.984 9.45463 63.3742 9.8667 63.8556 9.8667Z" fill="#383840" style="mix-blend-mode:multiply"/>
<path d="M69.5681 12.9668L63.8556 12.9668C63.3743 12.9668 62.9841 13.3789 62.9841 13.8872L62.9841 19.92C62.9841 20.4283 63.3743 20.8404 63.8556 20.8404L69.5681 20.8404C70.0494 20.8404 70.4396 20.4283 70.4396 19.92L70.4396 13.8872C70.4396 13.3789 70.0494 12.9668 69.5681 12.9668Z" fill="#383840" style="mix-blend-mode:multiply"/>
<path d="M100.94 12.9668L95.2271 12.9668C94.7458 12.9668 94.3556 13.3789 94.3556 13.8872L94.3556 19.92C94.3556 20.4283 94.7458 20.8404 95.2271 20.8404L100.94 20.8404C101.421 20.8404 101.811 20.4283 101.811 19.92L101.811 13.8872C101.811 13.3789 101.421 12.9668 100.94 12.9668Z" fill="#383840" style="mix-blend-mode:multiply"/>
<path d="M111.425 12.9668L105.712 12.9668C105.231 12.9668 104.841 13.3789 104.841 13.8872L104.841 19.92C104.841 20.4283 105.231 20.8404 105.712 20.8404L111.425 20.8404C111.906 20.8404 112.297 20.4283 112.297 19.92L112.297 13.8872C112.297 13.3789 111.906 12.9668 111.425 12.9668Z" fill="#383840" style="mix-blend-mode:multiply"/>
<path d="M84.7687 31.8125L90.4812 31.8125C90.9626 31.8125 91.3528 31.4004 91.3528 30.8921L91.3528 24.8593C91.3528 24.351 90.9626 23.9389 90.4812 23.9389L84.7687 23.9389C84.2874 23.9389 83.8972 24.351 83.8972 24.8593L83.8972 30.8921C83.8972 31.4004 84.2874 31.8125 84.7687 31.8125Z" fill="#383840" style="mix-blend-mode:multiply"/>
<path d="M80.0301 31.8125L74.4741 31.8125C73.909 31.8125 73.446 31.3271 73.446 30.7267L73.446 25.0211C73.446 24.4242 73.9056 23.9353 74.4741 23.9353L80.0301 23.9353C80.5101 23.9353 80.9016 24.3487 80.9016 24.8557L80.9016 30.8885C80.9016 31.3955 80.5101 31.8089 80.0301 31.8089L80.0301 31.8125Z" fill="#383840" style="mix-blend-mode:multiply"/>
<path d="M63.8556 31.8125L69.5681 31.8125C70.0494 31.8125 70.4396 31.4004 70.4396 30.8921L70.4396 24.8593C70.4396 24.351 70.0494 23.9389 69.5681 23.9389L63.8556 23.9389C63.3742 23.9389 62.984 24.351 62.984 24.8593L62.984 30.8921C62.984 31.4004 63.3742 31.8125 63.8556 31.8125Z" fill="#383840" style="mix-blend-mode:multiply"/>
<path d="M11.3298 34.5166L16.8858 34.5166C17.4509 34.5166 17.9139 35.002 17.9139 35.6024L17.9139 41.308C17.9139 41.9049 17.4543 42.3938 16.8858 42.3938L11.3298 42.3938C10.8498 42.3938 10.4583 41.9804 10.4583 41.4734L10.4583 35.4406C10.4583 34.9337 10.8498 34.5202 11.3298 34.5202L11.3298 34.5166Z" fill="#383840" style="mix-blend-mode:multiply"/>
<path d="M27.4971 34.5166L21.7846 34.5166C21.3033 34.5166 20.9131 34.9287 20.9131 35.437L20.9131 41.4698C20.9131 41.9781 21.3033 42.3902 21.7846 42.3902L27.4971 42.3902C27.9785 42.3902 28.3686 41.9781 28.3686 41.4698L28.3686 35.437C28.3686 34.9287 27.9785 34.5166 27.4971 34.5166Z" fill="#383840" style="mix-blend-mode:multiply"/>
<path d="M37.9549 34.5166L32.2424 34.5166C31.7611 34.5166 31.3709 34.9287 31.3709 35.437L31.3709 41.4698C31.3709 41.9781 31.7611 42.3902 32.2424 42.3902L37.9549 42.3902C38.4362 42.3902 38.8264 41.9781 38.8264 41.4698L38.8264 35.437C38.8264 34.9287 38.4362 34.5166 37.9549 34.5166Z" fill="#383840" style="mix-blend-mode:multiply"/>
<path d="M48.4409 34.5166L42.7284 34.5166C42.247 34.5166 41.8568 34.9287 41.8568 35.437L41.8568 41.4698C41.8568 41.9781 42.247 42.3902 42.7284 42.3902L48.4409 42.3902C48.9222 42.3902 49.3124 41.9781 49.3124 41.4698L49.3124 35.437C49.3124 34.9287 48.9222 34.5166 48.4409 34.5166Z" fill="#383840" style="mix-blend-mode:multiply"/>
<path d="M58.8986 34.5166L53.1861 34.5166C52.7048 34.5166 52.3146 34.9287 52.3146 35.437L52.3146 41.4698C52.3146 41.9781 52.7048 42.3902 53.1861 42.3902L58.8986 42.3902C59.38 42.3902 59.7702 41.9781 59.7702 41.4698L59.7702 35.437C59.7702 34.9287 59.38 34.5166 58.8986 34.5166Z" fill="#383840" style="mix-blend-mode:multiply"/>
<path d="M53.1861 53.3589L58.8986 53.3589C59.38 53.3589 59.7701 52.9468 59.7701 52.4385L59.7701 46.4057C59.7701 45.8973 59.38 45.4853 58.8986 45.4853L53.1861 45.4853C52.7048 45.4853 52.3146 45.8973 52.3146 46.4057L52.3146 52.4385C52.3146 52.9468 52.7048 53.3589 53.1861 53.3589Z" fill="#383840" style="mix-blend-mode:multiply"/>
<path d="M32.243 53.3589L37.9555 53.3589C38.4368 53.3589 38.827 52.9468 38.827 52.4385L38.827 46.4057C38.827 45.8973 38.4368 45.4853 37.9555 45.4853L32.243 45.4853C31.7617 45.4853 31.3715 45.8973 31.3715 46.4057L31.3715 52.4385C31.3715 52.9468 31.7617 53.3589 32.243 53.3589Z" fill="#383840" style="mix-blend-mode:multiply"/>
<path d="M17.0453 53.3589L11.4894 53.3589C10.9243 53.3589 10.4613 52.8735 10.4613 52.2731L10.4613 46.5674C10.4613 45.9706 10.9209 45.4817 11.4894 45.4817L17.0453 45.4817C17.5253 45.4817 17.9168 45.8951 17.9168 46.4021L17.9168 52.4349C17.9168 52.9418 17.5253 53.3553 17.0453 53.3553L17.0453 53.3589Z" fill="#383840" style="mix-blend-mode:multiply"/>
<path d="M0.871432 53.3589L6.58396 53.3589C7.06528 53.3589 7.45547 52.9468 7.45547 52.4385L7.45548 46.4057C7.45548 45.8973 7.06528 45.4853 6.58396 45.4853L0.871434 45.4853C0.390108 45.4853 -8.3742e-05 45.8973 -8.38193e-05 46.4057L-8.4737e-05 52.4385C-8.48143e-05 52.9468 0.390107 53.3589 0.871432 53.3589Z" fill="#383840" style="mix-blend-mode:multiply"/>
<path d="M37.9549 56.4575L32.2424 56.4575C31.7611 56.4575 31.3709 56.8696 31.3709 57.3779L31.3709 63.4107C31.3709 63.9191 31.7611 64.3311 32.2424 64.3311L37.9549 64.3311C38.4362 64.3311 38.8264 63.9191 38.8264 63.4107L38.8264 57.3779C38.8264 56.8696 38.4362 56.4575 37.9549 56.4575Z" fill="#383840" style="mix-blend-mode:multiply"/>
<path d="M69.5681 34.5166L63.8556 34.5166C63.3743 34.5166 62.9841 34.9287 62.9841 35.437L62.9841 41.4698C62.9841 41.9781 63.3743 42.3902 63.8556 42.3902L69.5681 42.3902C70.0494 42.3902 70.4396 41.9781 70.4396 41.4698L70.4396 35.437C70.4396 34.9287 70.0494 34.5166 69.5681 34.5166Z" fill="#383840" style="mix-blend-mode:multiply"/>
<path d="M100.94 34.5166L95.2271 34.5166C94.7458 34.5166 94.3556 34.9287 94.3556 35.437L94.3556 41.4698C94.3556 41.9781 94.7458 42.3902 95.2271 42.3902L100.94 42.3902C101.421 42.3902 101.811 41.9781 101.811 41.4698L101.811 35.437C101.811 34.9287 101.421 34.5166 100.94 34.5166Z" fill="#383840" style="mix-blend-mode:multiply"/>
<path d="M95.2271 53.3589L100.94 53.3589C101.421 53.3589 101.811 52.9468 101.811 52.4385L101.811 46.4057C101.811 45.8973 101.421 45.4853 100.94 45.4853L95.2271 45.4853C94.7458 45.4853 94.3556 45.8973 94.3556 46.4057L94.3556 52.4385C94.3556 52.9468 94.7458 53.3589 95.2271 53.3589Z" fill="#383840" style="mix-blend-mode:multiply"/>
<path d="M80.0301 53.3589L74.4741 53.3589C73.909 53.3589 73.446 52.8735 73.446 52.2731L73.446 46.5674C73.446 45.9706 73.9056 45.4817 74.4741 45.4817L80.0301 45.4817C80.5101 45.4817 80.9016 45.8951 80.9016 46.4021L80.9016 52.4349C80.9016 52.9418 80.5101 53.3553 80.0301 53.3553L80.0301 53.3589Z" fill="#383840" style="mix-blend-mode:multiply"/>
<path d="M74.4706 56.4577L80.0265 56.4577C80.5065 56.4577 80.898 56.8712 80.898 57.3781L80.898 63.4109C80.898 63.9179 80.5065 64.3313 80.0265 64.3313L74.4706 64.3313C73.9054 64.3313 73.4424 63.846 73.4424 63.2455L73.4424 57.5399C73.4424 56.9431 73.902 56.4541 74.4706 56.4541L74.4706 56.4577Z" fill="#383840" style="mix-blend-mode:multiply"/>
<path d="M90.4777 56.4575L84.7651 56.4575C84.2838 56.4575 83.8936 56.8696 83.8936 57.3779L83.8936 63.4107C83.8936 63.9191 84.2838 64.3311 84.7651 64.3311L90.4777 64.3311C90.959 64.3311 91.3492 63.9191 91.3492 63.4107L91.3492 57.3779C91.3492 56.8696 90.959 56.4575 90.4777 56.4575Z" fill="#383840" style="mix-blend-mode:multiply"/>
<path d="M95.2271 75.3008L100.94 75.3008C101.421 75.3008 101.811 74.8887 101.811 74.3804L101.811 68.3475C101.811 67.8392 101.421 67.4272 100.94 67.4272L95.2271 67.4272C94.7458 67.4272 94.3556 67.8392 94.3556 68.3475L94.3556 74.3804C94.3556 74.8887 94.7458 75.3008 95.2271 75.3008Z" fill="#383840" style="mix-blend-mode:multiply"/>
<path d="M63.8556 75.3008L69.5681 75.3008C70.0494 75.3008 70.4396 74.8887 70.4396 74.3804L70.4396 68.3475C70.4396 67.8392 70.0494 67.4272 69.5681 67.4272L63.8556 67.4272C63.3742 67.4272 62.984 67.8392 62.984 68.3475L62.984 74.3804C62.984 74.8887 63.3742 75.3008 63.8556 75.3008Z" fill="#383840" style="mix-blend-mode:multiply"/>
</g>
<defs>
<clipPath id="clip0_113_30716">
<rect width="112.293" height="106.222" fill="white" transform="matrix(-1 1.13542e-07 6.4698e-08 1 340.327 -88.4746)"/>
</clipPath>
<clipPath id="clip1_113_30716">
<rect width="112.293" height="106.222" fill="white" transform="matrix(-1 9.60769e-08 7.91768e-08 1 339.581 20.5127)"/>
</clipPath>
<clipPath id="clip2_113_30716">
<rect width="112.293" height="106.222" fill="white" transform="translate(217.881 139.363) rotate(-180)"/>
</clipPath>
<clipPath id="clip3_113_30716">
<rect width="112.293" height="106.222" fill="white" transform="translate(217.134 30.3755) rotate(-180)"/>
</clipPath>
<clipPath id="clip4_113_30716">
<rect width="112.293" height="106.222" fill="white" transform="translate(-6.10352e-05 -30.9175)"/>
</clipPath>
</defs>
</svg>
