<svg width="20" height="21" viewBox="0 0 20 21" fill="none" xmlns="http://www.w3.org/2000/svg">
<path d="M5 9.66855C5 7.31153 5 6.13301 5.73223 5.40078C6.46447 4.66855 7.64298 4.66855 10 4.66855H12.5C14.857 4.66855 16.0355 4.66855 16.7678 5.40078C17.5 6.13301 17.5 7.31153 17.5 9.66855V13.8352C17.5 16.1922 17.5 17.3708 16.7678 18.103C16.0355 18.8352 14.857 18.8352 12.5 18.8352H10C7.64298 18.8352 6.46447 18.8352 5.73223 18.103C5 17.3708 5 16.1922 5 13.8352V9.66855Z" stroke="#EBFF25" stroke-width="1.5"/>
<path d="M5 16.3352C3.61929 16.3352 2.5 15.2159 2.5 13.8352V8.83521C2.5 5.69252 2.5 4.12117 3.47631 3.14486C4.45262 2.16855 6.02397 2.16855 9.16667 2.16855H12.5C13.8807 2.16855 15 3.28784 15 4.66855" stroke="#EBFF25" stroke-width="1.5"/>
</svg>
