<svg width="16" height="16" viewBox="0 0 16 16" fill="none" xmlns="http://www.w3.org/2000/svg">
<path fill-rule="evenodd" clip-rule="evenodd" d="M7.89688 7.54004C7.00913 7.54004 6.28955 8.25941 6.28955 9.14804C6.28955 10.0359 7.00903 10.7554 7.89688 10.7554C8.78495 10.7554 9.50488 10.0357 9.50488 9.14804C9.50488 8.25962 8.78484 7.54004 7.89688 7.54004ZM5.28955 9.14804C5.28955 7.70733 6.45664 6.54004 7.89688 6.54004C9.33692 6.54004 10.5049 7.70713 10.5049 9.14804C10.5049 10.5884 9.33682 11.7554 7.89688 11.7554C6.45674 11.7554 5.28955 10.5882 5.28955 9.14804Z" fill="#8B8B97"/>
<path fill-rule="evenodd" clip-rule="evenodd" d="M1.27948 8.93297C2.6495 6.04896 5.1238 4.24562 7.89645 4.24446C7.89734 4.24446 7.89823 4.24446 7.89912 4.24446V5.24446C7.89867 5.24446 7.89823 5.24446 7.89778 5.24446C7.89734 5.24446 7.89689 5.24446 7.89645 5.24446M7.89778 5.24446C10.2009 5.24504 12.3688 6.74338 13.6128 9.36205L13.8274 9.81369L14.7306 9.3846L14.5161 8.93297C13.1461 6.04896 10.6718 4.24562 7.89912 4.24446M7.89778 5.24446C5.59467 5.24504 3.42672 6.74338 2.18275 9.36205L1.96821 9.81369L1.06494 9.3846L1.27948 8.93297" fill="#8B8B97"/>
</svg>
