<svg width="20" height="20" viewBox="0 0 20 20" fill="none" xmlns="http://www.w3.org/2000/svg">
<path d="M14.1276 4.60976C13.0148 3.74494 11.6689 3.30593 10.2047 3.30593C6.50411 3.30593 3.50097 6.36428 3.50097 9.99391C3.50097 13.6218 6.5034 16.687 10.2047 16.687C13.4978 16.687 15.869 14.816 16.3567 12.1318L16.4852 11.4246H15.7663H10.8047V8.72475H19.2947C19.3634 9.20822 19.4 9.70807 19.4 10.2245C19.4 12.9418 18.4743 15.2279 16.8859 16.8326C15.2986 18.4363 13.0093 19.4 10.2047 19.4H10.2046C8.94149 19.4004 7.691 19.1568 6.52465 18.6836C5.35831 18.2104 4.29934 17.5169 3.40793 16.6434C2.51655 15.7699 1.8102 14.7335 1.32865 13.5938C0.847107 12.4541 0.599617 11.233 0.600001 10.0002L0.6 9.99981C0.599617 8.76701 0.847107 7.54592 1.32865 6.40621C1.8102 5.26647 2.51655 4.23008 3.40793 3.35658C4.29934 2.48306 5.35831 1.78959 6.52465 1.31637C7.691 0.843147 8.94149 0.599623 10.2046 0.600001H10.2047C12.5601 0.600001 14.5534 1.36621 16.1413 2.6365L14.1276 4.60976Z" fill="#D8D8DD" stroke="#D8D8DD" stroke-width="1.2"/>
</svg>
