<svg width="24" height="25" viewBox="0 0 24 25" fill="none" xmlns="http://www.w3.org/2000/svg">
<rect y="3.92773" width="24" height="17.1429" fill="white"/>
<path fill-rule="evenodd" clip-rule="evenodd" d="M0 9.64202H24V3.92773H0V9.64202Z" fill="#FFA44A"/>
<path fill-rule="evenodd" clip-rule="evenodd" d="M0 21.0698H24V15.3555H0V21.0698Z" fill="#1A9F0B"/>
<g clip-path="url(#clip0_1258_41982)">
<path d="M0 4.07031H24V9.73698H0V4.07031Z" fill="#FF9933"/>
<path d="M0 9.73633H24V15.403H0V9.73633Z" fill="white"/>
<path d="M0 15.4043H24V21.071H0V15.4043Z" fill="#128807"/>
<path d="M12.0016 14.838C13.327 14.838 14.4016 13.8232 14.4016 12.5714C14.4016 11.3195 13.327 10.3047 12.0016 10.3047C10.6761 10.3047 9.60156 11.3195 9.60156 12.5714C9.60156 13.8232 10.6761 14.838 12.0016 14.838Z" fill="#000088"/>
<path d="M11.9984 14.5546C13.1582 14.5546 14.0984 13.6666 14.0984 12.5712C14.0984 11.4759 13.1582 10.5879 11.9984 10.5879C10.8386 10.5879 9.89844 11.4759 9.89844 12.5712C9.89844 13.6666 10.8386 14.5546 11.9984 14.5546Z" fill="white"/>
<path d="M12.002 12.9672C12.234 12.9672 12.422 12.7896 12.422 12.5705C12.422 12.3514 12.234 12.1738 12.002 12.1738C11.7701 12.1738 11.582 12.3514 11.582 12.5705C11.582 12.7896 11.7701 12.9672 12.002 12.9672Z" fill="#000088"/>
<path d="M14.0711 12.9324C14.1302 12.9397 14.1845 12.9004 14.1922 12.8446C14.2 12.7887 14.1584 12.7375 14.0993 12.7301C14.0401 12.7228 13.9859 12.7621 13.9781 12.8179C13.9703 12.8738 14.0119 12.925 14.0711 12.9324Z" fill="#000088"/>
<path d="M12.0017 14.5555L12.0737 13.3655L12.0017 12.7988L11.9297 13.3655L12.0017 14.5555Z" fill="#000088"/>
<path d="M13.8929 13.4257C13.9475 13.4468 14.0106 13.4212 14.034 13.3686C14.0574 13.316 14.0322 13.2564 13.9777 13.2353C13.9231 13.2143 13.8599 13.2399 13.8365 13.2925C13.8132 13.345 13.8384 13.4047 13.8929 13.4257Z" fill="#000088"/>
<path d="M11.4474 14.4867L11.844 13.3529L11.9341 12.7882L11.7102 13.3194L11.4474 14.4867Z" fill="#000088"/>
<path d="M13.5935 13.8636C13.6402 13.8974 13.708 13.888 13.7449 13.8428C13.7819 13.7975 13.7739 13.7335 13.7272 13.6997C13.6805 13.666 13.6127 13.6754 13.5757 13.7206C13.5388 13.7659 13.5468 13.8299 13.5935 13.8636Z" fill="#000088"/>
<path d="M10.9454 14.2927L11.6384 13.2937L11.879 12.7693L11.5172 13.2277L10.9454 14.2927Z" fill="#000088"/>
<path d="M13.1859 14.208C13.2217 14.2522 13.2895 14.2598 13.3374 14.225C13.3852 14.1902 13.395 14.1262 13.3592 14.082C13.3234 14.0378 13.2556 14.0302 13.2078 14.0649C13.1599 14.0997 13.1502 14.1638 13.1859 14.208Z" fill="#000088"/>
<path d="M10.5071 13.973L11.4494 13.177L11.8247 12.7286L11.3499 13.083L10.5071 13.973Z" fill="#000088"/>
<path d="M12.7003 14.4446C12.7238 14.4973 12.7869 14.523 12.8414 14.5021C12.8959 14.4811 12.921 14.4214 12.8975 14.3688C12.874 14.3161 12.8108 14.2904 12.7564 14.3114C12.7019 14.3323 12.6768 14.392 12.7003 14.4446Z" fill="#000088"/>
<path d="M10.1821 13.5644L11.3088 13.0324L11.7906 12.6895L11.2345 12.9111L10.1821 13.5644Z" fill="#000088"/>
<path d="M12.1663 14.5524C12.1747 14.6089 12.229 14.6492 12.2875 14.6425C12.3459 14.6357 12.3865 14.5845 12.3781 14.528C12.3696 14.4716 12.3154 14.4312 12.2569 14.438C12.1984 14.4447 12.1578 14.4959 12.1663 14.5524Z" fill="#000088"/>
<path d="M9.97035 13.0842L11.2057 12.8479L11.7652 12.6347L11.1666 12.7114L9.97035 13.0842Z" fill="#000088"/>
<path d="M11.6197 14.5263C11.6125 14.5815 11.6553 14.6328 11.7151 14.6407C11.7749 14.6487 11.8291 14.6104 11.8362 14.5551C11.8434 14.4999 11.8006 14.4486 11.7408 14.4407C11.681 14.4327 11.6268 14.471 11.6197 14.5263Z" fill="#000088"/>
<path d="M9.9019 12.5648L11.1616 12.6362L11.7602 12.5839L11.1598 12.5193L9.9019 12.5648Z" fill="#000088"/>
<path d="M11.094 14.3664C11.0715 14.4182 11.0981 14.4778 11.1535 14.4996C11.2089 14.5214 11.2721 14.4971 11.2947 14.4453C11.3172 14.3935 11.2905 14.3339 11.2351 14.3121C11.1797 14.2903 11.1166 14.3146 11.094 14.3664Z" fill="#000088"/>
<path d="M9.97285 12.0587L11.1724 12.4328L11.7704 12.5157L11.2087 12.3037L9.97285 12.0587Z" fill="#000088"/>
<path d="M10.6395 14.0809C10.6026 14.1262 10.6105 14.1902 10.6572 14.2239C10.7039 14.2577 10.7717 14.2483 10.8086 14.203C10.8456 14.1578 10.8376 14.0938 10.7909 14.06C10.7442 14.0263 10.6764 14.0357 10.6395 14.0809Z" fill="#000088"/>
<path d="M10.183 11.5783L11.2354 12.2316L11.7915 12.4532L11.3097 12.1104L10.183 11.5783Z" fill="#000088"/>
<path d="M10.2683 13.6963C10.2204 13.7312 10.2105 13.7952 10.2462 13.8393C10.2819 13.8834 10.3497 13.891 10.3976 13.8561C10.4455 13.8212 10.4554 13.7572 10.4197 13.7131C10.384 13.669 10.3162 13.6614 10.2683 13.6963Z" fill="#000088"/>
<path d="M10.5141 11.1672L11.351 12.0563L11.8266 12.4068L11.4555 11.9576L10.5141 11.1672Z" fill="#000088"/>
<path d="M10.0235 13.2396C9.96791 13.2616 9.94099 13.3213 9.96335 13.3729C9.98571 13.4245 10.0489 13.4485 10.1045 13.4265C10.16 13.4045 10.187 13.3449 10.1646 13.2933C10.1422 13.2416 10.0791 13.2176 10.0235 13.2396Z" fill="#000088"/>
<path d="M10.9562 10.8567L11.5208 11.921L11.8836 12.3766L11.6481 11.8515L10.9562 10.8567Z" fill="#000088"/>
<path d="M9.90269 12.7333C9.84308 12.7411 9.8007 12.7923 9.80801 12.8477C9.81533 12.9032 9.86958 12.9418 9.92919 12.934C9.98879 12.9262 10.0312 12.875 10.0239 12.8196C10.0165 12.7641 9.96229 12.7255 9.90269 12.7333Z" fill="#000088"/>
<path d="M11.4568 10.6585L11.7089 11.8253L11.9344 12.3541L11.8518 11.789L11.4568 10.6585Z" fill="#000088"/>
<path d="M9.92873 12.2111C9.87028 12.2043 9.81602 12.2446 9.80756 12.3011C9.79909 12.3575 9.83961 12.4087 9.89807 12.4155C9.95652 12.4223 10.0108 12.382 10.0192 12.3255C10.0277 12.2691 9.98718 12.2178 9.92873 12.2111Z" fill="#000088"/>
<path d="M12.0068 10.5894L11.931 11.7791L11.9855 12.3445L12.0537 11.7776L12.0068 10.5894Z" fill="#000088"/>
<path d="M10.0974 11.7169C10.0428 11.6958 9.97965 11.7214 9.95625 11.7739C9.93284 11.8265 9.95807 11.8862 10.0126 11.9072C10.0671 11.9283 10.1303 11.9027 10.1537 11.8501C10.1771 11.7976 10.1519 11.7379 10.0974 11.7169Z" fill="#000088"/>
<path d="M12.5429 10.6559L12.1463 11.7896L12.0562 12.3543L12.2801 11.8232L12.5429 10.6559Z" fill="#000088"/>
<path d="M10.4007 11.2809C10.354 11.2472 10.2862 11.2565 10.2493 11.3018C10.2124 11.347 10.2203 11.4111 10.267 11.4448C10.3137 11.4785 10.3815 11.4692 10.4184 11.4239C10.4553 11.3787 10.4474 11.3146 10.4007 11.2809Z" fill="#000088"/>
<path d="M13.0527 10.8518L12.3598 11.8509L12.1191 12.3752L12.4809 11.9168L13.0527 10.8518Z" fill="#000088"/>
<path d="M10.8081 10.9326C10.7724 10.8884 10.7046 10.8809 10.6567 10.9157C10.6088 10.9506 10.5989 11.0146 10.6346 11.0588C10.6703 11.1029 10.7381 11.1104 10.786 11.0756C10.8339 11.0407 10.8438 10.9767 10.8081 10.9326Z" fill="#000088"/>
<path d="M13.487 11.1656L12.5447 11.9618L12.1692 12.4102L12.6439 12.0556L13.487 11.1656Z" fill="#000088"/>
<path d="M11.2968 10.7058C11.2733 10.6531 11.2101 10.6274 11.1557 10.6483C11.1012 10.6693 11.0761 10.7289 11.0996 10.7816C11.1231 10.8343 11.1862 10.86 11.2407 10.839C11.2951 10.8181 11.3203 10.7584 11.2968 10.7058Z" fill="#000088"/>
<path d="M13.815 11.586L12.6882 12.118L12.2065 12.4609L12.7625 12.2393L13.815 11.586Z" fill="#000088"/>
<path d="M11.8313 10.598C11.8228 10.5415 11.7686 10.5012 11.7101 10.5079C11.6516 10.5146 11.611 10.5659 11.6195 10.6224C11.6279 10.6788 11.6822 10.7192 11.7407 10.7124C11.7991 10.7057 11.8397 10.6545 11.8313 10.598Z" fill="#000088"/>
<path d="M14.0272 12.0662L12.7918 12.3025L12.2324 12.5157L12.8309 12.439L14.0272 12.0662Z" fill="#000088"/>
<path d="M12.3868 10.6187C12.3939 10.5636 12.351 10.5123 12.2911 10.5043C12.2312 10.4962 12.177 10.5344 12.17 10.5896C12.1629 10.6447 12.2058 10.696 12.2657 10.704C12.3256 10.7121 12.3798 10.6739 12.3868 10.6187Z" fill="#000088"/>
<path d="M14.1002 12.5813L12.8406 12.5095L12.2422 12.5599L12.8425 12.6241L14.1002 12.5813Z" fill="#000088"/>
<path d="M12.9013 10.7827C12.9237 10.731 12.8969 10.6713 12.8414 10.6494C12.7859 10.6275 12.7227 10.6516 12.7003 10.7033C12.6778 10.755 12.7047 10.8146 12.7602 10.8366C12.8157 10.8585 12.8789 10.8343 12.9013 10.7827Z" fill="#000088"/>
<path d="M14.0263 13.0913L12.8264 12.717L12.2284 12.6333L12.7904 12.845L14.0263 13.0913Z" fill="#000088"/>
<path d="M13.3666 11.0614C13.4026 11.017 13.3932 10.953 13.3455 10.9184C13.2979 10.8838 13.2301 10.8918 13.1941 10.9362C13.1581 10.9806 13.1675 11.0446 13.2151 11.0792C13.2628 11.1138 13.3306 11.1058 13.3666 11.0614Z" fill="#000088"/>
<path d="M13.8193 13.5651L12.7627 12.9109L12.2073 12.6851L12.6919 13.027L13.8193 13.5651Z" fill="#000088"/>
<path d="M13.7353 11.446C13.7823 11.412 13.7907 11.348 13.7541 11.303C13.7175 11.258 13.6497 11.2491 13.6027 11.2832C13.5557 11.3172 13.5473 11.3812 13.5839 11.4262C13.6205 11.4711 13.6883 11.48 13.7353 11.446Z" fill="#000088"/>
<path d="M13.4899 13.9743L12.6482 13.0845L12.1733 12.7309L12.5478 13.1794L13.4899 13.9743Z" fill="#000088"/>
<path d="M13.9838 11.9107C14.0386 11.8894 14.0643 11.8297 14.0411 11.7774C14.018 11.7251 13.9548 11.6999 13.9 11.7212C13.8452 11.7425 13.8195 11.8022 13.8426 11.8545C13.8658 11.9068 13.9289 11.932 13.9838 11.9107Z" fill="#000088"/>
<path d="M13.0518 14.2915L12.4822 13.2267L12.1201 12.7692L12.3591 13.2938L13.0518 14.2915Z" fill="#000088"/>
<path d="M14.1046 12.417C14.1634 12.4099 14.2045 12.3587 14.1965 12.3026C14.1884 12.2464 14.1341 12.2067 14.0753 12.2137C14.0164 12.2208 13.9753 12.2721 13.9834 12.3282C13.9915 12.3843 14.0457 12.4241 14.1046 12.417Z" fill="#000088"/>
<path d="M12.5521 14.4889L12.2928 13.3217L12.0684 12.7914L12.1561 13.3562L12.5521 14.4889Z" fill="#000088"/>
</g>
<defs>
<clipPath id="clip0_1258_41982">
<rect width="24" height="17" fill="white" transform="translate(0 4.07031)"/>
</clipPath>
</defs>
</svg>
