<svg width="21" height="24" viewBox="0 0 21 24" fill="none" xmlns="http://www.w3.org/2000/svg">
<path d="M9.77088 1.26528L10.0381 1.27548C10.0381 1.27554 10.0381 1.2756 10.0381 1.27566C10.0379 1.28132 10.0376 1.28697 10.0374 1.29261L10.0363 1.32355L10.0314 1.46044C10.0273 1.57889 10.0218 1.74925 10.0157 1.95674C10.0037 2.37177 9.98996 2.93513 9.98309 3.52871C9.97621 4.1225 9.97623 4.74548 9.99164 5.28007C10.0072 5.81905 10.0382 6.25559 10.0899 6.48424C10.1189 6.61221 10.1398 6.75457 10.1598 6.90253C10.1644 6.93629 10.1689 6.97035 10.1735 7.00473C10.1891 7.12277 10.2053 7.24451 10.2255 7.37023C10.2774 7.69396 10.3545 8.03206 10.5086 8.35304C10.8113 8.98342 11.4252 9.57694 12.8201 9.82098L12.827 9.82191L12.8547 9.82564L12.9606 9.83971C13.0523 9.8518 13.1843 9.86899 13.3454 9.88934C13.6678 9.93005 14.1063 9.98341 14.5716 10.034C15.037 10.0847 15.5282 10.1325 15.956 10.1621C15.9709 10.1632 15.9857 10.1642 16.0004 10.1652C16.1533 10.1668 16.2942 10.1687 16.4183 10.1707C16.5843 10.1734 16.7204 10.1761 16.815 10.1781L16.9244 10.1806L16.953 10.1813L16.9604 10.1815L16.9623 10.1816L16.9627 10.1816L16.9629 10.1816L16.9594 10.3152L16.9629 10.1816L16.9729 10.4482C16.7545 10.4704 16.3977 10.4597 15.9901 10.4325C15.7368 10.4298 15.4511 10.4281 15.1548 10.4287C14.6768 10.4296 14.1723 10.4365 13.7327 10.4551C13.2899 10.4739 12.923 10.5042 12.7144 10.5494C12.6662 10.5599 12.6159 10.5702 12.5638 10.5808C12.1274 10.6701 11.5669 10.7847 11.05 11.2491C10.4741 11.7667 9.93477 12.7387 9.74445 14.6611L9.49482 18.8892L9.22767 18.8792L9.36135 18.8814L9.22767 18.8792L9.22768 18.879L9.22769 18.8784L9.22772 18.876L9.22787 18.8665L9.22844 18.8293L9.23046 18.687C9.23215 18.564 9.23441 18.3873 9.23672 18.1725C9.24133 17.7429 9.24613 17.1611 9.24686 16.5522C9.2476 15.9431 9.24426 15.3076 9.23263 14.7703C9.22094 14.2296 9.20095 13.7976 9.16989 13.5898C9.15723 13.5052 9.1463 13.4114 9.13453 13.3105C9.08303 12.8689 9.01566 12.2913 8.71872 11.746C8.36235 11.0914 7.66531 10.4747 6.20612 10.277L2.51735 9.96523L2.53657 9.69855L2.52861 9.83201L2.53658 9.69855L2.53666 9.69855L2.53702 9.69858L2.53855 9.69866L2.54478 9.69902L2.5696 9.7004C2.59151 9.70159 2.62397 9.70328 2.66595 9.7053C2.7499 9.70934 2.87187 9.71467 3.02357 9.71984C3.32703 9.73017 3.74911 9.7398 4.22347 9.73704C5.17554 9.73148 6.32605 9.6759 7.15228 9.48028C7.93184 9.29571 8.53257 8.6963 8.9675 7.40254C9.40292 6.10734 9.66172 4.14357 9.77022 1.28263L9.77041 1.27769L9.77076 1.26844L9.77085 1.26609L9.77087 1.26549L9.77088 1.26528ZM9.77088 1.26528L9.90448 1.27045M9.77088 1.26528L9.90448 1.27045M9.90448 1.27045L9.77088 1.26534L9.77087 1.26542L9.90448 1.27045Z" fill="#EBFF25" stroke="#EBFF25" stroke-width="0.267394" stroke-miterlimit="10"/>
<path d="M16.3188 14.6213L16.586 14.6315C16.586 14.6315 16.586 14.6316 16.586 14.6316C16.5569 15.4046 16.5057 16.0524 16.4288 16.5905C16.4362 16.8664 16.4517 17.098 16.4797 17.2218C16.4964 17.2955 16.5077 17.3807 16.5199 17.473C16.5877 17.9843 16.6846 18.7147 17.8855 18.9243M16.3188 14.6213L16.3185 14.63M16.3188 14.6213L16.4524 14.6264L16.3188 14.6213L16.3188 14.6214L16.3188 14.6214L16.3188 14.6213ZM17.8855 18.9243C17.8855 18.9243 18.0486 18.9465 18.2851 18.9755C18.3029 18.9747 18.3208 18.9739 18.3389 18.9731C18.5603 18.9637 18.813 18.9603 19.0509 18.9598C19.2007 18.9595 19.3451 18.9604 19.4725 18.9617M17.8855 18.9243L17.9085 18.7926C17.9077 18.7924 17.9068 18.7923 17.906 18.7921M17.8855 18.9243L17.9035 18.7918L17.9036 18.7918L17.9038 18.7918L17.9047 18.792L17.906 18.7921M19.4725 18.9617C19.6771 18.9755 19.8405 18.9797 19.931 18.9705L19.9446 19.1035M19.4725 18.9617C19.5476 18.9625 19.6168 18.9635 19.6778 18.9645C19.7601 18.9658 19.8276 18.9671 19.8745 18.9682L19.9288 18.9694L19.9431 18.9697L19.9468 18.9698L19.9477 18.9699L19.948 18.9699L19.948 18.9699L19.9446 19.1035M19.4725 18.9617C19.4659 18.9613 19.4593 18.9609 19.4526 18.9604C19.2421 18.9458 18.9999 18.9222 18.7699 18.8972C18.5401 18.8722 18.3234 18.8458 18.1641 18.8257C18.0845 18.8157 18.0193 18.8072 17.974 18.8012L17.9217 18.7943L17.9081 18.7924L17.906 18.7921M19.9446 19.1035L19.9411 19.2372L19.941 19.2372L19.9408 19.2372L19.9399 19.2371L19.9364 19.2371L19.9224 19.2367L19.8687 19.2355C19.8222 19.2345 19.7553 19.2331 19.6735 19.2318C19.6109 19.2308 19.5396 19.2299 19.4622 19.229M19.9446 19.1035L19.9481 18.9699L19.9581 19.2365C19.8441 19.2481 19.6631 19.2424 19.4622 19.229M19.4622 19.229C19.4528 19.2284 19.4435 19.2278 19.4341 19.2271C19.2186 19.2122 18.9726 19.1882 18.741 19.163C18.575 19.145 18.416 19.1262 18.2802 19.1096C18.0893 19.119 17.9279 19.1334 17.8293 19.1548C17.806 19.1598 17.7815 19.1648 17.7559 19.17C17.3055 19.2617 16.5125 19.4231 16.3162 21.1649C16.317 21.1928 16.3177 21.2212 16.3184 21.2502L16.4407 21.2574L16.4405 21.26M19.4622 19.229C19.3375 19.2277 19.197 19.2269 19.0514 19.2272C18.8153 19.2277 18.5665 19.2311 18.3502 19.2402C18.1307 19.2495 17.9545 19.2644 17.8576 19.2854C17.8331 19.2908 17.8079 19.2959 17.7821 19.3012C17.5659 19.3456 17.3061 19.399 17.0646 19.616C16.7968 19.8567 16.5339 20.3187 16.4405 21.26M16.4405 21.26C16.4404 21.2609 16.4404 21.2618 16.4403 21.2627L16.3185 21.2506C16.3189 21.2684 16.3193 21.2863 16.3197 21.3044C16.3255 21.5726 16.3271 21.8889 16.3268 22.191C16.3264 22.4933 16.324 22.7819 16.3218 22.995C16.3206 23.1015 16.3195 23.1892 16.3187 23.2502L16.3176 23.3209L16.3174 23.3394L16.3173 23.3442L16.3173 23.3454L16.3173 23.3457L16.3173 23.3458L16.1836 23.3437M16.4405 21.26L16.317 23.3516L16.0499 23.3416L16.1836 23.3437M16.1836 23.3437L16.0501 23.3358L16.1738 21.2416L16.1741 21.2364L16.1742 21.2364C16.1767 21.2104 16.1794 21.1848 16.1822 21.1595C16.1762 20.9609 16.1673 20.8017 16.1543 20.7146C16.1484 20.6756 16.1433 20.6313 16.1377 20.5829C16.0815 20.0976 15.9776 19.2008 14.629 19.0188M16.1836 23.3437L16.0499 23.3415L16.0499 23.3415L16.0499 23.3412L16.0499 23.34L16.05 23.3353L16.0503 23.3169L16.0513 23.2466C16.0521 23.1858 16.0532 23.0983 16.0544 22.9921C16.0567 22.7796 16.059 22.4918 16.0594 22.1907C16.0598 21.8894 16.0581 21.5754 16.0524 21.3102C16.0466 21.0416 16.0367 20.8322 16.022 20.7344C16.0153 20.6895 16.0096 20.6409 16.0036 20.5894C15.9779 20.3711 15.9462 20.1012 15.8062 19.844C15.6415 19.5415 15.317 19.2473 14.6144 19.1517M14.629 19.0188L14.331 18.9936C14.0942 19.0097 13.8559 19.0159 13.6415 19.0172C13.4035 19.0186 13.1918 19.0138 13.0396 19.0086C12.9635 19.006 12.9022 19.0033 12.8598 19.0013L12.8109 18.9988L12.7981 18.9981L12.7947 18.9979L12.7938 18.9978L12.7936 18.9978L12.7935 18.9978L12.8014 18.8643M14.629 19.0188L14.6111 19.1513C14.6122 19.1514 14.6133 19.1516 14.6144 19.1517M14.629 19.0188L14.6177 19.152L14.6144 19.1517M12.8014 18.8643L12.8127 18.7311L14.3321 18.8595C14.6086 18.8405 14.8802 18.8079 15.1054 18.7546C15.7111 18.6112 16.0912 17.998 16.2948 16.5828C16.288 16.3222 16.2882 16.0246 16.2915 15.7419C16.2949 15.4466 16.3017 15.1665 16.3077 14.9603C16.3107 14.8572 16.3135 14.7725 16.3155 14.7136L16.3179 14.6454L16.3185 14.63M12.8014 18.8643L12.8094 18.7309M12.8014 18.8643L12.8093 18.7313M16.3185 14.63C16.2648 16.045 16.1369 17.0089 15.9246 17.6402C15.7133 18.2689 15.4288 18.5407 15.0746 18.6245C14.6736 18.7195 14.1107 18.7471 13.64 18.7498C13.4063 18.7512 13.1983 18.7464 13.0487 18.7413C12.974 18.7388 12.9139 18.7362 12.8726 18.7342L12.8254 18.7318L12.8133 18.7311L12.8103 18.7309L12.8096 18.7309L12.8094 18.7309L12.8094 18.7309M16.3185 14.63L16.3186 14.6275L16.3188 14.6229L16.3188 14.6217L12.8094 18.7309M12.8094 18.7309L12.8093 18.7313M12.8094 18.7309L12.8094 18.7309L12.8093 18.7313M12.8094 18.7309L17.906 18.7921M12.8093 18.7313L12.7902 18.9976L14.6144 19.1517" fill="#EBFF25" stroke="#EBFF25" stroke-width="0.267394" stroke-miterlimit="10"/>
</svg>
