<svg width="8" height="10" viewBox="0 0 8 10" fill="none" xmlns="http://www.w3.org/2000/svg">
<path d="M3.83309 0.209002C3.83309 0.209002 3.86832 2.52741 4.0161 3.04825C4.16389 3.5691 4.08888 4.64158 5.65535 4.82876C5.65535 4.82876 7.45652 4.97588 7.91974 4.90342C7.91974 4.90342 6.08126 4.95445 5.60742 5.08438C5.13357 5.21431 4.15951 5.35066 4.06505 7.46704L4.05331 9.76659C4.05331 9.76659 3.96204 7.35873 3.86605 6.89061C3.77006 6.4225 3.73158 5.2559 2.09643 5.1244L0.0869082 5.0632C0.0869082 5.0632 1.70137 5.0724 2.60226 4.80714C3.50316 4.54188 3.88367 3.32785 3.83309 0.209002Z" fill="#EBFF25" stroke="#EBFF25" stroke-width="0.439364" stroke-miterlimit="10"/>
</svg>
