<svg width="19" height="19" viewBox="0 0 19 19" fill="none" xmlns="http://www.w3.org/2000/svg">
<path d="M6.66683 18.25L5.0835 15.5833L2.0835 14.9167L2.37516 11.8333L0.333496 9.5L2.37516 7.16667L2.0835 4.08333L5.0835 3.41667L6.66683 0.75L9.50016 1.95833L12.3335 0.75L13.9168 3.41667L16.9168 4.08333L16.6252 7.16667L18.6668 9.5L16.6252 11.8333L16.9168 14.9167L13.9168 15.5833L12.3335 18.25L9.50016 17.0417L6.66683 18.25ZM7.37516 16.125L9.50016 15.2083L11.6668 16.125L12.8335 14.125L15.1252 13.5833L14.9168 11.25L16.4585 9.5L14.9168 7.70833L15.1252 5.375L12.8335 4.875L11.6252 2.875L9.50016 3.79167L7.3335 2.875L6.16683 4.875L3.87516 5.375L4.0835 7.70833L2.54183 9.5L4.0835 11.25L3.87516 13.625L6.16683 14.125L7.37516 16.125ZM8.62516 12.4583L13.3335 7.75L12.1668 6.54167L8.62516 10.0833L6.8335 8.33333L5.66683 9.5L8.62516 12.4583Z" fill="#06A868"/>
</svg>
