<svg width="67" height="64" viewBox="0 0 67 64" fill="none" xmlns="http://www.w3.org/2000/svg">
<path d="M43.3364 8.79626L45.9393 12.5608L45.016 20.4877L42.4131 16.7232L43.3364 8.79626Z" fill="#917008"/>
<path d="M49.7528 16.6146L52.3557 20.3792L51.453 28.1297L48.8501 24.3651L49.7528 16.6146Z" fill="#917008"/>
<path d="M56.0575 24.2572L58.6604 28.0217L56.9977 42.2917L54.3948 38.5272L56.0575 24.2572Z" fill="#917008"/>
<path d="M54.3872 38.5283L56.9901 42.2929L49.7894 42.3998L47.1865 38.6353L54.3872 38.5283Z" fill="#EBB62F"/>
<path d="M46.2667 46.5641L48.8677 50.3286L41.5226 50.4375L38.9197 46.6729L46.2667 46.5641Z" fill="#EBB62F"/>
<path d="M47.1926 38.6348L49.7955 42.3993L48.8703 50.3281L46.2693 46.5636L47.1926 38.6348Z" fill="#917008"/>
<path d="M38.0591 54.0697L40.662 57.8342L9.80627 58.2921L7.20337 54.5276L38.0591 54.0697Z" fill="#EBB62F"/>
<path d="M38.9192 46.672L41.5221 50.4365L40.6608 57.8342L38.0579 54.0697L38.9192 46.672Z" fill="#917008"/>
<path d="M43.3343 8.79626L42.411 16.7232L49.7562 16.6143L48.8535 24.3649L56.0542 24.2579L54.3915 38.5279L47.1908 38.6348L46.2675 46.5636L38.9205 46.6725L38.0591 54.0702L7.20337 54.5281L12.4786 9.25416L43.3343 8.79626Z" fill="url(#paint0_linear_4479_831)"/>
<ellipse cx="8.87948" cy="9.22799" rx="0.431242" ry="0.431242" fill="white"/>
<ellipse cx="6.77768" cy="63.5687" rx="0.431242" ry="0.431242" fill="#EBB62F"/>
<ellipse cx="66.4552" cy="37.9653" rx="0.431242" ry="0.431242" fill="#EBB62F"/>
<circle cx="0.701205" cy="25.7305" r="0.701205" fill="#EBB62F"/>
<circle cx="45.1814" cy="58.9741" r="0.802477" fill="white"/>
<ellipse cx="49.9917" cy="6.16358" rx="0.350348" ry="0.350348" fill="white"/>
<ellipse cx="2.34268" cy="46.2476" rx="0.316312" ry="0.316312" fill="#FA3939"/>
<path d="M62.7954 31.8102L63.0936 32.7546L64.038 33.0528L63.0936 33.3511L62.7954 34.2955L62.4981 33.3511L61.5527 33.0528L62.4981 32.7546L62.7954 31.8102Z" fill="white"/>
<path d="M11.9132 0L12.0552 0.449655L12.5048 0.591651L12.0552 0.733647L11.9132 1.1833L11.7717 0.733647L11.3215 0.591651L11.7717 0.449655L11.9132 0Z" fill="white"/>
<path d="M42.8823 5.91662L42.9746 8.25978L44.9458 9.52992L42.6027 9.62221L41.3325 11.5934L41.2425 9.25088L39.269 7.98012L41.6145 7.88845L42.8823 5.91662Z" fill="#EBB62F"/>
<path d="M26.1437 26.8969L26.7455 20.4701H30.4615L29.8596 26.8969C29.5921 30.1266 29.1494 33.3563 28.4614 36.586H25.727C25.6439 33.3563 25.8412 30.1266 26.1437 26.8969ZM24.0093 43.6979L24.434 39.1633H29.3067L28.882 43.6979H24.0093Z" fill="#FEFFDC"/>
<defs>
<linearGradient id="paint0_linear_4479_831" x1="31.8381" y1="10.0405" x2="31.8381" y2="54.5276" gradientUnits="userSpaceOnUse">
<stop offset="0.609375" stop-color="#EBB62F"/>
<stop offset="1" stop-color="#FFE299" stop-opacity="0.96"/>
</linearGradient>
</defs>
</svg>
