<svg width="16.66" height="20" viewBox="0 0 18 20" fill="none" xmlns="http://www.w3.org/2000/svg">
            <path
              fillRule="evenodd"
              clipRule="evenodd"
              d="M8.97071 0.0453255C7.16967 0.268496 5.18751 1.20175 3.49714 2.64222C3.15505 2.92625 2.44066 3.62619 2.44066 3.66677C2.44066 3.68706 2.78276 4.05224 3.20535 4.4783L3.97004 5.25939L3.64807 5.62458C2.46079 6.97375 1.65585 8.3432 1.17289 9.7938C0.871036 10.7068 0.740234 11.4574 0.740234 12.2994C0.740234 13.0602 0.840851 13.679 1.07227 14.2775L1.16283 14.521L3.40659 16.7831C5.27807 18.6699 5.70066 19.0757 5.93208 19.2278C6.41504 19.5524 6.9785 19.7756 7.60232 19.9075C8.01485 19.9988 8.97071 20.0292 9.42349 19.9683C11.2145 19.7452 13.0658 18.8931 14.6858 17.5338C15.1084 17.1787 15.8227 16.4991 15.8227 16.4585C15.8227 16.4382 15.4706 16.073 15.048 15.6368L14.2732 14.8456L14.5147 14.592C15.1084 13.963 15.8328 12.9588 16.2554 12.1675C16.8591 11.0618 17.2515 9.86481 17.3823 8.76925C17.4326 8.29248 17.4024 7.27807 17.3219 6.89259C17.1811 6.24337 16.9597 5.71588 16.6277 5.20867C16.4566 4.94493 16.1145 4.58988 14.2229 2.67265L12.0094 0.440946L11.7779 0.349648C11.466 0.217775 10.8221 0.065614 10.4297 0.0250376C10.0373 -0.0155388 9.42349 -0.00539504 8.97071 0.0453255ZM10.8724 0.643828C11.0334 0.684405 11.295 0.745269 11.4358 0.79599C11.6974 0.887286 11.7075 0.887287 12.12 1.30319C12.4823 1.66838 12.5326 1.7191 12.442 1.70896C11.959 1.61766 11.1843 1.59737 10.5806 1.67853C8.64874 1.92198 6.65652 2.90596 4.82529 4.52902C4.64418 4.69132 4.48319 4.83334 4.45301 4.85363C4.42282 4.87392 4.26183 4.74204 3.78893 4.26527L3.16511 3.63634L3.56758 3.28129C5.24788 1.80026 7.09924 0.866997 8.91034 0.603251C9.39331 0.532242 10.4699 0.562675 10.8724 0.643828ZM13.5085 3.86965C14.394 4.00152 15.1687 4.387 15.7422 4.96521C16.3057 5.53328 16.6679 6.26366 16.839 7.17663C16.9094 7.58239 16.9094 8.49536 16.839 8.97213C16.6076 10.443 15.9334 11.9545 14.887 13.3341C14.6455 13.6587 14.072 14.3384 13.9814 14.4094C13.9311 14.4499 13.8708 14.3992 13.3476 13.8717C13.0256 13.5471 12.764 13.2732 12.764 13.2631C12.764 13.2529 12.8545 13.1414 12.9652 13.0196C14.7864 10.9908 15.6416 8.45478 15.0379 6.88245C14.7964 6.2738 14.2934 5.81732 13.6393 5.61444C13.3073 5.513 12.7237 5.46227 12.2911 5.51299C11.627 5.57386 10.812 5.83761 10.0272 6.22308C9.24238 6.60856 8.528 7.09547 7.83374 7.72441L7.52183 7.9983L6.92819 7.3998L6.33455 6.80129L6.58609 6.56798C8.12553 5.11737 10.1681 4.08268 11.9188 3.84936C12.271 3.81893 13.1765 3.81893 13.5085 3.86965ZM5.18751 7.36936C4.96615 7.62297 4.68442 7.97801 4.54356 8.16061C2.87332 10.4025 2.10863 12.837 2.42054 14.9369L2.44066 15.0687L2.02813 14.663C1.63573 14.2775 1.6156 14.2471 1.53511 14.0036C0.750296 11.7313 1.73634 8.5968 4.0606 5.96948L4.33227 5.66516L4.95609 6.29409L5.57992 6.92302L5.18751 7.36936ZM13.0457 6.07092L13.1262 6.09121L13.1061 6.51726C13.086 7.02447 13.0155 7.44037 12.9149 7.79542C12.5929 8.86055 11.9993 9.92568 11.134 10.9299L10.8019 11.3154L10.1681 10.6763L9.53417 10.0373L9.82596 9.71265C10.4498 9.02285 11.0233 8.22147 11.3755 7.54181C11.5666 7.17663 11.8182 6.55784 11.8886 6.2738C11.9289 6.10135 11.9289 6.10135 12.0798 6.08107C12.1603 6.07092 12.2508 6.06077 12.281 6.05063C12.3615 6.05063 12.9753 6.05063 13.0457 6.07092ZM11.2447 6.51726C11.1038 6.91288 10.7919 7.52153 10.49 7.97801C10.158 8.48521 9.92658 8.78954 9.46374 9.31703L9.14176 9.69236L8.50788 9.05328L7.87399 8.41421L8.08528 8.22147C8.73929 7.63311 9.50399 7.10562 10.2083 6.74043C10.5906 6.54769 11.2145 6.29409 11.305 6.28395C11.3151 6.28395 11.295 6.38539 11.2447 6.51726ZM8.10541 9.41847C8.64874 9.96625 8.67892 10.0068 8.63868 10.0677C8.60849 10.0981 8.47769 10.2503 8.33683 10.4126C7.77337 11.0618 7.25016 11.8531 6.898 12.5834C6.64646 13.1008 6.49553 13.5268 6.34461 14.105C6.15344 14.8659 6.15344 15.7078 6.36473 16.2962C6.75714 17.412 7.79349 17.9395 9.24238 17.7671C10.641 17.5946 12.2508 16.7831 13.6293 15.5557L13.9211 15.2919L14.5147 15.8904L15.1084 16.4889L14.8568 16.7222C13.5689 17.9294 11.8484 18.9133 10.3592 19.2785C9.75553 19.4307 9.33294 19.4814 8.75942 19.4814C7.99473 19.4814 7.43127 19.38 6.83763 19.1162C6.07294 18.7815 5.36862 18.1221 5.0064 17.3917C4.55362 16.4889 4.42282 15.3731 4.62405 14.1659C4.90578 12.482 5.84152 10.6763 7.21998 9.12429C7.36084 8.96199 7.49164 8.83011 7.5017 8.83011C7.51177 8.83011 7.78343 9.09386 8.10541 9.41847ZM10.0775 11.9038C9.25244 12.6849 8.19596 13.3848 7.32059 13.7399C7.13948 13.8109 6.9785 13.8717 6.96843 13.8717C6.95837 13.8717 6.99862 13.7601 7.04893 13.6181C7.43127 12.553 8.09535 11.4676 8.89022 10.6053L9.08139 10.4024L9.71528 11.0314L10.3492 11.6603L10.0775 11.9038ZM11.3453 12.695L11.959 13.3138L11.7679 13.4964C10.7617 14.4499 9.2122 15.3122 8.11547 15.5455C7.8438 15.6064 7.2401 15.6672 6.94831 15.6672H6.75714V15.2006C6.75714 14.947 6.7672 14.6731 6.77726 14.6123L6.79739 14.4905L7.18979 14.3586C8.1859 14.034 9.45368 13.2327 10.3894 12.34C10.5403 12.198 10.6812 12.0762 10.7013 12.0762C10.7215 12.0762 11.0132 12.3501 11.3453 12.695Z"
              fill="#44444D"
            />
          </svg>