<svg width="1072" height="184" viewBox="0 0 1072 184" fill="none" xmlns="http://www.w3.org/2000/svg">
<path d="M35.808 28.528L32.112 22.032H34.016L36.62 26.862L39.28 22.032H41.156L37.376 28.528V32H35.808V28.528ZM40.9201 28.416C40.9201 26.204 42.4321 24.678 44.6021 24.678C46.7861 24.678 48.2981 26.204 48.2981 28.416C48.2981 30.628 46.7861 32.14 44.6021 32.14C42.4321 32.14 40.9201 30.628 40.9201 28.416ZM42.4881 28.402C42.4881 29.872 43.3281 30.824 44.6021 30.824C45.8901 30.824 46.7301 29.872 46.7301 28.402C46.7301 26.918 45.8901 25.98 44.6021 25.98C43.3281 25.98 42.4881 26.918 42.4881 28.402ZM54.7834 24.818H56.2534V32H54.8814L54.7694 31.076C54.3774 31.72 53.6634 32.14 52.7394 32.14C50.9474 32.14 49.8974 30.936 49.8974 29.102V24.818H51.3674V28.892C51.3674 30.194 52.0394 30.81 53.0614 30.796C54.1814 30.782 54.7834 29.984 54.7834 28.752V24.818ZM61.4648 24.832H62.4028V26.204H61.3808C60.1908 26.204 59.7288 26.96 59.7288 28.178V32H58.1888V24.832H59.5888L59.7708 25.756C60.0368 25.252 60.6388 24.832 61.4648 24.832ZM66.5939 32V22.032H70.8639C72.9359 22.032 74.3079 23.264 74.3079 25.224C74.3079 26.764 73.4959 27.94 72.1239 28.29L74.0979 32H72.3199L70.4719 28.5H68.1619V32H66.5939ZM68.1619 27.128H70.7099C71.9699 27.128 72.6559 26.47 72.6559 25.266C72.6559 24.076 71.9699 23.432 70.7099 23.432H68.1619V27.128ZM82.3748 30.852H82.6408V32H81.7728C81.1848 32 80.6528 31.776 80.5408 31.09C80.1348 31.72 79.2528 32.14 78.1328 32.14C76.5508 32.14 75.5428 31.314 75.5428 29.942C75.5428 28.724 76.3128 27.828 78.2728 27.828H80.3588V27.464C80.3588 26.414 79.7288 25.924 78.7908 25.924C77.8388 25.924 77.2228 26.4 77.1808 27.142H75.7668C75.8088 25.588 77.0828 24.692 78.8468 24.692C80.5268 24.692 81.8988 25.532 81.8988 27.478V30.376C81.8988 30.768 82.0528 30.852 82.3748 30.852ZM80.3588 29.172V28.878H78.4828C77.4468 28.878 77.1248 29.34 77.1248 29.872C77.1248 30.6 77.6988 30.922 78.4828 30.922C79.5468 30.922 80.3588 30.348 80.3588 29.172ZM87.7979 24.692C89.6039 24.692 90.6679 25.882 90.6679 27.716V32H89.1279V28.038C89.1279 26.694 88.4419 26.036 87.3919 26.036C86.2019 26.036 85.5579 26.876 85.5579 28.15V32H84.0319V24.832H85.4179L85.5299 25.798C85.9359 25.112 86.7059 24.692 87.7979 24.692ZM92.4991 32V21.598H94.0251V28.01L97.1611 24.818H99.0651L95.9991 27.912L99.0931 32H97.1611L94.9071 28.99L94.0671 29.844V32H92.4991Z" fill="white"/>
<path d="M34.856 78.848H52.16V84.504H34.856V78.848ZM57.9341 78.848H75.2381V84.504H57.9341V78.848ZM81.0123 78.848H98.3163V84.504H81.0123V78.848Z" fill="#EBFF25"/>
<path d="M33.438 153.5V143.42H35.426V148.194L39.682 143.42H42.034L38.156 147.718L42.048 153.5H39.5L36.658 149.286L35.426 150.616V153.5H33.438ZM47.1764 146.08C49.0384 146.08 50.1024 147.312 50.1024 149.174V153.5H48.1284V149.58C48.1284 148.376 47.5544 147.76 46.6024 147.76C45.5664 147.76 45.0064 148.474 45.0064 149.65V153.5H43.0464V146.22H44.8664L44.9784 147.088C45.3564 146.486 46.0844 146.08 47.1764 146.08ZM51.408 149.86C51.408 147.606 52.99 146.066 55.216 146.066C57.442 146.066 59.024 147.606 59.024 149.86C59.024 152.128 57.442 153.64 55.216 153.64C52.99 153.64 51.408 152.128 51.408 149.86ZM53.41 149.846C53.41 151.134 54.124 151.974 55.216 151.974C56.308 151.974 57.022 151.134 57.022 149.846C57.022 148.544 56.308 147.732 55.216 147.732C54.124 147.732 53.41 148.544 53.41 149.846ZM61.6603 146.22L62.8503 151.358L64.2083 146.22H66.2803L67.5963 151.372L68.7583 146.22H70.8163L68.8003 153.5H66.6163L65.2583 148.32L63.8023 153.5H61.6183L59.6023 146.22H61.6603ZM79.9673 151.302L82.8793 143.42H85.2733V153.5H83.2993V149.776C83.2993 148.74 83.3413 147.522 83.4393 146.612L80.8493 153.5H79.0013L76.3973 146.346C76.5233 147.396 76.5373 148.726 76.5093 149.776V153.5H74.5493V143.42H77.0553L79.9673 151.302ZM86.7908 149.86C86.7908 147.606 88.3728 146.066 90.5988 146.066C92.8248 146.066 94.4068 147.606 94.4068 149.86C94.4068 152.128 92.8248 153.64 90.5988 153.64C88.3728 153.64 86.7908 152.128 86.7908 149.86ZM88.7928 149.846C88.7928 151.134 89.5068 151.974 90.5988 151.974C91.6908 151.974 92.4048 151.134 92.4048 149.846C92.4048 148.544 91.6908 147.732 90.5988 147.732C89.5068 147.732 88.7928 148.544 88.7928 149.846ZM99.4325 146.22H100.426V147.97H99.3205C98.1585 147.97 97.7945 148.656 97.7945 149.762V153.5H95.8205V146.22H97.6545L97.8645 147.06C98.1025 146.612 98.6205 146.22 99.4325 146.22ZM108.303 149.748V150.392H103.039C103.067 151.47 103.823 152.072 104.761 152.072C105.475 152.072 106.049 151.75 106.273 151.12H108.247C107.925 152.632 106.539 153.654 104.705 153.654C102.521 153.654 101.065 152.142 101.065 149.86C101.065 147.592 102.521 146.08 104.691 146.08C106.861 146.08 108.303 147.522 108.303 149.748ZM104.691 147.606C103.851 147.606 103.137 148.096 103.053 149.104H106.343C106.259 148.096 105.545 147.606 104.691 147.606Z" fill="white"/>
<path d="M32.5 156.23H108.891V157.35H32.5V156.23Z" fill="white"/>
<g clip-path="url(#clip0_1371_111774)">
<rect x="624.552" y="96.1492" width="132.867" height="57.4644" fill="url(#paint0_linear_1371_111774)" fill-opacity="0.72"/>
<g style="mix-blend-mode:soft-light">
<path d="M715.852 91.1687C725.752 91.1687 731.402 98.8687 731.402 109.669C731.402 120.469 725.752 128.169 715.852 128.169C706.002 128.169 700.552 120.469 700.552 109.669C700.552 98.8687 706.002 91.1687 715.852 91.1687ZM724.252 109.669C724.252 102.019 721.152 97.3187 715.852 97.3187C710.602 97.3187 707.652 102.019 707.652 109.669C707.652 117.369 710.602 122.019 715.852 122.019C721.152 122.019 724.252 117.369 724.252 109.669Z" fill="white"/>
<path d="M753.265 114.319L745.065 121.119H760.115V127.669H735.365V121.319L748.765 109.869C751.465 107.469 753.015 105.769 753.065 103.169C753.165 99.6187 750.915 97.6687 747.465 97.6687C744.115 97.6687 741.715 100.019 741.565 103.519H734.815C734.965 95.5687 740.715 91.1687 747.515 91.1687C754.815 91.1687 760.415 95.1687 760.415 102.569C760.415 107.819 757.365 111.019 753.265 114.319Z" fill="white"/>
</g>
</g>
<g clip-path="url(#clip1_1371_111774)">
<rect x="757.614" y="57.8313" width="133" height="96" fill="url(#paint1_linear_1371_111774)" fill-opacity="0.72"/>
<g style="mix-blend-mode:soft-light">
<path d="M858.851 53.1692C868.751 53.1692 874.401 60.8692 874.401 71.6692C874.401 82.4692 868.751 90.1692 858.851 90.1692C849.001 90.1692 843.551 82.4692 843.551 71.6692C843.551 60.8692 849.001 53.1692 858.851 53.1692ZM867.251 71.6692C867.251 64.0192 864.151 59.3192 858.851 59.3192C853.601 59.3192 850.651 64.0192 850.651 71.6692C850.651 79.3692 853.601 84.0192 858.851 84.0192C864.151 84.0192 867.251 79.3692 867.251 71.6692Z" fill="white"/>
<path d="M891.968 89.6692H885.018V60.7692L877.168 64.6192V57.7192L885.018 53.6692H891.968V89.6692Z" fill="white"/>
</g>
</g>
<g clip-path="url(#clip2_1371_111774)">
<rect x="891.133" y="96.1492" width="132.867" height="57.4644" fill="url(#paint2_linear_1371_111774)" fill-opacity="0.72"/>
<g style="mix-blend-mode:soft-light">
<path d="M983.851 90.6687C993.751 90.6687 999.401 98.3687 999.401 109.169C999.401 119.969 993.751 127.669 983.851 127.669C974.001 127.669 968.551 119.969 968.551 109.169C968.551 98.3687 974.001 90.6687 983.851 90.6687ZM992.251 109.169C992.251 101.519 989.151 96.8187 983.851 96.8187C978.601 96.8187 975.651 101.519 975.651 109.169C975.651 116.869 978.601 121.519 983.851 121.519C989.151 121.519 992.251 116.869 992.251 109.169Z" fill="white"/>
<path d="M1023.41 108.669C1027.01 109.869 1029.21 113.019 1029.21 116.969C1029.21 123.669 1023.71 127.669 1016.11 127.669C1007.86 127.669 1002.81 122.719 1002.81 115.469H1009.66C1009.66 119.669 1012.36 121.669 1015.81 121.669C1019.51 121.669 1021.71 119.669 1021.71 116.669C1021.71 113.669 1019.81 111.669 1015.71 111.669H1012.71V106.169H1015.46C1019.16 106.169 1021.21 104.369 1021.21 101.369C1021.21 98.2687 1018.96 96.6187 1015.76 96.6187C1012.31 96.6187 1009.56 98.5687 1009.66 102.819H1003.06C1003.06 95.5687 1007.71 90.6687 1015.96 90.6687C1023.31 90.6687 1028.46 94.4687 1028.46 100.919C1028.46 104.319 1026.56 107.219 1023.41 108.669Z" fill="white"/>
</g>
</g>
<path d="M898.843 70.2787C898.843 50.124 898.742 50.2237 919.134 50.2237C898.742 50.2237 898.843 50.3234 898.843 30.1687C898.843 50.3234 898.944 50.2237 878.552 50.2237C898.944 50.2237 898.843 50.124 898.843 70.2787Z" fill="white"/>
<defs>
<linearGradient id="paint0_linear_1371_111774" x1="694.032" y1="95.8313" x2="694.032" y2="153.831" gradientUnits="userSpaceOnUse">
<stop stop-color="#D2F739"/>
<stop offset="1" stop-color="#184C1D"/>
</linearGradient>
<linearGradient id="paint1_linear_1371_111774" x1="824.614" y1="57.8313" x2="824.614" y2="153.831" gradientUnits="userSpaceOnUse">
<stop stop-color="#D2F739"/>
<stop offset="1" stop-color="#184C1D"/>
</linearGradient>
<linearGradient id="paint2_linear_1371_111774" x1="960.614" y1="95.8313" x2="960.614" y2="153.831" gradientUnits="userSpaceOnUse">
<stop stop-color="#D2F739"/>
<stop offset="1" stop-color="#184C1D"/>
</linearGradient>
<clipPath id="clip0_1371_111774">
<rect width="132.867" height="57.4644" fill="white" transform="translate(624.552 96.1492)"/>
</clipPath>
<clipPath id="clip1_1371_111774">
<rect width="133" height="96" fill="white" transform="translate(757.614 57.8313)"/>
</clipPath>
<clipPath id="clip2_1371_111774">
<rect width="132.867" height="57.4644" fill="white" transform="translate(891.133 96.1492)"/>
</clipPath>
</defs>
</svg>
