<svg width="19" height="20" viewBox="0 0 19 20" fill="none" xmlns="http://www.w3.org/2000/svg">
<path d="M3.77371 3.81668H14.9356L14.9356 7.70876H3.77371L3.77371 3.81668ZM3.67371 2.94834C3.24937 2.94834 2.90537 3.29234 2.90537 3.71668V7.80876C2.90537 8.2331 3.24937 8.5771 3.67371 8.5771H15.0356C15.4599 8.5771 15.8039 8.2331 15.8039 7.80876V3.71668C15.8039 3.29234 15.4599 2.94834 15.0356 2.94834H3.67371Z" fill="#8EA531" stroke="#8EA531" stroke-width="0.2"/>
<path fill-rule="evenodd" clip-rule="evenodd" d="M4.85742 9.95215C4.30514 9.95215 3.85742 10.3999 3.85742 10.9521C3.85742 11.5044 4.30514 11.9521 4.85742 11.9521C5.40971 11.9521 5.85742 11.5044 5.85742 10.9521C5.85742 10.3999 5.40971 9.95215 4.85742 9.95215Z" fill="#8EA531"/>
<path fill-rule="evenodd" clip-rule="evenodd" d="M9.52393 9.95215C8.97164 9.95215 8.52393 10.3999 8.52393 10.9521C8.52393 11.5044 8.97164 11.9521 9.52393 11.9521C10.0762 11.9521 10.5239 11.5044 10.5239 10.9521C10.5239 10.3999 10.0762 9.95215 9.52393 9.95215Z" fill="#8EA531"/>
<path fill-rule="evenodd" clip-rule="evenodd" d="M14.1909 9.95215C13.6386 9.95215 13.1909 10.3999 13.1909 10.9521C13.1909 11.5044 13.6386 11.9521 14.1909 11.9521C14.7432 11.9521 15.1909 11.5044 15.1909 10.9521C15.1909 10.3999 14.7432 9.95215 14.1909 9.95215Z" fill="#8EA531"/>
<path fill-rule="evenodd" clip-rule="evenodd" d="M4.85742 13.7617C4.30514 13.7617 3.85742 14.2094 3.85742 14.7617C3.85742 15.314 4.30514 15.7617 4.85742 15.7617C5.40971 15.7617 5.85742 15.314 5.85742 14.7617C5.85742 14.2094 5.40971 13.7617 4.85742 13.7617Z" fill="#8EA531"/>
<path fill-rule="evenodd" clip-rule="evenodd" d="M9.52393 13.7617C8.97164 13.7617 8.52393 14.2094 8.52393 14.7617C8.52393 15.314 8.97164 15.7617 9.52393 15.7617C10.0762 15.7617 10.5239 15.314 10.5239 14.7617C10.5239 14.2094 10.0762 13.7617 9.52393 13.7617Z" fill="#8EA531"/>
<path fill-rule="evenodd" clip-rule="evenodd" d="M14.1909 13.7617C13.6386 13.7617 13.1909 14.2094 13.1909 14.7617C13.1909 15.314 13.6386 15.7617 14.1909 15.7617C14.7432 15.7617 15.1909 15.314 15.1909 14.7617C15.1909 14.2094 14.7432 13.7617 14.1909 13.7617Z" fill="#8EA531"/>
<path d="M16.7208 0.9H2.32682C1.94077 0.9 1.58745 1.01781 1.32843 1.21304C1.06936 1.40829 0.9 1.68554 0.9 2V18C0.9 18.3145 1.06936 18.5917 1.32843 18.787C1.58745 18.9822 1.94077 19.1 2.32682 19.1H16.7208C17.1069 19.1 17.4602 18.9822 17.7192 18.787C17.9783 18.5917 18.1476 18.3145 18.1476 18V2C18.1476 1.68554 17.9783 1.40829 17.7192 1.21303C17.4602 1.01781 17.1069 0.9 16.7208 0.9ZM1.76341 2C1.76341 1.90025 1.81682 1.80249 1.9179 1.72631C2.01904 1.65008 2.16328 1.6 2.32682 1.6H16.7208C16.8843 1.6 17.0286 1.65008 17.1297 1.72631C17.2308 1.80249 17.2842 1.90025 17.2842 2V18C17.2842 18.0997 17.2308 18.1975 17.1297 18.2737C17.0286 18.3499 16.8843 18.4 16.7208 18.4H2.32682C2.16328 18.4 2.01904 18.3499 1.9179 18.2737C1.81682 18.1975 1.76341 18.0997 1.76341 18V2Z" fill="#8EA531" stroke="#8EA531" stroke-width="0.2"/>
</svg>
