<svg width="22" height="22" viewBox="0 0 22 22" fill="none" xmlns="http://www.w3.org/2000/svg">
<path d="M3.77371 9.70876L3.77371 5.81668H14.9356L14.9356 9.70876H3.77371ZM3.67371 4.94834C3.24937 4.94834 2.90537 5.29234 2.90537 5.71668V9.80876C2.90537 10.2331 3.24937 10.5771 3.67371 10.5771H15.0356C15.4599 10.5771 15.8039 10.2331 15.8039 9.80876V5.71668C15.8039 5.29234 15.4599 4.94834 15.0356 4.94834H3.67371Z" fill="white" stroke="white" stroke-width="0.2"/>
<path fill-rule="evenodd" clip-rule="evenodd" d="M4.85718 11.9521C4.30489 11.9521 3.85718 12.3999 3.85718 12.9521C3.85718 13.5044 4.30489 13.9521 4.85718 13.9521C5.40946 13.9521 5.85718 13.5044 5.85718 12.9521C5.85718 12.3999 5.40946 11.9521 4.85718 11.9521Z" fill="white"/>
<path fill-rule="evenodd" clip-rule="evenodd" d="M9.52393 11.9521C8.97164 11.9521 8.52393 12.3999 8.52393 12.9521C8.52393 13.5044 8.97164 13.9521 9.52393 13.9521C10.0762 13.9521 10.5239 13.5044 10.5239 12.9521C10.5239 12.3999 10.0762 11.9521 9.52393 11.9521Z" fill="white"/>
<path fill-rule="evenodd" clip-rule="evenodd" d="M14.1904 11.9521C13.6381 11.9521 13.1904 12.3999 13.1904 12.9521C13.1904 13.5044 13.6381 13.9521 14.1904 13.9521C14.7427 13.9521 15.1904 13.5044 15.1904 12.9521C15.1904 12.3999 14.7427 11.9521 14.1904 11.9521Z" fill="white"/>
<path fill-rule="evenodd" clip-rule="evenodd" d="M4.85718 15.7617C4.30489 15.7617 3.85718 16.2094 3.85718 16.7617C3.85718 17.314 4.30489 17.7617 4.85718 17.7617C5.40946 17.7617 5.85718 17.314 5.85718 16.7617C5.85718 16.2094 5.40946 15.7617 4.85718 15.7617Z" fill="white"/>
<path fill-rule="evenodd" clip-rule="evenodd" d="M9.52393 15.7617C8.97164 15.7617 8.52393 16.2094 8.52393 16.7617C8.52393 17.314 8.97164 17.7617 9.52393 17.7617C10.0762 17.7617 10.5239 17.314 10.5239 16.7617C10.5239 16.2094 10.0762 15.7617 9.52393 15.7617Z" fill="white"/>
<path fill-rule="evenodd" clip-rule="evenodd" d="M14.1904 15.7617C13.6381 15.7617 13.1904 16.2094 13.1904 16.7617C13.1904 17.314 13.6381 17.7617 14.1904 17.7617C14.7427 17.7617 15.1904 17.314 15.1904 16.7617C15.1904 16.2094 14.7427 15.7617 14.1904 15.7617Z" fill="white"/>
<path d="M16.7208 2.9H2.32682C1.94077 2.9 1.58745 3.01781 1.32843 3.21304C1.06936 3.40829 0.9 3.68554 0.9 4V20C0.9 20.3145 1.06936 20.5917 1.32843 20.787C1.58745 20.9822 1.94077 21.1 2.32682 21.1H16.7208C17.1069 21.1 17.4602 20.9822 17.7192 20.787C17.9783 20.5917 18.1476 20.3145 18.1476 20V4C18.1476 3.68554 17.9783 3.40829 17.7192 3.21303C17.4602 3.01781 17.1069 2.9 16.7208 2.9ZM1.76341 4C1.76341 3.90025 1.81682 3.80249 1.9179 3.72631C2.01904 3.65008 2.16328 3.6 2.32682 3.6H16.7208C16.8843 3.6 17.0286 3.65008 17.1297 3.72631C17.2308 3.80249 17.2842 3.90025 17.2842 4V20C17.2842 20.0997 17.2308 20.1975 17.1297 20.2737C17.0286 20.3499 16.8843 20.4 16.7208 20.4H2.32682C2.16328 20.4 2.01904 20.3499 1.9179 20.2737C1.81682 20.1975 1.76341 20.0997 1.76341 20V4Z" fill="white" stroke="white" stroke-width="0.2"/>
<circle cx="18.0479" cy="3" r="3" fill="#EBFF25"/>
</svg>
