<svg width="25" height="24" viewBox="0 0 25 24" fill="none" xmlns="http://www.w3.org/2000/svg">
<g clip-path="url(#clip0_1258_38628)">
<path d="M12.249 13C13.906 13 15.249 14.343 15.249 16C15.249 16.85 14.896 17.616 14.329 18.162L12.419 20H15.249V22H9.24902V20.276L12.942 16.721C13.132 16.538 13.249 16.283 13.249 16C13.249 15.448 12.801 15 12.249 15C11.697 15 11.249 15.448 11.249 16H9.24902C9.24902 14.343 10.592 13 12.249 13ZM18.249 13V17H20.249V13H22.249V22H20.249V19H16.249V13H18.249ZM4.24902 12C4.24902 14.527 5.42002 16.78 7.24902 18.246V20.662C4.26002 18.933 2.24902 15.702 2.24902 12H4.24902ZM12.249 2C17.434 2 21.698 5.947 22.199 11H20.187C19.695 7.054 16.329 4 12.249 4C9.49902 4 7.07302 5.387 5.63402 7.5H8.24902V9.5H2.24902V3.5H4.24902V6C6.07302 3.57 8.97802 2 12.249 2Z" fill="#EBFF25"/>
</g>
<defs>
<clipPath id="clip0_1258_38628">
<rect width="24" height="24" fill="white" transform="translate(0.249023)"/>
</clipPath>
</defs>
</svg>
