<svg width="36" height="36" viewBox="0 0 36 36" fill="none" xmlns="http://www.w3.org/2000/svg">
<rect width="36" height="36" rx="4.67532" fill="#383840"/>
<g filter="url(#filter0_d_1343_46312)">
<path fill-rule="evenodd" clip-rule="evenodd" d="M26.77 18.5028L21.2723 23.7278L22.0904 24.546L28.6359 18.0218L22.0904 11.4551L21.2723 12.2733L26.7761 17.5432L7.64551 17.5432V18.5028L26.77 18.5028Z" fill="#EBFF25"/>
<path d="M21.2723 23.7278L21.071 23.516L20.8537 23.7225L21.0656 23.9344L21.2723 23.7278ZM26.77 18.5028L26.9713 18.7146L27.5016 18.2106H26.77V18.5028ZM22.0904 24.546L21.8838 24.7526L22.0901 24.9589L22.2967 24.7529L22.0904 24.546ZM28.6359 18.0218L28.8422 18.2288L29.0492 18.0225L28.8429 17.8156L28.6359 18.0218ZM22.0904 11.4551L22.2974 11.2488L22.0908 11.0415L21.8838 11.2485L22.0904 11.4551ZM21.2723 12.2733L21.0656 12.0666L20.8545 12.2778L21.0702 12.4843L21.2723 12.2733ZM26.7761 17.5432V17.8354H27.5038L26.9782 17.3322L26.7761 17.5432ZM7.64551 17.5432L7.64551 17.251H7.3533V17.5432H7.64551ZM7.64551 18.5028H7.3533V18.795H7.64551L7.64551 18.5028ZM21.4736 23.9396L26.9713 18.7146L26.5687 18.291L21.071 23.516L21.4736 23.9396ZM22.2971 24.3394L21.4789 23.5212L21.0656 23.9344L21.8838 24.7526L22.2971 24.3394ZM28.4296 17.8149L21.8842 24.339L22.2967 24.7529L28.8422 18.2288L28.4296 17.8149ZM21.8835 11.6614L28.429 18.2281L28.8429 17.8156L22.2974 11.2488L21.8835 11.6614ZM21.4789 12.4799L22.2971 11.6617L21.8838 11.2485L21.0656 12.0666L21.4789 12.4799ZM26.9782 17.3322L21.4743 12.0622L21.0702 12.4843L26.574 17.7543L26.9782 17.3322ZM7.64551 17.8354L26.7761 17.8354V17.251L7.64551 17.251L7.64551 17.8354ZM7.93772 18.5028V17.5432H7.3533V18.5028H7.93772ZM26.77 18.2106L7.64551 18.2106L7.64551 18.795L26.77 18.795V18.2106Z" fill="#EBFF25"/>
</g>
<defs>
<filter id="filter0_d_1343_46312" x="1.50936" y="5.19735" width="33.3836" height="25.6058" filterUnits="userSpaceOnUse" color-interpolation-filters="sRGB">
<feFlood flood-opacity="0" result="BackgroundImageFix"/>
<feColorMatrix in="SourceAlpha" type="matrix" values="0 0 0 0 0 0 0 0 0 0 0 0 0 0 0 0 0 0 127 0" result="hardAlpha"/>
<feOffset/>
<feGaussianBlur stdDeviation="2.92208"/>
<feComposite in2="hardAlpha" operator="out"/>
<feColorMatrix type="matrix" values="0 0 0 0 1 0 0 0 0 1 0 0 0 0 1 0 0 0 0.25 0"/>
<feBlend mode="normal" in2="BackgroundImageFix" result="effect1_dropShadow_1343_46312"/>
<feBlend mode="normal" in="SourceGraphic" in2="effect1_dropShadow_1343_46312" result="shape"/>
</filter>
</defs>
</svg>
