<svg width="25" height="24" viewBox="0 0 25 24" fill="none" xmlns="http://www.w3.org/2000/svg">
<g clip-path="url(#clip0_1258_38481)">
<path d="M2.74902 20H22.749V22H2.74902V20ZM4.74902 12H6.74902V19H4.74902V12ZM9.74902 12H11.749V19H9.74902V12ZM13.749 12H15.749V19H13.749V12ZM18.749 12H20.749V19H18.749V12ZM2.74902 7L12.749 2L22.749 7V11H2.74902V7ZM4.74902 8.236V9H20.749V8.236L12.749 4.236L4.74902 8.236ZM12.749 8C12.4838 8 12.2295 7.89464 12.0419 7.70711C11.8544 7.51957 11.749 7.26522 11.749 7C11.749 6.73478 11.8544 6.48043 12.0419 6.29289C12.2295 6.10536 12.4838 6 12.749 6C13.0142 6 13.2686 6.10536 13.4561 6.29289C13.6437 6.48043 13.749 6.73478 13.749 7C13.749 7.26522 13.6437 7.51957 13.4561 7.70711C13.2686 7.89464 13.0142 8 12.749 8Z" fill="#EBFF25"/>
</g>
<defs>
<clipPath id="clip0_1258_38481">
<rect width="24" height="24" fill="white" transform="translate(0.749023)"/>
</clipPath>
</defs>
</svg>
