<svg width="25" height="24" viewBox="0 0 25 24" fill="none" xmlns="http://www.w3.org/2000/svg">
<g clip-path="url(#clip0_1258_39677)">
<path d="M2.27645 12.7216C2.29489 12.7287 2.31386 12.7335 2.33283 12.7393C2.3676 12.7498 2.40237 12.7588 2.43899 12.7646C2.44848 12.7662 2.45743 12.7701 2.46692 12.7712C2.49879 12.7748 2.53014 12.7767 2.56149 12.7767C2.61418 12.7767 2.66634 12.7712 2.71745 12.7609C2.74853 12.7546 2.77751 12.7435 2.80728 12.7337C2.82651 12.7274 2.84627 12.7235 2.86497 12.7158C2.89869 12.7019 2.92978 12.6832 2.96086 12.6647C2.97377 12.6571 2.988 12.6516 3.00064 12.6431C3.04384 12.6141 3.08415 12.5812 3.12103 12.5443L5.14212 10.5232C5.45087 10.2148 5.45087 9.71423 5.14212 9.40574C4.83364 9.09699 4.33311 9.09699 4.02462 9.40574L3.62604 9.80432C4.59918 6.00292 8.05364 3.18414 12.154 3.18414C15.5769 3.18414 18.7157 5.19285 20.1504 8.30194C20.333 8.69815 20.803 8.87097 21.1989 8.6884C21.5954 8.50558 21.7682 8.03587 21.5854 7.63966C19.8933 3.97287 16.1912 1.60352 12.154 1.60352C7.2433 1.60352 3.12077 5.03163 2.04673 9.61939L1.75774 9.14441C1.53066 8.77139 1.04462 8.65284 0.67159 8.88019C0.298826 9.10701 0.180279 9.59331 0.407362 9.96634L1.8863 12.3971C1.8892 12.4018 1.89341 12.4052 1.89631 12.41C1.92081 12.4482 1.949 12.4835 1.97956 12.5169C1.98667 12.5248 1.99247 12.5338 1.99984 12.5414C2.03883 12.5807 2.08177 12.6157 2.1284 12.6463C2.14052 12.6542 2.15395 12.6597 2.1666 12.6671C2.20163 12.6876 2.23799 12.7066 2.27645 12.7216Z" fill="white"/>
<path d="M23.8856 14.0057L22.4067 11.5749C22.4041 11.5704 22.4001 11.567 22.3972 11.5625C22.3722 11.5233 22.3432 11.4869 22.3118 11.4527C22.3055 11.4456 22.3003 11.4374 22.2937 11.4306C22.2547 11.391 22.2115 11.356 22.1649 11.3255C22.153 11.3175 22.1398 11.3123 22.1274 11.3052C22.0919 11.2844 22.0553 11.2654 22.0165 11.2504C21.9981 11.2433 21.9791 11.2388 21.9602 11.233C21.9254 11.2224 21.8906 11.2135 21.854 11.2077C21.8445 11.2061 21.8356 11.2022 21.8258 11.2011C21.8121 11.1995 21.7987 11.2019 21.785 11.2008C21.7671 11.1995 21.7499 11.1953 21.7318 11.1953C21.7157 11.1953 21.7009 11.199 21.6851 11.2001C21.6606 11.2014 21.6367 11.2037 21.6124 11.2074C21.5787 11.2124 21.5466 11.2203 21.5144 11.2296C21.4934 11.2356 21.4725 11.2412 21.4523 11.2488C21.4167 11.2622 21.3832 11.2793 21.3503 11.2975C21.3348 11.3062 21.3187 11.3131 21.3037 11.3228C21.2563 11.3534 21.2117 11.3879 21.172 11.4277L19.1509 13.4488C18.8421 13.7572 18.8421 14.2578 19.1509 14.5663C19.4596 14.875 19.9596 14.875 20.2684 14.5663L20.6669 14.1677C19.6938 17.9691 16.2394 20.7879 12.1389 20.7879C8.59334 20.7879 5.4097 18.6775 4.02824 15.4116C3.85806 15.0096 3.39467 14.8207 2.9924 14.9917C2.59039 15.1619 2.4023 15.6253 2.57248 16.0275C4.20184 19.8795 7.95688 22.3685 12.1389 22.3685C17.0497 22.3685 21.1722 18.9404 22.2463 14.3523L22.5352 14.8273C22.6838 15.0718 22.9444 15.2067 23.211 15.2067C23.3508 15.2067 23.4926 15.1695 23.6211 15.0916C23.9942 14.8647 24.1127 14.3787 23.8856 14.0057Z" fill="white"/>
</g>
<defs>
<clipPath id="clip0_1258_39677">
<rect width="24" height="24" fill="white" transform="translate(0.160156)"/>
</clipPath>
</defs>
</svg>
