<svg width="99" height="92" viewBox="0 0 99 92" fill="none" xmlns="http://www.w3.org/2000/svg">
<g opacity="0.12">
<path d="M11.2194 0.733316H1.8774C1.08864 0.733316 0.449219 1.35525 0.449219 2.12246V11.2091C0.449219 11.9763 1.08864 12.5982 1.8774 12.5982H11.2194C12.0082 12.5982 12.6476 11.9763 12.6476 11.2091V2.12246C12.6476 1.35525 12.0082 0.733316 11.2194 0.733316Z" fill="#EBFF25"/>
<path d="M28.0815 12.5957H18.9916C18.2018 12.5957 17.5634 11.9747 17.5634 11.2066V2.1118C17.5634 1.34368 18.2018 0.722656 18.9916 0.722656H28.0815C29.0056 0.722656 29.7617 1.45808 29.7617 2.35694V10.9533C29.7617 11.8521 29.0056 12.5876 28.0815 12.5876V12.5957Z" fill="#EBFF25"/>
<path d="M45.4246 0.730351H36.0826C35.2938 0.730351 34.6544 1.35229 34.6544 2.11949V11.2061C34.6544 11.9733 35.2938 12.5953 36.0826 12.5953H45.4246C46.2134 12.5953 46.8528 11.9733 46.8528 11.2061V2.11949C46.8528 1.35229 46.2134 0.730351 45.4246 0.730351Z" fill="#EBFF25"/>
<path d="M62.5619 0.730351H53.2198C52.4311 0.730351 51.7917 1.35229 51.7917 2.11949V11.2061C51.7917 11.9733 52.4311 12.5953 53.2198 12.5953H62.5619C63.3506 12.5953 63.99 11.9733 63.99 11.2061V2.11949C63.99 1.35229 63.3506 0.730351 62.5619 0.730351Z" fill="#EBFF25"/>
<path d="M79.7145 17.2707H70.3725C69.5837 17.2707 68.9443 17.8927 68.9443 18.6599V27.7465C68.9443 28.5137 69.5837 29.1356 70.3725 29.1356H79.7145C80.5032 29.1356 81.1427 28.5137 81.1427 27.7465V18.6599C81.1427 17.8927 80.5032 17.2707 79.7145 17.2707Z" fill="#EBFF25"/>
<path d="M62.5619 17.2707H53.2198C52.4311 17.2707 51.7917 17.8927 51.7917 18.6599V27.7465C51.7917 28.5137 52.4311 29.1356 53.2198 29.1356H62.5619C63.3506 29.1356 63.99 28.5137 63.99 27.7465V18.6599C63.99 17.8927 63.3506 17.2707 62.5619 17.2707Z" fill="#EBFF25"/>
<path d="M45.4246 17.2707H36.0826C35.2938 17.2707 34.6544 17.8927 34.6544 18.6599V27.7465C34.6544 28.5137 35.2938 29.1356 36.0826 29.1356H45.4246C46.2134 29.1356 46.8528 28.5137 46.8528 27.7465V18.6599C46.8528 17.8927 46.2134 17.2707 45.4246 17.2707Z" fill="#EBFF25"/>
<path d="M19.2436 17.2707H28.3336C29.1233 17.2707 29.7617 17.8918 29.7617 18.6599V27.7547C29.7617 28.5228 29.1233 29.1438 28.3336 29.1438H19.2436C18.3195 29.1438 17.5634 28.4084 17.5634 27.5095V18.9132C17.5634 18.0143 18.3195 17.2789 19.2436 17.2789V17.2707Z" fill="#EBFF25"/>
<path d="M11.2194 17.2707H1.8774C1.08864 17.2707 0.449219 17.8927 0.449219 18.6599V27.7465C0.449219 28.5137 1.08864 29.1356 1.8774 29.1356H11.2194C12.0082 29.1356 12.6476 28.5137 12.6476 27.7465V18.6599C12.6476 17.8927 12.0082 17.2707 11.2194 17.2707Z" fill="#EBFF25"/>
<path d="M10.9674 33.8005H2.12944C1.20148 33.8005 0.449219 34.5322 0.449219 35.4348V44.0311C0.449219 44.9337 1.20148 45.6654 2.12944 45.6654H10.9674C11.8953 45.6654 12.6476 44.9337 12.6476 44.0311V35.4348C12.6476 34.5322 11.8953 33.8005 10.9674 33.8005Z" fill="#EBFF25"/>
<path d="M28.3336 45.6654H19.2436C18.3195 45.6654 17.5634 44.93 17.5634 44.0311V35.4348C17.5634 34.5359 18.3195 33.8005 19.2436 33.8005H28.3336C29.1233 33.8005 29.7617 34.4216 29.7617 35.1897V44.2845C29.7617 45.0526 29.1233 45.6736 28.3336 45.6736V45.6654Z" fill="#EBFF25"/>
<path d="M45.4246 33.8005H36.0826C35.2938 33.8005 34.6544 34.4225 34.6544 35.1897V44.2763C34.6544 45.0435 35.2938 45.6654 36.0826 45.6654H45.4246C46.2134 45.6654 46.8528 45.0435 46.8528 44.2763V35.1897C46.8528 34.4225 46.2134 33.8005 45.4246 33.8005Z" fill="#EBFF25"/>
<path d="M62.5619 33.8005H53.2198C52.4311 33.8005 51.7917 34.4225 51.7917 35.1897V44.2763C51.7917 45.0435 52.4311 45.6654 53.2198 45.6654H62.5619C63.3506 45.6654 63.99 45.0435 63.99 44.2763V35.1897C63.99 34.4225 63.3506 33.8005 62.5619 33.8005Z" fill="#EBFF25"/>
<path d="M79.7145 33.8005H70.3725C69.5837 33.8005 68.9443 34.4225 68.9443 35.1897V44.2763C68.9443 45.0435 69.5837 45.6654 70.3725 45.6654H79.7145C80.5032 45.6654 81.1427 45.0435 81.1427 44.2763V35.1897C81.1427 34.4225 80.5032 33.8005 79.7145 33.8005Z" fill="#EBFF25"/>
<path d="M96.8209 33.8005H87.4789C86.6902 33.8005 86.0507 34.4225 86.0507 35.1897V44.2763C86.0507 45.0435 86.6902 45.6654 87.4789 45.6654H96.8209C97.6097 45.6654 98.2491 45.0435 98.2491 44.2763V35.1897C98.2491 34.4225 97.6097 33.8005 96.8209 33.8005Z" fill="#EBFF25"/>
<path d="M96.8209 50.3394H87.4789C86.6902 50.3394 86.0507 50.9614 86.0507 51.7286V60.8152C86.0507 61.5824 86.6902 62.2043 87.4789 62.2043H96.8209C97.6097 62.2043 98.2491 61.5824 98.2491 60.8152V51.7286C98.2491 50.9614 97.6097 50.3394 96.8209 50.3394Z" fill="#EBFF25"/>
<path d="M79.7145 50.3394H70.3725C69.5837 50.3394 68.9443 50.9614 68.9443 51.7286V60.8152C68.9443 61.5824 69.5837 62.2043 70.3725 62.2043H79.7145C80.5032 62.2043 81.1427 61.5824 81.1427 60.8152V51.7286C81.1427 50.9614 80.5032 50.3394 79.7145 50.3394Z" fill="#EBFF25"/>
<path d="M62.5619 50.3394H53.2198C52.4311 50.3394 51.7917 50.9614 51.7917 51.7286V60.8152C51.7917 61.5824 52.4311 62.2043 53.2198 62.2043H62.5619C63.3506 62.2043 63.99 61.5824 63.99 60.8152V51.7286C63.99 50.9614 63.3506 50.3394 62.5619 50.3394Z" fill="#EBFF25"/>
<path d="M45.4246 50.3394H36.0826C35.2938 50.3394 34.6544 50.9614 34.6544 51.7286V60.8152C34.6544 61.5824 35.2938 62.2043 36.0826 62.2043H45.4246C46.2134 62.2043 46.8528 61.5824 46.8528 60.8152V51.7286C46.8528 50.9614 46.2134 50.3394 45.4246 50.3394Z" fill="#EBFF25"/>
<path d="M19.2436 50.3394H28.3336C29.1233 50.3394 29.7617 50.9605 29.7617 51.7286V60.8234C29.7617 61.5915 29.1233 62.2125 28.3336 62.2125H19.2436C18.3195 62.2125 17.5634 61.4771 17.5634 60.5782V51.9819C17.5634 51.083 18.3195 50.3476 19.2436 50.3476V50.3394Z" fill="#EBFF25"/>
<path d="M11.2194 50.3394H1.8774C1.08864 50.3394 0.449219 50.9614 0.449219 51.7286V60.8152C0.449219 61.5824 1.08864 62.2043 1.8774 62.2043H11.2194C12.0082 62.2043 12.6476 61.5824 12.6476 60.8152V51.7286C12.6476 50.9614 12.0082 50.3394 11.2194 50.3394Z" fill="#EBFF25"/>
<path d="M11.2194 66.8702H1.8774C1.08864 66.8702 0.449219 67.4921 0.449219 68.2593V77.346C0.449219 78.1132 1.08864 78.7351 1.8774 78.7351H11.2194C12.0082 78.7351 12.6476 78.1132 12.6476 77.346V68.2593C12.6476 67.4921 12.0082 66.8702 11.2194 66.8702Z" fill="#EBFF25"/>
<path d="M28.3336 78.7351H19.2436C18.3195 78.7351 17.5634 77.9997 17.5634 77.1008V68.5045C17.5634 67.6056 18.3195 66.8702 19.2436 66.8702H28.3336C29.1233 66.8702 29.7617 67.4912 29.7617 68.2593V77.3541C29.7617 78.1223 29.1233 78.7433 28.3336 78.7433V78.7351Z" fill="#EBFF25"/>
<path d="M45.4246 66.8702H36.0826C35.2938 66.8702 34.6544 67.4921 34.6544 68.2593V77.346C34.6544 78.1132 35.2938 78.7351 36.0826 78.7351H45.4246C46.2134 78.7351 46.8528 78.1132 46.8528 77.346V68.2593C46.8528 67.4921 46.2134 66.8702 45.4246 66.8702Z" fill="#EBFF25"/>
<path d="M62.5619 66.8702H53.2198C52.4311 66.8702 51.7917 67.4921 51.7917 68.2593V77.346C51.7917 78.1132 52.4311 78.7351 53.2198 78.7351H62.5619C63.3506 78.7351 63.99 78.1132 63.99 77.346V68.2593C63.99 67.4921 63.3506 66.8702 62.5619 66.8702Z" fill="#EBFF25"/>
<path d="M79.7145 66.8702H70.3725C69.5837 66.8702 68.9443 67.4921 68.9443 68.2593V77.346C68.9443 78.1132 69.5837 78.7351 70.3725 78.7351H79.7145C80.5032 78.7351 81.1427 78.1132 81.1427 77.346V68.2593C81.1427 67.4921 80.5032 66.8702 79.7145 66.8702Z" fill="#EBFF25"/>
<path d="M62.5619 83.4082H53.2198C52.4311 83.4082 51.7917 84.0301 51.7917 84.7973V93.8839C51.7917 94.6511 52.4311 95.2731 53.2198 95.2731H62.5619C63.3506 95.2731 63.99 94.6511 63.99 93.8839V84.7973C63.99 84.0301 63.3506 83.4082 62.5619 83.4082Z" fill="#EBFF25"/>
<path d="M45.4246 83.4082H36.0826C35.2938 83.4082 34.6544 84.0301 34.6544 84.7973V93.8839C34.6544 94.6511 35.2938 95.2731 36.0826 95.2731H45.4246C46.2134 95.2731 46.8528 94.6511 46.8528 93.8839V84.7973C46.8528 84.0301 46.2134 83.4082 45.4246 83.4082Z" fill="#EBFF25"/>
<path d="M19.2436 83.4082H28.3336C29.1233 83.4082 29.7617 84.0292 29.7617 84.7973V93.8921C29.7617 94.6602 29.1233 95.2812 28.3336 95.2812H19.2436C18.3195 95.2812 17.5634 94.5458 17.5634 93.647V85.0506C17.5634 84.1518 18.3195 83.4164 19.2436 83.4164V83.4082Z" fill="#EBFF25"/>
<path d="M11.2194 83.4082H1.8774C1.08864 83.4082 0.449219 84.0301 0.449219 84.7973V93.8839C0.449219 94.6511 1.08864 95.2731 1.8774 95.2731H11.2194C12.0082 95.2731 12.6476 94.6511 12.6476 93.8839V84.7973C12.6476 84.0301 12.0082 83.4082 11.2194 83.4082Z" fill="#EBFF25"/>
</g>
</svg>
