<svg width="25" height="30" viewBox="0 0 25 30" fill="none" xmlns="http://www.w3.org/2000/svg">
<g filter="url(#filter0_d_1258_39958)">
<path fill-rule="evenodd" clip-rule="evenodd" d="M12.1152 21.5901L8.125 17.3916L7.5 18.0166L12.4837 23.0166L17.5 18.0166L16.875 17.3916L12.8482 21.5971L12.8482 6.98242L12.1152 6.98242L12.1152 21.5901Z" fill="#EBFF25"/>
<path d="M8.125 17.3916L8.48743 17.0472L8.13411 16.6754L7.77145 17.038L8.125 17.3916ZM12.1152 21.5901L11.7528 21.9346L12.6152 22.842L12.6152 21.5901L12.1152 21.5901ZM7.5 18.0166L7.14645 17.663L6.79347 18.016L7.14587 18.3696L7.5 18.0166ZM12.4837 23.0166L12.1296 23.3696L12.4826 23.7237L12.8367 23.3708L12.4837 23.0166ZM17.5 18.0166L17.853 18.3707L18.2077 18.0172L17.8536 17.663L17.5 18.0166ZM16.875 17.3916L17.2286 17.038L16.8672 16.6767L16.5139 17.0458L16.875 17.3916ZM12.8482 21.5971L12.3482 21.5971L12.3482 22.8422L13.2094 21.9429L12.8482 21.5971ZM12.8482 6.98242L13.3482 6.98242L13.3482 6.48242L12.8482 6.48242L12.8482 6.98242ZM12.1152 6.98242L12.1152 6.48242L11.6152 6.48242L11.6152 6.98242L12.1152 6.98242ZM7.76257 17.736L11.7528 21.9346L12.4777 21.2457L8.48743 17.0472L7.76257 17.736ZM7.85355 18.3702L8.47855 17.7452L7.77145 17.038L7.14645 17.663L7.85355 18.3702ZM12.8378 22.6637L7.85413 17.6636L7.14587 18.3696L12.1296 23.3696L12.8378 22.6637ZM17.147 17.6625L12.1307 22.6625L12.8367 23.3708L17.853 18.3707L17.147 17.6625ZM16.5214 17.7452L17.1464 18.3702L17.8536 17.663L17.2286 17.038L16.5214 17.7452ZM13.2094 21.9429L17.2361 17.7374L16.5139 17.0458L12.4871 21.2513L13.2094 21.9429ZM12.3482 6.98242L12.3482 21.5971L13.3482 21.5971L13.3482 6.98242L12.3482 6.98242ZM12.1152 7.48242L12.8482 7.48242L12.8482 6.48242L12.1152 6.48242L12.1152 7.48242ZM12.6152 21.5901L12.6152 6.98242L11.6152 6.98242L11.6152 21.5901L12.6152 21.5901Z" fill="#EBFF25"/>
</g>
<defs>
<filter id="filter0_d_1258_39958" x="0.949301" y="0.638266" width="23.1026" height="28.9295" filterUnits="userSpaceOnUse" color-interpolation-filters="sRGB">
<feFlood flood-opacity="0" result="BackgroundImageFix"/>
<feColorMatrix in="SourceAlpha" type="matrix" values="0 0 0 0 0 0 0 0 0 0 0 0 0 0 0 0 0 0 127 0" result="hardAlpha"/>
<feOffset/>
<feGaussianBlur stdDeviation="2.92208"/>
<feComposite in2="hardAlpha" operator="out"/>
<feColorMatrix type="matrix" values="0 0 0 0 1 0 0 0 0 1 0 0 0 0 1 0 0 0 0.25 0"/>
<feBlend mode="normal" in2="BackgroundImageFix" result="effect1_dropShadow_1258_39958"/>
<feBlend mode="normal" in="SourceGraphic" in2="effect1_dropShadow_1258_39958" result="shape"/>
</filter>
</defs>
</svg>
