<svg width="24" height="24" viewBox="0 0 24 24" fill="none" xmlns="http://www.w3.org/2000/svg">
<path fill-rule="evenodd" clip-rule="evenodd" d="M11.8456 11.3101C10.5139 11.3101 9.43457 12.3891 9.43457 13.7221C9.43457 15.0538 10.5138 16.1331 11.8456 16.1331C13.1777 16.1331 14.2576 15.0535 14.2576 13.7221C14.2576 12.3894 13.1775 11.3101 11.8456 11.3101ZM7.93457 13.7221C7.93457 11.561 9.6852 9.81006 11.8456 9.81006C14.0056 9.81006 15.7576 11.5607 15.7576 13.7221C15.7576 15.8826 14.0055 17.6331 11.8456 17.6331C9.68536 17.6331 7.93457 15.8823 7.93457 13.7221Z" fill="white"/>
<path fill-rule="evenodd" clip-rule="evenodd" d="M1.91947 13.3995C3.97449 9.07345 7.68595 6.36843 11.8449 6.3667C11.8463 6.3667 11.8476 6.3667 11.8489 6.3667V7.8667C11.8483 7.8667 11.8476 7.8667 11.8469 7.8667C11.8463 7.8667 11.8456 7.8667 11.8449 7.8667M11.8469 7.8667C15.3016 7.86757 18.5535 10.1151 20.4195 14.0431L20.7413 14.7205L22.0962 14.0769L21.7744 13.3995C19.7193 9.07345 16.0079 6.36843 11.8489 6.3667M11.8469 7.8667C8.39225 7.86757 5.14033 10.1151 3.27437 14.0431L2.95255 14.7205L1.59766 14.0769L1.91947 13.3995" fill="white"/>
</svg>
