<svg width="24" height="24" viewBox="0 0 24 24" fill="none" xmlns="http://www.w3.org/2000/svg">
<path fill-rule="evenodd" clip-rule="evenodd" d="M20.1812 5.64528L19.076 4.54004L16.5892 7.02688C15.1805 6.23888 13.6262 5.81026 12.002 5.80957H11.998C7.94022 5.81128 4.31903 8.48396 2.31399 12.7583L2 13.4276L3.32194 14.0635L3.63593 13.3942C3.9873 12.6452 4.38903 11.958 4.83283 11.3367L12 7.29164C13.2078 7.29195 14.3902 7.57728 15.4941 8.12191L13.8632 9.75289C13.8626 9.75259 13.8621 9.75229 13.8616 9.75199L12.7642 10.8495C12.7647 10.8497 12.7653 10.8499 12.7659 10.8501L9.73766 13.8784C9.73744 13.8778 9.73722 13.8772 9.737 13.8766L8.63948 14.9741C8.63978 14.9746 8.64007 14.9752 8.64037 14.9757L5.26054 18.3555L6.36578 19.4607L20.1812 5.64528ZM4.83318 11.3362L4.83283 11.3367L2.31399 12.7583L4.83318 11.3362ZM11.998 7.29164C9.2788 7.29302 6.68845 8.73911 4.83318 11.3362L11.998 7.29164ZM12 7.29164L12.002 5.80957V7.29164L12 7.29164ZM18.0407 9.98943C18.9448 10.9108 19.7351 12.0534 20.3641 13.3942L20.6781 14.0635L22 13.4276L21.686 12.7583C20.994 11.2831 20.1095 9.99871 19.081 8.94905L18.0407 9.98943ZM12.3266 10.7344C12.2031 10.7144 12.0763 10.704 11.947 10.704C10.6462 10.704 9.59174 11.7581 9.59174 13.0602C9.59174 13.1892 9.60209 13.3157 9.62201 13.439L8.45286 14.6081C8.24299 14.135 8.12638 13.6112 8.12638 13.0602C8.12638 10.9491 9.83658 9.23861 11.947 9.23861C12.4982 9.23861 13.0222 9.3553 13.4956 9.56535L12.3266 10.7344ZM15.7616 12.8256L11.7133 16.8739C11.7906 16.8785 11.8686 16.8809 11.947 16.8809C14.0571 16.8809 15.7687 15.1709 15.7687 13.0602C15.7687 12.9814 15.7663 12.9032 15.7616 12.8256Z" fill="white"/>
</svg>
