<svg width="127" height="92" viewBox="0 0 127 92" fill="none" xmlns="http://www.w3.org/2000/svg">
<g clip-path="url(#clip0_1258_38196)">
<path opacity="0.1" d="M96.865 43.3004C95.807 45.769 93.8085 48.0026 91.1047 49.8835L107.68 59.523L93.5734 63.5199L80.2896 55.8788C74.2943 57.9948 67.9463 58.7001 61.3632 58.3475C54.7801 57.8772 48.6672 56.7017 43.0245 54.9384L36.2558 88.6009L20.1348 78.6659L25.3912 55.8788C26.2141 52.5872 26.6843 50.2361 26.6843 48.4728C26.6843 46.827 25.5088 45.4164 23.3928 44.1233L32.327 38.9508L39.6154 43.1828C43.965 45.6515 48.4321 47.4148 52.8992 48.2377C57.3663 49.0606 61.951 48.8255 66.3005 47.6499L39.6154 32.2502L53.7221 28.2533L76.9981 41.6546C78.879 39.7737 79.5843 37.7753 79.1141 35.8944C78.5263 33.896 76.6454 31.78 73.3539 29.664L58.5419 21.0824L72.6485 17.2031L126.606 48.3553L112.5 52.2346L96.865 43.1828V43.3004Z" fill="#D7D7D7"/>
<path d="M61.4291 16.3338L49.209 9.25391V23.8017L61.3322 30.8816C63.9508 32.6273 65.5995 34.2761 66.0844 36.0218V21.474C65.6965 19.8253 64.0477 18.0796 61.4291 16.3338Z" fill="#1D974F"/>
<mask id="mask0_1258_38196" style="mask-type:luminance" maskUnits="userSpaceOnUse" x="66" y="21" width="1" height="16">
<path d="M66.278 22.4438V36.9916C66.278 36.9916 66.278 36.3127 66.084 35.9247V21.377C66.084 21.377 66.278 22.0558 66.278 22.4438Z" fill="white"/>
</mask>
<g mask="url(#mask0_1258_38196)">
<path d="M66.2799 22.4438V36.9916C66.2799 36.9916 66.2799 36.3127 66.0859 35.9247V21.377C66.0859 21.377 66.2799 22.0558 66.2799 22.4438Z" fill="#6B5F5F"/>
</g>
<path d="M55.6075 31.0703V45.6181L33.5918 32.913V18.3652L55.6075 31.0703Z" fill="#1D974F"/>
<mask id="mask1_1258_38196" style="mask-type:luminance" maskUnits="userSpaceOnUse" x="20" y="28" width="3" height="19">
<path d="M22.9246 31.8502V46.3979C22.8276 45.0402 21.9547 43.8763 20.209 42.8095V28.2617C21.9547 29.2316 22.8276 30.4924 22.9246 31.8502Z" fill="white"/>
</mask>
<g mask="url(#mask1_1258_38196)">
<path d="M22.9246 31.8502V46.3979C22.8276 45.0402 21.9547 43.8763 20.209 42.8095V28.2617C21.9547 29.2316 22.8276 30.4924 22.9246 31.8502Z" fill="#1D974F"/>
</g>
<mask id="mask2_1258_38196" style="mask-type:luminance" maskUnits="userSpaceOnUse" x="22" y="31" width="1" height="16">
<path d="M22.931 31.8496L22.834 46.4944V46.3974L22.931 31.8496Z" fill="white"/>
</mask>
<g mask="url(#mask2_1258_38196)">
<path d="M22.931 31.8496L22.834 46.4944V46.3974L22.931 31.8496Z" fill="#6B5F5F"/>
</g>
<path d="M79.0834 30.2019C79.0834 30.2019 78.7924 30.4929 78.6954 30.6868C77.9196 31.4627 77.1437 32.2386 76.1738 32.9175V47.4653C76.7557 46.9803 77.4346 46.4954 77.9196 46.0105C78.2105 45.7195 78.4045 45.5256 78.5985 45.2346C78.7924 45.0406 78.8894 44.9437 78.9864 44.7497C79.0834 44.6527 79.2774 44.4587 79.3743 44.3617C79.7623 43.8768 80.0532 43.3919 80.3442 42.907C80.5382 42.616 80.6352 42.3251 80.7321 42.0341V27.4863C80.3442 28.4562 79.7623 29.329 78.9864 30.2019H79.0834Z" fill="#36D068"/>
<path d="M93.8203 34.9542L93.7233 49.5989L80.8242 42.1311V27.4863L93.8203 34.9542Z" fill="#1D974F"/>
<path d="M105.363 31.7578V46.3056L93.7246 49.6031L93.8216 34.9583L105.363 31.7578Z" fill="#36D068"/>
<path d="M59.8767 39.4168C59.8767 39.4168 59.4888 39.4168 59.2948 39.4168C56.7732 39.7077 54.1546 39.8047 51.536 39.6107C49.0144 39.4168 46.5897 39.1258 44.2621 38.6409C43.9711 38.6409 43.6802 38.5439 43.3892 38.4469C40.9646 37.962 38.6369 37.3801 36.4062 36.7012V51.2489C37.0851 51.4429 37.764 51.7339 38.4429 51.9278C39.8007 52.3158 41.0615 52.6067 42.5163 52.8977C42.8073 52.8977 43.0982 52.8977 43.2922 52.9947C43.5832 52.9947 43.8741 53.0917 44.1651 53.1887C44.941 53.2856 45.7168 53.4796 46.4927 53.5766C47.8505 53.7706 49.3053 53.9645 50.7601 54.0615C50.9541 54.0615 51.245 54.0615 51.439 54.0615C52.0209 54.0615 52.6028 54.0615 53.1847 54.0615C54.0576 54.0615 54.8335 54.0615 55.7063 54.0615C56.5792 54.0615 57.4521 54.0615 58.3249 53.8675C58.6159 53.8675 58.9069 53.8675 59.1978 53.7706C59.3918 53.7706 59.5858 53.7706 59.7797 53.7706C60.3616 53.7706 60.8466 53.6736 61.4285 53.5766C63.0772 53.2856 64.629 52.8977 66.2778 52.4128C66.5687 52.4128 66.8597 52.2188 67.1506 52.1218V37.574C64.823 38.3499 62.3983 38.9318 59.8767 39.3198V39.4168Z" fill="#36D068"/>
<path d="M78.1078 44.0677V58.6155L67.1484 52.3114V37.7637L78.1078 44.0677Z" fill="#1D974F"/>
<path d="M89.8427 40.7734L89.7457 55.4182L78.1074 58.6187V44.0709L89.8427 40.7734Z" fill="#36D068"/>
<path d="M36.4112 36.8906V51.5354L28.9434 83.9284V69.3807L36.4112 36.8906Z" fill="#36D068"/>
<path d="M80.824 27.4897C79.9512 29.5264 78.3024 31.3691 76.0717 32.9209L89.7467 40.8736L78.1084 44.1711L67.1491 37.8671C62.2028 39.6128 56.9656 40.1947 51.5344 39.9038C46.1033 39.5159 41.06 38.546 36.4047 37.0912L28.9368 69.5813L16.1348 62.0164L21.8569 37.8671C22.5358 35.1515 22.9237 33.2118 22.9237 31.757C22.9237 30.3992 21.9539 29.2354 20.2082 28.1686L27.579 23.9012L33.5921 27.3927C37.1806 29.4294 40.866 30.8842 44.5515 31.5631C48.2369 32.242 52.0194 32.048 55.6078 31.0781L33.5921 18.3731L45.2304 15.0756L64.4335 26.1319C65.9853 24.5801 66.5672 22.9314 66.1792 21.3796C65.6943 19.7309 64.1425 17.9851 61.4269 16.2394L49.2068 9.15949L60.845 5.95898L105.361 31.6601L93.7231 34.8606L80.824 27.3927V27.4897Z" fill="url(#paint0_linear_1258_38196)"/>
<path d="M28.9368 69.3787V83.9265L16.1348 76.5556V62.0078L28.9368 69.3787Z" fill="#1D974F"/>
<path d="M107.212 23.9536C107.212 23.9536 106.156 28.0616 106.166 29.052C106.175 30.0423 105.526 31.8986 108.2 32.9844C108.2 32.9844 111.307 34.1127 112.159 34.2083C112.159 34.2083 108.891 33.4116 107.992 33.4124C107.093 33.4131 105.308 33.1839 104.121 36.8729L102.991 40.925C102.991 40.925 103.992 36.6321 104.048 35.7598C104.104 34.8874 104.599 32.8103 101.777 31.7897L98.2607 30.7125C98.2607 30.7125 101.105 31.5074 102.823 31.4738C104.54 31.4402 105.797 29.4815 107.212 23.9536Z" fill="#33B568" stroke="#33B568" stroke-width="0.186106" stroke-miterlimit="10"/>
<path d="M6.47068 43.3693C6.47068 43.3693 5.98902 45.2431 5.99339 45.6948C5.99776 46.1465 5.70146 46.9932 6.92107 47.4884C6.92107 47.4884 8.3384 48.0031 8.72716 48.0467C8.72716 48.0467 7.23622 47.6833 6.82626 47.6836C6.4163 47.684 5.60232 47.5794 5.06072 49.262L4.54541 51.1103C4.54541 51.1103 5.00164 49.1522 5.02736 48.7543C5.05308 48.3564 5.27874 47.409 3.9916 46.9435L2.38768 46.4522C2.38768 46.4522 3.68508 46.8147 4.46852 46.7994C5.25197 46.7841 5.8253 45.8907 6.47068 43.3693Z" fill="#33B568" stroke="#33B568" stroke-width="0.186106" stroke-miterlimit="10"/>
<ellipse cx="16.1404" cy="21.7263" rx="0.898171" ry="0.898168" fill="#33B568"/>
<ellipse cx="67.8088" cy="72.6506" rx="1.45141" ry="1.45141" fill="#33B568"/>
<ellipse cx="60.1272" cy="2.42012" rx="2.51192" ry="2.51192" fill="#33B568"/>
</g>
<defs>
<linearGradient id="paint0_linear_1258_38196" x1="61.1304" y1="7.68996" x2="61.1304" y2="69.5805" gradientUnits="userSpaceOnUse">
<stop offset="0.4375" stop-color="#D4F938"/>
<stop offset="1" stop-color="#32D875" stop-opacity="0.96"/>
</linearGradient>
<clipPath id="clip0_1258_38196">
<rect width="126.606" height="91.9999" fill="white"/>
</clipPath>
</defs>
</svg>
