<svg width="25" height="24" viewBox="0 0 25 24" fill="none" xmlns="http://www.w3.org/2000/svg">
<g clip-path="url(#clip0_1258_38752)">
<path d="M12.249 22C6.72602 22 2.24902 17.523 2.24902 12C2.24902 6.477 6.72602 2 12.249 2C17.772 2 22.249 6.477 22.249 12C22.249 17.523 17.772 22 12.249 22ZM12.249 20C14.3708 20 16.4056 19.1571 17.9059 17.6569C19.4062 16.1566 20.249 14.1217 20.249 12C20.249 9.87827 19.4062 7.84344 17.9059 6.34315C16.4056 4.84285 14.3708 4 12.249 4C10.1273 4 8.09246 4.84285 6.59217 6.34315C5.09188 7.84344 4.24902 9.87827 4.24902 12C4.24902 14.1217 5.09188 16.1566 6.59217 17.6569C8.09246 19.1571 10.1273 20 12.249 20Z" fill="#EBFF25"/>
<path d="M13.1992 10.9316C13.1354 11.5241 12.9053 12.0026 12.5088 12.3672C12.1123 12.7318 11.5176 12.9733 10.7246 13.0918L13.6846 16.5645H12.249L9.2959 13.1123L9.43262 12.1143H10.0615C10.2848 12.1143 10.4808 12.1051 10.6494 12.0869C10.818 12.0687 10.9639 12.0436 11.0869 12.0117C11.2145 11.9753 11.3239 11.932 11.415 11.8818C11.5062 11.8271 11.5905 11.7656 11.668 11.6973C11.8685 11.5059 11.9984 11.2507 12.0576 10.9316H9.2959V9.93359H12.0439C12.0075 9.75586 11.9482 9.60547 11.8662 9.48242C11.7887 9.35482 11.6862 9.24089 11.5586 9.14062C11.431 9.04036 11.2624 8.96745 11.0527 8.92188C10.8477 8.8763 10.5719 8.85352 10.2256 8.85352H9.2959V7.85547H15.2021V8.85352H12.5771C12.7367 8.96745 12.8688 9.11784 12.9736 9.30469C13.0785 9.49154 13.1514 9.70117 13.1924 9.93359H15.2021V10.9316H13.1992Z" fill="#EBFF25" stroke="#EBFF25" stroke-width="0.3"/>
</g>
<defs>
<clipPath id="clip0_1258_38752">
<rect width="24" height="24" fill="white" transform="translate(0.249023)"/>
</clipPath>
</defs>
</svg>
