<svg width="127" height="92" viewBox="0 0 127 92" fill="none" xmlns="http://www.w3.org/2000/svg">
<g clip-path="url(#clip0_1258_38085)">
<path opacity="0.1" d="M72.0899 60.303C86.3053 69.3046 94.5696 77.4735 91.0517 79.5176C87.5339 81.5618 73.3908 76.7975 57.8175 68.5937L32.2498 83.4527L18.9727 75.7869L44.5292 60.9347C30.2874 51.9186 21.9967 43.731 25.5172 41.6851C29.0385 39.6393 43.2028 44.4129 58.8102 52.6363L66.7816 48.004L48.4166 37.401L60.5802 30.332L110.595 59.2081L98.4314 66.2771L80.0613 55.6706L72.0899 60.303ZM59.9868 67.3362C73.7229 74.5916 85.8234 78.9353 88.5478 77.3526C91.2756 75.7673 83.7342 68.7716 71.1517 60.8325L62.2429 66.0097C61.8385 65.8182 59.619 64.7327 55.5222 62.3675C52.1099 60.3975 49.7848 58.8846 48.9828 58.3508L57.8949 53.1719C44.1197 45.8969 31.997 41.537 29.2641 43.1248C26.5337 44.7117 34.0973 51.7203 46.7104 59.6712C47.521 60.1872 49.8444 61.6447 53.2575 63.6148C57.5501 66.0932 59.5849 67.137 59.9868 67.3362Z" fill="#D7D7D7"/>
<path d="M60.5867 28.9097L60.5466 43.1719L42.1816 32.5689L42.2217 18.3066L60.5867 28.9097Z" fill="#1D974F"/>
<mask id="mask0_1258_38085" style="mask-type:luminance" maskUnits="userSpaceOnUse" x="22" y="23" width="30" height="26">
<path d="M22.4736 39.2368L22.5136 24.9746C22.5145 24.5651 22.6958 24.2458 23.0696 24.0287C25.8025 22.4409 37.9252 26.7999 51.7005 34.0758L51.6605 48.338C37.8852 41.063 25.7625 36.7031 23.0296 38.2909C22.6558 38.5089 22.4753 38.8273 22.4736 39.2368Z" fill="white"/>
</mask>
<g mask="url(#mask0_1258_38085)">
<path d="M51.7009 34.0756L51.6609 48.3378C46.0189 45.358 40.6543 42.8677 36.0986 41.0747L36.1386 26.8125C40.6944 28.6055 46.0589 31.0958 51.7009 34.0756Z" fill="#1D974F"/>
<path d="M36.1376 26.8111L36.0976 41.0734C33.7708 40.1573 31.6551 39.4234 29.8213 38.8989L29.8613 24.6367C31.6952 25.162 33.8108 25.8959 36.1376 26.8111Z" fill="#1D974F"/>
<path d="M29.8627 24.6391L29.8227 38.9013C28.9781 38.6595 28.1923 38.4629 27.4746 38.313L27.5146 24.0508C28.2323 24.2006 29.0173 24.3973 29.8627 24.6391Z" fill="#1D974F"/>
<path d="M27.5137 24.0497L27.4737 38.312C27.0394 38.2217 26.6291 38.1476 26.2451 38.0923L26.2851 23.8301C26.6691 23.8854 27.0795 23.9586 27.5137 24.0497Z" fill="#1D974F"/>
<path d="M26.2847 23.8302L26.2447 38.0925C25.9688 38.0524 25.7066 38.0218 25.458 38.0005L25.498 23.7383C25.7466 23.7596 26.0088 23.7902 26.2847 23.8302Z" fill="#1D974F"/>
<path d="M25.4979 23.7383L25.4578 38.0005C25.2552 37.9835 25.062 37.9724 24.8789 37.9673L24.9189 23.7051C25.1028 23.7102 25.2952 23.7213 25.4979 23.7383Z" fill="#1D974F"/>
<path d="M24.9185 23.7059L24.8785 37.9682C24.7372 37.9647 24.601 37.9647 24.4707 37.969L24.5107 23.7068C24.641 23.7025 24.7772 23.7017 24.9185 23.7059Z" fill="#1D974F"/>
<path d="M24.5118 23.707L24.4718 37.9693C24.3424 37.9735 24.2181 37.9812 24.1006 37.9931L24.1406 23.7309C24.2581 23.719 24.3824 23.7113 24.5118 23.707Z" fill="#1D974F"/>
<path d="M24.1401 23.7305L24.1 37.9927C23.9774 38.0046 23.8608 38.0216 23.751 38.0421L23.791 23.7798C23.9008 23.7594 24.0166 23.7432 24.1401 23.7305Z" fill="#1D974F"/>
<path d="M23.7914 23.7793L23.7513 38.0415C23.5061 38.0875 23.2941 38.1548 23.1162 38.2441L23.1562 23.9819C23.3342 23.8934 23.5462 23.8253 23.7914 23.7793Z" fill="#1D974F"/>
<path d="M23.1565 23.9824L23.1165 38.2446C23.0867 38.2591 23.0586 38.2753 23.0305 38.2906C23.0262 38.2932 23.022 38.2957 23.0186 38.2974L23.0586 24.0352C23.0628 24.0327 23.0662 24.0301 23.0705 24.0284C23.0977 24.0122 23.1267 23.9969 23.1565 23.9824Z" fill="#1D974F"/>
<path d="M23.0575 24.0352L23.0175 38.2974C22.9485 38.3383 22.8864 38.3825 22.8311 38.4302L22.8711 24.168C22.9264 24.1203 22.9886 24.076 23.0575 24.0352Z" fill="#1D974F"/>
<path d="M22.8714 24.168L22.8314 38.4302C22.7769 38.477 22.7292 38.5264 22.6875 38.58L22.7275 24.3178C22.7692 24.2642 22.8169 24.2139 22.8714 24.168Z" fill="#1D974F"/>
<path d="M22.7278 24.3184L22.6878 38.5806C22.6563 38.6206 22.6282 38.6632 22.6035 38.7066L22.6435 24.4444C22.6682 24.4009 22.6963 24.3584 22.7278 24.3184Z" fill="#1D974F"/>
<path d="M22.6431 24.4453L22.603 38.7075C22.5784 38.751 22.5579 38.7969 22.54 38.8446L22.5801 24.5824C22.5979 24.5347 22.6192 24.4896 22.6431 24.4453Z" fill="#1D974F"/>
<path d="M22.5801 24.5801L22.5401 38.8423C22.5205 38.8959 22.5052 38.9521 22.4941 39.01L22.5342 24.7478C22.5452 24.6899 22.5605 24.6337 22.5801 24.5801Z" fill="#1D974F"/>
<path d="M22.5341 24.748L22.4941 39.0103C22.4813 39.0775 22.4745 39.1473 22.4736 39.2197L22.5136 24.9575C22.5145 24.8851 22.5213 24.8145 22.5341 24.748Z" fill="#8D9916"/>
<path d="M22.5136 24.957L22.4736 39.2193C22.4736 39.2244 22.4736 39.2303 22.4736 39.2354L22.5136 24.9732C22.5136 24.9681 22.5136 24.9621 22.5136 24.957Z" fill="#889415"/>
</g>
<mask id="mask1_1258_38085" style="mask-type:luminance" maskUnits="userSpaceOnUse" x="18" y="23" width="21" height="34">
<path d="M18.4756 38.2232L18.5156 23.9609C18.5062 27.1885 26.2938 34.2192 38.3356 41.8424L38.2947 56.1046C26.2538 48.4814 18.4662 41.4499 18.4756 38.2232Z" fill="white"/>
</mask>
<g mask="url(#mask1_1258_38085)">
<path d="M38.3356 41.8424L38.2956 56.1046C26.2538 48.4814 18.4662 41.4499 18.4756 38.2232L18.5156 23.9609C18.5071 27.1876 26.2946 34.2192 38.3356 41.8424Z" fill="#1D974F"/>
</g>
<mask id="mask2_1258_38085" style="mask-type:luminance" maskUnits="userSpaceOnUse" x="42" y="39" width="15" height="23">
<path d="M56.0472 46.9187L56.0072 61.181C55.6028 60.9894 53.3833 59.9039 49.2865 57.5388C45.8742 55.5687 43.5491 54.0558 42.7471 53.522L42.7871 39.2598C43.5891 39.7936 45.9133 41.3056 49.3265 43.2766C53.4233 45.6417 55.642 46.7263 56.0472 46.9187Z" fill="white"/>
</mask>
<g mask="url(#mask2_1258_38085)">
<path d="M56.0472 46.9187L56.0072 61.181C55.6028 60.9894 53.3833 59.9039 49.2865 57.5388C45.8742 55.5687 43.5491 54.0558 42.7471 53.522L42.7871 39.2598C43.5891 39.7936 45.9133 41.3056 49.3265 43.2766C53.4233 45.6417 55.642 46.7263 56.0472 46.9187Z" fill="#1D974F"/>
</g>
<path d="M64.9575 41.7363L64.9174 55.9994L56.0078 61.1766L56.0487 46.9144L64.9575 41.7363Z" fill="#36D068"/>
<path d="M104.399 40.1133L104.359 54.3755L92.1953 61.4445L92.2353 47.1822L104.399 40.1133Z" fill="#36D068"/>
<path d="M92.2352 47.1826L92.1952 61.4448L73.8242 50.8384L73.8651 36.5762L92.2352 47.1826Z" fill="#1D974F"/>
<mask id="mask3_1258_38085" style="mask-type:luminance" maskUnits="userSpaceOnUse" x="64" y="41" width="19" height="31">
<path d="M82.9071 57.3105L82.8671 71.5727C82.8748 68.9965 75.7709 62.8487 64.915 55.9986L64.9551 41.7363C75.8109 48.5865 82.9148 54.7351 82.9071 57.3105Z" fill="white"/>
</mask>
<g mask="url(#mask3_1258_38085)">
<path d="M82.9071 57.3105L82.8671 71.5727C82.8748 68.9965 75.7709 62.8487 64.915 55.9986L64.9551 41.7363C75.8109 48.5865 82.9148 54.7351 82.9071 57.3105Z" fill="#1D974F"/>
</g>
<mask id="mask4_1258_38085" style="mask-type:luminance" maskUnits="userSpaceOnUse" x="51" y="49" width="35" height="27">
<path d="M85.6652 59.0561L85.6252 73.3183C85.6235 73.9083 85.3613 74.3715 84.8173 74.6882C81.2994 76.7323 67.1564 71.968 51.583 63.7642L51.623 49.502C67.1964 57.7058 81.3394 62.4701 84.8573 60.4259C85.4013 60.1092 85.6635 59.6461 85.6652 59.0561Z" fill="white"/>
</mask>
<g mask="url(#mask4_1258_38085)">
<path d="M85.6649 59.0547L85.6249 73.3169C85.6249 73.3339 85.6249 73.351 85.624 73.368L85.664 59.1058C85.6649 59.0887 85.6649 59.0717 85.6649 59.0547Z" fill="#1D974F"/>
<path d="M85.6648 59.1055L85.6248 73.3677C85.6222 73.4613 85.6129 73.5516 85.5967 73.6384L85.6367 59.3762C85.6529 59.2894 85.6622 59.1991 85.6648 59.1055Z" fill="#1D974F"/>
<path d="M85.6363 59.377L85.5963 73.6392C85.5801 73.726 85.5571 73.8095 85.5273 73.8895L85.5674 59.6273C85.5972 59.5472 85.6201 59.4638 85.6363 59.377Z" fill="#1D974F"/>
<path d="M85.5667 59.627L85.5266 73.8892C85.5011 73.9573 85.4705 74.0228 85.4355 74.0858L85.4756 59.8236C85.5113 59.7606 85.542 59.6951 85.5667 59.627Z" fill="#1D974F"/>
<path d="M85.4754 59.8242L85.4353 74.0864C85.3996 74.1494 85.3596 74.209 85.3145 74.2669L85.3545 60.0047C85.3996 59.9468 85.4396 59.8872 85.4754 59.8242Z" fill="#1D974F"/>
<path d="M85.355 60.0039L85.315 74.2661C85.2579 74.3385 85.1924 74.4075 85.1191 74.4722L85.1592 60.2099C85.2324 60.1452 85.2971 60.0763 85.355 60.0039Z" fill="#1D974F"/>
<path d="M85.1576 60.209L85.1176 74.4712C85.0342 74.5444 84.9397 74.6125 84.835 74.6747L84.875 60.4125C84.9805 60.3495 85.0742 60.2822 85.1576 60.209Z" fill="#1D974F"/>
<path d="M84.8748 60.4141L84.8348 74.6763C84.8288 74.6797 84.8229 74.684 84.8161 74.6874C84.7445 74.7291 84.6688 74.7674 84.5879 74.804L84.6279 60.5418C84.7079 60.506 84.7837 60.4668 84.8561 60.4251C84.8629 60.4209 84.8688 60.4175 84.8748 60.4141Z" fill="#1D974F"/>
<path d="M84.6294 60.541L84.5894 74.8032C84.3527 74.9097 84.0786 74.9914 83.7695 75.0493L83.8095 60.7871C84.1186 60.7292 84.3927 60.6474 84.6294 60.541Z" fill="#1D974F"/>
<path d="M83.8087 60.7871L83.7686 75.0493C83.6077 75.08 83.4375 75.1038 83.2578 75.1217L83.2978 60.8595C83.4775 60.8416 83.6477 60.8178 83.8087 60.7871Z" fill="#1D974F"/>
<path d="M83.2988 60.8594L83.2587 75.1216C83.0961 75.1378 82.925 75.1488 82.7471 75.1548L82.7871 60.8926C82.965 60.8858 83.1353 60.8756 83.2988 60.8594Z" fill="#1D974F"/>
<path d="M82.7855 60.8906L82.7455 75.1529C82.5454 75.1597 82.336 75.1597 82.1172 75.1537L82.1572 60.8915C82.376 60.8974 82.5854 60.8974 82.7855 60.8906Z" fill="#1D974F"/>
<path d="M82.1577 60.893L82.1177 75.1553C81.8733 75.1484 81.6171 75.134 81.3506 75.1118L81.3906 60.8496C81.6571 60.8717 81.9133 60.8862 82.1577 60.893Z" fill="#1D974F"/>
<path d="M81.3899 60.8481L81.3499 75.1103C81.0077 75.0813 80.6475 75.0405 80.2695 74.9868L80.3095 60.7246C80.6876 60.7782 81.0477 60.8191 81.3899 60.8481Z" fill="#1D974F"/>
<path d="M80.3105 60.7242L80.2705 74.9864C79.7256 74.909 79.145 74.806 78.5303 74.6782L78.5703 60.416C79.185 60.5437 79.7656 60.6467 80.3105 60.7242Z" fill="#1D974F"/>
<path d="M78.5708 60.4178L78.5307 74.68C77.5636 74.4782 76.5138 74.216 75.3926 73.895L75.4326 59.6328C76.5539 59.9529 77.6036 60.216 78.5708 60.4178Z" fill="#1D974F"/>
<path d="M75.4316 59.6319L75.3916 73.8942C73.0895 73.2369 70.4834 72.3362 67.6611 71.2251L67.7012 56.9629C70.5243 58.0739 73.1304 58.9747 75.4316 59.6319Z" fill="#1D974F"/>
<path d="M67.7021 56.9623L67.6621 71.2245C62.7948 69.3081 57.2847 66.7659 51.583 63.7622L51.623 49.5C57.3247 52.5036 62.8348 55.0459 67.7021 56.9623Z" fill="#1D974F"/>
<path d="M73.8941 48.9738V36.6289L64.9121 41.8649V53.0179L73.8941 48.9738Z" fill="#D9D9D9"/>
</g>
<path d="M65.8946 41.2073C80.11 50.2088 88.3743 58.3778 84.8564 60.4219C81.3385 62.4661 67.1955 57.7018 51.6222 49.498L26.0545 64.357L12.7773 56.6912L38.3339 41.839C24.0921 32.8229 15.8014 24.6353 19.3219 22.5894C22.8431 20.5436 37.0075 25.3172 52.6149 33.5406L60.5863 28.9083L42.2213 18.3053L54.3849 11.2363L104.4 40.1124L92.2361 47.1814L73.866 36.5749L65.8946 41.2073ZM53.7915 48.2405C67.5275 55.4959 79.6281 59.8396 82.3525 58.2569C85.0803 56.6716 77.5389 49.6759 64.9564 41.7368L56.0476 46.914C55.6432 46.7225 53.4237 45.637 49.3269 43.2718C45.9145 41.3018 43.5894 39.7889 42.7874 39.2551L51.6996 34.0762C37.9244 26.8012 25.8017 22.4413 23.0688 24.0291C20.3384 25.616 27.902 32.6246 40.5151 40.5755C41.3256 41.0915 43.649 42.549 47.0622 44.5191C51.3548 46.9975 53.3896 48.0412 53.7915 48.2405Z" fill="url(#paint0_linear_1258_38085)"/>
<path d="M65.8946 41.2073C80.11 50.2088 88.3743 58.3778 84.8564 60.4219C81.3385 62.4661 67.1955 57.7018 51.6222 49.498L26.0545 64.357L12.7773 56.6912L38.3339 41.839C24.0921 32.8229 15.8014 24.6353 19.3219 22.5894C22.8431 20.5436 37.0075 25.3172 52.6149 33.5406L60.5863 28.9083L42.2213 18.3053L54.3849 11.2363L104.4 40.1124L92.2361 47.1814L73.866 36.5749L65.8946 41.2073ZM53.7915 48.2405C67.5275 55.4959 79.6281 59.8396 82.3525 58.2569C85.0803 56.6716 77.5389 49.6759 64.9564 41.7368L56.0476 46.914C55.6432 46.7225 53.4237 45.637 49.3269 43.2718C45.9145 41.3018 43.5894 39.7889 42.7874 39.2551L51.6996 34.0762C37.9244 26.8012 25.8017 22.4413 23.0688 24.0291C20.3384 25.616 27.902 32.6246 40.5151 40.5755C41.3256 41.0915 43.649 42.549 47.0622 44.5191C51.3548 46.9975 53.3896 48.0412 53.7915 48.2405Z" fill="url(#paint1_linear_1258_38085)"/>
<path d="M26.0535 64.3572L26.0127 78.6194L12.7363 70.9545L12.7763 56.6914L26.0535 64.3572Z" fill="#1D974F"/>
<path d="M51.6222 49.5L51.5813 63.7622L26.0137 78.6204L26.0545 64.3582L51.6222 49.5Z" fill="#36D068"/>
<path d="M65.8965 41.209L73.8668 36.5781L73.8385 46.595L65.8965 41.209Z" fill="#36D068"/>
<path d="M106.516 33.3091C106.516 33.3091 105.621 36.7901 105.629 37.6293C105.637 38.4686 105.087 40.0416 107.353 40.9616C107.353 40.9616 109.986 41.9178 110.708 41.9987C110.708 41.9987 107.938 41.3237 107.176 41.3243C106.415 41.3249 104.903 41.1307 103.896 44.2567L102.939 47.6903C102.939 47.6903 103.787 44.0526 103.834 43.3134C103.882 42.5742 104.301 40.8141 101.91 39.9492L98.9303 39.0364C98.9303 39.0364 101.341 39.71 102.796 39.6816C104.252 39.6531 105.317 37.9933 106.516 33.3091Z" fill="#33B568" stroke="#33B568" stroke-width="0.169047" stroke-miterlimit="10"/>
<path d="M17.1202 42.8588C17.1202 42.8588 16.7121 44.4466 16.7158 44.8294C16.7195 45.2122 16.4684 45.9297 17.5019 46.3493C17.5019 46.3493 18.7029 46.7854 19.0323 46.8224C19.0323 46.8224 17.7689 46.5144 17.4215 46.5147C17.0741 46.515 16.3844 46.4264 15.9254 47.8522L15.4888 49.4184C15.4888 49.4184 15.8754 47.7592 15.8972 47.422C15.9189 47.0849 16.1102 46.282 15.0195 45.8875L13.6603 45.4712C13.6603 45.4712 14.7597 45.7784 15.4236 45.7654C16.0875 45.7525 16.5733 44.9954 17.1202 42.8588Z" fill="#33B568" stroke="#33B568" stroke-width="0.169047" stroke-miterlimit="10"/>
<circle cx="4.53649" cy="7.47789" r="0.761096" fill="#33B568"/>
<circle cx="112.136" cy="79.7885" r="1.2299" fill="#33B568"/>
<circle cx="62.8004" cy="4.5895" r="2.12857" fill="#33B568"/>
</g>
<defs>
<linearGradient id="paint0_linear_1258_38085" x1="60.101" y1="24.5374" x2="22.8534" y2="77.0246" gradientUnits="userSpaceOnUse">
<stop stop-color="#EBFF25"/>
<stop offset="1" stop-color="#44D66D"/>
</linearGradient>
<linearGradient id="paint1_linear_1258_38085" x1="60.101" y1="11.4967" x2="60.101" y2="75.8967" gradientUnits="userSpaceOnUse">
<stop offset="0.34375" stop-color="#D4F938"/>
<stop offset="1" stop-color="#44D66D"/>
</linearGradient>
<clipPath id="clip0_1258_38085">
<rect width="126.606" height="92" fill="white"/>
</clipPath>
</defs>
</svg>
