<svg width="25" height="24" viewBox="0 0 25 24" fill="none" xmlns="http://www.w3.org/2000/svg">
<g clip-path="url(#clip0_1258_38491)">
<path d="M12.749 22C7.22602 22 2.74902 17.523 2.74902 12C2.74902 6.477 7.22602 2 12.749 2C18.272 2 22.749 6.477 22.749 12C22.749 17.523 18.272 22 12.749 22ZM12.749 20C14.8708 20 16.9056 19.1571 18.4059 17.6569C19.9062 16.1566 20.749 14.1217 20.749 12C20.749 9.87827 19.9062 7.84344 18.4059 6.34315C16.9056 4.84285 14.8708 4 12.749 4C10.6273 4 8.59246 4.84285 7.09217 6.34315C5.59188 7.84344 4.74902 9.87827 4.74902 12C4.74902 14.1217 5.59188 16.1566 7.09217 17.6569C8.59246 19.1571 10.6273 20 12.749 20ZM13.749 12H17.749V14H11.749V7H13.749V12Z" fill="#EBFF25"/>
</g>
<defs>
<clipPath id="clip0_1258_38491">
<rect width="24" height="24" fill="white" transform="translate(0.749023)"/>
</clipPath>
</defs>
</svg>
