<svg width="24" height="24" viewBox="0 0 24 24" fill="none" xmlns="http://www.w3.org/2000/svg">
<path d="M2.64299 0.400321H0.350475C0.156913 0.400321 0 0.552944 0 0.741214V2.97106C0 3.15933 0.156913 3.31195 0.350475 3.31195H2.64299C2.83655 3.31195 2.99347 3.15933 2.99347 2.97106V0.741214C2.99347 0.552944 2.83655 0.400321 2.64299 0.400321Z" fill="#E2FF6F"/>
<path d="M6.78093 3.31134H4.55026C4.35647 3.31134 4.19979 3.15894 4.19979 2.97045V0.738598C4.19979 0.550104 4.35647 0.397705 4.55026 0.397705H6.78093C7.00771 0.397705 7.19325 0.578178 7.19325 0.798756V2.90828C7.19325 3.12886 7.00771 3.30934 6.78093 3.30934V3.31134Z" fill="#E2FF6F"/>
<path d="M11.0369 0.399593H8.74438C8.55082 0.399593 8.39391 0.552216 8.39391 0.740487V2.97033C8.39391 3.1586 8.55082 3.31122 8.74438 3.31122H11.0369C11.2305 3.31122 11.3874 3.1586 11.3874 2.97033V0.740487C11.3874 0.552216 11.2305 0.399593 11.0369 0.399593Z" fill="#E2FF6F"/>
<path d="M15.2424 0.399593H12.9498C12.7563 0.399593 12.5994 0.552216 12.5994 0.740487V2.97033C12.5994 3.1586 12.7563 3.31122 12.9498 3.31122H15.2424C15.4359 3.31122 15.5928 3.1586 15.5928 2.97033V0.740487C15.5928 0.552216 15.4359 0.399593 15.2424 0.399593Z" fill="#E2FF6F"/>
<path d="M19.4516 4.45858H17.1591C16.9655 4.45858 16.8086 4.6112 16.8086 4.79947V7.02932C16.8086 7.21759 16.9655 7.37021 17.1591 7.37021H19.4516C19.6451 7.37021 19.8021 7.21759 19.8021 7.02932V4.79947C19.8021 4.6112 19.6451 4.45858 19.4516 4.45858Z" fill="#E2FF6F"/>
<path d="M15.2424 4.45858H12.9498C12.7563 4.45858 12.5994 4.6112 12.5994 4.79947V7.02932C12.5994 7.21759 12.7563 7.37021 12.9498 7.37021H15.2424C15.4359 7.37021 15.5928 7.21759 15.5928 7.02932V4.79947C15.5928 4.6112 15.4359 4.45858 15.2424 4.45858Z" fill="#E2FF6F"/>
<path d="M11.0369 4.45858H8.74438C8.55082 4.45858 8.39391 4.6112 8.39391 4.79947V7.02932C8.39391 7.21759 8.55082 7.37021 8.74438 7.37021H11.0369C11.2305 7.37021 11.3874 7.21759 11.3874 7.02932V4.79947C11.3874 4.6112 11.2305 4.45858 11.0369 4.45858Z" fill="#E2FF6F"/>
<path d="M4.61211 4.45858H6.84278C7.03657 4.45858 7.19325 4.61098 7.19325 4.79947V7.03132C7.19325 7.21982 7.03657 7.37221 6.84278 7.37221H4.61211C4.38533 7.37221 4.19979 7.19174 4.19979 6.97116V4.86163C4.19979 4.64106 4.38533 4.46058 4.61211 4.46058V4.45858Z" fill="#E2FF6F"/>
<path d="M2.64299 4.45858H0.350475C0.156913 4.45858 0 4.6112 0 4.79947V7.02932C0 7.21759 0.156913 7.37021 0.350475 7.37021H2.64299C2.83655 7.37021 2.99347 7.21759 2.99347 7.02932V4.79947C2.99347 4.6112 2.83655 4.45858 2.64299 4.45858Z" fill="#E2FF6F"/>
<path d="M2.58114 8.51497H0.412323C0.184603 8.51497 0 8.69452 0 8.91602V11.0255C0 11.247 0.184603 11.4266 0.412323 11.4266H2.58114C2.80886 11.4266 2.99347 11.247 2.99347 11.0255V8.91602C2.99347 8.69452 2.80886 8.51497 2.58114 8.51497Z" fill="#E2FF6F"/>
<path d="M6.84278 11.4266H4.61211C4.38533 11.4266 4.19979 11.2461 4.19979 11.0255V8.91602C4.19979 8.69544 4.38533 8.51497 4.61211 8.51497H6.84278C7.03657 8.51497 7.19325 8.66737 7.19325 8.85586V11.0877C7.19325 11.2762 7.03657 11.4286 6.84278 11.4286V11.4266Z" fill="#E2FF6F"/>
<path d="M11.0369 8.51497H8.74438C8.55082 8.51497 8.39391 8.66759 8.39391 8.85586V11.0857C8.39391 11.274 8.55082 11.4266 8.74438 11.4266H11.0369C11.2305 11.4266 11.3874 11.274 11.3874 11.0857V8.85586C11.3874 8.66759 11.2305 8.51497 11.0369 8.51497Z" fill="#E2FF6F"/>
<path d="M15.2424 8.51497H12.9498C12.7563 8.51497 12.5994 8.66759 12.5994 8.85586V11.0857C12.5994 11.274 12.7563 11.4266 12.9498 11.4266H15.2424C15.4359 11.4266 15.5928 11.274 15.5928 11.0857V8.85586C15.5928 8.66759 15.4359 8.51497 15.2424 8.51497Z" fill="#E2FF6F"/>
<path d="M19.4516 8.51497H17.1591C16.9655 8.51497 16.8086 8.66759 16.8086 8.85586V11.0857C16.8086 11.274 16.9655 11.4266 17.1591 11.4266H19.4516C19.6451 11.4266 19.8021 11.274 19.8021 11.0857V8.85586C19.8021 8.66759 19.6451 8.51497 19.4516 8.51497Z" fill="#E2FF6F"/>
<path d="M23.6495 8.51497H21.357C21.1634 8.51497 21.0065 8.66759 21.0065 8.85586V11.0857C21.0065 11.274 21.1634 11.4266 21.357 11.4266H23.6495C23.843 11.4266 24 11.274 24 11.0857V8.85586C24 8.66759 23.843 8.51497 23.6495 8.51497Z" fill="#E2FF6F"/>
<path d="M23.6495 12.5736H21.357C21.1634 12.5736 21.0065 12.7262 21.0065 12.9145V15.1443C21.0065 15.3326 21.1634 15.4852 21.357 15.4852H23.6495C23.843 15.4852 24 15.3326 24 15.1443V12.9145C24 12.7262 23.843 12.5736 23.6495 12.5736Z" fill="#E2FF6F"/>
<path d="M19.4516 12.5736H17.1591C16.9655 12.5736 16.8086 12.7262 16.8086 12.9145V15.1443C16.8086 15.3326 16.9655 15.4852 17.1591 15.4852H19.4516C19.6451 15.4852 19.8021 15.3326 19.8021 15.1443V12.9145C19.8021 12.7262 19.6451 12.5736 19.4516 12.5736Z" fill="#E2FF6F"/>
<path d="M15.2424 12.5736H12.9498C12.7563 12.5736 12.5994 12.7262 12.5994 12.9145V15.1443C12.5994 15.3326 12.7563 15.4852 12.9498 15.4852H15.2424C15.4359 15.4852 15.5928 15.3326 15.5928 15.1443V12.9145C15.5928 12.7262 15.4359 12.5736 15.2424 12.5736Z" fill="#E2FF6F"/>
<path d="M11.0369 12.5736H8.74438C8.55082 12.5736 8.39391 12.7262 8.39391 12.9145V15.1443C8.39391 15.3326 8.55082 15.4852 8.74438 15.4852H11.0369C11.2305 15.4852 11.3874 15.3326 11.3874 15.1443V12.9145C11.3874 12.7262 11.2305 12.5736 11.0369 12.5736Z" fill="#E2FF6F"/>
<path d="M4.61211 12.5736H6.84278C7.03657 12.5736 7.19325 12.726 7.19325 12.9145V15.1463C7.19325 15.3348 7.03657 15.4872 6.84278 15.4872H4.61211C4.38533 15.4872 4.19979 15.3068 4.19979 15.0862V12.9767C4.19979 12.7561 4.38533 12.5756 4.61211 12.5756V12.5736Z" fill="#E2FF6F"/>
<path d="M2.64299 12.5736H0.350475C0.156913 12.5736 0 12.7262 0 12.9145V15.1443C0 15.3326 0.156913 15.4852 0.350475 15.4852H2.64299C2.83655 15.4852 2.99347 15.3326 2.99347 15.1443V12.9145C2.99347 12.7262 2.83655 12.5736 2.64299 12.5736Z" fill="#E2FF6F"/>
<path d="M2.64299 16.6302H0.350475C0.156913 16.6302 0 16.7828 0 16.9711V19.201C0 19.3892 0.156913 19.5419 0.350475 19.5419H2.64299C2.83655 19.5419 2.99347 19.3892 2.99347 19.201V16.9711C2.99347 16.7828 2.83655 16.6302 2.64299 16.6302Z" fill="#E2FF6F"/>
<path d="M6.84278 19.5419H4.61211C4.38533 19.5419 4.19979 19.3614 4.19979 19.1408V17.0313C4.19979 16.8107 4.38533 16.6302 4.61211 16.6302H6.84278C7.03657 16.6302 7.19325 16.7826 7.19325 16.9711V19.203C7.19325 19.3915 7.03657 19.5439 6.84278 19.5439V19.5419Z" fill="#E2FF6F"/>
<path d="M11.0369 16.6302H8.74438C8.55082 16.6302 8.39391 16.7828 8.39391 16.9711V19.201C8.39391 19.3892 8.55082 19.5419 8.74438 19.5419H11.0369C11.2305 19.5419 11.3874 19.3892 11.3874 19.201V16.9711C11.3874 16.7828 11.2305 16.6302 11.0369 16.6302Z" fill="#E2FF6F"/>
<path d="M15.2424 16.6302H12.9498C12.7563 16.6302 12.5994 16.7828 12.5994 16.9711V19.201C12.5994 19.3892 12.7563 19.5419 12.9498 19.5419H15.2424C15.4359 19.5419 15.5928 19.3892 15.5928 19.201V16.9711C15.5928 16.7828 15.4359 16.6302 15.2424 16.6302Z" fill="#E2FF6F"/>
<path d="M19.4516 16.6302H17.1591C16.9655 16.6302 16.8086 16.7828 16.8086 16.9711V19.201C16.8086 19.3892 16.9655 19.5419 17.1591 19.5419H19.4516C19.6451 19.5419 19.8021 19.3892 19.8021 19.201V16.9711C19.8021 16.7828 19.6451 16.6302 19.4516 16.6302Z" fill="#E2FF6F"/>
<path d="M15.2424 20.6886H12.9498C12.7563 20.6886 12.5994 20.8412 12.5994 21.0295V23.2594C12.5994 23.4476 12.7563 23.6002 12.9498 23.6002H15.2424C15.4359 23.6002 15.5928 23.4476 15.5928 23.2594V21.0295C15.5928 20.8412 15.4359 20.6886 15.2424 20.6886Z" fill="#E2FF6F"/>
<path d="M11.0369 20.6886H8.74438C8.55082 20.6886 8.39391 20.8412 8.39391 21.0295V23.2594C8.39391 23.4476 8.55082 23.6002 8.74438 23.6002H11.0369C11.2305 23.6002 11.3874 23.4476 11.3874 23.2594V21.0295C11.3874 20.8412 11.2305 20.6886 11.0369 20.6886Z" fill="#E2FF6F"/>
<path d="M4.61211 20.6886H6.84278C7.03657 20.6886 7.19325 20.841 7.19325 21.0295V23.2614C7.19325 23.4499 7.03657 23.6023 6.84278 23.6023H4.61211C4.38533 23.6023 4.19979 23.4218 4.19979 23.2012V21.0917C4.19979 20.8711 4.38533 20.6906 4.61211 20.6906V20.6886Z" fill="#E2FF6F"/>
<path d="M2.64299 20.6886H0.350475C0.156913 20.6886 0 20.8412 0 21.0295V23.2594C0 23.4476 0.156913 23.6002 0.350475 23.6002H2.64299C2.83655 23.6002 2.99347 23.4476 2.99347 23.2594V21.0295C2.99347 20.8412 2.83655 20.6886 2.64299 20.6886Z" fill="#E2FF6F"/>
</svg>