<?xml version="1.0" encoding="UTF-8"?>
<svg id="Layer_2" data-name="Layer 2" xmlns="http://www.w3.org/2000/svg" xmlns:xlink="http://www.w3.org/1999/xlink" viewBox="0 0 805.56 740.2">
  <defs>
    <style>
      .cls-1 {
        fill: url(#linear-gradient);
        opacity: .16;
      }

      .cls-2 {
        fill: #037242;
      }

      .cls-3 {
        fill: #f5fe8f;
      }

      .cls-4, .cls-5 {
        fill: #fff;
      }

      .cls-6 {
        fill: #eddad5;
      }

      .cls-7 {
        fill: #e2ff6f;
      }

      .cls-8 {
        fill: #ff6554;
      }

      .cls-9 {
        fill: #b2d234;
      }

      .cls-10 {
        fill: #1f1f24;
      }

      .cls-11 {
        fill: #1e3f58;
      }

      .cls-12 {
        fill: #29b57e;
      }

      .cls-13 {
        fill: #353538;
      }

      .cls-14 {
        fill: #4f4f4f;
      }

      .cls-15 {
        opacity: .27;
      }

      .cls-16 {
        opacity: .23;
      }

      .cls-17 {
        opacity: .44;
      }

      .cls-18, .cls-5 {
        opacity: .35;
      }
    </style>
    <linearGradient id="linear-gradient" x1="407.41" y1="658.72" x2="403.85" y2="157.81" gradientUnits="userSpaceOnUse">
      <stop offset="0" stop-color="#c9ff94"/>
      <stop offset="1" stop-color="#fff" stop-opacity="0"/>
    </linearGradient>
  </defs>
  <g id="Layer_2-2" data-name="Layer 2">
    <g>
      <g class="cls-17">
        <polygon points="471.44 412.45 453.53 402.04 453.8 497.07 471.71 507.47 471.44 412.45"/>
        <polygon class="cls-14" points="501.36 395.17 483.45 384.76 453.53 402.04 471.44 412.45 501.36 395.17"/>
        <polygon class="cls-10" points="471.44 412.45 471.71 507.47 501.63 490.2 501.36 395.17 471.44 412.45"/>
        <polygon points="521.43 304.31 503.52 293.9 503.95 445.62 521.86 456.03 521.43 304.31"/>
        <polygon class="cls-10" points="521.43 304.31 521.86 456.03 551.78 438.75 551.35 287.04 521.43 304.31"/>
        <polygon points="622.06 322.19 604.15 311.79 604.49 431.43 622.4 441.84 622.06 322.19"/>
        <polygon class="cls-14" points="651.98 304.92 634.07 294.51 604.15 311.79 622.06 322.19 651.98 304.92"/>
        <polygon class="cls-10" points="622.06 322.19 622.4 441.84 652.32 424.57 651.98 304.92 622.06 322.19"/>
        <g class="cls-16">
          <polygon class="cls-6" points="572.16 458.47 554.25 448.06 554.4 502.53 572.31 512.93 572.16 458.47"/>
          <polygon class="cls-4" points="602.08 441.19 584.17 430.78 554.25 448.06 572.16 458.47 602.08 441.19"/>
          <polygon class="cls-6" points="220.13 465.77 202.22 455.36 202.27 475.76 220.18 486.17 220.13 465.77"/>
          <polygon class="cls-4" points="250.05 448.49 232.14 438.09 202.22 455.36 220.13 465.77 250.05 448.49"/>
          <polygon class="cls-6" points="370.95 446.17 353.04 435.76 353.54 612.02 371.45 622.42 370.95 446.17"/>
          <polygon class="cls-4" points="400.87 428.89 382.96 418.49 353.04 435.76 370.95 446.17 400.87 428.89"/>
          <polygon class="cls-6" points="672.58 399.16 654.67 388.75 655.01 511.35 672.92 521.76 672.58 399.16"/>
          <polygon class="cls-4" points="702.49 381.89 684.58 371.48 654.67 388.75 672.58 399.16 702.49 381.89"/>
          <polygon class="cls-6" points="723.08 473.92 705.17 463.52 705.41 549.46 723.32 559.87 723.08 473.92"/>
          <polygon class="cls-4" points="753 456.65 735.09 446.24 705.17 463.52 723.08 473.92 753 456.65"/>
        </g>
        <polygon points="120.24 489.81 102.33 479.4 102.39 565.26 120.3 575.67 120.24 489.81"/>
        <polygon class="cls-14" points="150.16 472.53 132.25 462.13 102.33 479.4 120.24 489.81 150.16 472.53"/>
        <polygon class="cls-10" points="120.24 489.81 120.3 575.67 150.22 558.39 150.16 472.53 120.24 489.81"/>
        <polygon points="69.74 556.78 51.83 546.37 51.89 664.96 69.8 675.37 69.74 556.78"/>
        <polygon class="cls-14" points="99.67 539.5 81.76 529.09 51.83 546.37 69.74 556.78 99.67 539.5"/>
        <polygon class="cls-10" points="69.74 556.78 69.8 675.37 99.72 658.09 99.67 539.5 69.74 556.78"/>
        <polygon points="18.4 674.9 .49 664.49 .55 729.79 18.46 740.2 18.4 674.9"/>
        <polygon class="cls-14" points="48.33 657.62 30.42 647.21 .49 664.49 18.4 674.9 48.33 657.62"/>
        <polygon class="cls-10" points="18.4 674.9 18.46 740.2 48.39 722.92 48.33 657.62 18.4 674.9"/>
        <polygon points="169.5 347.81 151.59 337.41 152.02 489.4 169.93 499.81 169.5 347.81"/>
        <polygon class="cls-14" points="199.42 330.54 181.51 320.13 151.59 337.41 169.5 347.81 199.42 330.54"/>
        <polygon class="cls-10" points="169.5 347.81 169.93 499.81 199.85 482.54 199.42 330.54 169.5 347.81"/>
      </g>
      <path class="cls-1" d="m287.88,531.11C191.92,358.5,95.96,185.89,0,13.28,268.52,8.86,537.04,4.43,805.56,0c-94.3,168.42-188.61,336.84-282.91,505.26-31.24,23.81-62.47,47.63-93.71,71.44-47.02-15.19-94.04-30.39-141.06-45.58Z"/>
      <g>
        <polygon class="cls-12" points="320.18 659.67 216.79 580.72 157.72 606.46 157.72 614.98 261.11 693.93 320.18 668.19 320.18 659.67"/>
        <path class="cls-11" d="m261.11,695c-.23,0-.46-.08-.65-.22l-103.39-78.96c-.26-.2-.42-.51-.42-.85v-8.51c0-.42.25-.8.64-.97l59.07-25.75c.36-.15.77-.1,1.07.13l103.39,78.96c.26.2.42.51.42.84v8.51c0,.42-.25.81-.64.98l-59.07,25.75c-.14.06-.28.09-.43.09Zm-102.33-80.55l102.48,78.26,57.85-25.22v-7.29l-102.48-78.26-57.86,25.22v7.29Z"/>
        <g>
          <polygon class="cls-4" points="320.18 659.67 216.79 580.72 157.72 606.46 261.11 685.42 320.18 659.67"/>
          <path class="cls-11" d="m261.11,686.48c-.23,0-.46-.07-.65-.22l-103.39-78.96c-.3-.23-.46-.6-.41-.97.04-.38.29-.7.63-.85l59.07-25.75c.36-.15.77-.1,1.07.13l103.39,78.96c.3.23.46.6.41.97-.04.38-.28.7-.63.85l-59.07,25.75c-.14.06-.28.09-.43.09Zm-101.31-79.77l101.46,77.48,56.84-24.77-101.46-77.48-56.84,24.77Z"/>
        </g>
        <g>
          <polygon class="cls-2" points="261.11 685.42 261.11 693.93 320.18 668.19 320.18 659.67 261.11 685.42"/>
          <path class="cls-2" d="m261.11,695c-.2,0-.41-.06-.58-.18-.3-.19-.48-.53-.48-.89v-8.51c0-.42.25-.81.64-.97l59.07-25.75c.33-.14.71-.11,1.01.09.3.2.48.53.48.89v8.51c0,.42-.25.81-.64.98l-59.07,25.75c-.14.06-.28.09-.43.09Zm1.06-8.88v6.19l56.94-24.82v-6.19l-56.94,24.82Z"/>
        </g>
        <path class="cls-7" d="m270.89,674.87l29.02-12.65c-2-2.74-1.25-5.9,1.96-8.22l-80.64-61.59c-4.74,1.15-10.22.71-14.24-1.15l-29.02,12.65c2,2.74,1.24,5.9-1.97,8.22l80.64,61.58c4.74-1.15,10.21-.7,14.24,1.15Z"/>
        <path class="cls-11" d="m270.89,675.94c-.15,0-.3-.03-.45-.1-3.74-1.73-9.11-2.16-13.54-1.09-.32.08-.64,0-.9-.19l-80.64-61.58c-.27-.2-.42-.52-.42-.86,0-.34.17-.65.44-.85,1.49-1.07,2.38-2.33,2.59-3.63.17-1.05-.12-2.1-.86-3.1-.19-.26-.25-.6-.17-.91.08-.31.31-.57.6-.7l29.03-12.65c.28-.12.6-.12.87.01,3.74,1.72,9.1,2.16,13.54,1.08.31-.08.64,0,.9.19l80.64,61.59c.27.2.42.52.42.86,0,.34-.17.65-.44.85-1.48,1.07-2.38,2.33-2.58,3.63-.17,1.05.12,2.1.86,3.1.19.26.25.59.17.91-.08.31-.3.57-.6.7l-29.03,12.65c-.14.06-.28.09-.43.09Zm-8.81-3.91c3.16,0,6.27.6,8.82,1.69l27.49-11.99c-.56-1.14-.75-2.36-.56-3.57.24-1.5,1.04-2.9,2.35-4.13l-79.17-60.47c-4.61,1.01-10.01.56-13.99-1.14l-27.48,11.98c.56,1.14.75,2.36.56,3.57-.24,1.5-1.04,2.9-2.35,4.13l79.18,60.47c1.66-.36,3.4-.55,5.18-.55Z"/>
        <g>
          <path class="cls-4" d="m248.37,640.27c-8.76,3.82-20.08,3.69-25.28-.29-5.21-3.98-2.33-10.29,6.43-14.11,8.76-3.82,20.08-3.69,25.29.29,5.21,3.98,2.33,10.3-6.43,14.12Zm-20.76-29.71l-13.1-10-6.76,2.94,13.1,10,6.76-2.95Zm58.85,44.95l-13.1-10-6.75,2.95,13.1,10,6.75-2.95Z"/>
          <path class="cls-11" d="m279.72,659.52c-.23,0-.46-.08-.65-.22l-13.1-10c-.3-.23-.46-.6-.41-.97.04-.38.28-.7.63-.85l6.75-2.95c.35-.15.77-.1,1.07.13l13.1,10c.3.23.46.6.41.97-.04.38-.29.7-.63.85l-6.75,2.95c-.14.06-.28.09-.43.09Zm-11.02-10.82l11.16,8.53,4.52-1.97-11.16-8.52-4.52,1.97Zm-33.93-4.59c-5.17,0-9.55-1.17-12.32-3.29-2.2-1.68-3.25-3.9-2.97-6.25.45-3.68,3.95-7.22,9.62-9.69,4.25-1.85,9.23-2.87,14.03-2.87,5.17,0,9.55,1.17,12.33,3.29,2.2,1.68,3.25,3.9,2.96,6.25-.45,3.68-3.95,7.22-9.62,9.69-4.24,1.85-9.23,2.87-14.03,2.87Zm8.36-19.97c-4.52,0-9.2.95-13.18,2.69-4.88,2.13-8.01,5.12-8.36,7.99-.19,1.62.53,3.07,2.15,4.3,2.37,1.81,6.39,2.85,11.03,2.85s9.2-.96,13.18-2.69c4.88-2.13,8.01-5.12,8.36-7.99.2-1.62-.53-3.06-2.14-4.3-2.37-1.81-6.4-2.85-11.04-2.85Zm-22.26-9.58c-.23,0-.46-.07-.65-.22l-13.1-10c-.3-.23-.46-.6-.41-.97.04-.38.29-.7.63-.85l6.76-2.95c.35-.16.77-.1,1.07.13l13.1,10c.3.23.46.6.41.97-.05.38-.29.7-.63.85l-6.76,2.95c-.14.06-.28.09-.43.09Zm-11.02-10.82l11.17,8.53,4.52-1.97-11.16-8.53-4.53,1.97Z"/>
        </g>
        <path class="cls-11" d="m270.74,665.95c-.22,0-.45-.07-.64-.22l-16.42-12.54c-.47-.35-.56-1.02-.2-1.49.35-.46,1.02-.56,1.49-.2l16.42,12.54c.47.36.56,1.03.2,1.49-.21.28-.53.42-.85.42Zm5.53-2.41c-.22,0-.45-.07-.64-.22l-19.74-15.07c-.47-.36-.56-1.02-.2-1.49.36-.46,1.02-.56,1.49-.2l19.74,15.07c.47.36.56,1.03.2,1.49-.21.27-.53.42-.85.42Zm-56.41-43.08c-.22,0-.45-.07-.64-.22l-19.74-15.07c-.47-.36-.56-1.02-.2-1.49.35-.46,1.02-.56,1.49-.2l19.74,15.07c.47.36.56,1.03.2,1.49-.21.28-.53.42-.85.42Zm-9.5-.34l-16.41-12.54c-.47-.35-.56-1.02-.2-1.49.36-.46,1.02-.56,1.49-.2l16.41,12.54c.47.36.56,1.03.2,1.49-.21.28-1.3.35-1.49.2Z"/>
        <g>
          <polygon class="cls-12" points="338.02 642.2 216.79 572.2 164.45 602.42 164.45 610.93 285.69 680.93 338.02 650.71 338.02 642.2"/>
          <path class="cls-12" d="m285.69,681.99c-.19,0-.37-.05-.53-.14l-121.24-70c-.33-.19-.53-.54-.53-.92v-8.51c0-.38.2-.73.53-.92l52.33-30.22c.33-.19.73-.19,1.06,0l121.24,70c.33.19.53.54.53.92v8.52c0,.38-.2.73-.53.92l-52.33,30.22c-.16.09-.35.14-.53.14Zm-120.17-71.68l120.17,69.38,51.27-29.6v-7.28l-120.17-69.38-51.27,29.6v7.28Z"/>
        </g>
        <polygon class="cls-4" points="338.02 642.2 216.79 572.2 164.45 602.42 285.69 672.41 338.02 642.2"/>
        <path class="cls-10" d="m285.69,673.48c-.19,0-.37-.04-.53-.14l-121.24-70c-.33-.19-.53-.54-.53-.92s.2-.73.53-.92l52.33-30.22c.33-.19.73-.19,1.06,0l121.24,70c.33.19.53.54.53.92s-.2.73-.53.93l-52.33,30.21c-.16.1-.35.14-.53.14Zm-119.11-71.06l119.11,68.77,50.2-28.99-119.11-68.76-50.2,28.98Z"/>
        <g>
          <polygon class="cls-2" points="285.69 672.41 285.69 680.93 338.02 650.71 338.02 642.2 285.69 672.41"/>
          <path class="cls-2" d="m285.69,681.99c-.19,0-.37-.05-.53-.14-.33-.19-.53-.55-.53-.93v-8.51c0-.38.2-.73.53-.92l52.33-30.21c.33-.19.73-.19,1.06,0,.33.19.53.54.53.92v8.52c0,.38-.2.73-.53.92l-52.33,30.22c-.16.09-.35.14-.53.14Zm1.06-8.96v6.06l50.2-28.98v-6.06l-50.2,28.99Z"/>
        </g>
        <path class="cls-7" d="m292.86,661.18l25.72-14.85c-2.64-2.56-2.64-5.74-.02-8.3l-94.56-54.6c-4.42,1.52-9.94,1.52-14.37,0l-25.71,14.85c2.64,2.56,2.64,5.74.01,8.3l94.56,54.6c4.42-1.52,9.95-1.52,14.37,0Z"/>
        <path class="cls-10" d="m292.86,662.25c-.12,0-.23-.02-.35-.06-4.13-1.42-9.56-1.42-13.68,0-.29.1-.61.07-.88-.09l-94.56-54.59c-.29-.17-.48-.46-.52-.79-.04-.33.07-.66.31-.89,1.08-1.05,1.64-2.22,1.64-3.38,0-1.17-.57-2.34-1.66-3.39-.24-.23-.36-.56-.32-.89.04-.33.24-.62.52-.79l25.71-14.85c.27-.15.59-.19.88-.09,4.12,1.42,9.56,1.42,13.68,0,.29-.1.61-.07.88.08l94.56,54.6c.29.17.48.46.52.79.04.33-.08.66-.31.89-1.08,1.05-1.64,2.22-1.64,3.38,0,1.17.57,2.34,1.66,3.39.24.23.36.56.31.89-.04.33-.24.63-.52.79l-25.72,14.85c-.16.09-.35.14-.53.14Zm-7.21-3.27c2.48,0,4.91.37,7.09,1.05l24.18-13.96c-.91-1.21-1.39-2.53-1.39-3.89,0-1.35.47-2.67,1.37-3.87l-93.02-53.71c-4.33,1.37-9.8,1.36-14.13,0l-24.17,13.95c.91,1.21,1.39,2.53,1.39,3.89,0,1.35-.47,2.67-1.37,3.87l93.02,53.71c2.16-.68,4.59-1.04,7.05-1.04Z"/>
        <g>
          <path class="cls-4" d="m262.3,628.69c-7.76,4.48-19,5.25-25.11,1.73-6.11-3.53-4.77-10.01,2.99-14.5,7.76-4.48,19-5.25,25.11-1.72,6.11,3.52,4.77,10.01-2.99,14.49Zm-27.66-27.78l-15.36-8.87-5.99,3.46,15.36,8.87,5.99-3.46Zm69.01,39.84l-15.36-8.87-5.99,3.46,15.36,8.87,5.99-3.46Z"/>
          <path class="cls-11" d="m297.67,645.28c-.18,0-.37-.05-.53-.14l-15.36-8.87c-.33-.19-.53-.55-.53-.93s.2-.73.53-.92l5.99-3.46c.33-.19.73-.19,1.06,0l15.36,8.87c.33.19.53.54.53.92s-.2.73-.53.92l-5.99,3.46c-.17.09-.35.14-.53.14Zm-13.23-9.93l13.23,7.64,3.86-2.23-13.23-7.64-3.86,2.23Zm-37.41-1.65c-4.12,0-7.7-.82-10.37-2.35-2.81-1.63-4.36-3.97-4.36-6.6,0-3.49,2.68-7.04,7.36-9.74,4.49-2.59,10.25-4.08,15.8-4.08,4.12,0,7.7.82,10.37,2.36,2.81,1.62,4.36,3.97,4.36,6.6,0,3.49-2.68,7.04-7.36,9.74-4.49,2.59-10.25,4.08-15.8,4.08Zm8.43-20.65c-5.19,0-10.56,1.38-14.74,3.8-3.94,2.28-6.29,5.23-6.29,7.89,0,1.87,1.14,3.51,3.3,4.76,2.31,1.33,5.62,2.07,9.3,2.07,5.19,0,10.56-1.38,14.74-3.8,3.94-2.28,6.29-5.23,6.29-7.9,0-1.87-1.14-3.51-3.3-4.75-2.31-1.34-5.62-2.07-9.3-2.07Zm-26.8-7.61c-.19,0-.37-.05-.53-.14l-15.36-8.87c-.33-.19-.53-.54-.53-.92s.2-.73.53-.92l5.99-3.46c.33-.19.73-.19,1.06,0l15.36,8.87c.33.19.53.54.53.92s-.2.73-.53.92l-5.99,3.45c-.16.09-.35.14-.53.14Zm-13.23-9.93l13.23,7.64,3.86-2.23-13.23-7.64-3.86,2.22Z"/>
        </g>
        <path class="cls-11" d="m290.32,652.36c-.18,0-.36-.04-.53-.14l-19.25-11.11c-.51-.29-.68-.95-.39-1.46.29-.51.94-.68,1.45-.39l19.25,11.12c.51.29.68.95.39,1.45-.2.34-.56.53-.92.53Zm4.9-2.83c-.18,0-.36-.04-.53-.14l-23.14-13.36c-.51-.29-.68-.95-.39-1.45.29-.51.94-.68,1.45-.39l23.14,13.36c.51.29.68.95.39,1.45-.2.34-.55.53-.92.53Zm-74.94-37.61c-.18,0-.36-.04-.53-.14l-19.25-11.11c-.51-.29-.68-.95-.39-1.46.29-.51.94-.68,1.45-.39l19.25,11.12c.51.29.68.95.39,1.45-.2.34-.55.53-.92.53Zm8.8-.58c-.18,0-.36-.04-.53-.14l-23.14-13.36c-.51-.29-.68-.95-.39-1.45.29-.51.94-.68,1.45-.39l23.14,13.36c.51.29.68.95.39,1.45-.2.34-.55.53-.92.53Z"/>
      </g>
      <g>
        <polygon class="cls-12" points="517.96 512.96 396.18 442.65 274.1 513.12 274.1 588.71 395.89 659.02 517.96 588.54 517.96 512.96"/>
        <path class="cls-10" d="m395.89,660.44c-.25,0-.49-.06-.71-.19l-121.79-70.31c-.44-.25-.71-.72-.71-1.23v-75.59c0-.51.27-.97.71-1.23l122.07-70.48c.44-.26.98-.26,1.42,0l121.78,70.31c.44.25.71.72.71,1.23v75.59c0,.51-.27.97-.71,1.23l-122.07,70.48c-.22.13-.46.19-.71.19Zm-120.37-72.54l120.37,69.49,120.65-69.66v-73.95l-120.36-69.49-120.65,69.66v73.95Z"/>
        <polygon class="cls-4" points="320.66 539.84 320.66 615.42 349.62 632.15 349.62 556.56 320.66 539.84"/>
        <path class="cls-10" d="m349.62,633.56c-.24,0-.49-.06-.71-.19l-28.96-16.72c-.44-.25-.71-.72-.71-1.23v-75.59c0-.51.27-.97.71-1.23.44-.26.98-.26,1.42,0l28.96,16.72c.44.25.71.72.71,1.23v75.59c0,.51-.27.97-.71,1.23-.22.13-.46.19-.71.19Zm-27.54-18.95l26.12,15.08v-72.31l-26.12-15.08v72.31Z"/>
        <g>
          <polygon class="cls-2" points="395.89 583.43 395.89 659.02 517.96 588.54 517.96 512.96 395.89 583.43"/>
          <path class="cls-2" d="m395.89,660.44c-.25,0-.49-.06-.71-.19-.44-.25-.71-.72-.71-1.23v-75.59c0-.51.27-.97.71-1.23l122.07-70.48c.44-.25.98-.25,1.42,0,.44.25.71.72.71,1.23v75.59c0,.51-.27.97-.71,1.23l-122.07,70.48c-.22.13-.46.19-.71.19Zm1.42-76.19v72.31l119.23-68.84v-72.31l-119.23,68.84Z"/>
        </g>
        <polygon class="cls-4" points="471.4 539.84 471.4 615.42 442.44 632.15 442.44 556.56 471.4 539.84"/>
        <path class="cls-10" d="m442.44,633.56c-.25,0-.49-.06-.71-.19-.44-.25-.71-.72-.71-1.23v-75.59c0-.51.27-.97.71-1.23l28.96-16.72c.44-.26.98-.26,1.42,0,.44.25.71.72.71,1.23v75.59c0,.51-.27.98-.71,1.23l-28.96,16.72c-.22.13-.46.19-.71.19Zm1.42-76.19v72.31l26.13-15.08v-72.31l-26.13,15.08Z"/>
        <polygon class="cls-12" points="526.35 478.93 396.18 403.78 265.71 479.12 265.71 513.13 395.88 588.28 526.35 512.95 526.35 478.93"/>
        <path class="cls-10" d="m395.88,589.7c-.25,0-.49-.06-.71-.19l-130.17-75.15c-.44-.25-.71-.72-.71-1.23v-34.01c0-.51.27-.97.71-1.23l130.47-75.34c.44-.25.98-.25,1.42,0l130.17,75.15c.44.25.71.72.71,1.23v34.01c0,.51-.27.97-.71,1.23l-130.47,75.34c-.22.13-.46.19-.71.19Zm-128.75-77.38l128.75,74.33,129.05-74.52v-32.38l-128.75-74.33-129.05,74.52v32.38Z"/>
        <g>
          <polygon class="cls-13" points="396.18 403.78 265.71 479.12 395.88 554.27 526.35 478.93 396.18 403.78"/>
          <path class="cls-13" d="m395.88,555.69c-.25,0-.49-.06-.71-.19l-130.17-75.15c-.44-.25-.71-.72-.71-1.23s.27-.97.71-1.23l130.47-75.34c.44-.25.98-.25,1.42,0l130.17,75.15c.44.25.71.72.71,1.23s-.27.98-.71,1.23l-130.47,75.34c-.22.13-.46.19-.71.19Zm-127.33-76.57l127.33,73.51,127.63-73.7-127.33-73.51-127.64,73.7Z"/>
        </g>
        <polygon class="cls-4" points="345.42 433.09 316.46 449.81 446.63 524.96 475.59 508.25 345.42 433.09"/>
        <path class="cls-10" d="m446.63,526.38c-.24,0-.49-.06-.71-.19l-130.17-75.15c-.44-.25-.71-.72-.71-1.23s.27-.98.71-1.23l28.96-16.72c.44-.25.98-.25,1.42,0l130.17,75.15c.44.25.71.72.71,1.23s-.27.97-.71,1.23l-28.96,16.72c-.22.13-.46.19-.71.19Zm-127.33-76.57l127.33,73.51,26.13-15.08-127.33-73.51-26.13,15.08Z"/>
        <polygon class="cls-4" points="446.63 433.09 475.59 449.81 345.42 524.96 316.46 508.25 446.63 433.09"/>
        <path class="cls-10" d="m345.42,526.38c-.25,0-.49-.06-.71-.19l-28.96-16.72c-.44-.25-.71-.72-.71-1.23s.27-.97.71-1.23l130.17-75.15c.44-.25.98-.25,1.42,0l28.96,16.72c.44.25.71.72.71,1.23s-.27.97-.71,1.23l-130.17,75.15c-.22.13-.46.19-.71.19Zm-26.13-18.14l26.13,15.08,127.33-73.51-26.13-15.08-127.33,73.51Z"/>
        <g>
          <polygon class="cls-2" points="395.88 554.27 395.88 588.28 526.35 512.95 526.35 478.93 395.88 554.27"/>
          <path class="cls-2" d="m395.88,589.7c-.25,0-.49-.06-.71-.19-.44-.25-.71-.72-.71-1.23v-34.01c0-.5.27-.97.71-1.23l130.47-75.34c.44-.25.98-.25,1.42,0,.44.25.71.72.71,1.23v34.01c0,.51-.27.97-.71,1.23l-130.47,75.34c-.22.13-.46.19-.71.19Zm1.42-34.61v30.74l127.63-73.7v-30.74l-127.63,73.7Z"/>
        </g>
        <polygon class="cls-4" points="446.64 524.96 446.64 558.98 475.6 542.26 475.6 508.25 446.64 524.96"/>
        <path class="cls-10" d="m446.64,560.4c-.25,0-.49-.06-.71-.19-.44-.25-.71-.72-.71-1.23v-34.02c0-.51.27-.97.71-1.23l28.96-16.72c.44-.25.98-.25,1.42,0,.44.25.71.72.71,1.23v34.01c0,.51-.27.97-.71,1.23l-28.96,16.72c-.22.13-.47.19-.71.19Zm1.41-34.61v30.74l26.13-15.08v-30.74l-26.13,15.08Z"/>
        <polygon class="cls-4" points="345.43 524.96 345.43 558.98 316.47 542.26 316.47 508.25 345.43 524.96"/>
        <path class="cls-11" d="m345.43,560.4c-.24,0-.49-.06-.71-.19l-28.96-16.72c-.44-.25-.71-.72-.71-1.23v-34.01c0-.51.27-.97.71-1.23.44-.25.98-.25,1.41,0l28.96,16.72c.44.25.71.72.71,1.23v34.02c0,.51-.27.97-.71,1.23-.22.13-.46.19-.71.19Zm-27.54-18.95l26.13,15.08v-30.74l-26.13-15.08v30.74Z"/>
        <path class="cls-4" d="m439.29,461.52c-3.02-1.74-5.76-1.96-7.77-.87l-21.01,10.02-28.96,16.72,28.78,16.61c3.19,1.85,6.05,1.94,8.09.64l.02.04,28.76-16.61c2.03-1.17,3.27-3.66,3.27-7.22,0-7.11-5-15.77-11.18-19.33Z"/>
        <path class="cls-10" d="m415.28,506.93c-1.8,0-3.71-.57-5.67-1.7l-28.77-16.61c-.44-.25-.71-.72-.71-1.23s.27-.97.71-1.23l28.96-16.72,21.11-10.08c2.36-1.28,5.73-1.01,9.09.92,6.56,3.79,11.89,13.01,11.89,20.56,0,3.97-1.41,6.97-3.99,8.45l-28.76,16.61c-.1.06-.2.1-.3.13-1.06.59-2.26.89-3.56.89Zm-30.9-19.54l26.65,15.38c2.55,1.47,4.97,1.73,6.62.67.11-.07.24-.13.37-.16l28.46-16.44c1.66-.95,2.57-3.08,2.57-5.99,0-6.65-4.7-14.77-10.47-18.1-2.44-1.41-4.77-1.72-6.39-.85l-21.07,10.05-26.74,15.44Z"/>
        <path class="cls-4" d="m381.55,487.39l21.01-10.02c2.01-1.09,4.75-.88,7.77.86,6.18,3.57,11.18,12.22,11.18,19.34,0,7.11-5,9.99-11.18,6.42l-28.78-16.61Z"/>
        <path class="cls-10" d="m415.33,506.95c-1.81,0-3.73-.58-5.71-1.72l-28.78-16.61c-.46-.26-.73-.76-.71-1.28.02-.53.33-1,.81-1.22l21.01-10.02c2.36-1.28,5.73-1.02,9.09.91,6.67,3.85,11.89,12.89,11.89,20.57,0,2.76-.7,5.09-2.03,6.75-1.35,1.69-3.33,2.62-5.57,2.62Zm-30.74-19.43l26.44,15.26c3.17,1.83,6.06,1.77,7.65-.21.92-1.15,1.4-2.87,1.4-4.98,0-6.65-4.7-14.77-10.47-18.11-2.44-1.41-4.77-1.72-6.39-.85l-18.64,8.89Z"/>
        <path class="cls-4" d="m389.5,436.4c-2.01-3.4-4.75-6.36-7.76-8.11-3.09-1.78-5.89-1.96-7.91-.79l-28.95,16.72s0,0,0,0l-.1.05h0c-1.97,1.2-3.19,3.66-3.19,7.16,0,7.12,5.01,15.78,11.19,19.34l28.78,16.62,28.96-16.72-21.01-34.28Z"/>
        <path class="cls-10" d="m381.55,488.81c-.25,0-.49-.06-.71-.19l-28.78-16.61c-6.66-3.85-11.89-12.88-11.89-20.57,0-3.78,1.3-6.69,3.67-8.23.08-.07.16-.13.25-.18h0s.05-.03.07-.04l28.95-16.72c2.53-1.46,5.9-1.18,9.33.79,3.12,1.8,6.06,4.86,8.28,8.61l21,34.26c.2.32.26.72.16,1.09-.1.37-.33.69-.66.88l-28.96,16.72c-.22.13-.46.19-.71.19Zm-35.89-43.41s-.1.07-.15.1c-1.61.98-2.5,3.08-2.5,5.93,0,6.66,4.7,14.78,10.47,18.11l28.07,16.21,26.99-15.58-20.25-33.04c-1.99-3.36-4.56-6.06-7.26-7.62-2.5-1.44-4.87-1.72-6.5-.79l-28.88,16.68Z"/>
        <path class="cls-4" d="m381.55,487.39l-21.01-34.28c-2.01-3.4-4.74-6.35-7.76-8.1-6.17-3.57-11.18-.69-11.19,6.42,0,7.12,5.01,15.78,11.19,19.34l28.78,16.62Z"/>
        <path class="cls-10" d="m381.55,488.81c-.24,0-.49-.06-.71-.19l-28.78-16.61c-6.66-3.85-11.89-12.88-11.89-20.57,0-5.69,2.98-9.37,7.6-9.37,1.81,0,3.73.58,5.72,1.72,3.12,1.8,6.06,4.86,8.27,8.6l21,34.26c.34.55.26,1.26-.19,1.73-.27.28-.64.43-1.02.43Zm-33.78-43.91c-2.98,0-4.76,2.44-4.76,6.54,0,6.66,4.7,14.78,10.47,18.11l23.94,13.82-18.09-29.52c-1.98-3.35-4.56-6.04-7.27-7.61-1.52-.88-3.01-1.34-4.3-1.34Z"/>
      </g>
      <path class="cls-5" d="m224.02,556.89c-.05,0-.1,0-.16-.02-2.67-.61-6.51-.6-9.13,0-.29.06-.58-.05-.75-.3-.16-.24-.16-.56,0-.8.46-.68.7-1.48.7-2.32,0-.85-.24-1.65-.7-2.33-.16-.24-.16-.56,0-.8.16-.24.46-.36.75-.29,2.69.61,6.54.59,9.14,0,.29-.07.58.05.75.29.16.24.16.56,0,.8-.46.67-.7,1.48-.7,2.33,0,.79.21,1.54.61,2.18.15.13.25.33.25.54,0,.4-.33.74-.73.71h-.02Zm-4.75-1.9c1.23,0,2.41.08,3.5.24-.19-.56-.28-1.16-.28-1.77,0-.61.09-1.21.28-1.77-2.18.31-4.81.3-6.93,0,.19.56.28,1.16.28,1.78,0,.61-.09,1.21-.28,1.77,1.07-.15,2.24-.23,3.44-.23Z"/>
      <path class="cls-5" d="m621,566.94c-.05,0-.11,0-.16-.02-1.33-.3-2.91-.46-4.57-.46h0c-1.69,0-3.24.16-4.56.46-.29.06-.58-.05-.75-.3-.16-.24-.16-.56,0-.8.46-.67.7-1.48.7-2.32,0-.85-.24-1.65-.7-2.33-.16-.24-.16-.56,0-.8.17-.24.46-.36.75-.29,2.67.61,6.51.6,9.14,0,.29-.07.58.05.75.29.16.24.16.56,0,.8-.46.67-.7,1.48-.7,2.33,0,.79.21,1.55.61,2.18.16.13.25.33.25.54,0,.4-.3.75-.73.71h-.02Zm-4.78-1.91c1.25,0,2.44.08,3.52.24-.18-.56-.28-1.16-.28-1.77,0-.62.1-1.21.28-1.78-2.15.31-4.77.31-6.94,0,.19.56.28,1.16.28,1.77,0,.61-.09,1.21-.28,1.78,1.07-.15,2.23-.23,3.41-.23Z"/>
      <g class="cls-15">
        <path class="cls-4" d="m393.96,708.48c-.39,0-.71-.32-.71-.71v-7.71c0-.39.31-.71.71-.71h0c.39,0,.71.32.71.71v7.71c0,.39-.31.71-.71.71h0Z"/>
        <path class="cls-4" d="m400.64,704.63h-13.37c-.39,0-.71-.32-.71-.72s.32-.71.71-.71h13.37c.39,0,.71.32.71.71s-.32.71-.71.71Z"/>
      </g>
      <g class="cls-18">
        <path class="cls-4" d="m647.05,709.2c-.4,0-.71-.32-.71-.71v-7.71c0-.39.31-.71.71-.71h0c.39,0,.71.32.71.71v7.71c0,.39-.31.71-.71.71h0Z"/>
        <path class="cls-4" d="m653.73,705.35h-13.37c-.39,0-.71-.32-.71-.72s.32-.71.71-.71h13.37c.39,0,.71.32.71.72s-.32.71-.71.71Z"/>
      </g>
      <g class="cls-18">
        <path class="cls-4" d="m119.79,667.2c-.46,0-.83-.37-.83-.83v-9.01c0-.46.36-.83.82-.83h0c.46,0,.83.37.83.83v9.01c0,.46-.37.83-.83.83h0Z"/>
        <path class="cls-4" d="m127.59,662.7h-15.61c-.46,0-.83-.38-.83-.84s.37-.83.83-.83h15.61c.46,0,.83.38.83.84s-.37.83-.83.83Z"/>
      </g>
      <g>
        <path class="cls-8" d="m301.69,291.4c-.46,0-.83-.37-.83-.83v-9.01c0-.46.36-.83.82-.83h0c.46,0,.83.37.83.83v9.01c0,.46-.37.83-.83.83h0Z"/>
        <path class="cls-8" d="m309.49,286.9h-15.61c-.46,0-.83-.38-.83-.84s.37-.83.83-.83h15.61c.46,0,.83.38.83.84s-.37.83-.83.83Z"/>
      </g>
      <path class="cls-8" d="m316.81,214.16c-.7,0-1.43-.22-2.18-.65-2.45-1.42-4.36-4.73-4.36-7.56,0-1.05.27-1.95.79-2.6.96-1.21,2.7-1.39,4.41-.4,2.45,1.41,4.36,4.73,4.36,7.55,0,2.18-1.21,3.65-3.02,3.65Zm-3.53-10.19c-.39,0-.7.14-.93.43-.28.35-.42.89-.42,1.56,0,2.21,1.62,5.01,3.53,6.11.48.28.95.43,1.35.43,1.22,0,1.35-1.39,1.35-1.98,0-2.21-1.62-5.01-3.53-6.11-.49-.28-.95-.43-1.35-.43Z"/>
      <text/>
      <g>
        <path class="cls-9" d="m591.14,574.43h0c-.01-6.43-4.27-12.86-12.77-17.77-17.02-9.83-44.59-9.85-61.59-.03-8.5,4.91-12.75,11.36-12.73,17.8h0v14.39h0c.01,6.44,4.27,12.87,12.76,17.77,17.02,9.83,44.59,9.84,61.59.02,8.5-4.91,12.74-11.35,12.73-17.79h0v-14.39Z"/>
        <path class="cls-12" d="m532,597.97c-.13,4.35-.26,8.7-.38,13.06,3.21,1.36,7.83,2.88,13.54,3.36,9.18.77,16.47-1.55,20.42-3.15.07-4.55.15-9.1.22-13.65-4.63,1.01-10.49,1.88-17.28,1.92-6.44.04-12.03-.66-16.51-1.54Z"/>
        <path class="cls-13" d="m547.65,615.78h0c-11.96,0-23.23-2.71-31.74-7.62-8.8-5.08-13.65-11.95-13.67-19.33v-14.39c-.02-7.39,4.83-14.27,13.64-19.37,8.48-4.9,19.72-7.6,31.65-7.6s23.24,2.71,31.75,7.63c8.81,5.08,13.66,11.95,13.68,19.34v14.39c.02,7.4-4.83,14.28-13.64,19.36-8.49,4.9-19.74,7.6-31.67,7.6Zm-.12-64.68c-11.3,0-21.9,2.52-29.84,7.11-7.64,4.42-11.84,10.17-11.82,16.22v14.38c.01,6.05,4.23,11.81,11.86,16.21,7.97,4.6,18.59,7.13,29.93,7.13h0c11.31,0,21.91-2.52,29.85-7.11,7.64-4.41,11.84-10.17,11.82-16.21v-14.39c-.01-6.04-4.22-11.79-11.86-16.2-7.97-4.6-18.6-7.14-29.94-7.14Z"/>
        <path class="cls-13" d="m591.14,588.82v-14.39c-.01-6.43-4.27-12.86-12.77-17.77-3.31-1.91-7.03-3.44-10.98-4.61v59.18c3.97-1.17,7.7-2.71,11.02-4.62,8.5-4.91,12.74-11.35,12.73-17.79Z"/>
        <path class="cls-13" d="m567.39,613.05c-.39,0-.77-.12-1.09-.36-.46-.34-.73-.88-.73-1.45v-59.18c0-.57.27-1.11.73-1.45.46-.34,1.06-.45,1.6-.29,4.22,1.25,8.04,2.86,11.37,4.78,8.81,5.08,13.66,11.95,13.68,19.34v14.39c.02,7.4-4.83,14.28-13.64,19.36-3.35,1.93-7.18,3.54-11.41,4.79-.17.05-.34.07-.52.07Zm1.82-58.51v54.21c3.04-1.04,5.82-2.28,8.29-3.71,7.64-4.41,11.84-10.17,11.82-16.21v-14.39c-.01-6.04-4.22-11.79-11.86-16.2-2.46-1.42-5.23-2.66-8.26-3.7Z"/>
        <path class="cls-3" d="m578.41,592.22c16.99-9.81,16.98-25.73-.04-35.55-17.02-9.83-44.59-9.85-61.59-.03-16.99,9.82-16.98,25.74.03,35.56,17.02,9.82,44.59,9.84,61.59.02Z"/>
        <path class="cls-13" d="m547.65,601.39h0c-11.96,0-23.23-2.71-31.74-7.62-8.82-5.09-13.67-11.97-13.68-19.36,0-7.39,4.84-14.26,13.65-19.34,8.48-4.9,19.72-7.6,31.65-7.6s23.24,2.71,31.75,7.63c8.82,5.09,13.68,11.97,13.68,19.37,0,7.38-4.85,14.25-13.64,19.33-8.49,4.9-19.73,7.6-31.67,7.6Zm-.13-50.29c-11.3,0-21.9,2.52-29.84,7.11-7.63,4.41-11.83,10.16-11.83,16.2,0,6.04,4.21,11.8,11.86,16.22,7.97,4.6,18.6,7.13,29.93,7.13h0c11.31,0,21.91-2.53,29.85-7.11,7.63-4.4,11.82-10.15,11.82-16.18s-4.21-11.81-11.86-16.23c-7.97-4.6-18.6-7.14-29.94-7.14Z"/>
      </g>
      <g>
        <path class="cls-9" d="m591.14,556.31h0c-.01-6.43-4.27-12.86-12.77-17.77-17.02-9.83-44.59-9.85-61.59-.03-8.5,4.91-12.75,11.36-12.73,17.8h0v14.39h0c.01,6.44,4.27,12.87,12.76,17.77,17.02,9.83,44.59,9.84,61.59.02,8.5-4.91,12.74-11.35,12.73-17.79h0v-14.39Z"/>
        <path class="cls-12" d="m532,579.84c-.13,4.35-.26,8.7-.38,13.06,3.21,1.36,7.83,2.88,13.54,3.36,9.18.77,16.47-1.55,20.42-3.15l.22-13.65c-4.63,1.01-10.49,1.88-17.28,1.92-6.44.04-12.03-.66-16.51-1.54Z"/>
        <path class="cls-13" d="m547.64,597.66h0c-11.96,0-23.23-2.71-31.74-7.62-8.8-5.08-13.65-11.95-13.67-19.33v-14.39c-.02-7.39,4.83-14.27,13.64-19.37,8.48-4.9,19.72-7.6,31.65-7.6s23.24,2.71,31.75,7.63c8.81,5.08,13.66,11.95,13.68,19.34v14.39c.02,7.4-4.83,14.28-13.64,19.36-8.49,4.9-19.74,7.6-31.67,7.6Zm-.12-64.68c-11.3,0-21.9,2.52-29.84,7.11-7.64,4.42-11.84,10.17-11.82,16.22v14.38c.01,6.05,4.23,11.81,11.86,16.21,7.97,4.6,18.59,7.13,29.93,7.13h0c11.31,0,21.91-2.52,29.85-7.11,7.64-4.41,11.84-10.17,11.82-16.21v-14.39c-.01-6.04-4.22-11.79-11.86-16.2-7.97-4.6-18.6-7.14-29.94-7.14Z"/>
        <path class="cls-13" d="m591.14,570.7v-14.39c-.01-6.43-4.27-12.86-12.77-17.77-3.31-1.91-7.03-3.44-10.98-4.61v59.18c3.97-1.17,7.7-2.71,11.02-4.62,8.5-4.91,12.74-11.35,12.73-17.79Z"/>
        <path class="cls-13" d="m567.38,594.92c-.39,0-.77-.12-1.09-.36-.46-.34-.73-.88-.73-1.45v-59.18c0-.57.27-1.11.73-1.45.46-.34,1.06-.45,1.6-.29,4.22,1.25,8.04,2.86,11.37,4.78,8.81,5.08,13.66,11.95,13.68,19.34v14.39c.02,7.4-4.83,14.28-13.64,19.36-3.35,1.93-7.18,3.54-11.41,4.79-.17.05-.34.07-.52.07Zm1.82-58.51v54.21c3.04-1.04,5.82-2.28,8.29-3.71,7.64-4.41,11.84-10.17,11.82-16.21v-14.39c-.01-6.04-4.22-11.79-11.86-16.2-2.46-1.42-5.23-2.66-8.26-3.7Z"/>
        <path class="cls-3" d="m578.41,574.09c16.99-9.81,16.98-25.73-.04-35.55-17.02-9.83-44.59-9.85-61.59-.03-16.99,9.82-16.98,25.74.03,35.56,17.02,9.82,44.59,9.84,61.59.02Z"/>
        <path class="cls-13" d="m547.65,583.26h0c-11.96,0-23.23-2.71-31.74-7.62-8.82-5.09-13.67-11.97-13.68-19.36,0-7.39,4.84-14.26,13.65-19.34,8.48-4.9,19.72-7.6,31.65-7.6s23.24,2.71,31.75,7.63c8.82,5.09,13.68,11.97,13.68,19.37,0,7.38-4.85,14.25-13.64,19.33-8.49,4.9-19.73,7.6-31.67,7.6Zm-.13-50.29c-11.3,0-21.9,2.52-29.84,7.11-7.63,4.41-11.83,10.16-11.83,16.2,0,6.04,4.21,11.8,11.86,16.22,7.97,4.6,18.6,7.13,29.93,7.13h0c11.31,0,21.91-2.53,29.85-7.11,7.63-4.4,11.82-10.15,11.82-16.18s-4.21-11.81-11.86-16.23c-7.97-4.6-18.6-7.14-29.94-7.14Z"/>
      </g>
      <g>
        <path class="cls-9" d="m640.25,643.86h0c-.01-6.43-4.27-12.86-12.77-17.77-17.02-9.83-44.59-9.85-61.59-.03-8.5,4.91-12.75,11.36-12.73,17.8h0v14.39h0c.01,6.44,4.27,12.87,12.76,17.77,17.02,9.83,44.59,9.84,61.59.02,8.5-4.91,12.74-11.35,12.73-17.79h0v-14.39Z"/>
        <path class="cls-12" d="m581.12,667.4c-.13,4.35-.26,8.7-.38,13.06,3.21,1.36,7.83,2.88,13.54,3.36,9.18.77,16.47-1.55,20.42-3.15l.22-13.65c-4.63,1.01-10.49,1.88-17.28,1.92-6.44.04-12.03-.66-16.51-1.54Z"/>
        <path class="cls-13" d="m596.76,685.21h0c-11.96,0-23.23-2.71-31.74-7.62-8.8-5.08-13.65-11.95-13.67-19.33v-14.39c-.02-7.39,4.83-14.27,13.64-19.37,8.48-4.9,19.72-7.6,31.65-7.6s23.24,2.71,31.75,7.63c8.81,5.08,13.66,11.95,13.68,19.34v14.39c.02,7.4-4.83,14.28-13.64,19.36-8.49,4.9-19.74,7.6-31.67,7.6Zm-.12-64.68c-11.3,0-21.9,2.52-29.84,7.11-7.64,4.42-11.84,10.17-11.82,16.22v14.38c.01,6.05,4.23,11.81,11.86,16.21,7.97,4.6,18.59,7.13,29.93,7.13h0c11.31,0,21.91-2.52,29.85-7.11,7.64-4.41,11.84-10.17,11.82-16.21v-14.39c-.01-6.04-4.22-11.79-11.86-16.2-7.97-4.6-18.6-7.14-29.94-7.14Z"/>
        <path class="cls-13" d="m640.25,658.25v-14.39c-.01-6.43-4.27-12.86-12.77-17.77-3.31-1.91-7.03-3.44-10.98-4.61v59.18c3.97-1.17,7.7-2.71,11.02-4.62,8.5-4.91,12.74-11.35,12.73-17.79Z"/>
        <path class="cls-13" d="m616.5,682.48c-.39,0-.77-.12-1.09-.36-.46-.34-.73-.88-.73-1.45v-59.18c0-.57.27-1.11.73-1.45.46-.34,1.06-.45,1.6-.29,4.22,1.25,8.04,2.86,11.37,4.78,8.81,5.08,13.66,11.95,13.68,19.34v14.39c.02,7.4-4.83,14.28-13.64,19.36-3.35,1.93-7.18,3.54-11.41,4.79-.17.05-.34.07-.52.07Zm1.82-58.51v54.21c3.04-1.04,5.82-2.28,8.29-3.71,7.64-4.41,11.84-10.17,11.82-16.21v-14.39c-.01-6.04-4.22-11.79-11.86-16.2-2.46-1.42-5.23-2.66-8.26-3.7Z"/>
        <path class="cls-3" d="m627.52,661.65c16.99-9.81,16.98-25.73-.04-35.55-17.02-9.83-44.59-9.85-61.59-.03-16.99,9.82-16.98,25.74.03,35.56,17.02,9.82,44.59,9.84,61.59.02Z"/>
        <path class="cls-13" d="m596.77,670.82h0c-11.96,0-23.23-2.71-31.74-7.62-8.82-5.09-13.67-11.97-13.68-19.36,0-7.39,4.84-14.26,13.65-19.34,8.48-4.9,19.72-7.6,31.65-7.6s23.24,2.71,31.75,7.63c8.82,5.09,13.68,11.97,13.68,19.37,0,7.38-4.85,14.25-13.64,19.33-8.49,4.9-19.73,7.6-31.67,7.6Zm-.13-50.29c-11.3,0-21.9,2.52-29.84,7.11-7.63,4.41-11.83,10.16-11.83,16.2,0,6.04,4.21,11.8,11.86,16.22,7.97,4.6,18.6,7.13,29.93,7.13h0c11.31,0,21.91-2.53,29.85-7.11,7.63-4.4,11.82-10.15,11.82-16.18s-4.21-11.81-11.86-16.23c-7.97-4.6-18.6-7.14-29.94-7.14Z"/>
      </g>
      <g>
        <path class="cls-9" d="m624.6,629.62h0c-.01-6.41-4.26-12.82-12.73-17.7-16.96-9.79-44.43-9.81-61.37-.03-8.47,4.9-12.7,11.32-12.69,17.73h0v14.33h0c.01,6.42,4.26,12.82,12.72,17.71,16.96,9.8,44.44,9.8,61.38.02,8.47-4.89,12.7-11.31,12.69-17.73h0v-14.34Z"/>
        <path class="cls-12" d="m565.67,653.07c-.13,4.34-.26,8.67-.38,13.01,3.2,1.36,7.8,2.87,13.49,3.35,9.15.77,16.41-1.55,20.34-3.14.07-4.53.15-9.07.22-13.6-4.61,1.01-10.45,1.87-17.22,1.91-6.41.04-11.99-.66-16.45-1.53Z"/>
        <path class="cls-13" d="m581.26,670.82h0c-11.92,0-23.15-2.7-31.63-7.59-8.77-5.06-13.61-11.91-13.63-19.27v-14.34c-.02-7.37,4.81-14.22,13.59-19.3,8.45-4.88,19.65-7.57,31.54-7.57s23.16,2.7,31.64,7.6c8.78,5.06,13.62,11.9,13.63,19.27v14.34c.02,7.38-4.81,14.23-13.59,19.29-8.46,4.88-19.67,7.57-31.56,7.57Zm-.12-64.45c-11.26,0-21.82,2.51-29.73,7.08-7.61,4.4-11.8,10.14-11.78,16.16v14.33c.01,6.03,4.21,11.76,11.81,16.16,7.94,4.59,18.53,7.11,29.82,7.11h0c11.27,0,21.83-2.52,29.75-7.08,7.61-4.39,11.79-10.13,11.78-16.16v-14.34c-.01-6.02-4.21-11.75-11.82-16.14-7.94-4.59-18.54-7.11-29.83-7.11Z"/>
        <path class="cls-13" d="m624.6,643.96v-14.34c-.01-6.41-4.26-12.82-12.73-17.7-3.3-1.9-7.01-3.43-10.95-4.6v58.97c3.96-1.17,7.67-2.7,10.98-4.6,8.47-4.89,12.7-11.31,12.69-17.73Z"/>
        <path class="cls-13" d="m600.93,668.1c-.38,0-.76-.12-1.08-.36-.46-.34-.73-.88-.73-1.45v-58.97c0-.57.27-1.11.73-1.45.46-.34,1.05-.45,1.59-.28,4.2,1.25,8.01,2.85,11.33,4.76,8.78,5.06,13.62,11.9,13.63,19.27v14.34c.02,7.38-4.81,14.23-13.59,19.29-3.33,1.92-7.16,3.53-11.37,4.78-.17.05-.34.07-.52.07Zm1.81-58.3v54.02c3.03-1.03,5.8-2.27,8.27-3.7,7.61-4.39,11.79-10.13,11.78-16.16v-14.34c-.01-6.02-4.21-11.75-11.82-16.14-2.45-1.41-5.22-2.65-8.23-3.68Z"/>
        <path class="cls-3" d="m611.91,647.34c16.93-9.78,16.92-25.64-.04-35.42-16.96-9.79-44.43-9.81-61.37-.03-16.93,9.78-16.92,25.65.03,35.43,16.96,9.79,44.44,9.8,61.38.02Z"/>
        <path class="cls-13" d="m581.27,656.48h0c-11.91,0-23.15-2.7-31.63-7.59-8.79-5.07-13.63-11.93-13.63-19.3,0-7.36,4.83-14.21,13.6-19.27,8.45-4.88,19.65-7.57,31.54-7.57s23.16,2.7,31.64,7.6c8.79,5.07,13.63,11.93,13.63,19.3,0,7.36-4.83,14.2-13.59,19.26-8.46,4.88-19.66,7.57-31.55,7.57Zm-.13-50.11c-11.26,0-21.82,2.51-29.73,7.08-7.6,4.39-11.79,10.12-11.79,16.14,0,6.02,4.2,11.76,11.82,16.16,7.94,4.58,18.54,7.11,29.82,7.11h0c11.27,0,21.83-2.52,29.74-7.09,7.6-4.39,11.78-10.12,11.78-16.12s-4.2-11.77-11.82-16.17c-7.94-4.59-18.54-7.11-29.83-7.11Z"/>
      </g>
      <g>
        <path class="cls-9" d="m646.13,616.68h0c-.01-6.41-4.26-12.82-12.73-17.7-16.96-9.79-44.43-9.81-61.37-.03-8.47,4.9-12.7,11.32-12.69,17.73h0v14.33h0c.01,6.42,4.26,12.82,12.72,17.71,16.96,9.8,44.44,9.8,61.38.02,8.47-4.89,12.7-11.31,12.69-17.73h0v-14.34Z"/>
        <path class="cls-12" d="m587.21,640.13c-.13,4.34-.26,8.67-.38,13.01,3.2,1.36,7.8,2.87,13.49,3.35,9.15.77,16.41-1.55,20.34-3.14.07-4.53.15-9.07.22-13.6-4.61,1.01-10.45,1.87-17.22,1.91-6.41.04-11.99-.66-16.45-1.53Z"/>
        <path class="cls-13" d="m602.79,657.89h0c-11.92,0-23.15-2.7-31.63-7.59-8.77-5.06-13.61-11.91-13.63-19.27v-14.34c-.02-7.37,4.81-14.22,13.59-19.3,8.45-4.88,19.65-7.57,31.54-7.57s23.16,2.7,31.64,7.6c8.78,5.06,13.62,11.9,13.63,19.27v14.34c.02,7.38-4.81,14.23-13.59,19.29-8.46,4.88-19.67,7.57-31.56,7.57Zm-.12-64.45c-11.26,0-21.82,2.51-29.73,7.08-7.61,4.4-11.8,10.14-11.78,16.16v14.33c.01,6.03,4.21,11.76,11.81,16.16,7.94,4.59,18.53,7.11,29.82,7.11h0c11.27,0,21.83-2.52,29.75-7.08,7.61-4.39,11.79-10.13,11.78-16.16v-14.34c-.01-6.02-4.21-11.75-11.82-16.14-7.94-4.59-18.54-7.11-29.83-7.11Z"/>
        <path class="cls-13" d="m646.13,631.02v-14.34c-.01-6.41-4.26-12.82-12.73-17.7-3.3-1.9-7.01-3.43-10.95-4.6v58.97c3.96-1.17,7.67-2.7,10.98-4.6,8.47-4.89,12.7-11.31,12.69-17.73Z"/>
        <path class="cls-13" d="m622.46,655.16c-.38,0-.76-.12-1.08-.36-.46-.34-.73-.88-.73-1.45v-58.97c0-.57.27-1.11.73-1.45.46-.34,1.05-.45,1.59-.28,4.2,1.25,8.01,2.85,11.33,4.76,8.78,5.06,13.62,11.9,13.63,19.27v14.34c.02,7.38-4.81,14.23-13.59,19.29-3.33,1.92-7.16,3.53-11.37,4.78-.17.05-.34.07-.52.07Zm1.81-58.3v54.02c3.03-1.03,5.8-2.27,8.27-3.7,7.61-4.39,11.79-10.13,11.78-16.16v-14.34c-.01-6.02-4.21-11.75-11.82-16.14-2.45-1.41-5.22-2.65-8.23-3.68Z"/>
        <path class="cls-3" d="m633.45,634.41c16.93-9.78,16.92-25.64-.04-35.42-16.96-9.79-44.43-9.81-61.37-.03-16.93,9.78-16.92,25.65.03,35.43,16.96,9.79,44.44,9.8,61.38.02Z"/>
        <path class="cls-13" d="m602.8,643.55h0c-11.91,0-23.15-2.7-31.63-7.59-8.79-5.07-13.63-11.93-13.63-19.3,0-7.36,4.83-14.21,13.6-19.27,8.45-4.88,19.65-7.57,31.54-7.57s23.16,2.7,31.64,7.6c8.79,5.07,13.63,11.93,13.63,19.3,0,7.36-4.83,14.2-13.59,19.26-8.46,4.88-19.66,7.57-31.55,7.57Zm-.13-50.11c-11.26,0-21.82,2.51-29.73,7.08-7.6,4.39-11.79,10.12-11.79,16.14,0,6.02,4.2,11.76,11.82,16.16,7.94,4.58,18.54,7.11,29.82,7.11h0c11.27,0,21.83-2.52,29.74-7.09,7.6-4.39,11.78-10.12,11.78-16.12s-4.2-11.77-11.82-16.17c-7.94-4.59-18.54-7.11-29.83-7.11Z"/>
      </g>
      <g>
        <path class="cls-9" d="m525.98,647.71h0c-.01-6.43-4.27-12.86-12.77-17.77-17.02-9.83-44.59-9.85-61.59-.03-8.5,4.91-12.75,11.36-12.73,17.8h0v14.39h0c.01,6.44,4.27,12.87,12.76,17.77,17.02,9.83,44.59,9.84,61.59.02,8.5-4.91,12.74-11.35,12.73-17.79h0v-14.39Z"/>
        <path class="cls-12" d="m466.84,671.24c-.13,4.35-.26,8.7-.38,13.06,3.21,1.36,7.83,2.88,13.54,3.36,9.18.77,16.47-1.55,20.42-3.15.07-4.55.15-9.1.22-13.65-4.63,1.01-10.49,1.88-17.28,1.92-6.44.04-12.03-.66-16.51-1.54Z"/>
        <path class="cls-13" d="m482.49,689.06h0c-11.96,0-23.23-2.71-31.74-7.62-8.8-5.08-13.65-11.95-13.67-19.33v-14.39c-.02-7.39,4.83-14.27,13.64-19.37,8.48-4.9,19.72-7.6,31.65-7.6s23.24,2.71,31.75,7.63c8.81,5.08,13.66,11.95,13.68,19.34v14.39c.02,7.4-4.83,14.28-13.64,19.36-8.49,4.9-19.74,7.6-31.67,7.6Zm-.12-64.68c-11.3,0-21.9,2.52-29.84,7.11-7.64,4.42-11.84,10.17-11.82,16.22v14.38c.01,6.05,4.23,11.81,11.86,16.21,7.97,4.6,18.59,7.13,29.93,7.13h0c11.31,0,21.91-2.52,29.85-7.11,7.64-4.41,11.84-10.17,11.82-16.21v-14.39c-.01-6.04-4.22-11.79-11.86-16.2-7.97-4.6-18.6-7.14-29.94-7.14Z"/>
        <path class="cls-13" d="m525.98,662.1v-14.39c-.01-6.43-4.27-12.86-12.77-17.77-3.31-1.91-7.03-3.44-10.98-4.61v59.18c3.97-1.17,7.7-2.71,11.02-4.62,8.5-4.91,12.74-11.35,12.73-17.79Z"/>
        <path class="cls-13" d="m502.23,686.32c-.39,0-.77-.12-1.09-.36-.46-.34-.73-.88-.73-1.45v-59.18c0-.57.27-1.11.73-1.45.46-.34,1.06-.45,1.6-.29,4.22,1.25,8.04,2.86,11.37,4.78,8.81,5.08,13.66,11.95,13.68,19.34v14.39c.02,7.4-4.83,14.28-13.64,19.36-3.35,1.93-7.18,3.54-11.41,4.79-.17.05-.34.07-.52.07Zm1.82-58.51v54.21c3.04-1.04,5.82-2.28,8.29-3.71,7.64-4.41,11.84-10.17,11.82-16.21v-14.39c-.01-6.04-4.22-11.79-11.86-16.2-2.46-1.42-5.23-2.66-8.26-3.7Z"/>
        <path class="cls-3" d="m513.25,665.49c16.99-9.81,16.98-25.73-.04-35.55-17.02-9.83-44.59-9.85-61.59-.03-16.99,9.82-16.98,25.74.03,35.56,17.02,9.82,44.59,9.84,61.59.02Z"/>
        <path class="cls-13" d="m482.49,674.66h0c-11.96,0-23.23-2.71-31.74-7.62-8.82-5.09-13.67-11.97-13.68-19.36,0-7.39,4.84-14.26,13.65-19.34,8.48-4.9,19.72-7.6,31.65-7.6s23.24,2.71,31.75,7.63c8.82,5.09,13.68,11.97,13.68,19.37,0,7.38-4.85,14.25-13.64,19.33-8.49,4.9-19.73,7.6-31.67,7.6Zm-.13-50.29c-11.3,0-21.9,2.52-29.84,7.11-7.63,4.41-11.83,10.16-11.83,16.2,0,6.04,4.21,11.8,11.86,16.22,7.97,4.6,18.6,7.13,29.93,7.13h0c11.31,0,21.91-2.53,29.85-7.11,7.63-4.4,11.82-10.15,11.82-16.18s-4.21-11.81-11.86-16.23c-7.97-4.6-18.6-7.14-29.94-7.14Z"/>
      </g>
      <g>
        <path class="cls-9" d="m516.48,629.76h0c-.01-6.43-4.27-12.86-12.77-17.77-17.02-9.83-44.59-9.85-61.59-.03-8.5,4.91-12.75,11.36-12.73,17.8h0v14.39h0c.01,6.44,4.27,12.87,12.76,17.77,17.02,9.83,44.59,9.84,61.59.02,8.5-4.91,12.74-11.35,12.73-17.79h0v-14.39Z"/>
        <path class="cls-12" d="m457.34,653.29c-.13,4.35-.26,8.7-.38,13.06,3.21,1.36,7.83,2.88,13.54,3.36,9.18.77,16.47-1.55,20.42-3.15.07-4.55.15-9.1.22-13.65-4.63,1.01-10.49,1.88-17.28,1.92-6.44.04-12.03-.66-16.51-1.54Z"/>
        <path class="cls-13" d="m472.98,671.11h0c-11.96,0-23.23-2.71-31.74-7.62-8.8-5.08-13.65-11.95-13.67-19.33v-14.39c-.02-7.39,4.83-14.27,13.64-19.37,8.48-4.9,19.72-7.6,31.65-7.6s23.24,2.71,31.75,7.63c8.81,5.08,13.66,11.95,13.68,19.34v14.39c.02,7.4-4.83,14.28-13.64,19.36-8.49,4.9-19.74,7.6-31.67,7.6Zm-.12-64.68c-11.3,0-21.9,2.52-29.84,7.11-7.64,4.42-11.84,10.17-11.82,16.22v14.38c.01,6.05,4.23,11.81,11.86,16.21,7.97,4.6,18.59,7.13,29.93,7.13h0c11.31,0,21.91-2.52,29.85-7.11,7.64-4.41,11.84-10.17,11.82-16.21v-14.39c-.01-6.04-4.22-11.79-11.86-16.2-7.97-4.6-18.6-7.14-29.94-7.14Z"/>
        <path class="cls-13" d="m516.48,644.15v-14.39c-.01-6.43-4.27-12.86-12.77-17.77-3.31-1.91-7.03-3.44-10.98-4.61v59.18c3.97-1.17,7.7-2.71,11.02-4.62,8.5-4.91,12.74-11.35,12.73-17.79Z"/>
        <path class="cls-13" d="m492.72,668.38c-.39,0-.77-.12-1.09-.36-.46-.34-.73-.88-.73-1.45v-59.18c0-.57.27-1.11.73-1.45.46-.34,1.06-.45,1.6-.29,4.22,1.25,8.04,2.86,11.37,4.78,8.81,5.08,13.66,11.95,13.68,19.34v14.39c.02,7.4-4.83,14.28-13.64,19.36-3.35,1.93-7.18,3.54-11.41,4.79-.17.05-.34.07-.52.07Zm1.82-58.51v54.21c3.04-1.04,5.82-2.28,8.29-3.71,7.64-4.41,11.84-10.17,11.82-16.21v-14.39c-.01-6.04-4.22-11.79-11.86-16.2-2.46-1.42-5.23-2.66-8.26-3.7Z"/>
        <path class="cls-3" d="m503.74,647.54c16.99-9.81,16.98-25.73-.04-35.55-17.02-9.83-44.59-9.85-61.59-.03-16.99,9.82-16.98,25.74.03,35.56,17.02,9.82,44.59,9.84,61.59.02Z"/>
        <path class="cls-13" d="m472.99,656.72h0c-11.96,0-23.23-2.71-31.74-7.62-8.82-5.09-13.67-11.97-13.68-19.36,0-7.39,4.84-14.26,13.65-19.34,8.48-4.9,19.72-7.6,31.65-7.6s23.24,2.71,31.75,7.63c8.82,5.09,13.68,11.97,13.68,19.37,0,7.38-4.85,14.25-13.64,19.33-8.49,4.9-19.73,7.6-31.67,7.6Zm-.13-50.29c-11.3,0-21.9,2.52-29.84,7.11-7.63,4.41-11.83,10.16-11.83,16.2,0,6.04,4.21,11.8,11.86,16.22,7.97,4.6,18.6,7.13,29.93,7.13h0c11.31,0,21.91-2.53,29.85-7.11,7.63-4.4,11.82-10.15,11.82-16.18s-4.21-11.81-11.86-16.23c-7.97-4.6-18.6-7.14-29.94-7.14Z"/>
      </g>
      <path class="cls-8" d="m443.82,573.11c8.72-4.98,17.44-9.97,26.16-14.95.02,24.74.03,49.49.05,74.23-8.71-5.03-17.42-10.05-26.12-15.08-.03-14.73-.06-29.47-.09-44.2Z"/>
      <g>
        <path class="cls-9" d="m530.58,610.77h0c-.01-6.43-4.27-12.86-12.77-17.77-17.02-9.83-44.59-9.85-61.59-.03-8.5,4.91-12.75,11.36-12.73,17.8h0v14.39h0c.01,6.44,4.27,12.87,12.76,17.77,17.02,9.83,44.59,9.84,61.59.02,8.5-4.91,12.74-11.35,12.73-17.79h0v-14.39Z"/>
        <path class="cls-12" d="m471.44,634.3c-.13,4.35-.26,8.7-.38,13.06,3.21,1.36,7.83,2.88,13.54,3.36,9.18.77,16.47-1.55,20.42-3.15.07-4.55.15-9.1.22-13.65-4.63,1.01-10.49,1.88-17.28,1.92-6.44.04-12.03-.66-16.51-1.54Z"/>
        <path class="cls-13" d="m487.08,652.12h0c-11.96,0-23.23-2.71-31.74-7.62-8.8-5.08-13.65-11.95-13.67-19.33v-14.39c-.02-7.39,4.83-14.27,13.64-19.37,8.48-4.9,19.72-7.6,31.65-7.6s23.24,2.71,31.75,7.63c8.81,5.08,13.66,11.95,13.68,19.34v14.39c.02,7.4-4.83,14.28-13.64,19.36-8.49,4.9-19.74,7.6-31.67,7.6Zm-.12-64.68c-11.3,0-21.9,2.52-29.84,7.11-7.64,4.42-11.84,10.17-11.82,16.22v14.38c.01,6.05,4.23,11.81,11.86,16.21,7.97,4.6,18.59,7.13,29.93,7.13h0c11.31,0,21.91-2.52,29.85-7.11,7.64-4.41,11.84-10.17,11.82-16.21v-14.39c-.01-6.04-4.22-11.79-11.86-16.2-7.97-4.6-18.6-7.14-29.94-7.14Z"/>
        <path class="cls-13" d="m530.58,625.16v-14.39c-.01-6.43-4.27-12.86-12.77-17.77-3.31-1.91-7.03-3.44-10.98-4.61v59.18c3.97-1.17,7.7-2.71,11.02-4.62,8.5-4.91,12.74-11.35,12.73-17.79Z"/>
        <path class="cls-13" d="m506.82,649.38c-.39,0-.77-.12-1.09-.36-.46-.34-.73-.88-.73-1.45v-59.18c0-.57.27-1.11.73-1.45.46-.34,1.06-.45,1.6-.29,4.22,1.25,8.04,2.86,11.37,4.78,8.81,5.08,13.66,11.95,13.68,19.34v14.39c.02,7.4-4.83,14.28-13.64,19.36-3.35,1.93-7.18,3.54-11.41,4.79-.17.05-.34.07-.52.07Zm1.82-58.51v54.21c3.04-1.04,5.82-2.28,8.29-3.71,7.64-4.41,11.84-10.17,11.82-16.21v-14.39c-.01-6.04-4.22-11.79-11.86-16.2-2.46-1.42-5.23-2.66-8.26-3.7Z"/>
        <path class="cls-3" d="m517.85,628.55c16.99-9.81,16.98-25.73-.04-35.55-17.02-9.83-44.59-9.85-61.59-.03-16.99,9.82-16.98,25.74.03,35.56,17.02,9.82,44.59,9.84,61.59.02Z"/>
        <path class="cls-13" d="m487.09,637.73h0c-11.96,0-23.23-2.71-31.74-7.62-8.82-5.09-13.67-11.97-13.68-19.36,0-7.39,4.84-14.26,13.65-19.34,8.48-4.9,19.72-7.6,31.65-7.6s23.24,2.71,31.75,7.63c8.82,5.09,13.68,11.97,13.68,19.37,0,7.38-4.85,14.25-13.64,19.33-8.49,4.9-19.73,7.6-31.67,7.6Zm-.13-50.29c-11.3,0-21.9,2.52-29.84,7.11-7.63,4.41-11.83,10.16-11.83,16.2,0,6.04,4.21,11.8,11.86,16.22,7.97,4.6,18.6,7.13,29.93,7.13h0c11.31,0,21.91-2.53,29.85-7.11,7.63-4.4,11.82-10.15,11.82-16.18s-4.21-11.81-11.86-16.23c-7.97-4.6-18.6-7.14-29.94-7.14Z"/>
      </g>
      <g>
        <path class="cls-9" d="m531.5,593.04h0c-.01-6.43-4.27-12.86-12.77-17.77-17.02-9.83-44.59-9.85-61.59-.03-8.5,4.91-12.75,11.36-12.73,17.8h0v14.39h0c.01,6.44,4.27,12.87,12.76,17.77,17.02,9.83,44.59,9.84,61.59.02,8.5-4.91,12.74-11.35,12.73-17.79h0v-14.39Z"/>
        <path class="cls-12" d="m472.37,616.57c-.13,4.35-.26,8.7-.38,13.06,3.21,1.36,7.83,2.88,13.54,3.36,9.18.77,16.47-1.55,20.42-3.15.07-4.55.15-9.1.22-13.65-4.63,1.01-10.49,1.88-17.28,1.92-6.44.04-12.03-.66-16.51-1.54Z"/>
        <path class="cls-13" d="m488.01,634.38h0c-11.96,0-23.23-2.71-31.74-7.62-8.8-5.08-13.65-11.95-13.67-19.33v-14.39c-.02-7.39,4.83-14.27,13.64-19.37,8.48-4.9,19.72-7.6,31.65-7.6s23.24,2.71,31.75,7.63c8.81,5.08,13.66,11.95,13.68,19.34v14.39c.02,7.4-4.83,14.28-13.64,19.36-8.49,4.9-19.74,7.6-31.67,7.6Zm-.12-64.68c-11.3,0-21.9,2.52-29.84,7.11-7.64,4.42-11.84,10.17-11.82,16.22v14.38c.01,6.05,4.23,11.81,11.86,16.21,7.97,4.6,18.59,7.13,29.93,7.13h0c11.31,0,21.91-2.52,29.85-7.11,7.64-4.41,11.84-10.17,11.82-16.21v-14.39c-.01-6.04-4.22-11.79-11.86-16.2-7.97-4.6-18.6-7.14-29.94-7.14Z"/>
        <path class="cls-13" d="m531.5,607.42v-14.39c-.01-6.43-4.27-12.86-12.77-17.77-3.31-1.91-7.03-3.44-10.98-4.61v59.18c3.97-1.17,7.7-2.71,11.02-4.62,8.5-4.91,12.74-11.35,12.73-17.79Z"/>
        <path class="cls-13" d="m507.75,631.65c-.39,0-.77-.12-1.09-.36-.46-.34-.73-.88-.73-1.45v-59.18c0-.57.27-1.11.73-1.45.46-.34,1.06-.45,1.6-.29,4.22,1.25,8.04,2.86,11.37,4.78,8.81,5.08,13.66,11.95,13.68,19.34v14.39c.02,7.4-4.83,14.28-13.64,19.36-3.35,1.93-7.18,3.54-11.41,4.79-.17.05-.34.07-.52.07Zm1.82-58.51v54.21c3.04-1.04,5.82-2.28,8.29-3.71,7.64-4.41,11.84-10.17,11.82-16.21v-14.39c-.01-6.04-4.22-11.79-11.86-16.2-2.46-1.42-5.23-2.66-8.26-3.7Z"/>
        <path class="cls-3" d="m518.77,610.82c16.99-9.81,16.98-25.73-.04-35.55-17.02-9.83-44.59-9.85-61.59-.03-16.99,9.82-16.98,25.74.03,35.56,17.02,9.82,44.59,9.84,61.59.02Z"/>
        <path class="cls-13" d="m488.02,619.99h0c-11.96,0-23.23-2.71-31.74-7.62-8.82-5.09-13.67-11.97-13.68-19.36,0-7.39,4.84-14.26,13.65-19.34,8.48-4.9,19.72-7.6,31.65-7.6s23.24,2.71,31.75,7.63c8.82,5.09,13.68,11.97,13.68,19.37,0,7.38-4.85,14.25-13.64,19.33-8.49,4.9-19.73,7.6-31.67,7.6Zm-.13-50.29c-11.3,0-21.9,2.52-29.84,7.11-7.63,4.41-11.83,10.16-11.83,16.2,0,6.04,4.21,11.8,11.86,16.22,7.97,4.6,18.6,7.13,29.93,7.13h0c11.31,0,21.91-2.53,29.85-7.11,7.63-4.4,11.82-10.15,11.82-16.18s-4.21-11.81-11.86-16.23c-7.97-4.6-18.6-7.14-29.94-7.14Z"/>
      </g>
      <path class="cls-8" d="m479.21,299.82c-.7,0-1.43-.22-2.18-.65-2.45-1.42-4.36-4.73-4.36-7.56,0-1.05.27-1.95.79-2.6.96-1.21,2.7-1.39,4.41-.4,2.45,1.41,4.36,4.73,4.36,7.55,0,2.18-1.21,3.65-3.02,3.65Zm-3.53-10.19c-.39,0-.7.14-.93.43-.28.35-.42.89-.42,1.56,0,2.21,1.62,5.01,3.53,6.11.48.28.95.43,1.35.43,1.22,0,1.35-1.39,1.35-1.98,0-2.21-1.62-5.01-3.53-6.11-.49-.28-.95-.43-1.35-.43Z"/>
      <path class="cls-8" d="m392.86,310.1c-1.05,0-2.15-.06-3.27-.19-3.67-.42-6.54-1.4-6.54-2.23,0-.31.41-.58,1.18-.77,1.44-.36,4.05-.41,6.6-.12,3.67.42,6.54,1.4,6.54,2.23,0,.64-1.82,1.08-4.52,1.08Zm-5.29-3.01c-.58,0-1.05.04-1.39.13-.41.1-.63.26-.63.46,0,.65,2.42,1.48,5.29,1.8.72.08,1.42.13,2.02.13,1.83,0,2.03-.41,2.03-.58,0-.65-2.42-1.48-5.29-1.8-.73-.08-1.43-.13-2.02-.13Z"/>
      <path class="cls-8" d="m519.36,250.14s-.04,0-.06,0c-.34-.03-.63-.26-.73-.58-.47-1.52-1.23-3.2-2.2-4.88-.96-1.68-2.05-3.18-3.13-4.35-.23-.25-.29-.62-.14-.93.15-.31.47-.5.81-.47.94.07,1.91-.15,2.77-.65.86-.49,1.53-1.21,1.94-2.06.14-.31.44-.5.81-.47.34.03.63.26.73.58.47,1.52,1.24,3.21,2.2,4.88.93,1.61,1.97,3.06,3,4.21.24.15.39.41.39.71,0,.47-.38.83-.85.83-.03,0-.05,0-.08,0-.93-.07-1.91.16-2.77.65-.86.49-1.53,1.21-1.94,2.06-.14.29-.43.47-.75.47Zm-3.82-9.67c.79,1.01,1.56,2.15,2.26,3.37.71,1.22,1.31,2.46,1.79,3.64.46-.52,1.01-.96,1.63-1.32.61-.35,1.28-.61,1.96-.75-.79-1-1.56-2.14-2.26-3.37-.71-1.22-1.31-2.46-1.78-3.64-.46.52-1.01.96-1.63,1.32-.62.35-1.28.61-1.96.75Z"/>
      <path class="cls-8" d="m321.98,564.05c8.74,5.7,17.48,11.4,26.23,17.11v48.53c-8.71-5.03-17.42-10.05-26.12-15.08-.03-16.85-.07-33.7-.1-50.55Z"/>
    </g>
  </g>
</svg>