<?xml version="1.0" encoding="UTF-8"?><svg xmlns="http://www.w3.org/2000/svg" viewBox="0 0 680 832"><defs><style>.cls-1{fill:#037242;}.cls-2{fill:#f5fe8f;}.cls-3,.cls-4{fill:#fff;}.cls-5{fill:#f1f1f1;}.cls-6{fill:#eddad5;}.cls-7{fill:#ff6554;}.cls-8{fill:#b2d234;}.cls-9{fill:#e0372f;}.cls-10{fill:#1f1f24;}.cls-11{fill:#1e3f58;}.cls-12{fill:#29b57e;}.cls-13{fill:#353538;}.cls-14{fill:#4f4f4f;}.cls-15{opacity:.23;}.cls-16{opacity:.44;}.cls-17,.cls-4{opacity:.35;}</style></defs><g id="Layer_5"><g class="cls-16"><polygon points="414.47 470.02 396.56 459.62 396.83 554.64 414.74 565.05 414.47 470.02"/><polygon class="cls-14" points="444.39 452.75 426.48 442.34 396.56 459.62 414.47 470.02 444.39 452.75"/><polygon class="cls-10" points="414.47 470.02 414.74 565.05 444.66 547.78 444.39 452.75 414.47 470.02"/><polygon points="464.45 361.89 446.54 351.48 446.97 503.2 464.88 513.61 464.45 361.89"/><polygon class="cls-10" points="464.45 361.89 464.88 513.61 494.81 496.33 494.38 344.61 464.45 361.89"/><polygon points="565.09 379.77 547.18 369.36 547.52 489.01 565.43 499.42 565.09 379.77"/><polygon class="cls-14" points="595.01 362.5 577.1 352.09 547.18 369.36 565.09 379.77 595.01 362.5"/><polygon class="cls-10" points="565.09 379.77 565.43 499.42 595.35 482.14 595.01 362.5 565.09 379.77"/><g class="cls-15"><polygon class="cls-6" points="515.18 516.05 497.27 505.64 497.43 560.1 515.34 570.51 515.18 516.05"/><polygon class="cls-3" points="545.1 498.77 527.19 488.36 497.27 505.64 515.18 516.05 545.1 498.77"/><polygon class="cls-6" points="163.15 523.35 145.24 512.94 145.3 533.34 163.21 543.75 163.15 523.35"/><polygon class="cls-3" points="193.07 506.07 175.16 495.66 145.24 512.94 163.15 523.35 193.07 506.07"/><polygon class="cls-6" points="313.98 503.75 296.06 493.34 296.56 669.59 314.47 680 313.98 503.75"/><polygon class="cls-3" points="343.9 486.47 325.99 476.06 296.06 493.34 313.98 503.75 343.9 486.47"/><polygon class="cls-6" points="615.6 456.74 597.69 446.33 598.04 568.93 615.95 579.34 615.6 456.74"/><polygon class="cls-3" points="645.52 439.47 627.61 429.06 597.69 446.33 615.6 456.74 645.52 439.47"/><polygon class="cls-6" points="666.1 531.5 648.19 521.09 648.44 607.04 666.35 617.45 666.1 531.5"/><polygon class="cls-3" points="696.03 514.23 678.12 503.82 648.19 521.09 666.1 531.5 696.03 514.23"/></g><polygon points="63.26 547.39 45.35 536.98 45.41 622.84 63.32 633.25 63.26 547.39"/><polygon class="cls-14" points="93.19 530.11 75.28 519.7 45.35 536.98 63.26 547.39 93.19 530.11"/><polygon class="cls-10" points="63.26 547.39 63.32 633.25 93.24 615.97 93.19 530.11 63.26 547.39"/><polygon points="12.77 614.35 -5.14 603.95 -5.08 722.54 12.83 732.95 12.77 614.35"/><polygon class="cls-14" points="42.69 597.08 24.78 586.67 -5.14 603.95 12.77 614.35 42.69 597.08"/><polygon class="cls-10" points="12.77 614.35 12.83 732.95 42.75 715.67 42.69 597.08 12.77 614.35"/><polygon points="112.53 405.39 94.62 394.98 95.05 546.98 112.96 557.39 112.53 405.39"/><polygon class="cls-14" points="142.45 388.12 124.54 377.71 94.62 394.98 112.53 405.39 142.45 388.12"/><polygon class="cls-10" points="112.53 405.39 112.96 557.39 142.88 540.12 142.45 388.12 112.53 405.39"/></g></g><g id="Layer_1"><path d="m105.61,643.68c-4.5,2.44-11.39,7.16-13.42,14.86-2.42,9.16,3.21,18.12,13.22,30.39,17.42,21.37,32.68,40.08,64.86,58.63,15.64,9.01,25.49,14.7,39.98,18.42,49.28,12.67,115.27-6.8,124.14-42.98,1.5-6.11,2.51-17.37-6.17-33.86-74.2-15.16-148.4-30.31-222.6-45.47Z"/><path d="m362.95,536.69c-4.5,2.44-11.39,7.16-13.42,14.86-2.42,9.16,3.21,18.12,13.22,30.39,17.42,21.37,32.68,40.08,64.86,58.63,15.64,9.01,25.49,14.7,39.98,18.42,49.28,12.67,115.27-6.8,124.14-42.98,1.5-6.11,2.51-17.37-6.17-33.86-74.2-15.16-148.4-30.31-222.6-45.47Z"/><path class="cls-7" d="m523.22,113.26c-.7,0-1.43-.22-2.18-.65-2.45-1.42-4.36-4.73-4.36-7.56,0-1.05.27-1.95.79-2.6.96-1.21,2.7-1.39,4.41-.4,2.45,1.41,4.36,4.73,4.36,7.55,0,2.18-1.21,3.65-3.02,3.65Zm-3.53-10.19c-.39,0-.7.14-.93.43-.28.35-.42.89-.42,1.56,0,2.21,1.62,5.01,3.53,6.11.48.28.95.43,1.35.43,1.22,0,1.35-1.39,1.35-1.98,0-2.21-1.62-5.01-3.53-6.11-.49-.28-.95-.43-1.35-.43Z"/><path class="cls-7" d="m575.11,216.34s-.04,0-.06,0c-.34-.03-.63-.26-.73-.58-.47-1.52-1.23-3.2-2.2-4.88-.96-1.68-2.05-3.18-3.13-4.35-.23-.25-.29-.62-.14-.93.15-.31.47-.5.81-.47.94.07,1.91-.15,2.77-.65.86-.49,1.53-1.21,1.94-2.06.14-.31.44-.5.81-.47.34.03.63.26.73.58.47,1.52,1.24,3.21,2.2,4.88.93,1.61,1.97,3.06,3,4.21.24.15.39.41.39.71,0,.47-.38.83-.85.83-.03,0-.05,0-.08,0-.93-.07-1.91.16-2.77.65-.86.49-1.53,1.21-1.94,2.06-.14.29-.43.47-.75.47Zm-3.82-9.67c.79,1.01,1.56,2.15,2.26,3.37.71,1.22,1.31,2.46,1.79,3.64.46-.52,1.01-.96,1.63-1.32.61-.35,1.28-.61,1.96-.75-.79-1-1.56-2.14-2.26-3.37-.71-1.22-1.31-2.46-1.78-3.64-.46.52-1.01.96-1.63,1.32-.62.35-1.28.61-1.96.75Z"/><path class="cls-7" d="m443.49,240.76c-1.05,0-2.15-.06-3.27-.19-3.67-.42-6.54-1.4-6.54-2.23,0-.31.41-.58,1.18-.77,1.44-.36,4.05-.41,6.6-.12,3.67.42,6.54,1.4,6.54,2.23,0,.64-1.82,1.08-4.52,1.08Zm-5.29-3.01c-.58,0-1.05.04-1.39.13-.41.1-.63.26-.63.46,0,.65,2.42,1.48,5.29,1.8.72.08,1.42.13,2.02.13,1.83,0,2.03-.41,2.03-.58,0-.65-2.42-1.48-5.29-1.8-.73-.08-1.43-.13-2.02-.13Z"/><path class="cls-7" d="m178.98,63.34c-.46,0-.83-.37-.83-.83v-9.01c0-.46.36-.83.82-.83h0c.46,0,.83.37.83.83v9.01c0,.46-.37.83-.83.83h0Z"/><path class="cls-7" d="m186.78,58.84h-15.61c-.46,0-.83-.38-.83-.84s.37-.83.83-.83h15.61c.46,0,.83.38.83.84s-.37.83-.83.83Z"/><path class="cls-7" d="m118.42,224.98c-.7,0-1.43-.22-2.18-.65-2.45-1.42-4.36-4.73-4.36-7.56,0-1.05.27-1.95.79-2.6.96-1.21,2.7-1.39,4.41-.4,2.45,1.41,4.36,4.73,4.36,7.55,0,2.18-1.21,3.65-3.02,3.65Zm-3.53-10.19c-.39,0-.7.14-.93.43-.28.35-.42.89-.42,1.56,0,2.21,1.62,5.01,3.53,6.11.48.28.95.43,1.35.43,1.22,0,1.35-1.39,1.35-1.98,0-2.21-1.62-5.01-3.53-6.11-.49-.28-.95-.43-1.35-.43Z"/></g><g id="Layer_3"><path class="cls-12" d="m454.78,630.35c8.5,6.58,23.47,8.6,33.44,4.52l92.57-37.94c9.97-4.08,11.15-12.72,2.64-19.3l-90.15-69.72-128.65,52.7,90.15,69.73Z"/><path class="cls-11" d="m470.83,637.38c-6.44-.87-12.31-3.15-16.52-6.41l-90.15-69.73c-.22-.17-.33-.45-.3-.72s.22-.51.48-.62l128.65-52.71c.26-.11.55-.07.77.1l90.15,69.72c4.34,3.36,6.44,7.37,5.9,11.3-.54,3.94-3.63,7.25-8.72,9.34l-92.57,37.93c-4.95,2.03-11.23,2.66-17.68,1.79Zm-104.65-76.55l89.08,68.9c4,3.1,9.6,5.26,15.78,6.1,6.19.84,12.18.24,16.88-1.68l92.57-37.93c4.56-1.86,7.31-4.74,7.77-8.11.46-3.36-1.43-6.86-5.31-9.86l-89.79-69.44-126.98,52.02Z"/><path class="cls-1" d="m489.4,483.06l-128.64,52.71c-1.96.8-3.39,2.9-3.83,6.1-.87,6.4,2.58,14.8,7.69,18.75l128.65-52.7,3.14-23.18c-2.56-1.98-5.05-2.48-7.02-1.68Z"/><path class="cls-1" d="m364.53,561.39c-.13-.02-.26-.07-.37-.16-5.3-4.1-8.89-12.83-7.99-19.47.46-3.39,1.99-5.77,4.3-6.72l128.64-52.71c2.29-.93,5.09-.3,7.79,1.78.22.17.33.45.3.72l-3.14,23.18c-.04.28-.22.51-.48.61l-128.65,52.7c-.13.05-.27.07-.4.05Zm127.47-77.87c-.83-.11-1.6-.02-2.3.26l-128.64,52.71c-1.78.73-2.97,2.67-3.35,5.48-.81,6,2.33,13.85,7.05,17.75l127.81-52.35,3.02-22.28c-1.22-.87-2.45-1.41-3.59-1.57Z"/><polygon class="cls-5" points="581.92 587.02 484.01 511.3 374.01 556.38 471.91 632.1 581.92 587.02"/><path class="cls-10" d="m471.81,632.87c-.13-.02-.26-.07-.37-.16l-97.9-75.72c-.22-.17-.33-.45-.3-.72s.22-.51.48-.61l110-45.08c.26-.11.55-.07.77.1l97.9,75.72c.22.17.33.44.3.72s-.22.51-.48.62l-110.01,45.08c-.13.05-.27.07-.4.05Zm-96.25-76.28l96.48,74.62,108.34-44.4-96.48-74.62-108.34,44.4Z"/><polygon class="cls-5" points="582.96 579.29 485.06 503.57 375.06 548.65 472.96 624.37 582.96 579.29"/><path class="cls-10" d="m472.85,625.15c-.13-.02-.26-.07-.37-.16l-97.9-75.72c-.22-.17-.33-.45-.3-.72s.22-.51.48-.62l110-45.08c.26-.11.55-.07.77.1l97.91,75.72c.22.17.33.45.3.72s-.22.51-.48.62l-110.01,45.09c-.13.06-.27.07-.4.05Zm-96.25-76.29l96.48,74.62,108.34-44.4-96.48-74.62-108.34,44.4Z"/><polygon class="cls-5" points="580.93 569.18 486.11 495.85 376.11 540.92 470.93 614.26 580.93 569.18"/><path class="cls-10" d="m470.82,615.03c-.13-.02-.26-.07-.37-.16l-94.82-73.34c-.22-.17-.33-.44-.3-.72s.22-.51.48-.62l110-45.07c.26-.11.55-.07.77.1l94.82,73.33c.22.17.33.45.3.72s-.22.51-.48.62l-110,45.08c-.13.05-.27.07-.4.05Zm-93.17-73.9l93.4,72.24,108.34-44.39-93.4-72.23-108.34,44.39Z"/><path class="cls-12" d="m574.24,544.92l-77.81-60.18c-2.56-1.98-5.05-2.48-7.02-1.68l-128.64,52.71c-.32.13-.59.34-.88.54,2.07-1.41,4.92-1.16,7.88,1.13h0s77.82,60.19,77.82,60.19c8.5,6.57,23.48,8.6,33.43,4.52l92.58-37.94c9.95-4.08,11.14-12.72,2.64-19.3Z"/><path class="cls-11" d="m461.64,604.66h0c-6.44-.87-12.31-3.15-16.53-6.41l-77.82-60.19s-.04-.03-.06-.05c-2.53-1.92-5.05-2.32-6.91-1.06-.35.24-.84.15-1.08-.2-.24-.35-.15-.84.2-1.08.4-.28.68-.48,1.02-.62l128.64-52.71c2.29-.93,5.09-.3,7.79,1.78l77.81,60.18c4.34,3.35,6.43,7.36,5.9,11.3-.53,3.94-3.63,7.26-8.72,9.34l-92.58,37.94c-4.94,2.02-11.22,2.66-17.68,1.78Zm-93.33-67.78l77.75,60.13c4,3.09,9.61,5.26,15.79,6.1,6.19.84,12.18.24,16.88-1.68l92.58-37.94c4.55-1.86,7.31-4.74,7.76-8.11.45-3.36-1.43-6.86-5.31-9.85l-77.82-60.18c-2.21-1.71-4.49-2.29-6.24-1.57l-124.92,51.18c1.15.34,2.32.96,3.47,1.86.02.02.04.04.07.06Z"/><path class="cls-1" d="m518.5,622.45c2.58,2,5.09,2.48,7.06,1.64h0s31.95-13.08,31.95-13.08c1.96-.8,3.39-2.89,3.82-6.09v-.03s-42.84,17.55-42.84,17.55Z"/><path class="cls-1" d="m522.7,625.2h0c-1.54-.21-3.11-.93-4.67-2.14-.22-.17-.33-.45-.29-.72s.22-.51.48-.62l42.85-17.55c.26-.11.55-.07.77.1.22.17.33.45.3.72-.46,3.41-1.99,5.79-4.3,6.73l-31.95,13.09c-.05.02-.1.04-.16.04-.93.36-1.94.47-3.01.33Zm-2.57-2.58c1.86,1.1,3.67,1.37,5.13.75.05-.02.11-.04.16-.05l31.81-13.03c1.48-.6,2.55-2.05,3.09-4.13l-40.18,16.46Z"/><path class="cls-12" d="m553.65,586.17l-29.01-22.44c-7.54-5.84-20.83-7.63-29.66-4.01-8.84,3.63-9.89,11.29-2.34,17.13l29.01,22.42c5.11,3.97,8.55,12.36,7.69,18.76-.44,3.17-1.84,5.25-3.77,6.06h0s31.95-13.08,31.95-13.08c1.96-.8,3.39-2.89,3.82-6.09.87-6.41-2.58-14.8-7.69-18.76Z"/><path class="cls-10" d="m525.46,624.88c-.07,0-.13-.03-.2-.05-.19-.08-.34-.23-.42-.43h0c-.16-.41.03-.86.42-1.03,1.75-.73,2.92-2.67,3.3-5.44.83-6.14-2.49-14.24-7.4-18.05l-29.01-22.42c-3.87-3-5.75-6.58-5.27-10.1.48-3.53,3.24-6.5,7.79-8.36,4.4-1.81,9.99-2.37,15.73-1.59,5.73.78,10.95,2.8,14.71,5.71l29.01,22.44c5.3,4.11,8.89,12.85,7.99,19.48-.46,3.38-1.99,5.76-4.3,6.7l-31.95,13.09c-.13.05-.27.07-.4.05Zm-15.26-65.93c-5.48-.74-10.78-.21-14.93,1.49-4.01,1.65-6.44,4.18-6.84,7.13-.4,2.94,1.26,6.02,4.68,8.66l29.01,22.42c5.3,4.11,8.88,12.85,7.99,19.48-.2,1.44-.59,2.69-1.15,3.74l28.27-11.58c1.78-.72,2.97-2.67,3.35-5.47.83-6.14-2.49-14.23-7.4-18.04l-29.01-22.44c-3.54-2.74-8.5-4.65-13.96-5.39Z"/><path class="cls-5" d="m517.18,567.03c-3.93-3.04-10.86-3.98-15.46-2.09-4.6,1.89-5.16,5.89-1.21,8.93,3.93,3.04,10.85,3.98,15.45,2.09,4.61-1.88,5.16-5.89,1.22-8.92Z"/><path class="cls-10" d="m507.86,577.53h0c-3.05-.41-5.83-1.49-7.84-3.05-2.13-1.65-3.16-3.64-2.89-5.61.27-1.98,1.79-3.63,4.29-4.66,2.35-.96,5.33-1.27,8.39-.85s5.84,1.5,7.85,3.05c2.13,1.65,3.16,3.64,2.89,5.61-.27,1.98-1.79,3.63-4.29,4.65-2.36.97-5.33,1.27-8.39.86Zm1.74-12.62c-2.79-.38-5.48-.11-7.59.75-1.96.81-3.15,2.02-3.34,3.42-.19,1.4.63,2.88,2.3,4.17,1.79,1.39,4.31,2.36,7.09,2.73h0c2.79.38,5.48.11,7.59-.75,1.96-.8,3.15-2.02,3.34-3.42.19-1.4-.62-2.88-2.3-4.17-1.8-1.39-4.32-2.36-7.11-2.74Z"/><path class="cls-1" d="m528.3,609.37c.97,2.92,1.4,5.97,1.04,8.67-.44,3.17-1.84,5.25-3.77,6.06h0s31.95-13.08,31.95-13.08c1.96-.8,3.39-2.89,3.82-6.09.37-2.7-.07-5.74-1.04-8.67l-32.01,13.11Z"/><path class="cls-1" d="m525.46,624.88c-.07,0-.13-.03-.2-.05-.19-.08-.34-.23-.42-.43h0c-.16-.41.03-.86.42-1.03,1.75-.73,2.92-2.67,3.3-5.44.33-2.46-.01-5.34-1.01-8.31-.13-.39.07-.81.44-.97l32.01-13.12c.2-.08.43-.08.62.01.2.09.35.26.41.46,1.07,3.22,1.44,6.34,1.07,9.02-.46,3.38-1.99,5.76-4.3,6.7l-31.95,13.09c-.13.05-.27.07-.4.05Zm3.79-15.06c.9,2.95,1.19,5.82.85,8.32-.2,1.44-.59,2.69-1.15,3.74l28.27-11.58c1.78-.72,2.97-2.67,3.35-5.47.3-2.23.04-4.82-.76-7.52l-30.56,12.52Z"/><path class="cls-5" d="m195.61,739.06c8.5,6.58,23.47,8.6,33.44,4.52l92.57-37.93c9.97-4.08,11.15-12.72,2.64-19.3l-90.15-69.72-128.65,52.71,90.15,69.73Z"/><path class="cls-10" d="m211.66,746.09h0c-6.44-.87-12.31-3.15-16.52-6.42l-90.15-69.72c-.22-.17-.33-.45-.3-.72s.22-.51.48-.62l128.65-52.7c.26-.11.55-.07.77.1l90.15,69.71c4.34,3.36,6.44,7.37,5.9,11.31-.53,3.94-3.63,7.25-8.73,9.34l-92.57,37.93c-4.95,2.02-11.23,2.66-17.68,1.79Zm-104.65-76.55l89.08,68.9c4,3.1,9.6,5.27,15.78,6.1s12.18.24,16.88-1.68l92.57-37.94c4.55-1.86,7.31-4.74,7.77-8.1.46-3.36-1.43-6.86-5.31-9.86l-89.79-69.44-126.98,52.02Z"/><path class="cls-13" d="m230.24,591.78l-128.64,52.71c-1.96.8-3.39,2.9-3.82,6.1-.87,6.4,2.57,14.8,7.69,18.75l128.65-52.71,3.14-23.18c-2.56-1.98-5.05-2.48-7.01-1.67Z"/><path class="cls-13" d="m105.36,670.11c-.13-.02-.26-.07-.37-.16-5.3-4.1-8.88-12.84-7.99-19.47.46-3.39,1.99-5.77,4.3-6.71l128.64-52.71c2.29-.93,5.09-.3,7.79,1.78.22.17.33.44.3.72l-3.14,23.18c-.04.28-.22.51-.48.62l-128.65,52.71c-.13.05-.27.07-.4.05Zm127.48-77.87c-.83-.11-1.6-.03-2.3.26l-128.64,52.71c-1.78.72-2.97,2.67-3.35,5.48-.81,6,2.33,13.85,7.05,17.75l127.81-52.36,3.02-22.28c-1.21-.87-2.45-1.41-3.58-1.56Z"/><polygon class="cls-12" points="322.75 695.73 224.85 620.01 114.85 665.09 212.75 740.81 322.75 695.73"/><path class="cls-10" d="m212.64,741.58c-.13-.02-.26-.07-.37-.16l-97.9-75.72c-.22-.17-.33-.45-.3-.72s.22-.51.48-.62l110-45.08c.26-.11.55-.07.77.1l97.9,75.72c.22.17.33.45.3.72s-.22.51-.48.62l-110,45.08c-.13.05-.27.07-.4.05Zm-96.25-76.28l96.48,74.62,108.34-44.4-96.48-74.62-108.34,44.4Z"/><polygon class="cls-12" points="323.8 688 225.9 612.28 115.89 657.36 213.79 733.08 323.8 688"/><path class="cls-10" d="m213.69,733.86c-.13-.02-.26-.07-.37-.16l-97.9-75.72c-.22-.17-.33-.45-.3-.72s.22-.51.48-.62l110-45.08c.26-.11.55-.07.77.1l97.9,75.72c.22.17.33.45.3.72s-.22.51-.48.62l-110,45.08c-.13.05-.27.07-.4.05Zm-96.25-76.29l96.48,74.62,108.34-44.4-96.48-74.62-108.34,44.4Z"/><polygon class="cls-12" points="321.76 677.89 226.94 604.56 116.94 649.63 211.76 722.97 321.76 677.89"/><path class="cls-10" d="m211.65,723.74c-.13-.02-.26-.07-.37-.16l-94.82-73.34c-.22-.17-.33-.45-.3-.72s.22-.51.48-.62l110-45.07c.26-.11.55-.07.77.1l94.82,73.33c.22.17.33.45.3.72s-.22.51-.48.62l-110,45.08c-.13.05-.27.07-.4.05Zm-93.17-73.9l93.4,72.24,108.34-44.4-93.39-72.23-108.34,44.39Z"/><path class="cls-5" d="m315.07,653.63l-77.81-60.18c-2.56-1.98-5.05-2.48-7.01-1.67l-128.64,52.71c-.32.13-.59.34-.88.54,2.07-1.41,4.92-1.16,7.88,1.13h0s77.82,60.19,77.82,60.19c8.5,6.57,23.48,8.6,33.43,4.52l92.58-37.93c9.95-4.08,11.14-12.73,2.63-19.3Z"/><path class="cls-11" d="m202.47,713.37h0c-6.44-.87-12.31-3.15-16.53-6.41l-77.82-60.19s-.04-.03-.06-.05c-2.53-1.93-5.05-2.31-6.91-1.06-.35.24-.84.15-1.08-.2-.24-.35-.15-.84.2-1.08.39-.28.68-.48,1.03-.62l128.64-52.71c2.29-.93,5.09-.3,7.79,1.78l77.81,60.18c4.34,3.35,6.43,7.37,5.9,11.3-.53,3.94-3.63,7.26-8.72,9.34l-92.58,37.94c-4.94,2.02-11.22,2.66-17.68,1.78Zm-93.32-67.78l77.75,60.14c4,3.09,9.61,5.26,15.78,6.1,6.19.84,12.18.24,16.88-1.68l92.58-37.93c4.55-1.86,7.31-4.75,7.76-8.11.45-3.36-1.43-6.86-5.31-9.85l-77.81-60.19c-2.21-1.71-4.49-2.28-6.24-1.57l-124.92,51.19c1.15.34,2.31.96,3.47,1.86.02.02.04.04.06.05Z"/><path class="cls-5" d="m294.48,694.88l-29.01-22.43c-7.54-5.84-20.83-7.64-29.66-4.01-8.84,3.62-9.89,11.29-2.34,17.12l29.01,22.42c5.11,3.96,8.55,12.36,7.69,18.76-.43,3.17-1.84,5.25-3.77,6.06v.02s31.96-13.09,31.96-13.09c1.96-.8,3.39-2.9,3.82-6.09.87-6.41-2.58-14.8-7.69-18.76Z"/><path class="cls-11" d="m266.3,733.6c-.08-.01-.16-.03-.24-.07-.2-.1-.35-.28-.41-.49v-.02c-.11-.38.08-.78.44-.93,1.75-.73,2.92-2.66,3.3-5.44.83-6.14-2.48-14.24-7.39-18.05l-29.01-22.42c-3.87-3-5.74-6.59-5.27-10.11.48-3.52,3.24-6.49,7.79-8.36,4.4-1.8,9.99-2.37,15.73-1.59s10.96,2.8,14.71,5.7l29.01,22.43c5.3,4.11,8.89,12.85,7.99,19.48-.46,3.38-1.99,5.76-4.3,6.71l-31.95,13.09c-.13.05-.27.07-.4.05Zm-15.26-65.93c-5.48-.74-10.78-.21-14.93,1.49-4.01,1.65-6.44,4.18-6.84,7.13-.4,2.94,1.26,6.02,4.68,8.66l29.01,22.42c5.3,4.11,8.88,12.85,7.98,19.49-.2,1.44-.59,2.69-1.15,3.74l28.27-11.59c1.78-.73,2.96-2.67,3.35-5.47.83-6.14-2.49-14.24-7.4-18.04l-29.01-22.43c-3.54-2.74-8.5-4.66-13.97-5.4Z"/><path class="cls-12" d="m258.01,675.74c-3.94-3.05-10.86-3.98-15.47-2.09-4.61,1.89-5.16,5.89-1.21,8.93,3.93,3.04,10.85,3.98,15.45,2.08,4.61-1.88,5.16-5.88,1.23-8.92Z"/><path class="cls-10" d="m248.69,686.24h0c-3.05-.41-5.83-1.5-7.83-3.05-2.13-1.64-3.16-3.64-2.89-5.61.27-1.98,1.79-3.63,4.29-4.65,2.35-.96,5.33-1.27,8.39-.85s5.84,1.49,7.85,3.05c2.13,1.65,3.16,3.64,2.89,5.61-.27,1.97-1.79,3.62-4.29,4.64-2.35.97-5.34,1.27-8.39.86Zm1.74-12.62c-2.79-.38-5.48-.11-7.59.75-1.96.8-3.15,2.02-3.33,3.42-.19,1.4.63,2.88,2.3,4.17,1.79,1.39,4.31,2.36,7.09,2.74s5.49.11,7.59-.76c1.96-.8,3.15-2.01,3.34-3.41.19-1.4-.62-2.88-2.3-4.17-1.8-1.39-4.32-2.36-7.1-2.74Z"/><path class="cls-13" d="m269.13,718.09c.97,2.92,1.4,5.97,1.04,8.67-.43,3.17-1.84,5.25-3.77,6.06v.02s31.96-13.09,31.96-13.09c1.96-.8,3.39-2.9,3.82-6.09.37-2.7-.07-5.74-1.04-8.67l-32.01,13.11Z"/><path class="cls-13" d="m266.3,733.6c-.08-.01-.16-.03-.24-.07-.2-.1-.35-.28-.41-.49v-.02c-.11-.38.08-.78.44-.93,1.75-.73,2.92-2.66,3.3-5.44.34-2.46-.01-5.34-1-8.32-.13-.39.06-.81.44-.97l32.01-13.11c.2-.08.43-.07.62.01.2.09.35.26.41.46,1.06,3.22,1.43,6.33,1.07,9.02-.46,3.38-1.99,5.76-4.3,6.71l-31.95,13.09c-.13.05-.27.07-.4.05Zm3.79-15.06c.89,2.96,1.19,5.82.85,8.32-.2,1.44-.59,2.7-1.15,3.74l28.27-11.59c1.78-.73,2.96-2.67,3.35-5.47.3-2.24.04-4.82-.76-7.52l-30.56,12.52Z"/><path d="m357.36,638.19c2.07,2.32,4.13,4.64,6.2,6.96-16.64-.21-33.28-.43-49.91-.64-.27-10.36-.55-20.72-.82-31.07,18.36-12.82,36.72-25.64,55.08-38.46,12.36,11.83,24.73,23.66,37.09,35.49-15.88,9.24-31.76,18.48-47.64,27.73Z"/><polygon class="cls-7" points="311.97 613.31 350.97 597.33 359.47 603.91 365.63 585.34 367.05 574.85 333.76 572.44 332.32 583.09 303.25 594.99 301.83 605.48 311.97 613.31"/><path class="cls-10" d="m311.85,614.17c-.15-.02-.29-.08-.41-.17l-10.13-7.84c-.24-.19-.37-.49-.33-.8l1.42-10.48c.04-.31.24-.57.53-.68l28.6-11.72,1.37-10.15c.06-.45.46-.78.92-.75l33.29,2.41c.24.01.46.13.61.32.15.19.22.43.18.66l-1.42,10.48-6.2,18.73c-.09.27-.3.47-.57.56-.27.08-.56.03-.78-.15l-8.1-6.27-38.55,15.79c-.14.06-.3.08-.44.06Zm-9.09-9.07l9.34,7.23,38.55-15.79c.29-.12.61-.07.86.12l7.52,5.83,5.78-17.41,1.26-9.42-31.56-2.28-1.33,9.84c-.04.31-.24.57-.53.68l-28.6,11.72-1.29,9.49Z"/><path class="cls-3" d="m367.05,574.85l-33.29-2.41,8.5,6.57-39,15.99,10.13,7.84,39.01-15.98h0s8.49,6.57,8.49,6.57l6.16-18.57Z"/><path class="cls-10" d="m313.27,603.69c-.15-.02-.29-.08-.41-.17l-10.13-7.84c-.24-.19-.37-.49-.33-.8s.24-.57.53-.68l37.62-15.42-7.31-5.65c-.3-.23-.42-.64-.28-.99.14-.36.49-.58.87-.55l33.29,2.41c.27.03.51.16.66.38.15.22.19.5.1.75l-6.16,18.57c-.09.27-.3.47-.57.56-.27.08-.56.03-.78-.15l-8.1-6.26-38.54,15.79c-.14.06-.3.08-.44.06Zm-8.3-8.46l8.55,6.62,38.54-15.8c.22-.09.47-.08.68.01.08.04.16.09.23.15l7.48,5.78,5.43-16.36-29.32-2.12,6.23,4.81c.24.19.37.49.33.8s-.24.57-.53.69l-37.62,15.42Z"/><path class="cls-7" d="m342.26,579.01l-9.94,4.08,1.44-10.65,8.5,6.57Zm18.63,14.41l-8.49-6.57-1.42,10.48,8.49,6.57,1.42-10.49Zm-48.92,19.89l1.42-10.48-10.13-7.84-1.42,10.48,10.13,7.84Z"/><path class="cls-7" d="m311.85,614.17c-.15-.02-.29-.08-.41-.17l-10.13-7.84c-.24-.19-.37-.49-.33-.8l1.42-10.48c.04-.31.24-.57.53-.68.29-.12.61-.07.86.12l10.13,7.84c.24.19.37.49.33.8l-1.42,10.48c-.04.31-.24.57-.53.69-.14.06-.3.08-.44.06Zm-9.09-9.07l8.56,6.62,1.15-8.5-8.55-6.62-1.15,8.5Zm56.59-.33c-.15-.02-.29-.08-.41-.17l-8.49-6.57c-.25-.19-.37-.49-.33-.8l1.42-10.48c.04-.31.24-.57.53-.69.29-.12.61-.07.86.12l8.49,6.57c.24.19.37.49.33.8l-1.42,10.49c-.04.31-.24.57-.53.68-.14.06-.3.08-.44.06Zm-7.45-7.81l6.91,5.35,1.15-8.51-6.92-5.34-1.15,8.5Zm-19.7-13.01c-.15-.02-.29-.08-.41-.17-.24-.19-.37-.49-.33-.8l1.44-10.65c.04-.31.24-.57.53-.68.29-.12.61-.07.86.12l8.5,6.57c.24.19.37.49.33.8s-.24.57-.53.69l-9.94,4.08c-.14.06-.3.08-.44.06Zm2.21-9.9l-1.04,7.68,7.17-2.94-6.13-4.74Z"/><path class="cls-7" d="m344.87,638.77l1.42-10.48-.13-.1,29.22-11.97,1.42-10.49-10.13-7.84-39,15.98h0s-8.49-6.57-8.49-6.57l-6.16,18.57-1.42,10.48,33.29,2.41Z"/><path class="cls-10" d="m311.47,637.21c-.22-.03-.42-.14-.56-.31-.15-.19-.22-.43-.18-.66l1.42-10.48,6.19-18.73c.09-.27.3-.47.57-.56.27-.08.56-.03.78.14l8.09,6.27,38.55-15.79c.29-.12.61-.07.86.12l10.13,7.84c.24.19.37.49.33.8l-1.42,10.49c-.04.31-.24.57-.53.68l-28.6,11.72-1.38,10.15c-.06.45-.46.78-.92.75l-33.28-2.42s-.04,0-.05,0Zm8.13-28.48l-5.77,17.41-1.27,9.41,31.56,2.29,1.28-9.42c-.03-.1-.04-.21-.03-.31.04-.31.18-.62.47-.73l28.75-11.78,1.29-9.49-9.34-7.23-38.52,15.78c-.28.13-.63.1-.89-.1l-7.53-5.82Z"/><path class="cls-3" d="m313.01,625.87l33.28,2.41-8.49-6.57,39-15.98-10.13-7.84-39,15.98h0s-8.49-6.57-8.49-6.57l-6.16,18.57Z"/><path class="cls-10" d="m312.89,626.73c-.24-.03-.46-.17-.6-.38-.15-.22-.19-.5-.1-.75l6.16-18.57c.09-.27.3-.47.57-.56.27-.08.56-.03.78.14l8.09,6.27,38.55-15.79c.29-.12.61-.07.86.12l10.13,7.84c.24.19.37.49.33.8s-.24.57-.53.68l-37.62,15.42,7.31,5.66c.3.23.42.64.28.99-.14.36-.49.58-.87.56l-33.28-2.41s-.04,0-.05,0Zm6.71-17.99l-5.42,16.35,29.31,2.13-6.23-4.82c-.24-.19-.37-.49-.33-.8s.24-.57.53-.69l37.62-15.41-8.55-6.62-38.52,15.78c-.29.13-.63.1-.89-.1l-7.53-5.82Z"/><polygon class="cls-7" points="344.87 638.77 346.29 628.28 313.01 625.87 311.58 636.35 344.87 638.77"/><path class="cls-7" d="m311.47,637.21c-.22-.03-.42-.14-.56-.31-.15-.19-.22-.43-.18-.66l1.42-10.48c.06-.45.46-.78.92-.75l33.28,2.41c.23.03.46.13.61.32.15.19.22.43.19.66l-1.42,10.48c-.06.45-.46.78-.92.75l-33.28-2.42s-.04,0-.05,0Zm2.29-10.42l-1.19,8.76,31.56,2.29,1.19-8.77-31.55-2.29Z"/><path d="m388.59,676.2c-8.17,6.11-16.35,12.21-24.52,18.32,7.71,5.88,15.42,11.76,23.14,17.64-4.38,3.42-8.76,6.84-13.14,10.25,7.36,6.08,14.71,12.16,22.07,18.24,5.93-3.59,11.86-7.17,17.79-10.76-9.22,5.95-18.45,11.91-27.67,17.86,7.9,7.6,15.81,15.2,23.71,22.8,9.7-6.6,19.39-13.19,29.09-19.79,11.03,7.74,22.06,15.48,33.09,23.22,12.9-5.08,25.81-10.16,38.71-15.24-1.72-5.4-3.44-10.81-5.16-16.21-1.61-6.38-10.2-37.54-41.61-56.75-34.63-21.18-69.93-11.25-75.48-9.59Z"/><polygon class="cls-10" points="489.25 749.72 491.17 730.85 514.21 720.49 512.3 739.36 489.25 749.72"/><path class="cls-10" d="m489.22,750.02c-.05,0-.1-.02-.15-.06-.09-.06-.13-.17-.12-.27l1.92-18.87c.01-.11.08-.2.17-.24l23.05-10.35c.1-.04.21-.03.3.03.09.06.13.17.12.27l-1.92,18.87c-.01.11-.08.2-.18.24l-23.05,10.35s-.1.03-.15.03Zm2.23-18.97l-1.85,18.18,22.41-10.07,1.85-18.18-22.41,10.07Z"/><polygon class="cls-10" points="491.17 730.85 491.81 724.55 514.85 714.2 514.21 720.49 491.17 730.85"/><path class="cls-10" d="m491.14,731.14c-.05,0-.1-.02-.15-.06-.09-.06-.13-.17-.12-.27l.64-6.29c.01-.11.08-.2.17-.24l23.05-10.35c.1-.04.21-.03.3.03.09.06.13.17.12.27l-.64,6.29c-.01.11-.08.2-.18.24l-23.05,10.35s-.1.03-.15.03Zm.95-6.39l-.57,5.6,22.41-10.07.57-5.6-22.41,10.07Z"/><path d="m251.81,419.56c-1.92,5.33-5.23,16.92-.79,28.81,9.59,25.71,49.79,37.87,65.15,24.85,4.48-3.79,7.77-10.5,7.05-17.22-1.87-17.38-30.43-32.3-71.41-36.45Z"/><path d="m217.54,546.07c5.62-.72,17.44-3.06,26-12.44,18.5-20.27,10.99-61.58-7.6-69.32-5.42-2.25-12.89-2.13-18.54,1.58-14.61,9.59-14.87,41.82.14,80.17Z"/><path d="m351.73,438.34c2.83,5.39,9.85,16.77,22.43,20.51,25.64,7.61,58.79-21.22,55.84-41.77-.86-5.96-4.88-12.12-10.78-15.16-15.51-7.99-43.05,6.06-67.48,36.43Z"/><path class="cls-16" d="m414.18,467.59c-2.95,4.84-8.49,15.54-6.5,28.08,4.29,27.1,41.27,47.01,58.92,37.3,5.14-2.83,9.7-8.75,10.33-15.47,1.62-17.4-23.41-37.71-62.74-49.91Z"/><path class="cls-16" d="m147.78,636.42c4.28,3.72,13.9,10.97,26.59,11.12,27.44.31,53.26-32.8,46.65-51.83-1.92-5.54-7-11.03-13.52-12.78-16.89-4.51-41.1,16.75-59.73,53.49Z"/><path class="cls-8" d="m200.47,577.7h0c-4-4.11-10.72-5.58-19.2-3.43-16.99,4.28-34.64,21.4-39.42,38.23-2.39,8.43-1.1,15.18,2.91,19.29h0l8.93,9.19h0s0,.01,0,.01h0c4.01,4.11,10.72,5.57,19.2,3.44,17-4.28,34.64-21.41,39.42-38.24,2.39-8.42,1.1-15.18-2.91-19.29h0l-8.94-9.2Z"/><path class="cls-12" d="m177.26,629.49c2.62,2.86,5.24,5.73,7.86,8.59,2.9-1.12,6.8-3.02,10.75-6.26,6.35-5.21,9.57-11.22,11.11-14.7-2.78-2.96-5.56-5.91-8.34-8.87-2.33,3.52-5.54,7.71-9.86,11.96-4.09,4.03-8.11,7.05-11.52,9.27Z"/><path class="cls-13" d="m198.33,631.17h0c-7.65,7.43-16.54,12.7-25.04,14.84-8.79,2.22-16.16.84-20.76-3.88l-8.94-9.21c-4.6-4.72-5.78-12.13-3.3-20.86,2.38-8.4,7.9-17.11,15.53-24.52s16.55-12.7,25.05-14.84c8.79-2.22,16.16-.85,20.76,3.87l8.94,9.21c4.61,4.72,5.78,12.13,3.3,20.86-2.39,8.41-7.91,17.12-15.54,24.53Zm-40.25-41.3c-7.23,7.02-12.44,15.22-14.67,23.08-2.14,7.57-1.25,13.86,2.51,17.72l8.93,9.2c3.77,3.86,10.04,4.93,17.65,3.01,7.95-2,16.33-6.99,23.58-14.02h0c7.23-7.02,12.45-15.22,14.68-23.09,2.15-7.56,1.26-13.86-2.51-17.72l-8.94-9.21c-3.76-3.85-10.03-4.92-17.65-2.99-7.96,2.01-16.33,6.99-23.58,14.03Z"/><path class="cls-13" d="m209.41,586.9l-8.94-9.2c-4-4.11-10.72-5.58-19.2-3.43-3.31.84-6.63,2.17-9.89,3.87l36.76,37.86c1.81-3.22,3.25-6.52,4.18-9.8,2.39-8.42,1.1-15.18-2.91-19.29Z"/><path class="cls-13" d="m209.26,617.16c-.25.24-.57.4-.92.44-.51.07-1.01-.11-1.37-.48l-36.76-37.86c-.35-.37-.52-.88-.43-1.38.08-.5.4-.95.85-1.18,3.47-1.82,6.92-3.17,10.24-4.01,8.79-2.22,16.16-.85,20.76,3.87l8.94,9.21c4.61,4.72,5.78,12.13,3.3,20.86-.94,3.31-2.4,6.73-4.32,10.16-.08.14-.17.26-.29.37Zm-35.18-38.56l33.67,34.68c1.3-2.55,2.31-5.07,3-7.52,2.15-7.56,1.26-13.86-2.51-17.72l-8.94-9.21c-3.76-3.85-10.03-4.92-17.65-2.99-2.46.62-5,1.55-7.58,2.76Z"/><path class="cls-2" d="m203.37,596.98c4.78-16.83-5.12-27-22.11-22.72-16.99,4.28-34.64,21.4-39.42,38.23-4.77,16.84,5.12,27.01,22.11,22.73,16.99-4.29,34.64-21.4,39.42-38.24Z"/><path class="cls-13" d="m189.4,621.95h0c-7.65,7.43-16.54,12.7-25.04,14.85-8.8,2.22-16.18.84-20.78-3.89-4.59-4.73-5.76-12.13-3.29-20.85,2.38-8.4,7.9-17.11,15.53-24.52s16.55-12.7,25.05-14.84c8.81-2.22,16.18-.84,20.78,3.89,4.59,4.72,5.75,12.13,3.28,20.84-2.39,8.4-7.9,17.12-15.54,24.53Zm-31.32-32.09c-7.23,7.02-12.44,15.22-14.67,23.08-2.14,7.56-1.26,13.85,2.5,17.71,3.76,3.86,10.03,4.93,17.66,3.01,7.95-2.01,16.33-6.99,23.57-14.03h0c7.23-7.03,12.44-15.23,14.68-23.09,2.14-7.55,1.26-13.84-2.49-17.7s-10.03-4.94-17.67-3.01c-7.96,2.01-16.33,6.99-23.58,14.03Z"/><path class="cls-8" d="m203.95,467.83h0c-5.64,1.04-10.6,5.8-13.54,14.04-5.9,16.5-1.51,40.69,9.81,54.03,5.67,6.67,12,9.37,17.64,8.33h0l12.61-2.3h.01s0,0,0,0h0c5.65-1.04,10.6-5.8,13.55-14.04,5.9-16.5,1.5-40.69-9.82-54.04-5.66-6.68-11.99-9.36-17.64-8.33h0l-12.62,2.3Z"/><path class="cls-12" d="m234.04,515.95c3.84-.58,7.68-1.17,11.51-1.75.68-3.04,1.28-7.33.79-12.41-.79-8.17-3.99-14.2-6.02-17.41-4,.66-8.01,1.32-12.01,1.99,1.62,3.9,3.32,8.9,4.44,14.85,1.07,5.64,1.34,10.66,1.29,14.73Z"/><path class="cls-13" d="m247.17,499.38h0c1.91,10.49,1.34,20.81-1.61,29.06-3.05,8.53-8.3,13.89-14.78,15.08l-12.63,2.3c-6.48,1.2-13.29-1.96-19.17-8.87-5.65-6.66-9.82-16.09-11.72-26.55-1.91-10.49-1.33-20.82,1.62-29.07,3.05-8.54,8.3-13.89,14.78-15.09l12.62-2.3c6.49-1.2,13.3,1.96,19.16,8.87,5.65,6.67,9.82,16.1,11.72,26.57Zm-56.72,10.44c1.81,9.92,5.71,18.81,11,25.04,5.09,5.99,10.82,8.76,16.12,7.78l12.61-2.3c5.31-.98,9.68-5.59,12.33-12.99,2.76-7.72,3.29-17.45,1.48-27.39h0c-1.81-9.92-5.71-18.82-11.01-25.05-5.09-6-10.81-8.76-16.11-7.78l-12.63,2.3c-5.29.98-9.67,5.59-12.31,12.99-2.76,7.73-3.29,17.46-1.48,27.4Z"/><path class="cls-13" d="m216.57,465.53l-12.62,2.3c-5.64,1.04-10.6,5.8-13.54,14.04-1.15,3.21-1.89,6.72-2.29,10.37l51.91-9.45c-1.66-3.3-3.6-6.32-5.81-8.93-5.66-6.68-11.99-9.36-17.64-8.33Z"/><path class="cls-13" d="m241.62,482.5c.06.34.01.69-.14,1.01-.23.46-.66.78-1.16.87l-51.91,9.45c-.5.09-1.02-.06-1.39-.41-.37-.35-.57-.86-.51-1.36.42-3.9,1.22-7.51,2.38-10.74,3.05-8.54,8.3-13.89,14.78-15.09l12.62-2.3c6.49-1.2,13.3,1.96,19.16,8.87,2.23,2.63,4.25,5.74,6.03,9.25.07.14.12.29.15.44Zm-51.62,7.75l47.55-8.66c-1.39-2.5-2.93-4.74-4.58-6.68-5.09-6-10.81-8.76-16.11-7.78l-12.63,2.3c-5.29.98-9.67,5.59-12.31,12.99-.85,2.39-1.5,5.02-1.92,7.83Z"/><path class="cls-2" d="m221.59,476.16c-11.32-13.34-25.28-10.78-31.18,5.71-5.9,16.5-1.51,40.69,9.81,54.03,11.33,13.34,25.29,10.78,31.19-5.71,5.9-16.5,1.51-40.69-9.82-54.03Z"/><path class="cls-13" d="m234.55,501.67h0c1.91,10.49,1.33,20.81-1.61,29.07-3.06,8.55-8.32,13.91-14.8,15.09-6.48,1.18-13.28-1.97-19.15-8.88-5.65-6.66-9.82-16.09-11.72-26.55-1.91-10.49-1.33-20.82,1.62-29.07,3.06-8.55,8.31-13.91,14.81-15.1,6.48-1.18,13.27,1.98,19.13,8.88,5.65,6.66,9.82,16.1,11.72,26.56Zm-44.09,8.14c1.81,9.92,5.71,18.81,11,25.04,5.09,5.99,10.8,8.75,16.1,7.79,5.3-.97,9.68-5.58,12.33-12.99,2.76-7.73,3.28-17.46,1.47-27.39h0c-1.81-9.92-5.71-18.82-11.01-25.05-5.08-5.99-10.79-8.75-16.08-7.79s-9.69,5.58-12.34,13c-2.76,7.73-3.29,17.46-1.48,27.4Z"/><path class="cls-8" d="m322.01,454.94h0c3.79-4.3,4.75-11.11,1.97-19.41-5.55-16.62-23.95-32.93-41.1-36.42-8.58-1.74-15.22.05-19.02,4.36h0l-8.49,9.59h0s0,.01,0,.01h0c-3.8,4.31-4.75,11.11-1.98,19.41,5.56,16.62,23.96,32.92,41.11,36.42,8.58,1.75,15.22-.05,19.02-4.35h0l8.5-9.61Z"/><path class="cls-12" d="m268.62,435.7c-2.66,2.83-5.31,5.66-7.97,8.49,1.34,2.81,3.53,6.55,7.05,10.24,5.67,5.94,11.91,8.7,15.49,9.96,2.74-2.99,5.48-5.99,8.22-8.98-3.69-2.06-8.11-4.94-12.67-8.93-4.32-3.78-7.64-7.55-10.12-10.78Z"/><path class="cls-13" d="m268.54,456.84h0c-7.99-7.07-13.91-15.54-16.69-23.85-2.87-8.59-2.06-16.05,2.3-20.99l8.51-9.61c4.36-4.95,11.66-6.68,20.55-4.87,8.56,1.74,17.66,6.58,25.62,13.63,7.98,7.07,13.91,15.54,16.69,23.86,2.88,8.6,2.06,16.05-2.3,20.99l-8.51,9.61c-4.36,4.95-11.66,6.68-20.55,4.87-8.56-1.75-17.67-6.59-25.64-13.65Zm38.15-43.26c-7.55-6.68-16.11-11.26-24.12-12.89-7.71-1.56-13.92-.2-17.48,3.84l-8.5,9.6c-3.57,4.05-4.16,10.38-1.67,17.83,2.6,7.78,8.2,15.75,15.76,22.45h0c7.55,6.68,16.12,11.26,24.13,12.9,7.71,1.57,13.91.21,17.48-3.84l8.51-9.61c3.56-4.04,4.15-10.37,1.65-17.82-2.6-7.78-8.2-15.76-15.77-22.46Z"/><path class="cls-13" d="m313.51,464.54l8.5-9.61c3.79-4.3,4.75-11.11,1.97-19.41-1.08-3.23-2.66-6.45-4.61-9.57l-34.97,39.51c3.34,1.56,6.74,2.74,10.09,3.43,8.58,1.75,15.22-.05,19.02-4.35Z"/><path class="cls-13" d="m283.33,466.68c-.26-.23-.44-.54-.51-.88-.1-.5.03-1.02.37-1.4l34.97-39.51c.34-.38.84-.58,1.35-.54.51.04.97.32,1.24.75,2.08,3.33,3.68,6.66,4.77,9.91,2.88,8.6,2.06,16.05-2.3,20.99l-8.51,9.61c-4.36,4.95-11.66,6.68-20.55,4.87-3.37-.69-6.89-1.88-10.45-3.55-.14-.07-.27-.15-.39-.26Zm35.79-37.99l-32.04,36.19c2.64,1.1,5.23,1.92,7.73,2.43,7.71,1.57,13.91.21,17.48-3.84l8.51-9.61c3.56-4.04,4.15-10.37,1.65-17.82-.81-2.4-1.92-4.87-3.33-7.35Z"/><path class="cls-2" d="m303,459.29c17.14,3.49,26.54-7.15,20.99-23.76-5.55-16.62-23.95-32.93-41.1-36.42-17.15-3.49-26.55,7.15-20.99,23.76,5.56,16.62,23.96,32.92,41.11,36.42Z"/><path class="cls-13" d="m277.05,447.23h0c-7.98-7.07-13.91-15.54-16.69-23.85-2.88-8.61-2.05-16.07,2.31-21.01,4.37-4.93,11.66-6.66,20.54-4.85,8.56,1.74,17.66,6.58,25.62,13.63,7.98,7.07,13.91,15.54,16.69,23.86,2.88,8.61,2.06,16.07-2.31,21.02-4.36,4.93-11.66,6.65-20.53,4.84-8.56-1.75-17.67-6.59-25.63-13.64Zm29.64-33.65c-7.55-6.68-16.11-11.26-24.12-12.89-7.7-1.57-13.9-.21-17.47,3.83-3.57,4.04-4.16,10.37-1.67,17.84,2.6,7.78,8.2,15.75,15.77,22.45h0c7.55,6.69,16.12,11.26,24.13,12.89,7.69,1.57,13.89.21,17.46-3.82,3.57-4.04,4.17-10.37,1.67-17.84-2.6-7.78-8.2-15.76-15.77-22.46Z"/><path class="cls-8" d="m417.28,396.15h0c-2.68-5.07-8.71-8.38-17.45-8.72-17.51-.69-39.27,10.74-48.61,25.55-4.67,7.41-5.35,14.25-2.66,19.33h0l5.97,11.34h0s0,.01,0,.01h0c2.68,5.07,8.71,8.38,17.45,8.72,17.51.69,39.27-10.75,48.61-25.55,4.67-7.4,5.34-14.25,2.66-19.33h0l-5.97-11.35Z"/><path class="cls-12" d="m380.38,439.27c1.71,3.49,3.41,6.97,5.12,10.46,3.1-.26,7.38-.98,12.08-2.97,7.56-3.2,12.35-8.06,14.8-10.96-1.83-3.62-3.66-7.24-5.49-10.86-3.23,2.72-7.5,5.83-12.84,8.69-5.06,2.71-9.77,4.47-13.67,5.64Z"/><path class="cls-13" d="m400.12,446.84h0c-9.44,4.97-19.46,7.51-28.21,7.17-9.05-.36-15.74-3.76-18.82-9.58l-5.98-11.36c-3.08-5.83-2.12-13.27,2.72-20.95,4.66-7.39,12.41-14.18,21.82-19.14s19.46-7.51,28.22-7.16c9.06.35,15.74,3.75,18.82,9.58l5.98,11.36c3.09,5.83,2.12,13.27-2.72,20.94-4.67,7.39-12.42,14.19-21.84,19.14Zm-26.95-50.99c-8.92,4.69-16.23,11.08-20.59,18-4.19,6.65-5.12,12.94-2.6,17.71l5.97,11.34c2.52,4.77,8.24,7.56,16.09,7.87,8.2.32,17.63-2.09,26.58-6.79h0c8.92-4.69,16.24-11.09,20.61-18,4.2-6.65,5.12-12.94,2.6-17.7l-5.98-11.36c-2.52-4.76-8.23-7.55-16.08-7.86-8.2-.32-17.64,2.09-26.58,6.8Z"/><path class="cls-13" d="m423.25,407.51l-5.97-11.35c-2.68-5.07-8.71-8.38-17.45-8.72-3.41-.13-6.98.21-10.58.92l24.57,46.7c2.65-2.57,4.95-5.33,6.78-8.22,4.67-7.4,5.34-14.25,2.66-19.33Z"/><path class="cls-13" d="m414.56,436.49c-.3.16-.66.22-1.01.17-.5-.08-.94-.39-1.18-.84l-24.57-46.7c-.24-.45-.25-.99-.03-1.45.22-.46.65-.8,1.14-.89,3.85-.76,7.53-1.08,10.96-.95,9.06.35,15.74,3.75,18.82,9.58l5.98,11.36c3.09,5.83,2.12,13.27-2.72,20.94-1.84,2.91-4.2,5.78-7.02,8.52-.11.11-.24.2-.38.27Zm-22.86-46.92l22.51,42.78c1.97-2.08,3.65-4.21,5.01-6.37,4.2-6.65,5.12-12.94,2.6-17.7l-5.98-11.36c-2.52-4.76-8.23-7.55-16.08-7.86-2.53-.1-5.23.07-8.05.51Z"/><path class="cls-2" d="m414.61,415.47c9.34-14.8,2.71-27.35-14.79-28.04-17.51-.69-39.27,10.74-48.61,25.55-9.33,14.8-2.71,27.36,14.79,28.05,17.51.68,39.27-10.75,48.61-25.56Z"/><path class="cls-13" d="m394.15,435.48h0c-9.43,4.97-19.45,7.51-28.21,7.17-9.07-.36-15.76-3.77-18.83-9.6-3.07-5.83-2.1-13.26,2.74-20.93,4.66-7.39,12.41-14.18,21.82-19.14s19.46-7.51,28.22-7.16c9.07.35,15.76,3.77,18.84,9.6,3.07,5.83,2.09,13.26-2.74,20.92-4.66,7.39-12.42,14.19-21.83,19.14Zm-20.98-39.63c-8.92,4.69-16.23,11.08-20.59,18-4.19,6.65-5.11,12.93-2.61,17.69,2.51,4.77,8.23,7.57,16.09,7.87,8.2.32,17.64-2.1,26.57-6.8h0c8.92-4.7,16.24-11.09,20.6-18.01,4.19-6.64,5.12-12.92,2.61-17.68-2.51-4.77-8.22-7.57-16.1-7.88-8.2-.32-17.64,2.09-26.58,6.8Z"/><path class="cls-8" d="m481.64,511.93h0c3.52-4.52,4.07-11.38.79-19.49-6.56-16.25-25.91-31.41-43.24-33.85-8.67-1.22-15.19.97-18.72,5.51h0l-7.89,10.09h0s0,.01,0,.01h0c-3.53,4.53-4.06,11.38-.79,19.49,6.56,16.25,25.92,31.4,43.25,33.85,8.67,1.22,15.18-.97,18.72-5.5h0l7.9-10.11Z"/><path class="cls-12" d="m427.18,495.97c-2.48,2.99-4.96,5.97-7.44,8.96,1.51,2.72,3.92,6.33,7.66,9.79,6.02,5.58,12.42,7.96,16.07,9,2.55-3.16,5.1-6.31,7.65-9.47-3.8-1.83-8.4-4.44-13.19-8.14-4.54-3.51-8.08-7.07-10.75-10.15Z"/><path class="cls-13" d="m428.38,517.08h0c-8.4-6.57-14.83-14.66-18.11-22.79-3.39-8.4-3.03-15.89,1.02-21.09l7.91-10.11c4.05-5.2,11.23-7.37,20.22-6.11,8.65,1.22,18.02,5.5,26.41,12.05,8.4,6.57,14.83,14.67,18.11,22.8,3.4,8.41,3.04,15.9-1.01,21.09l-7.9,10.11c-4.05,5.21-11.23,7.38-20.21,6.11-8.66-1.22-18.04-5.5-26.42-12.06Zm35.44-45.5c-7.94-6.21-16.77-10.26-24.86-11.4-7.79-1.09-13.9.64-17.21,4.9l-7.9,10.1c-3.32,4.26-3.52,10.61-.58,17.9,3.07,7.61,9.14,15.22,17.1,21.45h0c7.94,6.21,16.78,10.26,24.87,11.4,7.79,1.1,13.9-.64,17.21-4.89l7.91-10.11c3.31-4.25,3.51-10.6.56-17.89-3.07-7.61-9.15-15.23-17.11-21.45Z"/><path class="cls-13" d="m473.74,522.03l7.9-10.11c3.52-4.52,4.07-11.38.79-19.49-1.28-3.16-3.05-6.28-5.18-9.27l-32.5,41.57c3.43,1.36,6.9,2.33,10.28,2.81,8.67,1.22,15.18-.97,18.72-5.5Z"/><path class="cls-13" d="m443.75,526c-.27-.21-.47-.51-.56-.85-.13-.49-.03-1.02.29-1.42l32.5-41.57c.31-.4.8-.63,1.31-.62.51.01.99.26,1.28.68,2.28,3.19,4.08,6.43,5.36,9.6,3.4,8.41,3.04,15.9-1.01,21.09l-7.9,10.11c-4.05,5.21-11.23,7.38-20.21,6.11-3.41-.48-6.99-1.46-10.65-2.9-.15-.06-.28-.14-.4-.23Zm33.41-40.1l-29.78,38.08c2.7.94,5.34,1.6,7.86,1.95,7.79,1.1,13.9-.64,17.21-4.89l7.91-10.11c3.31-4.25,3.51-10.6.56-17.89-.95-2.35-2.22-4.74-3.77-7.13Z"/><path class="cls-2" d="m462.93,517.42c17.33,2.44,26.06-8.75,19.5-24.99-6.56-16.25-25.91-31.41-43.24-33.85-17.33-2.44-26.07,8.75-19.51,24.99,6.56,16.25,25.92,31.4,43.25,33.85Z"/><path class="cls-13" d="m436.29,506.97h0c-8.4-6.57-14.83-14.66-18.11-22.79-3.4-8.42-3.03-15.92,1.03-21.11,4.06-5.19,11.23-7.35,20.21-6.09,8.65,1.22,18.02,5.5,26.41,12.05,8.4,6.57,14.83,14.67,18.11,22.8,3.4,8.42,3.03,15.92-1.03,21.12-4.05,5.19-11.23,7.35-20.2,6.08-8.65-1.22-18.03-5.5-26.42-12.05Zm27.53-35.39c-7.94-6.21-16.77-10.26-24.86-11.4-7.78-1.09-13.89.64-17.2,4.88-3.32,4.25-3.52,10.61-.58,17.91,3.07,7.61,9.15,15.22,17.1,21.45h0c7.94,6.21,16.77,10.26,24.87,11.4,7.77,1.1,13.88-.64,17.19-4.87,3.32-4.25,3.53-10.61.58-17.91-3.07-7.61-9.15-15.23-17.11-21.45Z"/><path class="cls-4" d="m127.28,765.52h0c-1.4.32-2.79.31-3.93-.04-1.28-.39-2.11-1.16-2.34-2.16s.18-2.05,1.16-2.96c1.74-1.63,5.17-2.41,7.45-1.71,1.28.39,2.11,1.16,2.34,2.16.23,1-.18,2.05-1.16,2.96-.87.81-2.12,1.43-3.51,1.76Zm-1.27-5.5c-1.13.26-2.17.77-2.85,1.41-.57.53-.84,1.1-.74,1.57s.6.86,1.35,1.09c1.77.54,4.67-.13,6.03-1.39.57-.53.84-1.1.73-1.57-.11-.47-.6-.86-1.35-1.09-.89-.27-2.05-.28-3.18-.02Z"/><path class="cls-4" d="m340.89,742.43h0c-1.4.32-2.79.31-3.93-.04-1.28-.39-2.11-1.16-2.34-2.16s.18-2.05,1.16-2.96c1.74-1.62,5.17-2.41,7.45-1.71,1.28.39,2.11,1.16,2.34,2.16.23,1-.18,2.05-1.16,2.96-.87.81-2.12,1.43-3.52,1.75Zm-1.27-5.5c-1.13.26-2.17.77-2.85,1.4-.58.53-.84,1.1-.73,1.57s.6.86,1.35,1.09c1.77.54,4.67-.12,6.03-1.39.57-.53.84-1.1.73-1.57s-.6-.86-1.35-1.09c-.89-.27-2.05-.28-3.18-.02Z"/><path class="cls-4" d="m570.27,641.67c-.05.01-.11.02-.16.02-1.39,0-3,.21-4.66.59h0c-1.68.39-3.2.9-4.44,1.5-.27.13-.59.08-.81-.12-.22-.2-.29-.52-.18-.8.3-.78.36-1.63.16-2.48-.19-.85-.62-1.59-1.24-2.16-.22-.2-.29-.52-.18-.8.11-.28.37-.47.68-.46,2.8,0,6.62-.89,9.1-2.09.27-.13.59-.08.81.12.22.2.29.52.18.8-.3.78-.36,1.64-.16,2.48.18.79.57,1.49,1.11,2.04.18.1.33.27.38.48.09.4-.1.83-.56.88h-.02Zm-5.2-.8c1.24-.29,2.45-.48,3.56-.57-.31-.52-.55-1.09-.69-1.7-.14-.61-.19-1.23-.13-1.84-2.07.8-4.68,1.4-6.91,1.59.31.52.55,1.09.69,1.7.14.61.19,1.23.13,1.83,1.03-.4,2.16-.74,3.35-1.02Z"/><path class="cls-4" d="m352.59,676.8c-.05.01-.11.02-.16.02-2.8,0-6.62.89-9.1,2.09-.28.13-.59.08-.81-.12-.22-.2-.29-.52-.18-.8.3-.78.36-1.63.16-2.48-.19-.85-.62-1.59-1.23-2.16-.22-.2-.29-.52-.18-.8.11-.28.37-.47.68-.46,2.83,0,6.65-.91,9.11-2.09.27-.13.59-.08.81.12.22.21.29.52.18.8-.3.78-.36,1.63-.16,2.48.18.78.57,1.49,1.11,2.04.18.1.33.27.38.49.09.4-.16.81-.57.88h-.02Zm-5.17-.81c1.23-.28,2.42-.47,3.54-.56-.31-.52-.55-1.09-.69-1.7-.14-.61-.18-1.23-.13-1.83-2.1.81-4.72,1.4-6.91,1.59.31.52.55,1.1.69,1.7.14.61.19,1.23.13,1.83,1.03-.4,2.18-.75,3.37-1.02Z"/><path class="cls-4" d="m580.2,680.45c-.05.01-.11.02-.16.02-2.8,0-6.62.89-9.1,2.09-.28.13-.59.08-.81-.12-.22-.2-.29-.52-.18-.8.3-.78.36-1.63.16-2.48-.19-.85-.62-1.59-1.23-2.16-.22-.2-.29-.52-.18-.8.11-.28.37-.47.68-.46,2.83,0,6.65-.91,9.11-2.09.27-.13.59-.08.81.12.22.21.29.52.18.8-.3.78-.36,1.63-.16,2.48.18.78.57,1.49,1.11,2.04.18.1.33.27.38.49.09.4-.16.81-.57.88h-.02Zm-5.17-.81c1.23-.28,2.42-.47,3.54-.56-.31-.52-.55-1.09-.69-1.7-.14-.61-.18-1.23-.13-1.83-2.1.81-4.72,1.4-6.91,1.59.31.52.55,1.1.69,1.7.14.61.19,1.23.13,1.83,1.03-.4,2.18-.75,3.37-1.02Z"/><g class="cls-17"><path class="cls-3" d="m529.15,702.37c-.39.09-.78-.15-.87-.54l-1.77-7.69c-.09-.39.15-.79.55-.88h0c.39-.09.79.15.88.55l1.77,7.69c.09.39-.15.78-.55.87h0Z"/><path class="cls-3" d="m534.92,697h0l-13.32,3.06c-.39.09-.78-.16-.87-.55s.15-.78.55-.87h0l13.32-3.06c.39-.09.78.16.87.55s-.15.79-.55.88Z"/></g><g class="cls-17"><path class="cls-3" d="m306.32,760.98c-.39.09-.78-.15-.87-.55l-1.77-7.69c-.09-.39.15-.78.55-.88h0c.39-.09.78.16.87.55l1.77,7.69c.09.39-.15.78-.54.88h0Z"/><path class="cls-3" d="m312.1,755.61h0l-13.32,3.06c-.39.09-.78-.16-.87-.55s.16-.78.55-.87h0l13.32-3.06c.39-.09.78.16.87.55s-.15.78-.55.87Z"/></g><polygon class="cls-3" points="423.67 678.69 403.93 662.88 380.39 672.05 377.53 690.8 397.27 706.62 420.8 697.44 423.67 678.69"/><path class="cls-2" d="m397.22,706.91c-.05,0-.1-.03-.14-.06l-19.74-15.81c-.08-.07-.13-.17-.11-.28l2.87-18.75c.02-.11.09-.2.19-.23l23.54-9.18c.1-.04.21-.02.3.05l19.74,15.81c.08.07.13.17.11.28l-2.87,18.75c-.02.11-.09.2-.19.23l-23.54,9.18c-.05.02-.1.02-.15.02Zm-19.37-16.24l19.47,15.6,23.22-9.05,2.82-18.41-19.47-15.6-23.21,9.05-2.82,18.41Z"/><polygon class="cls-3" points="400.13 687.87 380.39 672.05 403.93 662.88 423.67 678.69 400.13 687.87"/><path class="cls-11" d="m400.09,688.16c-.05,0-.1-.03-.14-.06l-19.74-15.81c-.08-.07-.13-.17-.11-.28s.09-.2.19-.23l23.54-9.18c.1-.04.21-.02.3.05l19.74,15.81c.08.07.13.17.11.28s-.09.2-.19.23l-23.54,9.18c-.05.02-.1.02-.15.02Zm-19.1-16.02l19.2,15.38,22.89-8.92-19.2-15.38-22.89,8.93Z"/><polygon class="cls-10" points="397.27 706.62 400.13 687.87 423.67 678.69 420.8 697.44 397.27 706.62"/><path class="cls-10" d="m397.22,706.91c-.05,0-.1-.03-.14-.06-.08-.07-.13-.17-.11-.28l2.87-18.75c.02-.11.09-.2.19-.23l23.54-9.18c.1-.04.21-.02.3.05.08.07.13.17.11.28l-2.87,18.75c-.02.11-.09.2-.19.23l-23.54,9.18c-.05.02-.1.02-.15.02Zm3.19-18.83l-2.76,18.07,22.89-8.93,2.76-18.06-22.89,8.93Z"/><polygon class="cls-2" points="424.63 672.44 404.89 656.63 381.35 665.8 380.39 672.05 400.13 687.87 423.67 678.69 424.63 672.44"/><path class="cls-2" d="m400.09,688.16c-.05,0-.1-.03-.14-.06l-19.74-15.81c-.08-.07-.13-.17-.11-.28l.96-6.25c.02-.11.09-.2.19-.23l23.54-9.18c.1-.04.21-.02.3.05l19.74,15.81c.08.07.13.17.11.28l-.96,6.25c-.02.11-.09.2-.19.23l-23.54,9.18c-.05.02-.1.02-.15.02Zm-19.37-16.23l19.47,15.59,23.22-9.05.9-5.91-19.47-15.6-23.21,9.05-.9,5.91Z"/><polygon class="cls-2" points="401.09 681.62 381.35 665.8 404.89 656.63 424.63 672.44 401.09 681.62"/><path class="cls-2" d="m401.04,681.91c-.05,0-.1-.03-.14-.06l-19.74-15.81c-.08-.07-.13-.17-.11-.28s.09-.2.19-.23l23.54-9.18c.1-.04.21-.02.3.05l19.74,15.81c.08.07.13.17.11.28s-.09.19-.19.23l-23.54,9.18c-.05.02-.1.02-.15.02Zm-19.1-16.02l19.2,15.38,22.89-8.93-19.2-15.38-22.89,8.93Z"/><polygon class="cls-10" points="400.13 687.87 401.09 681.62 424.63 672.44 423.67 678.69 400.13 687.87"/><path class="cls-10" d="m400.09,688.16c-.05,0-.1-.03-.14-.06-.08-.07-.13-.17-.11-.28l.96-6.25c.02-.11.09-.2.19-.23l23.54-9.18c.1-.04.21-.02.3.05.08.07.13.17.11.28l-.96,6.25c-.02.11-.09.2-.19.23l-23.54,9.18c-.05.02-.1.02-.15.02Zm1.27-6.33l-.85,5.56,22.89-8.92.85-5.57-22.89,8.93Z"/><polygon class="cls-3" points="450.9 681.79 431.16 665.97 407.62 675.15 402.2 710.57 421.94 726.38 445.48 717.21 450.9 681.79"/><path class="cls-7" d="m421.89,726.68c-.05,0-.1-.03-.14-.06l-19.74-15.81c-.08-.07-.13-.17-.11-.28l5.42-35.42c.02-.11.09-.2.19-.23l23.54-9.18c.1-.04.21-.02.3.05l19.74,15.81c.08.07.13.17.11.28l-5.42,35.42c-.02.11-.09.2-.19.23l-23.54,9.18s-.1.02-.15.02Zm-19.37-16.24l19.47,15.6,23.21-9.05,5.37-35.08-19.47-15.59-23.21,9.05-5.37,35.07Z"/><polygon class="cls-3" points="427.36 690.96 407.62 675.15 431.16 665.97 450.9 681.79 427.36 690.96"/><path class="cls-11" d="m427.31,691.26c-.05,0-.1-.03-.14-.06l-19.74-15.81c-.08-.07-.13-.17-.11-.28s.09-.2.19-.23l23.54-9.18c.1-.04.21-.02.3.05l19.74,15.81c.08.07.13.17.11.28s-.09.2-.19.23l-23.54,9.18s-.1.02-.15.02Zm-19.1-16.02l19.2,15.38,22.89-8.93-19.2-15.38-22.89,8.93Z"/><polygon class="cls-10" points="421.94 726.38 427.36 690.96 450.9 681.79 445.48 717.21 421.94 726.38"/><path class="cls-10" d="m421.89,726.68c-.05,0-.1-.03-.14-.06-.08-.07-.13-.17-.11-.28l5.42-35.42c.02-.11.09-.2.19-.23l23.54-9.18c.1-.04.21-.02.3.05.08.07.13.17.11.28l-5.42,35.42c-.02.11-.09.2-.19.23l-23.54,9.18s-.1.02-.15.02Zm5.73-35.5l-5.31,34.73,22.89-8.93,5.31-34.73-22.89,8.93Z"/><polygon class="cls-7" points="452.49 671.37 432.75 655.56 409.21 664.73 407.62 675.15 427.36 690.96 450.9 681.79 452.49 671.37"/><path class="cls-7" d="m427.31,691.26c-.05,0-.1-.03-.14-.06l-19.74-15.81c-.08-.07-.13-.17-.11-.28l1.59-10.42c.02-.11.09-.2.19-.23l23.54-9.18c.1-.04.21-.02.3.05l19.74,15.81c.08.07.13.17.11.28l-1.59,10.42c-.02.11-.09.2-.19.23l-23.54,9.18s-.1.02-.15.02Zm-19.37-16.23l19.47,15.59,23.21-9.05,1.54-10.07-19.47-15.6-23.21,9.05-1.54,10.08Z"/><polygon class="cls-7" points="428.95 680.55 409.21 664.73 432.75 655.56 452.49 671.37 428.95 680.55"/><path class="cls-7" d="m428.91,680.84c-.05,0-.1-.03-.14-.06l-19.74-15.81c-.08-.07-.13-.17-.11-.28s.09-.2.19-.23l23.54-9.18c.1-.04.21-.02.3.05l19.74,15.81c.08.07.13.17.11.28s-.09.2-.19.23l-23.54,9.18s-.1.03-.15.02Zm-19.1-16.02l19.2,15.38,22.89-8.93-19.2-15.38-22.89,8.93Z"/><polygon class="cls-10" points="427.36 690.96 428.95 680.55 452.49 671.37 450.9 681.79 427.36 690.96"/><path class="cls-10" d="m427.31,691.26c-.05,0-.1-.03-.14-.06-.08-.07-.13-.17-.11-.28l1.59-10.42c.02-.11.09-.2.19-.23l23.54-9.18c.1-.04.21-.02.3.05.08.07.13.17.11.28l-1.59,10.42c-.02.11-.09.2-.19.23l-23.54,9.18s-.1.02-.15.02Zm1.91-10.5l-1.49,9.73,22.89-8.93,1.49-9.73-22.89,8.92Z"/><polygon class="cls-3" points="477.16 691.14 457.42 675.32 433.89 684.5 426.87 730.34 446.61 746.15 470.15 736.97 477.16 691.14"/><path class="cls-2" d="m446.57,746.45c-.05,0-.1-.03-.14-.06l-19.74-15.81c-.08-.07-.13-.17-.11-.28l7.01-45.84c.02-.11.09-.2.19-.23l23.54-9.18c.1-.04.21-.02.3.05l19.74,15.81c.08.07.13.17.11.28l-7.01,45.84c-.02.11-.09.2-.19.23l-23.54,9.18c-.05.02-.1.03-.16.02Zm-19.37-16.24l19.47,15.6,23.22-9.05,6.96-45.49-19.47-15.6-23.22,9.05-6.96,45.49Z"/><polygon class="cls-3" points="453.62 700.31 433.89 684.5 457.42 675.32 477.16 691.14 453.62 700.31"/><path class="cls-11" d="m453.58,700.61c-.05,0-.1-.03-.14-.06l-19.74-15.81c-.08-.07-.13-.17-.11-.28s.09-.2.19-.23l23.54-9.18c.1-.04.21-.02.3.05l19.74,15.81c.08.07.13.17.11.28s-.09.2-.19.23l-23.54,9.18c-.05.02-.1.02-.15.02Zm-19.1-16.02l19.2,15.38,22.89-8.93-19.2-15.38-22.89,8.93Z"/><polygon class="cls-10" points="446.61 746.15 453.62 700.31 477.16 691.14 470.15 736.97 446.61 746.15"/><path class="cls-10" d="m446.57,746.45c-.05,0-.1-.03-.14-.06-.08-.07-.13-.17-.11-.28l7.01-45.83c.02-.11.09-.2.19-.23l23.54-9.18c.1-.04.21-.02.3.05.08.07.13.17.11.28l-7.01,45.84c-.02.11-.09.2-.19.23l-23.54,9.18c-.05.02-.1.03-.16.02Zm7.33-45.92l-6.91,45.15,22.89-8.93,6.91-45.15-22.89,8.93Z"/><polygon class="cls-2" points="479.4 676.55 459.66 660.74 436.12 669.92 433.89 684.5 453.62 700.31 477.16 691.14 479.4 676.55"/><path class="cls-2" d="m453.58,700.61c-.05,0-.1-.03-.14-.06l-19.74-15.81c-.08-.07-.13-.17-.11-.28l2.23-14.58c.02-.11.09-.2.19-.23l23.54-9.18c.1-.04.21-.02.3.05l19.74,15.81c.08.07.13.17.11.28l-2.23,14.58c-.02.11-.09.2-.19.23l-23.54,9.18c-.05.02-.1.02-.15.02Zm-19.37-16.24l19.47,15.6,23.22-9.05,2.18-14.24-19.47-15.6-23.21,9.05-2.18,14.24Z"/><polygon class="cls-2" points="455.86 685.73 436.12 669.92 459.66 660.74 479.4 676.55 455.86 685.73"/><path class="cls-2" d="m455.81,686.03c-.05,0-.1-.03-.14-.06l-19.74-15.81c-.08-.07-.13-.17-.11-.28s.09-.2.19-.23l23.54-9.18c.1-.04.21-.02.3.05l19.74,15.81c.08.07.13.17.11.28s-.09.2-.19.23l-23.54,9.18c-.05.02-.1.02-.15.02Zm-19.1-16.02l19.2,15.38,22.89-8.93-19.2-15.38-22.89,8.93Z"/><polygon class="cls-10" points="453.49 701.21 455.72 686.63 479.26 677.45 477.03 692.04 453.49 701.21"/><path class="cls-10" d="m453.44,701.51c-.05,0-.1-.03-.14-.06-.08-.07-.13-.17-.11-.28l2.23-14.58c.02-.11.09-.2.19-.23l23.54-9.18c.1-.04.21-.02.3.05s.13.17.11.28l-2.23,14.58c-.02.11-.09.2-.19.23l-23.54,9.18c-.05.02-.1.02-.15.02Zm2.55-14.66l-2.13,13.9,22.89-8.93,2.13-13.9-22.89,8.93Z"/><polygon class="cls-3" points="497.7 737.99 477.96 722.17 454.42 731.35 451.55 750.1 471.29 765.91 494.83 756.74 497.7 737.99"/><path class="cls-7" d="m471.24,766.21c-.05,0-.1-.03-.14-.06l-19.74-15.81c-.08-.07-.13-.17-.11-.28l2.87-18.75c.02-.11.09-.2.19-.23l23.54-9.18c.1-.04.21-.02.3.05l19.74,15.81c.08.07.13.17.11.28l-2.87,18.75c-.02.11-.09.2-.19.23l-23.54,9.18c-.05.02-.1.03-.16.02Zm-19.37-16.24l19.47,15.6,23.22-9.05,2.82-18.41-19.47-15.59-23.21,9.05-2.82,18.41Z"/><polygon class="cls-3" points="474.16 747.16 454.42 731.35 477.96 722.17 497.7 737.99 474.16 747.16"/><path class="cls-11" d="m474.11,747.46c-.05,0-.1-.03-.14-.06l-19.74-15.81c-.08-.07-.13-.17-.11-.28s.09-.2.19-.23l23.54-9.18c.1-.04.21-.02.3.05l19.74,15.81c.08.07.13.17.11.28s-.09.2-.19.23l-23.54,9.18c-.05.02-.1.03-.16.02Zm-19.1-16.02l19.2,15.38,22.89-8.93-19.2-15.38-22.89,8.92Z"/><polygon class="cls-7" points="498.65 731.74 478.91 715.92 455.37 725.1 454.42 731.35 474.16 747.16 497.7 737.99 498.65 731.74"/><path class="cls-7" d="m474.11,747.46c-.05,0-.1-.03-.14-.06l-19.74-15.81c-.08-.07-.13-.17-.11-.28l.96-6.25c.02-.11.09-.19.19-.23l23.54-9.18c.1-.04.21-.02.3.05l19.74,15.81c.08.07.13.17.11.28l-.96,6.25c-.02.11-.09.2-.19.23l-23.54,9.18c-.05.02-.1.03-.16.02Zm-19.37-16.24l19.47,15.6,23.22-9.05.9-5.91-19.47-15.59-23.21,9.05-.9,5.91Z"/><polygon class="cls-7" points="475.11 740.91 455.37 725.1 478.91 715.92 498.65 731.74 475.11 740.91"/><path class="cls-7" d="m475.07,741.21c-.05,0-.1-.03-.14-.06l-19.74-15.81c-.08-.07-.13-.17-.11-.28s.09-.19.19-.23l23.54-9.18c.1-.04.21-.02.3.05l19.74,15.81c.08.07.13.17.11.28s-.09.2-.19.23l-23.54,9.18c-.05.02-.1.02-.15.02Zm-19.1-16.02l19.2,15.38,22.89-8.93-19.2-15.38-22.89,8.92Z"/><path class="cls-7" d="m478.17,727.4h0s0,0,0,0l3.56-1.82c1.46-.74,2.42-2.45,2.55-4.94.25-4.98-2.94-11.21-7.13-13.92-2.09-1.35-4.04-1.57-5.5-.83h0s-3.57,1.82-3.57,1.82h0c-1.46.74-2.42,2.45-2.55,4.94-.25,4.98,2.94,11.21,7.13,13.93,2.09,1.36,4.04,1.57,5.5.83Zm-1.73-7.77c-1.79-1.19-3.14-3.83-3.07-5.98,1.79,1.19,3.14,3.83,3.07,5.98Z"/><path class="cls-5" d="m480.72,722.46c.25-4.98-2.94-11.22-7.13-13.92-4.19-2.71-7.79-.87-8.04,4.11-.25,4.98,2.94,11.21,7.13,13.93,4.19,2.71,7.79.87,8.05-4.11Zm-4.27-2.76c-.11,2.18-1.69,2.98-3.52,1.8-1.83-1.18-3.23-3.91-3.12-6.09.11-2.18,1.69-2.98,3.52-1.79,1.83,1.18,3.23,3.91,3.12,6.09Z"/><path class="cls-10" d="m476.09,728.31h0c-1.18-.06-2.42-.51-3.69-1.33-4.32-2.79-7.62-9.24-7.36-14.37.13-2.6,1.13-4.5,2.82-5.36l3.57-1.83s.03-.01.05-.02c1.66-.82,3.8-.51,5.95.88,4.32,2.79,7.62,9.24,7.36,14.37-.13,2.59-1.13,4.5-2.82,5.36l-3.56,1.82c-.7.36-1.47.51-2.31.47Zm-4.25-21.97l-3.52,1.8c-1.36.69-2.16,2.3-2.28,4.52-.24,4.81,2.85,10.86,6.91,13.48,1.1.71,2.21,1.12,3.19,1.17h0c.65.03,1.25-.09,1.78-.35,0,0,.01,0,.02-.01l3.56-1.82c1.35-.69,2.16-2.3,2.28-4.52.24-4.81-2.85-10.86-6.91-13.48-1.84-1.19-3.67-1.48-5-.8-.01,0-.03.01-.04.02Zm4.58,13.78c-.09,0-.18-.03-.25-.08-1.93-1.28-3.37-4.1-3.29-6.41,0-.18.11-.34.27-.43.16-.08.36-.07.51.03,1.93,1.28,3.37,4.1,3.29,6.41,0,.18-.11.34-.27.43-.08.04-.17.06-.25.05Zm-2.45-5.32c.25,1.31.95,2.69,1.87,3.66-.25-1.31-.96-2.69-1.87-3.66Z"/><path class="cls-7" d="m476.09,728.31h0c-1.18-.06-2.42-.51-3.69-1.33-4.32-2.79-7.62-9.24-7.36-14.37.19-3.69,2.2-5.98,5.13-5.83,1.18.06,2.42.51,3.69,1.33,4.32,2.79,7.62,9.24,7.36,14.37-.09,1.82-.62,3.33-1.53,4.36-.92,1.04-2.16,1.54-3.6,1.47Zm-5.97-20.52c-2.36-.12-3.92,1.75-4.08,4.88-.24,4.81,2.85,10.86,6.91,13.48,1.1.71,2.21,1.12,3.19,1.17h0c1.12.06,2.09-.34,2.8-1.14.76-.86,1.2-2.15,1.28-3.74.24-4.81-2.86-10.86-6.91-13.48-1.1-.71-2.21-1.12-3.2-1.17Zm4.29,14.75c-.56-.03-1.15-.24-1.75-.62-2-1.29-3.47-4.16-3.35-6.53.09-1.78,1.09-2.89,2.54-2.82.57.03,1.16.24,1.75.63,2,1.29,3.47,4.16,3.35,6.53-.09,1.78-1.09,2.89-2.54,2.81Zm-2.61-8.97c-.87-.04-1.43.65-1.49,1.87-.1,2.02,1.19,4.55,2.89,5.64.44.29.88.45,1.26.46.87.04,1.43-.65,1.49-1.87.1-2.01-1.19-4.54-2.89-5.64-.44-.28-.88-.45-1.26-.47Z"/><path class="cls-9" d="m480.72,722.46c.06-1.15-.09-2.37-.37-3.6l3.57-1.83c.28,1.23.42,2.45.37,3.6-.13,2.49-1.09,4.2-2.55,4.94l-3.56,1.82c1.46-.74,2.42-2.45,2.54-4.94Zm-6.51-5.46c-.55-1.08-.87-2.27-.83-3.34h0s-.03-.03-.05-.04c-1.83-1.19-3.41-.38-3.52,1.79-.06,1.09.27,2.32.83,3.42l3.57-1.83Z"/><path class="cls-9" d="m478.15,727.9c-.17,0-.34-.11-.42-.27-.13-.25-.03-.55.22-.68h0c1.35-.69,2.16-2.29,2.27-4.52.05-1.04-.07-2.2-.35-3.46-.05-.22.06-.45.26-.56l3.57-1.82c.14-.07.3-.08.44,0,.14.07.24.19.28.34.31,1.35.43,2.61.38,3.74-.13,2.59-1.13,4.5-2.82,5.36l-3.56,1.82s0,0,0,0c-.08.04-.17.06-.25.05Zm2.78-8.77c.25,1.21.35,2.33.3,3.36-.06,1.22-.32,2.29-.75,3.17l1.04-.53c1.35-.69,2.16-2.3,2.28-4.52.04-.86-.03-1.81-.22-2.83l-2.64,1.35Zm-10.31.2c-.17,0-.34-.11-.42-.27-.63-1.23-.95-2.53-.89-3.67.09-1.78,1.09-2.89,2.54-2.82.57.03,1.16.24,1.75.63.15.1.29.3.28.48-.03.95.24,2.05.78,3.1.13.25.03.55-.22.67l-3.57,1.83c-.08.04-.17.06-.25.05Zm1.18-5.76c-.87-.04-1.43.65-1.49,1.87-.04.83.16,1.78.56,2.71l2.68-1.37c-.42-.96-.66-1.94-.67-2.84-.4-.23-.76-.35-1.08-.36Z"/><polygon class="cls-7" points="493.77 741.59 488.16 737.97 477.46 697.8 481.02 695.97 486.63 699.6 497.34 739.77 493.77 741.59"/><path class="cls-10" d="m493.75,742.09c-.09,0-.17-.03-.25-.08l-5.61-3.63c-.11-.07-.18-.17-.21-.29l-10.71-40.17c-.06-.23.05-.47.26-.57l3.57-1.83c.16-.08.35-.07.5.03l5.61,3.63c.11.07.18.17.21.29l10.71,40.17c.06.23-.05.47-.26.57l-3.57,1.83c-.08.04-.17.06-.25.06Zm-5.15-4.44l5.2,3.36,2.95-1.51-10.55-39.59-5.2-3.36-2.95,1.51,10.55,39.59Z"/><polygon class="cls-5" points="483.06 701.43 477.46 697.8 488.16 737.97 493.77 741.59 483.06 701.43"/><path class="cls-10" d="m493.75,742.09c-.09,0-.17-.03-.25-.08l-5.61-3.63c-.11-.07-.18-.17-.21-.29l-10.71-40.17c-.05-.2.02-.41.19-.53.17-.12.39-.13.57-.02l5.61,3.63c.11.07.18.17.21.29l10.71,40.17c.05.2-.02.41-.19.54-.1.07-.21.1-.32.09Zm-5.15-4.44l4.35,2.82-10.32-38.73-4.36-2.82,10.32,38.73Z"/><polygon class="cls-9" points="483.06 701.43 486.63 699.6 497.34 739.77 493.77 741.59 483.06 701.43"/><path class="cls-9" d="m493.75,742.09c-.06,0-.12-.02-.18-.04-.14-.06-.24-.18-.28-.33l-10.71-40.17c-.06-.23.05-.47.26-.57l3.57-1.83c.13-.07.3-.07.43-.01.14.06.24.18.28.33l10.71,40.17c.06.23-.05.47-.26.57l-3.57,1.83c-.08.04-.17.06-.25.06Zm-10.09-40.41l10.44,39.18,2.65-1.36-10.44-39.18-2.65,1.36Z"/><path class="cls-7" d="m503.14,731.69h0s0,0,0,0l3.56-1.82c1.46-.74,2.42-2.45,2.55-4.94.25-4.98-2.94-11.21-7.13-13.93-2.09-1.35-4.04-1.57-5.49-.83h0l-3.57,1.83h0c-1.46.74-2.42,2.45-2.55,4.94-.25,4.98,2.94,11.21,7.13,13.92,2.09,1.35,4.04,1.57,5.5.83Zm-1.73-7.77c-1.79-1.19-3.14-3.83-3.06-5.98,1.79,1.19,3.14,3.83,3.06,5.98Z"/><path class="cls-7" d="m501.06,732.6c-1.18-.06-2.42-.5-3.69-1.32-4.32-2.8-7.62-9.24-7.36-14.37.13-2.58,1.12-4.48,2.78-5.34.01,0,.02-.01.03-.02l3.57-1.82c1.67-.85,3.82-.55,6,.86,4.32,2.79,7.62,9.24,7.36,14.37-.13,2.6-1.13,4.5-2.82,5.36l-3.54,1.81s-.03.02-.05.03c-.67.34-1.44.5-2.28.46Zm-7.74-20.18s-.02.01-.03.02c-1.36.69-2.16,2.29-2.27,4.52-.25,4.81,2.85,10.86,6.9,13.48,1.83,1.18,3.65,1.48,4.97.82,0,0,.02,0,.03-.01l3.56-1.82c1.35-.69,2.16-2.29,2.28-4.52.24-4.81-2.85-10.86-6.91-13.48-1.84-1.19-3.67-1.48-4.99-.8l-3.54,1.81Zm8.07,12c-.09,0-.18-.03-.25-.08-1.93-1.28-3.37-4.1-3.29-6.42,0-.18.11-.34.27-.43.16-.08.36-.07.51.03,1.93,1.29,3.37,4.1,3.29,6.41,0,.18-.11.34-.27.43-.08.04-.17.06-.25.05Zm-2.44-5.32c.25,1.31.95,2.69,1.87,3.66-.25-1.31-.95-2.69-1.87-3.66Z"/><path class="cls-5" d="m505.69,726.75c.25-4.98-2.94-11.22-7.13-13.93-4.19-2.71-7.79-.87-8.04,4.11-.25,4.98,2.94,11.21,7.13,13.92,4.19,2.71,7.79.87,8.05-4.11Zm-4.27-2.76c-.11,2.18-1.69,2.98-3.52,1.8-1.83-1.18-3.23-3.91-3.12-6.09s1.69-2.98,3.52-1.8c1.83,1.18,3.23,3.91,3.12,6.09Z"/><path class="cls-10" d="m501.06,732.6h0c-1.18-.06-2.42-.51-3.69-1.32-4.32-2.8-7.62-9.24-7.36-14.37.09-1.82.62-3.33,1.53-4.36,1.67-1.89,4.48-1.96,7.28-.15,4.32,2.79,7.62,9.24,7.36,14.37-.09,1.82-.62,3.33-1.53,4.36-.92,1.04-2.16,1.54-3.6,1.47Zm-5.97-20.52c-1.12-.06-2.09.34-2.8,1.14-.76.86-1.2,2.15-1.28,3.75-.25,4.81,2.85,10.85,6.9,13.48,2.35,1.52,4.66,1.53,5.99.03.76-.86,1.2-2.15,1.28-3.74.24-4.81-2.85-10.86-6.91-13.48-1.1-.71-2.21-1.12-3.2-1.17Zm4.29,14.75c-.57-.03-1.16-.24-1.75-.63-2-1.29-3.47-4.16-3.35-6.53.09-1.78,1.09-2.89,2.54-2.82.56.03,1.15.24,1.75.62,2,1.29,3.47,4.16,3.35,6.53-.09,1.78-1.09,2.89-2.54,2.81Zm-2.61-8.97c-.87-.04-1.43.65-1.49,1.87-.1,2.02,1.2,4.55,2.89,5.64.44.29.87.45,1.26.47.87.04,1.43-.65,1.49-1.87.1-2.02-1.2-4.55-2.89-5.64-.44-.28-.88-.45-1.26-.46Z"/><path class="cls-9" d="m505.69,726.75c.06-1.15-.09-2.38-.37-3.6l3.57-1.83c.28,1.23.42,2.45.36,3.6-.13,2.49-1.09,4.2-2.55,4.94l-3.56,1.82c1.46-.74,2.42-2.45,2.54-4.94Zm-6.51-5.46c-.55-1.08-.87-2.27-.83-3.35h0s-.03-.03-.05-.04c-1.83-1.19-3.41-.38-3.52,1.8-.06,1.09.27,2.31.83,3.42l3.57-1.83Z"/><path class="cls-9" d="m503.12,732.18c-.17,0-.34-.11-.42-.27-.13-.25-.03-.55.22-.67h0c1.35-.69,2.16-2.3,2.27-4.52.05-1.04-.07-2.21-.36-3.47-.05-.22.06-.45.26-.56l3.57-1.82c.13-.07.3-.07.44,0,.14.07.24.19.28.34.31,1.36.43,2.62.37,3.74-.13,2.6-1.13,4.5-2.82,5.36l-3.56,1.82s0,0,0,0c-.08.04-.17.06-.25.05Zm2.78-8.77c.25,1.21.35,2.34.3,3.36-.06,1.22-.32,2.29-.75,3.17l1.04-.53c1.35-.69,2.16-2.29,2.28-4.52.04-.85-.03-1.81-.22-2.83l-2.64,1.35Zm-10.31.2c-.17,0-.34-.11-.42-.27-.63-1.23-.95-2.53-.89-3.67.09-1.78,1.09-2.89,2.54-2.82.56.03,1.15.24,1.75.62h0s.04.03.06.05c.14.1.23.26.22.43-.03.95.24,2.05.78,3.1.13.25.03.55-.22.67l-3.57,1.83c-.08.04-.17.06-.25.06Zm1.18-5.76c-.87-.04-1.43.65-1.49,1.87-.04.83.16,1.78.56,2.71l2.68-1.37c-.42-.96-.66-1.94-.67-2.84-.4-.23-.76-.35-1.08-.36Z"/><path class="cls-4" d="m176.49,770.38h0c-1.4.32-2.79.31-3.93-.04-1.28-.39-2.11-1.16-2.34-2.16s.18-2.05,1.16-2.96c1.74-1.63,5.17-2.41,7.45-1.71,1.28.39,2.11,1.16,2.34,2.16.23,1-.18,2.05-1.16,2.96-.87.81-2.12,1.43-3.51,1.76Zm-1.27-5.5c-1.13.26-2.17.77-2.85,1.41-.57.53-.84,1.1-.74,1.57s.6.86,1.35,1.09c1.77.54,4.67-.13,6.03-1.39.57-.53.84-1.1.73-1.57-.11-.47-.6-.86-1.35-1.09-.89-.27-2.05-.28-3.18-.02Z"/></g></svg>