<?xml version="1.0" encoding="UTF-8"?><svg xmlns="http://www.w3.org/2000/svg" viewBox="0 0 680 832"><defs><style>.cls-1{fill:#037242;}.cls-2{fill:#f5fe8f;}.cls-3,.cls-4{fill:#fff;}.cls-5{fill:#f1f1f1;}.cls-6{fill:#eddad5;}.cls-7{fill:#e2ff6f;}.cls-8{fill:#ff6554;}.cls-9{fill:#e0372f;}.cls-10{fill:#1f1f24;}.cls-11{fill:#1e3f58;}.cls-12{fill:#29b57e;}.cls-13{fill:#353538;}.cls-14{fill:#4f4f4f;}.cls-15{opacity:.27;}.cls-16{opacity:.23;}.cls-17{opacity:.44;}.cls-18,.cls-4{opacity:.35;}.cls-19{opacity:.55;}</style></defs><g id="Layer_5"><g class="cls-17"><polygon points="414.47 470.02 396.56 459.62 396.83 554.64 414.74 565.05 414.47 470.02"/><polygon class="cls-14" points="444.39 452.75 426.48 442.34 396.56 459.62 414.47 470.02 444.39 452.75"/><polygon class="cls-10" points="414.47 470.02 414.74 565.05 444.66 547.78 444.39 452.75 414.47 470.02"/><polygon points="464.45 361.89 446.54 351.48 446.97 503.2 464.88 513.61 464.45 361.89"/><polygon class="cls-10" points="464.45 361.89 464.88 513.61 494.81 496.33 494.38 344.61 464.45 361.89"/><polygon points="565.09 379.77 547.18 369.36 547.52 489.01 565.43 499.42 565.09 379.77"/><polygon class="cls-14" points="595.01 362.5 577.1 352.09 547.18 369.36 565.09 379.77 595.01 362.5"/><polygon class="cls-10" points="565.09 379.77 565.43 499.42 595.35 482.14 595.01 362.5 565.09 379.77"/><g class="cls-16"><polygon class="cls-6" points="515.18 516.05 497.27 505.64 497.43 560.1 515.34 570.51 515.18 516.05"/><polygon class="cls-3" points="545.1 498.77 527.19 488.36 497.27 505.64 515.18 516.05 545.1 498.77"/><polygon class="cls-6" points="163.15 523.35 145.24 512.94 145.3 533.34 163.21 543.75 163.15 523.35"/><polygon class="cls-3" points="193.07 506.07 175.16 495.66 145.24 512.94 163.15 523.35 193.07 506.07"/><polygon class="cls-6" points="313.98 503.75 296.06 493.34 296.56 669.59 314.47 680 313.98 503.75"/><polygon class="cls-3" points="343.9 486.47 325.99 476.06 296.06 493.34 313.98 503.75 343.9 486.47"/><polygon class="cls-6" points="615.6 456.74 597.69 446.33 598.04 568.93 615.95 579.34 615.6 456.74"/><polygon class="cls-3" points="645.52 439.47 627.61 429.06 597.69 446.33 615.6 456.74 645.52 439.47"/><polygon class="cls-6" points="666.1 531.5 648.19 521.09 648.44 607.04 666.35 617.45 666.1 531.5"/><polygon class="cls-3" points="696.03 514.23 678.12 503.82 648.19 521.09 666.1 531.5 696.03 514.23"/></g><polygon points="63.26 547.39 45.35 536.98 45.41 622.84 63.32 633.25 63.26 547.39"/><polygon class="cls-14" points="93.19 530.11 75.28 519.7 45.35 536.98 63.26 547.39 93.19 530.11"/><polygon class="cls-10" points="63.26 547.39 63.32 633.25 93.24 615.97 93.19 530.11 63.26 547.39"/><polygon points="12.77 614.35 -5.14 603.95 -5.08 722.54 12.83 732.95 12.77 614.35"/><polygon class="cls-14" points="42.69 597.08 24.78 586.67 -5.14 603.95 12.77 614.35 42.69 597.08"/><polygon class="cls-10" points="12.77 614.35 12.83 732.95 42.75 715.67 42.69 597.08 12.77 614.35"/><polygon points="112.53 405.39 94.62 394.98 95.05 546.98 112.96 557.39 112.53 405.39"/><polygon class="cls-14" points="142.45 388.12 124.54 377.71 94.62 394.98 112.53 405.39 142.45 388.12"/><polygon class="cls-10" points="112.53 405.39 112.96 557.39 142.88 540.12 142.45 388.12 112.53 405.39"/></g><path d="m127.92,689.33c-2.12,2.21-4.66,5.61-5.03,9.96-1,11.81,14.76,21.64,27.71,29.84,57.44,36.4,79.45,53.55,104.44,54.14,12.11.29,22.59-2.98,22.59-2.98,5.44-1.89,13.28-5.28,21.74-11.51,14.21,10.37,28.42,20.75,42.63,31.12,33.53-12.36,67.07-24.72,100.61-37.09.99-4.41,1.99-8.81,2.98-13.22,9.95-5.26,19.89-10.52,29.84-15.77-4.09-3.12-8.18-6.24-12.27-9.37-.88-.67-2.03-1.55-2.91-2.22-11.65-8.9-23.21-17.83-34.7-26.78,40.64-22.59,81.28-45.19,121.92-67.78,2.83-5.99,3.03-10.69,2.56-14.07-1.33-9.52-9.47-18.89-9.47-18.89,0,0-140.91,32.31-412.65,94.61Z"/><path d="m174.06,597.68c-4.38,2.46-8.76,4.93-13.14,7.39,0,0,25.38,13.31,25.38,13.31h0s100.46-55.95,100.59-56.02c-14.34-3.71-28.68-7.43-43.02-11.14-23.27,15.49-46.54,30.97-69.81,46.46Z"/><path d="m342.43,486.66c.38,2.92.76,5.83,1.15,8.75,15.45,3.4,30.89,6.8,46.34,10.2-.07-4.95-.15-9.9-.22-14.85,2.7.16,6.48.15,10.86-.67,12.87-2.4,31.2-11.78,35.03-29.27,2.06-9.42-.83-17.8-3.19-22.74-29.99,16.19-59.98,32.39-89.96,48.58Z"/><path d="m359.1,445.12c-1.23-2.93-2.46-5.86-3.69-8.78-2.23.11-6.43.62-10.89,3.16-5.6,3.2-8.38,7.77-9.44,9.78,1.08,6.15,2.16,12.3,3.24,18.45.08,1.31.15,2.62.23,3.93-5.15,4.8-10.31,9.6-15.46,14.41-1.86-.56-11.52-3.67-17.04-13.88-5.61-10.37-2.75-20.33-2.2-22.14,29.99-13.12,59.97-26.24,89.96-39.36.09,4.33.17,8.67.26,13-11.24,7.96-22.49,15.93-33.73,23.89-.41-.82-.82-1.64-1.23-2.46Z"/><path d="m547.19,497.97c1,3.39,3.8,14.41-1.51,26-5.75,12.54-18.75,20.83-33.63,21.73l-11.38-3.88c-.26-8.54-.52-17.07-.78-25.61,15.76-6.08,31.53-12.16,47.29-18.24Z"/></g><g id="Layer_1"><path class="cls-4" d="m467.74,684.96c-.05,0-.11,0-.16-.02-1.33-.3-2.91-.46-4.57-.46h0c-1.69,0-3.24.16-4.56.46-.29.06-.58-.05-.75-.3-.16-.24-.16-.56,0-.8.46-.67.7-1.48.7-2.32,0-.85-.24-1.65-.7-2.33-.16-.24-.16-.56,0-.8.17-.24.46-.36.75-.29,2.67.61,6.51.6,9.14,0,.29-.07.58.05.75.29.16.24.16.56,0,.8-.46.67-.7,1.48-.7,2.33,0,.79.21,1.55.61,2.18.16.13.25.33.25.54,0,.4-.3.75-.73.71h-.02Zm-4.78-1.91c1.25,0,2.44.08,3.52.24-.18-.56-.28-1.16-.28-1.77,0-.62.1-1.21.28-1.78-2.15.31-4.77.31-6.94,0,.19.56.28,1.16.28,1.77,0,.61-.09,1.21-.28,1.78,1.07-.15,2.23-.23,3.41-.23Z"/><path class="cls-4" d="m173.87,634.8c-.05,0-.11,0-.16-.02-1.33-.3-2.91-.46-4.57-.46h0c-1.69,0-3.24.16-4.56.46-.29.06-.58-.05-.75-.3-.16-.24-.16-.56,0-.8.46-.67.7-1.48.7-2.32,0-.85-.24-1.65-.7-2.33-.16-.24-.16-.56,0-.8.17-.24.46-.36.75-.29,2.67.61,6.51.6,9.14,0,.29-.07.58.05.75.29.16.24.16.56,0,.8-.46.67-.7,1.48-.7,2.33,0,.79.21,1.55.61,2.18.16.13.25.33.25.54,0,.4-.3.75-.73.71h-.02Zm-4.78-1.91c1.25,0,2.44.08,3.52.24-.18-.56-.28-1.16-.28-1.77,0-.62.1-1.21.28-1.78-2.15.31-4.77.31-6.94,0,.19.56.28,1.16.28,1.77,0,.61-.09,1.21-.28,1.78,1.07-.15,2.23-.23,3.41-.23Z"/><g class="cls-15"><path class="cls-3" d="m564.41,651.75c-.39,0-.71-.32-.71-.71v-7.71c0-.39.31-.71.71-.71h0c.39,0,.71.32.71.71v7.71c0,.39-.31.71-.71.71h0Z"/><path class="cls-3" d="m571.09,647.89h-13.37c-.39,0-.71-.32-.71-.72s.32-.71.71-.71h13.37c.39,0,.71.32.71.71s-.32.71-.71.71Z"/></g><g class="cls-18"><path class="cls-3" d="m163.21,755.41c-.46,0-.83-.37-.83-.83v-9.01c0-.46.36-.83.82-.83h0c.46,0,.83.37.83.83v9.01c0,.46-.37.83-.83.83h0Z"/><path class="cls-3" d="m171.01,750.91h-15.61c-.46,0-.83-.38-.83-.84s.37-.83.83-.83h15.61c.46,0,.83.38.83.84s-.37.83-.83.83Z"/></g><path class="cls-8" d="m271.05,83.66c-.46,0-.83-.37-.83-.83v-9.01c0-.46.36-.83.82-.83h0c.46,0,.83.37.83.83v9.01c0,.46-.37.83-.83.83h0Z"/><path class="cls-8" d="m278.85,79.16h-15.61c-.46,0-.83-.38-.83-.84s.37-.83.83-.83h15.61c.46,0,.83.38.83.84s-.37.83-.83.83Z"/><path class="cls-8" d="m219.32,270.06c-.7,0-1.43-.22-2.18-.65-2.45-1.42-4.36-4.73-4.36-7.56,0-1.05.27-1.95.79-2.6.96-1.21,2.7-1.39,4.41-.4,2.45,1.41,4.36,4.73,4.36,7.55,0,2.18-1.21,3.65-3.02,3.65Zm-3.53-10.19c-.39,0-.7.14-.93.43-.28.35-.42.89-.42,1.56,0,2.21,1.62,5.01,3.53,6.11.48.28.95.43,1.35.43,1.22,0,1.35-1.39,1.35-1.98,0-2.21-1.62-5.01-3.53-6.11-.49-.28-.95-.43-1.35-.43Z"/><path class="cls-8" d="m491.79,153.7c-.7,0-1.43-.22-2.18-.65-2.45-1.42-4.36-4.73-4.36-7.56,0-1.05.27-1.95.79-2.6.96-1.21,2.7-1.39,4.41-.4,2.45,1.41,4.36,4.73,4.36,7.55,0,2.18-1.21,3.65-3.02,3.65Zm-3.53-10.19c-.39,0-.7.14-.93.43-.28.35-.42.89-.42,1.56,0,2.21,1.62,5.01,3.53,6.11.48.28.95.43,1.35.43,1.22,0,1.35-1.39,1.35-1.98,0-2.21-1.62-5.01-3.53-6.11-.49-.28-.95-.43-1.35-.43Z"/><path class="cls-8" d="m446.52,275.6s-.04,0-.06,0c-.34-.03-.63-.26-.73-.58-.47-1.52-1.23-3.2-2.2-4.88-.96-1.68-2.05-3.18-3.13-4.35-.23-.25-.29-.62-.14-.93.15-.31.47-.5.81-.47.94.07,1.91-.15,2.77-.65.86-.49,1.53-1.21,1.94-2.06.14-.31.44-.5.81-.47.34.03.63.26.73.58.47,1.52,1.24,3.21,2.2,4.88.93,1.61,1.97,3.06,3,4.21.24.15.39.41.39.71,0,.47-.38.83-.85.83-.03,0-.05,0-.08,0-.93-.07-1.91.16-2.77.65-.86.49-1.53,1.21-1.94,2.06-.14.29-.43.47-.75.47Zm-3.82-9.67c.79,1.01,1.56,2.15,2.26,3.37.71,1.22,1.31,2.46,1.79,3.64.46-.52,1.01-.96,1.63-1.32.61-.35,1.28-.61,1.96-.75-.79-1-1.56-2.14-2.26-3.37-.71-1.22-1.31-2.46-1.78-3.64-.46.52-1.01.96-1.63,1.32-.62.35-1.28.61-1.96.75Z"/><path class="cls-8" d="m191.71,172.38c-1.05,0-2.15-.06-3.27-.19-3.67-.42-6.54-1.4-6.54-2.23,0-.31.41-.58,1.18-.77,1.44-.36,4.05-.41,6.6-.12,3.67.42,6.54,1.4,6.54,2.23,0,.64-1.82,1.08-4.52,1.08Zm-5.29-3.01c-.58,0-1.05.04-1.39.13-.41.1-.63.26-.63.46,0,.65,2.42,1.48,5.29,1.8.72.08,1.42.13,2.02.13,1.83,0,2.03-.41,2.03-.58,0-.65-2.42-1.48-5.29-1.8-.73-.08-1.43-.13-2.02-.13Z"/><polygon class="cls-1" points="135.82 684.16 135.82 693.45 244.77 756.36 244.77 747.06 135.82 684.16"/><path class="cls-12" d="m539.97,592.88c-.08-4.15-2.85-8.28-8.32-11.45l-108.95-62.9c-11.11-6.41-29.11-6.42-40.21-.01l-246.68,142.42c-5.51,3.18-8.28,7.35-8.31,11.53h0v9.44h0c.04,4.18,2.81,8.35,8.33,11.54l108.95,62.9c11.11,6.41,29.12,6.42,40.21.02l246.68-142.43c5.56-3.21,8.33-7.42,8.32-11.63h0v-9.44h-.01Z"/><path class="cls-13" d="m264.91,762.04h0c-7.76,0-15.06-1.75-20.57-4.93l-108.95-62.9c-5.58-3.22-8.69-7.55-8.77-12.2,0-.03,0-.07,0-.1v-9.44s0-.09.01-.14c.09-4.63,3.18-8.94,8.74-12.14l246.68-142.42c5.49-3.17,12.78-4.92,20.52-4.92s15.05,1.75,20.56,4.93l108.95,62.9c5.5,3.18,8.61,7.45,8.76,12.03.01.06.02.12.02.18v9.44c.02,4.72-3.09,9.11-8.75,12.38l-246.68,142.43c-5.49,3.17-12.77,4.92-20.51,4.92Zm-136.55-80.22s0,.05,0,.08c.04,4.04,2.84,7.88,7.9,10.79l108.95,62.9c5.25,3.03,12.25,4.7,19.7,4.7h0c7.43,0,14.41-1.66,19.64-4.68l246.68-142.43c5.09-2.94,7.89-6.8,7.88-10.87v-9.29s-.01-.09-.01-.14c-.07-4.01-2.88-7.81-7.89-10.71l-108.95-62.9c-5.25-3.03-12.24-4.7-19.69-4.7s-14.42,1.67-19.65,4.69l-246.68,142.42c-5.05,2.92-7.85,6.75-7.87,10.78,0,.04,0,.08,0,.12v9.22Z"/><path class="cls-13" d="m244.77,757.23c-.15,0-.3-.04-.43-.12l-108.95-62.9c-.27-.15-.43-.44-.43-.75v-9.29c0-.31.16-.6.43-.76.27-.16.6-.16.87,0l108.95,62.9c.27.16.44.45.44.76v9.3c0,.31-.17.6-.44.75-.13.08-.29.12-.44.12Zm-108.08-64.28l107.21,61.9v-7.29l-107.21-61.89v7.28Z"/><path class="cls-1" d="m539.97,592.88c-.08-4.15-2.85-8.28-8.32-11.45l-108.95-62.9c-11.11-6.41-29.11-6.42-40.21-.01l-116.59,67.32v175.31c6.94-.14,13.8-1.72,19.09-4.77l246.68-142.43c5.56-3.21,8.33-7.42,8.32-11.63h0v-9.44h-.01Z"/><path class="cls-1" d="m265.89,762.02c-.23,0-.45-.09-.61-.25-.17-.16-.26-.39-.26-.62v-175.31c0-.31.17-.6.44-.76l116.59-67.31c5.49-3.17,12.78-4.92,20.52-4.92s15.05,1.75,20.56,4.93l108.95,62.9c5.5,3.18,8.61,7.45,8.76,12.03.01.06.02.12.02.18v9.44c.02,4.72-3.09,9.11-8.75,12.38l-246.68,142.43c-5.2,3-12.13,4.74-19.51,4.89h-.02Zm.87-175.68v173.91c6.75-.26,13.04-1.89,17.79-4.63l246.68-142.43c5.09-2.94,7.89-6.8,7.88-10.87v-9.29s-.01-.09-.01-.14c-.07-4.01-2.88-7.81-7.89-10.71l-108.95-62.9c-5.25-3.03-12.24-4.7-19.69-4.7s-14.42,1.67-19.65,4.69l-116.15,67.06Z"/><path class="cls-3" d="m284.98,747.08c-11.09,6.41-29.1,6.4-40.21-.02l-108.95-62.9c-11.11-6.42-11.12-16.81-.02-23.22l246.68-142.42c11.1-6.41,29.1-6.4,40.21.01l108.95,62.9c11.11,6.42,11.12,16.81.02,23.22l-246.68,142.42Z"/><path class="cls-13" d="m264.91,752.75c-7.76,0-15.06-1.75-20.57-4.93l-108.95-62.9c-5.66-3.27-8.77-7.66-8.77-12.38s3.11-9.09,8.75-12.35l246.68-142.42c5.49-3.17,12.78-4.92,20.52-4.92s15.05,1.75,20.56,4.93l108.95,62.9c5.66,3.27,8.78,7.66,8.78,12.38s-3.11,9.09-8.75,12.35l-246.68,142.42c-5.49,3.17-12.77,4.92-20.51,4.92Zm137.66-238.16c-7.44,0-14.42,1.67-19.65,4.69l-246.68,142.42c-5.08,2.94-7.88,6.79-7.88,10.84s2.81,7.93,7.9,10.87l108.95,62.9c5.25,3.03,12.25,4.7,19.7,4.7s14.41-1.66,19.64-4.68l246.68-142.42c5.08-2.93,7.88-6.78,7.88-10.84s-2.81-7.92-7.9-10.87l-108.95-62.9c-5.25-3.03-12.24-4.7-19.69-4.7Z"/><path class="cls-13" d="m363.34,535.38l9.55-5.52v156.01l-9.55,5.52v-156.01Zm161.27,47.8l-108.95-62.9c-5.92-3.42-14.85-3.98-21.85-1.8v155.32l130.82-75.53c7.2-4.16,7.2-10.93-.01-15.09Zm-207.47-21.12l-174.3,100.63c-7.2,4.16-7.2,10.92.01,15.09l108.95,62.9c7.21,4.17,18.93,4.17,26.13.01l39.2-22.63v-156Z"/><path class="cls-13" d="m199.91,726.68c-.15,0-.3-.04-.43-.12l-19.22-11.1c-.42-.24-.56-.77-.32-1.19.24-.42.78-.56,1.19-.32l19.22,11.1c.42.24.56.77.32,1.19-.16.28-.46.44-.76.44Z"/><path class="cls-11" d="m465.08,556.84c1.1-.63,1.09-1.66,0-2.29-1.1-.63-2.88-.63-3.97,0-1.09.63-1.09,1.66,0,2.29,1.1.63,2.88.63,3.97,0Z"/><path class="cls-11" d="m463.1,558.19h0c-.9,0-1.76-.21-2.43-.6-.8-.46-1.26-1.15-1.26-1.9s.46-1.44,1.26-1.9c1.31-.76,3.52-.76,4.84,0,.8.46,1.26,1.16,1.26,1.9s-.46,1.44-1.26,1.9c-.66.38-1.51.59-2.41.59Zm-.02-3.24c-.59,0-1.15.13-1.54.36-.28.16-.38.32-.38.39s.1.23.39.39c.4.23.96.36,1.56.36h0c.59,0,1.15-.13,1.54-.36.29-.16.39-.32.39-.39s-.1-.23-.39-.39c-.39-.23-.96-.36-1.55-.36Z"/><path class="cls-8" d="m425.2,583.65c-8.6-4.96-16.39-5.45-22.03-2.23h0s-.03.02-.04.03l-11.89,6.87h0c-5.67,3.23-9.16,10.21-9.16,20.15,0,19.84,13.96,43.98,31.18,53.93,8.68,5.01,16.52,5.45,22.17,2.13l11.71-6.76c5.72-3.21,9.26-10.2,9.26-20.19,0-19.84-13.96-43.99-31.19-53.93Z"/><path class="cls-10" d="m427.2,668.38h0c-4.65,0-9.63-1.51-14.8-4.5-17.67-10.2-32.05-35.06-32.05-55.42,0-10.26,3.56-17.95,10.03-21.65l11.86-6.85s.1-.06.16-.09c6.18-3.54,14.85-2.82,23.67,2.27,17.67,10.21,32.05,35.07,32.05,55.43,0,10.31-3.6,18.01-10.14,21.69l-11.69,6.74c-2.67,1.57-5.72,2.37-9.09,2.37Zm-23.17-85.47s-.03.02-.05.03l-11.89,6.87c-5.36,3.06-8.3,9.68-8.3,18.66,0,19.26,13.61,42.78,30.32,52.44,7.77,4.49,15.12,5.25,20.43,2.14l11.71-6.77c5.43-3.05,8.4-9.68,8.4-18.7,0-19.26-13.6-42.78-30.32-52.44-7.64-4.41-15.04-5.22-20.31-2.23Z"/><path class="cls-9" d="m435.42,664.53l11.71-6.76c5.72-3.21,9.26-10.2,9.26-20.19l-43.05,24.86c8.64,4.97,16.45,5.4,22.09,2.09Z"/><path class="cls-9" d="m427.2,668.38h0c-4.63,0-9.58-1.5-14.72-4.45-.54-.31-.87-.88-.87-1.49s.33-1.19.86-1.5l43.05-24.85c.53-.31,1.19-.31,1.72,0,.54.31.86.88.86,1.49,0,10.31-3.6,18.01-10.14,21.69l-11.69,6.74c-2.67,1.57-5.72,2.37-9.08,2.37Zm-10.29-6.02c6.69,3.16,12.99,3.41,17.64.68l11.72-6.77c4.79-2.69,7.67-8.18,8.28-15.65l-37.63,21.73Z"/><path class="cls-19" d="m383.9,627.42c8.08,26.67,25.18,43.61,40.92,42.7,3.21-.19,7.92-1.2,13.41-5.27-18.11-12.48-36.22-24.95-54.33-37.43Z"/><path class="cls-3" d="m444.44,644.47c.01,19.84-13.96,27.86-31.19,17.92-17.23-9.94-31.18-34.09-31.18-53.93s13.96-27.86,31.18-17.92c17.23,9.94,31.2,34.09,31.19,53.93Z"/><path class="cls-10" d="m427.21,668.38c-4.66,0-9.65-1.51-14.81-4.5-17.67-10.2-32.05-35.06-32.05-55.42,0-14.53,7.44-23.92,18.96-23.92,4.66,0,9.65,1.52,14.81,4.5,17.68,10.2,32.06,35.07,32.05,55.43,0,7.19-1.78,13.22-5.16,17.44-3.38,4.23-8.15,6.47-13.8,6.47Zm-27.91-80.39c-9.57,0-15.51,7.84-15.51,20.47,0,19.26,13.61,42.78,30.32,52.44,9.79,5.65,19.11,5.22,24.2-1.13,2.88-3.61,4.41-8.9,4.4-15.29,0-19.26-13.6-42.79-30.32-52.44-4.58-2.64-9.11-4.04-13.09-4.04Z"/><path class="cls-13" d="m409.54,639.56c-.1,0-.21-.01-.31-.03-.57-.11-1.05-.49-1.27-1.03l-9.28-21.98c-.37-.87.04-1.89.92-2.26.86-.37,1.88.04,2.25.91l8.26,19.58,14.9-15.49c.66-.69,1.76-.71,2.44-.05.69.66.71,1.75.05,2.44l-16.71,17.38c-.33.34-.78.53-1.24.53Z"/><polygon class="cls-12" points="431.86 728.52 274.86 608.63 185.17 647.72 185.17 660.65 342.17 780.54 431.86 741.45 431.86 728.52"/><path class="cls-11" d="m342.17,782.16c-.35,0-.7-.12-.98-.33l-157-119.9c-.4-.3-.63-.78-.63-1.28v-12.93c0-.64.38-1.22.97-1.48l89.69-39.1c.54-.23,1.16-.16,1.63.2l157,119.9c.4.3.64.78.64,1.28v12.93c0,.64-.38,1.22-.97,1.48l-89.69,39.09c-.21.09-.43.14-.65.14Zm-155.38-122.31l155.61,118.84,87.85-38.29v-11.07l-155.61-118.83-87.85,38.3v11.07Z"/><polygon class="cls-3" points="431.86 728.52 274.86 608.63 185.17 647.72 342.17 767.62 431.86 728.52"/><path class="cls-11" d="m342.17,769.23c-.35,0-.7-.11-.98-.33l-157-119.89c-.45-.35-.69-.91-.62-1.48.07-.57.43-1.06.96-1.29l89.69-39.1c.54-.23,1.16-.16,1.63.2l157,119.9c.45.35.7.91.62,1.47-.07.58-.43,1.07-.96,1.29l-89.69,39.09c-.21.09-.43.13-.65.13Zm-153.84-121.13l154.06,117.65,86.3-37.62-154.06-117.65-86.3,37.62Z"/><polygon class="cls-1" points="342.17 767.62 342.17 780.54 431.86 741.45 431.86 728.52 342.17 767.62"/><path class="cls-1" d="m342.17,782.16c-.31,0-.62-.09-.89-.27-.45-.3-.73-.81-.73-1.35v-12.92c0-.64.38-1.23.97-1.48l89.69-39.1c.5-.22,1.07-.17,1.53.13.46.3.73.81.73,1.35v12.93c0,.64-.38,1.22-.97,1.48l-89.69,39.09c-.21.09-.43.14-.65.14Zm1.61-13.49v9.4l86.46-37.69v-9.4l-86.46,37.69Z"/><path class="cls-7" d="m357.02,751.6l44.07-19.21c-3.04-4.16-1.89-8.96,2.98-12.48l-122.44-93.52c-7.2,1.75-15.51,1.07-21.62-1.75l-44.07,19.21c3.04,4.17,1.89,8.96-2.99,12.48l122.45,93.51c7.2-1.75,15.51-1.07,21.62,1.75Z"/><path class="cls-11" d="m357.02,753.22c-.23,0-.46-.05-.68-.15-5.68-2.62-13.83-3.28-20.56-1.65-.48.12-.98.01-1.36-.29l-122.45-93.51c-.41-.31-.64-.79-.64-1.3,0-.51.26-.99.67-1.29,2.26-1.63,3.61-3.53,3.93-5.51.25-1.6-.18-3.18-1.3-4.71-.29-.4-.38-.91-.25-1.38.13-.48.46-.86.91-1.06l44.08-19.21c.42-.18.9-.18,1.32.02,5.68,2.62,13.82,3.28,20.56,1.64.48-.13.97,0,1.36.29l122.44,93.52c.41.31.64.8.64,1.3,0,.52-.26.99-.67,1.29-2.25,1.63-3.61,3.54-3.92,5.51-.25,1.6.18,3.18,1.3,4.71.29.4.38.9.25,1.38-.13.47-.46.87-.91,1.06l-44.08,19.21c-.21.1-.43.14-.65.14Zm-13.38-5.94c4.79,0,9.52.91,13.39,2.57l41.74-18.2c-.85-1.74-1.14-3.58-.85-5.42.36-2.27,1.58-4.41,3.57-6.27l-120.22-91.82c-6.99,1.53-15.2.85-21.25-1.73l-41.73,18.19c.85,1.74,1.14,3.58.85,5.42-.36,2.27-1.58,4.41-3.57,6.27l120.23,91.82c2.52-.55,5.16-.83,7.86-.83Z"/><path class="cls-3" d="m322.83,699.06c-13.3,5.8-30.49,5.6-38.39-.44-7.91-6.04-3.53-15.63,9.76-21.43,13.3-5.8,30.49-5.6,38.4.44,7.91,6.04,3.53,15.64-9.77,21.44Zm-31.52-45.11l-19.89-15.19-10.26,4.47,19.89,15.19,10.26-4.47Zm89.36,68.25l-19.89-15.19-10.26,4.47,19.89,15.19,10.26-4.47Z"/><path class="cls-11" d="m370.42,728.29c-.35,0-.69-.11-.98-.33l-19.89-15.19c-.45-.34-.69-.91-.62-1.48.07-.57.43-1.06.96-1.29l10.26-4.48c.54-.23,1.16-.16,1.63.2l19.89,15.19c.45.35.69.91.62,1.48-.07.57-.43,1.06-.96,1.29l-10.26,4.48c-.21.09-.43.13-.65.13Zm-16.73-16.42l16.95,12.95,6.87-3-16.95-12.94-6.87,2.99Zm-51.53-6.97c-7.85,0-14.5-1.78-18.71-4.99-3.34-2.55-4.94-5.92-4.51-9.49.68-5.59,6-10.96,14.6-14.71,6.45-2.81,14.02-4.36,21.31-4.36,7.85,0,14.5,1.77,18.72,4.99,3.34,2.55,4.94,5.92,4.5,9.5-.68,5.59-6,10.96-14.61,14.71-6.45,2.81-14.01,4.36-21.31,4.36Zm12.69-30.32c-6.86,0-13.97,1.45-20.02,4.08-7.41,3.24-12.16,7.78-12.69,12.14-.3,2.46.8,4.66,3.26,6.54,3.6,2.75,9.71,4.33,16.75,4.33s13.97-1.45,20.02-4.09c7.42-3.23,12.16-7.77,12.69-12.13.3-2.46-.8-4.65-3.26-6.54-3.6-2.75-9.72-4.32-16.76-4.32Zm-33.81-14.54c-.35,0-.7-.11-.98-.33l-19.89-15.19c-.45-.35-.69-.91-.62-1.48.07-.57.43-1.06.96-1.29l10.26-4.47c.54-.24,1.16-.16,1.63.2l19.89,15.19c.45.35.69.91.62,1.48-.07.57-.43,1.06-.96,1.29l-10.26,4.48c-.21.09-.43.13-.65.13Zm-16.73-16.42l16.96,12.95,6.87-3-16.95-12.95-6.87,3Z"/><path class="cls-11" d="m356.79,738.05c-.34,0-.69-.11-.98-.33l-24.94-19.04c-.71-.54-.85-1.55-.3-2.26.54-.7,1.56-.85,2.26-.3l24.94,19.04c.71.54.85,1.56.3,2.26-.32.42-.8.64-1.29.64Zm8.4-3.66c-.34,0-.69-.11-.98-.33l-29.97-22.89c-.71-.54-.85-1.55-.3-2.26.54-.7,1.55-.85,2.26-.3l29.97,22.89c.71.54.85,1.56.3,2.27-.32.41-.8.63-1.29.63Zm-85.65-65.42c-.34,0-.69-.1-.98-.33l-29.97-22.89c-.71-.54-.85-1.55-.3-2.26.54-.7,1.55-.85,2.26-.3l29.97,22.89c.71.54.85,1.56.3,2.26-.32.42-.8.64-1.29.64Zm-13.45-.18c-.34,0-.68-.1-.98-.33l-24.92-19.04c-.71-.54-.85-1.55-.3-2.26.54-.7,1.55-.85,2.26-.3l24.92,19.04c.71.54.85,1.56.3,2.26-.32.42-.8.64-1.29.64Z"/><polygon class="cls-12" points="458.96 701.99 274.86 595.7 195.4 641.58 195.4 654.51 379.49 760.79 458.96 714.92 458.96 701.99"/><path class="cls-12" d="m379.49,762.41c-.28,0-.56-.07-.81-.21l-184.09-106.29c-.5-.29-.81-.82-.81-1.4v-12.92c0-.58.31-1.11.81-1.4l79.46-45.88c.5-.29,1.12-.29,1.62,0l184.09,106.29c.5.28.81.82.81,1.39v12.93c0,.58-.31,1.11-.81,1.4l-79.46,45.88c-.25.14-.53.21-.81.21Zm-182.48-108.84l182.48,105.35,77.85-44.94v-11.06l-182.48-105.35-77.85,44.94v11.06Z"/><polygon class="cls-3" points="458.96 701.99 274.86 595.7 195.4 641.58 379.49 747.87 458.96 701.99"/><path class="cls-10" d="m379.49,749.48c-.28,0-.56-.07-.81-.21l-184.09-106.29c-.5-.29-.81-.82-.81-1.4s.31-1.11.81-1.4l79.46-45.88c.5-.29,1.12-.29,1.62,0l184.09,106.29c.5.28.81.82.81,1.39s-.31,1.11-.81,1.41l-79.46,45.88c-.25.15-.53.21-.81.21Zm-180.86-107.9l180.86,104.42,76.23-44.02-180.86-104.42-76.23,44.01Z"/><polygon class="cls-1" points="379.49 747.87 379.49 760.79 458.96 714.92 458.96 701.99 379.49 747.87"/><path class="cls-1" d="m379.49,762.41c-.28,0-.56-.07-.81-.21-.5-.29-.81-.83-.81-1.41v-12.92c0-.58.31-1.11.81-1.4l79.46-45.88c.5-.29,1.11-.29,1.61,0,.5.28.81.82.81,1.39v12.93c0,.58-.31,1.11-.81,1.4l-79.46,45.88c-.25.14-.53.21-.81.21Zm1.61-13.61v9.2l76.23-44.01v-9.2l-76.23,44.01Z"/><path class="cls-7" d="m390.37,730.81l39.05-22.54c-4.01-3.88-4.01-8.72-.03-12.6l-143.59-82.9c-6.72,2.31-15.1,2.3-21.82-.01l-39.05,22.54c4,3.88,4.01,8.72.02,12.6l143.59,82.9c6.72-2.31,15.1-2.3,21.83.01Z"/><path class="cls-10" d="m390.37,732.43c-.18,0-.35-.03-.52-.09-6.27-2.15-14.52-2.16-20.78-.01-.44.16-.92.1-1.33-.13l-143.59-82.9c-.44-.26-.73-.7-.8-1.2-.06-.5.11-1,.48-1.35,1.63-1.59,2.5-3.37,2.5-5.13,0-1.78-.87-3.56-2.52-5.15-.36-.35-.54-.86-.48-1.36.06-.51.36-.95.8-1.2l39.05-22.55c.41-.23.89-.28,1.33-.13,6.26,2.15,14.52,2.16,20.77.01.44-.16.92-.11,1.33.13l143.59,82.9c.44.25.73.7.8,1.2.06.5-.11,1.01-.47,1.36-1.63,1.59-2.49,3.37-2.49,5.13,0,1.78.87,3.55,2.52,5.15.36.35.54.85.48,1.35-.06.51-.36.95-.8,1.21l-39.05,22.54c-.25.14-.53.21-.81.21Zm-10.94-4.97c3.76,0,7.46.55,10.76,1.6l36.71-21.19c-1.38-1.83-2.1-3.84-2.11-5.9,0-2.05.71-4.05,2.08-5.88l-141.25-81.55c-6.58,2.07-14.87,2.07-21.46-.01l-36.71,21.19c1.38,1.83,2.1,3.84,2.1,5.9,0,2.05-.71,4.05-2.09,5.87l141.25,81.56c3.28-1.04,6.96-1.58,10.7-1.58Z"/><path class="cls-3" d="m343.97,681.47c-11.78,6.8-28.85,7.98-38.12,2.63-9.27-5.36-7.24-15.21,4.54-22.01,11.78-6.8,28.85-7.98,38.13-2.62,9.27,5.35,7.24,15.2-4.55,22.01Zm-41.99-42.18l-23.32-13.47-9.09,5.25,23.32,13.47,9.09-5.25Zm104.79,60.5l-23.32-13.46-9.09,5.25,23.32,13.47,9.09-5.25Z"/><path class="cls-11" d="m397.68,706.67c-.28,0-.56-.07-.81-.21l-23.32-13.46c-.5-.29-.81-.83-.81-1.41s.31-1.11.81-1.39l9.09-5.25c.5-.29,1.12-.29,1.62,0l23.32,13.47c.5.28.81.82.81,1.39s-.31,1.11-.81,1.4l-9.09,5.25c-.25.14-.53.21-.81.21Zm-20.09-15.08l20.09,11.6,5.86-3.39-20.09-11.6-5.86,3.38Zm-56.81-2.51c-6.25,0-11.69-1.24-15.74-3.57-4.27-2.47-6.62-6.03-6.62-10.02,0-5.3,4.07-10.69,11.17-14.79,6.82-3.94,15.57-6.2,24-6.2,6.25,0,11.69,1.24,15.74,3.58,4.27,2.46,6.62,6.02,6.62,10.02,0,5.3-4.07,10.69-11.17,14.79-6.82,3.94-15.57,6.2-24,6.2Zm12.8-31.35c-7.88,0-16.04,2.1-22.38,5.77-5.98,3.45-9.55,7.93-9.55,11.99,0,2.83,1.73,5.33,5.01,7.22,3.51,2.02,8.53,3.14,14.13,3.14,7.88,0,16.04-2.1,22.38-5.76,5.98-3.45,9.55-7.94,9.55-11.99,0-2.83-1.73-5.33-5.01-7.22-3.51-2.03-8.53-3.14-14.13-3.14Zm-40.69-11.56c-.28,0-.56-.07-.81-.21l-23.32-13.46c-.5-.29-.81-.82-.81-1.4s.31-1.11.81-1.39l9.09-5.25c.5-.29,1.12-.29,1.62,0l23.32,13.46c.5.28.81.82.81,1.4s-.31,1.11-.81,1.4l-9.09,5.24c-.25.14-.53.21-.81.21Zm-20.09-15.08l20.09,11.6,5.86-3.38-20.09-11.6-5.86,3.38Z"/><path class="cls-11" d="m386.52,717.42c-.27,0-.55-.07-.81-.21l-29.23-16.87c-.77-.45-1.04-1.44-.59-2.21.44-.77,1.43-1.04,2.21-.59l29.23,16.88c.77.44,1.04,1.44.59,2.2-.3.52-.84.81-1.4.81Zm7.45-4.3c-.27,0-.55-.07-.81-.21l-35.14-20.29c-.77-.44-1.04-1.44-.59-2.21.45-.77,1.43-1.04,2.21-.59l35.14,20.29c.77.45,1.04,1.44.59,2.2-.3.52-.84.81-1.4.81Zm-113.8-57.11c-.27,0-.55-.07-.81-.21l-29.23-16.87c-.77-.45-1.04-1.44-.59-2.21.44-.77,1.43-1.04,2.21-.59l29.23,16.88c.77.44,1.04,1.44.59,2.2-.3.52-.84.81-1.4.81Zm13.36-.89c-.27,0-.55-.07-.81-.21l-35.14-20.29c-.77-.45-1.04-1.44-.59-2.21.44-.77,1.43-1.04,2.21-.59l35.14,20.29c.77.44,1.04,1.44.59,2.2-.3.52-.84.81-1.4.81Z"/></g><g id="Layer_3"><polygon class="cls-2" points="279.87 462.67 258.1 450.1 236.35 462.66 236.34 560.97 258.12 573.54 279.87 560.99 279.87 462.67"/><path class="cls-13" d="m258.12,574.84c-.23,0-.45-.06-.65-.18l-21.78-12.57c-.4-.24-.65-.66-.65-1.13v-98.31c0-.47.25-.89.66-1.13l21.75-12.56c.4-.23.91-.23,1.31,0l21.77,12.57c.41.24.65.66.65,1.13v98.31c0,.47-.24.9-.65,1.13l-21.75,12.55c-.2.12-.43.18-.65.18Zm-20.47-14.63l20.47,11.82,20.45-11.8v-96.81l-20.47-11.82-20.44,11.81v96.8Z"/><polygon class="cls-3" points="258.12 475.23 236.35 462.66 258.1 450.1 279.87 462.67 258.12 475.23"/><path class="cls-13" d="m258.12,476.53c-.23,0-.45-.05-.65-.17l-21.77-12.57c-.41-.23-.65-.67-.65-1.13s.24-.89.65-1.13l21.75-12.56c.4-.23.91-.23,1.31,0l21.77,12.57c.41.24.65.66.65,1.13s-.24.9-.65,1.13l-21.75,12.56c-.2.12-.43.17-.65.17Zm-19.16-13.88l19.16,11.06,19.14-11.05-19.16-11.06-19.14,11.05Z"/><polygon class="cls-12" points="258.12 573.54 258.12 475.23 279.87 462.67 279.87 560.99 258.12 573.54"/><path class="cls-13" d="m258.12,574.84c-.23,0-.45-.06-.65-.18-.4-.23-.65-.66-.65-1.13v-98.31c0-.47.26-.89.65-1.13l21.75-12.56c.4-.24.9-.24,1.31,0,.41.24.65.66.65,1.13v98.31c0,.47-.24.9-.65,1.13l-21.75,12.55c-.2.12-.43.18-.65.18Zm1.31-98.86v95.29l19.14-11.05v-95.3l-19.14,11.05Z"/><polygon class="cls-2" points="249.05 522.27 227.27 509.7 205.53 522.26 205.53 578.76 227.3 591.33 249.05 578.78 249.05 522.27"/><path class="cls-13" d="m227.3,592.64c-.23,0-.45-.06-.65-.18l-21.77-12.57c-.41-.24-.65-.66-.65-1.13v-56.5c0-.47.25-.9.65-1.13l21.75-12.56c.4-.24.9-.24,1.31,0l21.78,12.57c.41.23.65.66.65,1.13v56.5c0,.47-.24.9-.65,1.13l-21.75,12.55c-.2.12-.43.18-.65.18Zm-20.47-14.63l20.47,11.81,20.45-11.8v-55l-20.47-11.81-20.44,11.8v55Z"/><polygon class="cls-3" points="227.3 534.83 205.53 522.26 227.27 509.7 249.05 522.27 227.3 534.83"/><path class="cls-13" d="m227.3,536.13c-.23,0-.45-.06-.65-.18l-21.77-12.56c-.41-.24-.65-.66-.65-1.13s.25-.9.65-1.13l21.75-12.56c.4-.24.9-.24,1.31,0l21.78,12.57c.41.23.65.66.65,1.13s-.24.9-.65,1.13l-21.75,12.55c-.2.12-.43.18-.65.18Zm-19.16-13.87l19.16,11.05,19.14-11.04-19.17-11.06-19.13,11.05Z"/><polygon class="cls-12" points="227.3 591.33 227.3 534.83 249.05 522.27 249.05 578.78 227.3 591.33"/><path class="cls-13" d="m227.3,592.64c-.23,0-.45-.06-.65-.18-.4-.23-.65-.66-.65-1.13v-56.5c0-.47.25-.9.65-1.13l21.75-12.55c.4-.24.9-.24,1.31,0,.41.23.65.66.65,1.13v56.5c0,.47-.24.9-.65,1.13l-21.75,12.55c-.2.12-.43.18-.65.18Zm1.31-57.06v53.49l19.14-11.05v-53.49l-19.14,11.04Z"/><polygon class="cls-2" points="218.24 560.99 196.46 548.41 174.71 560.97 174.71 596.55 196.49 609.13 218.24 596.57 218.24 560.99"/><path class="cls-13" d="m196.49,610.43c-.23,0-.46-.06-.65-.18l-21.78-12.57c-.41-.23-.65-.66-.65-1.13v-35.58c0-.47.25-.9.65-1.13l21.75-12.55c.4-.24.91-.24,1.31,0l21.78,12.57c.4.23.65.67.65,1.13v35.58c0,.47-.26.9-.65,1.13l-21.75,12.56c-.21.12-.43.18-.65.18Zm-20.47-14.63l20.47,11.82,20.45-11.8v-34.08l-20.48-11.81-20.44,11.8v34.08Z"/><polygon class="cls-3" points="196.49 573.54 174.71 560.97 196.46 548.41 218.24 560.99 196.49 573.54"/><path class="cls-13" d="m196.49,574.84c-.23,0-.46-.06-.65-.18l-21.78-12.57c-.41-.24-.65-.66-.65-1.13s.25-.9.65-1.13l21.75-12.55c.4-.24.91-.24,1.31,0l21.78,12.57c.4.23.65.67.65,1.13s-.26.9-.65,1.13l-21.75,12.55c-.21.12-.43.18-.65.18Zm-19.17-13.87l19.17,11.06,19.14-11.05-19.17-11.06-19.14,11.05Z"/><polygon class="cls-12" points="196.49 609.13 196.49 573.54 218.24 560.99 218.24 596.57 196.49 609.13"/><path class="cls-13" d="m196.49,610.43c-.23,0-.46-.06-.65-.18-.41-.23-.65-.66-.65-1.13v-35.59c0-.47.24-.9.65-1.13l21.75-12.56c.4-.23.9-.23,1.31,0,.4.23.65.67.65,1.13v35.58c0,.47-.26.9-.65,1.13l-21.75,12.56c-.21.12-.43.18-.65.18Zm1.31-36.14v32.57l19.14-11.05v-32.57l-19.14,11.05Z"/><path class="cls-8" d="m389.41,486.41c25.4-5.29,41.78-19.31,41.61-34.48h.08s0-13.84,0-13.84h-.08c-.05-3-.65-6.03-2.05-9.06-2.92-6.33-8.61-11.82-16.08-16.16l-14.17,11.16v13.77c3.08,2.17,5.47,4.7,7.03,7.52-3.97,7.17-13.94,13.09-27.45,15.18l-5.06-10.96-29.52,23.34v13.78l45.69,11.65v-11.91Z"/><path class="cls-8" d="m389.41,499.61c-.11,0-.21-.01-.32-.04l-45.69-11.66c-.57-.14-.97-.66-.97-1.25v-13.78c0-.39.18-.77.49-1.01l29.52-23.34c.31-.25.71-.34,1.1-.24.38.09.71.36.87.72l4.65,10.06c11.82-2.01,21.13-7.09,25.19-13.74-1.45-2.37-3.55-4.55-6.28-6.46-.34-.24-.55-.64-.55-1.06v-13.77c0-.4.19-.77.5-1.02l14.17-11.16c.41-.33.99-.37,1.45-.11,7.94,4.62,13.68,10.41,16.6,16.73,1.33,2.87,2.06,5.94,2.16,9.14.06.14.09.29.09.46v13.84c0,.15-.03.3-.08.44-.15,15.64-16.74,29.62-41.61,35.08v10.86c0,.4-.19.78-.5,1.02-.23.18-.51.27-.79.27Zm-44.4-13.95l43.11,11v-10.25c0-.61.43-1.14,1.03-1.27,24.44-5.09,40.75-18.43,40.59-33.2,0-.16.03-.31.08-.46v-12.97c-.05-.13-.08-.27-.08-.41-.05-3.03-.68-5.83-1.93-8.53-2.6-5.65-7.71-10.88-14.8-15.14l-12.98,10.23v12.48c3.01,2.22,5.32,4.76,6.87,7.56.21.39.21.86,0,1.25-4.34,7.84-14.95,13.75-28.38,15.83-.57.08-1.13-.21-1.37-.74l-4.37-9.47-27.74,21.93v12.15Z"/><path class="cls-5" d="m343.72,472.89l45.7,11.65-5.07-10.95c33.55-5.22,53.57-25.21,44.62-44.56-2.92-6.33-8.61-11.82-16.08-16.16l-14.17,11.16c3.45,2.43,6.09,5.29,7.58,8.52,5.61,12.14-6.95,24.7-28,27.96l-5.06-10.96-29.52,23.34Z"/><path class="cls-13" d="m389.41,485.83c-.11,0-.21-.01-.32-.04l-45.7-11.65c-.48-.12-.84-.5-.94-.98-.1-.48.08-.98.46-1.28l29.52-23.34c.31-.25.71-.34,1.1-.24.38.09.71.36.87.72l4.65,10.06c12.17-2.08,21.95-7.61,25.67-14.54,2-3.73,2.13-7.68.4-11.45-1.35-2.91-3.76-5.6-7.16-8-.33-.23-.54-.61-.55-1.02,0-.41.17-.8.49-1.05l14.17-11.16c.41-.33.99-.37,1.45-.11,7.94,4.62,13.68,10.41,16.6,16.73,3.23,6.98,2.99,14.32-.71,21.21-6.48,12.1-22.56,21.33-43.2,24.9l4.36,9.41c.21.45.14.98-.18,1.37-.25.3-.62.47-.99.47Zm-42.85-13.55l40.54,10.34-3.93-8.48c-.17-.37-.16-.8.03-1.15.19-.36.54-.6.94-.67,20.65-3.21,36.73-12.12,43.01-23.84,3.29-6.15,3.51-12.68.64-18.9-2.6-5.65-7.71-10.87-14.8-15.14l-12.15,9.57c3.06,2.41,5.29,5.09,6.63,8,2.09,4.53,1.93,9.28-.47,13.75-4.25,7.93-14.91,13.92-28.51,16.03-.58.08-1.13-.21-1.37-.74l-4.37-9.47-26.19,20.7Z"/><path class="cls-8" d="m343.72,486.66v-13.78l45.7,11.65v13.77s-45.7-11.65-45.7-11.65Zm62.58-54.11c-1.49-3.23-4.14-6.09-7.58-8.52v13.77c3.06,2.16,5.45,4.69,7,7.48,2.21-4.01,2.59-8.39.58-12.74Z"/><path class="cls-13" d="m389.41,499.61c-.11,0-.21-.01-.32-.04l-45.69-11.66c-.57-.14-.97-.66-.97-1.25v-13.78c0-.4.19-.77.5-1.02.32-.24.73-.33,1.11-.23l45.7,11.65c.57.15.97.66.97,1.25v13.77c-.01.4-.2.77-.51,1.02-.23.18-.51.27-.79.27Zm-44.4-13.95l43.11,11v-11.11s-43.11-11-43.11-11v11.11Zm60.71-39.08c-.47,0-.9-.26-1.13-.67-1.44-2.6-3.66-4.97-6.62-7.05-.34-.24-.55-.64-.55-1.06v-13.77c0-.48.27-.93.7-1.15.43-.22.95-.19,1.34.09,3.78,2.66,6.47,5.7,8.01,9.03,2.1,4.55,1.88,9.36-.63,13.9-.23.41-.66.67-1.13.67Zm-5.71-9.43c2.25,1.66,4.1,3.48,5.53,5.46,1.18-3.18,1.04-6.37-.41-9.52-1.06-2.29-2.78-4.45-5.12-6.43v10.49Z"/><path class="cls-8" d="m337.52,466.71v-13.77c-3.09-2.17-5.48-4.72-7.03-7.53,3.97-7.17,13.94-13.08,27.44-15.18l5.07,10.96,29.52-23.33v-13.77s-45.69-11.66-45.69-11.66v11.9c-25.23,5.26-41.56,19.14-41.62,34.18h-.07v13.88h.07c0,3.08.62,6.21,2.06,9.32,2.92,6.34,8.59,11.81,16.08,16.16l14.17-11.15Z"/><path class="cls-8" d="m323.35,479.15c-.22,0-.45-.06-.65-.17-7.94-4.61-13.68-10.39-16.6-16.73-1.39-3-2.12-6.18-2.18-9.46-.05-.13-.08-.26-.08-.4v-13.88c0-.16.03-.3.08-.44.36-15.5,16.96-29.36,41.61-34.79v-10.86c0-.4.19-.77.5-1.02.32-.24.72-.33,1.11-.23l45.69,11.66c.57.15.97.66.97,1.25v13.77c0,.39-.18.77-.49,1.01l-29.52,23.33c-.31.25-.72.33-1.1.24-.39-.09-.71-.36-.87-.72l-4.65-10.06c-11.83,2.02-21.13,7.1-25.19,13.75,1.45,2.38,3.55,4.56,6.28,6.48.34.24.55.64.55,1.06v13.77c0,.39-.18.77-.49,1.02l-14.17,11.15c-.23.18-.51.27-.8.27Zm-16.92-27.17c.05.13.07.26.07.39,0,3.05.66,6.01,1.94,8.79,2.61,5.66,7.72,10.88,14.8,15.14l12.98-10.22v-12.48c-3.02-2.22-5.33-4.76-6.87-7.57-.21-.39-.21-.86,0-1.25,4.33-7.82,14.94-13.74,28.37-15.83.58-.09,1.13.21,1.37.74l4.38,9.47,27.74-21.93v-12.14s-43.11-11-43.11-11v10.24c0,.61-.43,1.14-1.03,1.27-24.22,5.05-40.53,18.28-40.58,32.93,0,.14-.03.28-.07.41v13.06Z"/><path class="cls-5" d="m323.36,464.09l14.16-11.16c-3.45-2.43-6.09-5.29-7.59-8.52-5.61-12.15,6.95-24.7,28-27.97l5.07,10.96,29.51-23.33-45.69-11.66,5.06,10.96c-33.55,5.21-53.56,25.2-44.61,44.55,2.92,6.34,8.6,11.82,16.09,16.16Z"/><path class="cls-13" d="m323.36,465.38c-.22,0-.45-.06-.65-.17-7.95-4.61-13.69-10.4-16.61-16.74-3.23-6.99-2.98-14.32.71-21.21,6.48-12.1,22.56-21.33,43.19-24.89l-4.35-9.42c-.21-.45-.14-.98.18-1.37.32-.38.83-.54,1.31-.43l45.69,11.66c.48.12.84.51.94.98.1.48-.08.98-.46,1.28l-29.52,23.33c-.31.25-.72.33-1.1.24-.39-.09-.71-.36-.87-.72l-4.65-10.07c-12.18,2.09-21.97,7.62-25.68,14.55-1.99,3.72-2.13,7.68-.39,11.44,1.35,2.92,3.76,5.62,7.16,8.01.33.24.54.61.55,1.02,0,.41-.17.8-.49,1.05l-14.16,11.16c-.23.18-.51.28-.8.28Zm25.78-71.04l3.93,8.49c.17.37.16.79-.03,1.15-.19.36-.54.6-.94.66-20.65,3.21-36.73,12.11-43,23.83-3.29,6.15-3.51,12.69-.64,18.91,2.61,5.66,7.72,10.88,14.81,15.14l12.14-9.57c-3.06-2.41-5.29-5.1-6.63-8.01-2.09-4.53-1.93-9.28.46-13.74,4.25-7.93,14.91-13.93,28.52-16.04.57-.1,1.13.21,1.37.73l4.38,9.47,26.18-20.7-40.53-10.34Z"/><path class="cls-8" d="m323.35,477.86c-7.49-4.34-13.16-9.82-16.08-16.16-1.44-3.11-2.06-6.24-2.06-9.33h-.07s0-13.88,0-13.88h.07s0-.01,0,0c-.01,3.12.6,6.29,2.06,9.44,2.92,6.34,8.6,11.82,16.09,16.16v13.77Zm23.47-85.45v11.9s0,.01-.02,0c1.67-.35,3.34-.67,5.08-.95l-5.06-10.96Zm16.18,48.76v-13.77l-5.07-10.96v13.77s5.07,10.96,5.07,10.96Z"/><path class="cls-13" d="m323.35,479.15c-.22,0-.45-.06-.65-.17-7.94-4.61-13.68-10.39-16.6-16.73-1.39-3-2.12-6.18-2.18-9.46-.05-.13-.08-.26-.08-.4v-13.88c0-1.06,1.5-1.66,2.24-.91.24.24.41.57.41.91-.01,3.09.64,6.08,1.94,8.89,2.7,5.86,8.08,11.25,15.56,15.59.4.23.64.66.64,1.12v13.77c0,.46-.25.89-.65,1.12-.2.11-.42.17-.64.17Zm-16.92-27.17c.05.13.07.26.07.39,0,3.05.66,6.01,1.94,8.79,2.46,5.33,7.15,10.28,13.62,14.4v-10.74c-7.32-4.38-12.71-9.77-15.63-15.67v2.83Zm56.57-9.52c-.5,0-.96-.28-1.17-.75l-5.07-10.95c-.08-.17-.12-.36-.12-.54v-13.77c0-.61.42-1.13,1.02-1.26.6-.12,1.2.17,1.45.72l5.06,10.96c.08.17.12.36.12.54v13.77c0,.6-.42,1.13-1.01,1.26-.09.02-.19.03-.28.03Zm-3.78-12.53l2.48,5.37v-7.62l-2.48-5.37v7.62Zm-12.41-24.32c-.14,0-.29-.02-.42-.07-.55-.18-.91-.72-.88-1.3,0-.04,0-.09.01-.13v-11.7c0-.6.43-1.13,1.02-1.26.6-.13,1.2.17,1.45.72l5.06,10.96c.17.37.16.79-.03,1.15-.19.36-.54.6-.94.67-1.68.26-3.3.58-4.91.91-.12.03-.24.05-.36.05Zm1.3-7.33v4.46c.63-.12,1.26-.24,1.89-.36l-1.89-4.1Z"/><path class="cls-12" d="m524.58,406.79l-9.08-5.24-15.33,8.85v3.11c-.54.2-1.07.43-1.57.71l-15.32,8.85c-4.15,2.32-6.23,7.2-6.24,14.6.01,8.05,2.09,15.48,6.24,22.32,1.7,2.81,3.88,5.77,6.34,8.83l-15.25,8.81-.18.29c-.15,9.31,2.12,17.76,6.83,25.32,4.69,7.55,10.7,13.83,18.01,18.8v12.96s9.08,5.25,9.08,5.25l15.33-8.84v-1.79c.55-.19,1.09-.42,1.6-.69l15.32-8.85c4.14-2.19,6.19-7.13,6.19-14.77,0-7.98-2.09-15.49-6.27-22.47-2.24-3.74-5.12-7.64-8.57-11.67l14.5-8.19.12-.25c.11-8.06-1.76-15.74-5.65-23.06-3.88-7.31-9.25-13.49-16.1-18.55v-14.29Z"/><path class="cls-10" d="m508.11,541.46c-.21,0-.43-.05-.61-.16l-9.08-5.25c-.38-.22-.61-.62-.61-1.06v-12.31c-7.17-4.98-13.17-11.3-17.82-18.8-4.81-7.73-7.17-16.47-7.01-25.99,0-.22.06-.43.18-.61l.17-.29c.1-.18.25-.32.44-.42l14.01-8.1c-2.29-2.92-4.12-5.49-5.54-7.84-4.25-7-6.4-14.72-6.42-22.95,0-7.86,2.32-13.14,6.87-15.67l15.31-8.84c.31-.18.64-.33.95-.47v-2.29c0-.44.23-.85.61-1.07l15.33-8.84c.38-.23.85-.23,1.23,0l9.08,5.24c.37.22.61.62.61,1.06v13.68c6.73,5.08,12.09,11.32,15.95,18.58,3.96,7.45,5.92,15.42,5.8,23.65,0,.18-.04.35-.12.52-.11.23-.41.67-.62.8l-13.21,7.46c3.13,3.76,5.73,7.35,7.74,10.7,4.28,7.16,6.45,14.94,6.44,23.11,0,8.11-2.3,13.45-6.84,15.86l-15.28,8.83c-.33.18-.66.33-.99.47v.95c0,.44-.24.84-.61,1.06l-15.33,8.85c-.19.11-.41.16-.61.16Zm-7.86-7.19l7.86,4.54,14.1-8.13v-1.08c0-.53.33-1,.83-1.16.49-.17.97-.37,1.43-.61l15.28-8.83c3.72-1.97,5.58-6.57,5.58-13.71,0-7.72-2.05-15.07-6.1-21.85-2.13-3.56-4.98-7.43-8.45-11.5-.24-.28-.34-.65-.28-1.01.06-.36.29-.68.61-.86l13.99-7.91c.06-7.48-1.79-14.95-5.51-21.96-3.78-7.11-9.07-13.21-15.74-18.13-.32-.23-.5-.6-.5-.99v-13.58s-7.85-4.53-7.85-4.53l-14.1,8.14v2.41c0,.52-.32.97-.8,1.15-.49.18-.95.38-1.4.63l-15.3,8.84c-3.73,2.09-5.62,6.63-5.63,13.54.01,7.77,2.05,15.07,6.06,21.68,1.55,2.55,3.6,5.39,6.25,8.7.22.28.31.64.25,1-.06.35-.28.66-.6.84l-14.82,8.55c-.06,8.83,2.17,16.95,6.65,24.14,4.58,7.38,10.52,13.58,17.66,18.43.33.23.54.61.54,1.02v12.25Z"/><path class="cls-3" d="m514.6,504.67c.01-3.59-.89-7-2.68-10.21-1.78-3.2-4.97-7.13-9.54-11.79-8.59-8.29-14.97-15.86-19.11-22.69-4.15-6.84-6.23-14.27-6.24-22.32,0-7.4,2.09-12.28,6.24-14.6,4.15-2.32,9.77-1.85,16.89,1.42v-14.09l9.09,5.24v14.29c6.84,5.05,12.21,11.24,16.1,18.55,3.89,7.32,5.77,15,5.66,23.07l-.12.25-16.27-9.39c0-4.8-.95-9.02-2.83-12.68-1.88-3.64-4.52-6.46-7.91-8.41-3.58-2.07-6.17-2.48-7.77-1.26-1.6,1.23-2.39,3.66-2.39,7.3,0,3.41.85,6.57,2.54,9.58,1.69,3,4.94,7.04,9.73,12.14,8.46,8.05,14.77,15.56,18.96,22.58,4.18,6.98,6.28,14.49,6.28,22.47,0,7.64-2.06,12.58-6.19,14.77-4.14,2.2-9.77,1.67-16.94-1.64v12.97s-9.08-5.25-9.08-5.25v-12.96c-7.3-4.97-13.32-11.24-18-18.8-4.7-7.56-6.98-16.01-6.83-25.32l.18-.29,16.22,9.36c0,5.62,1.18,10.32,3.57,14.09,2.38,3.77,5.46,6.74,9.27,8.94,3.73,2.16,6.53,2.72,8.39,1.69,1.86-1.03,2.8-3.38,2.79-7.02Z"/><path class="cls-10" d="m508.11,541.46c-.21,0-.43-.05-.61-.16l-9.08-5.25c-.38-.22-.61-.62-.61-1.06v-12.31c-7.17-4.98-13.17-11.3-17.82-18.8-4.81-7.73-7.17-16.47-7.01-25.99,0-.22.06-.43.18-.61l.17-.29c.34-.57,1.08-.76,1.67-.42l16.22,9.36c.38.22.61.62.61,1.07,0,5.36,1.13,9.87,3.38,13.43,2.26,3.58,5.23,6.44,8.85,8.53,3.28,1.91,5.74,2.49,7.19,1.68,1.43-.8,2.16-2.8,2.15-5.95.01-3.36-.83-6.6-2.52-9.61-1.72-3.07-4.86-6.95-9.34-11.53-8.61-8.31-15.11-16.03-19.29-22.91-4.25-7-6.4-14.72-6.42-22.95,0-7.86,2.32-13.14,6.87-15.68,4.13-2.31,9.59-2.11,16.26.61v-12.21c0-.44.23-.85.61-1.07.38-.22.85-.22,1.23,0l9.09,5.24c.37.22.61.62.61,1.07v13.67c6.72,5.08,12.09,11.33,15.96,18.59,3.96,7.46,5.91,15.42,5.8,23.66,0,.18-.05.35-.12.51-.15.31-.48.67-.8.78-.33.1-.75.19-1.04.02l-16.27-9.38c-.38-.22-.61-.62-.61-1.06,0-4.58-.91-8.66-2.69-12.12-1.78-3.43-4.28-6.09-7.43-7.91-3.03-1.75-5.24-2.24-6.42-1.35-1.26.97-1.91,3.1-1.91,6.32,0,3.2.79,6.13,2.39,8.97,1.63,2.9,4.85,6.9,9.55,11.91,8.45,8.04,14.9,15.72,19.12,22.79,4.28,7.15,6.45,14.93,6.45,23.11,0,8.11-2.31,13.45-6.84,15.85-4.13,2.19-9.59,1.92-16.29-.85v11.09c0,.44-.23.85-.61,1.07-.19.11-.41.16-.61.16Zm-7.86-7.19l6.63,3.83v-10.84c0-.42.21-.81.56-1.04.35-.23.8-.26,1.18-.08,6.73,3.11,12.07,3.68,15.85,1.67,3.67-1.95,5.53-6.55,5.54-13.68,0-7.73-2.05-15.08-6.1-21.85-4.11-6.88-10.41-14.39-18.75-22.32-4.96-5.27-8.21-9.32-9.96-12.43-1.82-3.21-2.7-6.55-2.71-10.18,0-4.08.94-6.79,2.87-8.28,2.05-1.55,5.04-1.19,9.14,1.18,3.57,2.05,6.39,5.05,8.38,8.91,1.86,3.63,2.86,7.84,2.96,12.53l13.94,8.04c-.15-7.05-2-14.07-5.51-20.68-3.79-7.12-9.08-13.22-15.75-18.14-.31-.23-.49-.6-.49-.99v-13.58l-6.63-3.83v11.96c0,.42-.22.8-.57,1.03-.35.23-.8.25-1.17.08-6.68-3.07-12-3.57-15.79-1.46-3.71,2.08-5.6,6.63-5.6,13.53.01,7.77,2.05,15.07,6.06,21.68,4.08,6.7,10.44,14.25,18.93,22.44,4.72,4.82,7.91,8.76,9.75,12.07,1.89,3.38,2.84,7.03,2.83,10.81,0,4.1-1.15,6.83-3.42,8.09-2.26,1.26-5.42.73-9.6-1.7-3.96-2.28-7.22-5.42-9.7-9.34-2.39-3.79-3.65-8.51-3.75-14.03l-13.94-8.04c.15,8.36,2.38,16.06,6.65,22.93,4.58,7.38,10.52,13.58,17.66,18.43.33.23.54.61.54,1.02v12.25Z"/><path class="cls-1" d="m524.57,421.08l-15.32,8.85v-14.29l15.33-8.85v14.29Zm14.65,39.31l-8.56,4.84c.25,2.08.37,4.18.35,6.31l.7-.4,7.25-4.1,7.25-4.1.12-.25c.03-2.08-.08-4.12-.31-6.14l-6.79,3.84Zm-36.83,22.28c-.55-.54-1.06-1.06-1.6-1.59l-10.21,5.89c0,4.2.66,7.88,1.99,11.05l15.57-8.99c-1.58-1.94-3.49-4.06-5.75-6.37Zm5.71,44.59v12.97s15.34-8.84,15.34-8.84v-1.79h0c-3.96,1.33-9.06.56-15.34-2.33Zm3.69-77.53c-1.88-3.64-4.52-6.46-7.91-8.41-3.58-2.07-6.17-2.48-7.77-1.26-1.6,1.23-2.39,3.66-2.39,7.3,0,3.41.85,6.57,2.54,9.58.23.4.55.87.84,1.31l14.7-8.49s-.01-.02-.01-.03Zm19.38,62.6c.02.59.06,1.19.06,1.8,0,7.64-2.06,12.58-6.19,14.77l15.32-8.85c4.14-2.19,6.19-7.13,6.19-14.77,0-.6-.03-1.2-.06-1.8l-15.33,8.85Z"/><path class="cls-10" d="m508.11,541.46c-.21,0-.43-.05-.61-.16-.38-.22-.61-.62-.61-1.07v-12.97c0-.42.21-.81.56-1.04.35-.23.8-.26,1.18-.08,5.93,2.73,10.8,3.51,14.42,2.28.28-.1.58-.08.86.03.1-.25.28-.47.53-.62l.58-.34c3.31-2.09,4.99-6.59,5-13.37,0-.46-.02-.91-.05-1.36l-.02-.39c-.02-.46.22-.89.61-1.12l15.33-8.85c.37-.22.83-.22,1.21-.01.38.2.62.6.63,1.03l.02.47c.02.46.04.92.04,1.38,0,8.11-2.3,13.45-6.84,15.86l-14.67,8.47c-.21.13-.43.26-.65.38-.31.16-.65.18-.95.08v1.31c0,.44-.24.84-.61,1.06l-15.33,8.85c-.19.11-.41.16-.61.16Zm1.22-12.32v8.96s11.67-6.74,11.67-6.74c-3.31.37-7.22-.39-11.67-2.22Zm23.1-16.12c.02.37.03.74.03,1.11,0,4.05-.58,7.41-1.72,10.06l9.01-5.2c3.67-1.94,5.53-6.45,5.58-13.41l-12.9,7.44Zm-39.85-13.76c-.13,0-.27-.02-.39-.06-.34-.11-.61-.36-.74-.69-1.39-3.31-2.09-7.19-2.09-11.53,0-.44.24-.84.61-1.06l10.21-5.9c.47-.28,1.08-.2,1.48.19l1.59,1.58c2.28,2.34,4.24,4.51,5.85,6.48.23.28.32.64.25,1-.07.35-.29.66-.59.84l-15.57,8.99c-.19.11-.4.17-.61.17Zm-.76-11.58c.06,3.17.52,6.04,1.39,8.56l13.06-7.54c-1.37-1.61-2.96-3.35-4.75-5.17l-.93-.92-8.77,5.07Zm39.19-14.91c-.22,0-.44-.06-.63-.17-.38-.23-.61-.64-.6-1.08.02-2-.09-4.08-.34-6.15-.06-.49.18-.97.61-1.21l15.36-8.67c.36-.2.79-.21,1.16-.02.37.19.62.54.66.95.25,2.1.35,4.22.32,6.3,0,.18-.04.35-.12.51-.11.23-.41.67-.62.8l-15.21,8.59c-.19.11-.4.16-.6.16Zm.96-6.88c.12,1.19.2,2.38.24,3.55l12.89-7.28c.01-1.12-.03-2.35-.13-3.61l-13,7.34Zm-34.87-6.42c-.4,0-.8-.2-1.03-.56l-.24-.36c-.23-.35-.47-.71-.64-1.02-1.81-3.2-2.69-6.54-2.7-10.17,0-4.08.94-6.79,2.87-8.28,2.05-1.55,5.04-1.19,9.14,1.18,3.57,2.05,6.39,5.05,8.38,8.91.19.28.22.59.14.92-.07.33-.31.57-.61.74l-14.7,8.48c-.19.11-.4.17-.61.17Zm1.21-18.87c-.59,0-1.07.14-1.45.43-1.26.97-1.91,3.1-1.91,6.32,0,3.2.79,6.13,2.39,8.97.05.09.1.18.16.27l12.67-7.32c-1.67-2.88-4.01-5.24-6.89-6.9-2.05-1.18-3.71-1.78-4.96-1.78Zm10.94-9.45c-.21,0-.43-.05-.61-.17-.39-.22-.61-.62-.61-1.06v-14.29c0-.44.23-.85.61-1.07l15.33-8.85c.37-.22.85-.22,1.23,0,.37.22.61.62.61,1.06v14.29c0,.44-.24.85-.62,1.07l-15.32,8.84c-.19.11-.4.17-.61.17Zm1.23-14.81v11.46l12.86-7.43v-11.46s-12.86,7.43-12.86,7.43Z"/><path class="cls-4" d="m454.24,751.49h0c-1.4.32-2.79.31-3.93-.04-1.28-.39-2.11-1.16-2.34-2.16s.18-2.05,1.16-2.96c1.74-1.63,5.17-2.41,7.45-1.71,1.28.39,2.11,1.16,2.34,2.16.23,1-.18,2.05-1.16,2.96-.87.81-2.12,1.43-3.51,1.76Zm-1.27-5.5c-1.13.26-2.17.77-2.85,1.41-.57.53-.84,1.1-.74,1.57s.6.86,1.35,1.09c1.77.54,4.67-.13,6.03-1.39.57-.53.84-1.1.73-1.57-.11-.47-.6-.86-1.35-1.09-.89-.27-2.05-.28-3.18-.02Z"/><path class="cls-4" d="m450.16,542.72h0c-1.4.32-2.79.31-3.93-.04-1.28-.39-2.11-1.16-2.34-2.16s.18-2.05,1.16-2.96c1.74-1.63,5.17-2.41,7.45-1.71,1.28.39,2.11,1.16,2.34,2.16.23,1-.18,2.05-1.16,2.96-.87.81-2.12,1.43-3.51,1.76Zm-1.27-5.5c-1.13.26-2.17.77-2.85,1.41-.57.53-.84,1.1-.74,1.57s.6.86,1.35,1.09c1.77.54,4.67-.13,6.03-1.39.57-.53.84-1.1.73-1.57-.11-.47-.6-.86-1.35-1.09-.89-.27-2.05-.28-3.18-.02Z"/></g></svg>