<svg width="126" height="102" viewBox="0 0 126 102" fill="none" xmlns="http://www.w3.org/2000/svg">
<g clip-path="url(#clip0_1300_9208)">
<path d="M98.8247 79.0271C98.7973 78.9815 98.7541 78.9492 98.7026 78.936C98.6511 78.9227 98.5971 78.9302 98.5514 78.9575L97.8894 79.3478L97.4982 78.6874C97.4708 78.6418 97.4276 78.6095 97.3761 78.5962C97.3246 78.583 97.2706 78.5904 97.2249 78.6178C97.1793 78.6451 97.1469 78.6882 97.1336 78.7396C97.1203 78.791 97.1278 78.8448 97.1552 78.8904L97.5464 79.5508L96.8844 79.9411C96.8387 79.9684 96.8063 80.0115 96.793 80.0629C96.7797 80.1143 96.7872 80.1681 96.8146 80.2137C96.842 80.2593 96.8852 80.2916 96.9367 80.3049C96.9882 80.3181 97.0422 80.3107 97.0879 80.2833L97.7499 79.893L98.1411 80.5535C98.1851 80.628 98.2707 80.6628 98.3513 80.6471C98.3728 80.6429 98.3936 80.6347 98.4135 80.6231C98.5082 80.5675 98.5398 80.4449 98.4841 80.3504L98.0929 79.69L98.7549 79.2997C98.8496 79.2442 98.8812 79.1216 98.8255 79.0271H98.8247Z" fill="#E2FF6F"/>
<path d="M100.502 83.3956C100.022 83.3956 99.6328 83.007 99.6328 82.5289C99.6328 82.0507 100.022 81.6621 100.502 81.6621C100.981 81.6621 101.37 82.0507 101.37 82.5289C101.37 83.007 100.981 83.3956 100.502 83.3956ZM100.502 82.1261C100.279 82.1261 100.097 82.3068 100.097 82.5297C100.097 82.7526 100.278 82.9332 100.502 82.9332C100.725 82.9332 100.906 82.7526 100.906 82.5297C100.906 82.3068 100.725 82.1261 100.502 82.1261Z" fill="#E2FF6F"/>
<path d="M12.7707 96.1144C12.2914 96.1144 11.9019 95.7257 11.9019 95.2476C11.9019 94.7695 12.2914 94.3809 12.7707 94.3809C13.2499 94.3809 13.6395 94.7695 13.6395 95.2476C13.6395 95.7257 13.2499 96.1144 12.7707 96.1144ZM12.7707 94.8449C12.5481 94.8449 12.3662 95.0255 12.3662 95.2484C12.3662 95.4713 12.5472 95.652 12.7707 95.652C12.9941 95.652 13.1752 95.4713 13.1752 95.2484C13.1752 95.0255 12.9941 94.8449 12.7707 94.8449Z" fill="#E2FF6F"/>
<path d="M108.958 2.93076C108.479 2.93076 108.089 2.54213 108.089 2.06401C108.089 1.58589 108.479 1.19727 108.958 1.19727C109.437 1.19727 109.827 1.58589 109.827 2.06401C109.827 2.54213 109.437 2.93076 108.958 2.93076ZM108.958 1.6613C108.736 1.6613 108.554 1.84194 108.554 2.06484C108.554 2.28774 108.735 2.46838 108.958 2.46838C109.182 2.46838 109.363 2.28774 109.363 2.06484C109.363 1.84194 109.182 1.6613 108.958 1.6613Z" fill="#E2FF6F"/>
<path d="M123.827 24.8766C123.779 24.8998 123.743 24.9404 123.725 24.991C123.708 25.0415 123.711 25.0954 123.735 25.1426L124.071 25.832L123.38 26.1676C123.332 26.1908 123.296 26.2314 123.279 26.282C123.261 26.3325 123.265 26.3864 123.288 26.4336C123.311 26.4817 123.352 26.5173 123.402 26.5347C123.453 26.5521 123.507 26.5488 123.554 26.5256L124.245 26.19L124.582 26.8794C124.605 26.9275 124.646 26.9631 124.696 26.9805C124.747 26.9979 124.801 26.9946 124.848 26.9714C124.897 26.9482 124.932 26.9076 124.95 26.8571C124.967 26.8065 124.964 26.7526 124.941 26.7054L124.604 26.016L125.295 25.6804C125.373 25.6423 125.416 25.5602 125.406 25.479C125.403 25.4575 125.398 25.436 125.387 25.4152C125.339 25.3166 125.219 25.2752 125.12 25.3233L124.429 25.6589L124.093 24.9694C124.044 24.8708 123.925 24.8294 123.826 24.8775L123.827 24.8766Z" fill="#E2FF6F"/>
<path d="M111.278 41.3683C110.798 41.3683 110.409 40.9796 110.409 40.5015C110.409 40.0234 110.798 39.6348 111.278 39.6348C111.757 39.6348 112.146 40.0234 112.146 40.5015C112.146 40.9796 111.757 41.3683 111.278 41.3683ZM111.278 40.0988C111.055 40.0988 110.873 40.2794 110.873 40.5023C110.873 40.7252 111.054 40.9059 111.278 40.9059C111.501 40.9059 111.682 40.7252 111.682 40.5023C111.682 40.2794 111.501 40.0988 111.278 40.0988Z" fill="#E2FF6F"/>
<path d="M0.513987 53.4501C0.474948 53.4866 0.452522 53.5355 0.45086 53.5885C0.449199 53.6415 0.468303 53.6921 0.50485 53.731L1.03063 54.2904L0.469964 54.8149C0.430926 54.8513 0.408499 54.9002 0.406838 54.9533C0.405177 55.0063 0.424281 55.0568 0.460828 55.0958C0.497375 55.1347 0.54638 55.1571 0.599539 55.1588C0.652698 55.1604 0.703366 55.1414 0.742404 55.1049L1.30307 54.5804L1.82884 55.1397C1.86539 55.1787 1.91439 55.201 1.96755 55.2027C2.02071 55.2043 2.07138 55.1853 2.11042 55.1488C2.14946 55.1124 2.17188 55.0635 2.17354 55.0104C2.1752 54.9574 2.1561 54.9069 2.11955 54.8679L1.59378 54.3086L2.15444 53.7841C2.21757 53.7252 2.23335 53.6341 2.20012 53.5587C2.19099 53.5388 2.17936 53.5197 2.16275 53.5032C2.08716 53.4228 1.96091 53.4195 1.88117 53.494L1.32051 54.0186L0.794732 53.4592C0.719147 53.3789 0.592895 53.3756 0.513156 53.4501H0.513987Z" fill="#E2FF6F"/>
<path d="M9.07341 62.9776C8.59415 62.9776 8.20459 62.589 8.20459 62.1109C8.20459 61.6328 8.59415 61.2441 9.07341 61.2441C9.55267 61.2441 9.94222 61.6328 9.94222 62.1109C9.94222 62.589 9.55267 62.9776 9.07341 62.9776ZM9.07341 61.7082C8.8508 61.7082 8.6689 61.8888 8.6689 62.1117C8.6689 62.3346 8.84997 62.5153 9.07341 62.5153C9.29684 62.5153 9.47791 62.3346 9.47791 62.1117C9.47791 61.8888 9.29684 61.7082 9.07341 61.7082Z" fill="#E2FF6F"/>
<path d="M24.0278 90.2135C23.9347 90.2135 23.8567 90.1406 23.8517 90.047C23.8459 89.95 23.9206 89.8663 24.0186 89.8614C24.6017 89.829 25.1915 89.7702 25.7721 89.689C25.8684 89.6757 25.9581 89.7429 25.9714 89.839C25.9847 89.9351 25.9174 90.0246 25.8211 90.0379C25.2305 90.1207 24.6308 90.1804 24.0377 90.2135C24.0344 90.2135 24.0311 90.2135 24.0278 90.2135ZM21.5418 90.2061C21.5418 90.2061 21.5343 90.2061 21.5301 90.2061C20.9363 90.1688 20.3366 90.1058 19.7485 90.0188C19.6521 90.0047 19.5857 89.9144 19.5998 89.8183C19.6139 89.7222 19.7045 89.6559 19.8008 89.6699C20.3789 89.7561 20.9686 89.8174 21.5526 89.8539C21.6497 89.8597 21.7237 89.9434 21.7179 90.0412C21.712 90.1348 21.634 90.2069 21.5418 90.2069V90.2061ZM28.234 89.5506C28.1559 89.5506 28.0836 89.4984 28.0629 89.4189C28.038 89.3244 28.0944 89.2283 28.1891 89.2034C28.7556 89.0551 29.3221 88.8811 29.8728 88.6864C29.965 88.654 30.0655 88.7021 30.0987 88.7933C30.1319 88.8844 30.0829 88.9855 29.9916 89.0186C29.4317 89.2167 28.8561 89.394 28.2797 89.5448C28.2647 89.549 28.2498 89.5506 28.2348 89.5506H28.234ZM17.3405 89.51C17.3248 89.51 17.3098 89.5084 17.294 89.5034C16.7201 89.3468 16.1461 89.1645 15.5871 88.9598C15.4958 88.9267 15.4484 88.8247 15.4816 88.7336C15.5149 88.6424 15.617 88.5952 15.7084 88.6284C16.2583 88.8289 16.8222 89.0087 17.3871 89.1628C17.4809 89.1885 17.5366 89.2855 17.5108 89.3791C17.4892 89.4578 17.4178 89.5092 17.3405 89.5092V89.51ZM32.2217 88.0632C32.1569 88.0632 32.0938 88.0276 32.0631 87.9655C32.0199 87.8785 32.0556 87.7724 32.1428 87.7293C32.6669 87.4699 33.1861 87.1857 33.6869 86.8833C33.7708 86.8327 33.8788 86.8592 33.9295 86.9429C33.9801 87.0266 33.9536 87.1343 33.8697 87.1849C33.3613 87.4923 32.8331 87.7815 32.2998 88.045C32.2749 88.0574 32.2475 88.0632 32.2217 88.0632ZM13.3669 87.982C13.3403 87.982 13.3129 87.9762 13.2872 87.963C12.7572 87.6945 12.2315 87.4003 11.7248 87.0888C11.6417 87.0374 11.616 86.9288 11.6675 86.846C11.719 86.7631 11.8278 86.7374 11.9109 86.7888C12.4092 87.0954 12.9259 87.3854 13.4475 87.6489C13.5347 87.6928 13.5696 87.7989 13.5256 87.8859C13.494 87.9472 13.4325 87.9829 13.3677 87.9829L13.3669 87.982ZM35.8233 85.8019C35.7709 85.8019 35.7186 85.7787 35.6837 85.734C35.6239 85.6569 35.6372 85.5467 35.7144 85.4862C36.1754 85.1266 36.6265 84.7429 37.055 84.346C37.1265 84.2797 37.2386 84.2839 37.3051 84.3551C37.3715 84.4264 37.3674 84.5382 37.2959 84.6045C36.8599 85.0081 36.4014 85.3984 35.9329 85.7638C35.9005 85.7886 35.8623 85.8011 35.8241 85.8011L35.8233 85.8019ZM9.78201 85.6892C9.7438 85.6892 9.70476 85.6768 9.67237 85.6511C9.20639 85.2824 8.75039 84.8888 8.31681 84.4819C8.24538 84.4148 8.24206 84.3037 8.30934 84.2325C8.37662 84.1612 8.48792 84.1579 8.55935 84.225C8.98545 84.6244 9.43398 85.0114 9.89248 85.3743C9.96889 85.4348 9.98135 85.5459 9.92072 85.6221C9.88583 85.666 9.83434 85.6892 9.78201 85.6892ZM38.894 82.8603C38.8533 82.8603 38.8126 82.8462 38.7794 82.818C38.7046 82.755 38.6963 82.644 38.7595 82.5694C39.1382 82.1244 39.5029 81.6588 39.8434 81.184C39.8999 81.1044 40.0104 81.0862 40.0901 81.1433C40.1698 81.1997 40.1881 81.3099 40.1308 81.3895C39.7844 81.8725 39.414 82.3465 39.0286 82.7981C38.9937 82.8396 38.9439 82.8603 38.894 82.8603ZM6.73118 82.7277C6.68051 82.7277 6.63068 82.7061 6.59579 82.6647C6.21288 82.2098 5.84575 81.7333 5.50354 81.2478C5.44706 81.1682 5.46616 81.058 5.54673 81.0017C5.62647 80.9453 5.73694 80.9644 5.79342 81.0447C6.12982 81.522 6.49113 81.9902 6.8674 82.4377C6.93053 82.5122 6.92056 82.6233 6.8458 82.6863C6.81258 82.7136 6.77271 82.7277 6.73201 82.7277H6.73118ZM41.3119 79.3643C41.2828 79.3643 41.2538 79.3568 41.2272 79.3427C41.1416 79.2955 41.1109 79.1886 41.1574 79.1033C41.4398 78.592 41.7031 78.0625 41.9415 77.5289C41.9814 77.4402 42.086 77.3996 42.1749 77.4394C42.2638 77.4792 42.3045 77.5836 42.2646 77.6722C42.0229 78.2141 41.7546 78.7528 41.4672 79.2731C41.4348 79.3311 41.3742 79.3643 41.3119 79.3643ZM4.34069 79.2126C4.27756 79.2126 4.21693 79.1787 4.18453 79.1198C3.90213 78.5978 3.63965 78.0567 3.40293 77.5115C3.36389 77.422 3.40542 77.3184 3.49513 77.2794C3.58483 77.2405 3.68866 77.2819 3.7277 77.3714C3.96027 77.9067 4.21859 78.4387 4.49601 78.9525C4.54253 79.0378 4.51013 79.1455 4.42458 79.1911C4.398 79.2052 4.36893 79.2118 4.34069 79.2118V79.2126ZM42.979 75.4548C42.9615 75.4548 42.9441 75.4523 42.9266 75.4465C42.8336 75.4175 42.7813 75.3189 42.8103 75.2261C42.9839 74.6684 43.1351 74.0967 43.2605 73.5266C43.2813 73.4313 43.376 73.3716 43.4707 73.3923C43.5662 73.4131 43.626 73.5075 43.6052 73.602C43.4781 74.1812 43.3237 74.7629 43.1476 75.3297C43.1243 75.4051 43.0545 75.454 42.979 75.454V75.4548ZM2.71352 75.2883C2.63711 75.2883 2.56734 75.2385 2.54408 75.1623C2.37381 74.5955 2.22596 74.013 2.10303 73.4305C2.08309 73.3352 2.14373 73.2415 2.24008 73.2217C2.3356 73.2018 2.42946 73.2631 2.44939 73.3584C2.56983 73.931 2.71602 74.5044 2.88297 75.062C2.91121 75.1557 2.85805 75.2535 2.76419 75.2816C2.74758 75.2866 2.73014 75.2891 2.71352 75.2891V75.2883ZM43.8204 71.2901C43.8145 71.2901 43.8087 71.2901 43.8029 71.2893C43.7057 71.2802 43.6343 71.194 43.6443 71.097C43.7007 70.5162 43.7331 69.9262 43.7398 69.342C43.7406 69.2451 43.8212 69.1655 43.9184 69.168C44.0164 69.1688 44.0945 69.2492 44.0928 69.3462C44.0862 69.9403 44.0529 70.5402 43.9956 71.131C43.9865 71.2222 43.9101 71.2901 43.8195 71.2901H43.8204ZM1.907 71.1169C1.81647 71.1169 1.73922 71.0482 1.73091 70.9562C1.67692 70.3645 1.64785 69.7638 1.64453 69.1705C1.64453 69.0735 1.72261 68.994 1.82062 68.9932H1.82145C1.91863 68.9932 1.99754 69.071 1.99837 69.1688C2.00169 69.7522 2.02993 70.3422 2.08309 70.9247C2.09223 71.0216 2.01997 71.107 1.92279 71.1161C1.91697 71.1161 1.91199 71.1161 1.907 71.1161V71.1169ZM43.7988 67.0417C43.7099 67.0417 43.6326 66.9746 43.6235 66.8843C43.5612 66.3051 43.474 65.7201 43.3635 65.1458L43.3594 65.1235C43.3411 65.0282 43.4034 64.9354 43.4989 64.9171C43.5953 64.8989 43.6875 64.961 43.7057 65.0563L43.7099 65.0795C43.8229 65.6646 43.9117 66.2587 43.9749 66.8478C43.9848 66.9448 43.915 67.0318 43.8179 67.0417C43.8112 67.0417 43.8054 67.0426 43.7988 67.0426V67.0417ZM1.95601 66.8677C1.94936 66.8677 1.94272 66.8677 1.93607 66.8669C1.83889 66.8561 1.76912 66.7683 1.78075 66.6722C1.84803 66.0822 1.94189 65.4881 2.059 64.9064C2.07811 64.8111 2.17114 64.7489 2.26749 64.768C2.36301 64.787 2.4253 64.8798 2.4062 64.976C2.29074 65.5485 2.19855 66.1327 2.13293 66.7119C2.12296 66.8023 2.04655 66.8686 1.95767 66.8686L1.95601 66.8677ZM42.9191 62.863C42.8444 62.863 42.7746 62.8149 42.7505 62.7403C42.5728 62.1835 42.3701 61.6283 42.1467 61.0897C42.1093 60.9994 42.1525 60.8966 42.2422 60.8593C42.3327 60.822 42.4357 60.8651 42.4731 60.9546C42.7007 61.5023 42.9067 62.0666 43.0878 62.6334C43.1177 62.7262 43.0662 62.8257 42.9731 62.8547C42.9557 62.8605 42.9374 62.863 42.9191 62.863ZM2.86636 62.7179C2.84808 62.7179 2.82981 62.7155 2.81154 62.7088C2.71851 62.6782 2.66867 62.5787 2.69857 62.4859C2.8838 61.9225 3.09644 61.359 3.32901 60.8129C3.36721 60.7234 3.47104 60.6812 3.56075 60.7193C3.65045 60.7574 3.69281 60.861 3.6546 60.9505C3.42536 61.4883 3.21687 62.0418 3.03497 62.5953C3.01088 62.6699 2.94111 62.7163 2.86719 62.7163L2.86636 62.7179ZM41.2239 58.9676C41.1624 58.9676 41.1018 58.9353 41.0694 58.8772C40.7828 58.3685 40.4713 57.8655 40.1424 57.3832C40.0876 57.3028 40.1084 57.1926 40.1889 57.138C40.2695 57.0833 40.38 57.104 40.4348 57.1844C40.7687 57.6757 41.086 58.187 41.3775 58.7041C41.4257 58.7886 41.395 58.8963 41.3103 58.9444C41.2828 58.9593 41.2529 58.9667 41.2239 58.9667V58.9676ZM4.59652 58.8366C4.56661 58.8366 4.53671 58.8292 4.5093 58.8134C4.42458 58.7654 4.39551 58.6577 4.44368 58.5731C4.73855 58.0577 5.06 57.549 5.39722 57.0601C5.45287 56.9797 5.56251 56.9598 5.64308 57.0153C5.72365 57.0708 5.74359 57.1802 5.68794 57.2606C5.35569 57.7412 5.04006 58.2417 4.75018 58.7488C4.71778 58.806 4.65798 58.8375 4.59652 58.8375V58.8366ZM38.7736 55.4956C38.7246 55.4956 38.6747 55.4749 38.6399 55.4351C38.2561 54.9951 37.8491 54.5651 37.4297 54.1582C37.3599 54.0903 37.3582 53.9784 37.4263 53.9088C37.4944 53.8392 37.6066 53.8375 37.6763 53.9055C38.1033 54.319 38.5169 54.7565 38.9073 55.2039C38.9713 55.2777 38.9638 55.3887 38.8899 55.4525C38.8566 55.4815 38.8151 55.4956 38.7744 55.4956H38.7736ZM7.07173 55.3796C7.0302 55.3796 6.98867 55.3655 6.95544 55.3357C6.88235 55.2711 6.87488 55.16 6.93966 55.0871C7.33254 54.6413 7.74951 54.2063 8.1781 53.7953C8.2487 53.7281 8.36 53.7298 8.42811 53.8002C8.49539 53.8707 8.49373 53.9817 8.42313 54.0497C8.00118 54.454 7.59169 54.8816 7.20546 55.3199C7.17057 55.3597 7.12157 55.3796 7.07256 55.3796H7.07173ZM35.6713 52.5863C35.6339 52.5863 35.5957 52.5747 35.5641 52.5498C35.0998 52.1952 34.6139 51.8554 34.1213 51.5406C34.0391 51.4884 34.015 51.379 34.0682 51.2969C34.1205 51.2149 34.2301 51.1909 34.3124 51.2439C34.8132 51.5638 35.3066 51.9093 35.7792 52.2698C35.8565 52.3286 35.8714 52.4396 35.8125 52.5167C35.7776 52.5623 35.7252 52.5855 35.6721 52.5855L35.6713 52.5863ZM10.1898 52.4885C10.1367 52.4885 10.0835 52.4645 10.0486 52.4189C9.98966 52.341 10.0054 52.2308 10.0827 52.172C10.5578 51.814 11.0528 51.4718 11.5562 51.1561C11.6384 51.1039 11.7481 51.1287 11.8004 51.2116C11.8527 51.2936 11.8278 51.403 11.7447 51.4552C11.2497 51.7659 10.7621 52.1024 10.2962 52.4545C10.2646 52.4786 10.2272 52.4902 10.1898 52.4902V52.4885ZM32.0473 50.3556C32.0216 50.3556 31.995 50.3498 31.9701 50.3382C31.4435 50.083 30.9002 49.8477 30.3545 49.638C30.2632 49.6032 30.2183 49.5013 30.2532 49.4102C30.2881 49.319 30.3902 49.2743 30.4816 49.3091C31.0365 49.522 31.5896 49.7623 32.1246 50.0217C32.2126 50.0639 32.2491 50.17 32.206 50.257C32.1752 50.32 32.1121 50.3564 32.0465 50.3564L32.0473 50.3556ZM13.8304 50.286C13.7639 50.286 13.7008 50.2487 13.6709 50.1849C13.6294 50.0971 13.6668 49.9919 13.7548 49.9496C14.2922 49.6952 14.8471 49.4607 15.4044 49.2527C15.4958 49.2187 15.5979 49.2651 15.632 49.3563C15.666 49.4474 15.6195 49.5494 15.5282 49.5833C14.98 49.788 14.4342 50.0184 13.906 50.2686C13.8819 50.2802 13.8553 50.286 13.8304 50.286ZM28.0488 48.8964C28.0346 48.8964 28.0197 48.8947 28.0047 48.8906C27.4374 48.7464 26.8577 48.6254 26.2804 48.5302C26.184 48.5144 26.1193 48.4233 26.135 48.3271C26.1508 48.231 26.2422 48.1664 26.3385 48.1821C26.9249 48.2791 27.5155 48.4025 28.0919 48.5492C28.1866 48.5732 28.2439 48.6694 28.2199 48.7638C28.1999 48.8434 28.1277 48.8964 28.0488 48.8964ZM17.8414 48.8641C17.7617 48.8641 17.6894 48.8102 17.6695 48.7298C17.6462 48.6354 17.7044 48.5401 17.799 48.5169C18.1504 48.4307 18.5092 48.3528 18.8664 48.284C19.094 48.2401 19.3257 48.1995 19.555 48.1639C19.6513 48.149 19.7418 48.2144 19.7576 48.3106C19.7726 48.4067 19.707 48.497 19.6106 48.5127C19.3855 48.5484 19.1571 48.5882 18.9328 48.6312C18.5815 48.6984 18.2285 48.7754 17.8829 48.8599C17.8688 48.8633 17.8547 48.8649 17.8406 48.8649L17.8414 48.8641ZM23.8351 48.2733C23.8351 48.2733 23.8301 48.2733 23.8268 48.2733C23.517 48.2592 23.203 48.2526 22.8932 48.2526C22.6182 48.2526 22.34 48.2584 22.0651 48.2691C21.9687 48.2733 21.8856 48.197 21.8815 48.1001C21.8773 48.0031 21.9538 47.9211 22.0509 47.917C22.3308 47.9062 22.6141 47.9004 22.8932 47.9004C23.208 47.9004 23.5278 47.9078 23.8426 47.9219C23.9397 47.9261 24.0153 48.0089 24.0112 48.1059C24.007 48.2004 23.9289 48.2741 23.8351 48.2741V48.2733Z" fill="#E2FF6F"/>
<path d="M87.5688 74.1949C87.4666 74.2015 87.3653 74.2073 87.2639 74.2131C87.1668 74.2189 87.0829 74.1443 87.0779 74.0474C87.0721 73.9504 87.146 73.8676 87.2432 73.8618C87.2432 73.8618 87.244 73.8618 87.2448 73.8618C87.8229 73.8295 88.4077 73.7822 88.9841 73.7226C89.0813 73.7118 89.1685 73.7831 89.1785 73.88C89.1885 73.977 89.1179 74.064 89.0207 74.0739C88.5397 74.1236 88.0514 74.165 87.5696 74.1957L87.5688 74.1949ZM84.812 74.2703C84.8078 74.2703 84.8028 74.2703 84.7987 74.2703C84.2139 74.2645 83.6217 74.2446 83.0386 74.2106C82.9414 74.2048 82.8667 74.122 82.8725 74.0242C82.8783 73.9272 82.9622 73.8527 83.0594 73.8585C83.6375 73.8916 84.2239 73.9115 84.8028 73.9173C84.9 73.9181 84.9789 73.9977 84.9781 74.0954C84.9773 74.1882 84.9042 74.2637 84.8128 74.2695L84.812 74.2703ZM91.4452 73.7408C91.3563 73.7466 91.275 73.6844 91.26 73.5941C91.2434 73.498 91.3082 73.4069 91.4045 73.3903C91.9768 73.2933 92.5524 73.1806 93.1172 73.0572C93.2128 73.0365 93.3066 73.0961 93.3282 73.1914C93.349 73.2867 93.2892 73.3803 93.1936 73.401C92.6239 73.5262 92.0424 73.6389 91.4652 73.7375C91.4593 73.7383 91.4527 73.7391 91.4469 73.74L91.4452 73.7408ZM80.6166 73.9877C80.6058 73.9877 80.5941 73.9877 80.5834 73.9869C80.0028 73.914 79.4163 73.827 78.8416 73.7267C78.7452 73.7101 78.6813 73.619 78.6979 73.5229C78.7145 73.4267 78.8067 73.3629 78.9022 73.3795C79.472 73.4789 80.0526 73.5651 80.6274 73.6372C80.7246 73.6496 80.7927 73.7375 80.781 73.8344C80.7702 73.9198 80.7005 73.9827 80.6174 73.9885L80.6166 73.9877ZM95.5443 72.8019C95.4637 72.8069 95.3865 72.7564 95.3632 72.6752C95.3358 72.5815 95.3898 72.4838 95.4836 72.4564C96.0402 72.2957 96.5992 72.1183 97.1465 71.9311C97.2387 71.8996 97.3392 71.9485 97.3708 72.0404C97.4024 72.1324 97.3533 72.2327 97.2612 72.2642C96.708 72.4531 96.1431 72.6321 95.5817 72.7945C95.5692 72.7978 95.5559 72.8003 95.5434 72.8011L95.5443 72.8019ZM76.4776 73.2262C76.4602 73.227 76.4419 73.2262 76.4245 73.2212C75.8564 73.0829 75.2832 72.9279 74.7209 72.7622C74.6271 72.7348 74.5739 72.6362 74.6013 72.5434C74.6287 72.4498 74.7276 72.3968 74.8206 72.4241C75.3771 72.5882 75.9452 72.7415 76.5084 72.879C76.6031 72.9022 76.6612 72.9975 76.638 73.092C76.6189 73.169 76.5524 73.2212 76.4776 73.2262ZM99.5096 71.4032C99.4365 71.4082 99.3651 71.3668 99.3352 71.2955C99.297 71.206 99.3393 71.1024 99.4299 71.0643C99.964 70.8406 100.5 70.6011 101.022 70.3525C101.11 70.3103 101.216 70.3475 101.258 70.4354C101.3 70.5232 101.263 70.6285 101.175 70.6707C100.648 70.9218 100.107 71.1638 99.5677 71.39C99.5495 71.3974 99.5295 71.4024 99.5104 71.4032H99.5096ZM72.4517 71.9949C72.4276 71.9965 72.4027 71.9932 72.3786 71.9841C71.8304 71.7811 71.2789 71.5623 70.7398 71.3336C70.6501 71.2955 70.6086 71.1919 70.6468 71.1024C70.685 71.0129 70.7888 70.9707 70.8785 71.0096C71.4126 71.2367 71.9583 71.4529 72.5015 71.6543C72.5929 71.6883 72.6394 71.7894 72.6062 71.8813C72.5813 71.9485 72.519 71.9916 72.4517 71.9957V71.9949ZM103.285 69.5612C103.219 69.5653 103.153 69.533 103.119 69.4717C103.071 69.3872 103.102 69.2794 103.187 69.2314C103.69 68.9488 104.193 68.6505 104.683 68.3439C104.767 68.2925 104.875 68.3174 104.927 68.3994C104.978 68.4823 104.953 68.5909 104.871 68.6422C104.377 68.9513 103.869 69.2529 103.36 69.5388C103.336 69.5521 103.31 69.5595 103.286 69.5612H103.285ZM68.5943 70.3128C68.5636 70.3144 68.532 70.3086 68.503 70.2937C67.9813 70.0294 67.4589 69.7493 66.9497 69.4617C66.865 69.4137 66.8351 69.306 66.8833 69.2214C66.9315 69.1369 67.0394 69.1071 67.1242 69.1552C67.6275 69.441 68.145 69.7178 68.6624 69.9796C68.7497 70.0236 68.7845 70.1296 68.7405 70.2166C68.7115 70.2746 68.6541 70.3086 68.5943 70.3128ZM106.821 67.3007C106.762 67.3048 106.703 67.2791 106.666 67.2278C106.609 67.149 106.626 67.0388 106.705 66.9817C107.174 66.6428 107.64 66.2889 108.091 65.9285C108.168 65.868 108.279 65.8796 108.34 65.9558C108.4 66.0321 108.389 66.1431 108.312 66.2036C107.856 66.5673 107.385 66.9253 106.913 67.2667C106.885 67.2866 106.853 67.2982 106.821 67.2999V67.3007ZM64.9554 68.2039C64.9181 68.2064 64.8799 68.1973 64.8466 68.1749C64.3582 67.8534 63.8715 67.5161 63.3989 67.1722C63.32 67.1151 63.3025 67.0049 63.3607 66.9261C63.418 66.8474 63.5285 66.83 63.6074 66.888C64.075 67.2286 64.5576 67.5625 65.041 67.8807C65.1224 67.9346 65.1448 68.044 65.0908 68.1252C65.0593 68.1732 65.0078 68.2006 64.9546 68.2039H64.9554ZM110.077 64.6507C110.025 64.654 109.972 64.635 109.935 64.5936C109.869 64.5215 109.874 64.4104 109.945 64.3441C110.372 63.9547 110.795 63.5495 111.204 63.1393C111.273 63.0705 111.385 63.0697 111.454 63.1393C111.523 63.2081 111.524 63.3199 111.454 63.3887C111.042 63.8022 110.615 64.2116 110.184 64.6051C110.153 64.6333 110.115 64.6482 110.076 64.6507H110.077ZM61.5807 65.6981C61.5367 65.7006 61.4918 65.6873 61.4561 65.6575C61.0076 65.2838 60.5623 64.8935 60.1321 64.4991C60.0607 64.4328 60.0557 64.3218 60.1221 64.2497C60.1886 64.1784 60.2999 64.1734 60.3721 64.2397C60.7982 64.6308 61.2393 65.017 61.6837 65.3874C61.7584 65.4495 61.7684 65.5614 61.7061 65.636C61.6737 65.6749 61.6288 65.6956 61.5815 65.6989L61.5807 65.6981ZM113.011 61.6478C112.966 61.6503 112.921 61.6362 112.884 61.6047C112.81 61.5409 112.803 61.429 112.867 61.3561C113.247 60.9202 113.622 60.4695 113.98 60.0162C114.041 59.94 114.152 59.9267 114.229 59.9872C114.305 60.0477 114.319 60.1587 114.258 60.235C113.896 60.6924 113.517 61.1473 113.133 61.5873C113.101 61.6246 113.057 61.6445 113.011 61.6478ZM58.5141 62.8286C58.4634 62.8319 58.4119 62.8137 58.3745 62.7739C57.9717 62.3513 57.5738 61.9138 57.1917 61.4738C57.1278 61.4 57.1361 61.289 57.21 61.2252C57.2839 61.1614 57.3952 61.1697 57.4592 61.2434C57.838 61.6801 58.2317 62.1135 58.6304 62.5319C58.6976 62.6024 58.6951 62.7142 58.6245 62.7813C58.593 62.8112 58.5539 62.8269 58.5141 62.8294V62.8286ZM115.588 58.3316C115.549 58.3341 115.51 58.3241 115.476 58.3009C115.396 58.2454 115.376 58.136 115.431 58.0557C115.759 57.5792 116.08 57.0887 116.385 56.5981C116.437 56.5152 116.545 56.4896 116.628 56.5409C116.712 56.5923 116.737 56.7009 116.686 56.7837C116.378 57.2792 116.054 57.7748 115.722 58.2554C115.691 58.3018 115.64 58.3283 115.588 58.3316ZM55.7955 59.6317C55.7382 59.635 55.68 59.611 55.6427 59.5621C55.2913 59.0973 54.9458 58.6175 54.6169 58.1369C54.562 58.0565 54.5828 57.9471 54.6634 57.8916C54.7439 57.8369 54.8544 57.8576 54.9092 57.938C55.2357 58.4145 55.577 58.8893 55.9251 59.35C55.984 59.4279 55.9682 59.5381 55.8902 59.5969C55.8619 59.6185 55.8287 59.6301 55.7955 59.6325V59.6317ZM117.771 54.7436C117.74 54.7453 117.707 54.7395 117.678 54.7229C117.591 54.6773 117.559 54.5704 117.604 54.4843C117.877 53.973 118.14 53.4493 118.388 52.9273C118.429 52.8394 118.535 52.8013 118.623 52.8428C118.711 52.8842 118.749 52.9894 118.707 53.0773C118.458 53.6043 118.192 54.1338 117.917 54.6492C117.887 54.7055 117.831 54.7387 117.772 54.742L117.771 54.7436ZM53.4615 56.1473C53.3967 56.1515 53.3327 56.12 53.2978 56.0612C53.0021 55.5598 52.7139 55.0444 52.4431 54.529C52.3975 54.4428 52.4307 54.3359 52.5171 54.2912C52.6035 54.2456 52.7106 54.2788 52.7555 54.3649C53.0246 54.8754 53.3095 55.3858 53.6027 55.8822C53.6525 55.9659 53.6243 56.0744 53.5404 56.1233C53.5155 56.1374 53.4889 56.1457 53.4623 56.1473H53.4615ZM119.532 50.9294C119.507 50.9311 119.482 50.927 119.457 50.9179C119.366 50.8822 119.321 50.7803 119.357 50.6891C119.57 50.1505 119.771 49.5995 119.957 49.0518C119.988 48.9598 120.088 48.9101 120.181 48.9416C120.273 48.9731 120.323 49.0733 120.291 49.1653C120.104 49.718 119.9 50.274 119.686 50.8184C119.66 50.8839 119.599 50.9253 119.533 50.9303L119.532 50.9294ZM51.5411 52.4185C51.4697 52.4235 51.3991 52.3837 51.3683 52.3141C51.1316 51.7813 50.9049 51.2344 50.6939 50.6908C50.659 50.5997 50.7039 50.4977 50.7952 50.4629C50.8866 50.4273 50.9888 50.4729 51.0236 50.564C51.2329 51.1026 51.4572 51.6437 51.6914 52.1716C51.7313 52.2602 51.6914 52.3646 51.6017 52.4044C51.5818 52.4127 51.5619 52.4177 51.5419 52.4193L51.5411 52.4185ZM120.845 46.9379C120.827 46.9388 120.808 46.9379 120.789 46.9321C120.694 46.9073 120.639 46.8103 120.664 46.7167C120.812 46.1565 120.95 45.5864 121.071 45.0205C121.092 44.9252 121.186 44.8647 121.282 44.8854C121.377 44.9061 121.438 44.9998 121.417 45.0951C121.294 45.666 121.155 46.2419 121.005 46.8078C120.985 46.8832 120.919 46.9338 120.845 46.9388V46.9379ZM50.0618 48.4908C49.9821 48.4958 49.9065 48.4469 49.8815 48.3673C49.708 47.8105 49.5452 47.242 49.3981 46.6777C49.3732 46.5833 49.4305 46.4872 49.5244 46.4623C49.6191 46.4374 49.7154 46.4946 49.7403 46.5883C49.8865 47.1476 50.0477 47.7102 50.2196 48.2621C50.2487 48.3549 50.1963 48.4535 50.1033 48.4825C50.0892 48.4866 50.0759 48.4891 50.0618 48.49V48.4908ZM121.69 42.8238C121.678 42.8238 121.665 42.8238 121.653 42.8221C121.556 42.8081 121.489 42.7186 121.503 42.6224C121.586 42.0515 121.657 41.4698 121.713 40.8947C121.722 40.7978 121.809 40.7265 121.905 40.7365C122.002 40.7456 122.074 40.8318 122.064 40.9287C122.007 41.5096 121.936 42.0963 121.852 42.673C121.84 42.7567 121.771 42.818 121.689 42.8238H121.69ZM49.0418 44.4206C48.9538 44.4264 48.874 44.3659 48.8566 44.2772C48.7478 43.7055 48.6506 43.1221 48.5675 42.5437C48.5534 42.4476 48.6207 42.3581 48.7179 42.344C48.815 42.3308 48.9039 42.3971 48.918 42.494C48.9994 43.0666 49.0958 43.645 49.2038 44.2118C49.222 44.307 49.1589 44.3998 49.0634 44.4181C49.0559 44.4197 49.0484 44.4206 49.0418 44.4206ZM122.056 38.6442C122.05 38.6442 122.045 38.6442 122.039 38.6442C121.942 38.6417 121.865 38.5597 121.868 38.4627C121.885 37.8852 121.889 37.3001 121.878 36.7226C121.876 36.6248 121.954 36.5453 122.052 36.5428C122.15 36.5411 122.23 36.6182 122.232 36.716C122.243 37.2993 122.239 37.8901 122.222 38.4735C122.219 38.5655 122.147 38.6384 122.056 38.6442H122.056ZM48.4886 40.2608C48.3923 40.2675 48.3084 40.1946 48.3009 40.0984C48.2901 39.9609 48.281 39.8233 48.2718 39.6866C48.2428 39.2408 48.222 38.7892 48.2095 38.3434C48.207 38.2464 48.2826 38.1652 48.3815 38.1619C48.4787 38.1594 48.5601 38.2357 48.5634 38.3335C48.5758 38.7751 48.5966 39.2226 48.6257 39.6634C48.6348 39.7993 48.6439 39.9352 48.6547 40.0711C48.6622 40.168 48.5891 40.2526 48.4919 40.26H48.4903L48.4886 40.2608ZM121.939 34.4505C121.844 34.4563 121.76 34.385 121.752 34.2897C121.703 33.7155 121.64 33.133 121.564 32.5587L121.556 32.5032C121.543 32.4071 121.611 32.3184 121.708 32.3052C121.806 32.2919 121.895 32.3599 121.907 32.4568L121.914 32.5132C121.991 33.0924 122.055 33.6799 122.104 34.2599C122.112 34.3569 122.04 34.4422 121.943 34.4505C121.942 34.4505 121.94 34.4505 121.939 34.4505ZM48.4089 36.0663C48.4031 36.0663 48.3964 36.0663 48.3906 36.0663C48.2934 36.0622 48.217 35.981 48.2203 35.8832C48.2428 35.2998 48.2793 34.7099 48.33 34.129C48.3383 34.032 48.4238 33.9599 48.521 33.9682C48.6182 33.9765 48.6905 34.0619 48.6821 34.1588C48.6323 34.7339 48.5958 35.3189 48.5742 35.8956C48.5708 35.9868 48.4986 36.0589 48.4089 36.0647V36.0663ZM121.339 30.2402C121.252 30.246 121.172 30.1864 121.154 30.0994C121.041 29.5326 120.911 28.9617 120.771 28.4015C120.747 28.307 120.805 28.2109 120.899 28.1877C120.994 28.1637 121.09 28.2217 121.114 28.3162C121.256 28.8813 121.386 29.458 121.502 30.0306C121.521 30.1259 121.459 30.2187 121.363 30.2386C121.355 30.2402 121.347 30.2411 121.34 30.2419L121.339 30.2402ZM48.8101 31.89C48.7976 31.89 48.7843 31.89 48.7719 31.8884C48.6755 31.8735 48.6091 31.7831 48.624 31.687C48.7137 31.1095 48.8184 30.5261 48.9355 29.9527C48.9546 29.8574 49.0484 29.7961 49.144 29.8151C49.2395 29.8342 49.301 29.9278 49.2818 30.0231C49.1656 30.5907 49.0617 31.1683 48.9737 31.7409C48.9604 31.8237 48.8915 31.8851 48.8109 31.89H48.8101ZM120.277 26.1808C120.198 26.1857 120.123 26.1377 120.098 26.059C119.92 25.5088 119.727 24.9561 119.522 24.4158C119.488 24.3246 119.534 24.2227 119.625 24.1887C119.717 24.1548 119.819 24.2003 119.853 24.2915C120.059 24.8376 120.254 25.3952 120.434 25.9504C120.464 26.0432 120.414 26.1427 120.321 26.1725C120.306 26.1775 120.291 26.1799 120.277 26.1808ZM49.6913 27.78C49.6722 27.7809 49.6523 27.78 49.6332 27.7742C49.5393 27.7485 49.4837 27.6516 49.5094 27.5571C49.6648 26.9937 49.8359 26.4269 50.0178 25.8717C50.0485 25.7789 50.1482 25.7283 50.2404 25.759C50.3334 25.7897 50.3841 25.8891 50.3533 25.9811C50.1731 26.5313 50.0036 27.0931 49.85 27.6508C49.8292 27.7253 49.7644 27.7751 49.6913 27.78ZM118.758 22.2688C118.687 22.2738 118.617 22.2348 118.586 22.1661C118.346 21.6399 118.09 21.1129 117.825 20.6C117.781 20.5138 117.815 20.4069 117.902 20.3621C117.989 20.3174 118.095 20.3514 118.14 20.4384C118.408 20.9571 118.666 21.4891 118.908 22.0202C118.949 22.1089 118.909 22.2133 118.821 22.2539C118.801 22.263 118.781 22.268 118.76 22.2696L118.758 22.2688ZM51.0394 23.8001C51.0137 23.8018 50.9871 23.7976 50.9622 23.7877C50.8716 23.7512 50.8276 23.6485 50.8642 23.5582C51.0826 23.0171 51.3177 22.4735 51.5627 21.9423C51.6034 21.8537 51.7081 21.8147 51.7969 21.8562C51.8858 21.8968 51.9248 22.0012 51.8833 22.0898C51.6408 22.6152 51.4082 23.1538 51.1914 23.6899C51.1648 23.7545 51.1042 23.796 51.0386 23.8001H51.0394ZM116.8 18.559C116.736 18.5632 116.672 18.5325 116.637 18.4737C116.339 17.9798 116.025 17.4868 115.702 17.007C115.648 16.9258 115.67 16.8164 115.751 16.7626C115.832 16.7087 115.942 16.7303 115.996 16.8106C116.32 17.2945 116.638 17.7926 116.938 18.2914C116.989 18.3751 116.962 18.4828 116.878 18.5333C116.854 18.5483 116.826 18.5566 116.799 18.5582L116.8 18.559ZM52.8335 20.0017C52.8011 20.0042 52.7687 19.9967 52.738 19.981C52.6525 19.9346 52.6201 19.8277 52.6674 19.7415C52.9465 19.2286 53.2414 18.7156 53.5454 18.2168C53.596 18.1339 53.7048 18.1066 53.7879 18.1572C53.8718 18.2077 53.8984 18.3162 53.8477 18.3991C53.547 18.8938 53.2547 19.4018 52.9789 19.9097C52.949 19.9652 52.8933 19.9975 52.8352 20.0017H52.8335ZM114.43 15.0987C114.373 15.102 114.315 15.0788 114.279 15.0307C113.926 14.5733 113.556 14.1192 113.182 13.6792C113.119 13.6047 113.128 13.4936 113.202 13.4306C113.277 13.3677 113.388 13.3768 113.451 13.4505C113.829 13.8947 114.201 14.3537 114.559 14.8153C114.618 14.8924 114.604 15.0034 114.526 15.0622C114.497 15.0846 114.464 15.0962 114.43 15.0987ZM55.0479 16.4328C55.0089 16.4353 54.9699 16.4253 54.935 16.4013C54.8552 16.3458 54.8353 16.2356 54.8918 16.156C55.2273 15.6787 55.5787 15.2023 55.9367 14.7407C55.9965 14.6636 56.1078 14.6496 56.185 14.7092C56.2623 14.7689 56.2764 14.8799 56.2166 14.957C55.8619 15.4136 55.5139 15.8859 55.1817 16.359C55.1493 16.4046 55.1003 16.4303 55.0479 16.4336V16.4328ZM111.678 11.93C111.628 11.9333 111.578 11.9151 111.539 11.877C111.136 11.4627 110.718 11.0525 110.295 10.6581C110.224 10.5918 110.22 10.4799 110.287 10.4086C110.353 10.3374 110.465 10.3341 110.537 10.4004C110.963 10.7989 111.386 11.2132 111.793 11.6309C111.861 11.7005 111.859 11.8123 111.789 11.8803C111.758 11.9109 111.718 11.9275 111.678 11.93ZM57.6527 13.139C57.607 13.1423 57.5605 13.1274 57.524 13.0951C57.4509 13.0304 57.4442 12.9194 57.509 12.8465C57.8961 12.4098 58.2998 11.9764 58.7076 11.5588C58.7757 11.4892 58.8878 11.4875 58.9576 11.5555C59.0274 11.6234 59.029 11.7353 58.9609 11.8049C58.5573 12.2184 58.1577 12.6476 57.774 13.0801C57.7416 13.1166 57.6976 13.1365 57.6527 13.139ZM108.582 9.09194C108.538 9.09443 108.494 9.082 108.458 9.05217C108.01 8.68592 107.547 8.32546 107.082 7.98075C107.004 7.92275 106.988 7.81254 107.046 7.73382C107.104 7.65593 107.214 7.63936 107.293 7.69736C107.763 8.04539 108.229 8.40915 108.682 8.77872C108.758 8.84004 108.768 8.95191 108.707 9.02648C108.675 9.06543 108.629 9.0878 108.582 9.09029V9.09194ZM60.6138 10.1617C60.5615 10.165 60.5084 10.1451 60.471 10.1037C60.4054 10.0316 60.412 9.91975 60.4843 9.85428C60.9187 9.46483 61.368 9.08034 61.8207 8.7116C61.8963 8.65029 62.0076 8.66106 62.0691 8.73646C62.1305 8.81187 62.1197 8.9229 62.0442 8.98422C61.5965 9.34882 61.1513 9.72999 60.721 10.1161C60.6903 10.1435 60.6529 10.1584 60.6147 10.1609L60.6138 10.1617ZM105.182 6.62014C105.145 6.62263 105.108 6.61351 105.075 6.59197C104.588 6.27875 104.087 5.97298 103.586 5.68296C103.502 5.63407 103.473 5.52635 103.522 5.44183C103.571 5.35731 103.679 5.32914 103.764 5.37803C104.27 5.67053 104.776 5.97961 105.267 6.29615C105.35 6.34918 105.373 6.45773 105.32 6.53977C105.288 6.58865 105.237 6.61683 105.183 6.62014H105.182ZM63.8939 7.53992C63.8349 7.54406 63.7751 7.51755 63.7386 7.46617C63.6821 7.38662 63.7004 7.27642 63.7801 7.22007C64.2561 6.88282 64.7461 6.5522 65.237 6.23732C65.3192 6.18428 65.4289 6.20831 65.4812 6.29035C65.5335 6.37238 65.5103 6.48176 65.4281 6.53397C64.9413 6.84553 64.4562 7.17284 63.9853 7.50678C63.9579 7.52666 63.9263 7.53661 63.8948 7.53909L63.8939 7.53992ZM101.522 4.54857C101.492 4.55023 101.462 4.54525 101.432 4.53034C100.913 4.27429 100.38 4.02653 99.8485 3.79534C99.7588 3.7564 99.7181 3.65282 99.7571 3.56333C99.7962 3.47384 99.9 3.43323 99.9897 3.47218C100.526 3.70585 101.064 3.95527 101.589 4.2138C101.676 4.25689 101.712 4.36296 101.668 4.44996C101.639 4.50879 101.582 4.5436 101.521 4.54774L101.522 4.54857ZM67.4498 5.31091C67.3833 5.31505 67.3177 5.28191 67.2836 5.21976C67.2363 5.13441 67.2679 5.02752 67.3534 4.98029C67.8659 4.69855 68.3917 4.42593 68.9166 4.16906C69.0047 4.12597 69.1101 4.16243 69.1533 4.24943C69.1965 4.33727 69.16 4.4425 69.0728 4.48559C68.5528 4.73998 68.032 5.01012 67.5245 5.28854C67.5013 5.30179 67.4755 5.30842 67.4506 5.31008L67.4498 5.31091ZM97.6482 2.9054C97.625 2.90705 97.6009 2.90374 97.5768 2.89545C97.0311 2.6999 96.4729 2.51511 95.9189 2.34607C95.8259 2.3179 95.7727 2.21929 95.8018 2.12566C95.83 2.03285 95.9289 1.97982 96.0227 2.00882C96.5825 2.17952 97.1457 2.36596 97.6972 2.564C97.7894 2.59715 97.8368 2.69824 97.8035 2.78939C97.7786 2.85734 97.7163 2.90125 97.6482 2.9054ZM71.244 3.50035C71.1701 3.50532 71.0986 3.46306 71.0687 3.39097C71.0313 3.30065 71.0754 3.1979 71.1651 3.16061C71.7058 2.9402 72.2598 2.7289 72.8105 2.53417C72.9027 2.50185 73.0032 2.54991 73.0364 2.64106C73.0688 2.73304 73.0207 2.83331 72.9293 2.86645C72.3836 3.05952 71.8345 3.26834 71.2996 3.48709C71.2814 3.49455 71.2631 3.4987 71.244 3.49952V3.50035ZM93.6098 1.71466C93.5932 1.71548 93.5757 1.71466 93.5583 1.71051C92.9926 1.57876 92.417 1.45861 91.8464 1.3542C91.7501 1.3368 91.6869 1.24482 91.7044 1.1487C91.7218 1.05258 91.814 0.989605 91.9104 1.00701C92.4868 1.11224 93.0682 1.23322 93.6389 1.36663C93.7335 1.389 93.7934 1.48347 93.7709 1.57876C93.7527 1.65582 93.6862 1.70968 93.6106 1.71466H93.6098ZM75.2201 2.13643C75.1387 2.1414 75.0615 2.09003 75.039 2.00799C75.0125 1.91436 75.0673 1.81658 75.1611 1.79089C75.7235 1.63345 76.2974 1.48678 76.868 1.35586C76.9636 1.33432 77.0582 1.39315 77.0798 1.48844C77.1014 1.58373 77.0425 1.6782 76.9469 1.69974C76.3821 1.82901 75.8132 1.97402 75.2567 2.13063C75.2442 2.13394 75.2326 2.13643 75.2201 2.13726V2.13643ZM89.4626 0.995406C89.4518 0.995406 89.4418 0.995406 89.431 0.995406C88.8562 0.929115 88.2715 0.876912 87.6934 0.837966C87.5962 0.831337 87.5223 0.747645 87.5289 0.649867C87.5355 0.552089 87.6194 0.479169 87.7175 0.485798C88.3014 0.524744 88.8911 0.577776 89.4717 0.644895C89.5689 0.655667 89.6386 0.743502 89.627 0.840452C89.6171 0.926629 89.5465 0.991262 89.4634 0.996234L89.4626 0.995406ZM79.3275 1.23405C79.2378 1.23985 79.1564 1.17688 79.1414 1.08655C79.1256 0.990434 79.1912 0.900113 79.2876 0.884369C79.6473 0.826365 80.0136 0.772504 80.3757 0.725272C80.5941 0.69627 80.8151 0.669754 81.0327 0.644895C81.1291 0.634123 81.2171 0.703728 81.2287 0.799849C81.2395 0.896799 81.1698 0.983805 81.0734 0.995406C80.8574 1.02026 80.639 1.04678 80.423 1.07495C80.0642 1.12219 79.7012 1.17522 79.3449 1.23239C79.3391 1.23322 79.3333 1.23405 79.3283 1.23405H79.3275ZM85.2647 0.755932C85.2647 0.755932 85.2572 0.755932 85.253 0.755932C84.6749 0.755932 84.0877 0.770018 83.5088 0.797363C83.4116 0.802335 83.3285 0.72693 83.3235 0.62998C83.3185 0.533859 83.3925 0.451825 83.4888 0.446024C83.4897 0.446024 83.4905 0.446024 83.4921 0.446024C84.0769 0.420337 84.6691 0.40625 85.253 0.40625C85.351 0.40625 85.43 0.48497 85.43 0.582748C85.43 0.676383 85.3569 0.752617 85.2647 0.758418V0.755932Z" fill="#E2FF6F"/>
<path d="M91.082 22.3317V82.9989H90.9226H86.0721H81.7144H81.2343H76.3042H72.0254H71.5527H66.5363H62.3604H61.8894H57.0535H52.6871H52.202H47.0004H42.9989H42.5196H37.1611H33.3348H33.0308V5.4707H74.1808L91.082 22.3317Z" fill="#98BA13"/>
<path d="M91.0707 22.3317H74.1694V5.4707L91.0707 22.3317Z" fill="#6C8020"/>
<rect x="40.3042" y="34.3789" width="42.3125" height="5.67676" fill="#42500C"/>
<rect x="40.3042" y="43.0547" width="42.3125" height="5.67676" fill="#42500C"/>
<rect x="40.3042" y="51.7324" width="42.3125" height="5.67676" fill="#42500C"/>
<path d="M15.1085 85.3285C16.0687 86.2863 17.6251 86.2863 18.5842 85.3285L33.5069 70.4413L35.4033 68.5494C34.0224 67.6403 32.8389 66.4586 31.9276 65.082L15.1085 81.8611C14.1484 82.8189 14.1484 84.3706 15.1085 85.3285Z" fill="#6C8020"/>
<path d="M27.2951 57.7556C27.321 57.128 27.3878 56.5103 27.4905 55.9046C28.0748 52.463 29.8505 49.4263 32.381 47.2311C34.9843 44.9712 38.3852 43.6035 42.1062 43.6035C50.2929 43.6035 56.9302 50.225 56.9302 58.3932C56.9302 58.9582 56.8983 59.5162 56.8365 60.0652C56.642 61.786 56.1525 63.4173 55.4177 64.9073C54.3628 67.0488 52.8044 68.8989 50.8961 70.3023C50.586 70.5311 50.2659 70.747 49.9379 70.9519C47.6647 72.3653 44.9806 73.1819 42.1062 73.1819C38.8997 73.1819 35.9315 72.1664 33.5067 70.4406C32.1646 69.4857 30.9891 68.313 30.031 66.9742C29.0688 65.6284 28.327 64.1155 27.8584 62.4873C27.4845 61.1872 27.2841 59.8146 27.2841 58.3952C27.2841 58.1813 27.2891 57.9685 27.2981 57.7576L27.2951 57.7556ZM42.1052 70.551C44.7722 70.551 47.2379 69.6966 49.245 68.2474C51.1922 66.8409 52.7067 64.8735 53.5502 62.5817C54.0308 61.2757 54.292 59.8653 54.292 58.3932C54.292 57.8392 54.2551 57.2941 54.1823 56.76C53.5761 52.2511 50.4923 48.5261 46.3426 46.9904C45.0225 46.502 43.5947 46.2354 42.1042 46.2354C41.5648 46.2354 41.0343 46.2702 40.5139 46.3379C38.0432 46.6581 35.8048 47.7175 34.0281 49.287C31.5056 51.5141 29.9163 54.7686 29.9163 58.3932C29.9163 58.5782 29.9203 58.7622 29.9293 58.9452C29.9692 59.8375 30.1058 60.7048 30.3281 61.5373C30.6691 62.8135 31.2135 64.0061 31.9234 65.0803C32.8347 66.458 34.0181 67.6396 35.3991 68.5478C35.738 68.7706 36.088 68.9765 36.4499 69.1654C37.2216 69.5693 38.0422 69.8925 38.9007 70.1253C39.9216 70.4018 40.9945 70.55 42.1032 70.55L42.1052 70.551Z" fill="#6C8020"/>
</g>
<defs>
<clipPath id="clip0_1300_9208">
<rect width="125" height="101" fill="white" transform="translate(0.40625 0.40625)"/>
</clipPath>
</defs>
</svg>
