<svg width="400" height="124" viewBox="0 0 400 124" fill="none" xmlns="http://www.w3.org/2000/svg">
<g clip-path="url(#clip0_1258_22966)">
<rect x="0.552002" y="66.1492" width="132.867" height="57.4644" fill="url(#paint0_linear_1258_22966)" fill-opacity="0.72"/>
<g style="mix-blend-mode:soft-light">
<path d="M91.852 61.1687C101.752 61.1687 107.402 68.8687 107.402 79.6687C107.402 90.4687 101.752 98.1687 91.852 98.1687C82.002 98.1687 76.552 90.4687 76.552 79.6687C76.552 68.8687 82.002 61.1687 91.852 61.1687ZM100.252 79.6687C100.252 72.0187 97.152 67.3187 91.852 67.3187C86.602 67.3187 83.652 72.0187 83.652 79.6687C83.652 87.3687 86.602 92.0187 91.852 92.0187C97.152 92.0187 100.252 87.3687 100.252 79.6687Z" fill="white"/>
<path d="M129.265 84.3187L121.065 91.1187H136.115V97.6687H111.365V91.3187L124.765 79.8687C127.465 77.4687 129.015 75.7687 129.065 73.1687C129.165 69.6187 126.915 67.6687 123.465 67.6687C120.115 67.6687 117.715 70.0187 117.565 73.5187H110.815C110.965 65.5687 116.715 61.1687 123.515 61.1687C130.815 61.1687 136.415 65.1687 136.415 72.5687C136.415 77.8187 133.365 81.0187 129.265 84.3187Z" fill="white"/>
</g>
</g>
<g clip-path="url(#clip1_1258_22966)">
<rect x="133.614" y="27.8313" width="133" height="96" fill="url(#paint1_linear_1258_22966)" fill-opacity="0.72"/>
<g style="mix-blend-mode:soft-light">
<path d="M234.851 23.1692C244.751 23.1692 250.401 30.8692 250.401 41.6692C250.401 52.4692 244.751 60.1692 234.851 60.1692C225.001 60.1692 219.551 52.4692 219.551 41.6692C219.551 30.8692 225.001 23.1692 234.851 23.1692ZM243.251 41.6692C243.251 34.0192 240.151 29.3192 234.851 29.3192C229.601 29.3192 226.651 34.0192 226.651 41.6692C226.651 49.3692 229.601 54.0192 234.851 54.0192C240.151 54.0192 243.251 49.3692 243.251 41.6692Z" fill="white"/>
<path d="M267.968 59.6692H261.018V30.7692L253.168 34.6192V27.7192L261.018 23.6692H267.968V59.6692Z" fill="white"/>
</g>
</g>
<g clip-path="url(#clip2_1258_22966)">
<rect x="267.133" y="66.1492" width="132.867" height="57.4644" fill="url(#paint2_linear_1258_22966)" fill-opacity="0.72"/>
<g style="mix-blend-mode:soft-light">
<path d="M359.851 60.6687C369.751 60.6687 375.401 68.3687 375.401 79.1687C375.401 89.9687 369.751 97.6687 359.851 97.6687C350.001 97.6687 344.551 89.9687 344.551 79.1687C344.551 68.3687 350.001 60.6687 359.851 60.6687ZM368.251 79.1687C368.251 71.5187 365.151 66.8187 359.851 66.8187C354.601 66.8187 351.651 71.5187 351.651 79.1687C351.651 86.8687 354.601 91.5187 359.851 91.5187C365.151 91.5187 368.251 86.8687 368.251 79.1687Z" fill="white"/>
<path d="M399.414 78.6687C403.014 79.8687 405.214 83.0187 405.214 86.9687C405.214 93.6687 399.714 97.6687 392.114 97.6687C383.864 97.6687 378.814 92.7187 378.814 85.4687H385.664C385.664 89.6687 388.364 91.6687 391.814 91.6687C395.514 91.6687 397.714 89.6687 397.714 86.6687C397.714 83.6687 395.814 81.6687 391.714 81.6687H388.714V76.1687H391.464C395.164 76.1687 397.214 74.3687 397.214 71.3687C397.214 68.2687 394.964 66.6187 391.764 66.6187C388.314 66.6187 385.564 68.5687 385.664 72.8187H379.064C379.064 65.5687 383.714 60.6687 391.964 60.6687C399.314 60.6687 404.464 64.4687 404.464 70.9187C404.464 74.3187 402.564 77.2187 399.414 78.6687Z" fill="white"/>
</g>
</g>
<path d="M274.843 40.2787C274.843 20.124 274.742 20.2237 295.134 20.2237C274.742 20.2237 274.843 20.3234 274.843 0.168701C274.843 20.3234 274.944 20.2237 254.552 20.2237C274.944 20.2237 274.843 20.124 274.843 40.2787Z" fill="white"/>
<defs>
<linearGradient id="paint0_linear_1258_22966" x1="70.0325" y1="65.8313" x2="70.0325" y2="123.831" gradientUnits="userSpaceOnUse">
<stop stop-color="#D2F739"/>
<stop offset="1" stop-color="#184C1D"/>
</linearGradient>
<linearGradient id="paint1_linear_1258_22966" x1="200.614" y1="27.8313" x2="200.614" y2="123.831" gradientUnits="userSpaceOnUse">
<stop stop-color="#D2F739"/>
<stop offset="1" stop-color="#184C1D"/>
</linearGradient>
<linearGradient id="paint2_linear_1258_22966" x1="336.614" y1="65.8313" x2="336.614" y2="123.831" gradientUnits="userSpaceOnUse">
<stop stop-color="#D2F739"/>
<stop offset="1" stop-color="#184C1D"/>
</linearGradient>
<clipPath id="clip0_1258_22966">
<rect width="132.867" height="57.4644" fill="white" transform="translate(0.552002 66.1492)"/>
</clipPath>
<clipPath id="clip1_1258_22966">
<rect width="133" height="96" fill="white" transform="translate(133.614 27.8313)"/>
</clipPath>
<clipPath id="clip2_1258_22966">
<rect width="132.867" height="57.4644" fill="white" transform="translate(267.133 66.1492)"/>
</clipPath>
</defs>
</svg>
