<svg width="57" height="56" viewBox="0 0 57 56" fill="none" xmlns="http://www.w3.org/2000/svg">
<circle cx="28.5" cy="28" r="28" fill="url(#paint0_linear_5032_66050)"/>
<path d="M17.9161 16.9828L19.2132 17.8715L14.5246 18.5621L13.2275 17.6732L17.9161 16.9828Z" fill="#0E7A03"/>
<path d="M17.9049 16.9868L19.2018 17.8757L14.5578 19.3338L13.2607 18.4449L17.9049 16.9868Z" fill="#0E7A03"/>
<mask id="mask0_5032_66050" style="mask-type:luminance" maskUnits="userSpaceOnUse" x="17" y="15" width="4" height="3">
<path d="M19.0885 15.3201L20.3856 16.209C20.4161 16.9592 19.9078 17.6574 19.2141 17.8716L17.917 16.9826C18.6107 16.7685 19.119 16.0703 19.0885 15.3201Z" fill="white"/>
</mask>
<g mask="url(#mask0_5032_66050)">
<path d="M19.0884 15.3201L20.3855 16.209C20.3863 16.2322 20.3868 16.2554 20.3868 16.2786L19.0897 15.3897C19.0897 15.3665 19.0892 15.3433 19.0884 15.3201Z" fill="#0E7A03"/>
<path d="M19.0903 15.3899L20.3874 16.2788C20.3872 16.373 20.3784 16.4663 20.362 16.5575L19.0649 15.6686C19.0813 15.5774 19.0901 15.4841 19.0903 15.3899Z" fill="#0E7A03"/>
<path d="M19.065 15.6686L20.3621 16.5575C20.3513 16.6166 20.3375 16.6751 20.3205 16.7325L19.0234 15.8436C19.0404 15.7862 19.0542 15.7277 19.065 15.6686Z" fill="#0E7A03"/>
<path d="M19.0236 15.8436L20.3207 16.7325C20.3063 16.7811 20.2897 16.8291 20.2712 16.8762L18.9741 15.9873C18.9928 15.9402 19.0094 15.8924 19.0236 15.8436Z" fill="#0E7A03"/>
<path d="M18.9739 15.9869L20.271 16.8759C20.254 16.9186 20.2353 16.9606 20.2151 17.0019L18.918 16.1129C18.9382 16.0717 18.9569 16.0297 18.9739 15.9869Z" fill="#0E7A03"/>
<path d="M18.9166 16.113L20.2137 17.0019C20.1943 17.0413 20.1735 17.08 20.1511 17.1176L18.854 16.2287C18.8764 16.1911 18.8972 16.1524 18.9166 16.113Z" fill="#0E7A03"/>
<path d="M18.8549 16.2288L20.152 17.1177C20.13 17.1547 20.1068 17.1908 20.0823 17.226L18.7852 16.3371C18.8097 16.3019 18.8329 16.2657 18.8549 16.2288Z" fill="#0E7A03"/>
<path d="M18.7852 16.3373L20.0823 17.2262C20.0575 17.2617 20.0317 17.2961 20.0046 17.3296L18.7075 16.4407C18.7346 16.4072 18.7607 16.3728 18.7852 16.3373Z" fill="#0E7A03"/>
<path d="M18.7078 16.4404L20.0049 17.3293C19.9768 17.364 19.9473 17.3975 19.9167 17.43L18.6196 16.5411C18.6504 16.5086 18.6799 16.475 18.7078 16.4404Z" fill="#0E7A03"/>
<path d="M18.6183 16.5411L19.9154 17.4301C19.8827 17.4645 19.8487 17.4976 19.8132 17.5292L18.5161 16.6403C18.5514 16.6087 18.5856 16.5755 18.6183 16.5411Z" fill="#0E7A03"/>
<path d="M18.5175 16.6404L19.8146 17.5293C19.7754 17.5643 19.7348 17.5975 19.6926 17.6284L18.3955 16.7395C18.4377 16.7083 18.4783 16.6752 18.5175 16.6404Z" fill="#0E7A03"/>
<path d="M18.3944 16.7397L19.6915 17.6287C19.6393 17.6674 19.5846 17.7028 19.5281 17.7351L18.231 16.8462C18.2875 16.8139 18.342 16.7785 18.3944 16.7397Z" fill="#0E7A03"/>
<path d="M18.2317 16.8461L19.5288 17.735C19.4296 17.7915 19.3242 17.8378 19.2141 17.8717L17.917 16.9828C18.0269 16.9489 18.1323 16.9026 18.2317 16.8461Z" fill="#0E7A03"/>
</g>
<path d="M17.9176 16.9827L19.2145 17.8716L19.2007 17.8759L17.9038 16.987L17.9176 16.9827Z" fill="#0E7A03"/>
<path d="M17.916 16.9827L17.9038 16.9865C17.9076 16.9853 17.9114 16.984 17.9154 16.9827H17.9161H17.916Z" fill="#0E7A03"/>
<path d="M17.9176 16.9827L19.2145 17.8716L19.2007 17.8759L17.9038 16.987L17.9176 16.9827Z" fill="#0E7A03"/>
<path d="M18.8989 10.7355L20.196 11.6242L20.383 16.2091L19.0859 15.3202L18.8989 10.7355Z" fill="#0E7A03"/>
<path d="M19.0875 15.32C19.1181 16.0702 18.6098 16.7684 17.9161 16.9826L13.2275 17.6732L18.9006 10.7352L19.0875 15.32Z" fill="#56CD42"/>
<mask id="mask1_5032_66050" style="mask-type:luminance" maskUnits="userSpaceOnUse" x="17" y="22" width="2" height="3">
<path d="M17.3267 22.2577L18.6238 23.1466C18.6455 23.6848 18.6674 24.2232 18.6896 24.7614L17.3925 23.8725C17.3703 23.3343 17.3484 22.7959 17.3267 22.2577Z" fill="white"/>
</mask>
<g mask="url(#mask1_5032_66050)">
<path d="M17.3271 22.2579L18.6243 23.1468C18.646 23.6851 18.6679 24.2235 18.6901 24.7617L17.393 23.8728C17.3708 23.3346 17.3489 22.7961 17.3271 22.2579Z" fill="#0E7A03"/>
</g>
<mask id="mask2_5032_66050" style="mask-type:luminance" maskUnits="userSpaceOnUse" x="21" y="17" width="3" height="3">
<path d="M21.7388 17.3861L23.0359 18.275C23.058 18.8132 23.08 19.3516 23.1017 19.8899L21.8046 19.0009C21.7829 18.4627 21.7609 17.9243 21.7388 17.3861Z" fill="white"/>
</mask>
<g mask="url(#mask2_5032_66050)">
<path d="M21.7402 17.3861L23.0373 18.275C23.0595 18.8132 23.0814 19.3516 23.1032 19.8899L21.8061 19.0009C21.7843 18.4627 21.7624 17.9243 21.7402 17.3861Z" fill="#0E7A03"/>
</g>
<mask id="mask3_5032_66050" style="mask-type:luminance" maskUnits="userSpaceOnUse" x="17" y="26" width="2" height="3">
<path d="M18.8166 27.3588C18.8388 27.897 18.8603 28.4358 18.8825 28.974L17.5854 28.0851C17.5632 27.5469 17.5417 27.0081 17.5195 26.4698C17.9087 26.7365 18.4275 27.0921 18.8166 27.3588Z" fill="white"/>
</mask>
<g mask="url(#mask3_5032_66050)">
<path d="M17.5205 26.4703L18.8176 27.3592C18.8398 27.8975 18.8613 28.4363 18.8834 28.9745L17.5863 28.0856C17.5642 27.5474 17.5427 27.0085 17.5205 26.4703Z" fill="#0E7A03"/>
</g>
<mask id="mask4_5032_66050" style="mask-type:luminance" maskUnits="userSpaceOnUse" x="21" y="15" width="14" height="4">
<path d="M33.1628 15.7491L34.4599 16.6381C30.652 17.1834 26.8442 17.7289 23.0359 18.2746L21.7388 17.3857C25.5471 16.84 29.3549 16.2944 33.1628 15.7491Z" fill="white"/>
</mask>
<g mask="url(#mask4_5032_66050)">
<path d="M33.1642 15.7491L34.4613 16.6381C30.6535 17.1834 26.8456 17.7289 23.0373 18.2746L21.7402 17.3857C25.5485 16.84 29.3564 16.2944 33.1642 15.7491Z" fill="#0E7A03"/>
</g>
<mask id="mask5_5032_66050" style="mask-type:luminance" maskUnits="userSpaceOnUse" x="21" y="17" width="14" height="3">
<path d="M33.2299 17.3649L34.527 18.2538C30.719 18.7993 26.9111 19.3446 23.1033 19.8899L21.8062 19.001C25.6142 18.4555 29.4221 17.9102 33.2299 17.3649Z" fill="white"/>
</mask>
<g mask="url(#mask5_5032_66050)">
<path d="M33.2285 17.365L34.5256 18.2539C30.7175 18.7994 26.9096 19.3447 23.1018 19.89L21.8047 19.0011C25.6128 18.4556 29.4206 17.9103 33.2285 17.365Z" fill="#2B6D62"/>
</g>
<mask id="mask6_5032_66050" style="mask-type:luminance" maskUnits="userSpaceOnUse" x="33" y="15" width="2" height="4">
<path d="M33.1646 15.7504L34.4617 16.6393C34.4838 17.1777 34.5055 17.7159 34.5275 18.2543L33.2304 17.3654C33.2084 16.827 33.1867 16.2888 33.1646 15.7504Z" fill="white"/>
</mask>
<g mask="url(#mask6_5032_66050)">
<path d="M33.1636 15.7504L34.4607 16.6393C34.4828 17.1777 34.5046 17.7159 34.5265 18.2543L33.2294 17.3654C33.2075 16.827 33.1857 16.2888 33.1636 15.7504Z" fill="#3E9F90"/>
</g>
<mask id="mask7_5032_66050" style="mask-type:luminance" maskUnits="userSpaceOnUse" x="24" y="34" width="2" height="2">
<path d="M25.6951 35.4228C25.2627 35.1265 24.8303 34.8302 24.3979 34.5339C24.4149 34.5113 24.4399 34.4988 24.4752 34.4982L25.7723 35.3871C25.7372 35.3875 25.712 35.4 25.6951 35.4228Z" fill="white"/>
</mask>
<g mask="url(#mask7_5032_66050)">
<path d="M24.4755 34.4985L25.7726 35.3874C25.7524 35.3877 25.7354 35.392 25.7214 35.3999L24.4243 34.511C24.4383 34.503 24.4553 34.4988 24.4755 34.4985Z" fill="#0E7A03"/>
<path d="M24.4261 34.5109L25.7232 35.3998C25.7205 35.4015 25.7177 35.4032 25.7151 35.4052L24.418 34.5162C24.4206 34.5143 24.4233 34.5126 24.4261 34.5109Z" fill="#0E7A03"/>
<path d="M24.4172 34.5162L25.7143 35.4051C25.7121 35.4067 25.7102 35.4084 25.7082 35.4101L24.4111 34.5212C24.4131 34.5195 24.415 34.5177 24.4172 34.5162Z" fill="#0E7A03"/>
<path d="M24.4102 34.5211L25.7073 35.41C25.7056 35.4115 25.7039 35.4133 25.7024 35.415L24.4053 34.5261C24.407 34.5243 24.4085 34.5226 24.4102 34.5211Z" fill="#0E7A03"/>
<path d="M24.4059 34.5258L25.703 35.4147C25.7015 35.4164 25.6998 35.4181 25.6985 35.4198L24.4014 34.5309C24.4029 34.5292 24.4044 34.5273 24.4059 34.5258Z" fill="#0E7A03"/>
<path d="M24.4009 34.5314L25.6981 35.4203C25.6981 35.4203 25.6963 35.4224 25.6957 35.4235C25.6948 35.4248 25.694 35.4259 25.6931 35.4272L24.396 34.5383C24.3969 34.537 24.3977 34.5359 24.3986 34.5346C24.3994 34.5335 24.4001 34.5324 24.4009 34.5314Z" fill="#0E7A03"/>
</g>
<mask id="mask8_5032_66050" style="mask-type:luminance" maskUnits="userSpaceOnUse" x="24" y="34" width="2" height="2">
<path d="M25.6945 35.4236C25.6654 35.4617 25.6697 35.5137 25.7035 35.5402C25.2711 35.2439 24.8388 34.9476 24.4064 34.6513C24.3726 34.6248 24.3681 34.5728 24.3971 34.5349C24.3971 34.5349 24.3971 34.5349 24.3971 34.5347C24.3971 34.5347 24.3974 34.5345 24.3976 34.5343C24.8299 34.8306 25.2623 35.1269 25.6947 35.4232C25.6947 35.4232 25.6945 35.4234 25.6942 35.4236H25.6945Z" fill="white"/>
</mask>
<g mask="url(#mask8_5032_66050)">
<path d="M24.3961 34.5316L25.6932 35.4205C25.6932 35.4205 25.6914 35.4227 25.6908 35.4238C25.6899 35.425 25.6891 35.4261 25.6882 35.4274L24.3911 34.5385C24.392 34.5372 24.3928 34.5361 24.3937 34.5348C24.3946 34.5338 24.3952 34.5327 24.3961 34.5316Z" fill="#0E7A03"/>
<path d="M24.393 34.5383L25.6901 35.4272C25.6888 35.4292 25.6876 35.4311 25.6863 35.4333L24.3892 34.5444C24.3905 34.5424 24.3915 34.5403 24.393 34.5383Z" fill="#0E7A03"/>
<path d="M24.3892 34.5442L25.6863 35.4331C25.685 35.4353 25.6839 35.4372 25.6828 35.4393L24.3857 34.5504C24.3868 34.5483 24.3879 34.5461 24.3892 34.5442Z" fill="#0E7A03"/>
<path d="M24.3858 34.5504L25.6829 35.4393C25.6819 35.4417 25.6808 35.4438 25.6799 35.4462L24.3828 34.5573C24.3837 34.5549 24.3847 34.5528 24.3858 34.5504Z" fill="#0E7A03"/>
<path d="M24.3815 34.5573L25.6786 35.4462C25.6775 35.4487 25.6767 35.4513 25.676 35.4539L24.3789 34.565C24.3798 34.5624 24.3806 34.5598 24.3815 34.5573Z" fill="#0E7A03"/>
<path d="M24.3798 34.5651L25.6769 35.454C25.6761 35.4572 25.6752 35.4604 25.6745 35.4637L24.3774 34.5747C24.3781 34.5715 24.3787 34.5683 24.3798 34.5651Z" fill="#0E7A03"/>
<path d="M24.3773 34.5751L25.6744 35.464C25.6735 35.4689 25.6731 35.4741 25.6731 35.479L24.376 34.5901C24.376 34.5852 24.3764 34.58 24.3773 34.5751Z" fill="#0E7A03"/>
<path d="M24.376 34.5901L25.6731 35.479C25.6731 35.487 25.6742 35.4947 25.6763 35.5022L24.3792 34.6133C24.3771 34.6058 24.376 34.598 24.376 34.5901Z" fill="#0E7A03"/>
<path d="M24.3789 34.6134L25.676 35.5023C25.6773 35.507 25.6792 35.5118 25.6814 35.5161L24.3843 34.6272C24.3821 34.6229 24.3802 34.6181 24.3789 34.6134Z" fill="#0E7A03"/>
<path d="M24.3843 34.6272L25.6814 35.5161C25.6827 35.5189 25.6844 35.5215 25.6861 35.5241L24.389 34.6352C24.3873 34.6326 24.3858 34.63 24.3843 34.6272Z" fill="#0E7A03"/>
<path d="M24.3892 34.6351L25.6863 35.524C25.6878 35.5262 25.6893 35.5281 25.691 35.5303L24.3939 34.6414C24.3922 34.6394 24.3907 34.6373 24.3892 34.6351Z" fill="#0E7A03"/>
<path d="M24.3921 34.6412L25.6892 35.5301C25.6907 35.5319 25.6922 35.5336 25.6939 35.5353L24.3968 34.6464C24.3951 34.6447 24.3936 34.643 24.3921 34.6412Z" fill="#0E7A03"/>
<path d="M24.3989 34.6465L25.696 35.5354C25.6975 35.5369 25.6993 35.5384 25.701 35.5397L24.4039 34.6508C24.4022 34.6495 24.4004 34.648 24.3989 34.6465Z" fill="#0E7A03"/>
<path d="M24.4033 34.6509L25.7004 35.5398C25.7004 35.5398 25.7011 35.5404 25.7015 35.5407C26.8728 36.4444 28.0649 37.3189 29.2573 38.1932L27.9601 37.3043C26.7678 36.43 25.5757 35.5555 24.4044 34.6517C24.404 34.6515 24.4038 34.6511 24.4033 34.6509Z" fill="#0E7A03"/>
</g>
<path d="M24.5148 34.5024L25.8117 35.3913L25.773 35.3872L24.4761 34.4985L24.5148 34.5024Z" fill="#0E7A03"/>
<mask id="mask9_5032_66050" style="mask-type:luminance" maskUnits="userSpaceOnUse" x="24" y="34" width="2" height="2">
<path d="M25.82 35.3919C25.8181 35.3919 25.8161 35.3914 25.8142 35.3912L24.5171 34.5023C24.519 34.5023 24.521 34.5028 24.5229 34.503C24.9553 34.7993 25.3876 35.0956 25.82 35.3919Z" fill="white"/>
</mask>
<g mask="url(#mask9_5032_66050)">
<path d="M25.7207 34.7269L27.0178 35.6158C26.6309 35.5219 26.2387 35.4348 25.8152 35.3914L24.5181 34.5024C24.9416 34.5459 25.3338 34.6332 25.7207 34.7269Z" fill="#0E7A03"/>
</g>
<mask id="mask10_5032_66050" style="mask-type:luminance" maskUnits="userSpaceOnUse" x="24" y="34" width="4" height="2">
<path d="M27.0052 35.6138C26.622 35.5209 26.234 35.4349 25.8152 35.3915C25.3828 35.0952 24.9504 34.7989 24.5181 34.5026C24.9369 34.546 25.3252 34.632 25.708 34.7249C26.1404 35.0212 26.5728 35.3175 27.0052 35.6138Z" fill="white"/>
</mask>
<g mask="url(#mask10_5032_66050)">
<path d="M25.7168 34.7271L27.0139 35.616C26.627 35.522 26.2348 35.4349 25.8113 35.3915L24.5142 34.5026C24.9377 34.546 25.3299 34.6333 25.7168 34.7271Z" fill="#0E7A03"/>
</g>
<path d="M18.8944 16.8317L18.8778 16.8383L13.2655 19.0984L13.2275 17.9022L18.8944 16.8317Z" fill="#287728"/>
<mask id="mask11_5032_66050" style="mask-type:luminance" maskUnits="userSpaceOnUse" x="25" y="34" width="3" height="2">
<path d="M27.0129 35.614C27.0112 35.6134 27.0099 35.6121 27.0084 35.611C27.0071 35.6102 27.0058 35.6093 27.0045 35.6085C26.575 35.3141 26.1454 35.0197 25.7158 34.7253C25.718 34.726 25.7203 34.7264 25.7225 34.7271L27.0196 35.616C27.0174 35.6153 27.0151 35.6149 27.0129 35.6143V35.614Z" fill="white"/>
</mask>
<g mask="url(#mask11_5032_66050)">
<path d="M25.7188 34.7269L27.0159 35.6158C26.6289 35.5219 26.2368 35.4348 25.8132 35.3914L24.5161 34.5024C24.9397 34.5459 25.3318 34.6332 25.7188 34.7269Z" fill="#0E7A03"/>
</g>
<mask id="mask12_5032_66050" style="mask-type:luminance" maskUnits="userSpaceOnUse" x="25" y="34" width="3" height="2">
<path d="M27.0243 35.6188C27.0211 35.6179 27.0178 35.6168 27.0144 35.616L25.7173 34.7271C25.7205 34.7279 25.7237 34.729 25.7272 34.7298C26.1595 35.0262 26.5919 35.3225 27.0243 35.6188Z" fill="white"/>
</mask>
<g mask="url(#mask12_5032_66050)">
<path d="M26.8337 35.0748L28.1308 35.9637C27.7771 35.8229 27.3929 35.724 27.0159 35.6158L25.7188 34.7269C26.0958 34.8351 26.48 34.934 26.8337 35.0748Z" fill="#0E7A03"/>
</g>
<mask id="mask13_5032_66050" style="mask-type:luminance" maskUnits="userSpaceOnUse" x="25" y="34" width="4" height="2">
<path d="M27.0232 35.6185C27.0232 35.6185 27.0215 35.6172 27.0206 35.6168C27.0178 35.6149 27.0152 35.6132 27.0124 35.6112C27.009 35.6089 27.0055 35.6065 27.0021 35.6041C26.5768 35.3125 26.1513 35.0212 25.7261 34.7296C26.0999 34.8367 26.4807 34.9352 26.8311 35.0747L28.1282 35.9636C27.7776 35.8241 27.397 35.7256 27.0232 35.6185Z" fill="white"/>
</mask>
<g mask="url(#mask13_5032_66050)">
<path d="M26.8317 35.0746L28.1288 35.9635C27.7752 35.8227 27.391 35.7238 27.0139 35.6156L25.7168 34.7267C26.0939 34.8348 26.4781 34.9338 26.8317 35.0746Z" fill="#0E7A03"/>
</g>
<mask id="mask14_5032_66050" style="mask-type:luminance" maskUnits="userSpaceOnUse" x="26" y="35" width="3" height="2">
<path d="M28.252 36.0072C28.2113 35.9926 28.1702 35.9782 28.1291 35.964L26.832 35.0751C26.8731 35.0893 26.914 35.1037 26.9549 35.1183C27.3872 35.4146 27.8196 35.7109 28.252 36.0072Z" fill="white"/>
</mask>
<g mask="url(#mask14_5032_66050)">
<path d="M27.5973 35.3713L28.8945 36.2602C28.6454 36.1535 28.3915 36.0537 28.1306 35.9639L26.8335 35.075C27.0944 35.1646 27.3483 35.2644 27.5973 35.3713Z" fill="#0E7A03"/>
</g>
<mask id="mask15_5032_66050" style="mask-type:luminance" maskUnits="userSpaceOnUse" x="21" y="28" width="12" height="13">
<path d="M23.2791 34.974C22.8157 37.1673 23.574 39.2309 25.0756 40.4348C24.6433 40.1385 24.2109 39.8422 23.7785 39.5459C22.2769 38.342 21.5186 36.2784 21.9819 34.0851C22.5911 31.2038 25.1034 29.0692 27.8118 28.972C28.1033 28.9615 28.3965 28.9744 28.6903 29.0127C29.5052 29.1189 30.2391 29.4081 30.8636 29.8362L32.1607 30.7251C31.5362 30.2968 30.8023 30.0078 29.9874 29.9016C29.6936 29.8633 29.4002 29.8504 29.1089 29.8609C26.4005 29.9581 23.8882 32.0927 23.2791 34.974Z" fill="white"/>
</mask>
<g mask="url(#mask15_5032_66050)">
<path d="M30.8612 29.8355L32.1584 30.7244C31.5341 30.2967 30.8006 30.0077 29.9864 29.9017C29.6926 29.8634 29.3992 29.8505 29.1079 29.8611C28.1715 29.8946 27.2586 30.1718 26.4397 30.639L25.1426 29.7501C25.9615 29.2829 26.8744 29.0057 27.8108 28.9722C28.1023 28.9616 28.3955 28.9745 28.6893 29.0128C29.5035 29.1188 30.237 29.4078 30.8612 29.8355Z" fill="#0E7A03"/>
<path d="M25.1452 29.75L26.4423 30.6389C26.2256 30.7626 26.0157 30.8993 25.8137 31.0485L24.5166 30.1596C24.7186 30.0104 24.9285 29.8736 25.1452 29.75Z" fill="#0E7A03"/>
<path d="M24.5142 30.1597L25.8113 31.0486C25.6474 31.1696 25.4884 31.2987 25.3357 31.4354L24.0386 30.5465C24.1915 30.4097 24.3503 30.2807 24.5142 30.1597Z" fill="#0E7A03"/>
<path d="M24.039 30.5464L25.3361 31.4353C25.201 31.5561 25.0705 31.6828 24.9451 31.8152L23.6479 30.9263C23.7734 30.7941 23.9039 30.6672 24.039 30.5464Z" fill="#0E7A03"/>
<path d="M23.6476 30.9265L24.9447 31.8154C24.8277 31.9389 24.7149 32.067 24.6072 32.1999L23.3101 31.311C23.4178 31.1783 23.5305 31.0499 23.6476 30.9265Z" fill="#0E7A03"/>
<path d="M23.312 31.3107L24.6091 32.1996C24.5056 32.3271 24.4065 32.4587 24.3122 32.5942L23.0151 31.7052C23.1094 31.5698 23.2085 31.4382 23.312 31.3107Z" fill="#0E7A03"/>
<path d="M23.0141 31.7054L24.3112 32.5944C24.2183 32.7279 24.1301 32.8653 24.0466 33.0061L22.7495 32.1172C22.8328 31.9764 22.9212 31.839 23.0141 31.7054Z" fill="#0E7A03"/>
<path d="M22.7494 32.1173L24.0465 33.0062C23.9619 33.1492 23.8823 33.2961 23.8083 33.4462L22.5112 32.5573C22.5852 32.4072 22.6648 32.2603 22.7494 32.1173Z" fill="#0E7A03"/>
<path d="M22.5106 32.5573L23.8077 33.4462C23.7301 33.6036 23.6587 33.7646 23.5935 33.9291L22.2964 33.0402C22.3616 32.8757 22.4332 32.7144 22.5106 32.5573Z" fill="#0E7A03"/>
<path d="M22.2974 33.0405L23.5945 33.9294C23.5235 34.109 23.4598 34.2924 23.4045 34.4797L22.1074 33.5908C22.1627 33.4035 22.2262 33.2199 22.2974 33.0405Z" fill="#0E7A03"/>
<path d="M22.1066 33.5907L23.4037 34.4796C23.3557 34.6417 23.314 34.8067 23.2785 34.9742C23.2645 35.0404 23.2516 35.1064 23.24 35.1722L21.9429 34.2833C21.9547 34.2175 21.9674 34.1515 21.9814 34.0853C22.0169 33.9178 22.0586 33.7528 22.1066 33.5907Z" fill="#0E7A03"/>
<path d="M21.9428 34.2832L23.2399 35.1721C23.1758 35.5314 23.1442 35.8866 23.1433 36.2346L21.8462 35.3456C21.8473 34.9977 21.8787 34.6425 21.9428 34.2832Z" fill="#0E7A03"/>
<path d="M21.8462 35.3457L23.1433 36.2346C23.1418 36.7887 23.2177 37.3244 23.3625 37.8282L22.0654 36.9393C21.9206 36.4354 21.8447 35.9 21.8462 35.3457Z" fill="#0E7A03"/>
<path d="M22.0664 36.9391L23.3635 37.828C23.459 38.16 23.5842 38.4782 23.7372 38.7788L22.4401 37.8899C22.2873 37.5893 22.1619 37.2711 22.0664 36.9391Z" fill="#0E7A03"/>
<path d="M22.4399 37.8899L23.737 38.7788C23.8371 38.9756 23.9489 39.1648 24.0718 39.3456L22.7747 38.4567C22.6518 38.2761 22.54 38.0869 22.4399 37.8899Z" fill="#0E7A03"/>
<path d="M22.7749 38.4565L24.072 39.3455C24.1735 39.4949 24.2828 39.6383 24.3992 39.7755L23.1021 38.8866C22.9857 38.7496 22.8766 38.606 22.7749 38.4565Z" fill="#0E7A03"/>
<path d="M23.1016 38.8868L24.3987 39.7758C24.5039 39.8996 24.6149 40.0183 24.7314 40.1312L23.4343 39.2423C23.3177 39.1294 23.2068 39.0109 23.1016 38.8868Z" fill="#0E7A03"/>
<path d="M23.4331 39.2421L24.7302 40.131C24.8395 40.237 24.9539 40.3378 25.0729 40.4333L23.7758 39.5444C23.6568 39.4489 23.5426 39.3481 23.4331 39.2421Z" fill="#0E7A03"/>
<path d="M23.7754 39.5444L25.0725 40.4333C25.1682 40.5101 25.2667 40.5834 25.3683 40.6529L24.0712 39.764C23.9696 39.6943 23.8709 39.6212 23.7754 39.5444Z" fill="#0E7A03"/>
</g>
<mask id="mask16_5032_66050" style="mask-type:luminance" maskUnits="userSpaceOnUse" x="23" y="30" width="9" height="10">
<path d="M24.4696 35.1287C24.0833 36.9562 24.7798 38.6691 26.1077 39.5795L24.8106 38.6906C23.4825 37.7802 22.7862 36.0673 23.1725 34.2398C23.6498 31.9814 25.6192 30.3083 27.7423 30.2322C27.9703 30.224 28.2005 30.2343 28.4302 30.2642C29.0684 30.3474 29.6434 30.5739 30.1326 30.9093L31.4297 31.7982C30.9403 31.4628 30.3653 31.2364 29.7273 31.1531C29.4974 31.1233 29.2674 31.1129 29.0394 31.1211C26.9163 31.1972 24.9467 32.8703 24.4696 35.1287Z" fill="white"/>
</mask>
<g mask="url(#mask16_5032_66050)">
<path d="M30.1339 30.9095L31.431 31.7984C30.9418 31.4631 30.3668 31.2367 29.7288 31.1535C29.4989 31.1236 29.2689 31.1133 29.0409 31.1215C28.3067 31.1477 27.5911 31.3651 26.949 31.7315L25.6519 30.8426C26.294 30.4762 27.0096 30.259 27.7438 30.2326C27.9718 30.2244 28.202 30.2347 28.4317 30.2646C29.0697 30.3478 29.6447 30.5742 30.1339 30.9095Z" fill="#0E7A03"/>
<path d="M25.6518 30.8424L26.9489 31.7313C26.7792 31.8281 26.6146 31.9354 26.4563 32.0524L25.1592 31.1634C25.3175 31.0465 25.4821 30.9392 25.6518 30.8424Z" fill="#0E7A03"/>
<path d="M25.1584 31.1633L26.4555 32.0522C26.3269 32.1471 26.2026 32.2483 26.0828 32.3554L24.7856 31.4665C24.9055 31.3594 25.03 31.2582 25.1584 31.1633Z" fill="#0E7A03"/>
<path d="M24.786 31.4667L26.0831 32.3556C25.9773 32.4502 25.8749 32.5495 25.7766 32.6534L24.4795 31.7645C24.5778 31.6608 24.6802 31.5615 24.786 31.4667Z" fill="#0E7A03"/>
<path d="M24.4799 31.7644L25.777 32.6533C25.6854 32.7501 25.597 32.8505 25.5124 32.9546L24.2153 32.0657C24.2999 31.9616 24.3881 31.8612 24.4799 31.7644Z" fill="#0E7A03"/>
<path d="M24.2154 32.0656L25.5125 32.9545C25.4315 33.0542 25.3538 33.1574 25.28 33.2637L23.9829 32.3748C24.0569 32.2685 24.1343 32.1653 24.2154 32.0656Z" fill="#0E7A03"/>
<path d="M23.9813 32.375L25.2784 33.2639C25.2057 33.3686 25.1364 33.4761 25.071 33.5867L23.7739 32.6978C23.8393 32.5872 23.9084 32.4797 23.9813 32.375Z" fill="#0E7A03"/>
<path d="M23.7749 32.6978L25.072 33.5867C25.0057 33.6989 24.9433 33.8137 24.8855 33.9316L23.5884 33.0427C23.6465 32.925 23.7086 32.81 23.7749 32.6978Z" fill="#0E7A03"/>
<path d="M23.5884 33.0425L24.8855 33.9314C24.8246 34.0548 24.7687 34.181 24.7175 34.3098L23.4204 33.4209C23.4714 33.2919 23.5275 33.1657 23.5884 33.0425Z" fill="#0E7A03"/>
<path d="M23.4213 33.4211L24.7184 34.3101C24.6627 34.4507 24.613 34.5945 24.5696 34.7412L23.2725 33.8523C23.3159 33.7056 23.3656 33.5618 23.4213 33.4211Z" fill="#0E7A03"/>
<path d="M23.2715 33.8522L24.5686 34.7411C24.5309 34.8682 24.4983 34.9976 24.4705 35.129C24.4595 35.1808 24.4494 35.2324 24.4402 35.284L23.1431 34.3951C23.1523 34.3435 23.1624 34.2919 23.1734 34.2401C23.2011 34.1087 23.2338 33.9795 23.2715 33.8522Z" fill="#0E7A03"/>
<path d="M23.1431 34.395L24.4402 35.2839C24.3899 35.5656 24.3651 35.8441 24.3645 36.1167L23.0674 35.2278C23.0682 34.9552 23.0928 34.6767 23.1431 34.395Z" fill="#0E7A03"/>
<path d="M23.0674 35.228L24.3645 36.1169C24.3632 36.5513 24.4228 36.971 24.5364 37.3658L23.2393 36.4769C23.1257 36.0821 23.0663 35.6624 23.0674 35.228Z" fill="#0E7A03"/>
<path d="M23.2383 36.4768L24.5354 37.3657C24.6102 37.6259 24.7083 37.8753 24.8282 38.111L23.531 37.2221C23.4112 36.9864 23.3129 36.737 23.2383 36.4768Z" fill="#0E7A03"/>
<path d="M23.5327 37.2222L24.8298 38.1111C24.9083 38.2653 24.9959 38.4136 25.0923 38.5553L23.7951 37.6664C23.6988 37.5247 23.6112 37.3763 23.5327 37.2222Z" fill="#0E7A03"/>
<path d="M23.7944 37.6665L25.0915 38.5554C25.1711 38.6726 25.2567 38.7851 25.3479 38.8926L24.0508 38.0037C23.9596 37.8962 23.874 37.7837 23.7944 37.6665Z" fill="#0E7A03"/>
<path d="M24.0508 38.0034L25.3479 38.8923C25.4303 38.9895 25.5174 39.0824 25.6088 39.1708L24.3117 38.2819C24.2203 38.1933 24.1334 38.1004 24.0508 38.0034Z" fill="#0E7A03"/>
<path d="M24.312 38.2819L25.6091 39.1708C25.6949 39.2538 25.7844 39.3329 25.8778 39.4077L24.5807 38.5188C24.4875 38.444 24.3978 38.3649 24.312 38.2819Z" fill="#0E7A03"/>
<path d="M24.5796 38.5188L25.8767 39.4077C25.9518 39.4679 26.029 39.5253 26.1086 39.5799L24.8115 38.691C24.7319 38.6364 24.6544 38.579 24.5796 38.5188Z" fill="#0E7A03"/>
</g>
<mask id="mask17_5032_66050" style="mask-type:luminance" maskUnits="userSpaceOnUse" x="17" y="19" width="23" height="5">
<path d="M38.1903 19.2688L39.4874 20.1577C32.5329 21.1541 25.5782 22.1503 18.6238 23.1463L17.3267 22.2574C24.2811 21.2614 31.2358 20.2652 38.1903 19.2688Z" fill="white"/>
</mask>
<g mask="url(#mask17_5032_66050)">
<path d="M38.1908 19.2689L39.4879 20.1578C32.5334 21.1543 25.5787 22.1505 18.6243 23.1465L17.3271 22.2576C24.2816 21.2616 31.2363 20.2653 38.1908 19.2689Z" fill="#0E7A03"/>
</g>
<mask id="mask18_5032_66050" style="mask-type:luminance" maskUnits="userSpaceOnUse" x="30" y="30" width="2" height="3">
<path d="M31.7597 32.0551C31.3274 31.7588 30.895 31.4625 30.4626 31.1662C30.3562 31.0744 30.2445 30.9883 30.1279 30.9086L31.425 31.7975C31.5416 31.8773 31.6533 31.9633 31.7597 32.0551Z" fill="white"/>
</mask>
<g mask="url(#mask18_5032_66050)">
<path d="M30.1299 30.9089L31.427 31.7978C31.5064 31.8522 31.5834 31.9094 31.658 31.9694L30.3609 31.0805C30.2863 31.0205 30.209 30.9633 30.1299 30.9089Z" fill="#0E7A03"/>
<path d="M30.3618 31.0803L31.6589 31.9692C31.7518 32.0439 31.8413 32.1228 31.9267 32.2053L30.6296 31.3164C30.544 31.2336 30.4547 31.1549 30.3618 31.0803Z" fill="#0E7A03"/>
</g>
<mask id="mask19_5032_66050" style="mask-type:luminance" maskUnits="userSpaceOnUse" x="26" y="35" width="3" height="2">
<path d="M28.2497 36.0068C28.2459 36.0049 28.2416 36.0012 28.2379 35.9989C28.2211 35.9873 28.2041 35.9759 28.1874 35.9643C28.174 35.9552 28.1607 35.946 28.1476 35.9369C28.1136 35.9135 28.0794 35.8903 28.0454 35.8669C27.6812 35.6172 27.3168 35.3676 26.9526 35.1179C27.1708 35.1962 27.3839 35.2811 27.5937 35.371L28.8908 36.2599C28.6808 36.17 28.4676 36.0851 28.2497 36.0068Z" fill="white"/>
</mask>
<g mask="url(#mask19_5032_66050)">
<path d="M27.5944 35.3708L28.8915 36.2597C28.6424 36.153 28.3886 36.0533 28.1277 35.9634L26.8306 35.0745C27.0915 35.1641 27.3453 35.2639 27.5944 35.3708Z" fill="#0E7A03"/>
</g>
<mask id="mask20_5032_66050" style="mask-type:luminance" maskUnits="userSpaceOnUse" x="27" y="31" width="5" height="6">
<path d="M30.1165 31.9661L31.4136 32.855C30.7958 33.5243 30.2638 34.255 29.7349 34.9885C29.4402 35.4013 29.1644 35.8275 28.8977 36.2599L27.6006 35.371C27.8673 34.9384 28.1431 34.5122 28.4378 34.0995C28.9667 33.3661 29.4987 32.6354 30.1165 31.9661Z" fill="white"/>
</mask>
<g mask="url(#mask20_5032_66050)">
<path d="M30.1163 31.9661L31.4134 32.855C31.2118 33.0734 31.0193 33.2984 30.8332 33.5276L29.5361 32.6387C29.7222 32.4092 29.9147 32.1843 30.1163 31.9661Z" fill="#0E7A03"/>
<path d="M29.5355 32.6388L30.8326 33.5277C30.4482 34.0014 30.0905 34.4942 29.7341 34.9884C29.6932 35.0456 29.6528 35.1032 29.6125 35.1608L28.3154 34.2719C28.3557 34.2141 28.3961 34.1567 28.437 34.0995C28.7932 33.6053 29.1511 33.1125 29.5355 32.6388Z" fill="#0E7A03"/>
<path d="M28.3158 34.2719L29.6129 35.1608C29.3633 35.5194 29.1269 35.8871 28.8972 36.2598L27.6001 35.3708C27.8298 34.9982 28.0662 34.6305 28.3158 34.2719Z" fill="#0E7A03"/>
</g>
<mask id="mask21_5032_66050" style="mask-type:luminance" maskUnits="userSpaceOnUse" x="30" y="31" width="2" height="2">
<path d="M31.4313 32.8306C31.4244 32.8387 31.4175 32.8467 31.4104 32.8549L30.1133 31.9659C30.1202 31.9578 30.127 31.9496 30.1341 31.9417C30.5665 32.238 30.9989 32.5343 31.4313 32.8306Z" fill="white"/>
</mask>
<g mask="url(#mask21_5032_66050)">
<path d="M30.6629 31.3488L31.96 32.2377C31.7722 32.4398 31.5889 32.6456 31.4104 32.855L30.1133 31.9661C30.2918 31.7567 30.4751 31.5509 30.6629 31.3488Z" fill="#0E7A03"/>
</g>
<mask id="mask22_5032_66050" style="mask-type:luminance" maskUnits="userSpaceOnUse" x="30" y="31" width="2" height="2">
<path d="M31.4299 32.8303C30.9976 32.534 30.5652 32.2377 30.1328 31.9414C30.3019 31.7435 30.4753 31.5492 30.6527 31.3578C31.0851 31.6541 31.3142 32.2467 31.9498 32.2467C31.7724 32.4381 31.599 32.6325 31.4299 32.8303Z" fill="white"/>
</mask>
<g mask="url(#mask22_5032_66050)">
<path d="M30.6614 31.3483L31.9585 32.2372C31.7707 32.4393 31.5875 32.6451 31.4089 32.8545L30.1118 31.9656C30.2904 31.7562 30.4736 31.5504 30.6614 31.3483Z" fill="#0E7A03"/>
</g>
<mask id="mask23_5032_66050" style="mask-type:luminance" maskUnits="userSpaceOnUse" x="30" y="31" width="2" height="2">
<path d="M31.761 32.0552C31.8289 32.1137 31.895 32.1747 31.9587 32.2377L30.6616 31.3488C30.5979 31.2856 30.5318 31.2247 30.4639 31.1663C30.8962 31.4626 31.3286 31.7589 31.761 32.0552Z" fill="white"/>
</mask>
<g mask="url(#mask23_5032_66050)">
<path d="M30.3608 31.0806L31.6579 31.9695C31.7509 32.0441 31.8404 32.123 31.9258 32.2056L30.6286 31.3167C30.543 31.2339 30.4538 31.1552 30.3608 31.0806Z" fill="#0E7A03"/>
<path d="M30.6289 31.3169L31.926 32.2058C31.937 32.2163 31.948 32.2271 31.9589 32.2378L30.6618 31.3489C30.6508 31.3382 30.6401 31.3274 30.6289 31.3169Z" fill="#0E7A03"/>
</g>
<mask id="mask24_5032_66050" style="mask-type:luminance" maskUnits="userSpaceOnUse" x="30" y="31" width="2" height="2">
<path d="M31.9475 32.2468C31.5151 31.9505 31.286 31.3578 30.6504 31.3578C30.6534 31.3546 30.6562 31.3516 30.6592 31.3484L31.9563 32.2373C31.9533 32.2405 31.9505 32.2435 31.9475 32.2468Z" fill="white"/>
</mask>
<g mask="url(#mask24_5032_66050)">
<path d="M30.658 31.3483L31.9551 32.2372C31.7673 32.4393 31.584 32.6451 31.4055 32.8545L30.1084 31.9656C30.2869 31.7562 30.4702 31.5504 30.658 31.3483Z" fill="#0E7A03"/>
</g>
<mask id="mask25_5032_66050" style="mask-type:luminance" maskUnits="userSpaceOnUse" x="30" y="29" width="3" height="3">
<path d="M32.1609 30.7247C32.416 30.8995 32.6528 31.0976 32.8692 31.3156L31.5721 30.4267C31.3555 30.2085 31.1187 30.0106 30.8638 29.8358C31.2529 30.1024 31.7717 30.4581 32.1609 30.7247Z" fill="white"/>
</mask>
<g mask="url(#mask25_5032_66050)">
<path d="M30.8667 29.8358L32.1638 30.7247C32.2651 30.7942 32.3634 30.8671 32.4587 30.9436L31.1616 30.0547C31.0663 29.9782 30.9678 29.9053 30.8667 29.8358Z" fill="#0E7A03"/>
<path d="M31.1621 30.0548L32.4592 30.9437C32.578 31.039 32.692 31.1394 32.801 31.245L31.5039 30.3561C31.3949 30.2505 31.2808 30.1499 31.1621 30.0548Z" fill="#0E7A03"/>
<path d="M31.5044 30.3562L32.8015 31.2451C32.8256 31.2683 32.8495 31.292 32.8729 31.3156L31.5758 30.4267C31.5521 30.4029 31.5283 30.3794 31.5044 30.3562Z" fill="#0E7A03"/>
</g>
<mask id="mask26_5032_66050" style="mask-type:luminance" maskUnits="userSpaceOnUse" x="30" y="30" width="3" height="3">
<path d="M32.8668 31.316C32.5521 31.6154 32.2483 31.9226 31.9558 32.2378L30.6587 31.3489C30.9512 31.0335 31.255 30.7264 31.5697 30.4271C31.9588 30.6938 32.4777 31.0494 32.8668 31.316Z" fill="white"/>
</mask>
<g mask="url(#mask26_5032_66050)">
<path d="M31.5713 30.4271L32.8684 31.316C32.6064 31.5653 32.3519 31.8198 32.1052 32.0802L30.8081 31.1913C31.0548 30.9309 31.3091 30.6763 31.5713 30.4271Z" fill="#0E7A03"/>
<path d="M30.8094 31.1914L32.1065 32.0803C32.0568 32.1326 32.0076 32.1853 31.9587 32.2379L30.6616 31.349C30.7107 31.2961 30.7599 31.2437 30.8094 31.1914Z" fill="#0E7A03"/>
</g>
<mask id="mask27_5032_66050" style="mask-type:luminance" maskUnits="userSpaceOnUse" x="31" y="30" width="2" height="2">
<path d="M32.9051 31.2828C32.8937 31.2936 32.8825 31.3041 32.8713 31.3149L31.5742 30.426C31.5854 30.4152 31.5968 30.4045 31.608 30.3939C32.0404 30.6902 32.4727 30.9865 32.9051 31.2828Z" fill="white"/>
</mask>
<g mask="url(#mask27_5032_66050)">
<path d="M32.0299 30.005L33.327 30.8939C33.1724 31.0326 33.0198 31.1732 32.8703 31.3156L31.5732 30.4267C31.723 30.2845 31.8755 30.1437 32.0299 30.005Z" fill="#0E7A03"/>
</g>
<path d="M38.1945 19.2697C38.2164 19.8081 38.2383 20.3465 38.2603 20.8849C31.3058 21.8811 24.3513 22.8769 17.3969 23.8731C17.3747 23.3347 17.353 22.7965 17.3311 22.2581C24.2855 21.2621 31.24 20.2659 38.1945 19.2697Z" fill="white"/>
<mask id="mask28_5032_66050" style="mask-type:luminance" maskUnits="userSpaceOnUse" x="38" y="19" width="2" height="3">
<path d="M38.1934 19.2698L39.4905 20.1587C39.5124 20.6971 39.5343 21.2355 39.5563 21.774L38.2592 20.885C38.2372 20.3466 38.2153 19.8082 38.1934 19.2698Z" fill="white"/>
</mask>
<g mask="url(#mask28_5032_66050)">
<path d="M38.1934 19.2699L39.4905 20.1588C39.5124 20.6972 39.5343 21.2357 39.5563 21.7741L38.2592 20.8852C38.2372 20.3467 38.2153 19.8083 38.1934 19.2699Z" fill="#0E7A03"/>
</g>
<mask id="mask29_5032_66050" style="mask-type:luminance" maskUnits="userSpaceOnUse" x="17" y="20" width="23" height="5">
<path d="M38.2628 20.8849L39.5599 21.7738C32.6055 22.77 25.651 23.7658 18.6965 24.762L17.3994 23.8731C24.3539 22.8771 31.3083 21.8811 38.2628 20.8849Z" fill="white"/>
</mask>
<g mask="url(#mask29_5032_66050)">
<path d="M38.2638 20.885L39.5609 21.7739C32.6064 22.7701 25.652 23.7659 18.6975 24.7621L17.4004 23.8732C24.3549 22.8772 31.3093 21.8812 38.2638 20.885Z" fill="#0E7A03"/>
</g>
<mask id="mask30_5032_66050" style="mask-type:luminance" maskUnits="userSpaceOnUse" x="31" y="30" width="3" height="2">
<path d="M32.9065 31.2836C32.4741 30.9873 32.0417 30.691 31.6094 30.3947C31.7445 30.267 31.8817 30.1403 32.0207 30.0156C32.453 30.3119 32.8854 30.6082 33.3178 30.9045C33.1788 31.0295 33.0416 31.1559 32.9065 31.2836Z" fill="white"/>
</mask>
<g mask="url(#mask30_5032_66050)">
<path d="M32.0309 30.0046L33.328 30.8936C33.1733 31.0322 33.0208 31.1729 32.8713 31.3152L31.5742 30.4263C31.7239 30.2842 31.8764 30.1433 32.0309 30.0046Z" fill="#0E7A03"/>
</g>
<mask id="mask31_5032_66050" style="mask-type:luminance" maskUnits="userSpaceOnUse" x="32" y="30" width="2" height="1">
<path d="M33.3166 30.9045C32.8843 30.6082 32.4519 30.3119 32.0195 30.0156C32.0234 30.0121 32.0273 30.0087 32.0311 30.0052L33.3283 30.8942C33.3244 30.8976 33.3205 30.901 33.3166 30.9045Z" fill="white"/>
</mask>
<g mask="url(#mask31_5032_66050)">
<path d="M32.0285 30.0052L33.3256 30.8942C33.1709 31.0329 33.0184 31.1735 32.8689 31.3158L31.5718 30.4269C31.7215 30.2848 31.874 30.1439 32.0285 30.0052Z" fill="#0E7A03"/>
</g>
<path d="M32.5518 29.5446L33.8486 30.4335L33.3279 30.8936L32.0308 30.0047L32.5518 29.5446Z" fill="#0E7A03"/>
<path d="M33.1066 29.109L34.4035 29.9979L33.8477 30.4333L32.5508 29.5444L33.1066 29.109Z" fill="#0E7A03"/>
<mask id="mask32_5032_66050" style="mask-type:luminance" maskUnits="userSpaceOnUse" x="33" y="29" width="2" height="1">
<path d="M34.4043 29.9958C34.4033 29.9967 34.4022 29.9976 34.4011 29.9984L33.104 29.1095C33.1051 29.1087 33.1062 29.1078 33.1072 29.1069C33.5396 29.4032 33.972 29.6995 34.4043 29.9958Z" fill="white"/>
</mask>
<g mask="url(#mask32_5032_66050)">
<path d="M33.2929 28.9659L34.59 29.8549C34.5259 29.9022 34.4627 29.9499 34.3996 29.9981L33.1025 29.1091C33.1654 29.061 33.2288 29.0132 33.2929 28.9659Z" fill="#0E7A03"/>
</g>
<mask id="mask33_5032_66050" style="mask-type:luminance" maskUnits="userSpaceOnUse" x="24" y="34" width="6" height="5">
<path d="M25.7094 35.5401C26.8807 36.4439 28.0728 37.3184 29.2652 38.1927L27.9681 37.3038C27.9668 37.3027 27.9653 37.3018 27.964 37.3008C28.3953 37.5964 28.8266 37.8919 29.2581 38.1875C28.8268 37.8919 28.3955 37.5964 27.964 37.3008C26.7731 36.4273 25.5823 35.5541 24.4123 34.6512C24.4123 34.6512 24.4123 34.6512 24.4121 34.651C24.8445 34.9473 25.2768 35.2436 25.7092 35.5399C25.7092 35.5399 25.7092 35.5399 25.7094 35.5401Z" fill="white"/>
</mask>
<g mask="url(#mask33_5032_66050)">
<path d="M24.4116 34.6504L25.7087 35.5393C25.7087 35.5393 25.7094 35.5399 25.7098 35.5402C26.8811 36.4439 28.0732 37.3184 29.2656 38.1927L27.9684 37.3038C26.7761 36.4295 25.584 35.555 24.4127 34.6513C24.4123 34.651 24.4121 34.6506 24.4116 34.6504Z" fill="#0E7A03"/>
</g>
<mask id="mask34_5032_66050" style="mask-type:luminance" maskUnits="userSpaceOnUse" x="27" y="37" width="3" height="2">
<path d="M29.2585 38.1926C29.2585 38.1926 29.2594 38.1931 29.2596 38.1935L27.9625 37.3046C27.9625 37.3046 27.9616 37.3041 27.9614 37.3037C28.3938 37.6 28.8262 37.8963 29.2585 38.1926Z" fill="white"/>
</mask>
<g mask="url(#mask34_5032_66050)">
<path d="M27.9619 37.3037L29.259 38.1926C29.259 38.1926 29.2599 38.1933 29.2601 38.1935L27.963 37.3046C27.963 37.3046 27.9621 37.3039 27.9619 37.3037Z" fill="#0E7A03"/>
</g>
<mask id="mask35_5032_66050" style="mask-type:luminance" maskUnits="userSpaceOnUse" x="33" y="28" width="3" height="2">
<path d="M35.6 29.1913C35.1707 29.4371 34.7777 29.7093 34.404 29.9955C33.9717 29.6992 33.5393 29.4029 33.1069 29.1066C33.4789 28.8214 33.8701 28.5503 34.2976 28.3054C34.2993 28.3043 34.301 28.3034 34.3027 28.3024C34.6919 28.569 35.2107 28.9246 35.5998 29.1913H35.6Z" fill="white"/>
</mask>
<g mask="url(#mask35_5032_66050)">
<path d="M34.3028 28.3027L35.5999 29.1916C35.2415 29.3968 34.9086 29.6202 34.5911 29.855L33.2939 28.9661C33.6114 28.7313 33.9444 28.5079 34.3028 28.3027Z" fill="#0E7A03"/>
<path d="M33.2944 28.9661L34.5915 29.855C34.5274 29.9023 34.4641 29.95 34.4011 29.9982L33.104 29.1093C33.1668 29.0611 33.2303 29.0134 33.2944 28.9661Z" fill="#0E7A03"/>
</g>
<path d="M34.3421 28.2819L35.639 29.1708L35.6033 29.1912L34.3062 28.3025L34.3421 28.2819Z" fill="#0E7A03"/>
<mask id="mask36_5032_66050" style="mask-type:luminance" maskUnits="userSpaceOnUse" x="24" y="38" width="5" height="3">
<path d="M27.8036 40.2241C27.1667 40.1413 26.5927 39.9156 26.1042 39.5814L24.8071 38.6925C25.2956 39.0267 25.8698 39.2524 26.5065 39.3352C26.5841 39.3455 26.6618 39.3535 26.7394 39.3591C27.1718 39.6554 27.6042 39.9517 28.0366 40.248C27.9589 40.2422 27.8812 40.2342 27.8036 40.2241Z" fill="white"/>
</mask>
<g mask="url(#mask36_5032_66050)">
<path d="M29.2887 38.7582L30.5858 39.6471C29.9439 40.0133 29.2285 40.2305 28.4947 40.2569C28.2665 40.2651 28.0363 40.2548 27.8064 40.2245C27.1684 40.1415 26.5934 39.9151 26.1042 39.5798L24.8071 38.6909C25.2963 39.0261 25.8713 39.2526 26.5093 39.3356C26.7392 39.3659 26.9694 39.3762 27.1976 39.368C27.9314 39.3418 28.6468 39.1244 29.2887 38.7582Z" fill="#0E7A03"/>
</g>
<mask id="mask37_5032_66050" style="mask-type:luminance" maskUnits="userSpaceOnUse" x="34" y="28" width="2" height="2">
<path d="M35.6769 29.1594C35.6642 29.1598 35.6508 29.1637 35.6379 29.171L34.3408 28.2821C34.3537 28.2748 34.3671 28.2709 34.3798 28.2705C34.3802 28.2705 34.3806 28.2705 34.3808 28.2705C34.8132 28.5668 35.2456 28.8631 35.6779 29.1594C35.6775 29.1594 35.6771 29.1594 35.6769 29.1594Z" fill="white"/>
</mask>
<g mask="url(#mask37_5032_66050)">
<path d="M34.4234 28.2834L35.7205 29.1723C35.7078 29.1635 35.6923 29.1592 35.6764 29.1598C35.6637 29.1603 35.6503 29.1641 35.6374 29.1715L34.3403 28.2825C34.3532 28.2752 34.3666 28.2714 34.3793 28.2709C34.3952 28.2703 34.4105 28.2748 34.4234 28.2834Z" fill="#0E7A03"/>
</g>
<mask id="mask38_5032_66050" style="mask-type:luminance" maskUnits="userSpaceOnUse" x="34" y="28" width="2" height="2">
<path d="M35.6775 29.1594C35.1498 29.002 35.016 28.2705 34.3804 28.2705C34.3959 28.2701 34.4107 28.2746 34.4232 28.2832L35.7203 29.1721C35.7078 29.1635 35.693 29.1592 35.6775 29.1594Z" fill="white"/>
</mask>
<g mask="url(#mask38_5032_66050)">
<path d="M34.4239 28.283L35.721 29.172C35.7083 29.1631 35.6928 29.1588 35.6769 29.1595C35.6642 29.1599 35.6508 29.1638 35.6379 29.1711L34.3408 28.2822C34.3537 28.2749 34.3671 28.271 34.3798 28.2706C34.3957 28.2699 34.4109 28.2744 34.4239 28.283Z" fill="#0E7A03"/>
</g>
<mask id="mask39_5032_66050" style="mask-type:luminance" maskUnits="userSpaceOnUse" x="27" y="32" width="6" height="7">
<path d="M29.2654 38.1944L27.9683 37.3055C27.9928 37.3223 28.0216 37.3298 28.0504 37.3287C28.0978 37.327 28.1455 37.3025 28.1767 37.2586C29.2441 35.7988 30.3022 34.3323 31.3371 32.8489L32.6342 33.7378C31.5993 35.2212 30.5412 36.6877 29.4738 38.1475C29.4426 38.1916 29.3949 38.2159 29.3475 38.2176C29.3185 38.2187 29.2899 38.2112 29.2654 38.1944Z" fill="white"/>
</mask>
<g mask="url(#mask39_5032_66050)">
<path d="M31.3372 32.849L32.6343 33.7379C31.5994 35.2214 30.5413 36.6878 29.4739 38.1476C29.4718 38.1509 29.4694 38.1539 29.467 38.1567L28.1699 37.2678C28.1723 37.2647 28.1747 37.2617 28.1768 37.2587C29.2442 35.7989 30.3023 34.3325 31.3372 32.849Z" fill="#338275"/>
<path d="M28.1702 37.2676L29.4673 38.1565C29.4645 38.1599 29.4617 38.1632 29.4587 38.1664L28.1616 37.2775C28.1646 37.2742 28.1674 37.271 28.1702 37.2676Z" fill="#317D71"/>
<path d="M28.1615 37.2776L29.4586 38.1665C29.4554 38.1699 29.4519 38.1732 29.4485 38.1762L28.1514 37.2873C28.1548 37.2843 28.1583 37.281 28.1615 37.2776Z" fill="#30796E"/>
<path d="M28.1517 37.2872L29.4488 38.1761C29.4449 38.1796 29.4408 38.183 29.4368 38.186L28.1396 37.2971C28.1437 37.2941 28.1478 37.2907 28.1517 37.2872Z" fill="#2E756A"/>
<path d="M28.1394 37.2971L29.4365 38.186C29.4311 38.1899 29.4257 38.1936 29.4202 38.1968L28.123 37.3079C28.1286 37.3046 28.1342 37.301 28.1394 37.2971Z" fill="#2C7166"/>
<path d="M28.124 37.3078L29.4211 38.1967C29.3985 38.2096 29.3737 38.2167 29.349 38.2176C29.32 38.2186 29.2914 38.2111 29.2668 38.1943L27.9697 37.3054C27.9942 37.3222 28.0231 37.3297 28.0519 37.3286C28.0766 37.3278 28.1014 37.3207 28.124 37.3078Z" fill="#2B6D62"/>
</g>
<path d="M31.513 32.5958L32.8101 33.4847L32.6316 33.7378L31.3345 32.8489L31.513 32.5958Z" fill="#388E80"/>
<path d="M32.3408 31.423L33.6377 32.3119L32.8108 33.4846L31.5137 32.5957L32.3408 31.423Z" fill="#388E80"/>
<path d="M32.8991 30.6322L34.196 31.5211L33.6382 32.312L32.3413 31.4231L32.8991 30.6322Z" fill="#388E80"/>
<mask id="mask40_5032_66050" style="mask-type:luminance" maskUnits="userSpaceOnUse" x="32" y="28" width="4" height="4">
<path d="M34.423 28.2832L35.7201 29.1721C35.7304 29.1792 35.739 29.1891 35.7448 29.2016C35.7577 29.2293 35.753 29.2626 35.7355 29.2884C35.221 30.032 34.72 30.7857 34.1941 31.5213L32.897 30.6323C33.4231 29.8967 33.9239 29.1431 34.4384 28.3995C34.4561 28.3737 34.4606 28.3406 34.4477 28.3127C34.4419 28.3002 34.4333 28.2903 34.423 28.2832Z" fill="white"/>
</mask>
<g mask="url(#mask40_5032_66050)">
<path d="M34.4243 28.2834L35.7214 29.1724C35.7229 29.1734 35.7242 29.1745 35.7257 29.1756L34.4286 28.2867C34.4273 28.2856 34.4258 28.2845 34.4243 28.2834Z" fill="#348679"/>
<path d="M34.4287 28.2866L35.7258 29.1755C35.7275 29.1768 35.729 29.1783 35.7308 29.1798L34.4337 28.2909C34.4322 28.2894 34.4304 28.2879 34.4287 28.2866Z" fill="#368A7D"/>
<path d="M34.4331 28.291L35.7302 29.1799C35.7319 29.1814 35.7334 29.1832 35.7349 29.1851L34.4378 28.2962C34.4363 28.2945 34.4348 28.2927 34.4331 28.291Z" fill="#388E81"/>
<path d="M34.4385 28.296L35.7356 29.1849C35.7373 29.1869 35.7388 29.189 35.7403 29.1912L34.4432 28.3023C34.4417 28.3001 34.4402 28.298 34.4385 28.296Z" fill="#399284"/>
<path d="M34.4429 28.3022L35.74 29.1912C35.7417 29.1937 35.7434 29.1965 35.7447 29.1993L34.4476 28.3104C34.4461 28.3076 34.4446 28.3048 34.4429 28.3022Z" fill="#3B9688"/>
<path d="M34.4487 28.3104L35.7458 29.1993C35.7458 29.1993 35.7467 29.2011 35.7471 29.2019C35.7488 29.2056 35.7501 29.2092 35.7512 29.2131L34.4541 28.3242C34.453 28.3203 34.4515 28.3167 34.45 28.313C34.4496 28.3121 34.4492 28.3113 34.4487 28.3104Z" fill="#3D9B8C"/>
<path d="M34.4531 28.3241L35.7502 29.213C35.7524 29.2205 35.7535 29.2285 35.7535 29.2364L34.4564 28.3475C34.4564 28.3396 34.4553 28.3318 34.4531 28.3241Z" fill="#3E9F90"/>
<path d="M34.4566 28.3475L35.7537 29.2364C35.7537 29.2416 35.7533 29.2466 35.7522 29.2517L34.4551 28.3628C34.4559 28.3579 34.4564 28.3527 34.4566 28.3475Z" fill="#3D9B8C"/>
<path d="M34.454 28.3627L35.7511 29.2516C35.7505 29.2548 35.7498 29.2582 35.7488 29.2615L34.4517 28.3726C34.4525 28.3693 34.4534 28.3659 34.454 28.3627Z" fill="#3B9688"/>
<path d="M34.4525 28.3726L35.7496 29.2615C35.7487 29.2643 35.7479 29.2668 35.7468 29.2696L34.4497 28.3807C34.4508 28.3781 34.4516 28.3754 34.4525 28.3726Z" fill="#399284"/>
<path d="M34.4495 28.3806L35.7466 29.2695C35.7458 29.2719 35.7447 29.2743 35.7434 29.2766L34.4463 28.3877C34.4474 28.3853 34.4484 28.383 34.4495 28.3806Z" fill="#388E81"/>
<path d="M34.4463 28.3877L35.7434 29.2766C35.7423 29.2788 35.7413 29.2809 35.74 29.2831L34.4429 28.3941C34.4442 28.392 34.4452 28.3898 34.4463 28.3877Z" fill="#368A7D"/>
<path d="M34.443 28.3943L35.7401 29.2832C35.739 29.2851 35.7379 29.2869 35.7366 29.2886C35.3428 29.858 34.9566 30.4329 34.5613 31.0015L33.2642 30.1126C33.6595 29.544 34.0454 28.9688 34.4395 28.3997C34.4408 28.3979 34.4419 28.396 34.443 28.3943Z" fill="#348679"/>
<path d="M33.2643 30.1128L34.5614 31.0017C34.4403 31.1757 34.3183 31.3492 34.1951 31.5216L32.8979 30.6327C33.0212 30.4603 33.1432 30.287 33.2643 30.1128Z" fill="#338275"/>
</g>
<mask id="mask41_5032_66050" style="mask-type:luminance" maskUnits="userSpaceOnUse" x="26" y="39" width="3" height="2">
<path d="M28.4971 40.2572C28.3459 40.2625 28.1938 40.26 28.0417 40.2488C27.6094 39.9525 27.177 39.6562 26.7446 39.3599C26.8969 39.371 27.0488 39.3738 27.2 39.3682C27.2417 39.3667 27.2835 39.3646 27.3252 39.3618C27.7576 39.6581 28.1899 39.9544 28.6223 40.2507C28.5806 40.2535 28.5389 40.2557 28.4971 40.2572Z" fill="white"/>
</mask>
<g mask="url(#mask41_5032_66050)">
<path d="M29.2897 38.7585L30.5868 39.6474C29.9449 40.0136 29.2295 40.2307 28.4957 40.2572C28.2675 40.2654 28.0373 40.255 27.8074 40.2247C27.1694 40.1417 26.5944 39.9153 26.1052 39.5801L24.8081 38.6912C25.2973 39.0264 25.8722 39.2528 26.5103 39.3358C26.7402 39.3661 26.9704 39.3764 27.1986 39.3683C27.9323 39.342 28.6478 39.1247 29.2897 38.7585Z" fill="#0E7A03"/>
</g>
<mask id="mask42_5032_66050" style="mask-type:luminance" maskUnits="userSpaceOnUse" x="17" y="23" width="23" height="5">
<path d="M38.3831 23.4821L39.6803 24.371C32.7256 25.367 25.7711 26.3627 18.8166 27.359L17.5195 26.47C24.474 25.474 31.4282 24.4783 38.3831 23.4821Z" fill="white"/>
</mask>
<g mask="url(#mask42_5032_66050)">
<path d="M38.3841 23.4821L39.6812 24.371C32.7265 25.367 25.7721 26.3627 18.8176 27.359L17.5205 26.47C24.475 25.474 31.4292 24.4783 38.3841 23.4821Z" fill="#0E7A03"/>
</g>
<mask id="mask43_5032_66050" style="mask-type:luminance" maskUnits="userSpaceOnUse" x="27" y="39" width="3" height="2">
<path d="M29.0385 40.2021C28.9009 40.2247 28.7619 40.2409 28.6223 40.2499C28.1899 39.9536 27.7576 39.6573 27.3252 39.361C27.4648 39.3517 27.6038 39.3358 27.7414 39.3132C28.1738 39.6095 28.6062 39.9058 29.0385 40.2021Z" fill="white"/>
</mask>
<g mask="url(#mask43_5032_66050)">
<path d="M29.2902 38.758L30.5873 39.6469C29.9454 40.0131 29.2299 40.2303 28.4962 40.2567C28.268 40.2649 28.0378 40.2545 27.8079 40.2242C27.1698 40.1412 26.5949 39.9148 26.1057 39.5796L24.8086 38.6907C25.2978 39.0259 25.8727 39.2523 26.5107 39.3353C26.7407 39.3656 26.9709 39.376 27.1991 39.3678C27.9328 39.3416 28.6483 39.1242 29.2902 38.758Z" fill="#0E7A03"/>
</g>
<mask id="mask44_5032_66050" style="mask-type:luminance" maskUnits="userSpaceOnUse" x="27" y="39" width="3" height="2">
<path d="M29.0574 40.1999C29.0513 40.201 29.0453 40.2019 29.0393 40.203C28.6069 39.9067 28.1746 39.6103 27.7422 39.314C27.7482 39.313 27.7542 39.3121 27.7603 39.311C28.1926 39.6073 28.625 39.9036 29.0574 40.1999Z" fill="white"/>
</mask>
<g mask="url(#mask44_5032_66050)">
<path d="M29.2892 38.7583L30.5863 39.6473C29.9444 40.0134 29.229 40.2306 28.4952 40.2571C28.267 40.2652 28.0368 40.2549 27.8069 40.2246C27.1689 40.1416 26.5939 39.9152 26.1047 39.58L24.8076 38.691C25.2968 39.0263 25.8718 39.2527 26.5098 39.3357C26.7397 39.366 26.9699 39.3763 27.1981 39.3682C27.9319 39.3419 28.6473 39.1245 29.2892 38.7583Z" fill="#0E7A03"/>
</g>
<mask id="mask45_5032_66050" style="mask-type:luminance" maskUnits="userSpaceOnUse" x="27" y="39" width="3" height="2">
<path d="M29.0788 40.1952C29.0704 40.1967 29.0618 40.1982 29.0535 40.1995C28.6211 39.9032 28.1887 39.6069 27.7563 39.3106C27.7647 39.3091 27.7733 39.3078 27.7817 39.3063C28.2141 39.6026 28.6465 39.8989 29.0788 40.1952Z" fill="white"/>
</mask>
<g mask="url(#mask45_5032_66050)">
<path d="M29.2882 38.7582L30.5853 39.6471C29.9434 40.0133 29.228 40.2305 28.4943 40.2569C28.266 40.2651 28.0359 40.2548 27.8059 40.2245C27.1679 40.1415 26.5929 39.9151 26.1037 39.5798L24.8066 38.6909C25.2958 39.0261 25.8708 39.2526 26.5088 39.3356C26.7387 39.3659 26.9689 39.3762 27.1971 39.368C27.9309 39.3418 28.6463 39.1244 29.2882 38.7582Z" fill="#0E7A03"/>
</g>
<path d="M38.3831 23.4818C38.4051 24.0202 38.4268 24.5584 38.449 25.0969C31.4943 26.0931 24.5398 27.0891 17.5854 28.0853C17.5634 27.5469 17.5417 27.0084 17.5195 26.47C24.4742 25.4738 31.4285 24.478 38.3831 23.4818Z" fill="white"/>
<mask id="mask46_5032_66050" style="mask-type:luminance" maskUnits="userSpaceOnUse" x="38" y="23" width="2" height="3">
<path d="M38.3823 23.4818L39.6794 24.3707C39.7014 24.9091 39.7231 25.4474 39.7453 25.9858L38.4481 25.0969C38.426 24.5584 38.4043 24.0202 38.3823 23.4818Z" fill="white"/>
</mask>
<g mask="url(#mask46_5032_66050)">
<path d="M38.3833 23.4818L39.6804 24.3707C39.7023 24.9091 39.7241 25.4474 39.7462 25.9858L38.4491 25.0969C38.427 24.5584 38.4052 24.0202 38.3833 23.4818Z" fill="#0E7A03"/>
</g>
<mask id="mask47_5032_66050" style="mask-type:luminance" maskUnits="userSpaceOnUse" x="17" y="25" width="23" height="4">
<path d="M38.4481 25.0968L39.7452 25.9857C32.7905 26.9819 25.836 27.9779 18.8816 28.9741L17.5845 28.0852C24.5392 27.089 31.4936 26.093 38.4481 25.0968Z" fill="white"/>
</mask>
<g mask="url(#mask47_5032_66050)">
<path d="M38.4481 25.0968L39.7452 25.9857C32.7905 26.9819 25.836 27.9779 18.8816 28.9741L17.5845 28.0852C24.5392 27.089 31.4936 26.093 38.4481 25.0968Z" fill="#0E7A03"/>
</g>
<mask id="mask48_5032_66050" style="mask-type:luminance" maskUnits="userSpaceOnUse" x="27" y="32" width="7" height="9">
<path d="M33.0679 36.2489C32.6349 38.2979 30.9732 39.8654 29.0832 40.1953C28.6509 39.899 28.2185 39.6027 27.7861 39.3064C29.6761 38.9765 31.3378 37.409 31.7708 35.36C31.9803 34.3681 31.8713 33.41 31.5148 32.5955L32.8119 33.4844C33.1684 34.2987 33.2774 35.257 33.0679 36.2489Z" fill="white"/>
</mask>
<g mask="url(#mask48_5032_66050)">
<path d="M31.5127 32.5957L32.8098 33.4846C32.8821 33.6495 32.944 33.8205 32.9954 33.9964L31.6983 33.1075C31.6469 32.9316 31.585 32.7606 31.5127 32.5957Z" fill="#0E7A03"/>
<path d="M31.6973 33.1074L32.9944 33.9963C33.1125 34.4012 33.1736 34.8324 33.1705 35.279L31.8734 34.39C31.8765 33.9434 31.8154 33.5123 31.6973 33.1074Z" fill="#0E7A03"/>
<path d="M31.8738 34.3903L33.1709 35.2792C33.1692 35.5495 33.1438 35.8253 33.0935 36.1042L31.7964 35.2153C31.8467 34.9364 31.8721 34.6605 31.8738 34.3903Z" fill="#0E7A03"/>
<path d="M31.7964 35.215L33.0935 36.1039C33.0847 36.152 33.0752 36.2004 33.0651 36.2488C33.0374 36.38 33.0047 36.5094 32.967 36.6365L31.6699 35.7476C31.7076 35.6205 31.7403 35.4913 31.768 35.3599C31.7783 35.3115 31.7878 35.2631 31.7964 35.215Z" fill="#0E7A03"/>
<path d="M31.6703 35.7479L32.9674 36.6368C32.924 36.7835 32.8743 36.9273 32.8186 37.068L31.5215 36.179C31.5772 36.0384 31.6269 35.8946 31.6703 35.7479Z" fill="#0E7A03"/>
<path d="M31.523 36.1791L32.8201 37.068C32.7691 37.197 32.713 37.3232 32.6521 37.4466L31.355 36.5577C31.4159 36.4343 31.4718 36.3081 31.523 36.1791Z" fill="#0E7A03"/>
<path d="M31.3542 36.5574L32.6513 37.4463C32.5932 37.5639 32.5311 37.6789 32.4646 37.7912L31.1675 36.9023C31.2337 36.79 31.2961 36.675 31.3542 36.5574Z" fill="#0E7A03"/>
<path d="M31.1668 36.9025L32.4639 37.7914C32.3986 37.9019 32.3295 38.0094 32.2566 38.1141L30.9595 37.2252C31.0324 37.1205 31.1014 37.0128 31.1668 36.9025Z" fill="#0E7A03"/>
<path d="M30.9598 37.2253L32.2569 38.1143C32.1829 38.2205 32.1053 38.3237 32.0242 38.4237L30.7271 37.5348C30.8081 37.4348 30.8858 37.3318 30.9598 37.2253Z" fill="#0E7A03"/>
<path d="M30.7275 37.5343L32.0246 38.4232C31.94 38.5273 31.8518 38.6279 31.76 38.7247L30.4629 37.8358C30.5547 37.739 30.6429 37.6386 30.7275 37.5343Z" fill="#0E7A03"/>
<path d="M30.4635 37.8361L31.7606 38.725C31.6623 38.8286 31.5599 38.928 31.4538 39.0228L30.1567 38.1339C30.2628 38.039 30.365 37.9397 30.4635 37.8361Z" fill="#0E7A03"/>
<path d="M30.1562 38.1338L31.4533 39.0227C31.3335 39.1298 31.2089 39.2311 31.0803 39.3261L29.7832 38.4372C29.9118 38.3424 30.0362 38.2411 30.1562 38.1338Z" fill="#0E7A03"/>
<path d="M29.7833 38.4368L31.0804 39.3257C30.9219 39.4427 30.7574 39.55 30.5876 39.6467L29.2905 38.7578C29.4602 38.661 29.6248 38.5537 29.7833 38.4368Z" fill="#0E7A03"/>
<path d="M29.2902 38.7582L30.5873 39.6471C29.9454 40.0133 29.2299 40.2305 28.4962 40.2569C28.268 40.2651 28.0378 40.2548 27.8079 40.2245C27.1698 40.1415 26.5949 39.9151 26.1057 39.5798L24.8086 38.6909C25.2978 39.0261 25.8727 39.2526 26.5107 39.3356C26.7407 39.3659 26.9709 39.3762 27.1991 39.368C27.9328 39.3418 28.6483 39.1244 29.2902 38.7582Z" fill="#0E7A03"/>
</g>
<path d="M31.3336 32.8489L31.5121 32.5956C31.8685 33.4099 31.9776 34.3682 31.7681 35.3601C31.2908 37.6183 29.3212 39.2919 27.1985 39.368C26.9703 39.3761 26.7401 39.3658 26.5102 39.3355C24.1397 39.0269 22.641 36.7406 23.1695 34.2398C23.6469 31.9812 25.616 30.3086 27.7391 30.2324C27.9673 30.2243 28.1975 30.2346 28.427 30.2645C29.3139 30.3797 30.0786 30.7719 30.6609 31.3486C30.4731 31.5508 30.2899 31.7565 30.1113 31.966C29.4935 32.6353 28.9616 33.366 28.4326 34.0994C28.1379 34.5123 27.8621 34.9385 27.5954 35.3709C27.3463 35.2642 27.0925 35.1645 26.8315 35.0746C26.4779 34.9337 26.0937 34.8348 25.7166 34.7267C25.3297 34.6327 24.9375 34.5456 24.514 34.5022L24.4752 34.4983C24.44 34.4987 24.4148 34.5114 24.3978 34.5344C24.3686 34.5725 24.3731 34.625 24.4073 34.6512C25.5785 35.5549 26.7707 36.4294 27.963 37.3037C27.9882 37.3214 28.0174 37.3293 28.0471 37.3283C28.0945 37.3265 28.1422 37.3022 28.1736 37.2579C29.2412 35.7981 30.2991 34.3321 31.334 32.8484L31.3336 32.8489Z" fill="#67E362"/>
<mask id="mask49_5032_66050" style="mask-type:luminance" maskUnits="userSpaceOnUse" x="24" y="31" width="11" height="11">
<path d="M25.3723 40.6535L24.0752 39.7646C24.6994 40.1922 25.433 40.4812 26.2469 40.5872C26.5406 40.6255 26.8338 40.6386 27.125 40.6281C29.8337 40.5309 32.3463 38.3961 32.9551 35.5148C33.2728 34.0116 33.0166 32.5694 32.3405 31.4231L33.6376 32.312C34.3137 33.4583 34.5699 34.9007 34.2522 36.4037C33.6434 39.285 31.1308 41.4198 28.4221 41.517C28.1311 41.5275 27.8377 41.5144 27.544 41.4762C26.7299 41.3701 25.9963 41.0812 25.3723 40.6535Z" fill="white"/>
</mask>
<g mask="url(#mask49_5032_66050)">
<path d="M32.3418 31.423L33.6389 32.3119C33.6929 32.4035 33.7443 32.497 33.7929 32.5921L32.4958 31.7032C32.4472 31.6079 32.396 31.5144 32.3418 31.423Z" fill="#0E7A03"/>
<path d="M32.4956 31.7034L33.7927 32.5923C33.9446 32.8901 34.0696 33.2051 34.1651 33.5339L32.868 32.645C32.7725 32.3162 32.6475 32.0012 32.4956 31.7034Z" fill="#0E7A03"/>
<path d="M32.8667 32.645L34.1638 33.5339C34.3133 34.0485 34.391 34.5966 34.3873 35.164L33.0902 34.2751C33.0939 33.7077 33.0162 33.1598 32.8667 32.645Z" fill="#0E7A03"/>
<path d="M33.0909 34.275L34.388 35.1639C34.3859 35.5088 34.3536 35.8608 34.2893 36.2169L32.9922 35.328C33.0565 34.9719 33.0886 34.6199 33.0909 34.275Z" fill="#0E7A03"/>
<path d="M32.9933 35.328L34.2904 36.2169C34.2792 36.2791 34.267 36.3414 34.2538 36.4038C34.2183 36.5715 34.1766 36.7366 34.1286 36.899L32.8315 36.0101C32.8795 35.8477 32.9215 35.6826 32.9567 35.5149C32.9699 35.4525 32.9821 35.3901 32.9933 35.328Z" fill="#0E7A03"/>
<path d="M32.8296 36.0099L34.1267 36.8988C34.0714 37.0861 34.008 37.2695 33.9368 37.449L32.6396 36.5601C32.7106 36.3808 32.7741 36.1972 32.8296 36.0099Z" fill="#0E7A03"/>
<path d="M32.6415 36.5602L33.9386 37.4491C33.8734 37.6136 33.8018 37.7746 33.7244 37.932L32.4272 37.0431C32.5049 36.8857 32.5763 36.7247 32.6415 36.5602Z" fill="#0E7A03"/>
<path d="M32.4266 37.0432L33.7237 37.9321C33.6497 38.0822 33.5703 38.2291 33.4856 38.3721L32.1885 37.4832C32.273 37.3402 32.3526 37.1933 32.4266 37.0432Z" fill="#0E7A03"/>
<path d="M32.1877 37.4832L33.4848 38.3721C33.4016 38.5129 33.3132 38.6503 33.2204 38.7838L31.9233 37.8949C32.0163 37.7614 32.1045 37.624 32.1877 37.4832Z" fill="#0E7A03"/>
<path d="M31.9243 37.8947L33.2214 38.7836C33.1272 38.919 33.028 39.0506 32.9245 39.1781L31.6274 38.2892C31.7309 38.1617 31.8299 38.0301 31.9243 37.8947Z" fill="#0E7A03"/>
<path d="M31.6285 38.2892L32.9256 39.1781C32.8179 39.3108 32.7051 39.4391 32.5881 39.5626L31.291 38.6736C31.408 38.5502 31.5208 38.4221 31.6285 38.2892Z" fill="#0E7A03"/>
<path d="M31.29 38.6737L32.5871 39.5626C32.4617 39.6949 32.3311 39.8217 32.196 39.9424L30.8989 39.0534C31.034 38.9326 31.1646 38.8059 31.29 38.6737Z" fill="#0E7A03"/>
<path d="M30.8985 39.0532L32.1956 39.9421C32.0426 40.0789 31.8839 40.2079 31.72 40.329L30.4229 39.4401C30.5868 39.319 30.7457 39.19 30.8985 39.0532Z" fill="#0E7A03"/>
<path d="M30.4235 39.4403L31.7206 40.3292C31.5186 40.4784 31.3084 40.6152 31.092 40.7388L29.7949 39.8499C30.0115 39.7263 30.2215 39.5895 30.4235 39.4403Z" fill="#0E7A03"/>
<path d="M29.7946 39.8499L31.0917 40.7388C30.2726 41.2061 29.3597 41.4832 28.4231 41.517C28.132 41.5275 27.8386 41.5144 27.545 41.4761C26.7308 41.3701 25.9973 41.0811 25.3733 40.6534L24.0762 39.7645C24.7004 40.1922 25.4339 40.4812 26.2479 40.5872C26.5415 40.6255 26.8347 40.6386 27.126 40.6281C28.0626 40.5945 28.9755 40.3174 29.7946 39.8499Z" fill="#0E7A03"/>
</g>
<path d="M42.4197 42.354C42.4535 43.1853 41.8256 43.9529 41.0174 44.0688L15.9222 47.663C15.8703 47.6705 15.8191 47.675 15.7686 47.6767C15.029 47.7032 14.4293 47.1452 14.3975 46.3672L13.2598 18.4448L17.9042 16.9867C18.6044 16.7775 19.1195 16.0748 19.0886 15.3198L18.9019 10.7348L39.539 7.77931C39.5908 7.77179 39.6422 7.76727 39.693 7.76555C40.4321 7.7391 41.032 8.29709 41.0637 9.07505L42.4197 42.354ZM34.4407 28.3993C34.4583 28.3733 34.463 28.3404 34.4501 28.3125C34.4372 28.2845 34.4101 28.2692 34.3813 28.2703C34.3686 28.2707 34.3553 28.2746 34.3424 28.2819L34.3067 28.3026C33.876 28.549 33.4819 28.8221 33.1074 29.1091L32.5516 29.5446L32.0306 30.0047C31.8759 30.1434 31.7234 30.284 31.5739 30.4264C30.8275 29.6744 29.8406 29.1625 28.6938 29.013C28.4 28.9747 28.1066 28.9618 27.8153 28.9724C25.1069 29.0696 22.5946 31.2041 21.9854 34.0854C21.3113 37.2764 23.2232 40.193 26.2478 40.5869C26.5414 40.6252 26.8346 40.6385 27.1259 40.628C29.8343 40.5308 32.347 38.3958 32.9558 35.5145C33.2733 34.0113 33.0175 32.5693 32.341 31.423L32.8988 30.6317C33.4249 29.8965 33.9259 29.1429 34.4407 28.3993ZM17.3311 22.2578C17.3529 22.796 17.3748 23.3344 17.397 23.8726C24.3514 22.8766 31.3061 21.8804 38.2606 20.8844C38.2384 20.3462 38.2165 19.8078 38.1947 19.2692C31.2403 20.2656 24.2856 21.2618 17.3311 22.2578ZM17.5869 28.085C24.5414 27.089 31.4956 26.0928 38.4505 25.0968C38.4284 24.5586 38.4064 24.0201 38.3847 23.4819C31.43 24.4779 24.4755 25.4737 17.5211 26.4699C17.5432 27.0081 17.5647 27.5468 17.5869 28.085ZM33.1672 15.7496C29.3594 16.2949 25.5515 16.8405 21.7432 17.3862C21.7654 17.9244 21.7873 18.4628 21.809 19.001C25.6173 18.4553 29.4252 17.9102 33.233 17.3649C33.2109 16.8267 33.1894 16.2878 33.1672 15.7496Z" fill="url(#paint1_linear_5032_66050)"/>
<path d="M33.1665 15.75C33.1886 16.2884 33.2103 16.8266 33.2323 17.3651C29.4242 17.9106 25.6164 18.4559 21.8085 19.0012C21.7866 18.4628 21.7648 17.9245 21.7427 17.3861C25.5505 16.8406 29.3586 16.2951 33.1665 15.75Z" fill="white"/>
<mask id="mask50_5032_66050" style="mask-type:luminance" maskUnits="userSpaceOnUse" x="40" y="7" width="3" height="3">
<path d="M40.4897 7.99146L41.7869 8.88037C42.122 9.11001 42.3455 9.49749 42.3644 9.96409L41.0673 9.07518C41.0482 8.60858 40.8249 8.2211 40.4897 7.99146Z" fill="white"/>
</mask>
<g mask="url(#mask50_5032_66050)">
<path d="M40.4883 7.99146L41.7854 8.88037C41.8118 8.89864 41.8379 8.91778 41.8628 8.93799L40.5657 8.04908C40.5406 8.02887 40.5147 8.00973 40.4883 7.99146Z" fill="#0E7A03"/>
<path d="M40.5664 8.04907L41.8635 8.93798C41.8945 8.96293 41.9246 8.98938 41.9532 9.01711L40.6561 8.1282C40.6275 8.10046 40.5976 8.07402 40.5664 8.04907Z" fill="#0E7A03"/>
<path d="M40.6553 8.12793L41.9524 9.01684C41.9827 9.0463 42.0117 9.07705 42.0393 9.10952L40.7422 8.22061C40.7146 8.18814 40.6858 8.15739 40.6553 8.12793Z" fill="#0E7A03"/>
<path d="M40.7417 8.2207L42.0388 9.10962C42.0689 9.14509 42.0973 9.18229 42.1238 9.22121L40.8267 8.3323C40.8002 8.29338 40.7718 8.25618 40.7417 8.2207Z" fill="#0E7A03"/>
<path d="M40.8276 8.33215L42.1247 9.22107C42.1564 9.26751 42.185 9.31611 42.211 9.36685L40.9139 8.47794C40.8881 8.42719 40.8593 8.37838 40.8276 8.33215Z" fill="#0E7A03"/>
<path d="M40.9116 8.47803L42.2087 9.36694C42.2477 9.44349 42.2799 9.52498 42.3047 9.61056L41.0076 8.72165C40.9828 8.63607 40.9506 8.55458 40.9116 8.47803Z" fill="#0E7A03"/>
<path d="M41.0093 8.72192L42.3064 9.61084C42.3384 9.722 42.358 9.84048 42.363 9.96434L41.0659 9.07542C41.0607 8.95157 41.0413 8.83331 41.0093 8.72192Z" fill="#0E7A03"/>
</g>
<mask id="mask51_5032_66050" style="mask-type:luminance" maskUnits="userSpaceOnUse" x="14" y="47" width="4" height="2">
<path d="M16.2732 48.3395L14.9761 47.4506C15.1998 47.6039 15.4736 47.6871 15.7696 47.6763C15.8204 47.6746 15.8716 47.6701 15.9232 47.6626L17.2203 48.5515C17.1685 48.559 17.1173 48.5635 17.0667 48.5652C16.7707 48.5758 16.4969 48.4928 16.2732 48.3395Z" fill="white"/>
</mask>
<g mask="url(#mask51_5032_66050)">
<path d="M15.9237 47.6627L17.2208 48.5516C17.169 48.5591 17.1178 48.5637 17.0672 48.5654C16.7712 48.5759 16.4974 48.4929 16.2737 48.3396L14.9766 47.4507C15.2003 47.604 15.4741 47.6872 15.7701 47.6765C15.8209 47.6747 15.8721 47.6702 15.9237 47.6627Z" fill="#0E7A03"/>
</g>
<path d="M34.495 28.2912C34.4733 28.2442 34.4275 28.2184 34.3797 28.2197V28.2197L34.3792 28.2197C34.3789 28.2197 34.3785 28.2197 34.3782 28.2197L34.378 28.2197C34.3564 28.2204 34.3351 28.2266 34.3155 28.2379L34.3154 28.2379L34.2799 28.2585C34.2799 28.2585 34.2798 28.2585 34.2798 28.2585C33.8468 28.5065 33.4506 28.781 33.0748 29.069L33.0743 29.0694L32.5187 29.5048L32.5187 29.5047L32.5164 29.5067L31.9954 29.9668L31.9951 29.9671C31.8401 30.1061 31.6874 30.2473 31.5374 30.39L31.5374 30.39C31.2219 30.69 30.9174 30.9978 30.6241 31.3141L30.6241 31.3141C30.4361 31.5169 30.2528 31.723 30.074 31.9325C29.4541 32.6042 28.9202 33.337 28.3918 34.07L28.3917 34.0702C28.1048 34.4723 27.8356 34.8867 27.5755 35.3071C27.3388 35.2067 27.0974 35.1127 26.8497 35.0271C26.5588 34.9115 26.2473 34.8239 25.939 34.7372C25.8695 34.7177 25.8002 34.6982 25.7313 34.6784L25.7313 34.6784L25.7293 34.6779C25.3416 34.5836 24.9467 34.4958 24.5198 34.452L24.519 34.4519L24.47 34.4476L24.47 34.4473L24.4638 34.4475C24.423 34.4489 24.3838 34.4695 24.3577 34.5041L24.3577 34.5041C24.3149 34.5609 24.3173 34.6457 24.3768 34.692L24.3769 34.6921C25.5488 35.5963 26.7414 36.4714 27.9337 37.3454L27.9344 37.346C27.9691 37.3705 28.0097 37.3812 28.0498 37.3798L28.0498 37.3798C28.113 37.3775 28.1753 37.3453 28.2156 37.2885C29.283 35.8287 30.3412 34.3621 31.3763 32.8783C31.3764 32.8783 31.3764 32.8782 31.3764 32.8782L31.5548 32.6253L31.5548 32.6253L32.3819 31.4526L32.9395 30.662C32.9395 30.6619 32.9396 30.6619 32.9396 30.6618C33.2795 30.1864 33.6093 29.703 33.9387 29.2202C34.1192 28.9557 34.2996 28.6913 34.4814 28.4285L34.4817 28.428C34.5075 28.3899 34.5166 28.3377 34.495 28.2912ZM34.495 28.2912L34.4487 28.3126M34.495 28.2912C34.495 28.2912 34.495 28.2911 34.495 28.2911L34.4487 28.3126M34.4487 28.3126C34.4358 28.2847 34.4089 28.2696 34.3801 28.2707L34.4487 28.3126Z" fill="white" stroke="white" stroke-width="0.102004"/>
<path d="M27.9415 28.9183L27.9433 28.9165L27.8136 28.9212C25.0803 29.0195 22.5489 31.172 21.9356 34.0747C21.2556 37.2912 23.1834 40.2391 26.2411 40.6375L27.9415 28.9183ZM27.9415 28.9183C28.1934 28.9152 28.4466 28.9296 28.7 28.9627M27.9415 28.9183L28.7001 28.9627C28.7001 28.9627 28.7 28.9627 28.7 28.9627M28.7 28.9627C29.8582 29.1136 30.8555 29.6308 31.61 30.3909L31.6467 30.4278L31.6089 30.4638C31.295 30.7624 30.992 31.0689 30.7002 31.3833L30.6643 31.4219L30.6269 31.3849C30.0524 30.8161 29.2979 30.429 28.4225 30.3148L28.7 28.9627ZM27.1276 40.6788C29.861 40.5807 32.3924 38.4279 33.0057 35.5251C33.326 34.01 33.068 32.5546 32.3852 31.3969L32.3451 31.3289L32.2996 31.3934L31.4725 32.5661L31.4559 32.5896L31.4675 32.616C31.8193 33.4205 31.9276 34.3678 31.72 35.3496C31.2475 37.5862 29.2967 39.2415 27.1986 39.3168C26.9733 39.3249 26.746 39.3147 26.5188 39.2851C24.1812 38.9805 22.6982 36.7258 23.2213 34.2504L23.1714 34.2398L23.2213 34.2504C23.6939 32.0135 25.6447 30.3584 27.743 30.2832L27.1276 40.6788Z" fill="white" stroke="white" stroke-width="0.102004"/>
<path d="M41.0156 44.0688L42.3128 44.9578L17.2173 48.5517L15.9204 47.663L41.0156 44.0688Z" fill="#0E7A03"/>
<path d="M41.063 9.07471L42.3599 9.96362L43.7157 43.2428L42.4188 42.3539L41.063 9.07471Z" fill="#0E7A03"/>
<mask id="mask52_5032_66050" style="mask-type:luminance" maskUnits="userSpaceOnUse" x="41" y="42" width="3" height="3">
<path d="M42.4199 42.3542L43.717 43.2432C43.7507 44.0744 43.1228 44.8421 42.3147 44.958L41.0176 44.0691C41.8257 43.9532 42.4534 43.1855 42.4199 42.3542Z" fill="white"/>
</mask>
<g mask="url(#mask52_5032_66050)">
<path d="M42.4199 42.3542L43.717 43.2432C43.7179 43.2657 43.7183 43.2881 43.7183 43.3105L42.4212 42.4216C42.4212 42.3992 42.4208 42.3766 42.4199 42.3542Z" fill="#0E7A03"/>
<path d="M42.4209 42.4215L43.718 43.3104C43.718 43.4052 43.7092 43.4988 43.6926 43.5906L42.3955 42.7017C42.4121 42.6099 42.4207 42.5163 42.4209 42.4215Z" fill="#0E7A03"/>
<path d="M42.3955 42.7017L43.6926 43.5906C43.6819 43.6499 43.6681 43.7084 43.6511 43.7658L42.354 42.8769C42.371 42.8195 42.3848 42.761 42.3955 42.7017Z" fill="#0E7A03"/>
<path d="M42.3542 42.877L43.6513 43.7659C43.6369 43.8145 43.6203 43.8624 43.6018 43.9093L42.3047 43.0204C42.3232 42.9733 42.3398 42.9255 42.3542 42.877Z" fill="#0E7A03"/>
<path d="M42.3052 43.0205L43.6023 43.9094C43.5853 43.9524 43.5666 43.9946 43.5461 44.0361L42.249 43.1472C42.2695 43.1057 42.2882 43.0635 42.3052 43.0205Z" fill="#0E7A03"/>
<path d="M42.2491 43.1473L43.5462 44.0363C43.5269 44.0756 43.5058 44.1143 43.4836 44.1521L42.1865 43.2632C42.2089 43.2254 42.2298 43.1869 42.2491 43.1473Z" fill="#0E7A03"/>
<path d="M42.1854 43.2628L43.4825 44.1517C43.4606 44.1887 43.4373 44.2251 43.4128 44.2603L42.1157 43.3714C42.1402 43.3361 42.1635 43.3 42.1854 43.2628Z" fill="#0E7A03"/>
<path d="M42.1169 43.3715L43.414 44.2604C43.3893 44.2959 43.3635 44.3303 43.3362 44.3638L42.0391 43.4749C42.0662 43.4413 42.0922 43.4069 42.1169 43.3715Z" fill="#0E7A03"/>
<path d="M42.0392 43.4747L43.3363 44.3636C43.3081 44.3983 43.2788 44.4318 43.2483 44.4641L41.9512 43.5751C41.9817 43.5429 42.0112 43.5094 42.0392 43.4747Z" fill="#0E7A03"/>
<path d="M41.95 43.5753L43.2472 44.4642C43.2145 44.4988 43.1803 44.532 43.1448 44.5636L41.8477 43.6747C41.8831 43.6431 41.9171 43.6097 41.95 43.5753Z" fill="#0E7A03"/>
<path d="M41.8484 43.6747L43.1455 44.5636C43.1059 44.5989 43.0648 44.6324 43.0222 44.6638L41.7251 43.7749C41.7677 43.7435 41.809 43.7099 41.8484 43.6747Z" fill="#0E7A03"/>
<path d="M41.7241 43.775L43.0213 44.6639C42.9692 44.7024 42.915 44.7377 42.8586 44.7697L41.5615 43.8808C41.6177 43.8488 41.6721 43.8135 41.7241 43.775Z" fill="#0E7A03"/>
<path d="M41.562 43.8809L42.8591 44.7698C42.6924 44.8646 42.5087 44.9302 42.3147 44.9579L41.0176 44.069C41.2116 44.0411 41.3955 43.9757 41.562 43.8809Z" fill="#0E7A03"/>
</g>
<path d="M42.7719 8.99641L42.7696 9.03815C42.7696 9.03815 42.7696 9.03815 42.7696 9.03815L42.7719 8.99641ZM41.0877 8.27625C41.3058 8.67992 41.6847 9.01781 42.353 9.1654C42.1155 9.25017 41.8224 9.39054 41.5615 9.67557C41.316 9.94378 41.1089 10.3261 40.9787 10.8817C40.926 10.6542 40.843 10.3923 40.6962 10.1506C40.4674 9.77401 40.0937 9.4523 39.4855 9.30421C39.4971 9.3004 39.5086 9.29656 39.52 9.29268C40.1151 9.08984 40.4947 8.56637 40.7156 7.69206C40.7454 7.57424 40.7725 7.44913 40.7971 7.31642C40.7993 7.32781 40.8015 7.3394 40.8037 7.35121C40.8174 7.42434 40.8327 7.50571 40.853 7.59964C40.8984 7.80899 40.9642 8.04756 41.0877 8.27625Z" fill="white" stroke="white" stroke-width="0.462398" stroke-miterlimit="10"/>
<path d="M13.5047 21.6544C13.5293 21.5864 13.551 21.5141 13.5704 21.4377C13.5897 21.3612 13.6069 21.2793 13.622 21.1917C13.6238 21.201 13.6256 21.2103 13.6274 21.2198C13.6831 21.5142 13.7603 21.922 14.3198 22.0531C14.2351 22.0807 14.1277 22.1221 14.0178 22.194M13.5047 21.6544C13.4662 21.5597 13.4423 21.467 13.4247 21.3861C13.4124 21.3291 13.4042 21.2849 13.3972 21.2474C13.3936 21.2278 13.3903 21.2101 13.3869 21.1933C13.2835 21.752 13.0919 22.0284 12.804 22.1265C12.8037 22.1266 12.8034 22.1267 12.8031 22.1268C12.8035 22.1269 12.8039 22.127 12.8042 22.1271C12.9177 22.1509 13.0184 22.1854 13.1074 22.2284M13.5047 21.6544C13.5198 21.6915 13.5372 21.7289 13.5572 21.7661C13.6525 21.9425 13.7988 22.0934 14.0178 22.194M13.5047 21.6544C13.4136 21.9075 13.2849 22.1014 13.1074 22.2284M13.1074 22.2284C13.0387 22.2776 12.9627 22.3167 12.8786 22.3453C12.8573 22.3526 12.8354 22.3596 12.813 22.3664C13.2769 22.4862 13.4183 22.8176 13.4802 23.083C13.5101 22.9433 13.549 22.8213 13.5954 22.7145M13.1074 22.2284C13.3079 22.3253 13.4497 22.4658 13.5475 22.6267C13.565 22.6555 13.5809 22.6849 13.5954 22.7145M13.5954 22.7145C13.658 22.8422 13.6941 22.9741 13.7172 23.083C13.8467 22.54 14.1191 22.3727 14.3356 22.2927C14.2156 22.27 14.1102 22.2364 14.0178 22.194M13.5954 22.7145C13.6575 22.572 13.733 22.4567 13.8186 22.3632C13.8828 22.293 13.9508 22.2378 14.0178 22.194" fill="white" stroke="white" stroke-width="0.462398" stroke-miterlimit="10"/>
<path d="M14.687 45.4922C14.7103 45.4262 14.7312 45.3564 14.7498 45.2828C14.7703 45.2016 14.7884 45.1143 14.8044 45.0207C14.807 45.0341 14.8096 45.0478 14.8122 45.0617C14.8693 45.3633 14.9485 45.7817 15.5265 45.9132C15.4411 45.9407 15.3318 45.9819 15.2195 46.0541M14.687 45.4922C14.6504 45.3998 14.6272 45.3095 14.61 45.2303C14.5975 45.1726 14.5892 45.1276 14.582 45.0893C14.5775 45.065 14.5735 45.0434 14.5693 45.023C14.4643 45.6003 14.2684 45.8853 13.9729 45.986C13.9698 45.9871 13.9667 45.9882 13.9636 45.9892C13.9673 45.99 13.9711 45.9908 13.9748 45.9915C14.0862 46.0151 14.1853 46.0488 14.2734 46.0907M14.687 45.4922C14.7033 45.5334 14.7223 45.5751 14.7447 45.6165C14.8424 45.7974 14.9929 45.9519 15.2195 46.0541M14.687 45.4922C14.593 45.7579 14.4592 45.9601 14.2734 46.0907M14.2734 46.0907C14.2053 46.1385 14.1302 46.1767 14.0475 46.2049C14.0236 46.213 13.9989 46.2209 13.9736 46.2284C14.4593 46.3502 14.6024 46.6976 14.6646 46.9714C14.6944 46.8293 14.7334 46.705 14.7799 46.5962M14.2734 46.0907C14.4807 46.1892 14.6267 46.3332 14.727 46.4983C14.7465 46.5304 14.764 46.5632 14.7799 46.5962M14.7799 46.5962C14.8426 46.7269 14.8785 46.8613 14.9014 46.9713C15.034 46.4027 15.3191 46.2333 15.5424 46.1524C15.4206 46.1299 15.3135 46.0965 15.2195 46.0541M14.7799 46.5962C14.8437 46.4471 14.9217 46.3272 15.0104 46.2303C15.0779 46.1566 15.1493 46.0993 15.2195 46.0541" fill="white" stroke="white" stroke-width="0.462398" stroke-miterlimit="10"/>
<path d="M46.1737 40.325C46.1984 40.1772 46.1968 40.0253 46.1691 39.8782C46.1414 39.7311 46.0881 39.5916 46.0123 39.4676C45.9364 39.3436 45.8395 39.2376 45.727 39.1557C45.6146 39.0738 45.4888 39.0175 45.3569 38.9902L45.4045 38.6849C45.6852 38.7185 45.9667 38.6293 46.1902 38.4359C46.4137 38.2426 46.562 37.9599 46.6042 37.6469L46.8663 37.6862C46.8401 37.8308 46.8401 37.9798 46.8662 38.1245C46.8922 38.2691 46.944 38.4065 47.0183 38.5283C47.0925 38.6501 47.1878 38.754 47.2986 38.8338C47.4093 38.9136 47.5331 38.9676 47.6628 38.9927L47.6125 39.3029C47.3323 39.2721 47.0521 39.3624 46.8292 39.5553C46.6063 39.7482 46.4573 40.0291 46.4128 40.3409L46.1737 40.325Z" fill="#EBFF25"/>
<path d="M19.6808 41.7274C19.4813 41.8482 19.225 41.7501 19.1085 41.5082C18.992 41.2663 19.0592 40.9722 19.2588 40.8513C19.4584 40.7304 19.7146 40.8286 19.8311 41.0705C19.9477 41.3124 19.8804 41.6065 19.6808 41.7274Z" fill="#5DB16F"/>
<path d="M22.4324 43.5396C22.1091 43.7355 21.6939 43.5765 21.5051 43.1846C21.3163 42.7927 21.4253 42.3162 21.7486 42.1203C22.0719 41.9245 22.4871 42.0835 22.6759 42.4754C22.8647 42.8673 22.7557 43.3438 22.4324 43.5396Z" fill="#EBFF25"/>
<defs>
<linearGradient id="paint0_linear_5032_66050" x1="28.5" y1="-4.47034e-08" x2="27" y2="73" gradientUnits="userSpaceOnUse">
<stop stop-color="#1D944D" stop-opacity="0.32"/>
<stop offset="1" stop-color="#88CD55"/>
</linearGradient>
<linearGradient id="paint1_linear_5032_66050" x1="27.8404" y1="7.76465" x2="27.8404" y2="47.6776" gradientUnits="userSpaceOnUse">
<stop stop-color="#C1F542"/>
<stop offset="1" stop-color="#46C741"/>
</linearGradient>
</defs>
</svg>
