<svg width="27" height="27" viewBox="0 0 27 27" fill="none" xmlns="http://www.w3.org/2000/svg">
<path d="M13.4998 24.3332C7.51659 24.3332 2.6665 19.4831 2.6665 13.4998C2.6665 7.51659 7.51659 2.6665 13.4998 2.6665C19.4831 2.6665 24.3332 7.51659 24.3332 13.4998C24.3332 19.4831 19.4831 24.3332 13.4998 24.3332ZM13.4998 22.1665C15.7984 22.1665 18.0028 21.2534 19.6281 19.6281C21.2534 18.0028 22.1665 15.7984 22.1665 13.4998C22.1665 11.2013 21.2534 8.99689 19.6281 7.37158C18.0028 5.74626 15.7984 4.83317 13.4998 4.83317C11.2013 4.83317 8.99689 5.74626 7.37158 7.37158C5.74626 8.99689 4.83317 11.2013 4.83317 13.4998C4.83317 15.7984 5.74626 18.0028 7.37158 19.6281C8.99689 21.2534 11.2013 22.1665 13.4998 22.1665ZM14.5832 13.4998H18.9165V15.6665H12.4165V8.08317H14.5832V13.4998Z" fill="#EBB62F"/>
</svg>
