<?xml version="1.0" encoding="UTF-8"?><svg xmlns="http://www.w3.org/2000/svg" viewBox="0 0 375 195"><defs><style>.cls-1{fill:#037242;}.cls-2{fill:#f5fe8f;}.cls-3,.cls-4{fill:#fff;}.cls-5{fill:#f1f1f1;}.cls-6{fill:#eddad5;}.cls-7{fill:#ff6554;}.cls-8{fill:#b2d234;}.cls-9{fill:#e0372f;}.cls-10{fill:#1f1f24;}.cls-11{fill:#1e3f58;}.cls-12{fill:#29b57e;}.cls-13{fill:#353538;}.cls-14{fill:#4f4f4f;}.cls-15{opacity:.23;}.cls-16{opacity:.44;}.cls-17,.cls-4{opacity:.35;}</style></defs><g id="Layer_5"><g class="cls-16"><polygon points="314.37 96.35 309.49 93.52 309.57 119.39 314.44 122.23 314.37 96.35"/><polygon class="cls-14" points="322.52 91.65 317.64 88.82 309.49 93.52 314.37 96.35 322.52 91.65"/><polygon class="cls-10" points="314.37 96.35 314.44 122.23 322.59 117.53 322.52 91.65 314.37 96.35"/><polygon points="327.98 66.91 323.1 64.08 323.22 105.39 328.1 108.22 327.98 66.91"/><polygon class="cls-10" points="327.98 66.91 328.1 108.22 336.24 103.52 336.13 62.21 327.98 66.91"/><polygon points="355.38 71.78 350.5 68.95 350.6 101.52 355.47 104.36 355.38 71.78"/><polygon class="cls-14" points="363.53 67.08 358.65 64.24 350.5 68.95 355.38 71.78 363.53 67.08"/><polygon class="cls-10" points="355.38 71.78 355.47 104.36 363.62 99.65 363.53 67.08 355.38 71.78"/><g class="cls-15"><polygon class="cls-6" points="341.79 108.89 336.92 106.05 336.96 120.88 341.83 123.72 341.79 108.89"/><polygon class="cls-3" points="349.94 104.18 345.06 101.35 336.92 106.05 341.79 108.89 349.94 104.18"/><polygon class="cls-6" points="245.94 110.87 241.06 108.04 241.08 113.59 245.95 116.43 245.94 110.87"/><polygon class="cls-3" points="254.09 106.17 249.21 103.34 241.06 108.04 245.94 110.87 254.09 106.17"/><polygon class="cls-6" points="287.01 105.54 282.13 102.7 282.27 150.69 287.14 153.53 287.01 105.54"/><polygon class="cls-3" points="295.15 100.83 290.28 98 282.13 102.7 287.01 105.54 295.15 100.83"/><polygon class="cls-6" points="369.14 92.74 364.26 89.9 364.35 123.28 369.23 126.12 369.14 92.74"/><polygon class="cls-3" points="377.28 88.03 372.41 85.2 364.26 89.9 369.14 92.74 377.28 88.03"/></g><polygon points="218.74 117.42 213.86 114.59 213.88 137.96 218.76 140.8 218.74 117.42"/><polygon class="cls-14" points="226.89 112.72 222.01 109.88 213.86 114.59 218.74 117.42 226.89 112.72"/><polygon class="cls-10" points="218.74 117.42 218.76 140.8 226.9 136.09 226.89 112.72 218.74 117.42"/><polygon points="204.99 135.65 200.11 132.82 200.13 165.11 205.01 167.94 204.99 135.65"/><polygon class="cls-14" points="213.14 130.95 208.26 128.12 200.11 132.82 204.99 135.65 213.14 130.95"/><polygon class="cls-10" points="204.99 135.65 205.01 167.94 213.15 163.24 213.14 130.95 204.99 135.65"/><polygon points="191.01 167.82 186.14 164.98 186.15 182.76 191.03 185.6 191.01 167.82"/><polygon class="cls-14" points="199.16 163.11 194.28 160.28 186.14 164.98 191.01 167.82 199.16 163.11"/><polygon class="cls-10" points="191.01 167.82 191.03 185.6 199.18 180.89 199.16 163.11 191.01 167.82"/><polygon points="232.15 78.76 227.28 75.92 227.39 117.31 232.27 120.14 232.15 78.76"/><polygon class="cls-14" points="240.3 74.05 235.42 71.22 227.28 75.92 232.15 78.76 240.3 74.05"/><polygon class="cls-10" points="232.15 78.76 232.27 120.14 240.42 115.44 240.3 74.05 232.15 78.76"/></g></g><g id="Layer_1"><path d="m230.27,143.64c-1.23.67-3.1,1.95-3.65,4.05-.66,2.5.87,4.93,3.6,8.28,4.74,5.82,8.9,10.91,17.66,15.96,4.26,2.45,6.94,4,10.88,5.02,13.42,3.45,31.39-1.85,33.8-11.7.41-1.66.68-4.73-1.68-9.22-20.2-4.13-40.41-8.25-60.61-12.38Z"/><path d="m300.34,114.51c-1.23.67-3.1,1.95-3.65,4.05-.66,2.5.87,4.93,3.6,8.28,4.74,5.82,8.9,10.91,17.66,15.96,4.26,2.45,6.94,4,10.88,5.02,13.42,3.45,31.39-1.85,33.8-11.7.41-1.66.68-4.73-1.68-9.22-20.2-4.13-40.41-8.25-60.61-12.38Z"/><path class="cls-7" d="m189.38,21.48c-.32,0-.65-.1-.99-.3-1.11-.64-1.98-2.15-1.98-3.43,0-.48.12-.89.36-1.18.44-.55,1.23-.63,2-.18,1.11.64,1.98,2.15,1.98,3.43,0,.99-.55,1.66-1.37,1.66Zm-1.61-4.63c-.18,0-.32.07-.42.19-.13.16-.19.4-.19.71,0,1,.74,2.28,1.61,2.78.22.13.43.19.61.19.55,0,.61-.63.61-.9,0-1-.74-2.28-1.61-2.78-.22-.13-.43-.2-.61-.2Z"/><path class="cls-7" d="m205.82,94.01s-.02,0-.03,0c-.15-.01-.29-.12-.33-.27-.21-.69-.56-1.46-1-2.22-.44-.76-.93-1.45-1.42-1.98-.11-.11-.13-.28-.06-.42.07-.14.21-.23.37-.21.43.03.87-.07,1.26-.29.39-.22.69-.55.88-.94.07-.14.2-.23.37-.21.16.01.29.12.33.27.22.69.56,1.46,1,2.22.42.73.89,1.39,1.37,1.91.11.07.18.19.18.32,0,.21-.17.38-.39.38-.01,0-.02,0-.04,0-.42-.03-.87.07-1.26.29-.39.22-.7.55-.88.94-.06.13-.2.21-.34.21Zm-1.74-4.4c.36.46.71.98,1.03,1.53.32.56.6,1.12.81,1.66.21-.23.46-.44.74-.6.28-.16.58-.28.89-.34-.36-.46-.71-.97-1.03-1.53-.32-.56-.6-1.12-.81-1.66-.21.23-.46.44-.74.6-.28.16-.58.28-.89.34Z"/><path class="cls-7" d="m113.44,148.05c-.48,0-.98-.03-1.49-.09-1.67-.19-2.97-.64-2.97-1.01,0-.14.18-.26.54-.35.65-.16,1.84-.19,3-.05,1.67.19,2.97.64,2.97,1.01,0,.29-.83.49-2.06.49Zm-2.41-1.37c-.26,0-.48.02-.63.06-.19.05-.29.12-.29.21,0,.3,1.1.67,2.41.82.33.04.65.06.92.06.83,0,.92-.19.92-.27,0-.3-1.1-.67-2.41-.82-.33-.04-.65-.06-.92-.06Z"/><path class="cls-7" d="m23.62,26.34c-.21,0-.38-.17-.38-.38v-4.1c0-.21.17-.38.37-.38h0c.21,0,.38.17.38.38v4.09c0,.21-.17.38-.38.38h0Z"/><path class="cls-7" d="m27.17,24.29h-7.09c-.21,0-.38-.17-.38-.38s.17-.38.38-.38h7.09c.21,0,.38.17.38.38s-.17.38-.38.38Z"/></g><g id="Layer_3"><path class="cls-12" d="m325.35,140.01c2.31,1.79,6.39,2.34,9.1,1.23l25.21-10.33c2.71-1.11,3.03-3.46.72-5.26l-24.55-18.98-35.03,14.35,24.55,18.99Z"/><path class="cls-11" d="m329.71,141.92c-1.75-.24-3.35-.86-4.5-1.75l-24.55-18.99c-.06-.05-.09-.12-.08-.2s.06-.14.13-.17l35.03-14.35c.07-.03.15-.02.21.03l24.55,18.98c1.18.91,1.75,2.01,1.61,3.08-.15,1.07-.99,1.98-2.38,2.54l-25.21,10.33c-1.35.55-3.06.72-4.82.49Zm-28.5-20.84l24.26,18.76c1.09.84,2.62,1.43,4.3,1.66,1.68.23,3.32.07,4.6-.46l25.21-10.33c1.24-.51,1.99-1.29,2.12-2.21.12-.91-.39-1.87-1.45-2.69l-24.45-18.91-34.58,14.17Z"/><path class="cls-1" d="m334.77,99.9l-35.03,14.35c-.54.22-.92.79-1.04,1.66-.24,1.74.7,4.03,2.09,5.11l35.03-14.35.86-6.31c-.7-.54-1.38-.67-1.91-.46Z"/><path class="cls-1" d="m300.77,121.23s-.07-.02-.1-.04c-1.44-1.12-2.42-3.49-2.18-5.3.12-.92.54-1.57,1.17-1.83l35.03-14.35c.62-.25,1.39-.08,2.12.49.06.05.09.12.08.2l-.86,6.31c-.01.07-.06.14-.13.17l-35.03,14.35s-.07.02-.11.01Zm34.71-21.2c-.23-.03-.44,0-.63.07l-35.03,14.35c-.48.2-.81.73-.91,1.49-.22,1.63.63,3.77,1.92,4.83l34.8-14.26.82-6.07c-.33-.24-.67-.38-.98-.43Z"/><polygon class="cls-5" points="359.96 128.21 333.31 107.59 303.35 119.87 330.01 140.48 359.96 128.21"/><path class="cls-10" d="m329.98,140.69s-.07-.02-.1-.04l-26.66-20.62c-.06-.05-.09-.12-.08-.2s.06-.14.13-.17l29.95-12.27c.07-.03.15-.02.21.03l26.66,20.62c.06.05.09.12.08.2s-.06.14-.13.17l-29.95,12.27s-.07.02-.11.01Zm-26.21-20.77l26.27,20.32,29.5-12.09-26.27-20.32-29.5,12.09Z"/><polygon class="cls-5" points="360.25 126.11 333.59 105.49 303.64 117.76 330.3 138.38 360.25 126.11"/><path class="cls-10" d="m330.27,138.59s-.07-.02-.1-.04l-26.66-20.62c-.06-.05-.09-.12-.08-.2s.06-.14.13-.17l29.95-12.28c.07-.03.15-.02.21.03l26.66,20.62c.06.05.09.12.08.2s-.06.14-.13.17l-29.95,12.28s-.07.02-.11.01Zm-26.21-20.77l26.27,20.32,29.5-12.09-26.27-20.32-29.5,12.09Z"/><polygon class="cls-5" points="359.69 123.35 333.88 103.39 303.92 115.66 329.74 135.63 359.69 123.35"/><path class="cls-10" d="m329.71,135.84s-.07-.02-.1-.04l-25.82-19.97c-.06-.05-.09-.12-.08-.2s.06-.14.13-.17l29.95-12.27c.07-.03.15-.02.21.03l25.82,19.97c.06.05.09.12.08.2s-.06.14-.13.17l-29.95,12.27s-.07.02-.11.01Zm-25.37-20.12l25.43,19.67,29.5-12.09-25.43-19.67-29.5,12.09Z"/><path class="cls-12" d="m357.87,116.75l-21.19-16.39c-.7-.54-1.38-.67-1.91-.46l-35.03,14.35c-.09.04-.16.09-.24.15.56-.38,1.34-.31,2.15.31h0s21.19,16.39,21.19,16.39c2.32,1.79,6.39,2.34,9.1,1.23l25.21-10.33c2.71-1.11,3.03-3.46.72-5.25Z"/><path class="cls-11" d="m327.21,133.01h0c-1.75-.24-3.35-.86-4.5-1.74l-21.19-16.39s-.01,0-.02-.01c-.69-.52-1.38-.63-1.88-.29-.1.07-.23.04-.29-.06-.07-.1-.04-.23.06-.29.11-.08.19-.13.28-.17l35.03-14.35c.62-.25,1.39-.08,2.12.49l21.19,16.39c1.18.91,1.75,2.01,1.61,3.08-.15,1.07-.99,1.98-2.37,2.54l-25.21,10.33c-1.35.55-3.06.72-4.81.49Zm-25.41-18.45l21.17,16.37c1.09.84,2.62,1.43,4.3,1.66s3.32.07,4.59-.46l25.21-10.33c1.24-.51,1.99-1.29,2.11-2.21.12-.91-.39-1.87-1.45-2.68l-21.19-16.39c-.6-.47-1.22-.62-1.7-.43l-34.02,13.94c.31.09.63.26.95.51,0,0,.01,0,.02.02Z"/><path class="cls-1" d="m342.7,137.86c.7.54,1.39.68,1.92.45h0s8.7-3.56,8.7-3.56c.53-.22.92-.79,1.04-1.66h0s-11.67,4.77-11.67,4.77Z"/><path class="cls-1" d="m343.84,138.61h0c-.42-.06-.85-.25-1.27-.58-.06-.05-.09-.12-.08-.2s.06-.14.13-.17l11.67-4.78c.07-.03.15-.02.21.03.06.05.09.12.08.2-.13.93-.54,1.58-1.17,1.83l-8.7,3.57s-.03,0-.04.01c-.25.1-.53.13-.82.09Zm-.7-.7c.51.3,1,.37,1.4.2.01,0,.03-.01.04-.01l8.66-3.55c.4-.16.69-.56.84-1.12l-10.94,4.48Z"/><path class="cls-12" d="m352.27,127.98l-7.9-6.11c-2.05-1.59-5.67-2.08-8.08-1.09-2.41.99-2.69,3.07-.64,4.66l7.9,6.1c1.39,1.08,2.33,3.37,2.09,5.11-.12.86-.5,1.43-1.03,1.65h0s8.7-3.56,8.7-3.56c.53-.22.92-.79,1.04-1.66.24-1.74-.7-4.03-2.09-5.11Z"/><path class="cls-10" d="m344.59,138.52s-.04,0-.05-.01c-.05-.02-.09-.06-.11-.12h0c-.04-.11,0-.23.11-.28.48-.2.8-.73.9-1.48.23-1.67-.68-3.88-2.01-4.91l-7.9-6.1c-1.06-.82-1.56-1.79-1.43-2.75.13-.96.88-1.77,2.12-2.28,1.2-.49,2.72-.65,4.28-.43s2.98.76,4,1.55l7.9,6.11c1.44,1.12,2.42,3.5,2.18,5.3-.12.92-.54,1.57-1.17,1.83l-8.7,3.57s-.07.02-.11.01Zm-4.16-17.95c-1.49-.2-2.93-.06-4.07.41-1.09.45-1.75,1.14-1.86,1.94-.11.8.34,1.64,1.27,2.36l7.9,6.11c1.44,1.12,2.42,3.5,2.17,5.31-.05.39-.16.73-.31,1.02l7.7-3.15c.48-.2.81-.73.91-1.49.23-1.67-.68-3.88-2.01-4.91l-7.9-6.11c-.96-.75-2.31-1.27-3.8-1.47Z"/><path class="cls-5" d="m342.34,122.77c-1.07-.83-2.96-1.08-4.21-.57-1.25.51-1.4,1.6-.33,2.43,1.07.83,2.95,1.08,4.21.57,1.26-.51,1.4-1.6.33-2.43Z"/><path class="cls-10" d="m339.8,125.63h0c-.83-.11-1.59-.41-2.13-.83-.58-.45-.86-.99-.79-1.53.07-.54.49-.99,1.17-1.27.64-.26,1.45-.34,2.28-.23s1.59.41,2.14.83c.58.45.86.99.79,1.53-.07.54-.49.99-1.17,1.27-.64.26-1.45.35-2.28.23Zm.47-3.44c-.76-.1-1.49-.03-2.07.2-.53.22-.86.55-.91.93-.05.38.17.78.63,1.14.49.38,1.17.64,1.93.74h0c.76.1,1.49.03,2.07-.21.53-.22.86-.55.91-.93.05-.38-.17-.78-.63-1.14-.49-.38-1.18-.64-1.93-.75Z"/><path class="cls-1" d="m345.36,134.3c.27.8.38,1.63.28,2.36-.12.86-.5,1.43-1.03,1.65h0s8.7-3.56,8.7-3.56c.53-.22.92-.79,1.04-1.66.1-.73-.02-1.56-.28-2.36l-8.72,3.57Z"/><path class="cls-1" d="m344.59,138.52s-.04,0-.05-.01c-.05-.02-.09-.06-.11-.12h0c-.04-.11,0-.23.11-.28.48-.2.8-.73.9-1.48.09-.67,0-1.45-.27-2.26-.04-.11.02-.22.12-.26l8.72-3.57c.05-.02.12-.02.17,0,.05.02.09.07.11.13.29.88.39,1.73.29,2.46-.12.92-.54,1.57-1.17,1.83l-8.7,3.57s-.07.02-.11.01Zm1.03-4.1c.24.8.32,1.58.23,2.27-.05.39-.16.73-.31,1.02l7.7-3.15c.48-.2.81-.73.91-1.49.08-.61.01-1.31-.21-2.05l-8.32,3.41Z"/><path class="cls-5" d="m254.78,169.61c2.31,1.79,6.39,2.34,9.1,1.23l25.21-10.33c2.71-1.11,3.03-3.46.72-5.26l-24.55-18.98-35.03,14.35,24.55,18.99Z"/><path class="cls-10" d="m259.15,171.52h0c-1.75-.24-3.35-.86-4.5-1.75l-24.55-18.98c-.06-.05-.09-.12-.08-.2s.06-.14.13-.17l35.03-14.35c.07-.03.15-.02.21.03l24.55,18.98c1.18.91,1.75,2.01,1.61,3.08-.15,1.07-.99,1.97-2.38,2.54l-25.21,10.33c-1.35.55-3.06.72-4.82.49Zm-28.5-20.84l24.26,18.76c1.09.84,2.61,1.43,4.3,1.66s3.32.07,4.6-.46l25.21-10.33c1.24-.51,1.99-1.29,2.12-2.21.12-.91-.39-1.87-1.45-2.69l-24.45-18.91-34.58,14.16Z"/><path class="cls-13" d="m264.21,129.51l-35.03,14.35c-.53.22-.92.79-1.04,1.66-.24,1.74.7,4.03,2.09,5.11l35.03-14.35.86-6.31c-.7-.54-1.38-.67-1.91-.46Z"/><path class="cls-13" d="m230.2,150.83s-.07-.02-.1-.04c-1.44-1.12-2.42-3.49-2.17-5.3.12-.92.54-1.57,1.17-1.83l35.03-14.35c.62-.25,1.39-.08,2.12.49.06.05.09.12.08.2l-.86,6.31c-.01.07-.06.14-.13.17l-35.03,14.35s-.07.02-.11.01Zm34.71-21.2c-.23-.03-.44,0-.63.07l-35.03,14.35c-.48.2-.81.73-.91,1.49-.22,1.63.63,3.77,1.92,4.83l34.8-14.26.82-6.07c-.33-.24-.67-.38-.98-.43Z"/><polygon class="cls-12" points="289.4 157.81 262.74 137.19 232.79 149.47 259.44 170.09 289.4 157.81"/><path class="cls-10" d="m259.41,170.3s-.07-.02-.1-.04l-26.66-20.62c-.06-.05-.09-.12-.08-.2s.06-.14.13-.17l29.95-12.27c.07-.03.15-.02.21.03l26.66,20.62c.06.05.09.12.08.2s-.06.14-.13.17l-29.95,12.27s-.07.02-.11.01Zm-26.21-20.77l26.27,20.32,29.5-12.09-26.27-20.32-29.5,12.09Z"/><polygon class="cls-12" points="289.68 155.71 263.02 135.09 233.07 147.36 259.73 167.98 289.68 155.71"/><path class="cls-10" d="m259.7,168.19s-.07-.02-.1-.04l-26.66-20.62c-.06-.05-.09-.12-.08-.2s.06-.14.13-.17l29.95-12.27c.07-.03.15-.02.21.03l26.66,20.62c.06.05.09.12.08.2s-.06.14-.13.17l-29.95,12.28s-.07.02-.11.01Zm-26.21-20.77l26.27,20.32,29.5-12.09-26.27-20.32-29.5,12.09Z"/><polygon class="cls-12" points="289.13 152.95 263.31 132.99 233.36 145.26 259.17 165.23 289.13 152.95"/><path class="cls-10" d="m259.15,165.44s-.07-.02-.1-.04l-25.82-19.97c-.06-.05-.09-.12-.08-.2s.06-.14.13-.17l29.95-12.27c.07-.03.15-.02.21.03l25.82,19.97c.06.05.09.12.08.2s-.06.14-.13.17l-29.95,12.27s-.07.02-.11.01Zm-25.37-20.12l25.43,19.67,29.5-12.09-25.43-19.67-29.5,12.09Z"/><path class="cls-5" d="m287.3,146.35l-21.19-16.39c-.7-.54-1.38-.67-1.91-.46l-35.03,14.35c-.09.04-.16.09-.24.15.56-.38,1.34-.32,2.15.31h0s21.19,16.39,21.19,16.39c2.32,1.79,6.39,2.34,9.1,1.23l25.21-10.33c2.71-1.11,3.03-3.47.72-5.26Z"/><path class="cls-11" d="m256.65,162.61h0c-1.75-.24-3.35-.86-4.5-1.74l-21.19-16.39s-.01,0-.02-.01c-.69-.53-1.38-.63-1.88-.29-.1.07-.23.04-.29-.06-.07-.1-.04-.23.05-.29.11-.08.18-.13.28-.17l35.03-14.35c.62-.25,1.39-.08,2.12.49l21.19,16.39c1.18.91,1.75,2.01,1.61,3.08-.15,1.07-.99,1.98-2.37,2.54l-25.21,10.33c-1.35.55-3.06.72-4.81.49Zm-25.41-18.45l21.17,16.37c1.09.84,2.62,1.43,4.3,1.66,1.68.23,3.32.07,4.6-.46l25.21-10.33c1.24-.51,1.99-1.29,2.11-2.21.12-.91-.39-1.87-1.45-2.68l-21.19-16.39c-.6-.47-1.22-.62-1.7-.43l-34.01,13.94c.31.09.63.26.95.51,0,0,.01,0,.02.01Z"/><path class="cls-5" d="m281.7,157.58l-7.9-6.11c-2.05-1.59-5.67-2.08-8.08-1.09-2.41.99-2.69,3.07-.64,4.66l7.9,6.11c1.39,1.08,2.33,3.37,2.09,5.11-.12.86-.5,1.43-1.03,1.65h0s8.7-3.56,8.7-3.56c.53-.22.92-.79,1.04-1.66.24-1.75-.7-4.03-2.09-5.11Z"/><path class="cls-11" d="m274.02,168.12s-.04,0-.06-.02c-.05-.03-.09-.07-.11-.13h0c-.03-.11.02-.22.12-.26.48-.2.8-.73.9-1.48.23-1.67-.68-3.88-2.01-4.91l-7.9-6.11c-1.06-.82-1.56-1.79-1.43-2.75.13-.96.88-1.77,2.12-2.28,1.2-.49,2.72-.65,4.28-.43s2.98.76,4.01,1.55l7.9,6.11c1.44,1.12,2.42,3.5,2.18,5.3-.12.92-.54,1.57-1.17,1.83l-8.7,3.57s-.07.02-.11.01Zm-4.16-17.95c-1.49-.2-2.93-.06-4.06.41-1.09.45-1.75,1.14-1.86,1.94-.11.8.34,1.64,1.27,2.36l7.9,6.11c1.44,1.12,2.42,3.5,2.17,5.31-.05.39-.16.73-.31,1.02l7.7-3.15c.48-.2.81-.73.91-1.49.23-1.67-.68-3.88-2.01-4.91l-7.9-6.11c-.96-.75-2.31-1.27-3.8-1.47Z"/><path class="cls-12" d="m271.77,152.37c-1.07-.83-2.96-1.08-4.21-.57-1.25.51-1.4,1.6-.33,2.43,1.07.83,2.95,1.08,4.21.57,1.26-.51,1.4-1.6.33-2.43Z"/><path class="cls-10" d="m269.23,155.23h0c-.83-.11-1.59-.41-2.13-.83-.58-.45-.86-.99-.79-1.53.07-.54.49-.99,1.17-1.27.64-.26,1.45-.35,2.28-.23s1.59.41,2.14.83c.58.45.86.99.79,1.53-.07.54-.49.99-1.17,1.26-.64.26-1.45.35-2.29.23Zm.47-3.44c-.76-.1-1.49-.03-2.07.21-.53.22-.86.55-.91.93-.05.38.17.78.63,1.14.49.38,1.17.64,1.93.75s1.49.03,2.07-.21c.53-.22.86-.55.91-.93.05-.38-.17-.78-.63-1.14-.49-.38-1.18-.64-1.93-.75Z"/><path class="cls-13" d="m274.8,163.9c.26.8.38,1.63.28,2.36-.12.86-.5,1.43-1.03,1.65h0s8.7-3.56,8.7-3.56c.53-.22.92-.79,1.04-1.66.1-.73-.02-1.56-.28-2.36l-8.72,3.57Z"/><path class="cls-13" d="m274.02,168.12s-.04,0-.06-.02c-.05-.03-.09-.07-.11-.13h0c-.03-.11.02-.22.12-.26.48-.2.8-.73.9-1.48.09-.67,0-1.45-.27-2.26-.03-.11.02-.22.12-.26l8.72-3.57c.05-.02.12-.02.17,0,.05.02.09.07.11.13.29.88.39,1.72.29,2.46-.12.92-.54,1.57-1.17,1.83l-8.7,3.57s-.07.02-.11.01Zm1.03-4.1c.24.81.32,1.59.23,2.27-.05.39-.16.73-.31,1.02l7.7-3.15c.48-.2.81-.73.91-1.49.08-.61.01-1.31-.21-2.05l-8.32,3.41Z"/><path d="m298.82,142.14l1.69,1.9c-4.53-.06-9.06-.12-13.59-.18-.07-2.82-.15-5.64-.22-8.46,5-3.49,10-6.98,15-10.47,3.37,3.22,6.73,6.44,10.1,9.66-4.32,2.52-8.65,5.03-12.97,7.55Z"/><polygon class="cls-7" points="286.46 135.37 297.08 131.02 299.39 132.81 301.07 127.75 301.46 124.9 292.39 124.24 292 127.14 284.09 130.38 283.7 133.24 286.46 135.37"/><path class="cls-10" d="m286.43,135.6s-.08-.02-.11-.05l-2.76-2.13c-.07-.05-.1-.13-.09-.22l.39-2.85c.01-.08.07-.15.14-.19l7.79-3.19.37-2.76c.02-.12.13-.21.25-.2l9.06.66c.07,0,.13.04.17.09.04.05.06.12.05.18l-.39,2.85-1.69,5.1c-.02.07-.08.13-.15.15-.07.02-.15,0-.21-.04l-2.2-1.71-10.5,4.3s-.08.02-.12.02Zm-2.48-2.47l2.54,1.97,10.5-4.3c.08-.03.17-.02.23.03l2.05,1.59,1.57-4.74.34-2.56-8.59-.62-.36,2.68c-.01.08-.07.15-.14.19l-7.79,3.19-.35,2.59Z"/><polygon class="cls-3" points="301.46 124.9 292.39 124.24 294.71 126.03 284.09 130.38 286.85 132.52 297.47 128.16 297.47 128.16 299.78 129.95 301.46 124.9"/><path class="cls-10" d="m286.81,132.75s-.08-.02-.11-.05l-2.76-2.13c-.07-.05-.1-.13-.09-.22s.07-.15.14-.19l10.24-4.2-1.99-1.54c-.08-.06-.11-.17-.08-.27.04-.1.13-.16.24-.15l9.06.66c.07,0,.14.04.18.1.04.06.05.14.03.2l-1.68,5.06c-.02.07-.08.13-.15.15-.07.02-.15,0-.21-.04l-2.21-1.71-10.49,4.3s-.08.02-.12.02Zm-2.26-2.3l2.33,1.8,10.49-4.3c.06-.02.13-.02.19,0,.02.01.04.02.06.04l2.04,1.57,1.48-4.45-7.98-.58,1.7,1.31c.07.05.1.13.09.22s-.07.15-.14.19l-10.24,4.2Z"/><path class="cls-7" d="m294.71,126.03l-2.71,1.11.39-2.9,2.31,1.79Zm5.07,3.92l-2.31-1.79-.39,2.85,2.31,1.79.39-2.86Zm-13.32,5.42l.39-2.85-2.76-2.13-.39,2.85,2.76,2.13Z"/><path class="cls-7" d="m286.43,135.6s-.08-.02-.11-.05l-2.76-2.13c-.07-.05-.1-.13-.09-.22l.39-2.85c.01-.08.07-.15.14-.19.08-.03.17-.02.23.03l2.76,2.13c.07.05.1.13.09.22l-.39,2.85c-.01.08-.07.15-.14.19-.04.02-.08.02-.12.02Zm-2.48-2.47l2.33,1.8.31-2.32-2.33-1.8-.31,2.32Zm15.41-.09s-.08-.02-.11-.05l-2.31-1.79c-.07-.05-.1-.13-.09-.22l.39-2.85c.01-.08.07-.15.14-.19.08-.03.17-.02.23.03l2.31,1.79c.07.05.1.13.09.22l-.39,2.86c-.01.08-.07.15-.14.19-.04.02-.08.02-.12.02Zm-2.03-2.13l1.88,1.46.31-2.32-1.88-1.46-.31,2.32Zm-5.36-3.54s-.08-.02-.11-.05c-.07-.05-.1-.13-.09-.22l.39-2.9c.01-.08.07-.15.14-.19.08-.03.17-.02.23.03l2.31,1.79c.07.05.1.13.09.22s-.07.15-.14.19l-2.71,1.11s-.08.02-.12.02Zm.6-2.7l-.28,2.09,1.95-.8-1.67-1.29Z"/><polygon class="cls-7" points="295.42 142.3 295.8 139.45 295.77 139.42 303.73 136.16 304.11 133.3 301.35 131.17 290.73 135.52 290.73 135.52 288.42 133.73 286.74 138.79 286.35 141.64 295.42 142.3"/><path class="cls-10" d="m286.32,141.88c-.06,0-.11-.04-.15-.08-.04-.05-.06-.12-.05-.18l.39-2.85,1.69-5.1c.02-.07.08-.13.15-.15.07-.02.15,0,.21.04l2.2,1.71,10.5-4.3c.08-.03.17-.02.23.03l2.76,2.13c.07.05.1.13.09.22l-.39,2.85c-.01.08-.07.15-.14.19l-7.79,3.19-.37,2.76c-.02.12-.13.21-.25.2l-9.06-.66s0,0-.01,0Zm2.21-7.75l-1.57,4.74-.34,2.56,8.59.62.35-2.56s-.01-.06,0-.08c.01-.08.05-.17.13-.2l7.83-3.21.35-2.59-2.54-1.97-10.49,4.3c-.08.03-.17.03-.24-.03l-2.05-1.59Z"/><polygon class="cls-3" points="286.74 138.79 295.8 139.45 293.49 137.66 304.11 133.3 301.35 131.17 290.73 135.52 290.73 135.52 288.42 133.73 286.74 138.79"/><path class="cls-10" d="m286.71,139.02c-.07,0-.13-.05-.16-.1-.04-.06-.05-.14-.03-.21l1.68-5.06c.02-.07.08-.13.15-.15.07-.02.15,0,.21.04l2.2,1.71,10.5-4.3c.08-.03.17-.02.23.03l2.76,2.13c.07.05.1.13.09.22s-.07.15-.14.19l-10.24,4.2,1.99,1.54c.08.06.11.17.08.27-.04.1-.13.16-.24.15l-9.06-.66s0,0-.01,0Zm1.83-4.9l-1.48,4.45,7.98.58-1.7-1.31c-.07-.05-.1-.13-.09-.22s.07-.15.14-.19l10.24-4.2-2.33-1.8-10.49,4.3c-.08.03-.17.03-.24-.03l-2.05-1.59Z"/><polygon class="cls-7" points="295.42 142.3 295.8 139.45 286.74 138.79 286.35 141.64 295.42 142.3"/><path class="cls-7" d="m286.32,141.88c-.06,0-.11-.04-.15-.08-.04-.05-.06-.12-.05-.18l.39-2.85c.02-.12.13-.21.25-.2l9.06.66c.06,0,.12.04.17.09.04.05.06.12.05.18l-.39,2.85c-.02.12-.13.21-.25.2l-9.06-.66s0,0-.01,0Zm.62-2.84l-.32,2.39,8.59.62.32-2.39-8.59-.62Z"/><path d="m307.32,152.49c-2.23,1.66-4.45,3.33-6.68,4.99,2.1,1.6,4.2,3.2,6.3,4.8-1.19.93-2.39,1.86-3.58,2.79,2,1.66,4.01,3.31,6.01,4.97,1.61-.98,3.23-1.95,4.84-2.93-2.51,1.62-5.02,3.24-7.53,4.86,2.15,2.07,4.3,4.14,6.46,6.21,2.64-1.8,5.28-3.59,7.92-5.39,3,2.11,6.01,4.22,9.01,6.32l10.54-4.15c-.47-1.47-.94-2.94-1.41-4.41-.44-1.74-2.78-10.22-11.33-15.45-9.43-5.77-19.04-3.06-20.55-2.61Z"/><polygon class="cls-10" points="334.73 172.51 335.25 167.37 341.53 164.55 341.01 169.69 334.73 172.51"/><path class="cls-10" d="m334.72,172.59s-.03,0-.04-.02c-.02-.02-.04-.05-.03-.07l.52-5.14s.02-.05.05-.07l6.28-2.82s.06,0,.08,0c.02.02.04.05.03.07l-.52,5.14s-.02.05-.05.07l-6.28,2.82s-.03,0-.04,0Zm.61-5.16l-.5,4.95,6.1-2.74.5-4.95-6.1,2.74Z"/><polygon class="cls-10" points="335.25 167.37 335.43 165.66 341.7 162.84 341.53 164.55 335.25 167.37"/><path class="cls-10" d="m335.25,167.45s-.03,0-.04-.02c-.02-.02-.04-.05-.03-.07l.17-1.71s.02-.05.05-.07l6.28-2.82s.06,0,.08,0c.02.02.04.05.03.07l-.17,1.71s-.02.05-.05.07l-6.28,2.82s-.03,0-.04,0Zm.26-1.74l-.16,1.53,6.1-2.74.16-1.53-6.1,2.74Z"/><path d="m270.08,82.61c-.52,1.45-1.42,4.61-.22,7.85,2.61,7,13.56,10.31,17.74,6.77,1.22-1.03,2.12-2.86,1.92-4.69-.51-4.73-8.29-8.8-19.44-9.92Z"/><path d="m260.75,117.06c1.53-.2,4.75-.83,7.08-3.39,5.04-5.52,2.99-16.77-2.07-18.87-1.47-.61-3.51-.58-5.05.43-3.98,2.61-4.05,11.39.04,21.83Z"/><path d="m297.29,87.73c.77,1.47,2.68,4.57,6.11,5.58,6.98,2.07,16.01-5.78,15.2-11.37-.23-1.62-1.33-3.3-2.94-4.13-4.22-2.18-11.72,1.65-18.38,9.92Z"/><path class="cls-16" d="m314.29,95.69c-.8,1.32-2.31,4.23-1.77,7.65,1.17,7.38,11.24,12.8,16.04,10.16,1.4-.77,2.64-2.38,2.81-4.21.44-4.74-6.37-10.27-17.08-13.59Z"/><path class="cls-16" d="m241.75,141.66c1.16,1.01,3.78,2.99,7.24,3.03,7.47.08,14.5-8.93,12.7-14.11-.52-1.51-1.91-3-3.68-3.48-4.6-1.23-11.19,4.56-16.26,14.56Z"/><path class="cls-8" d="m256.1,125.67h0c-1.09-1.12-2.92-1.52-5.23-.93-4.63,1.17-9.43,5.83-10.73,10.41-.65,2.29-.3,4.13.79,5.25h0l2.43,2.5h0s0,0,0,0h0c1.09,1.12,2.92,1.52,5.23.94,4.63-1.17,9.43-5.83,10.73-10.41.65-2.29.3-4.13-.79-5.25h0l-2.43-2.51Z"/><path class="cls-12" d="m249.78,139.77c.71.78,1.43,1.56,2.14,2.34.79-.31,1.85-.82,2.93-1.7,1.73-1.42,2.61-3.06,3.02-4l-2.27-2.42c-.64.96-1.51,2.1-2.69,3.26-1.11,1.1-2.21,1.92-3.14,2.52Z"/><path class="cls-13" d="m255.52,140.23h0c-2.08,2.02-4.5,3.46-6.82,4.04-2.39.6-4.4.23-5.65-1.06l-2.43-2.51c-1.25-1.29-1.57-3.3-.9-5.68.65-2.29,2.15-4.66,4.23-6.68,2.08-2.02,4.51-3.46,6.82-4.04,2.39-.61,4.4-.23,5.65,1.06l2.43,2.51c1.26,1.29,1.57,3.3.9,5.68-.65,2.29-2.15,4.66-4.23,6.68Zm-10.96-11.25c-1.97,1.91-3.39,4.14-4,6.28-.58,2.06-.34,3.77.68,4.82l2.43,2.5c1.03,1.05,2.73,1.34,4.81.82,2.17-.55,4.45-1.9,6.42-3.82h0c1.97-1.91,3.39-4.15,4-6.29.59-2.06.34-3.77-.68-4.82l-2.43-2.51c-1.02-1.05-2.73-1.34-4.81-.81-2.17.55-4.45,1.9-6.42,3.82Z"/><path class="cls-13" d="m258.53,128.18l-2.43-2.51c-1.09-1.12-2.92-1.52-5.23-.93-.9.23-1.81.59-2.69,1.05l10.01,10.31c.49-.88.88-1.77,1.14-2.67.65-2.29.3-4.13-.79-5.25Z"/><path class="cls-13" d="m258.49,136.42c-.07.07-.15.11-.25.12-.14.02-.28-.03-.37-.13l-10.01-10.31c-.1-.1-.14-.24-.12-.38.02-.14.11-.26.23-.32.95-.5,1.88-.86,2.79-1.09,2.39-.61,4.4-.23,5.65,1.06l2.43,2.51c1.26,1.29,1.57,3.3.9,5.68-.26.9-.65,1.83-1.18,2.77-.02.04-.05.07-.08.1Zm-9.58-10.5l9.17,9.44c.35-.69.63-1.38.82-2.05.59-2.06.34-3.77-.68-4.82l-2.43-2.51c-1.02-1.05-2.73-1.34-4.81-.81-.67.17-1.36.42-2.06.75Z"/><path class="cls-2" d="m256.89,130.92c1.3-4.58-1.39-7.35-6.02-6.19-4.63,1.17-9.43,5.83-10.73,10.41-1.3,4.58,1.4,7.36,6.02,6.19,4.63-1.17,9.43-5.83,10.73-10.41Z"/><path class="cls-13" d="m253.08,137.72h0c-2.08,2.02-4.5,3.46-6.82,4.04-2.4.6-4.41.23-5.66-1.06-1.25-1.29-1.57-3.3-.89-5.68.65-2.29,2.15-4.66,4.23-6.68,2.08-2.02,4.51-3.46,6.82-4.04,2.4-.61,4.41-.23,5.66,1.06,1.25,1.29,1.57,3.3.89,5.67-.65,2.29-2.15,4.66-4.23,6.68Zm-8.53-8.74c-1.97,1.91-3.39,4.14-4,6.28-.58,2.06-.34,3.77.68,4.82,1.02,1.05,2.73,1.34,4.81.82,2.17-.55,4.45-1.9,6.42-3.82h0c1.97-1.91,3.39-4.15,4-6.29.58-2.06.34-3.77-.68-4.82-1.02-1.05-2.73-1.34-4.81-.82-2.17.55-4.45,1.9-6.42,3.82Z"/><path class="cls-8" d="m257.05,95.76h0c-1.54.28-2.89,1.58-3.69,3.82-1.61,4.49-.41,11.08,2.67,14.71,1.54,1.82,3.27,2.55,4.8,2.27h0l3.43-.63h0s0,0,0,0h0c1.54-.28,2.89-1.58,3.69-3.82,1.61-4.49.41-11.08-2.67-14.71-1.54-1.82-3.27-2.55-4.8-2.27h0l-3.44.63Z"/><path class="cls-12" d="m265.24,108.86c1.05-.16,2.09-.32,3.14-.48.19-.83.35-2,.21-3.38-.22-2.23-1.09-3.87-1.64-4.74l-3.27.54c.44,1.06.9,2.42,1.21,4.04.29,1.54.36,2.9.35,4.01Z"/><path class="cls-13" d="m268.82,104.35h0c.52,2.86.36,5.67-.44,7.91-.83,2.32-2.26,3.78-4.02,4.11l-3.44.63c-1.77.33-3.62-.53-5.22-2.42-1.54-1.81-2.67-4.38-3.19-7.23-.52-2.86-.36-5.67.44-7.92.83-2.33,2.26-3.78,4.02-4.11l3.44-.63c1.77-.33,3.62.53,5.22,2.41,1.54,1.81,2.67,4.38,3.19,7.23Zm-15.44,2.84c.49,2.7,1.56,5.12,3,6.82,1.39,1.63,2.95,2.39,4.39,2.12l3.43-.63c1.45-.27,2.64-1.52,3.36-3.54.75-2.1.9-4.75.4-7.46h0c-.49-2.7-1.56-5.12-3-6.82-1.39-1.63-2.94-2.39-4.39-2.12l-3.44.63c-1.44.27-2.63,1.52-3.35,3.54-.75,2.1-.9,4.75-.4,7.46Z"/><path class="cls-13" d="m260.48,95.13l-3.44.63c-1.54.28-2.89,1.58-3.69,3.82-.31.87-.52,1.83-.62,2.82l14.14-2.57c-.45-.9-.98-1.72-1.58-2.43-1.54-1.82-3.27-2.55-4.8-2.27Z"/><path class="cls-13" d="m267.3,99.75c.02.09,0,.19-.04.28-.06.12-.18.21-.32.24l-14.14,2.57c-.14.02-.28-.02-.38-.11-.1-.09-.15-.23-.14-.37.12-1.06.33-2.05.65-2.92.83-2.33,2.26-3.78,4.02-4.11l3.44-.63c1.77-.33,3.62.53,5.22,2.41.61.72,1.16,1.56,1.64,2.52.02.04.03.08.04.12Zm-14.05,2.11l12.95-2.36c-.38-.68-.8-1.29-1.25-1.82-1.39-1.63-2.94-2.39-4.39-2.12l-3.44.63c-1.44.27-2.63,1.52-3.35,3.54-.23.65-.41,1.37-.52,2.13Z"/><path class="cls-2" d="m261.85,98.02c-3.08-3.63-6.88-2.94-8.49,1.56-1.61,4.49-.41,11.08,2.67,14.71,3.08,3.63,6.89,2.94,8.49-1.55,1.61-4.49.41-11.08-2.67-14.71Z"/><path class="cls-13" d="m265.38,104.97h0c.52,2.86.36,5.67-.44,7.91-.83,2.33-2.26,3.79-4.03,4.11-1.77.32-3.62-.54-5.21-2.42-1.54-1.81-2.67-4.38-3.19-7.23-.52-2.86-.36-5.67.44-7.92.83-2.33,2.26-3.79,4.03-4.11,1.76-.32,3.61.54,5.21,2.42,1.54,1.81,2.67,4.38,3.19,7.23Zm-12.01,2.22c.49,2.7,1.56,5.12,3,6.82,1.38,1.63,2.94,2.38,4.38,2.12,1.44-.26,2.64-1.52,3.36-3.54.75-2.1.89-4.75.4-7.46h0c-.49-2.7-1.56-5.12-3-6.82-1.38-1.63-2.94-2.38-4.38-2.12s-2.64,1.52-3.36,3.54c-.75,2.1-.9,4.75-.4,7.46Z"/><path class="cls-8" d="m289.19,92.25h0c1.03-1.17,1.29-3.03.54-5.28-1.51-4.53-6.52-8.97-11.19-9.92-2.34-.47-4.14.01-5.18,1.19h0l-2.31,2.61h0s0,0,0,0h0c-1.03,1.17-1.29,3.03-.54,5.28,1.51,4.53,6.52,8.96,11.19,9.92,2.34.48,4.14-.01,5.18-1.19h0l2.32-2.62Z"/><path class="cls-12" d="m274.66,87.01c-.72.77-1.45,1.54-2.17,2.31.36.77.96,1.78,1.92,2.79,1.54,1.62,3.24,2.37,4.22,2.71l2.24-2.45c-1-.56-2.21-1.35-3.45-2.43-1.18-1.03-2.08-2.06-2.75-2.94Z"/><path class="cls-13" d="m274.63,92.76h0c-2.17-1.93-3.79-4.23-4.54-6.49-.78-2.34-.56-4.37.63-5.72l2.32-2.62c1.19-1.35,3.18-1.82,5.6-1.33,2.33.47,4.81,1.79,6.98,3.71s3.79,4.23,4.54,6.5c.78,2.34.56,4.37-.63,5.72l-2.32,2.62c-1.19,1.35-3.18,1.82-5.59,1.33-2.33-.48-4.81-1.79-6.98-3.72Zm10.39-11.78c-2.05-1.82-4.39-3.07-6.57-3.51-2.1-.43-3.79-.06-4.76,1.05l-2.31,2.61c-.97,1.1-1.13,2.83-.45,4.86.71,2.12,2.23,4.29,4.29,6.11h0c2.06,1.82,4.39,3.07,6.57,3.51,2.1.43,3.79.06,4.76-1.04l2.32-2.62c.97-1.1,1.13-2.82.45-4.85-.71-2.12-2.23-4.29-4.29-6.11Z"/><path class="cls-13" d="m286.88,94.86l2.32-2.62c1.03-1.17,1.29-3.03.54-5.28-.29-.88-.73-1.76-1.25-2.61l-9.52,10.76c.91.43,1.84.75,2.75.93,2.34.48,4.14-.01,5.18-1.19Z"/><path class="cls-13" d="m278.66,95.44c-.07-.06-.12-.15-.14-.24-.03-.14,0-.28.1-.38l9.52-10.76c.09-.1.23-.16.37-.15.14.01.27.09.34.21.57.91,1,1.81,1.3,2.7.78,2.34.56,4.37-.63,5.72l-2.32,2.62c-1.19,1.35-3.18,1.82-5.59,1.33-.92-.19-1.88-.51-2.85-.97-.04-.02-.07-.04-.11-.07Zm9.75-10.34l-8.72,9.85c.72.3,1.42.52,2.1.66,2.1.43,3.79.06,4.76-1.04l2.32-2.62c.97-1.1,1.13-2.82.45-4.85-.22-.65-.52-1.33-.91-2Z"/><path class="cls-2" d="m284.02,93.43c4.67.95,7.23-1.95,5.71-6.47-1.51-4.53-6.52-8.97-11.19-9.92-4.67-.95-7.23,1.95-5.72,6.47,1.51,4.52,6.52,8.96,11.19,9.92Z"/><path class="cls-13" d="m276.95,90.15h0c-2.17-1.93-3.79-4.23-4.54-6.49-.78-2.34-.56-4.38.63-5.72,1.19-1.34,3.18-1.81,5.59-1.32,2.33.47,4.81,1.79,6.98,3.71s3.79,4.23,4.54,6.5c.78,2.34.56,4.38-.63,5.72-1.19,1.34-3.17,1.81-5.59,1.32-2.33-.48-4.81-1.79-6.98-3.71Zm8.07-9.16c-2.05-1.82-4.39-3.07-6.57-3.51-2.1-.43-3.79-.06-4.76,1.04-.97,1.1-1.13,2.82-.45,4.86.71,2.12,2.23,4.29,4.29,6.11h0c2.06,1.82,4.39,3.07,6.57,3.51,2.09.43,3.78.06,4.75-1.04s1.13-2.82.45-4.86c-.71-2.12-2.23-4.29-4.29-6.11Z"/><path class="cls-8" d="m315.13,76.24h0c-.73-1.38-2.37-2.28-4.75-2.37-4.77-.19-10.69,2.92-13.24,6.96-1.27,2.02-1.46,3.88-.72,5.26h0l1.62,3.09h0s0,0,0,0h0c.73,1.38,2.37,2.28,4.75,2.37,4.77.19,10.69-2.93,13.24-6.96,1.27-2.02,1.45-3.88.72-5.26h0l-1.63-3.09Z"/><path class="cls-12" d="m305.09,87.98c.46.95.93,1.9,1.39,2.85.84-.07,2.01-.27,3.29-.81,2.06-.87,3.36-2.2,4.03-2.98l-1.5-2.96c-.88.74-2.04,1.59-3.5,2.37-1.38.74-2.66,1.22-3.72,1.54Z"/><path class="cls-13" d="m310.46,90.04h0c-2.57,1.35-5.3,2.04-7.68,1.95-2.47-.1-4.28-1.02-5.12-2.61l-1.63-3.09c-.84-1.59-.58-3.61.74-5.7,1.27-2.01,3.38-3.86,5.94-5.21s5.3-2.04,7.68-1.95c2.47.1,4.29,1.02,5.12,2.61l1.63,3.09c.84,1.59.58,3.61-.74,5.7-1.27,2.01-3.38,3.86-5.95,5.21Zm-7.34-13.88c-2.43,1.28-4.42,3.02-5.61,4.9-1.14,1.81-1.39,3.52-.71,4.82l1.63,3.09c.69,1.3,2.24,2.06,4.38,2.14,2.23.09,4.8-.57,7.24-1.85h0c2.43-1.28,4.42-3.02,5.61-4.9,1.14-1.81,1.39-3.52.71-4.82l-1.63-3.09c-.69-1.3-2.24-2.06-4.38-2.14-2.23-.09-4.8.57-7.24,1.85Z"/><path class="cls-13" d="m316.76,79.33l-1.63-3.09c-.73-1.38-2.37-2.28-4.75-2.37-.93-.04-1.9.06-2.88.25l6.69,12.72c.72-.7,1.35-1.45,1.85-2.24,1.27-2.02,1.45-3.88.72-5.26Z"/><path class="cls-13" d="m314.39,87.22c-.08.04-.18.06-.27.05-.14-.02-.26-.11-.32-.23l-6.69-12.72c-.06-.12-.07-.27,0-.4.06-.13.18-.22.31-.24,1.05-.21,2.05-.3,2.98-.26,2.47.1,4.29,1.02,5.12,2.61l1.63,3.09c.84,1.59.58,3.61-.74,5.7-.5.79-1.14,1.57-1.91,2.32-.03.03-.07.05-.1.07Zm-6.22-12.78l6.13,11.65c.54-.57.99-1.15,1.36-1.73,1.14-1.81,1.39-3.52.71-4.82l-1.63-3.09c-.69-1.3-2.24-2.06-4.38-2.14-.69-.03-1.43.02-2.19.14Z"/><path class="cls-2" d="m314.41,81.5c2.54-4.03.74-7.45-4.03-7.63-4.77-.19-10.69,2.92-13.24,6.96-2.54,4.03-.74,7.45,4.03,7.64,4.77.19,10.69-2.93,13.24-6.96Z"/><path class="cls-13" d="m308.84,86.95h0c-2.57,1.35-5.3,2.04-7.68,1.95-2.47-.1-4.29-1.03-5.13-2.61-.84-1.59-.57-3.61.75-5.7,1.27-2.01,3.38-3.86,5.94-5.21s5.3-2.04,7.68-1.95c2.47.1,4.29,1.03,5.13,2.61.83,1.59.57,3.61-.75,5.7-1.27,2.01-3.38,3.86-5.94,5.21Zm-5.71-10.79c-2.43,1.28-4.42,3.02-5.61,4.9-1.14,1.81-1.39,3.52-.71,4.82.68,1.3,2.24,2.06,4.38,2.14,2.23.09,4.8-.57,7.24-1.85h0c2.43-1.28,4.42-3.02,5.61-4.9,1.14-1.81,1.39-3.52.71-4.81s-2.24-2.06-4.38-2.15c-2.23-.09-4.8.57-7.24,1.85Z"/><path class="cls-8" d="m332.66,107.76h0c.96-1.23,1.11-3.1.21-5.31-1.79-4.42-7.05-8.55-11.77-9.22-2.36-.33-4.14.27-5.1,1.5h0l-2.15,2.75h0s0,0,0,0h0c-.96,1.23-1.11,3.1-.22,5.31,1.79,4.43,7.06,8.55,11.78,9.22,2.36.33,4.13-.27,5.1-1.5h0l2.15-2.75Z"/><path class="cls-12" d="m317.83,103.42c-.68.81-1.35,1.63-2.03,2.44.41.74,1.07,1.72,2.09,2.67,1.64,1.52,3.38,2.17,4.38,2.45.69-.86,1.39-1.72,2.08-2.58-1.04-.5-2.29-1.21-3.59-2.22-1.24-.95-2.2-1.93-2.93-2.76Z"/><path class="cls-13" d="m318.16,109.17h0c-2.29-1.79-4.04-3.99-4.93-6.2-.92-2.29-.82-4.33.28-5.74l2.15-2.75c1.1-1.42,3.06-2.01,5.51-1.66,2.35.33,4.91,1.5,7.19,3.28,2.29,1.79,4.04,3.99,4.93,6.21.93,2.29.83,4.33-.28,5.74l-2.15,2.75c-1.1,1.42-3.06,2.01-5.5,1.66-2.36-.33-4.91-1.5-7.19-3.28Zm9.65-12.39c-2.16-1.69-4.57-2.79-6.77-3.1-2.12-.3-3.79.18-4.69,1.33l-2.15,2.75c-.9,1.16-.96,2.89-.16,4.87.84,2.07,2.49,4.15,4.66,5.84h0c2.16,1.69,4.57,2.79,6.77,3.1,2.12.3,3.78-.17,4.69-1.33l2.15-2.75c.9-1.16.96-2.89.15-4.87-.84-2.07-2.49-4.15-4.66-5.84Z"/><path class="cls-13" d="m330.51,110.51l2.15-2.75c.96-1.23,1.11-3.1.21-5.31-.35-.86-.83-1.71-1.41-2.52l-8.85,11.32c.93.37,1.88.63,2.8.76,2.36.33,4.13-.27,5.1-1.5Z"/><path class="cls-13" d="m322.34,111.6c-.07-.06-.13-.14-.15-.23-.04-.13,0-.28.08-.39l8.85-11.32c.09-.11.22-.17.36-.17.14,0,.27.07.35.18.62.87,1.11,1.75,1.46,2.61.93,2.29.83,4.33-.28,5.74l-2.15,2.75c-1.1,1.42-3.06,2.01-5.5,1.66-.93-.13-1.9-.4-2.9-.79-.04-.02-.08-.04-.11-.06Zm9.1-10.92l-8.11,10.37c.74.26,1.45.43,2.14.53,2.12.3,3.78-.17,4.69-1.33l2.15-2.75c.9-1.16.96-2.89.15-4.87-.26-.64-.6-1.29-1.03-1.94Z"/><path class="cls-2" d="m327.56,109.26c4.72.67,7.09-2.38,5.31-6.8-1.79-4.42-7.05-8.55-11.77-9.22-4.72-.66-7.1,2.38-5.31,6.81,1.79,4.42,7.06,8.55,11.78,9.22Z"/><path class="cls-13" d="m320.31,106.41h0c-2.29-1.79-4.04-3.99-4.93-6.2-.93-2.29-.82-4.33.28-5.75,1.11-1.41,3.06-2,5.5-1.66,2.35.33,4.91,1.5,7.19,3.28,2.29,1.79,4.04,3.99,4.93,6.21.93,2.29.83,4.33-.28,5.75-1.1,1.41-3.06,2-5.5,1.66-2.36-.33-4.91-1.5-7.19-3.28Zm7.5-9.64c-2.16-1.69-4.57-2.79-6.77-3.1-2.12-.3-3.78.17-4.68,1.33-.9,1.16-.96,2.89-.16,4.88.84,2.07,2.49,4.15,4.66,5.84h0c2.16,1.69,4.57,2.79,6.77,3.1,2.12.3,3.78-.17,4.68-1.33.9-1.16.96-2.89.16-4.88-.84-2.07-2.49-4.15-4.66-5.84Z"/><path class="cls-4" d="m236.17,176.81h0c-.38.09-.76.08-1.07-.01-.35-.11-.58-.32-.64-.59s.05-.56.32-.81c.47-.44,1.41-.66,2.03-.47.35.11.57.32.64.59.06.27-.05.56-.32.81-.24.22-.58.39-.96.48Zm-.35-1.5c-.31.07-.59.21-.78.38-.16.15-.23.3-.2.43s.16.23.37.3c.48.15,1.27-.03,1.64-.38.16-.14.23-.3.2-.43-.03-.13-.16-.24-.37-.3-.24-.07-.56-.08-.87,0Z"/><path class="cls-4" d="m294.33,170.53h0c-.38.09-.76.08-1.07-.01-.35-.11-.58-.32-.64-.59s.05-.56.32-.81c.47-.44,1.41-.66,2.03-.47.35.11.57.32.64.59.06.27-.05.56-.32.81-.24.22-.58.39-.96.48Zm-.35-1.5c-.31.07-.59.21-.78.38-.16.15-.23.3-.2.43s.16.23.37.3c.48.15,1.27-.03,1.64-.38.16-.14.23-.3.2-.43s-.16-.23-.37-.3c-.24-.07-.56-.08-.87,0Z"/><path class="cls-4" d="m356.79,143.09s-.03,0-.04,0c-.38,0-.82.06-1.27.16h0c-.46.11-.87.25-1.21.41-.07.04-.16.02-.22-.03-.06-.06-.08-.14-.05-.22.08-.21.1-.44.04-.67-.05-.23-.17-.43-.34-.59-.06-.06-.08-.14-.05-.22.03-.08.1-.13.18-.13.76,0,1.8-.24,2.48-.57.07-.04.16-.02.22.03.06.06.08.14.05.22-.08.21-.1.45-.04.68.05.21.15.41.3.55.05.03.09.07.1.13.03.11-.03.23-.15.24h0Zm-1.42-.22c.34-.08.67-.13.97-.16-.09-.14-.15-.3-.19-.46-.04-.17-.05-.34-.04-.5-.56.22-1.27.38-1.88.43.09.14.15.3.19.46.04.17.05.33.04.5.28-.11.59-.2.91-.28Z"/><path class="cls-4" d="m297.52,152.66s-.03,0-.04,0c-.76,0-1.8.24-2.48.57-.07.03-.16.02-.22-.03-.06-.06-.08-.14-.05-.22.08-.21.1-.44.04-.67-.05-.23-.17-.43-.34-.59-.06-.06-.08-.14-.05-.22.03-.08.1-.13.18-.13.77,0,1.81-.25,2.48-.57.07-.04.16-.02.22.03.06.06.08.14.05.22-.08.21-.1.44-.04.68.05.21.15.4.3.55.05.03.09.07.1.13.02.11-.04.22-.15.24h0Zm-1.41-.22c.33-.08.66-.13.96-.15-.09-.14-.15-.3-.19-.46-.04-.17-.05-.33-.04-.5-.57.22-1.29.38-1.88.43.09.14.15.3.19.46.04.17.05.33.04.5.28-.11.59-.2.92-.28Z"/><path class="cls-4" d="m359.5,153.65s-.03,0-.04,0c-.76,0-1.8.24-2.48.57-.07.03-.16.02-.22-.03-.06-.06-.08-.14-.05-.22.08-.21.1-.44.04-.67-.05-.23-.17-.43-.34-.59-.06-.06-.08-.14-.05-.22.03-.08.1-.13.18-.13.77,0,1.81-.25,2.48-.57.07-.04.16-.02.22.03.06.06.08.14.05.22-.08.21-.1.44-.04.68.05.21.15.4.3.55.05.03.09.07.1.13.02.11-.04.22-.15.24h0Zm-1.41-.22c.33-.08.66-.13.96-.15-.09-.14-.15-.3-.19-.46-.04-.17-.05-.33-.04-.5-.57.22-1.29.38-1.88.43.09.14.15.3.19.46.04.17.05.33.04.5.28-.11.59-.2.92-.28Z"/><g class="cls-17"><path class="cls-3" d="m345.59,159.62c-.11.02-.21-.04-.24-.15l-.48-2.09c-.02-.11.04-.21.15-.24h0c.11-.02.21.04.24.15l.48,2.09c.02.11-.04.21-.15.24h0Z"/><path class="cls-3" d="m347.17,158.16h0l-3.63.83c-.11.02-.21-.04-.24-.15s.04-.21.15-.24h0l3.63-.83c.11-.02.21.04.24.15s-.04.21-.15.24Z"/></g><g class="cls-17"><path class="cls-3" d="m284.92,175.58c-.11.02-.21-.04-.24-.15l-.48-2.09c-.02-.11.04-.21.15-.24h0c.11-.02.21.04.24.15l.48,2.09c.02.11-.04.21-.15.24h0Z"/><path class="cls-3" d="m286.49,174.11h0l-3.63.83c-.11.02-.21-.04-.24-.15s.04-.21.15-.24h0l3.63-.83c.11-.02.21.04.24.15s-.04.21-.15.24Z"/></g><polygon class="cls-3" points="316.88 153.17 311.5 148.86 305.09 151.36 304.31 156.47 309.69 160.78 316.09 158.28 316.88 153.17"/><path class="cls-2" d="m309.67,160.86s-.03,0-.04-.02l-5.37-4.31s-.03-.05-.03-.08l.78-5.11s.02-.05.05-.06l6.41-2.5s.06,0,.08.01l5.38,4.31s.03.05.03.08l-.78,5.11s-.02.05-.05.06l-6.41,2.5s-.03,0-.04,0Zm-5.27-4.42l5.3,4.25,6.32-2.46.77-5.01-5.3-4.25-6.32,2.46-.77,5.01Z"/><polygon class="cls-3" points="310.47 155.67 305.09 151.36 311.5 148.86 316.88 153.17 310.47 155.67"/><path class="cls-11" d="m310.45,155.75s-.03,0-.04-.02l-5.37-4.31s-.03-.05-.03-.08.02-.05.05-.06l6.41-2.5s.06,0,.08.01l5.38,4.31s.03.05.03.08-.02.05-.05.06l-6.41,2.5s-.03,0-.04,0Zm-5.2-4.36l5.23,4.19,6.23-2.43-5.23-4.19-6.23,2.43Z"/><polygon class="cls-10" points="309.69 160.78 310.47 155.67 316.88 153.17 316.09 158.28 309.69 160.78"/><path class="cls-10" d="m309.67,160.86s-.03,0-.04-.02c-.02-.02-.03-.05-.03-.08l.78-5.11s.02-.05.05-.06l6.41-2.5s.06,0,.08.01c.02.02.03.05.03.08l-.78,5.11s-.02.05-.05.06l-6.41,2.5s-.03,0-.04,0Zm.87-5.13l-.75,4.92,6.23-2.43.75-4.92-6.23,2.43Z"/><polygon class="cls-2" points="317.14 151.47 311.76 147.16 305.35 149.66 305.09 151.36 310.47 155.67 316.88 153.17 317.14 151.47"/><path class="cls-2" d="m310.45,155.75s-.03,0-.04-.02l-5.37-4.31s-.03-.05-.03-.08l.26-1.7s.02-.05.05-.06l6.41-2.5s.06,0,.08.01l5.37,4.31s.03.05.03.08l-.26,1.7s-.02.05-.05.06l-6.41,2.5s-.03,0-.04,0Zm-5.27-4.42l5.3,4.25,6.32-2.46.25-1.61-5.3-4.25-6.32,2.46-.25,1.61Z"/><polygon class="cls-2" points="310.73 153.97 305.35 149.66 311.76 147.16 317.14 151.47 310.73 153.97"/><path class="cls-2" d="m310.71,154.05s-.03,0-.04-.02l-5.37-4.31s-.03-.05-.03-.08.02-.05.05-.06l6.41-2.5s.06,0,.08.01l5.37,4.31s.03.05.03.08-.02.05-.05.06l-6.41,2.5s-.03,0-.04,0Zm-5.2-4.36l5.23,4.19,6.23-2.43-5.23-4.19-6.23,2.43Z"/><polygon class="cls-10" points="310.47 155.67 310.73 153.97 317.14 151.47 316.88 153.17 310.47 155.67"/><path class="cls-10" d="m310.45,155.75s-.03,0-.04-.02c-.02-.02-.03-.05-.03-.08l.26-1.7s.02-.05.05-.06l6.41-2.5s.06,0,.08.01c.02.02.03.05.03.08l-.26,1.7s-.02.05-.05.06l-6.41,2.5s-.03,0-.04,0Zm.35-1.72l-.23,1.51,6.23-2.43.23-1.52-6.23,2.43Z"/><polygon class="cls-3" points="324.29 154.01 318.91 149.71 312.5 152.21 311.03 161.85 316.4 166.16 322.81 163.66 324.29 154.01"/><path class="cls-7" d="m316.39,166.24s-.03,0-.04-.02l-5.37-4.31s-.03-.05-.03-.08l1.48-9.64s.02-.05.05-.06l6.41-2.5s.06,0,.08.01l5.37,4.31s.03.05.03.08l-1.48,9.64s-.02.05-.05.06l-6.41,2.5s-.03,0-.04,0Zm-5.27-4.42l5.3,4.25,6.32-2.46,1.46-9.55-5.3-4.25-6.32,2.46-1.46,9.55Z"/><polygon class="cls-3" points="317.88 156.51 312.5 152.21 318.91 149.71 324.29 154.01 317.88 156.51"/><path class="cls-11" d="m317.87,156.59s-.03,0-.04-.02l-5.37-4.31s-.03-.05-.03-.08.02-.05.05-.06l6.41-2.5s.06,0,.08.01l5.37,4.31s.03.05.03.08-.02.05-.05.06l-6.41,2.5s-.03,0-.04,0Zm-5.2-4.36l5.23,4.19,6.23-2.43-5.23-4.19-6.23,2.43Z"/><polygon class="cls-10" points="316.4 166.16 317.88 156.51 324.29 154.01 322.81 163.66 316.4 166.16"/><path class="cls-10" d="m316.39,166.24s-.03,0-.04-.02c-.02-.02-.03-.05-.03-.08l1.48-9.64s.02-.05.05-.06l6.41-2.5s.06,0,.08.01c.02.02.03.05.03.08l-1.48,9.64s-.02.05-.05.06l-6.41,2.5s-.03,0-.04,0Zm1.56-9.67l-1.45,9.46,6.23-2.43,1.45-9.46-6.23,2.43Z"/><polygon class="cls-7" points="324.72 151.18 319.35 146.87 312.94 149.37 312.5 152.21 317.88 156.51 324.29 154.01 324.72 151.18"/><path class="cls-7" d="m317.87,156.59s-.03,0-.04-.02l-5.37-4.31s-.03-.05-.03-.08l.43-2.84s.02-.05.05-.06l6.41-2.5s.06,0,.08.01l5.37,4.31s.03.05.03.08l-.43,2.84s-.02.05-.05.06l-6.41,2.5s-.03,0-.04,0Zm-5.27-4.42l5.3,4.25,6.32-2.46.42-2.74-5.3-4.25-6.32,2.46-.42,2.74Z"/><polygon class="cls-7" points="318.31 153.68 312.94 149.37 319.35 146.87 324.72 151.18 318.31 153.68"/><path class="cls-7" d="m318.3,153.76s-.03,0-.04-.02l-5.37-4.31s-.03-.05-.03-.08.02-.05.05-.06l6.41-2.5s.06,0,.08.01l5.37,4.31s.03.05.03.08-.02.05-.05.06l-6.41,2.5s-.03,0-.04,0Zm-5.2-4.36l5.23,4.19,6.23-2.43-5.23-4.19-6.23,2.43Z"/><polygon class="cls-10" points="317.88 156.51 318.31 153.68 324.72 151.18 324.29 154.01 317.88 156.51"/><path class="cls-10" d="m317.87,156.59s-.03,0-.04-.02c-.02-.02-.03-.05-.03-.08l.43-2.84s.02-.05.05-.06l6.41-2.5s.06,0,.08.01c.02.02.03.05.03.08l-.43,2.84s-.02.05-.05.06l-6.41,2.5s-.03,0-.04,0Zm.52-2.86l-.41,2.65,6.23-2.43.41-2.65-6.23,2.43Z"/><polygon class="cls-3" points="331.44 156.56 326.07 152.25 319.66 154.75 317.75 167.23 323.12 171.54 329.53 169.04 331.44 156.56"/><path class="cls-2" d="m323.11,171.62s-.03,0-.04-.02l-5.37-4.31s-.03-.05-.03-.08l1.91-12.48s.02-.05.05-.06l6.41-2.5s.06,0,.08.01l5.37,4.31s.03.05.03.08l-1.91,12.48s-.02.05-.05.06l-6.41,2.5s-.03,0-.04,0Zm-5.27-4.42l5.3,4.25,6.32-2.46,1.9-12.39-5.3-4.25-6.32,2.46-1.9,12.39Z"/><polygon class="cls-3" points="325.03 159.06 319.66 154.75 326.07 152.25 331.44 156.56 325.03 159.06"/><path class="cls-11" d="m325.02,159.14s-.03,0-.04-.02l-5.37-4.31s-.03-.05-.03-.08.02-.05.05-.06l6.41-2.5s.06,0,.08.01l5.37,4.31s.03.05.03.08-.02.05-.05.06l-6.41,2.5s-.03,0-.04,0Zm-5.2-4.36l5.23,4.19,6.23-2.43-5.23-4.19-6.23,2.43Z"/><polygon class="cls-10" points="323.12 171.54 325.03 159.06 331.44 156.56 329.53 169.04 323.12 171.54"/><path class="cls-10" d="m323.11,171.62s-.03,0-.04-.02c-.02-.02-.03-.05-.03-.08l1.91-12.48s.02-.05.05-.06l6.41-2.5s.06,0,.08.01c.02.02.03.05.03.08l-1.91,12.48s-.02.05-.05.06l-6.41,2.5s-.03,0-.04,0Zm2-12.5l-1.88,12.29,6.23-2.43,1.88-12.29-6.23,2.43Z"/><polygon class="cls-2" points="332.05 152.59 326.67 148.28 320.26 150.78 319.66 154.75 325.03 159.06 331.44 156.56 332.05 152.59"/><path class="cls-2" d="m325.02,159.14s-.03,0-.04-.02l-5.37-4.31s-.03-.05-.03-.08l.61-3.97s.02-.05.05-.06l6.41-2.5s.06,0,.08.01l5.37,4.31s.03.05.03.08l-.61,3.97s-.02.05-.05.06l-6.41,2.5s-.03,0-.04,0Zm-5.27-4.42l5.3,4.25,6.32-2.46.59-3.88-5.3-4.25-6.32,2.46-.59,3.88Z"/><polygon class="cls-2" points="325.64 155.09 320.26 150.78 326.67 148.28 332.05 152.59 325.64 155.09"/><path class="cls-2" d="m325.63,155.17s-.03,0-.04-.02l-5.37-4.31s-.03-.05-.03-.08.02-.05.05-.06l6.41-2.5s.06,0,.08.01l5.37,4.31s.03.05.03.08-.02.05-.05.06l-6.41,2.5s-.03,0-.04,0Zm-5.2-4.36l5.23,4.19,6.23-2.43-5.23-4.19-6.23,2.43Z"/><polygon class="cls-10" points="324.99 159.3 325.6 155.33 332.01 152.83 331.4 156.81 324.99 159.3"/><path class="cls-10" d="m324.98,159.39s-.03,0-.04-.02c-.02-.02-.03-.05-.03-.08l.61-3.97s.02-.05.05-.06l6.41-2.5s.06,0,.08.01.03.05.03.08l-.61,3.97s-.02.05-.05.06l-6.41,2.5s-.03,0-.04,0Zm.69-3.99l-.58,3.78,6.23-2.43.58-3.78-6.23,2.43Z"/><polygon class="cls-3" points="337.03 169.32 331.66 165.01 325.25 167.51 324.47 172.62 329.84 176.92 336.25 174.42 337.03 169.32"/><path class="cls-7" d="m329.83,177s-.03,0-.04-.02l-5.37-4.31s-.03-.05-.03-.08l.78-5.11s.02-.05.05-.06l6.41-2.5s.06,0,.08.01l5.37,4.31s.03.05.03.08l-.78,5.11s-.02.05-.05.06l-6.41,2.5s-.03,0-.04,0Zm-5.27-4.42l5.3,4.25,6.32-2.46.77-5.01-5.3-4.25-6.32,2.46-.77,5.01Z"/><polygon class="cls-3" points="330.62 171.82 325.25 167.51 331.66 165.01 337.03 169.32 330.62 171.82"/><path class="cls-11" d="m330.61,171.9s-.03,0-.04-.02l-5.37-4.31s-.03-.05-.03-.08.02-.05.05-.06l6.41-2.5s.06,0,.08.01l5.37,4.31s.03.05.03.08-.02.05-.05.06l-6.41,2.5s-.03,0-.04,0Zm-5.2-4.36l5.23,4.19,6.23-2.43-5.23-4.19-6.23,2.43Z"/><polygon class="cls-7" points="337.29 167.61 331.92 163.31 325.51 165.81 325.25 167.51 330.62 171.82 337.03 169.32 337.29 167.61"/><path class="cls-7" d="m330.61,171.9s-.03,0-.04-.02l-5.37-4.31s-.03-.05-.03-.08l.26-1.7s.02-.05.05-.06l6.41-2.5s.06,0,.08.01l5.37,4.31s.03.05.03.08l-.26,1.7s-.02.05-.05.06l-6.41,2.5s-.03,0-.04,0Zm-5.27-4.42l5.3,4.25,6.32-2.46.25-1.61-5.3-4.25-6.32,2.46-.25,1.61Z"/><polygon class="cls-7" points="330.88 170.11 325.51 165.81 331.92 163.31 337.29 167.61 330.88 170.11"/><path class="cls-7" d="m330.87,170.19s-.03,0-.04-.02l-5.37-4.31s-.03-.05-.03-.08.02-.05.05-.06l6.41-2.5s.06,0,.08.01l5.37,4.31s.03.05.03.08-.02.05-.05.06l-6.41,2.5s-.03,0-.04,0Zm-5.2-4.36l5.23,4.19,6.23-2.43-5.23-4.19-6.23,2.43Z"/><path class="cls-7" d="m331.71,166.43h0s0,0,0,0l.97-.5c.4-.2.66-.67.69-1.35.07-1.36-.8-3.05-1.94-3.79-.57-.37-1.1-.43-1.5-.23h0s-.97.5-.97.5h0c-.4.2-.66.67-.69,1.35-.07,1.36.8,3.05,1.94,3.79.57.37,1.1.43,1.5.23Zm-.47-2.12c-.49-.32-.86-1.04-.84-1.63.49.32.86,1.04.84,1.63Z"/><path class="cls-5" d="m332.41,165.09c.07-1.36-.8-3.05-1.94-3.79-1.14-.74-2.12-.24-2.19,1.12-.07,1.36.8,3.05,1.94,3.79,1.14.74,2.12.24,2.19-1.12Zm-1.16-.75c-.03.59-.46.81-.96.49-.5-.32-.88-1.06-.85-1.66s.46-.81.96-.49c.5.32.88,1.06.85,1.66Z"/><path class="cls-10" d="m331.15,166.68h0c-.32-.02-.66-.14-1-.36-1.18-.76-2.08-2.52-2-3.91.04-.71.31-1.22.77-1.46l.97-.5s0,0,.01,0c.45-.22,1.03-.14,1.62.24,1.18.76,2.08,2.52,2,3.91-.04.71-.31,1.23-.77,1.46l-.97.5c-.19.1-.4.14-.63.13Zm-1.16-5.98l-.96.49c-.37.19-.59.63-.62,1.23-.07,1.31.78,2.96,1.88,3.67.3.19.6.3.87.32h0c.18,0,.34-.02.49-.09,0,0,0,0,0,0l.97-.5c.37-.19.59-.63.62-1.23.07-1.31-.78-2.96-1.88-3.67-.5-.32-1-.4-1.36-.22,0,0,0,0-.01,0Zm1.25,3.75s-.05,0-.07-.02c-.52-.35-.92-1.12-.9-1.75,0-.05.03-.09.07-.12.04-.02.1-.02.14,0,.52.35.92,1.12.9,1.75,0,.05-.03.09-.07.12-.02.01-.05.02-.07.01Zm-.67-1.45c.07.36.26.73.51,1-.07-.36-.26-.73-.51-1Z"/><path class="cls-7" d="m331.15,166.68h0c-.32-.02-.66-.14-1-.36-1.18-.76-2.08-2.52-2-3.91.05-1,.6-1.63,1.4-1.59.32.02.66.14,1,.36,1.18.76,2.07,2.51,2,3.91-.03.5-.17.91-.42,1.19-.25.28-.59.42-.98.4Zm-1.63-5.59c-.64-.03-1.07.48-1.11,1.33-.07,1.31.78,2.96,1.88,3.67.3.19.6.3.87.32h0c.31.02.57-.09.76-.31.21-.23.33-.59.35-1.02.07-1.31-.78-2.96-1.88-3.67-.3-.19-.6-.3-.87-.32Zm1.17,4.02c-.15,0-.31-.07-.48-.17-.54-.35-.94-1.13-.91-1.78.02-.49.3-.79.69-.77.15,0,.31.07.48.17.54.35.94,1.13.91,1.78-.02.49-.3.79-.69.77Zm-.71-2.44c-.24-.01-.39.18-.4.51-.03.55.33,1.24.79,1.54.12.08.24.12.34.13.24.01.39-.18.41-.51.03-.55-.33-1.24-.79-1.54-.12-.08-.24-.12-.34-.13Z"/><path class="cls-9" d="m332.41,165.09c.02-.31-.02-.65-.1-.98l.97-.5c.08.33.12.67.1.98-.03.68-.3,1.14-.69,1.35l-.97.5c.4-.2.66-.67.69-1.34Zm-1.77-1.49c-.15-.29-.24-.62-.23-.91h0s0,0-.01-.01c-.5-.32-.93-.1-.96.49-.02.3.07.63.23.93l.97-.5Z"/><path class="cls-9" d="m331.71,166.57s-.09-.03-.11-.07c-.03-.07,0-.15.06-.18h0c.37-.19.59-.62.62-1.23.01-.28-.02-.6-.1-.94-.01-.06.02-.12.07-.15l.97-.5s.08-.02.12,0c.04.02.07.05.08.09.08.37.12.71.1,1.02-.04.71-.31,1.23-.77,1.46l-.97.5s0,0,0,0c-.02.01-.05.02-.07.01Zm.76-2.39c.07.33.09.64.08.91-.02.33-.09.62-.2.86l.28-.14c.37-.19.59-.63.62-1.23.01-.23,0-.49-.06-.77l-.72.37Zm-2.81.05s-.09-.03-.11-.07c-.17-.33-.26-.69-.24-1,.02-.49.3-.79.69-.77.15,0,.31.07.48.17.04.03.08.08.08.13,0,.26.07.56.21.84.03.07,0,.15-.06.18l-.97.5s-.05.02-.07.01Zm.32-1.57c-.24-.01-.39.18-.4.51-.01.23.04.48.15.74l.73-.37c-.12-.26-.18-.53-.18-.77-.11-.06-.21-.09-.29-.1Z"/><polygon class="cls-7" points="335.96 170.3 334.44 169.31 331.52 158.37 332.49 157.88 334.02 158.86 336.93 169.8 335.96 170.3"/><path class="cls-10" d="m335.96,170.43s-.05,0-.07-.02l-1.53-.99s-.05-.05-.06-.08l-2.92-10.94c-.02-.06.01-.13.07-.16l.97-.5s.1-.02.14,0l1.53.99s.05.05.06.08l2.92,10.94c.02.06-.01.13-.07.16l-.97.5s-.05.02-.07.02Zm-1.4-1.21l1.42.92.8-.41-2.87-10.78-1.42-.92-.8.41,2.87,10.78Z"/><polygon class="cls-5" points="333.05 159.36 331.52 158.37 334.44 169.31 335.96 170.3 333.05 159.36"/><path class="cls-10" d="m335.96,170.43s-.05,0-.07-.02l-1.53-.99s-.05-.05-.06-.08l-2.92-10.94c-.01-.05,0-.11.05-.15.05-.03.11-.04.15,0l1.53.99s.05.05.06.08l2.92,10.94c.01.05,0,.11-.05.15-.03.02-.06.03-.09.03Zm-1.4-1.21l1.19.77-2.81-10.54-1.19-.77,2.81,10.54Z"/><polygon class="cls-9" points="333.05 159.36 334.02 158.86 336.93 169.8 335.96 170.3 333.05 159.36"/><path class="cls-9" d="m335.96,170.43s-.03,0-.05-.01c-.04-.02-.07-.05-.08-.09l-2.92-10.94c-.02-.06.01-.13.07-.16l.97-.5s.08-.02.12,0c.04.02.07.05.08.09l2.92,10.94c.02.06-.01.13-.07.16l-.97.5s-.05.02-.07.02Zm-2.75-11l2.84,10.67.72-.37-2.84-10.67-.72.37Z"/><path class="cls-7" d="m338.51,167.6h0s0,0,0,0l.97-.5c.4-.2.66-.67.69-1.34.07-1.36-.8-3.05-1.94-3.79-.57-.37-1.1-.43-1.5-.23h0l-.97.5h0c-.4.2-.66.67-.69,1.35-.07,1.36.8,3.05,1.94,3.79.57.37,1.1.43,1.5.23Zm-.47-2.12c-.49-.32-.86-1.04-.83-1.63.49.32.86,1.04.83,1.63Z"/><path class="cls-7" d="m337.95,167.85c-.32-.02-.66-.14-1-.36-1.18-.76-2.08-2.52-2-3.91.03-.7.3-1.22.76-1.46,0,0,0,0,0,0l.97-.5c.45-.23,1.04-.15,1.63.23,1.18.76,2.08,2.52,2,3.91-.04.71-.31,1.23-.77,1.46l-.96.49s0,0-.01,0c-.18.09-.39.14-.62.12Zm-2.11-5.49s0,0,0,0c-.37.19-.59.62-.62,1.23-.07,1.31.78,2.96,1.88,3.67.5.32.99.4,1.35.22,0,0,0,0,0,0l.97-.5c.37-.19.59-.62.62-1.23.07-1.31-.78-2.96-1.88-3.67-.5-.32-1-.4-1.36-.22l-.96.49Zm2.2,3.27s-.05,0-.07-.02c-.52-.35-.92-1.12-.9-1.75,0-.05.03-.09.07-.12.04-.02.1-.02.14,0,.52.35.92,1.12.89,1.75,0,.05-.03.09-.07.12-.02.01-.05.02-.07.01Zm-.67-1.45c.07.36.26.73.51,1-.07-.36-.26-.73-.51-1Z"/><path class="cls-5" d="m339.21,166.26c.07-1.36-.8-3.05-1.94-3.79-1.14-.74-2.12-.24-2.19,1.12-.07,1.36.8,3.05,1.94,3.79,1.14.74,2.12.24,2.19-1.12Zm-1.16-.75c-.03.59-.46.81-.96.49-.5-.32-.88-1.06-.85-1.66s.46-.81.96-.49c.5.32.88,1.06.85,1.66Z"/><path class="cls-10" d="m337.95,167.85h0c-.32-.02-.66-.14-1-.36-1.18-.76-2.08-2.52-2-3.91.02-.5.17-.91.42-1.19.46-.51,1.22-.53,1.98-.04,1.18.76,2.08,2.52,2,3.91-.03.5-.17.91-.42,1.19-.25.28-.59.42-.98.4Zm-1.63-5.59c-.3-.02-.57.09-.76.31-.21.23-.33.59-.35,1.02-.07,1.31.78,2.96,1.88,3.67.64.41,1.27.42,1.63,0,.21-.23.33-.59.35-1.02.07-1.31-.78-2.96-1.88-3.67-.3-.19-.6-.3-.87-.32Zm1.17,4.02c-.15,0-.31-.06-.48-.17-.54-.35-.94-1.13-.91-1.78.02-.49.3-.79.69-.77.15,0,.31.07.48.17.54.35.94,1.13.91,1.78-.02.49-.3.79-.69.77Zm-.71-2.44c-.24-.01-.39.18-.41.51-.03.55.33,1.24.79,1.54.12.08.24.12.34.13.24.01.39-.18.4-.51.03-.55-.33-1.24-.79-1.54-.12-.08-.24-.12-.34-.13Z"/><path class="cls-9" d="m339.21,166.26c.02-.31-.02-.65-.1-.98l.97-.5c.08.33.12.67.1.98-.03.68-.3,1.14-.69,1.34l-.97.5c.4-.2.66-.67.69-1.34Zm-1.77-1.49c-.15-.29-.24-.62-.23-.91h0s0,0-.01-.01c-.5-.32-.93-.1-.96.49-.01.3.07.63.23.93l.97-.5Z"/><path class="cls-9" d="m338.51,167.74s-.09-.03-.11-.07c-.03-.07,0-.15.06-.18h0c.37-.19.59-.63.62-1.23.01-.28-.02-.6-.1-.94-.01-.06.02-.12.07-.15l.97-.5s.08-.02.12,0c.04.02.07.05.08.09.08.37.12.71.1,1.02-.04.71-.31,1.23-.77,1.46l-.97.5s0,0,0,0c-.02.01-.05.02-.07.01Zm.76-2.39c.07.33.09.64.08.91-.02.33-.09.62-.2.86l.28-.14c.37-.19.59-.62.62-1.23.01-.23,0-.49-.06-.77l-.72.37Zm-2.81.05s-.09-.03-.11-.07c-.17-.33-.26-.69-.24-1,.02-.49.3-.79.69-.77.15,0,.31.07.48.17h0s.01,0,.02.01c.04.03.06.07.06.12,0,.26.07.56.21.84.03.07,0,.15-.06.18l-.97.5s-.05.02-.07.02Zm.32-1.57c-.24-.01-.39.18-.41.51-.01.23.04.48.15.74l.73-.37c-.11-.26-.18-.53-.18-.77-.11-.06-.21-.09-.29-.1Z"/><path class="cls-4" d="m249.57,178.14h0c-.38.09-.76.08-1.07-.01-.35-.11-.58-.32-.64-.59s.05-.56.32-.81c.47-.44,1.41-.66,2.03-.47.35.11.57.32.64.59.06.27-.05.56-.32.81-.24.22-.58.39-.96.48Zm-.35-1.5c-.31.07-.59.21-.78.38-.16.15-.23.3-.2.43s.16.23.37.3c.48.15,1.27-.03,1.64-.38.16-.14.23-.3.2-.43-.03-.13-.16-.24-.37-.3-.24-.07-.56-.08-.87,0Z"/></g></svg>