<svg width="27" height="24" viewBox="0 0 27 24" fill="none" xmlns="http://www.w3.org/2000/svg">
<path d="M15.1623 8.68056V0H7.06395C6.6511 0.00122125 6.2555 0.164526 5.96357 0.454249C5.67164 0.743971 5.50709 1.13657 5.50586 1.5463V22.4537C5.50709 22.8634 5.67164 23.256 5.96357 23.5457C6.2555 23.8355 6.6511 23.9988 7.06395 24H24.5015C24.9143 23.9988 25.3099 23.8355 25.6019 23.5457C25.8938 23.256 26.0584 22.8634 26.0596 22.4537V8.68056H15.1623Z" fill="#8EA531"/>
<path d="M4.17382 20.7825C3.23455 20.777 2.32426 20.4591 1.58852 19.8797C0.852777 19.3002 0.334084 18.4926 0.115389 17.586C-0.103306 16.6795 -0.00937052 15.7263 0.382173 14.879C0.773717 14.0317 1.44025 13.3392 2.27519 12.9121C2.30724 11.7422 2.71706 10.6133 3.44428 9.69195C4.1715 8.77055 5.17767 8.1053 6.31457 7.79419C7.45147 7.48308 8.65899 7.54256 9.75926 7.96387C10.8595 8.38517 11.7944 9.14603 12.4261 10.1344C12.9185 9.94315 13.4415 9.84123 13.9702 9.83343C14.8999 9.83108 15.8058 10.1242 16.5555 10.6699C17.3051 11.2156 17.859 11.9851 18.136 12.8658C18.8384 13.2117 19.4292 13.7458 19.8414 14.4078C20.2537 15.0697 20.4709 15.833 20.4685 16.6112C20.4702 17.6125 20.1087 18.5809 19.4499 19.3392C18.7911 20.0975 17.8793 20.5951 16.8811 20.7408V20.7825H4.17382Z" fill="#8EA531"/>
<path d="M17.6073 13.2965C17.474 12.7413 17.2141 12.2237 16.8476 11.7838C16.481 11.3438 16.0177 10.9932 15.4932 10.7589C14.9687 10.5245 14.397 10.4128 13.8222 10.4321C13.2473 10.4515 12.6846 10.6015 12.1773 10.8706C11.6835 9.89001 10.8707 9.10344 9.87046 8.63816C8.87025 8.17288 7.74111 8.0561 6.66573 8.30671C5.59034 8.55732 4.6316 9.16067 3.94461 10.0191C3.25762 10.8776 2.88255 11.941 2.8801 13.0373C2.8801 13.116 2.8801 13.1993 2.8801 13.278C2.09644 13.5789 1.44345 14.1422 1.03419 14.8705C0.624924 15.5988 0.48515 16.4462 0.639065 17.266C0.792979 18.0858 1.23089 18.8264 1.87699 19.3596C2.52309 19.8927 3.33669 20.1849 4.17695 20.1854H16.2778C17.1125 20.1815 17.9198 19.89 18.5619 19.3607C19.204 18.8315 19.6408 18.0973 19.7978 17.2837C19.9549 16.4702 19.8223 15.6277 19.4227 14.9005C19.0231 14.1732 18.3814 13.6063 17.6073 13.2965Z" fill="white"/>
<path opacity="0.6" d="M16.3652 7.68056H26.059L16.3652 0V7.68056Z" fill="#29292E"/>
<path d="M16.3652 7.68056H26.059L16.3652 0V7.68056Z" fill="#8EA531"/>
<path d="M9.26014 15.1894C9.75223 15.1894 10.1511 14.7935 10.1511 14.3052C10.1511 13.8168 9.75223 13.4209 9.26014 13.4209C8.76806 13.4209 8.36914 13.8168 8.36914 14.3052C8.36914 14.7935 8.76806 15.1894 9.26014 15.1894Z" fill="#8EA531"/>
<path d="M9.52584 14.6289H9.00803L8.40625 17.0965H10.1323L9.52584 14.6289Z" fill="#8EA531"/>
</svg>
