<svg width="39" height="39" viewBox="0 0 39 39" fill="none" xmlns="http://www.w3.org/2000/svg">
<path d="M19.3076 38.375C29.663 38.375 38.0576 29.9803 38.0576 19.625C38.0576 9.26966 29.663 0.875 19.3076 0.875C8.95228 0.875 0.557617 9.26966 0.557617 19.625C0.557617 29.9803 8.95228 38.375 19.3076 38.375Z" fill="#F46151"/>
<path d="M18.5376 24.0133L17.7396 15.7248V9.48047H20.8898V15.7248L20.0777 24.0133H18.5376ZM19.2937 29.7676C18.6496 29.7676 18.1176 29.5528 17.6976 29.1235C17.287 28.6847 17.0815 28.1667 17.0815 27.5695C17.0815 26.972 17.287 26.454 17.6976 26.0154C18.1176 25.5765 18.6496 25.3573 19.2937 25.3573C19.9377 25.3573 20.4697 25.5765 20.8898 26.0154C21.3192 26.454 21.5338 26.972 21.5338 27.5695C21.5338 28.1667 21.3192 28.6847 20.8898 29.1235C20.4697 29.5528 19.9377 29.7676 19.2937 29.7676Z" fill="white"/>
</svg>
