<svg width="19" height="20" viewBox="0 0 19 20" fill="none" xmlns="http://www.w3.org/2000/svg">
<path d="M12.0586 2H2.05859V18H16.0586V6H12.0586V2ZM0.0585938 0.992C0.0585938 0.444 0.505594 0 1.05759 0H13.0586L18.0586 5V18.993C18.0595 19.1243 18.0346 19.2545 17.9852 19.3762C17.9358 19.4979 17.8629 19.6087 17.7707 19.7022C17.6784 19.7957 17.5687 19.8701 17.4477 19.9212C17.3268 19.9723 17.1969 19.9991 17.0656 20H1.05159C0.788972 19.9982 0.537611 19.8931 0.351811 19.7075C0.166012 19.5219 0.0606884 19.2706 0.0585938 19.008V0.992ZM9.05859 9.5C8.39555 9.5 7.75967 9.23661 7.29083 8.76777C6.82199 8.29893 6.55859 7.66304 6.55859 7C6.55859 6.33696 6.82199 5.70107 7.29083 5.23223C7.75967 4.76339 8.39555 4.5 9.05859 4.5C9.72163 4.5 10.3575 4.76339 10.8264 5.23223C11.2952 5.70107 11.5586 6.33696 11.5586 7C11.5586 7.66304 11.2952 8.29893 10.8264 8.76777C10.3575 9.23661 9.72163 9.5 9.05859 9.5ZM4.58559 15C4.70681 13.8984 5.23028 12.8803 6.05567 12.1407C6.88107 11.4012 7.95034 10.9922 9.05859 10.9922C10.1668 10.9922 11.2361 11.4012 12.0615 12.1407C12.8869 12.8803 13.4104 13.8984 13.5316 15H4.58559Z" fill="#B1B1BA"/>
</svg>
