<svg width="42" height="40" viewBox="0 0 42 40" fill="none" xmlns="http://www.w3.org/2000/svg">
<path fill-rule="evenodd" clip-rule="evenodd" d="M4.57972 3.85646C4.15817 3.85646 3.81643 4.19819 3.81643 4.61974L3.81643 11.4908C3.81643 12.5447 2.96209 13.3991 1.90822 13.3991C0.854338 13.3991 0 12.5447 0 11.4908V0.80186C0 0.380309 0.341735 0.0385742 0.763286 0.0385742H3.8157C3.81611 0.0385742 3.81643 0.0388994 3.81643 0.0393005C3.81643 0.0397016 3.81676 0.0400268 3.81716 0.0400268H15.2598C16.3137 0.0400268 17.168 0.894364 17.168 1.94824C17.168 3.00212 16.3137 3.85646 15.2598 3.85646H4.57972Z" fill="#666673"/>
<path fill-rule="evenodd" clip-rule="evenodd" d="M26.7041 0.00695778C25.6502 0.00751191 24.7963 0.862298 24.7969 1.91618C24.7974 2.97005 25.6522 3.82394 26.7061 3.82339L37.3848 3.81777C37.8065 3.81755 38.1484 4.15935 38.1484 4.58106V11.4905C38.1484 12.5444 39.0028 13.3987 40.0567 13.3987C41.1105 13.3987 41.9649 12.5444 41.9649 11.4905V0.801506C41.9649 0.379955 41.6231 0.0382199 41.2016 0.0382199L39.9751 0.0382199C39.9645 0.0382199 39.956 0.0296657 39.956 0.0191099C39.956 0.00855026 39.9474 -5.54956e-06 39.9369 2.70081e-09L26.7041 0.00695778Z" fill="#666673"/>
<path fill-rule="evenodd" clip-rule="evenodd" d="M4.57972 36.1769C4.15817 36.1769 3.81643 35.8351 3.81643 35.4136L3.81643 28.542C3.81643 27.4881 2.96209 26.6338 1.90822 26.6338C0.854338 26.6338 0 27.4881 0 28.542V39.231C0 39.6525 0.341735 39.9943 0.763286 39.9943H3.81595C3.81622 39.9943 3.81643 39.9941 3.81643 39.9938C3.81643 39.9935 3.81665 39.9933 3.81691 39.9933H15.2598C16.3137 39.9933 17.168 39.139 17.168 38.0851C17.168 37.0312 16.3137 36.1769 15.2598 36.1769H4.57972Z" fill="#666673"/>
<path fill-rule="evenodd" clip-rule="evenodd" d="M37.377 36.1821C37.7987 36.1823 38.1406 35.8405 38.1406 35.4188V28.542C38.1406 27.4881 38.995 26.6338 40.0488 26.6338C41.1027 26.6338 41.9571 27.4881 41.9571 28.542V39.4693C41.9571 39.7592 41.722 39.9943 41.4321 39.9943H40.9104C40.9087 39.9943 40.9074 39.9956 40.9074 39.9973C40.9074 39.9989 40.906 40.0003 40.9044 40.0003L26.7042 39.9933C25.6503 39.9928 24.7964 39.138 24.7969 38.0842C24.7974 37.0303 25.6521 36.1764 26.706 36.1769L37.377 36.1821Z" fill="#666673"/>
<ellipse cx="20.9964" cy="14.736" rx="3.49741" ry="3.49923" stroke="#666673" stroke-width="2.79872"/>
<path d="M27.9916 26.0232C27.9916 27.9557 27.9916 29.5224 20.9968 29.5224C14.002 29.5224 14.002 27.9557 14.002 26.0232C14.002 24.0906 17.1336 22.5239 20.9968 22.5239C24.8599 22.5239 27.9916 24.0906 27.9916 26.0232Z" stroke="#666673" stroke-width="2.79872"/>
</svg>
