<svg width="46" height="40" viewBox="0 0 46 40" fill="none" xmlns="http://www.w3.org/2000/svg">
<path d="M19.0445 38.095C8.52624 38.095 0 29.5674 0 19.0475C0 8.52757 8.52624 0 19.0445 0C29.5628 0 38.0891 8.52757 38.0891 19.0475C38.0891 29.5674 29.5628 38.095 19.0445 38.095ZM9.54703 30.9636C12.2429 33.1192 15.5931 34.291 19.0445 34.2855C22.7963 34.2855 26.23 32.9293 28.8848 30.6817C27.6445 29.4089 26.1616 28.3977 24.5237 27.708C22.8859 27.0184 21.1263 26.6642 19.3492 26.6665C17.5069 26.6644 15.6841 27.0453 13.9967 27.785C12.3093 28.5247 10.794 29.6072 9.54703 30.9636ZM6.8865 28.2284C8.48711 26.5295 10.4186 25.1764 12.562 24.2526C14.7054 23.3288 17.0153 22.8539 19.3492 22.857C21.5996 22.8541 23.8285 23.2958 25.9077 24.1568C27.9869 25.0177 29.8757 26.281 31.4654 27.8741C33.0957 25.5791 34.0585 22.8773 34.247 20.0683C34.4354 17.2593 33.8421 14.453 32.5328 11.9608C31.2236 9.46856 29.2496 7.38781 26.8299 5.94938C24.4102 4.51096 21.6393 3.7711 18.8248 3.81189C16.0102 3.85267 13.262 4.67251 10.8849 6.18045C8.50792 7.68839 6.59505 9.82547 5.35855 12.3546C4.12205 14.8837 3.61026 17.706 3.87997 20.5083C4.14969 23.3107 5.19035 25.9835 6.8865 28.2303V28.2284ZM19.0445 20.9522C17.0242 20.9522 15.0865 20.1495 13.6579 18.7207C12.2293 17.2919 11.4267 15.3539 11.4267 13.3333C11.4267 11.3126 12.2293 9.37464 13.6579 7.9458C15.0865 6.51696 17.0242 5.71425 19.0445 5.71425C21.0649 5.71425 23.0025 6.51696 24.4311 7.9458C25.8598 9.37464 26.6624 11.3126 26.6624 13.3333C26.6624 15.3539 25.8598 17.2919 24.4311 18.7207C23.0025 20.1495 21.0649 20.9522 19.0445 20.9522ZM19.0445 17.1427C20.0547 17.1427 21.0235 16.7414 21.7378 16.027C22.4522 15.3126 22.8534 14.3436 22.8534 13.3333C22.8534 12.3229 22.4522 11.3539 21.7378 10.6395C21.0235 9.92511 20.0547 9.52375 19.0445 9.52375C18.0344 9.52375 17.0655 9.92511 16.3512 10.6395C15.6369 11.3539 15.2356 12.3229 15.2356 13.3333C15.2356 14.3436 15.6369 15.3126 16.3512 16.027C17.0655 16.7414 18.0344 17.1427 19.0445 17.1427Z" fill="#666673"/>
<rect x="26.6797" y="20.9526" width="19.0445" height="19.0475" rx="9.52227" fill="#666673"/>
<path d="M34.6367 36.2456L34.6367 24.7071L37.7831 24.7071L37.7831 36.2456L34.6367 36.2456Z" fill="#111C19"/>
<path d="M30.4336 28.9033L41.9703 28.9033V32.0502H30.4336V28.9033Z" fill="#111C19"/>
</svg>
