<svg width="39" height="39" viewBox="0 0 39 39" fill="none" xmlns="http://www.w3.org/2000/svg">
<path d="M19.3086 38.1338C29.6645 38.1338 38.0596 29.7387 38.0596 19.3828C38.0596 9.02693 29.6645 0.631836 19.3086 0.631836C8.95272 0.631836 0.557617 9.02693 0.557617 19.3828C0.557617 29.7387 8.95272 38.1338 19.3086 38.1338Z" fill="#29B57E"/>
<path d="M15.3531 24.2693L11.0267 19.8895C10.5446 19.4014 9.77822 19.4014 9.29613 19.8895C8.81405 20.3775 8.81405 21.1534 9.29613 21.6414L14.4754 26.8847C14.9575 27.3727 15.7363 27.3727 16.2183 26.8847L29.3211 13.6326C29.8032 13.1446 29.8032 12.3687 29.3211 11.8807C28.839 11.3926 28.0726 11.3926 27.5906 11.8807L15.3531 24.2693Z" fill="white"/>
</svg>
