<svg width="82" height="82" viewBox="0 0 82 82" fill="none" xmlns="http://www.w3.org/2000/svg">
<circle cx="41" cy="41" r="40.5" fill="#383840" stroke="#383840"/>
<mask id="mask0_1994_63956" style="mask-type:alpha" maskUnits="userSpaceOnUse" x="5" y="8" width="72" height="72">
<circle cx="41.0003" cy="43.826" r="33.7474" fill="#44444D" stroke="#44444D" stroke-width="3"/>
</mask>
<g mask="url(#mask0_1994_63956)">
<path fill-rule="evenodd" clip-rule="evenodd" d="M40.9999 44.7436C46.8303 44.7436 51.5752 40.0009 51.5752 34.1705C51.5752 28.3379 46.8303 23.5952 40.9999 23.5952C35.1695 23.5952 30.4268 28.3379 30.4268 34.1705C30.4268 40.0009 35.1695 44.7436 40.9999 44.7436Z" fill="url(#paint0_linear_1994_63956)"/>
<path fill-rule="evenodd" clip-rule="evenodd" d="M63.3863 67.66C60.354 58.0707 52.2063 52.5762 41.0233 52.5762H40.9427C29.7298 52.5135 21.5403 58.0468 18.502 67.66L17.8545 70.3682L19.1814 71.504C25.2807 76.2214 32.7327 79.0726 41.2565 79.0726C41.352 79.0726 41.8277 79.0623 41.9202 79.0623C50.5634 79.0623 57.5793 75.5359 62.9467 71.4249L64.2681 70.3095L63.3863 67.66Z" fill="url(#paint1_linear_1994_63956)"/>
</g>
<circle cx="41" cy="41" r="39.6" stroke="#383840" stroke-width="2.8"/>
<defs>
<linearGradient id="paint0_linear_1994_63956" x1="62.9021" y1="72.6175" x2="35.0627" y2="78.6174" gradientUnits="userSpaceOnUse">
<stop stop-color="#29B57E"/>
<stop offset="1" stop-color="#D2F739"/>
</linearGradient>
<linearGradient id="paint1_linear_1994_63956" x1="59.971" y1="70.8069" x2="29.2084" y2="45.2503" gradientUnits="userSpaceOnUse">
<stop stop-color="#29B57E"/>
<stop offset="1" stop-color="#D2F739"/>
</linearGradient>
</defs>
</svg>
