<svg width="68" height="48" viewBox="0 0 68 48" fill="none" xmlns="http://www.w3.org/2000/svg">
<path d="M67.6533 22.7589L46.2202 10.166L3.3548 35.3514L24.7876 47.944L67.6533 22.7589Z" fill="black"/>
<path d="M65.1191 16.2232L46.4909 5.27832L9.23521 27.1678L27.8632 38.1124L65.1191 16.2232Z" fill="#E0FF5F"/>
<path d="M27.8657 35.9213L12.9636 27.1656L46.4934 7.46582L61.3955 16.2213L27.8657 35.9213Z" fill="url(#paint0_linear_1343_46318)"/>
<path d="M31.5925 18.4115C34.6662 16.6057 39.6957 16.6057 42.7691 18.4115C45.8425 20.2174 45.8427 23.1723 42.7691 24.9781C39.6954 26.7839 34.666 26.7839 31.5925 24.9781C28.5191 23.1723 28.5191 20.2174 31.5925 18.4115Z" fill="#E0FF5F"/>
<path d="M31.591 14.0347L50.2188 24.9793L42.7676 29.357L24.1399 18.4124L31.5908 14.0347H31.591Z" fill="#FDFDFD"/>
<path d="M65.1191 22.7885L27.8637 44.6775V38.1109L65.1191 16.2217V22.7883V22.7885Z" fill="#1D974F"/>
<path d="M9.23947 27.166V33.7326L27.8672 44.6772V38.1106L9.23947 27.166Z" fill="#36D068"/>
<path d="M50.2188 24.979V31.5456L42.7676 35.9233V29.3567L50.2188 24.979Z" fill="#DEDEDE"/>
<mask id="mask0_1343_46318" style="mask-type:luminance" maskUnits="userSpaceOnUse" x="9" y="5" width="57" height="34">
<path d="M65.1211 16.2212L46.4929 5.27637L9.23717 27.1658L27.8651 38.1104L65.1211 16.2212Z" fill="white"/>
</mask>
<g mask="url(#mask0_1343_46318)">
<path d="M65.1234 18.4086C67.1724 17.2047 67.1724 15.2346 65.1234 14.0309C63.0744 12.8269 59.7215 12.8269 57.6722 14.0309C55.6232 15.2349 55.6232 17.2049 57.6722 18.4086C59.7212 19.6124 63.0744 19.6126 65.1234 18.4086Z" fill="#E0FF5F"/>
<path d="M50.222 9.65318C52.271 8.44919 52.271 6.47916 50.222 5.27545C48.173 4.07173 44.8201 4.07146 42.7708 5.27545C40.7215 6.47943 40.7218 8.44946 42.7708 9.65318C44.8199 10.8569 48.173 10.8572 50.222 9.65318Z" fill="#E0FF5F"/>
<path d="M31.5931 38.1078C33.6421 36.9038 33.6421 34.9338 31.5931 33.73C29.5441 32.5263 26.1912 32.5261 24.1419 33.73C22.0929 34.934 22.0929 36.9041 24.1419 38.1078C26.1909 39.3117 29.5441 39.3117 31.5931 38.1078Z" fill="#E0FF5F"/>
<path d="M16.6917 29.353C18.7408 28.149 18.7408 26.179 16.6917 24.9753C14.6427 23.7713 11.2898 23.7713 9.24055 24.9753C7.19153 26.1792 7.19153 28.1493 9.24055 29.353C11.2896 30.557 14.6427 30.557 16.6917 29.353Z" fill="#E0FF5F"/>
</g>
<path d="M62.1631 11.002L43.5349 0.0571289L6.27916 21.9466L24.9071 32.8912L62.1631 11.002Z" fill="#E0FF5F"/>
<path d="M24.9086 30.7006L10.0065 21.9449L43.5364 2.24512L58.4385 11.0006L24.9086 30.7006Z" fill="url(#paint1_linear_1343_46318)"/>
<path d="M28.6336 13.1908C31.7072 11.385 36.7367 11.385 39.8101 13.1908C42.8835 14.9966 42.8837 17.9516 39.8101 19.7574C36.7364 21.5632 31.707 21.5632 28.6336 19.7574C25.5602 17.9516 25.5602 14.9966 28.6336 13.1908Z" fill="#E0FF5F"/>
<path d="M28.633 8.8125L47.2607 19.7571L39.8096 24.1348L21.1818 13.1902L28.6328 8.8125H28.633Z" fill="#FDFDFD"/>
<path d="M62.1631 17.5674L24.9077 39.4563V32.8897L62.1631 11.0005V17.5671V17.5674Z" fill="#1D974F"/>
<path d="M6.27951 21.9463V28.5129L24.9072 39.4575V32.8909L6.27951 21.9463Z" fill="#36D068"/>
<path d="M47.2607 19.7573V26.3239L39.8096 30.7017V24.1351L47.2607 19.7573Z" fill="#DEDEDE"/>
<mask id="mask1_1343_46318" style="mask-type:luminance" maskUnits="userSpaceOnUse" x="6" y="0" width="57" height="33">
<path d="M62.1621 11.001L43.5339 0.0561523L6.27818 21.9456L24.9062 32.8902L62.1621 11.001Z" fill="white"/>
</mask>
<g mask="url(#mask1_1343_46318)">
<path d="M62.1624 13.1928C64.2115 11.9888 64.2115 10.0188 62.1624 8.8151C60.1134 7.61111 56.7605 7.61111 54.7113 8.8151C52.6622 10.0191 52.6622 11.9891 54.7113 13.1928C56.7603 14.3965 60.1134 14.3968 62.1624 13.1928Z" fill="#E0FF5F"/>
<path d="M47.2611 4.43638C49.3101 3.2324 49.3101 1.26236 47.2611 0.0586486C45.2121 -1.14507 41.8592 -1.14533 39.8099 0.0586486C37.7606 1.26263 37.7609 3.23266 39.8099 4.43638C41.8589 5.64009 45.2121 5.64036 47.2611 4.43638Z" fill="#E0FF5F"/>
<path d="M28.6322 32.8919C30.6812 31.688 30.6812 29.7179 28.6322 28.5142C26.5832 27.3105 23.2303 27.3102 21.181 28.5142C19.132 29.7182 19.132 31.6882 21.181 32.8919C23.23 34.0959 26.5832 34.0959 28.6322 32.8919Z" fill="#E0FF5F"/>
<path d="M13.7308 24.1362C15.7798 22.9322 15.7798 20.9622 13.7308 19.7585C11.6818 18.5545 8.3289 18.5545 6.27961 19.7585C4.23059 20.9624 4.23059 22.9325 6.27961 24.1362C8.32864 25.3402 11.6818 25.3402 13.7308 24.1362Z" fill="#E0FF5F"/>
</g>
<path d="M4.64756 15.6853C4.64756 15.6853 5.25486 18.0825 5.24935 18.6604C5.24384 19.2383 5.61742 20.3216 4.0797 20.9552C4.0797 20.9552 2.29269 21.6136 1.80252 21.6693C1.80252 21.6693 3.68234 21.2045 4.19924 21.2049C4.71613 21.2053 5.74242 21.0716 6.42529 23.2242L7.07501 25.5888C7.07501 25.5888 6.49978 23.0837 6.46735 22.5747C6.43492 22.0656 6.1504 20.8536 7.77326 20.258L9.79554 19.6294C9.79554 19.6294 8.15974 20.0932 7.17195 20.0736C6.18416 20.0541 5.46128 18.9111 4.64756 15.6853Z" fill="#33B568" stroke="#33B568" stroke-width="0.277825" stroke-miterlimit="10"/>
<path d="M62.584 27.0151C62.584 27.0151 62.861 28.1085 62.8585 28.3721C62.856 28.6357 63.0264 29.1298 62.325 29.4188C62.325 29.4188 61.5099 29.7191 61.2863 29.7445C61.2863 29.7445 62.1438 29.5325 62.3795 29.5327C62.6153 29.5329 63.0834 29.4719 63.3949 30.4538L63.6912 31.5323C63.6912 31.5323 63.4288 30.3897 63.4141 30.1575C63.3993 29.9253 63.2695 29.3725 64.0097 29.1008L64.9321 28.8141C64.9321 28.8141 64.186 29.0257 63.7354 29.0167C63.2849 29.0078 62.9552 28.4864 62.584 27.0151Z" fill="#33B568" stroke="#33B568" stroke-width="0.277825" stroke-miterlimit="10"/>
<ellipse cx="0.516529" cy="0.524118" rx="0.516529" ry="0.524118" transform="matrix(-1 0 0 1 63.1416 6.01367)" fill="#33B568"/>
<ellipse cx="0.834692" cy="0.846955" rx="0.834692" ry="0.846955" transform="matrix(-1 0 0 1 27.334 45.8872)" fill="#33B568"/>
<ellipse cx="1.0195" cy="1.03448" rx="1.0195" ry="1.03448" transform="matrix(-1 0 0 1 33.1729 2.51709)" fill="#33B568"/>
<defs>
<linearGradient id="paint0_linear_1343_46318" x1="37.1795" y1="7.46582" x2="37.1795" y2="35.9213" gradientUnits="userSpaceOnUse">
<stop stop-color="#54DD67"/>
<stop offset="1" stop-color="#D5FA39"/>
</linearGradient>
<linearGradient id="paint1_linear_1343_46318" x1="34.2225" y1="2.24512" x2="34.2225" y2="30.7006" gradientUnits="userSpaceOnUse">
<stop stop-color="#54DD67"/>
<stop offset="1" stop-color="#D5FA39"/>
</linearGradient>
</defs>
</svg>
