<svg width="19" height="18" viewBox="0 0 19 18" fill="none" xmlns="http://www.w3.org/2000/svg">
<path fill-rule="evenodd" clip-rule="evenodd" d="M9.44399 8.48242C8.44527 8.48242 7.63574 9.29172 7.63574 10.2914C7.63574 11.2903 8.44515 12.0997 9.44399 12.0997C10.4431 12.0997 11.253 11.29 11.253 10.2914C11.253 9.29195 10.4429 8.48242 9.44399 8.48242ZM6.51074 10.2914C6.51074 8.67063 7.82372 7.35742 9.44399 7.35742C11.064 7.35742 12.378 8.6704 12.378 10.2914C12.378 11.9118 11.0639 13.2247 9.44399 13.2247C7.82383 13.2247 6.51074 11.9116 6.51074 10.2914Z" fill="white"/>
<path fill-rule="evenodd" clip-rule="evenodd" d="M1.99917 10.05C3.54044 6.80545 6.32403 4.77669 9.44326 4.77539C9.44426 4.77539 9.44526 4.77539 9.44626 4.77539V5.90039C9.44576 5.90039 9.44526 5.90039 9.44476 5.90039C9.44426 5.90039 9.44376 5.90039 9.44326 5.90039M9.44476 5.90039C12.0358 5.90104 14.4747 7.58667 15.8742 10.5327L16.1155 11.0408L17.1317 10.558L16.8903 10.05C15.3491 6.80545 12.5655 4.77669 9.44626 4.77539M9.44476 5.90039C6.85376 5.90104 4.41481 7.58667 3.01534 10.5327L2.77398 11.0408L1.75781 10.558L1.99917 10.05" fill="white"/>
</svg>
