<svg width="83" height="87" viewBox="0 0 83 87" fill="none" xmlns="http://www.w3.org/2000/svg">
<g clip-path="url(#clip0_1343_46553)">
<path d="M2.43652 59.7515L41.655 82.4508L80.5237 60.0365L41.3052 37.3242L2.43652 59.7515Z" fill="#B0C838" fill-opacity="0.32"/>
<path d="M67.7033 10.4633L63.5055 8.04053L50.4456 0.5L36.129 8.76608L32.0219 11.1371L16.8242 19.9084L29.8841 27.449L34.0949 29.8718L48.5152 38.2026L62.1322 30.3252L66.3559 27.8895L82.0847 18.7942L67.6904 10.4633H67.7033Z" fill="#F4CD47"/>
<path d="M48.5152 38.2034L48.4763 78.7823L33.9912 70.5162L29.7934 68.1193L16.8242 60.7213V19.9092L48.5152 38.2034Z" fill="#F5D568"/>
<path d="M66.3044 27.8902L62.1325 30.313L48.4637 38.2034L48.4248 78.7823L62.1325 70.9437L66.3044 68.5598L82.0592 59.5423V18.7949L66.3044 27.8902Z" fill="#EE9E38"/>
<path d="M33.9908 29.9372V70.5161L29.793 68.1192V27.5273L33.9908 29.9372Z" fill="#FAFFCA"/>
<path d="M67.7034 10.4638L55.9521 17.2529L51.7543 19.6887L34.095 29.8723L33.9654 29.95L29.7676 27.5272L29.8842 27.4494L47.5435 17.2529L51.7543 14.8171L63.5056 8.04102L67.7034 10.4638Z" fill="#F0F4A2"/>
<path d="M66.3555 27.89L62.1318 30.3258L52.7515 24.3529L48.6443 21.7487L32.0215 11.1376L36.1286 8.7666L48.8646 16.8902L52.9717 19.5073L66.3555 27.89Z" fill="#F0F4A2"/>
<path d="M48.852 13.1713C48.0487 10.9169 46.8179 8.74028 45.1983 6.92641C44.2007 5.81217 43.0605 4.85341 41.7779 4.089C37.2691 1.40706 31.5684 3.51892 31.089 8.85689C30.48 15.6071 39.1607 19.0534 44.6153 18.8461C45.3668 18.8202 46.1053 18.7166 46.8438 18.6518L49.0204 18.2372L49.9273 18.0688C49.9273 18.0688 49.3314 14.5188 48.839 13.1584L48.852 13.1713ZM46.7012 16.6565C45.3797 16.5918 43.9804 16.6177 42.6848 16.2938C40.0936 15.8792 37.2821 14.6095 36.0383 12.1996C35.3386 10.8521 34.7167 8.75324 35.9346 7.639C38.9145 4.94411 43.4881 9.62131 45.0817 11.9146C45.8202 12.977 46.4939 14.1171 47.077 15.2573C47.2713 15.633 47.4657 16.0087 47.6211 16.3974C47.6471 16.4752 47.673 16.5399 47.7118 16.6177L46.7142 16.6565H46.7012Z" fill="#FDFFE0"/>
<path d="M48.9561 18.251L49.5909 18.7822L51.1068 20.0519C51.651 20.4276 52.1822 20.8292 52.7652 21.1791C56.9241 23.7055 65.1773 24.7938 67.6389 19.2745C69.5824 14.8953 66.0712 10.7882 61.394 10.9048C60.0725 10.9436 58.751 11.2028 57.4942 11.6303C55.4471 12.33 53.5426 13.496 51.936 14.8953C50.9643 15.7504 48.9561 18.251 48.9561 18.251ZM51.34 18.0955C51.34 18.0955 51.4437 18.0048 51.5084 17.9659C51.7935 17.7327 52.1044 17.5124 52.4283 17.3051C53.3871 16.6703 54.4106 16.0743 55.4342 15.582C57.6626 14.4807 63.2597 12.8352 64.3999 16.2298C64.8793 17.6291 63.48 18.9895 62.3398 19.7409C60.3187 21.0754 57.572 20.8292 55.3823 20.0389C54.2292 19.728 53.1539 19.1061 52.0915 18.5749L51.327 18.1084L51.34 18.0955Z" fill="#FAFFCA"/>
<path d="M49.0075 18.7432C45.8332 19.1578 39.6401 26.3485 40.4953 33.1375C41.1301 31.6087 42.931 30.8054 45.2113 30.339C44.9133 27.683 45.6259 22.5393 50.1217 18.7432H49.0075Z" fill="#FAFFCA"/>
<path d="M49.915 18.8587C52.3378 20.9446 53.5816 30.3509 49.1247 35.5722C49.4357 33.9397 48.3732 32.2813 46.7148 30.6489C48.4251 28.5888 50.6535 23.8987 48.9692 18.2627L49.9021 18.8587H49.915Z" fill="#FAFFCA"/>
<path d="M66.3037 27.8896V68.5593L62.1318 70.9432V30.3125L66.3037 27.8896Z" fill="#F0F4A2"/>
<ellipse cx="49.1887" cy="18.341" rx="1.99436" ry="1.99436" fill="#D9D9D9"/>
<path d="M28.16 15.538C28.16 15.538 26.8476 19.8737 26.813 20.9308C26.7785 21.988 26.0015 23.9394 28.8055 25.2188C28.8055 25.2188 32.0702 26.5631 32.9754 26.7036C32.9754 26.7036 29.5235 25.7059 28.5644 25.666C27.6053 25.6262 25.7115 25.301 24.2778 29.1836L22.8892 33.4563C22.8892 33.4563 24.1504 28.9208 24.25 27.9926C24.3496 27.0643 24.9714 24.8703 22.0064 23.6537L18.3029 22.3455C18.3029 22.3455 21.3021 23.3221 23.1364 23.3639C24.9706 23.4057 26.4004 21.3725 28.16 15.538Z" fill="white" stroke="white" stroke-width="0.30612" stroke-miterlimit="10"/>
</g>
<defs>
<clipPath id="clip0_1343_46553">
<rect width="81.2356" height="85.835" fill="white" transform="translate(0.862305 0.5)"/>
</clipPath>
</defs>
</svg>
