<svg width="78" height="56" viewBox="0 0 78 56" fill="none" xmlns="http://www.w3.org/2000/svg">
<g clip-path="url(#clip0_1994_64943)">
<path opacity="0.1" d="M58.9612 26.357C58.3172 27.8597 57.1007 29.2192 55.455 30.3641L65.5443 36.2316L56.9576 38.6645L48.8718 34.0134C45.2225 35.3014 41.3585 35.7308 37.3514 35.5161C33.3443 35.2299 29.6234 34.5143 26.1888 33.441L22.0686 53.9313L12.2559 47.8838L15.4554 34.0134C15.9563 32.0099 16.2425 30.5788 16.2425 29.5054C16.2425 28.5037 15.527 27.645 14.239 26.8579L19.6772 23.7094L24.1136 26.2854C26.7612 27.7881 29.4803 28.8614 32.1994 29.3623C34.9185 29.8632 37.7092 29.7201 40.3568 29.0045L24.1136 19.6308L32.7003 17.1979L46.8683 25.3552C48.0132 24.2103 48.4425 22.9939 48.1563 21.849C47.7985 20.6326 46.6536 19.3446 44.6501 18.0566L35.6341 12.833L44.2208 10.4717L77.0647 29.4339L68.4781 31.7952L58.9612 26.2854V26.357Z" fill="#D7D7D7"/>
<path d="M37.3915 9.94233L29.9531 5.63281V14.488L37.3324 18.7975C38.9264 19.8601 39.93 20.8637 40.2251 21.9263V13.0712C39.989 12.0676 38.9854 11.005 37.3915 9.94233Z" fill="#1D974F"/>
<mask id="mask0_1994_64943" style="mask-type:luminance" maskUnits="userSpaceOnUse" x="40" y="13" width="1" height="10">
<path d="M40.3437 13.6631V22.5182C40.3437 22.5182 40.3437 22.105 40.2256 21.8689V13.0137C40.2256 13.0137 40.3437 13.4269 40.3437 13.6631Z" fill="white"/>
</mask>
<g mask="url(#mask0_1994_64943)">
<path d="M40.3446 13.6631V22.5182C40.3446 22.5182 40.3446 22.105 40.2266 21.8689V13.0137C40.2266 13.0137 40.3446 13.4269 40.3446 13.6631Z" fill="#6B5F5F"/>
</g>
<path d="M33.8481 18.9122V27.7674L20.4473 20.0339V11.1787L33.8481 18.9122Z" fill="#1D974F"/>
<mask id="mask1_1994_64943" style="mask-type:luminance" maskUnits="userSpaceOnUse" x="12" y="17" width="2" height="12">
<path d="M13.9547 19.3864V28.2416C13.8957 27.4151 13.3644 26.7067 12.3018 26.0573V17.2021C13.3644 17.7925 13.8957 18.5599 13.9547 19.3864Z" fill="white"/>
</mask>
<g mask="url(#mask1_1994_64943)">
<path d="M13.9547 19.3864V28.2416C13.8957 27.4151 13.3644 26.7067 12.3018 26.0573V17.2021C13.3644 17.7925 13.8957 18.5599 13.9547 19.3864Z" fill="#1D974F"/>
</g>
<mask id="mask2_1994_64943" style="mask-type:luminance" maskUnits="userSpaceOnUse" x="13" y="19" width="1" height="10">
<path d="M13.9555 19.3896L13.8965 28.3039V28.2448L13.9555 19.3896Z" fill="white"/>
</mask>
<g mask="url(#mask2_1994_64943)">
<path d="M13.9555 19.3896L13.8965 28.3039V28.2448L13.9555 19.3896Z" fill="#6B5F5F"/>
</g>
<path d="M48.1372 18.3834C48.1372 18.3834 47.9601 18.5605 47.9011 18.6786C47.4288 19.1509 46.9566 19.6232 46.3662 20.0364V28.8916C46.7204 28.5964 47.1337 28.3012 47.4288 28.0061C47.6059 27.829 47.724 27.7109 47.8421 27.5338C47.9601 27.4157 48.0192 27.3567 48.0782 27.2386C48.1372 27.1796 48.2553 27.0615 48.3144 27.0025C48.5505 26.7073 48.7276 26.4121 48.9047 26.117C49.0228 25.9399 49.0818 25.7628 49.1408 25.5856V16.7305C48.9047 17.3208 48.5505 17.8521 48.0782 18.3834H48.1372Z" fill="#36D068"/>
<path d="M57.1089 21.2761L57.0498 30.1903L49.1982 25.6447V16.7305L57.1089 21.2761Z" fill="#1D974F"/>
<path d="M64.133 19.3311V28.1862L57.0488 30.1934L57.1079 21.2792L64.133 19.3311Z" fill="#36D068"/>
<path d="M36.4455 23.9928C36.4455 23.9928 36.2094 23.9928 36.0913 23.9928C34.5564 24.1699 32.9625 24.2289 31.3686 24.1109C29.8337 23.9928 28.3578 23.8157 26.941 23.5205C26.7639 23.5205 26.5868 23.4615 26.4097 23.4025C24.9338 23.1073 23.517 22.7531 22.1592 22.3398V31.195C22.5724 31.3131 22.9857 31.4902 23.3989 31.6083C24.2254 31.8444 24.9928 32.0215 25.8784 32.1986C26.0555 32.1986 26.2326 32.1986 26.3506 32.2576C26.5277 32.2576 26.7048 32.3167 26.8819 32.3757C27.3542 32.4347 27.8265 32.5528 28.2988 32.6119C29.1253 32.7299 30.0108 32.848 30.8963 32.907C31.0144 32.907 31.1915 32.907 31.3095 32.907C31.6637 32.907 32.018 32.907 32.3722 32.907C32.9035 32.907 33.3757 32.907 33.9071 32.907C34.4384 32.907 34.9697 32.907 35.501 32.789C35.6781 32.789 35.8552 32.789 36.0323 32.7299C36.1504 32.7299 36.2684 32.7299 36.3865 32.7299C36.7407 32.7299 37.0359 32.6709 37.3901 32.6119C38.3937 32.4347 39.3382 32.1986 40.3418 31.9034C40.5189 31.9034 40.696 31.7854 40.8731 31.7263V22.8712C39.4563 23.3434 37.9804 23.6976 36.4455 23.9338V23.9928Z" fill="#36D068"/>
<path d="M47.544 26.8236V35.6788L40.873 31.8415V22.9863L47.544 26.8236Z" fill="#1D974F"/>
<path d="M54.6862 24.8193L54.6271 33.7336L47.543 35.6817V26.8265L54.6862 24.8193Z" fill="#36D068"/>
<path d="M22.1628 22.4561V31.3703L17.6172 51.0878V42.2326L22.1628 22.4561Z" fill="#36D068"/>
<path d="M49.1983 16.7326C48.667 17.9723 47.6634 19.094 46.3056 20.0386L54.6295 24.8794L47.5453 26.8866L40.8744 23.0493C37.8637 24.1119 34.6758 24.4661 31.3699 24.289C28.0639 24.0529 24.9941 23.4626 22.1605 22.577L17.6148 42.3536L9.82227 37.7489L13.3053 23.0493C13.7185 21.3964 13.9547 20.2157 13.9547 19.3301C13.9547 18.5037 13.3643 17.7952 12.3017 17.1459L16.7883 14.5483L20.4485 16.6736C22.6328 17.9133 24.8761 18.7988 27.1194 19.2121C29.3627 19.6253 31.6651 19.5072 33.8493 18.9169L20.4485 11.1834L27.5326 9.1762L39.2215 15.9061C40.166 14.9616 40.5202 13.958 40.2841 13.0134C39.9889 12.0099 39.0444 10.9472 37.3914 9.88461L29.9531 5.57509L37.0372 3.62695L64.1341 19.2711L57.0499 21.2192L49.1983 16.6736V16.7326Z" fill="url(#paint0_linear_1994_64943)"/>
<path d="M17.6148 42.2308V51.0859L9.82227 46.5993V37.7441L17.6148 42.2308Z" fill="#1D974F"/>
<path d="M65.2598 14.5812C65.2598 14.5812 64.617 17.0817 64.6228 17.6845C64.6287 18.2874 64.2332 19.4173 65.8608 20.0782C65.8608 20.0782 67.7523 20.765 68.2711 20.8232C68.2711 20.8232 66.2814 20.3383 65.7343 20.3387C65.1872 20.3392 64.1009 20.1997 63.3782 22.4451L62.6905 24.9116C62.6905 24.9116 63.2993 22.2985 63.3337 21.7675C63.368 21.2366 63.6691 19.9722 61.9514 19.351L59.811 18.6953C59.811 18.6953 61.5424 19.1791 62.5879 19.1587C63.6334 19.1383 64.3985 17.946 65.2598 14.5812Z" fill="#33B568" stroke="#33B568" stroke-width="0.113282" stroke-miterlimit="10"/>
<path d="M3.93846 26.3996C3.93846 26.3996 3.64528 27.5401 3.64794 27.8151C3.6506 28.09 3.47024 28.6054 4.21261 28.9069C4.21261 28.9069 5.07533 29.2201 5.31197 29.2467C5.31197 29.2467 4.40444 29.0255 4.1549 29.0257C3.90536 29.0259 3.40989 28.9623 3.08023 29.9864L2.76656 31.1115C2.76656 31.1115 3.04426 29.9196 3.05992 29.6774C3.07557 29.4352 3.21293 28.8585 2.42946 28.5752L1.45316 28.2761C1.45316 28.2761 2.24288 28.4968 2.71976 28.4875C3.19664 28.4781 3.54562 27.9343 3.93846 26.3996Z" fill="#33B568" stroke="#33B568" stroke-width="0.113282" stroke-miterlimit="10"/>
<ellipse cx="9.82406" cy="13.2254" rx="0.546712" ry="0.546712" fill="#33B568"/>
<ellipse cx="41.276" cy="44.2233" rx="0.883467" ry="0.883466" fill="#33B568"/>
<ellipse cx="36.5983" cy="1.47333" rx="1.529" ry="1.52899" fill="#33B568"/>
</g>
<defs>
<linearGradient id="paint0_linear_1994_64943" x1="37.2109" y1="4.68059" x2="37.2109" y2="42.3532" gradientUnits="userSpaceOnUse">
<stop offset="0.4375" stop-color="#D4F938"/>
<stop offset="1" stop-color="#32D875" stop-opacity="0.96"/>
</linearGradient>
<clipPath id="clip0_1994_64943">
<rect width="77.0643" height="56" fill="white"/>
</clipPath>
</defs>
</svg>
