<svg width="17" height="16" viewBox="0 0 17 16" fill="none" xmlns="http://www.w3.org/2000/svg">
<path d="M8.52344 16C4.10504 16 0.523438 12.4184 0.523438 8C0.523438 3.5816 4.10504 0 8.52344 0C12.9418 0 16.5234 3.5816 16.5234 8C16.5234 12.4184 12.9418 16 8.52344 16ZM8.52344 14.4C10.2208 14.4 11.8487 13.7257 13.0489 12.5255C14.2492 11.3253 14.9234 9.69739 14.9234 8C14.9234 6.30261 14.2492 4.67475 13.0489 3.47452C11.8487 2.27428 10.2208 1.6 8.52344 1.6C6.82605 1.6 5.19819 2.27428 3.99795 3.47452C2.79772 4.67475 2.12344 6.30261 2.12344 8C2.12344 9.69739 2.79772 11.3253 3.99795 12.5255C5.19819 13.7257 6.82605 14.4 8.52344 14.4ZM9.32344 8H12.5234V9.6H7.72344V4H9.32344V8Z" fill="#EBB62F"/>
</svg>
