<svg width="56" height="64" viewBox="0 0 56 64" fill="none" xmlns="http://www.w3.org/2000/svg">
<mask id="mask0_1343_46286" style="mask-type:alpha" maskUnits="userSpaceOnUse" x="0" y="0" width="56" height="64">
<rect width="55.5241" height="64" fill="#D9D9D9"/>
</mask>
<g mask="url(#mask0_1343_46286)">
<g style="mix-blend-mode:multiply">
<path opacity="0.01" d="M-12.3579 44.8884L9.7179 59.345L48.8662 39.7668L23.7095 26.8477L-12.3579 44.8884Z" fill="#B78888"/>
<path d="M-10.6562 47.8865L9.72499 59.3445L48.8633 39.7664L25.3747 28.6846L-10.6562 47.8865Z" fill="#085125"/>
</g>
<path d="M9.16747 58.4695C9.16747 59.5078 10.0174 59.9328 11.0557 59.4136L46.9828 41.4471C48.0231 40.9279 48.873 39.653 48.873 38.6127V13.2374C48.873 12.1991 48.0231 11.7741 46.9828 12.2933L11.0557 30.2619C10.0174 30.781 9.16747 32.0559 9.16747 33.0962V58.4735V58.4695Z" fill="url(#paint0_linear_1343_46286)"/>
<path d="M11.0577 30.2598L46.9828 12.2933C48.0231 11.7741 48.873 12.1991 48.873 13.2374V17.7256C48.873 18.7639 48.0231 19.3693 46.9828 19.8885L11.0557 37.855C10.0174 38.3742 9.16747 38.6207 9.16747 37.5804V33.0922C9.16747 32.0539 10.0174 30.777 11.0557 30.2578L11.0577 30.2598Z" fill="#FAFFCA"/>
<path d="M9.1664 30.1189L44.1954 12.5994C44.5863 12.4049 45.6808 11.8938 46.4064 11.559C46.8274 11.3646 47.3225 11.4167 47.6933 11.6973L48.4951 12.3027V12.3087C48.1503 12.016 47.6011 11.984 46.9797 12.2927L11.0527 30.2612C10.0143 30.7804 9.16439 32.0552 9.16439 33.0956V58.4728C9.16439 58.8537 9.28065 59.1504 9.4771 59.3508C9.4771 59.3508 8.19621 58.5931 8.19621 58.0118L8.14409 33.2179C8.14409 32.1795 8.24632 30.8625 9.16439 30.1229L9.1664 30.1189Z" fill="#2CA35C"/>
<path d="M11.3635 47.2362L29.2178 38.3061V36.3657L11.3635 45.2939V47.2362Z" fill="#35B268"/>
<path d="M11.3635 43.0751L29.2178 34.145V32.2046L11.3635 41.1327V43.0751Z" fill="#35B268"/>
<path d="M11.3635 51.2758L29.2178 42.3457V40.4033L11.3635 49.3335V51.2758Z" fill="#35B268"/>
<path d="M11.3635 55.372L29.2178 46.4418V44.5015L11.3635 53.4296V55.372Z" fill="#35B268"/>
<path d="M34.2671 44.2673C34.2671 44.4757 34.4375 44.5599 34.646 44.4557L45.9815 38.833C46.19 38.7288 46.3584 38.4742 46.3584 38.2657V23.9935C46.3584 23.7871 46.188 23.7009 45.9815 23.8051L34.646 29.4278C34.4375 29.532 34.2671 29.7866 34.2671 29.9951V44.2673Z" fill="#FAFFCA"/>
<path d="M26.404 20.5858C26.4221 20.5116 26.4361 20.4054 26.4361 20.249L29.1562 18.6694C29.1562 18.8258 29.1422 18.932 29.1242 19.0062C29.1001 19.1084 29.056 19.1686 29.0039 19.1986L26.2838 20.7782C26.2958 20.7702 26.3058 20.7561 26.3178 20.7441C26.3259 20.7361 26.3359 20.7301 26.3439 20.7181C26.368 20.684 26.39 20.6439 26.404 20.5838V20.5858Z" fill="#6FD450"/>
<path d="M26.3555 22.6091L25.4274 21.9717L25.3612 19.9351L26.3475 20.5284L26.3555 22.6091Z" fill="#C8D25D"/>
<path d="M25.3628 19.9345L30.1516 17.6133L30.9814 18.1625L26.331 20.5018L25.3628 19.9345Z" fill="#FAFFCA"/>
<path d="M26.7439 22.4112C26.5895 22.4994 26.5074 22.5315 26.357 22.6076L26.331 20.5009L30.9814 18.1616L30.9053 20.3465C30.6246 20.5009 26.7439 22.4132 26.7439 22.4132V22.4112Z" fill="#E9F198"/>
<path d="M19.0276 -21.9595C19.0336 -22.0437 19.0416 -22.1259 19.0477 -22.2081C19.0657 -22.4125 19.0877 -22.611 19.1158 -22.8034C19.1258 -22.8816 19.1379 -22.9598 19.1499 -23.0359C19.19 -23.2765 19.2361 -23.511 19.2882 -23.7295C19.2902 -23.7415 19.2942 -23.7556 19.2962 -23.7676C19.3543 -23.9981 19.4205 -24.2126 19.4927 -24.4171C19.5147 -24.4772 19.5368 -24.5333 19.5588 -24.5915C19.6149 -24.7378 19.6751 -24.8761 19.7392 -25.0064C19.7653 -25.0605 19.7913 -25.1146 19.8174 -25.1668C19.8996 -25.3211 19.9878 -25.4674 20.08 -25.5997C20.088 -25.6118 20.096 -25.6258 20.104 -25.6378C20.2063 -25.7781 20.3145 -25.9004 20.4268 -26.0107C20.4588 -26.0427 20.4929 -26.0688 20.527 -26.0989C20.6132 -26.175 20.7014 -26.2412 20.7916 -26.2993C21.2687 -26.602 21.8119 -26.6721 22.3972 -26.4476C21.9722 -25.5015 21.7157 -24.2146 21.7117 -22.6591C21.7036 -20.0552 24.2354 -6.37636 26.4443 4.50017L26.4042 18.4136C24.6042 11.2714 18.9795 -17.2008 18.9915 -21.0795C18.9915 -21.3842 19.0056 -21.6749 19.0256 -21.9595H19.0276Z" fill="#BCE900"/>
<path d="M27.192 -16.3487L29.9102 -17.9282L29.8079 18.6703L27.0878 20.0515L27.192 -16.3487Z" fill="#D8FF33"/>
<path d="M20.4822 -27.1992C20.6065 -27.2653 20.7328 -27.3174 20.8651 -27.3575C20.9052 -27.3696 20.9433 -27.3856 20.9854 -27.3936C21.1518 -27.4317 21.3221 -27.4517 21.4965 -27.4477C21.5306 -27.4477 21.5647 -27.4397 21.5988 -27.4377C21.7471 -27.4277 21.8974 -27.3996 22.0498 -27.3575C22.0999 -27.3435 22.152 -27.3295 22.2021 -27.3114C22.3906 -27.2473 22.579 -27.1691 22.7734 -27.0569C25.2189 -25.6457 27.2034 -20.8428 27.1894 -16.3487L27.0871 20.0514C27.0871 20.0514 27.0871 20.0634 27.0871 20.0715C27.0691 20.0654 27.0491 20.0614 27.031 20.0554C26.9789 20.0334 26.9268 20.0133 26.8707 20.0033C26.8526 19.9953 26.8366 19.9853 26.8185 19.9772C26.7544 19.9452 26.6882 19.9151 26.6221 19.883C26.4778 19.8109 26.3395 19.7267 26.1991 19.6485C26.1911 19.6445 26.1831 19.6425 26.1751 19.6385C25.6359 18.0609 24.5354 13.6129 22.0217 0.69174C20.1736 -8.83174 18.3033 -19.3795 18.3093 -21.4743C18.3174 -24.4289 19.1913 -26.5116 20.4802 -27.1972L20.4822 -27.1992ZM26.4076 18.4097L26.4477 4.49632L26.5078 -16.7436C26.5199 -20.8048 24.8421 -25.0764 22.7714 -26.2711C22.6451 -26.3432 22.5208 -26.4014 22.3986 -26.4495C21.8153 -26.674 21.27 -26.6058 20.7929 -26.3012C20.7027 -26.243 20.6145 -26.1769 20.5284 -26.1007C20.4943 -26.0706 20.4602 -26.0446 20.4281 -26.0125C20.3159 -25.9023 20.2056 -25.78 20.1054 -25.6397C20.0974 -25.6276 20.0894 -25.6136 20.0813 -25.6016C19.9891 -25.4713 19.9009 -25.3249 19.8188 -25.1686C19.7907 -25.1165 19.7666 -25.0624 19.7406 -25.0082C19.6764 -24.8779 19.6183 -24.7396 19.5602 -24.5933C19.5381 -24.5352 19.5141 -24.479 19.494 -24.4189C19.4219 -24.2144 19.3557 -24 19.2976 -23.7694C19.2936 -23.7574 19.2916 -23.7434 19.2896 -23.7314C19.2354 -23.5109 19.1913 -23.2783 19.1512 -23.0378C19.1392 -22.9616 19.1292 -22.8834 19.1172 -22.8053C19.0891 -22.6128 19.0671 -22.4144 19.049 -22.2099C19.041 -22.1277 19.033 -22.0456 19.029 -21.9614C19.0089 -21.6767 18.9969 -21.3861 18.9949 -21.0814C18.9829 -17.2026 24.6096 11.2696 26.4076 18.4117V18.4097Z" fill="#66B94B"/>
</g>
<defs>
<linearGradient id="paint0_linear_1343_46286" x1="28.8501" y1="13.3658" x2="28.8501" y2="59.6346" gradientUnits="userSpaceOnUse">
<stop offset="0.4375" stop-color="#D4F938"/>
<stop offset="1" stop-color="#32D875" stop-opacity="0.96"/>
</linearGradient>
</defs>
</svg>
