<svg width="186" height="60" viewBox="0 0 186 60" fill="none" xmlns="http://www.w3.org/2000/svg">
<path d="M43.0415 5.6958L45.5784 9.36492L44.6785 17.0909L42.1416 13.4218L43.0415 5.6958Z" fill="#D80606"/>
<path d="M49.2997 13.3174L51.8366 16.9865L50.9568 24.5406L48.4199 20.8715L49.2997 13.3174Z" fill="#D80606"/>
<path d="M55.4379 20.7651L57.9749 24.4343L56.3543 38.3425L53.8174 34.6734L55.4379 20.7651Z" fill="#D80606"/>
<path d="M53.818 34.6743L56.3549 38.3434L49.3367 38.4477L46.7998 34.7786L53.818 34.6743Z" fill="#F25E5E"/>
<path d="M45.8991 42.5068L48.4342 46.176L41.2752 46.282L38.7383 42.6129L45.8991 42.5068Z" fill="#F25E5E"/>
<path d="M46.7993 34.7788L49.3362 38.4479L48.4345 46.1758L45.8994 42.5067L46.7993 34.7788Z" fill="#D80606"/>
<path d="M37.8988 49.8213L40.4358 53.4904L10.3621 53.9367L7.8252 50.2676L37.8988 49.8213Z" fill="#F25E5E"/>
<path d="M38.738 42.6108L41.2749 46.28L40.4354 53.4902L37.8984 49.8211L38.738 42.6108Z" fill="#D80606"/>
<path d="M43.0404 5.6958L42.1405 13.4218L49.2995 13.3157L48.4197 20.8698L55.4378 20.7656L53.8173 34.6738L46.7991 34.7781L45.8992 42.5059L38.7384 42.612L37.8988 49.8222L7.8252 50.2685L12.9667 6.1421L43.0404 5.6958Z" fill="url(#paint0_linear_1343_46242)"/>
<path d="M37.8985 20.063L34.2914 20.1081L27.8492 26.2399L23.6876 20.2417L20.0806 20.2868L25.7381 28.3193L17.7217 36.5611L21.1162 36.4077L27.0773 30.3445L30.7883 36.2561L34.1444 36.3048L29.1885 28.2705L37.8985 20.063Z" fill="#FEFFDC"/>
<circle cx="9.45644" cy="6.1166" r="0.420312" fill="#FA3939"/>
<circle cx="7.40762" cy="59.08" r="0.420312" fill="#F1BE41"/>
<circle cx="53.2482" cy="8.22523" r="0.816542" fill="#F1BE41"/>
<circle cx="65.5795" cy="34.1264" r="0.420312" fill="#F1BE41"/>
<ellipse cx="1.48812" cy="22.2" rx="0.683432" ry="0.683432" fill="#F1BE41"/>
<circle cx="44.8388" cy="54.601" r="0.782138" fill="#FA3939"/>
<circle cx="49.5231" cy="3.12858" r="0.341468" fill="#FA3939"/>
<circle cx="3.08662" cy="42.1975" r="0.308295" fill="#FA3939"/>
<path d="M62.0129 28.1255L62.3036 29.046L63.2241 29.3366L62.3036 29.6273L62.0129 30.5478L61.7232 29.6273L60.8018 29.3366L61.7232 29.046L62.0129 28.1255Z" fill="#FA3939"/>
<path d="M13.7173 0.499512L13.8557 0.937769L14.2939 1.07617L13.8557 1.21456L13.7173 1.65282L13.5793 1.21456L13.1406 1.07617L13.5793 0.937769L13.7173 0.499512Z" fill="#FA3939"/>
<path d="M42.6034 2.88856L42.6933 5.17233L44.6146 6.41028L42.3308 6.50023L41.0928 8.42147L41.0051 6.1383L39.0817 4.89975L41.3676 4.81041L42.6034 2.88856Z" fill="#FFB834"/>
<path d="M75.44 38V23.76H77.76L84.64 34.38V23.76H86.86V38H84.56L77.66 27.5V38H75.44ZM89.2369 32.88C89.2369 29.72 91.3969 27.54 94.4969 27.54C97.6169 27.54 99.7769 29.72 99.7769 32.88C99.7769 36.04 97.6169 38.2 94.4969 38.2C91.3969 38.2 89.2369 36.04 89.2369 32.88ZM91.4769 32.86C91.4769 34.96 92.6769 36.32 94.4969 36.32C96.3369 36.32 97.5369 34.96 97.5369 32.86C97.5369 30.74 96.3369 29.4 94.4969 29.4C92.6769 29.4 91.4769 30.74 91.4769 32.86ZM105.379 38C103.599 38 102.619 37 102.619 35.22V29.7H100.899V27.76H101.779C102.419 27.76 102.619 27.44 102.619 26.8V25.02H104.799V27.76H107.179V29.7H104.799V34.8C104.799 35.62 105.039 36.06 105.999 36.06H107.159V38H105.379ZM118.774 35.3L123.134 23.76H125.534L119.934 38H117.514L111.934 23.76H114.394L118.774 35.3ZM135.392 32.66V33.48H127.552C127.592 35.4 128.852 36.4 130.452 36.4C131.652 36.4 132.652 35.84 133.072 34.72H135.292C134.752 36.8 132.912 38.2 130.412 38.2C127.352 38.2 125.332 36.08 125.332 32.86C125.332 29.66 127.352 27.54 130.392 27.54C133.372 27.54 135.392 29.58 135.392 32.66ZM130.392 29.28C128.932 29.28 127.732 30.18 127.572 31.96H133.172C133.052 30.18 131.872 29.28 130.392 29.28ZM142.324 27.76H143.664V29.72H142.204C140.504 29.72 139.844 30.8 139.844 32.54V38H137.644V27.76H139.644L139.904 29.08C140.284 28.36 141.144 27.76 142.324 27.76ZM145.278 25.84V23.56H147.698V25.84H145.278ZM145.398 38V27.76H147.578V38H145.398ZM159.722 27.76V38H157.542V29.68H153.142V38H150.942V29.68H149.262V27.76H150.942V26.1C150.942 24.16 151.862 23.12 154.082 23.12H155.502V24.96H154.462C153.362 24.96 153.142 25.5 153.142 26.26V27.76H159.722ZM157.382 23.24H159.882V25.48H157.382V23.24ZM172.111 32.66V33.48H164.271C164.311 35.4 165.571 36.4 167.171 36.4C168.371 36.4 169.371 35.84 169.791 34.72H172.011C171.471 36.8 169.631 38.2 167.131 38.2C164.071 38.2 162.051 36.08 162.051 32.86C162.051 29.66 164.071 27.54 167.111 27.54C170.091 27.54 172.111 29.58 172.111 32.66ZM167.111 29.28C165.651 29.28 164.451 30.18 164.291 31.96H169.891C169.771 30.18 168.591 29.28 167.111 29.28ZM182.207 23.14H184.407V38H182.407L182.227 36.44C181.607 37.48 180.267 38.2 178.687 38.2C175.867 38.2 173.827 36.24 173.827 32.9C173.827 29.46 175.967 27.54 178.687 27.54C180.287 27.54 181.587 28.22 182.207 29.26V23.14ZM179.127 36.26C180.847 36.26 182.167 35.02 182.167 32.9C182.167 30.8 180.847 29.48 179.127 29.5C177.327 29.5 176.087 30.82 176.087 32.9C176.087 35.02 177.347 36.26 179.127 36.26Z" fill="#FF6554"/>
<defs>
<linearGradient id="paint0_linear_1343_46242" x1="31.8356" y1="6.9085" x2="31.8356" y2="50.268" gradientUnits="userSpaceOnUse">
<stop offset="0.242349" stop-color="#F93838"/>
<stop offset="1" stop-color="#F1B51B" stop-opacity="0.96"/>
</linearGradient>
</defs>
</svg>
