<svg width="70" height="52" viewBox="0 0 70 52" fill="none" xmlns="http://www.w3.org/2000/svg">
<path opacity="0.1" d="M44.0047 34.637C52.8503 40.2383 57.9929 45.3214 55.8038 46.5934C53.6148 47.8654 44.8142 44.9008 35.1236 39.7959L19.214 49.042L10.9521 44.272L26.8549 35.03C17.9928 29.4197 12.8339 24.3249 15.0245 23.0518C17.2157 21.7788 26.0295 24.7492 35.7413 29.8663L40.7016 26.9838L29.2738 20.386L36.8427 15.9873L67.9648 33.9557L60.3959 38.3544L48.965 31.7545L44.0047 34.637ZM36.4735 39.0134C45.0208 43.5282 52.5505 46.2311 54.2458 45.2462C55.9432 44.2598 51.2504 39.9066 43.4209 34.9665L37.8774 38.188C37.6257 38.0688 36.2446 37.3934 33.6953 35.9217C31.572 34.6958 30.1252 33.7543 29.6261 33.4222L35.1718 30.1996C26.6001 25.6726 19.0566 22.9597 17.356 23.9477C15.6571 24.9352 20.3636 29.2963 28.2122 34.2439C28.7165 34.5649 30.1623 35.4719 32.2861 36.6978C34.9572 38.24 36.2234 38.8895 36.4735 39.0134Z" fill="#D7D7D7"/>
<path d="M36.8462 15.1017L36.8213 23.9765L25.3936 17.3787L25.4185 8.50391L36.8462 15.1017Z" fill="#1D974F"/>
<mask id="mask0_1343_46376" style="mask-type:luminance" maskUnits="userSpaceOnUse" x="13" y="11" width="19" height="17">
<path d="M13.1289 21.5283L13.1538 12.6535C13.1543 12.3986 13.2672 12.2 13.4997 12.0649C15.2003 11.0769 22.7438 13.7893 31.3155 18.3168L31.2906 27.1915C22.7189 22.6646 15.1754 19.9516 13.4748 20.9397C13.2423 21.0753 13.13 21.2734 13.1289 21.5283Z" fill="white"/>
</mask>
<g mask="url(#mask0_1343_46376)">
<path d="M31.3161 18.3164L31.2912 27.1912C27.7803 25.3369 24.4422 23.7874 21.6074 22.6717L21.6323 13.7969C24.4671 14.9126 27.8052 16.4622 31.3161 18.3164Z" fill="#1D974F"/>
<path d="M21.6325 13.7974L21.6076 22.6722C20.1598 22.1021 18.8433 21.6455 17.7021 21.3191L17.727 12.4443C18.8682 12.7712 20.1847 13.2279 21.6325 13.7974Z" fill="#1D974F"/>
<path d="M17.7272 12.4442L17.7023 21.319C17.1768 21.1685 16.6878 21.0461 16.2412 20.9529L16.2661 12.0781C16.7127 12.1714 17.2012 12.2937 17.7272 12.4442Z" fill="#1D974F"/>
<path d="M16.2659 12.0781L16.241 20.9529C15.9708 20.8967 15.7155 20.8506 15.4766 20.8162L15.5015 11.9414C15.7404 11.9758 15.9957 12.0214 16.2659 12.0781Z" fill="#1D974F"/>
<path d="M15.5017 11.942L15.4768 20.8168C15.3052 20.7919 15.142 20.7728 14.9873 20.7595L15.0122 11.8848C15.1669 11.898 15.3301 11.9171 15.5017 11.942Z" fill="#1D974F"/>
<path d="M15.0121 11.8839L14.9872 20.7587C14.8611 20.7481 14.7409 20.7412 14.627 20.7381L14.6519 11.8633C14.7663 11.8665 14.886 11.8733 15.0121 11.8839Z" fill="#1D974F"/>
<path d="M14.6507 11.864L14.6258 20.7388C14.5379 20.7367 14.4531 20.7367 14.3721 20.7394L14.397 11.8646C14.478 11.8619 14.5628 11.8614 14.6507 11.864Z" fill="#1D974F"/>
<path d="M14.3985 11.8643L14.3736 20.739C14.293 20.7417 14.2157 20.7465 14.1426 20.7539L14.1675 11.8791C14.2406 11.8717 14.3179 11.8669 14.3985 11.8643Z" fill="#1D974F"/>
<path d="M14.1669 11.8789L14.142 20.7537C14.0657 20.7611 13.9931 20.7717 13.9248 20.7844L13.9497 11.9096C14.018 11.8969 14.0901 11.8869 14.1669 11.8789Z" fill="#1D974F"/>
<path d="M13.9494 11.9102L13.9245 20.7849C13.7719 20.8135 13.64 20.8554 13.5293 20.911L13.5542 12.0362C13.6649 11.9811 13.7968 11.9388 13.9494 11.9102Z" fill="#1D974F"/>
<path d="M13.5546 12.0361L13.5297 20.9109C13.5111 20.9199 13.4936 20.93 13.4762 20.9395C13.4735 20.9411 13.4709 20.9427 13.4688 20.9438L13.4936 12.069C13.4963 12.0674 13.4984 12.0658 13.5011 12.0647C13.518 12.0547 13.536 12.0451 13.5546 12.0361Z" fill="#1D974F"/>
<path d="M13.4935 12.0693L13.4686 20.9441C13.4256 20.9695 13.387 20.9971 13.3525 21.0268L13.3774 12.152C13.4119 12.1223 13.4505 12.0948 13.4935 12.0693Z" fill="#1D974F"/>
<path d="M13.3771 12.1523L13.3522 21.0271C13.3183 21.0563 13.2887 21.087 13.2627 21.1204L13.2876 12.2456C13.3136 12.2122 13.3432 12.181 13.3771 12.1523Z" fill="#1D974F"/>
<path d="M13.2883 12.2451L13.2634 21.1199C13.2438 21.1448 13.2263 21.1713 13.2109 21.1983L13.2358 12.3235C13.2512 12.2965 13.2687 12.27 13.2883 12.2451Z" fill="#1D974F"/>
<path d="M13.235 12.3232L13.2101 21.198C13.1947 21.225 13.182 21.2536 13.1709 21.2833L13.1958 12.4085C13.2069 12.3789 13.2202 12.3508 13.235 12.3232Z" fill="#1D974F"/>
<path d="M13.1961 12.4082L13.1712 21.283C13.159 21.3164 13.1495 21.3513 13.1426 21.3873L13.1675 12.5126C13.1744 12.4765 13.1839 12.4416 13.1961 12.4082Z" fill="#1D974F"/>
<path d="M13.1675 12.5127L13.1426 21.3875C13.1347 21.4293 13.1304 21.4728 13.1299 21.5178L13.1548 12.643C13.1553 12.598 13.1596 12.554 13.1675 12.5127Z" fill="#8D9916"/>
<path d="M13.1548 12.6436L13.1299 21.5183C13.1299 21.5215 13.1299 21.5252 13.1299 21.5284L13.1548 12.6536C13.1548 12.6504 13.1548 12.6467 13.1548 12.6436Z" fill="#889415"/>
</g>
<mask id="mask1_1343_46376" style="mask-type:luminance" maskUnits="userSpaceOnUse" x="10" y="12" width="13" height="21">
<path d="M10.6406 20.8982L10.6655 12.0234C10.6597 14.0318 15.5055 18.4067 22.9987 23.1503L22.9732 32.0251C15.4806 27.2815 10.6348 22.9061 10.6406 20.8982Z" fill="white"/>
</mask>
<g mask="url(#mask1_1343_46376)">
<path d="M22.9987 23.1503L22.9738 32.0251C15.4806 27.2815 10.6348 22.9061 10.6406 20.8982L10.6655 12.0234C10.6602 14.0313 15.5061 18.4067 22.9987 23.1503Z" fill="#1D974F"/>
</g>
<mask id="mask2_1343_46376" style="mask-type:luminance" maskUnits="userSpaceOnUse" x="25" y="21" width="10" height="15">
<path d="M34.0242 26.303L33.9993 35.1777C33.7476 35.0585 32.3665 34.3831 29.8172 32.9114C27.6939 31.6855 26.2471 30.7441 25.748 30.4119L25.7729 21.5371C26.272 21.8693 27.7183 22.8102 29.8421 24.0366C32.3914 25.5083 33.772 26.1832 34.0242 26.303Z" fill="white"/>
</mask>
<g mask="url(#mask2_1343_46376)">
<path d="M34.0242 26.303L33.9993 35.1777C33.7476 35.0585 32.3665 34.3831 29.8172 32.9114C27.6939 31.6855 26.2471 30.7441 25.748 30.4119L25.7729 21.5371C26.272 21.8693 27.7183 22.8102 29.8421 24.0366C32.3914 25.5083 33.772 26.1832 34.0242 26.303Z" fill="#1D974F"/>
</g>
<path d="M39.5661 23.084L39.5411 31.9593L33.9971 35.1809L34.0225 26.3061L39.5661 23.084Z" fill="#36D068"/>
<path d="M64.1094 22.0732L64.0845 30.948L56.5156 35.3467L56.5405 26.472L64.1094 22.0732Z" fill="#36D068"/>
<path d="M56.5413 26.472L56.5164 35.3468L45.085 28.7468L45.1104 19.8721L56.5413 26.472Z" fill="#1D974F"/>
<mask id="mask3_1343_46376" style="mask-type:luminance" maskUnits="userSpaceOnUse" x="39" y="23" width="12" height="19">
<path d="M50.7387 32.7761L50.7138 41.6509C50.7185 40.0478 46.2981 36.2223 39.543 31.9597L39.5679 23.085C46.323 27.3475 50.7434 31.1736 50.7387 32.7761Z" fill="white"/>
</mask>
<g mask="url(#mask3_1343_46376)">
<path d="M50.7387 32.7761L50.7138 41.6509C50.7185 40.0478 46.2981 36.2223 39.543 31.9597L39.5679 23.085C46.323 27.3475 50.7434 31.1736 50.7387 32.7761Z" fill="#1D974F"/>
</g>
<mask id="mask4_1343_46376" style="mask-type:luminance" maskUnits="userSpaceOnUse" x="31" y="27" width="22" height="17">
<path d="M52.4491 33.8592L52.4242 42.734C52.4231 43.1011 52.26 43.3893 51.9214 43.5864C49.7324 44.8584 40.9318 41.8937 31.2412 36.7888L31.2661 27.9141C40.9567 33.019 49.7573 35.9836 51.9463 34.7116C52.2849 34.5145 52.448 34.2263 52.4491 33.8592Z" fill="white"/>
</mask>
<g mask="url(#mask4_1343_46376)">
<path d="M52.4493 33.8574L52.4244 42.7322C52.4244 42.7428 52.4244 42.7534 52.4238 42.764L52.4487 33.8892C52.4493 33.8786 52.4493 33.868 52.4493 33.8574Z" fill="#1D974F"/>
<path d="M52.4496 33.8906L52.4247 42.7654C52.4231 42.8237 52.4173 42.8798 52.4072 42.9339L52.4321 34.0591C52.4422 34.0051 52.448 33.9489 52.4496 33.8906Z" fill="#1D974F"/>
<path d="M52.4321 34.0586L52.4072 42.9334C52.3971 42.9874 52.3828 43.0393 52.3643 43.0891L52.3892 34.2143C52.4077 34.1645 52.422 34.1126 52.4321 34.0586Z" fill="#1D974F"/>
<path d="M52.3882 34.2139L52.3633 43.0886C52.3474 43.131 52.3284 43.1718 52.3066 43.211L52.3315 34.3362C52.3538 34.297 52.3729 34.2562 52.3882 34.2139Z" fill="#1D974F"/>
<path d="M52.3316 34.3359L52.3067 43.2107C52.2844 43.2499 52.2595 43.287 52.2314 43.323L52.2563 34.4482C52.2844 34.4122 52.3093 34.3751 52.3316 34.3359Z" fill="#1D974F"/>
<path d="M52.2571 34.4492L52.2322 43.324C52.1967 43.369 52.1559 43.4119 52.1104 43.4522L52.1352 34.5774C52.1808 34.5372 52.2211 34.4942 52.2571 34.4492Z" fill="#1D974F"/>
<path d="M52.1344 34.5771L52.1095 43.4519C52.0576 43.4975 51.9988 43.5399 51.9336 43.5785L51.9585 34.7038C52.0242 34.6646 52.0825 34.6227 52.1344 34.5771Z" fill="#1D974F"/>
<path d="M51.9588 34.7041L51.9339 43.5789C51.9302 43.581 51.9265 43.5837 51.9223 43.5858C51.8778 43.6117 51.8306 43.6356 51.7803 43.6583L51.8052 34.7836C51.855 34.7613 51.9021 34.7369 51.9472 34.711C51.9514 34.7083 51.9551 34.7062 51.9588 34.7041Z" fill="#1D974F"/>
<path d="M51.8056 34.7832L51.7807 43.658C51.6334 43.7242 51.4628 43.7751 51.2705 43.8111L51.2954 34.9363C51.4877 34.9003 51.6583 34.8494 51.8056 34.7832Z" fill="#1D974F"/>
<path d="M51.2949 34.9355L51.27 43.8103C51.1699 43.8294 51.0639 43.8442 50.9521 43.8554L50.977 34.9806C51.0888 34.9695 51.1948 34.9546 51.2949 34.9355Z" fill="#1D974F"/>
<path d="M50.9771 34.9805L50.9522 43.8552C50.851 43.8653 50.7445 43.8722 50.6338 43.8759L50.6587 35.0011C50.7694 34.9969 50.8754 34.9905 50.9771 34.9805Z" fill="#1D974F"/>
<path d="M50.6581 35L50.6332 43.8748C50.5087 43.879 50.3783 43.879 50.2422 43.8753L50.2671 35.0005C50.4032 35.0042 50.5336 35.0042 50.6581 35Z" fill="#1D974F"/>
<path d="M50.2678 35.0016L50.243 43.8764C50.0909 43.8722 49.9314 43.8632 49.7656 43.8494L49.7905 34.9746C49.9563 34.9884 50.1158 34.9974 50.2678 35.0016Z" fill="#1D974F"/>
<path d="M49.79 34.9743L49.7651 43.8491C49.5521 43.831 49.328 43.8056 49.0928 43.7722L49.1177 34.8975C49.3529 34.9308 49.577 34.9563 49.79 34.9743Z" fill="#1D974F"/>
<path d="M49.1185 34.8978L49.0936 43.7726C48.7545 43.7244 48.3932 43.6603 48.0107 43.5808L48.0356 34.7061C48.4181 34.7855 48.7794 34.8496 49.1185 34.8978Z" fill="#1D974F"/>
<path d="M48.0362 34.7062L48.0113 43.581C47.4095 43.4554 46.7563 43.2923 46.0586 43.0926L46.0835 34.2178C46.7812 34.417 47.4344 34.5807 48.0362 34.7062Z" fill="#1D974F"/>
<path d="M46.0823 34.2175L46.0574 43.0923C44.6249 42.6833 43.0033 42.1228 41.2471 41.4314L41.272 32.5566C43.0287 33.248 44.6503 33.8085 46.0823 34.2175Z" fill="#1D974F"/>
<path d="M41.2724 32.5556L41.2475 41.4304C38.2188 40.2378 34.7901 38.6559 31.2422 36.7869L31.2671 27.9121C34.815 29.7812 38.2437 31.3631 41.2724 32.5556Z" fill="#1D974F"/>
<path d="M45.1252 27.585V19.9033L39.5361 23.1614V30.1015L45.1252 27.585Z" fill="#D9D9D9"/>
</g>
<path d="M40.1502 22.7551C48.9958 28.3564 54.1384 33.4396 51.9493 34.7116C49.7603 35.9836 40.9597 33.019 31.2691 27.9141L15.3595 37.1602L7.09766 32.3901L23.0004 23.1482C14.1383 17.5379 8.97941 12.4431 11.17 11.17C13.3612 9.89696 22.175 12.8674 31.8868 17.9845L36.8471 15.102L25.4193 8.50419L32.9882 4.10547L64.1103 22.0738L56.5414 26.4725L45.1105 19.8726L40.1502 22.7551ZM32.619 27.1316C41.1663 31.6463 48.696 34.3492 50.3913 33.3644C52.0887 32.3779 47.3959 28.0248 39.5664 23.0846L34.0229 26.3062C33.7712 26.187 32.3901 25.5115 29.8408 24.0398C27.7175 22.8139 26.2707 21.8725 25.7716 21.5403L31.3173 18.3177C22.7456 13.7908 15.2021 11.0778 13.5016 12.0659C11.8026 13.0534 16.5091 17.4145 24.3577 22.362C24.862 22.6831 26.3078 23.59 28.4316 24.8159C31.1028 26.3581 32.3689 27.0076 32.619 27.1316Z" fill="url(#paint0_linear_1343_46376)"/>
<path d="M40.1502 22.7551C48.9958 28.3564 54.1384 33.4396 51.9493 34.7116C49.7603 35.9836 40.9597 33.019 31.2691 27.9141L15.3595 37.1602L7.09766 32.3901L23.0004 23.1482C14.1383 17.5379 8.97941 12.4431 11.17 11.17C13.3612 9.89696 22.175 12.8674 31.8868 17.9845L36.8471 15.102L25.4193 8.50419L32.9882 4.10547L64.1103 22.0738L56.5414 26.4725L45.1105 19.8726L40.1502 22.7551ZM32.619 27.1316C41.1663 31.6463 48.696 34.3492 50.3913 33.3644C52.0887 32.3779 47.3959 28.0248 39.5664 23.0846L34.0229 26.3062C33.7712 26.187 32.3901 25.5115 29.8408 24.0398C27.7175 22.8139 26.2707 21.8725 25.7716 21.5403L31.3173 18.3177C22.7456 13.7908 15.2021 11.0778 13.5016 12.0659C11.8026 13.0534 16.5091 17.4145 24.3577 22.362C24.862 22.6831 26.3078 23.59 28.4316 24.8159C31.1028 26.3581 32.3689 27.0076 32.619 27.1316Z" fill="url(#paint1_linear_1343_46376)"/>
<path d="M15.359 37.1597L15.3336 46.0345L7.07227 41.265L7.09716 32.3896L15.359 37.1597Z" fill="#1D974F"/>
<path d="M31.269 27.9141L31.2436 36.7888L15.334 46.0345L15.3594 37.1597L31.269 27.9141Z" fill="#36D068"/>
<path d="M40.1504 22.7547L45.11 19.873L45.0924 26.1061L40.1504 22.7547Z" fill="#36D068"/>
<path d="M65.4246 17.8374C65.4246 17.8374 64.8678 20.0035 64.8728 20.5257C64.8779 21.0479 64.5354 22.0267 65.9453 22.5993C65.9453 22.5993 67.5838 23.1942 68.0332 23.2446C68.0332 23.2446 66.3096 22.8245 65.8357 22.8249C65.3617 22.8253 64.4207 22.7045 63.7946 24.6496L63.1989 26.7863C63.1989 26.7863 63.7263 24.5227 63.7561 24.0627C63.7858 23.6027 64.0467 22.5075 62.5587 21.9693L60.7045 21.4013C60.7045 21.4013 62.2043 21.8204 63.11 21.8027C64.0157 21.785 64.6785 20.7522 65.4246 17.8374Z" fill="#33B568" stroke="#33B568" stroke-width="0.105191" stroke-miterlimit="10"/>
<path d="M9.79905 23.7798C9.79905 23.7798 9.54507 24.7678 9.54738 25.006C9.54968 25.2442 9.39344 25.6906 10.0365 25.9518C10.0365 25.9518 10.7839 26.2231 10.9889 26.2461C10.9889 26.2461 10.2027 26.0545 9.98654 26.0547C9.77037 26.0549 9.34117 25.9997 9.05559 26.887L8.78387 27.8615C8.78387 27.8615 9.02444 26.829 9.038 26.6192C9.05156 26.4094 9.17055 25.9099 8.49185 25.6644L7.64612 25.4053C7.64612 25.4053 8.33022 25.5965 8.74333 25.5884C9.15643 25.5804 9.45874 25.1093 9.79905 23.7798Z" fill="#33B568" stroke="#33B568" stroke-width="0.105191" stroke-miterlimit="10"/>
<ellipse cx="1.96871" cy="1.76364" rx="0.473597" ry="0.473598" fill="#33B568"/>
<ellipse cx="68.9225" cy="46.7595" rx="0.765316" ry="0.765317" fill="#33B568"/>
<ellipse cx="40.7835" cy="1.76397" rx="1.32451" ry="1.32452" fill="#33B568"/>
<defs>
<linearGradient id="paint0_linear_1343_46376" x1="36.5451" y1="12.3821" x2="13.3675" y2="45.0427" gradientUnits="userSpaceOnUse">
<stop stop-color="#EBFF25"/>
<stop offset="1" stop-color="#44D66D"/>
</linearGradient>
<linearGradient id="paint1_linear_1343_46376" x1="36.5451" y1="4.26748" x2="36.5451" y2="44.3409" gradientUnits="userSpaceOnUse">
<stop offset="0.34375" stop-color="#D4F938"/>
<stop offset="1" stop-color="#44D66D"/>
</linearGradient>
</defs>
</svg>
