<svg width="18" height="16" viewBox="0 0 18 16" fill="none" xmlns="http://www.w3.org/2000/svg">
<path d="M6.31489 16L4.86727 13.5619L2.12441 12.9524L2.39108 10.1333L0.524414 8L2.39108 5.86667L2.12441 3.04762L4.86727 2.4381L6.31489 0L8.90537 1.10476L11.4958 0L12.9435 2.4381L15.6863 3.04762L15.4197 5.86667L17.2863 8L15.4197 10.1333L15.6863 12.9524L12.9435 13.5619L11.4958 16L8.90537 14.8952L6.31489 16ZM6.96251 14.0571L8.90537 13.219L10.8863 14.0571L11.953 12.2286L14.0482 11.7333L13.8577 9.6L15.2673 8L13.8577 6.36191L14.0482 4.22857L11.953 3.77143L10.8482 1.94286L8.90537 2.78095L6.92441 1.94286L5.85775 3.77143L3.76251 4.22857L3.95299 6.36191L2.54346 8L3.95299 9.6L3.76251 11.7714L5.85775 12.2286L6.96251 14.0571ZM8.10537 10.7048L12.4101 6.4L11.3435 5.29524L8.10537 8.53333L6.46727 6.93333L5.4006 8L8.10537 10.7048Z" fill="#06A868"/>
</svg>
