<svg width="147" height="62" viewBox="0 0 147 62" fill="none" xmlns="http://www.w3.org/2000/svg">
<path d="M7.87109 5.18945L16.2469 13.5654" stroke="url(#paint0_linear_1994_64775)" stroke-width="1.53041" stroke-linecap="round"/>
<path d="M51.5547 5.11328L43.1789 13.4892" stroke="url(#paint1_linear_1994_64775)" stroke-width="1.53041" stroke-linecap="round"/>
<path d="M62.7646 32.5215L50.9194 32.5215" stroke="url(#paint2_linear_1994_64775)" stroke-width="1.53041" stroke-linecap="round"/>
<path d="M1.94824 31.9521L13.7935 31.9522" stroke="url(#paint3_linear_1994_64775)" stroke-width="1.53041" stroke-linecap="round"/>
<path d="M1.17285 58.7168L9.54875 50.341" stroke="url(#paint4_linear_1994_64775)" stroke-width="1.53041" stroke-linecap="round"/>
<path d="M46.5703 58.7168L38.1944 50.341" stroke="url(#paint5_linear_1994_64775)" stroke-width="1.53041" stroke-linecap="round"/>
<path d="M42.033 7.91406L44.5489 11.5527L43.6565 19.2144L41.1406 15.5758L42.033 7.91406Z" fill="#1C934C"/>
<path d="M48.2387 15.4697L50.7545 19.1083L49.882 26.5996L47.3662 22.961L48.2387 15.4697Z" fill="#1C934C"/>
<path d="M54.3268 22.8584L56.8426 26.497L55.2356 40.2896L52.7197 36.651L54.3268 22.8584Z" fill="#1C934C"/>
<path d="M52.7196 36.6514L55.2354 40.29L48.2756 40.3934L45.7598 36.7548L52.7196 36.6514Z" fill="#43C277"/>
<path d="M44.8679 44.417L47.3819 48.0556L40.2824 48.1608L37.7666 44.5222L44.8679 44.417Z" fill="#43C277"/>
<path d="M45.7586 36.7539L48.2745 40.3925L47.3802 48.0561L44.8662 44.4175L45.7586 36.7539Z" fill="#1C934C"/>
<path d="M36.933 51.6738L39.4488 55.3124L9.62521 55.755L7.10938 52.1164L36.933 51.6738Z" fill="#43C277"/>
<path d="M37.7662 44.5225L40.282 48.1611L39.4494 55.3113L36.9336 51.6727L37.7662 44.5225Z" fill="#1C934C"/>
<path d="M42.0317 7.91406L41.1393 15.5758L48.2388 15.4706L47.3663 22.9619L54.3261 22.8585L52.719 36.6511L45.7592 36.7545L44.8668 44.4181L37.7655 44.5233L36.933 51.6736L7.10938 52.1162L12.2082 8.35665L42.0317 7.91406Z" fill="url(#paint6_linear_1994_64775)"/>
<path d="M18.3448 31.1499L22.4786 34.6742L36.4708 21.8701L39.0636 24.044L22.8232 39.3739L15.8652 33.1832L18.3448 31.1499Z" fill="white"/>
<ellipse cx="9.13405" cy="8.88503" rx="0.415301" ry="0.415301" fill="#45DC76"/>
<ellipse cx="7.10964" cy="61.218" rx="0.415301" ry="0.415301" fill="#1D9A46"/>
<ellipse cx="64.5842" cy="36.5598" rx="0.415301" ry="0.415301" fill="#1D9A46"/>
<ellipse cx="1.25927" cy="24.7788" rx="0.675284" ry="0.675284" fill="#1D9A46"/>
<ellipse cx="44.0951" cy="56.7923" rx="0.772812" ry="0.772812" fill="#45DC76"/>
<ellipse cx="48.7231" cy="5.93212" rx="0.337397" ry="0.337397" fill="#45DC76"/>
<ellipse cx="4.56927" cy="42.1376" rx="0.304619" ry="0.304619" fill="#45DC76"/>
<path d="M61.5678 27.6221L61.855 28.5316L62.7645 28.8188L61.855 29.106L61.5678 30.0155L61.2816 29.106L60.3711 28.8188L61.2816 28.5316L61.5678 27.6221Z" fill="#45DC76"/>
<path d="M12.059 0L12.1958 0.433032L12.6288 0.569779L12.1958 0.706526L12.059 1.13956L11.9227 0.706526L11.4893 0.569779L11.9227 0.433032L12.059 0Z" fill="#45DC76"/>
<path d="M41.8858 5.69743L41.9747 7.95397L43.873 9.17715L41.6165 9.26603L40.3933 11.1644L40.3066 8.90842L38.4061 7.68464L40.6648 7.59636L41.8858 5.69743Z" fill="#45DC76"/>
<path d="M18.8998 59.6064L19.1871 60.516L20.0966 60.8032L19.1871 61.0904L18.8998 61.9999L18.6136 61.0904L17.7031 60.8032L18.6136 60.516L18.8998 59.6064Z" fill="#45DC76"/>
<path d="M80.02 36.3L84.38 24.76H86.78L81.18 39H78.76L73.18 24.76H75.64L80.02 36.3ZM96.6381 33.66V34.48H88.7981C88.8381 36.4 90.0981 37.4 91.6981 37.4C92.8981 37.4 93.8981 36.84 94.3181 35.72H96.5381C95.9981 37.8 94.1581 39.2 91.6581 39.2C88.5981 39.2 86.5781 37.08 86.5781 33.86C86.5781 30.66 88.5981 28.54 91.6381 28.54C94.6181 28.54 96.6381 30.58 96.6381 33.66ZM91.6381 30.28C90.1781 30.28 88.9781 31.18 88.8181 32.96H94.4181C94.2981 31.18 93.1181 30.28 91.6381 30.28ZM103.57 28.76H104.91V30.72H103.45C101.75 30.72 101.09 31.8 101.09 33.54V39H98.8903V28.76H100.89L101.15 30.08C101.53 29.36 102.39 28.76 103.57 28.76ZM106.524 26.84V24.56H108.944V26.84H106.524ZM106.644 39V28.76H108.824V39H106.644ZM120.968 28.76V39H118.788V30.68H114.388V39H112.188V30.68H110.508V28.76H112.188V27.1C112.188 25.16 113.108 24.12 115.328 24.12H116.748V25.96H115.708C114.608 25.96 114.388 26.5 114.388 27.26V28.76H120.968ZM118.628 24.24H121.128V26.48H118.628V24.24ZM133.357 33.66V34.48H125.517C125.557 36.4 126.817 37.4 128.417 37.4C129.617 37.4 130.617 36.84 131.037 35.72H133.257C132.717 37.8 130.877 39.2 128.377 39.2C125.317 39.2 123.297 37.08 123.297 33.86C123.297 30.66 125.317 28.54 128.357 28.54C131.337 28.54 133.357 30.58 133.357 33.66ZM128.357 30.28C126.897 30.28 125.697 31.18 125.537 32.96H131.137C131.017 31.18 129.837 30.28 128.357 30.28ZM143.453 24.14H145.653V39H143.653L143.473 37.44C142.853 38.48 141.513 39.2 139.933 39.2C137.113 39.2 135.073 37.24 135.073 33.9C135.073 30.46 137.213 28.54 139.933 28.54C141.533 28.54 142.833 29.22 143.453 30.26V24.14ZM140.373 37.26C142.093 37.26 143.413 36.02 143.413 33.9C143.413 31.8 142.093 30.48 140.373 30.5C138.573 30.5 137.333 31.82 137.333 33.9C137.333 36.02 138.593 37.26 140.373 37.26Z" fill="#29B57E"/>
<defs>
<linearGradient id="paint0_linear_1994_64775" x1="12.059" y1="5.18945" x2="12.059" y2="13.5654" gradientUnits="userSpaceOnUse">
<stop stop-color="#3CD279"/>
<stop offset="1" stop-color="#3ED179" stop-opacity="0"/>
</linearGradient>
<linearGradient id="paint1_linear_1994_64775" x1="47.3668" y1="5.11328" x2="47.3668" y2="13.4892" gradientUnits="userSpaceOnUse">
<stop stop-color="#3CD279"/>
<stop offset="1" stop-color="#3ED179" stop-opacity="0"/>
</linearGradient>
<linearGradient id="paint2_linear_1994_64775" x1="59.8034" y1="29.5602" x2="53.8807" y2="35.4828" gradientUnits="userSpaceOnUse">
<stop stop-color="#3CD279"/>
<stop offset="1" stop-color="#3ED179" stop-opacity="0"/>
</linearGradient>
<linearGradient id="paint3_linear_1994_64775" x1="4.90954" y1="28.9909" x2="10.8322" y2="34.9135" gradientUnits="userSpaceOnUse">
<stop stop-color="#3CD279"/>
<stop offset="1" stop-color="#3ED179" stop-opacity="0"/>
</linearGradient>
<linearGradient id="paint4_linear_1994_64775" x1="1.17285" y1="54.5289" x2="9.54875" y2="54.5289" gradientUnits="userSpaceOnUse">
<stop stop-color="#3CD279"/>
<stop offset="1" stop-color="#3ED179" stop-opacity="0"/>
</linearGradient>
<linearGradient id="paint5_linear_1994_64775" x1="46.5703" y1="54.5289" x2="38.1944" y2="54.5289" gradientUnits="userSpaceOnUse">
<stop stop-color="#3CD279"/>
<stop offset="1" stop-color="#3ED179" stop-opacity="0"/>
</linearGradient>
<linearGradient id="paint6_linear_1994_64775" x1="30.9201" y1="9.11667" x2="30.9201" y2="52.1157" gradientUnits="userSpaceOnUse">
<stop offset="0.4375" stop-color="#D4F938"/>
<stop offset="1" stop-color="#32D875" stop-opacity="0.96"/>
</linearGradient>
</defs>
</svg>
