<svg width="69" height="69" viewBox="0 0 69 69" fill="none" xmlns="http://www.w3.org/2000/svg">
<path d="M34.7576 68.124C53.5621 68.124 68.8062 52.913 68.8062 34.1494C68.8062 15.3857 53.5621 0.174805 34.7576 0.174805C15.9531 0.174805 0.708984 15.3857 0.708984 34.1494C0.708984 52.913 15.9531 68.124 34.7576 68.124Z" fill="#3E3E45"/>
<path d="M17.7871 42.2012L29.9212 48.8588V60.3628L17.7871 53.7052V42.2012Z" fill="#BFEA14"/>
<path d="M49.6398 37.6606L29.9219 48.8354V60.3627L49.6398 49.0362V37.6606Z" fill="#A7BD51"/>
<path d="M29.9163 48.9067L17.7871 42.2042L37.8258 31.6069L49.6317 37.6726L29.9163 48.9067Z" fill="#B5DD18"/>
<path d="M45.0064 37.6606C45.1327 37.9985 45.1139 38.3617 44.9532 38.6895C44.7926 39.0173 44.4997 39.2899 44.1236 39.4618C43.3769 39.7866 42.5407 39.9477 41.696 39.9294C40.8512 39.9112 40.0266 39.7141 39.3017 39.3574C38.937 39.2194 38.6396 38.9844 38.4576 38.6905C38.2756 38.3966 38.2196 38.0608 38.2986 37.7375L45.0064 37.6606Z" fill="#E2AE39"/>
<path d="M39.3269 35.9309C40.0888 35.5355 40.9249 35.3524 41.7638 35.3973C42.6026 35.4422 43.4193 35.7138 44.144 36.1889C45.4448 37.1372 45.3974 38.5711 44.0356 39.3828C43.2689 39.7835 42.4268 39.9694 41.5817 39.9245C40.7366 39.8795 39.9139 39.6051 39.1847 39.1249C37.911 38.1766 37.9584 36.7427 39.3269 35.9309Z" fill="#FFCE47"/>
<path d="M39.9576 36.5088C40.6364 36.2446 41.381 36.1219 42.1282 36.1512C42.8755 36.1805 43.6032 36.361 44.2498 36.6772C45.4087 37.3147 45.3586 38.2708 44.1496 38.8121C43.4709 39.0763 42.7263 39.199 41.979 39.1697C41.2318 39.1403 40.504 38.9599 39.8575 38.6437C38.7058 38.0062 38.7487 37.05 39.9576 36.5088Z" fill="#FFBD59"/>
<path d="M39.9335 36.3047L40.0968 36.2405L40.2602 36.1879H40.301H40.3759H40.4303H40.5052H40.5528L40.757 36.147H40.791H40.968H41.145H41.1858H41.3423H41.9685H42.1182H42.1659H42.3496L42.5402 36.1762L42.7716 36.2229L42.9077 36.2522L43.0506 36.2872L43.2344 36.3398L43.4114 36.4099L43.5747 36.4801C43.6322 36.5025 43.6869 36.5299 43.738 36.5619L43.8605 36.632L43.9422 36.6904L44.0103 36.743L44.092 36.8131L44.1328 36.8482C44.1547 36.8671 44.1731 36.8888 44.1872 36.9125L44.2349 36.9768C44.2557 37.0047 44.2739 37.034 44.2893 37.0644C44.2921 37.0897 44.2921 37.1151 44.2893 37.1404C44.2924 37.1695 44.2924 37.1989 44.2893 37.228C44.2927 37.2572 44.2927 37.2865 44.2893 37.3157V37.4209V37.5728C44.2658 37.5473 44.2453 37.5199 44.2281 37.491C44.2298 37.4657 44.2298 37.4403 44.2281 37.415C44.2126 37.3846 44.1944 37.3553 44.1736 37.3274V37.2865L44.126 37.2222C44.1101 37.1994 44.0919 37.1779 44.0715 37.1579L44.0307 37.117L44.3302 37.0761L44.2621 37.0235L44.1804 36.9651C44.1437 36.9351 44.1025 36.9096 44.0579 36.8891L43.9014 36.8073L43.738 36.7372L43.5611 36.667L43.3773 36.6145L43.037 36.4917H42.9009H42.8669L42.6355 36.4508H42.4449H42.2611H41.3832H41.2266H41.1858H41.0088L40.8319 36.4801L40.6277 36.521H40.5801H40.5052H40.4507H40.3759H40.3282L40.1649 36.5735L40.0015 36.6378C39.7458 36.71 39.5206 36.8457 39.3547 37.0277C39.1887 37.2097 39.0893 37.4299 39.0691 37.6604C39.0691 37.6604 39.0283 37.4618 39.0215 37.339C39.0495 37.1117 39.1493 36.8953 39.31 36.713C39.4707 36.5308 39.6863 36.3896 39.9335 36.3047Z" fill="#E2AE39"/>
<path d="M40.9822 37.6005L40.5391 37.8587C40.6516 37.9745 40.7881 38.0702 40.9413 38.141L40.6618 38.2972H40.7231L40.8867 38.3752L40.9685 38.4173L41.2685 38.2491C41.4302 38.3007 41.6009 38.3271 41.7729 38.3272C41.9652 38.3235 42.1531 38.2759 42.3183 38.1891C42.4206 38.1395 42.4984 38.0581 42.5364 37.9608C42.542 37.9059 42.534 37.8506 42.5128 37.7987C42.4916 37.7469 42.4578 37.6997 42.4137 37.6605V37.6185L42.775 37.4203C42.8585 37.4697 42.9302 37.533 42.9863 37.6065L43.0204 37.6545L43.5726 37.4984V37.4624C43.4849 37.3466 43.3683 37.25 43.2317 37.1801L43.4635 37.0479L43.3954 37.0179L43.2113 36.9398L43.1295 36.9038L42.8841 37.0419C42.7101 36.9932 42.528 36.9708 42.3455 36.9759C42.1502 36.9742 41.9585 37.0222 41.7934 37.114C41.7404 37.1381 41.6941 37.172 41.6576 37.2135C41.6211 37.255 41.5953 37.3031 41.5821 37.3542C41.5884 37.459 41.6395 37.5577 41.7252 37.6305L41.7661 37.6726L41.4048 37.8828L41.2617 37.7867C41.1972 37.7374 41.1379 37.6831 41.0844 37.6245L40.9822 37.6005ZM42.2024 37.4143C42.2134 37.39 42.2324 37.3691 42.2569 37.3542C42.2871 37.352 42.3175 37.3561 42.3455 37.3663C42.3704 37.3632 42.3957 37.3632 42.4205 37.3663L42.216 37.4804C42.211 37.4699 42.2084 37.4587 42.2084 37.4473C42.2084 37.436 42.211 37.4247 42.216 37.4143H42.2024ZM41.6979 38.0689L41.9161 37.9488C41.9189 37.9627 41.9189 37.977 41.9161 37.9909C41.9161 37.9909 41.9161 38.0329 41.8684 38.0509C41.8199 38.0725 41.7646 38.0788 41.7116 38.0689H41.6979Z" fill="#E2AE39"/>
<path d="M40.4548 38.4175C40.5819 38.8674 40.5635 39.3516 40.4027 39.7884C40.2419 40.2251 39.9485 40.5877 39.5721 40.8147C38.8261 41.2495 37.9903 41.4659 37.1457 41.4427C36.301 41.4196 35.4761 41.1579 34.7508 40.6828C34.3862 40.4985 34.0888 40.1848 33.9068 39.7924C33.7248 39.4 33.6688 38.9517 33.7478 38.5201L40.4548 38.4175Z" fill="#E2AE39"/>
<path d="M34.7638 37.3552C35.5275 37.0257 36.3649 36.8727 37.2053 36.9091C38.0457 36.9454 38.8643 37.1701 39.5921 37.5642C40.867 38.3621 40.867 39.5589 39.5107 40.2365C38.7469 40.5666 37.909 40.7194 37.0683 40.6819C36.2276 40.6444 35.4091 40.4177 34.6825 40.0212C33.3466 39.2296 33.4076 38.0328 34.7638 37.3552Z" fill="#FFCE47"/>
<path d="M34.6518 37.3564C35.3306 37.0259 36.0752 36.8725 36.8224 36.9091C37.5696 36.9458 38.2974 37.1715 38.944 37.5671C40.0957 38.3645 40.0528 39.5606 38.8438 40.2377C38.1646 40.5664 37.4202 40.7188 36.6733 40.6821C35.9264 40.6455 35.1988 40.4208 34.5516 40.027C33.3928 39.2296 33.4428 38.0335 34.6518 37.3564Z" fill="#FFCE47"/>
<path d="M35.1923 37.3914L35.3283 37.2955H35.3579L35.4998 37.2156H35.5708H35.6181H35.6831H35.7245L35.902 37.1596H36.0557H36.2095H36.2509H36.3869L36.6294 36.9038H37.0079H37.1381H37.1735H37.3332L37.4988 36.9438L37.6999 37.0077L37.8182 37.0477L37.9424 37.1037L38.0962 37.1836L38.25 37.2715L38.3919 37.3674L38.5338 37.4873L38.6403 37.5833L38.7113 37.6632L38.7763 37.7431C38.8031 37.7736 38.8269 37.8086 38.8473 37.8471L38.8828 37.903C38.9 37.9308 38.9158 37.9602 38.9301 37.9909C38.9458 38.0157 38.9597 38.0424 38.9715 38.0709V38.1109L39.0188 38.2388C39.0188 38.2388 39.0188 38.3107 39.0188 38.3427C39.0215 38.3826 39.0215 38.4227 39.0188 38.4626C39.0217 38.4998 39.0217 38.5373 39.0188 38.5745V38.6145C39.0217 38.6463 39.0217 38.6785 39.0188 38.7104V38.9102C39.0006 38.8777 38.9848 38.8429 38.9715 38.8063C38.9715 38.8063 38.9715 38.7344 38.9419 38.7024L38.8946 38.5745C38.8963 38.5586 38.8963 38.5424 38.8946 38.5265L38.8532 38.4466C38.8389 38.4159 38.8231 38.3865 38.8059 38.3587C38.7936 38.338 38.7798 38.3193 38.7645 38.3027L38.9952 38.4466L38.9301 38.3667L38.8591 38.2867L38.7527 38.1908L38.6107 38.0709L38.4037 37.887L38.25 37.7991L38.037 37.7032L37.9128 37.6552H37.7946L37.5935 37.5913H37.4338H37.2741H37.2386H37.1085H36.6294H36.4816H36.3455H36.2746H36.1208L35.967 37.6312L35.7896 37.6872H35.7482H35.6831H35.6358H35.5649H35.5235L35.3815 37.7671L35.2455 37.863C35.0469 37.9714 34.8738 38.1505 34.7446 38.3814C34.6155 38.6123 34.5351 38.8862 34.5121 39.174C34.4896 39.0265 34.4757 38.8768 34.4707 38.7264C34.4966 38.4391 34.5766 38.1656 34.7029 37.9319C34.8292 37.6982 34.9977 37.5122 35.1923 37.3914Z" fill="#E2AE39"/>
<path d="M35.6736 38.6644L35.2305 39.0584C35.3429 39.2331 35.4767 39.3791 35.6259 39.4899L35.3464 39.7432H35.4145L35.5713 39.8652L35.6531 39.9308L35.9531 39.6588C36.1154 39.7483 36.2896 39.7899 36.4643 39.7808C36.6573 39.7816 36.8465 39.7067 37.0097 39.565C37.0617 39.529 37.1079 39.4789 37.1454 39.4176C37.1829 39.3563 37.2109 39.2852 37.2278 39.2085C37.2312 39.1244 37.222 39.0403 37.2009 38.9613C37.1798 38.8822 37.1472 38.81 37.1051 38.7488V38.6832L37.4664 38.3642C37.5463 38.4441 37.6155 38.5425 37.6709 38.655L37.7118 38.7395L38.264 38.4956V38.4299C38.1751 38.2496 38.0558 38.1015 37.9163 37.9984L38.1549 37.792L38.0868 37.7451L37.8482 37.7169L37.7664 37.6606L37.521 37.8764C37.3469 37.8009 37.1649 37.766 36.9824 37.7732C36.788 37.7703 36.5969 37.8418 36.4302 37.9796C36.3759 38.017 36.3286 38.0712 36.2919 38.1379C36.2553 38.2046 36.2303 38.2821 36.2189 38.3642C36.2253 38.5259 36.2737 38.679 36.3553 38.7957L36.403 38.8614L36.0349 39.1804C35.9859 39.1368 35.9402 39.0865 35.8985 39.0303C35.8292 38.9607 35.7692 38.875 35.7213 38.777L35.6736 38.6644ZM36.8938 38.3642C36.8938 38.3642 36.8938 38.2986 36.9415 38.2704C36.9729 38.2597 37.0056 38.2597 37.037 38.2704H37.1051L36.9006 38.4486C36.8932 38.4218 36.8908 38.3927 36.8938 38.3642ZM36.3893 39.3868L36.6007 39.1991C36.6059 39.2204 36.6059 39.2435 36.6007 39.2648C36.6007 39.2648 36.6007 39.3211 36.5461 39.3586C36.4992 39.3978 36.4432 39.4112 36.3893 39.3961V39.3868Z" fill="#E2AE39"/>
<path d="M40.4557 37.6606C40.5819 38.1111 40.5631 38.5953 40.4026 39.0325C40.2421 39.4696 39.9495 39.8331 39.5737 40.0622C38.8277 40.4953 37.9923 40.7101 37.1484 40.6857C36.3044 40.6613 35.4805 40.3986 34.7564 39.923C34.3854 39.7376 34.0836 39.4184 33.9012 39.0188C33.7189 38.6191 33.667 38.163 33.7541 37.7265L40.4557 37.6606Z" fill="#E2AE39"/>
<path d="M34.7638 35.9356C35.5276 35.5367 36.3656 35.352 37.2063 35.3973C38.047 35.4426 38.8655 35.7165 39.5921 36.1957C40.867 37.152 40.867 38.621 39.5107 39.3861C38.7469 39.785 37.909 39.9696 37.0683 39.9243C36.2276 39.879 35.4091 39.6051 34.6825 39.126C33.3466 38.2002 33.4076 36.7542 34.7638 35.9356Z" fill="#FFCE47"/>
<path d="M34.6518 36.5068C35.331 36.2439 36.0754 36.1219 36.8223 36.1512C37.5692 36.1806 38.2968 36.3603 38.944 36.6753C40.0957 37.3133 40.0528 38.2702 38.8438 38.8118C38.165 39.0762 37.4204 39.199 36.6732 39.1697C35.926 39.1403 35.1982 38.9598 34.5516 38.6433C33.3928 38.0054 33.4428 37.0485 34.6518 36.5068Z" fill="#FFCE47"/>
<path d="M35.2097 36.3151L35.3479 36.2466H35.3779L35.5221 36.1906H35.5942H35.6423H35.7084H35.7504L35.9307 36.147H36.0869H36.2431H36.2851H36.4233H36.9761H37.1082H37.1443H37.3065L37.4747 36.1781L37.679 36.2217H37.7992L37.9253 36.2591L38.0815 36.3151L38.2377 36.3899L38.3819 36.4646L38.5261 36.5518L38.6343 36.6328L38.7064 36.6951L38.7725 36.7511C38.7994 36.7728 38.8236 36.7979 38.8446 36.8259L38.8806 36.8632C38.8981 36.8849 38.9142 36.9078 38.9287 36.9317L38.9707 37.0002C38.9891 37.03 39.0051 37.0613 39.0188 37.0937C39.0188 37.0937 39.0188 37.1497 39.0188 37.1746C39.0215 37.2057 39.0215 37.237 39.0188 37.2681C39.0217 37.2991 39.0217 37.3304 39.0188 37.3615C39.0217 37.3863 39.0217 37.4114 39.0188 37.4362V37.5919C39.0007 37.5641 38.9846 37.535 38.9707 37.5047C38.9707 37.5047 38.9707 37.4549 38.9407 37.4238C38.9283 37.3888 38.9122 37.3554 38.8926 37.3241C38.8946 37.3097 38.8946 37.295 38.8926 37.2805C38.8821 37.2574 38.8679 37.2364 38.8506 37.2182L38.8025 37.1497L38.7604 37.1061C38.7395 37.0782 38.7153 37.0531 38.6883 37.0314L39.0068 37.0501L38.9347 36.9878L38.8265 36.9068L38.6823 36.8196L38.4721 36.7013L38.3158 36.6265L38.1596 36.5705L38.0335 36.5331L37.9133 36.4958L37.5889 36.4272H37.4267H37.2644H36.4894H36.3512H36.3092H36.153L35.9967 36.4584L35.8165 36.5082H35.7744H35.7084H35.6603H35.5882H35.5461L35.4019 36.5705L35.2578 36.639C35.056 36.7234 34.8802 36.863 34.749 37.0429C34.6177 37.2228 34.5361 37.4362 34.5128 37.6604C34.4897 37.5476 34.4756 37.4331 34.4707 37.3179C34.5039 37.1003 34.5888 36.8947 34.7178 36.7196C34.8468 36.5445 35.0159 36.4055 35.2097 36.3151Z" fill="#E2AE39"/>
<path d="M35.6736 37.5568L35.2305 37.8192C35.3424 37.9349 35.4762 38.032 35.6259 38.106L35.3464 38.2647L35.4145 38.2952L35.5713 38.3746L35.6531 38.4173L35.9531 38.2464C36.1172 38.2988 36.2901 38.3256 36.4643 38.3257C36.6563 38.3204 36.8438 38.2721 37.0097 38.1854C37.112 38.135 37.1898 38.0523 37.2278 37.9535C37.2317 37.8978 37.2228 37.842 37.2017 37.7895C37.1806 37.7371 37.1477 37.689 37.1051 37.6483V37.6056L37.4664 37.4042C37.5479 37.4546 37.6174 37.5189 37.6709 37.5934L37.7118 37.6422L38.264 37.4897V37.4469C38.1755 37.3277 38.0563 37.2293 37.9163 37.1601L38.1549 37.0259L38.0868 36.9953L37.8482 36.9404L37.7664 36.9038L37.521 37.0442C37.3469 36.9951 37.1649 36.9724 36.9824 36.977C36.7874 36.9773 36.5963 37.0259 36.4302 37.1174C36.3758 37.14 36.3281 37.1739 36.2914 37.2164C36.2546 37.2589 36.2297 37.3086 36.2189 37.3615C36.2253 37.4667 36.2737 37.5663 36.3553 37.6422L36.403 37.6911L36.0349 37.8985L35.8985 37.8009C35.8324 37.7525 35.7729 37.6972 35.7213 37.6361L35.6736 37.5568ZM36.8938 37.3676C36.8938 37.3676 36.8938 37.331 36.9415 37.3127C36.9724 37.3029 37.0061 37.3029 37.037 37.3127C37.0596 37.3097 37.0825 37.3097 37.1051 37.3127L36.9006 37.4286C36.895 37.4194 36.8915 37.4092 36.8904 37.3987C36.8892 37.3883 36.8904 37.3777 36.8938 37.3676ZM36.3893 38.0328L36.6007 37.9108C36.6029 37.9249 36.6029 37.9393 36.6007 37.9535C36.6007 37.9535 36.6007 37.9962 36.5461 38.0145C36.4983 38.0379 36.4423 38.0445 36.3893 38.0328Z" fill="#E2AE39"/>
<path d="M40.4557 36.147C40.5819 36.5974 40.5631 37.0817 40.4026 37.5188C40.2421 37.9559 39.9495 38.3194 39.5737 38.5485C38.8277 38.9816 37.9923 39.1964 37.1484 39.172C36.3044 39.1477 35.4805 38.885 34.7564 38.4094C34.3854 38.2239 34.0836 37.9048 33.9012 37.5051C33.7189 37.1054 33.667 36.6494 33.7541 36.2129L40.4557 36.147Z" fill="#E2AE39"/>
<path d="M34.7638 34.4187C35.5275 34.0233 36.3649 33.8396 37.2053 33.8833C38.0457 33.9269 38.8643 34.1966 39.5921 34.6694C40.867 35.6269 40.867 37.0631 39.5107 37.8761C38.7469 38.2723 37.909 38.4557 37.0683 38.4107C36.2276 38.3657 35.4091 38.0937 34.6825 37.6178C33.3466 36.6679 33.4076 35.2317 34.7638 34.4187Z" fill="#FFCE47"/>
<path d="M34.6518 34.9959C35.3306 34.7315 36.0752 34.6087 36.8224 34.638C37.5696 34.6674 38.2974 34.8479 38.944 35.1644C40.0957 35.8023 40.0528 36.7592 38.8438 37.3009C38.1646 37.5638 37.4202 37.6858 36.6733 37.6565C35.9264 37.6271 35.1988 37.4474 34.5516 37.1324C33.3928 36.4944 33.4428 35.5375 34.6518 34.9959Z" fill="#FFBD59"/>
<path d="M35.1964 34.8504L35.3332 34.7756H35.3629L35.5057 34.7132H35.5771H35.6246H35.6901H35.7317L35.9101 34.6696L36.0648 34.6384H36.2194H36.2611H36.3979H36.9451H37.076H37.1117C37.165 34.6323 37.2189 34.6323 37.2723 34.6384H37.4388L37.641 34.6883H37.76L37.8849 34.7257L38.0396 34.7818L38.1942 34.8504L38.337 34.9252L38.4797 35.0125L38.5868 35.0873L38.6582 35.1497L38.7236 35.2058C38.7503 35.2275 38.7743 35.2526 38.795 35.2806L38.8307 35.3242C38.848 35.3459 38.8639 35.3689 38.8782 35.3928L38.9199 35.4614L38.9675 35.5612C38.9675 35.5612 38.9675 35.6173 38.9675 35.6422C38.9702 35.6733 38.9702 35.7046 38.9675 35.7357C38.97 35.7648 38.97 35.794 38.9675 35.823C38.9704 35.8479 38.9704 35.873 38.9675 35.8979V36.06C38.9496 36.0321 38.9337 36.003 38.9199 35.9727C38.9199 35.9727 38.9199 35.9166 38.8901 35.8916C38.8766 35.8592 38.8607 35.8279 38.8426 35.7981C38.8456 35.7837 38.8456 35.7688 38.8426 35.7545L38.8009 35.6859C38.7866 35.6619 38.7707 35.639 38.7533 35.6173L38.7117 35.5736L39.021 35.6859L38.9556 35.6298L38.8842 35.5674L38.7771 35.4863L38.6344 35.3991L38.4262 35.2369L38.2715 35.1621L38.0574 35.0624H37.9087L37.7897 35.0312L37.5875 34.9875L37.4269 34.9564H37.2663H37.2306H37.0998H36.4633H36.3265H36.2849H36.1302H35.9756L35.7971 35H35.7555H35.6901H35.6425H35.5711H35.5295L35.3867 35.0561L35.2499 35.1247C35.0502 35.2092 34.8761 35.3489 34.7462 35.529C34.6163 35.7091 34.5355 35.9228 34.5123 36.1473C34.49 36.0343 34.4761 35.9196 34.4707 35.8043C34.5097 35.5959 34.5959 35.4004 34.7223 35.2343C34.8486 35.0683 35.0112 34.9366 35.1964 34.8504Z" fill="#E2AE39"/>
<path d="M35.6736 36.057L35.2305 36.3249C35.3424 36.4429 35.4762 36.542 35.6259 36.6176L35.3464 36.7795H35.4145L35.5713 36.8605L35.6531 36.9041L35.9531 36.7297C36.1172 36.7831 36.2901 36.8105 36.4643 36.8107C36.6563 36.8052 36.8438 36.756 37.0097 36.6674C37.112 36.616 37.1898 36.5316 37.2278 36.4307C37.2317 36.3739 37.2228 36.317 37.2017 36.2634C37.1806 36.2099 37.1477 36.1609 37.1051 36.1193V36.0757L37.4664 35.8702C37.5479 35.9216 37.6174 35.9872 37.6709 36.0633L37.7118 36.1131L38.264 35.9512V35.9138C38.1773 35.7908 38.0576 35.69 37.9163 35.6211L38.1549 35.484H38.0868L37.8482 35.428L37.7664 35.3906L37.521 35.5339C37.3469 35.4838 37.1649 35.4606 36.9824 35.4654C36.788 35.4634 36.5969 35.5109 36.4302 35.6024C36.3759 35.6273 36.3286 35.6632 36.2919 35.7075C36.2553 35.7518 36.2303 35.8032 36.2189 35.8577C36.2253 35.9651 36.2737 36.0668 36.3553 36.1442L36.403 36.1878L36.0349 36.4058L35.8985 36.3062C35.8324 36.2568 35.7729 36.2003 35.7213 36.138L35.6736 36.057ZM36.8938 35.864C36.8938 35.864 36.8938 35.8266 36.9415 35.8017H37.037H37.1051L36.9006 35.92C36.8932 35.9022 36.8908 35.8829 36.8938 35.864ZM36.3893 36.5429L36.6007 36.4183C36.6059 36.4324 36.6059 36.4477 36.6007 36.4619C36.5977 36.4755 36.5911 36.4882 36.5817 36.4991C36.5722 36.5099 36.56 36.5185 36.5461 36.5242C36.4983 36.5481 36.4423 36.5548 36.3893 36.5429Z" fill="#E2AE39"/>
<path d="M35.1471 39.9307C35.2733 40.3806 35.2545 40.8643 35.094 41.3009C34.9335 41.7375 34.6409 42.1006 34.2651 42.3294C33.5197 42.7632 32.6846 42.979 31.8407 42.9559C30.9967 42.9329 30.1725 42.6717 29.4478 42.1978C29.0768 42.0125 28.775 41.6938 28.5926 41.2946C28.4103 40.8953 28.3584 40.4398 28.4456 40.0038L35.1471 39.9307Z" fill="#E2AE39"/>
<path d="M29.4639 38.2083C30.226 37.809 31.0631 37.6232 31.9034 37.6669C32.7436 37.7106 33.5619 37.9825 34.2878 38.4591C35.5887 39.4169 35.5345 40.8459 34.1726 41.6592C33.4096 42.0547 32.573 42.2384 31.7334 42.1947C30.8937 42.1511 30.0758 41.8814 29.3487 41.4083C28.0478 40.4886 28.0953 39.0292 29.4639 38.2083Z" fill="#FFCE47"/>
<path d="M30.0983 38.7767C30.7776 38.5133 31.5225 38.3917 32.2697 38.422C33.017 38.4524 33.7444 38.6339 34.3904 38.9511C35.5493 39.5826 35.4992 40.5389 34.2903 41.0802C33.6119 41.346 32.8671 41.4695 32.1195 41.4402C31.372 41.4109 30.644 41.2296 29.9981 40.9118C28.8464 40.2743 28.8893 39.324 30.0983 38.7767Z" fill="#FFCE47"/>
<path d="M29.9952 38.5923L30.1605 38.526L30.3257 38.4657H30.3671H30.4428H30.4979H30.5805H30.6218L30.8284 38.4175H31.0074H31.1864H31.2277H31.3861H32.2192H32.4052H32.5979L32.8321 38.4597H32.8665L33.0042 38.4959L33.1488 38.5381L33.3347 38.5984L33.5137 38.6647L33.679 38.7431L33.8373 38.8275C33.8809 38.8507 33.9224 38.8769 33.9613 38.9059L34.0439 38.9602L34.1127 39.0205L34.1954 39.0928L34.2367 39.135C34.2573 39.1556 34.2757 39.1778 34.2918 39.2013C34.3055 39.2228 34.3216 39.243 34.34 39.2616V39.2918C34.3624 39.3221 34.3809 39.3544 34.395 39.3883C34.3979 39.4164 34.3979 39.4446 34.395 39.4727C34.3982 39.5028 34.3982 39.533 34.395 39.5631C34.3984 39.5932 34.3984 39.6235 34.395 39.6536V39.9309C34.3708 39.9071 34.35 39.8808 34.3331 39.8526C34.3258 39.8252 34.3142 39.7988 34.2987 39.7742L34.2436 39.6777V39.6415C34.2252 39.6229 34.2091 39.6027 34.1954 39.5812L34.1403 39.5149L34.099 39.4667L34.4708 39.3943L34.4019 39.334L34.3193 39.2737L34.2023 39.2013C34.1472 39.1652 34.0921 39.1411 34.037 39.1109H34.0026L33.7203 38.9963L33.5413 38.93L33.3553 38.8697L33.2108 38.8275L33.073 38.7913H32.956L32.7219 38.7491H32.5291H32.3432H31.4618H31.3035H31.2622H31.0832H30.9041L30.6976 38.7974H30.6563H30.5736H30.5185H30.4428H30.3946L30.2294 38.8577L30.0641 38.93C29.8329 39.0117 29.6314 39.1469 29.481 39.321C29.3306 39.4952 29.2371 39.7018 29.2103 39.9189C29.1878 39.8071 29.1717 39.6944 29.1621 39.5812C29.199 39.3696 29.2942 39.169 29.4393 38.9967C29.5845 38.8245 29.7752 38.6857 29.9952 38.5923Z" fill="#E2AE39"/>
<path d="M31.1278 39.8044L30.6797 40.0756V40.1071C30.7903 40.2275 30.9263 40.3261 31.0796 40.3972L30.7969 40.5612H30.8589L31.0244 40.6495L31.1071 40.6873L31.4105 40.5107C31.5734 40.5673 31.7465 40.5951 31.9207 40.5927C32.1152 40.5888 32.3052 40.5389 32.4722 40.4477C32.5771 40.3971 32.6562 40.3111 32.6928 40.208C32.6973 40.151 32.6892 40.0937 32.6691 40.0395C32.6489 39.9854 32.6172 39.9355 32.5756 39.8927L32.5343 39.8549L32.8997 39.6405C32.9825 39.6941 33.0548 39.7602 33.1134 39.836L33.1479 39.8927L33.7132 39.7288L33.6787 39.6846C33.5881 39.5646 33.4706 39.4635 33.334 39.3882L33.5684 39.2558H33.4995L33.3754 39.1738H33.2582L33.01 39.3189C32.8352 39.2626 32.6505 39.2369 32.4653 39.2432C32.2683 39.2444 32.0753 39.2946 31.9069 39.3882C31.8531 39.4148 31.8062 39.4517 31.7694 39.4963C31.7325 39.5409 31.7065 39.5922 31.6932 39.6468C31.6985 39.7552 31.7505 39.8572 31.8379 39.9306L31.8793 39.981L31.5139 40.1954C31.4624 40.1659 31.414 40.1321 31.3691 40.0945C31.3039 40.0428 31.244 39.9858 31.1899 39.9243L31.1278 39.8044ZM32.3619 39.6153C32.3655 39.6017 32.3722 39.589 32.3818 39.5781C32.3913 39.5672 32.4034 39.5583 32.4171 39.5522C32.4461 39.5431 32.4777 39.5431 32.5067 39.5522H32.5825L32.3757 39.672L32.3619 39.6153ZM31.8517 40.2963L32.0724 40.1702C32.0748 40.1848 32.0748 40.1997 32.0724 40.2143C32.0724 40.2143 32.0724 40.2585 32.0241 40.2774C32.0017 40.2974 31.9742 40.3119 31.9441 40.3197C31.914 40.3274 31.8822 40.328 31.8517 40.3215V40.2963Z" fill="#E2AE39"/>
<path d="M35.1462 38.4175C35.2733 38.8674 35.2549 39.3516 35.0941 39.7884C34.9333 40.2251 34.6399 40.5877 34.2635 40.8147C33.5175 41.2495 32.6817 41.4659 31.8371 41.4427C30.9924 41.4196 30.1675 41.1579 29.4422 40.6828C29.0776 40.4985 28.7802 40.1848 28.5982 39.7924C28.4162 39.4 28.3602 38.9517 28.4392 38.5201L35.1462 38.4175Z" fill="#E2AE39"/>
<path d="M29.4639 37.3552C30.2269 37.0257 31.0635 36.8727 31.9031 36.9091C32.7428 36.9454 33.5607 37.1701 34.2878 37.5642C35.5887 38.3621 35.5345 39.5589 34.1726 40.2365C33.4095 40.5666 32.5723 40.7194 31.7324 40.6819C30.8925 40.6444 30.0747 40.4177 29.3487 40.0212C28.0478 39.2296 28.0953 38.0328 29.4639 37.3552Z" fill="#FFCE47"/>
<path d="M30.0983 37.3564C30.777 37.0259 31.5216 36.8725 32.2689 36.9091C33.0161 36.9458 33.7438 37.1715 34.3904 37.5671C35.5493 38.3645 35.4992 39.5606 34.2903 40.2377C33.611 40.5664 32.8667 40.7188 32.1198 40.6821C31.3729 40.6455 30.6453 40.4208 29.9981 40.027C28.8464 39.2296 28.8893 38.0335 30.0983 37.3564Z" fill="#FFCE47"/>
<path d="M31.1278 38.6644L30.6797 39.0584C30.7903 39.2374 30.9263 39.3842 31.0796 39.4899L30.7969 39.7432H30.8589L31.0244 39.8652L31.1071 39.9308L31.4105 39.6588C31.5722 39.7484 31.7462 39.79 31.9207 39.7808C32.1156 39.7796 32.3066 39.7049 32.4722 39.565C32.5248 39.529 32.5715 39.4789 32.6095 39.4176C32.6474 39.3563 32.6758 39.2852 32.6928 39.2085C32.6975 39.125 32.6896 39.0412 32.6694 38.9621C32.6492 38.883 32.6173 38.8104 32.5756 38.7488L32.5343 38.6832L32.8997 38.3642C32.9825 38.444 33.0548 38.5423 33.1134 38.655L33.1479 38.7395L33.7132 38.4956L33.6787 38.4299C33.5896 38.2521 33.4717 38.1044 33.334 37.9984L33.5684 37.792H33.4995L33.3754 37.7169L33.2927 37.6606L33.0445 37.8764C32.8685 37.8002 32.6843 37.7653 32.4998 37.7732C32.3029 37.7672 32.109 37.8389 31.9414 37.9796C31.8881 38.0201 31.8417 38.0752 31.8049 38.1414C31.7681 38.2076 31.7418 38.2835 31.7276 38.3642C31.7372 38.5267 31.7884 38.6795 31.8724 38.7957L31.9138 38.8614L31.5484 39.1804C31.4955 39.1393 31.4468 39.0888 31.4036 39.0303C31.3352 38.9581 31.2748 38.8728 31.2243 38.777L31.1278 38.6644ZM32.3619 38.4205C32.3655 38.4003 32.3722 38.3814 32.3818 38.3652C32.3913 38.349 32.4034 38.3358 32.4171 38.3267C32.4465 38.3171 32.4772 38.3171 32.5067 38.3267H32.5825L32.3757 38.5049L32.3619 38.4205ZM31.8517 39.3586L32.0724 39.171C32.0747 39.1896 32.0747 39.2086 32.0724 39.2273C32.0724 39.2273 32.0724 39.2929 32.0241 39.3305C31.9712 39.3686 31.9098 39.3786 31.8517 39.3586Z" fill="#E2AE39"/>
<path d="M35.1471 36.9038C35.2733 37.3537 35.2545 37.8374 35.094 38.2741C34.9335 38.7107 34.6409 39.0737 34.2651 39.3026C33.5197 39.7363 32.6846 39.9521 31.8407 39.9291C30.9967 39.906 30.1725 39.6449 29.4478 39.171C29.0768 38.9857 28.775 38.6669 28.5926 38.2677C28.4103 37.8685 28.3584 37.4129 28.4456 36.9769L35.1471 36.9038Z" fill="#E2AE39"/>
<path d="M29.4639 35.8422C30.2269 35.5126 31.0635 35.3595 31.9031 35.3959C32.7428 35.4323 33.5607 35.657 34.2878 36.0512C35.5887 36.8493 35.5345 38.0401 34.1726 38.7179C33.4105 39.0507 32.5734 39.2055 31.7331 39.1691C30.8929 39.1327 30.0746 38.9061 29.3487 38.5089C28.0478 37.7044 28.0953 36.5199 29.4639 35.8422Z" fill="#FFCE47"/>
<path d="M30.0983 35.8458C30.7766 35.5136 31.5214 35.3593 32.269 35.3959C33.0165 35.4326 33.7445 35.6592 34.3904 36.0563C35.5493 36.8082 35.4992 38.0411 34.2903 38.7253C33.6109 39.0545 32.866 39.2066 32.1188 39.1686C31.3716 39.1306 30.6441 38.9038 29.9981 38.5072C28.8464 37.7178 28.8893 36.5225 30.0983 35.8458Z" fill="#FFCE47"/>
<path d="M31.1278 37.1408L30.6797 37.5328C30.7903 37.7068 30.9263 37.8494 31.0796 37.9522L30.7969 38.1984L30.8589 38.2439L31.0244 38.3625L31.1071 38.4172L31.4105 38.1619C31.5722 38.249 31.7462 38.2894 31.9207 38.2804C32.1156 38.2793 32.3066 38.2067 32.4722 38.0707C32.5248 38.0358 32.5715 37.987 32.6095 37.9275C32.6474 37.8679 32.6758 37.7988 32.6928 37.7243C32.6973 37.6418 32.6892 37.559 32.6691 37.4807C32.6489 37.4024 32.6172 37.3302 32.5756 37.2684L32.5343 37.2137L32.8997 36.9037C32.9825 36.9812 33.0548 37.0768 33.1134 37.1863L33.1479 37.2684L33.7132 37.0313L33.7063 37.0587C33.6172 36.8859 33.4993 36.7424 33.3616 36.6393L33.596 36.4387L33.5271 36.3931L33.3754 36.229L33.2582 36.147L33.01 36.3567C32.8344 36.2797 32.6503 36.2427 32.4653 36.2473C32.2683 36.2491 32.0753 36.3215 31.9069 36.457C31.8531 36.4954 31.8062 36.5487 31.7694 36.6132C31.7325 36.6777 31.7065 36.7519 31.6932 36.8308C31.6996 36.9898 31.7513 37.1396 31.8379 37.2502L31.8793 37.314L31.5139 37.624C31.4624 37.5812 31.414 37.5324 31.3691 37.4781C31.3023 37.4056 31.2421 37.323 31.1899 37.2319L31.1278 37.1408ZM32.3619 36.8672C32.3655 36.8476 32.3722 36.8292 32.3818 36.8135C32.3913 36.7977 32.4034 36.7849 32.4171 36.7761C32.4461 36.7629 32.4777 36.7629 32.5067 36.7761H32.5825L32.3757 36.9493L32.3619 36.8672ZM31.8517 37.861L32.0724 37.6787C32.0747 37.6968 32.0747 37.7153 32.0724 37.7334C32.0724 37.7334 32.0724 37.7972 32.0241 37.8246C31.9991 37.8469 31.9707 37.8617 31.941 37.868C31.9112 37.8743 31.8807 37.8719 31.8517 37.861Z" fill="#E2AE39"/>
<path d="M33.6284 42.9575C33.7559 43.413 33.7374 43.9031 33.5761 44.3453C33.4148 44.7874 33.1206 45.1544 32.7431 45.3842C31.9922 45.8103 31.155 46.0157 30.3117 45.9806C29.4685 45.9455 28.6475 45.6712 27.9277 45.1839C27.562 44.9973 27.2638 44.6797 27.0812 44.2825C26.8987 43.8853 26.8425 43.4316 26.9217 42.9946L33.6284 42.9575Z" fill="#E2AE39"/>
<path d="M27.9287 41.8958C28.6915 41.5663 29.528 41.4132 30.3674 41.4496C31.2068 41.486 32.0245 41.7107 32.7515 42.1047C34.0656 42.9026 34.0249 44.0931 32.6702 44.777C31.9073 45.1071 31.0703 45.2599 30.2305 45.2225C29.3908 45.185 28.5732 44.9583 27.8474 44.5617C26.5333 43.7638 26.574 42.5733 27.9287 41.8958Z" fill="#FFCE47"/>
<path d="M27.8256 41.8996C28.504 41.5673 29.2488 41.413 29.9964 41.4496C30.7439 41.4863 31.4718 41.7129 32.1178 42.1101C33.2695 42.907 33.2266 44.0948 32.0176 44.779C31.3383 45.1082 30.5934 45.2603 29.8462 45.2223C29.0989 45.1844 28.3715 44.9575 27.7255 44.561C26.5666 43.7716 26.6167 42.5762 27.8256 41.8996Z" fill="#FFCE47"/>
<path d="M28.4782 41.7077L28.6431 41.5987L28.8081 41.5079H28.8906H28.9455H29.0211H29.0693L29.2755 41.4443H29.3098H29.4885H29.6672H29.7154H29.8734H30.0453H30.4852H30.6364H30.8151H31.0075H31.1931L31.4268 41.5079L31.5643 41.5533L31.7086 41.6169L31.8873 41.7077L32.066 41.8076L32.231 41.9256L32.3959 42.0618L32.5197 42.1708L32.6021 42.2616L32.6777 42.3524C32.7065 42.3875 32.7319 42.4271 32.7534 42.4705L32.7946 42.534C32.8112 42.5689 32.8296 42.6023 32.8496 42.6339C32.8679 42.662 32.884 42.6924 32.8977 42.7247L32.9527 42.87C32.9527 42.87 32.9527 42.9427 32.9527 42.9881C32.9558 43.0334 32.9558 43.079 32.9527 43.1243C32.956 43.1666 32.956 43.2092 32.9527 43.2514C32.9558 43.2907 32.9558 43.3302 32.9527 43.3695V43.5965C32.9315 43.5596 32.9131 43.52 32.8977 43.4784C32.8977 43.4784 32.8977 43.3967 32.8977 43.3604L32.8427 43.2151C32.8447 43.197 32.8447 43.1787 32.8427 43.1606C32.829 43.1283 32.8129 43.0979 32.7946 43.0698L32.7396 42.9608C32.7253 42.9374 32.7092 42.9161 32.6915 42.8973C32.6678 42.8535 32.6401 42.8139 32.609 42.7792L32.5334 42.6884L32.4509 42.5976L32.3272 42.4886L32.1622 42.3524C32.1073 42.3524 32.0523 42.2707 31.9973 42.2434L31.8186 42.1436L31.6399 42.0528L31.4955 41.9892H31.3581L31.1244 41.9165H30.9388H30.7532H30.712H30.5608H30.1278H29.9559H29.7978H29.7497H29.571L29.3923 41.9619L29.1861 42.0255H29.138H29.0624H29.0074H28.9249H28.8768L28.7118 42.1163L28.5469 42.2253C28.3161 42.3483 28.1149 42.5519 27.9648 42.8141C27.8147 43.0764 27.7213 43.3876 27.6946 43.7145C27.6684 43.547 27.6523 43.3769 27.6465 43.206C27.6782 42.8838 27.771 42.5775 27.9164 42.3155C28.0619 42.0535 28.2551 41.8444 28.4782 41.7077Z" fill="#E2AE39"/>
<path d="M28.8474 42.9006L28.4043 43.1599C28.5167 43.2722 28.6505 43.366 28.7997 43.4373L28.5202 43.6001H28.5884L28.7451 43.6785L28.8269 43.7146L29.1269 43.5458C29.2892 43.6033 29.4634 43.6301 29.6382 43.6242C29.8307 43.6219 30.019 43.574 30.1835 43.4855C30.2355 43.4624 30.2817 43.4302 30.3192 43.3908C30.3567 43.3514 30.3848 43.3057 30.4017 43.2564C30.4067 43.2022 30.3984 43.1477 30.3772 43.0967C30.356 43.0456 30.3225 42.9993 30.279 42.9609V42.9187L30.6402 42.7137C30.7202 42.7651 30.7894 42.8283 30.8448 42.9006L30.8857 42.9549L31.4378 42.7981V42.7559C31.3489 42.64 31.2296 42.5448 31.0902 42.4785L31.3288 42.3459L31.2606 42.3157L31.0765 42.2373L30.9947 42.2012L30.7493 42.3399C30.5756 42.2894 30.3936 42.2649 30.2108 42.2675C30.0158 42.2678 29.8247 42.3158 29.6586 42.4062C29.6036 42.4295 29.5558 42.4641 29.519 42.5071C29.4822 42.5501 29.4576 42.6003 29.4473 42.6534C29.4537 42.7573 29.5021 42.8558 29.5836 42.9308L29.6313 42.973L29.2632 43.178C29.2142 43.15 29.1685 43.1177 29.1269 43.0815C29.0575 43.0368 28.9976 42.9817 28.9497 42.9187L28.8474 42.9006ZM30.0676 42.7197C30.0676 42.7197 30.0676 42.6775 30.1153 42.6594C30.1467 42.6525 30.1794 42.6525 30.2108 42.6594H30.279L30.0744 42.774C30.067 42.7567 30.0646 42.738 30.0676 42.7197ZM29.5632 43.377L29.7745 43.2564C29.7787 43.2682 29.7787 43.2808 29.7745 43.2926C29.7745 43.2926 29.7745 43.3348 29.72 43.3529C29.6975 43.367 29.6718 43.3765 29.6447 43.3807C29.6175 43.3849 29.5897 43.3836 29.5632 43.377Z" fill="#E2AE39"/>
<path d="M33.6293 42.2012C33.7558 42.5397 33.737 42.9036 33.576 43.2321C33.415 43.5606 33.1216 43.8338 32.7447 44.006C31.999 44.3285 31.1649 44.4883 30.3224 44.47C29.4798 44.4517 28.6572 44.2559 27.9333 43.9014C27.5612 43.762 27.2585 43.5222 27.0756 43.2218C26.8927 42.9215 26.8407 42.5787 26.9281 42.2507L33.6293 42.2012Z" fill="#E2AE39"/>
<path d="M27.9342 40.472C28.6985 40.0758 29.537 39.8923 30.3782 39.9373C31.2194 39.9823 32.0385 40.2544 32.7656 40.7303C34.0684 41.6803 34.0209 43.1166 32.657 43.9298C31.8927 44.326 31.0542 44.5094 30.213 44.4644C29.3718 44.4194 28.5527 44.1474 27.8256 43.6714C26.5364 42.7062 26.5771 41.2851 27.9342 40.472Z" fill="#FFCE47"/>
<path d="M27.8256 41.0493C28.5044 40.7851 29.249 40.6624 29.9962 40.6917C30.7434 40.7211 31.4712 40.9015 32.1178 41.2177C33.2695 41.8552 33.2266 42.8114 32.0176 43.3526C31.3388 43.6168 30.5942 43.7395 29.847 43.7102C29.0998 43.6809 28.372 43.5004 27.7255 43.1842C26.5666 42.5468 26.6167 41.5906 27.8256 41.0493Z" fill="#FFBD59"/>
<path d="M28.3205 40.851L28.4873 40.7844L28.654 40.7299H28.7374H28.793H28.8694H28.9181L29.1265 40.6875H29.1613H29.3419H29.5226H29.5712H29.731H30.3703H30.5232H30.683H30.8776H31.0652L31.3014 40.7359H31.4404L31.5863 40.7723L31.767 40.8267L31.9476 40.8933L32.1144 40.966L32.2812 41.0507L32.4062 41.1234L32.4896 41.1839L32.566 41.2384L32.6425 41.3111L32.6842 41.3474C32.7044 41.3684 32.723 41.3907 32.7398 41.414L32.7884 41.4806C32.8096 41.5095 32.8282 41.5399 32.844 41.5714C32.844 41.5714 32.844 41.6259 32.844 41.6501C32.844 41.6743 32.844 41.6501 32.844 41.6501C32.8471 41.6803 32.8471 41.7107 32.844 41.7409C32.8474 41.7711 32.8474 41.8015 32.844 41.8317C32.8474 41.8558 32.8474 41.8802 32.844 41.9043V42.0617C32.8231 42.0347 32.8045 42.0064 32.7884 41.977C32.7884 41.977 32.7884 41.9285 32.7884 41.8983C32.7726 41.8668 32.754 41.8364 32.7328 41.8075C32.7364 41.7935 32.7364 41.779 32.7328 41.7651L32.6842 41.6985L32.9552 41.8256C32.9407 41.81 32.9244 41.7958 32.9065 41.7833L32.8301 41.7106L32.7537 41.6561L32.6703 41.5956L32.5452 41.5169L32.3784 41.4321L32.0727 41.2202L31.892 41.1476L31.7114 41.0931L31.5655 41.0568H31.4265L31.1902 41.0144H31.0026H30.815H30.7733H30.6205H29.9812H29.8214H29.7727H29.5921L29.4114 41.0447L29.203 41.0871H29.1543H29.0779H29.0223H28.9389H28.8903L28.7235 41.1415L28.5567 41.2081C28.3234 41.2902 28.12 41.4258 27.9683 41.6007C27.8165 41.7756 27.7221 41.983 27.6951 42.201C27.669 42.0913 27.6527 41.9799 27.6465 41.868C27.6584 41.6641 27.7257 41.4656 27.8429 41.2887C27.9601 41.1119 28.1237 40.9619 28.3205 40.851Z" fill="#E2AE39"/>
<path d="M28.8474 42.1076L28.4043 42.3669C28.5162 42.4812 28.6501 42.5771 28.7997 42.6503L28.5202 42.8071L28.5884 42.8372L28.7451 42.9156L28.8269 42.9578L29.1269 42.789C29.291 42.8407 29.4639 42.8672 29.6382 42.8674C29.8302 42.8621 30.0176 42.8144 30.1835 42.7287C30.2859 42.6789 30.3636 42.5972 30.4017 42.4995C30.4073 42.4444 30.3992 42.3889 30.378 42.3368C30.3568 42.2847 30.323 42.2374 30.279 42.1981V42.1558L30.6402 41.9569C30.7217 42.0066 30.7912 42.0702 30.8448 42.1438L30.8857 42.192L31.4378 42.0353V41.9991C31.3494 41.8813 31.2301 41.7841 31.0902 41.7157L31.3288 41.583L31.2606 41.5529L31.0765 41.4745L30.9538 41.4443L30.7084 41.583C30.5345 41.534 30.3523 41.5116 30.1699 41.5167C29.9744 41.514 29.7824 41.5622 29.6177 41.6554C29.5632 41.6777 29.5156 41.7112 29.4788 41.7532C29.442 41.7952 29.4172 41.8443 29.4064 41.8966C29.4128 42.0005 29.4612 42.0989 29.5427 42.1739L29.5904 42.2161L29.2223 42.4272L29.086 42.3307C29.0198 42.2829 28.9603 42.2282 28.9088 42.1679L28.8474 42.1076ZM30.0676 41.9207C30.0676 41.9207 30.0676 41.8845 30.1153 41.8604H30.2108H30.279L30.0744 41.975C30.0649 41.9582 30.0625 41.9389 30.0676 41.9207ZM29.5632 42.5779L29.7745 42.4573C29.7797 42.471 29.7797 42.4858 29.7745 42.4995C29.7745 42.4995 29.7745 42.5418 29.72 42.5598C29.6721 42.583 29.6162 42.5895 29.5632 42.5779Z" fill="#E2AE39"/>
<path d="M35.1471 35.3906C35.2733 35.8406 35.2545 36.3243 35.094 36.7609C34.9335 37.1975 34.6409 37.5606 34.2651 37.7894C33.5197 38.2232 32.6846 38.439 31.8407 38.4159C30.9967 38.3928 30.1725 38.1317 29.4478 37.6578C29.0768 37.4725 28.775 37.1537 28.5926 36.7545C28.4103 36.3553 28.3584 35.8998 28.4456 35.4638L35.1471 35.3906Z" fill="#E2AE39"/>
<path d="M29.4639 34.3284C30.227 33.998 31.0642 33.845 31.9041 33.8825C32.744 33.92 33.5618 34.1469 34.2878 34.5438C35.5887 35.3361 35.5345 36.5339 34.1726 37.212C33.409 37.5415 32.5715 37.6934 31.7316 37.6547C30.8916 37.6161 30.0741 37.3881 29.3487 36.9902C28.0478 36.2043 28.0953 35.0065 29.4639 34.3284Z" fill="#FFCE47"/>
<path d="M30.0991 34.3284C30.7784 33.9987 31.5237 33.8457 32.2715 33.8823C33.0194 33.9188 33.7478 34.1439 34.3949 34.5384C35.5548 35.3337 35.4903 36.5265 34.2946 37.2092C33.6153 37.5389 32.87 37.6919 32.1222 37.6553C31.3743 37.6188 30.6459 37.3937 29.9988 36.9992C28.8461 36.1964 28.8891 35.0036 30.0991 34.3284Z" fill="#FFCE47"/>
<path d="M31.1238 35.6133L30.6797 36.0069C30.7886 36.1849 30.9234 36.3313 31.076 36.4371L30.8232 36.6751L30.8847 36.7209L31.0486 36.8399L31.1306 36.904L31.4312 36.6477C31.5934 36.7263 31.7644 36.7665 31.9368 36.7667C32.1296 36.7611 32.3179 36.6885 32.4834 36.5561C32.586 36.4806 32.6639 36.3566 32.702 36.2083C32.7072 36.1254 32.6996 36.0419 32.6796 35.9632C32.6596 35.8844 32.6277 35.8121 32.5859 35.7506L32.5449 35.7597L32.907 35.4577C32.9906 35.533 33.0626 35.6294 33.1188 35.7414L33.153 35.8147L33.7132 35.5858L33.6791 35.5217C33.5912 35.3453 33.4743 35.1981 33.3374 35.0915L33.5697 34.8901H33.5014L33.3511 34.6887L33.2691 34.6338L33.0232 34.8443C32.8488 34.77 32.6663 34.7359 32.4834 34.7436C32.2877 34.7411 32.0955 34.8142 31.93 34.9542C31.8769 34.9909 31.8305 35.0426 31.7939 35.1059C31.7573 35.1691 31.7315 35.2423 31.7182 35.3203C31.7276 35.4789 31.7784 35.628 31.8617 35.7414L31.9027 35.8055L31.5406 36.1259L31.3971 35.9794C31.3325 35.9043 31.273 35.8216 31.2194 35.7323L31.1238 35.6133ZM32.3468 35.3295C32.3578 35.2924 32.3768 35.2605 32.4014 35.238C32.4306 35.2286 32.461 35.2286 32.4902 35.238H32.5654L32.3604 35.4119C32.3491 35.3873 32.3442 35.3582 32.3468 35.3295ZM31.8412 36.3273L32.0598 36.1442C32.0626 36.1654 32.0626 36.1871 32.0598 36.2083C32.0598 36.2083 32.0598 36.2724 32.012 36.2998C31.9596 36.3371 31.8987 36.3468 31.8412 36.3273Z" fill="#E2AE39"/>
<path d="M35.1471 33.877C35.2733 34.3271 35.2545 34.811 35.094 35.2478C34.9335 35.6846 34.6409 36.0478 34.2651 36.2767C33.5195 36.711 32.6839 36.9264 31.8397 36.902C30.9955 36.8777 30.1715 36.6144 29.4478 36.1377C29.0768 35.9524 28.775 35.6335 28.5926 35.2341C28.4103 34.8347 28.3584 34.379 28.4456 33.9428L35.1471 33.877Z" fill="#E2AE39"/>
<path d="M29.4626 32.8174C30.2249 32.485 31.0611 32.3311 31.9001 32.3689C32.739 32.4066 33.5559 32.6348 34.281 33.0341C35.6007 33.831 35.5263 35.055 34.166 35.6925C33.4039 36.0242 32.5682 36.1783 31.7295 36.1417C30.8909 36.1051 30.0739 35.8788 29.3476 35.4821C28.0482 34.7043 28.0956 33.4995 29.4626 32.8174Z" fill="#FFCE47"/>
<path d="M30.0983 32.8131C30.7775 32.4844 31.5218 32.332 32.2687 32.3686C33.0156 32.4053 33.7432 32.6299 34.3904 33.0237C35.5493 33.8211 35.4992 35.0173 34.2903 35.6943C33.6115 36.0249 32.8669 36.1783 32.1197 36.1416C31.3724 36.105 30.6447 35.8793 29.9981 35.4837C28.8464 34.6863 28.8893 33.4901 30.0983 32.8131Z" fill="#FFBD59"/>
<path d="M31.1278 33.7696L30.6797 34.0331C30.7896 34.1522 30.9256 34.2502 31.0796 34.3211L30.7969 34.4804L30.8589 34.511L31.0244 34.5907L31.1071 34.6336L31.4105 34.462C31.5741 34.5146 31.7467 34.5416 31.9207 34.5417C32.1152 34.5379 32.3052 34.4894 32.4722 34.4007C32.5771 34.3516 32.6562 34.2681 32.6928 34.1679C32.6977 34.1124 32.6898 34.0567 32.6696 34.004C32.6495 33.9514 32.6175 33.9029 32.5756 33.8615L32.5343 33.8186L32.8997 33.6164C32.9841 33.6669 33.0567 33.7314 33.1134 33.8064L33.1479 33.8554L33.7132 33.7022L33.6787 33.6593C33.59 33.5412 33.4721 33.4427 33.334 33.3713L33.5684 33.2365L33.4995 33.2059L33.3754 33.1508L33.2927 33.1201L33.0445 33.2549C32.8685 33.2051 32.6843 33.1824 32.4998 33.1875C32.3027 33.1887 32.1097 33.2374 31.9414 33.3284C31.8878 33.353 31.8409 33.3877 31.804 33.43C31.7671 33.4723 31.741 33.5213 31.7276 33.5735C31.7372 33.6797 31.7884 33.7795 31.8724 33.8554L31.9138 33.9044L31.5484 34.1128L31.4036 34.0147C31.3384 33.9644 31.2784 33.9091 31.2243 33.8493L31.1278 33.7696ZM32.3619 33.5797C32.3715 33.5556 32.3913 33.5358 32.4171 33.5245C32.4461 33.5157 32.4777 33.5157 32.5067 33.5245H32.5825L32.3757 33.6409C32.3626 33.6228 32.3577 33.6009 32.3619 33.5797ZM31.8517 34.2476L32.0724 34.125C32.0752 34.1392 32.0752 34.1537 32.0724 34.1679C32.0724 34.1679 32.0724 34.2108 32.0241 34.2292C31.9712 34.2541 31.9098 34.2606 31.8517 34.2476Z" fill="#E2AE39"/>
<path d="M40.5391 16.4722L43.9748 18.4614V35.9229L40.5587 34.0449L40.5391 16.4722Z" fill="#A7BD51"/>
<path d="M43.5726 12.5459L39.477 10.418L22.3379 19.7585L26.1787 21.7979L43.5726 12.5459Z" fill="#BFEA14"/>
<path d="M21.6133 21.5146L25.3782 23.9346L25.4052 46.7412L21.647 44.5756L21.6133 21.5146Z" fill="#A7BD51"/>
<path d="M25.3457 46.7586L26.338 46.0769L26.338 23.003C26.3385 22.8902 26.3687 22.7795 26.4257 22.6824C26.4827 22.5854 26.5642 22.5054 26.662 22.4508L43.0452 13.0363C43.1396 12.9829 43.2462 12.9553 43.3544 12.9562C43.4626 12.9572 43.5687 12.9866 43.6622 13.0418C43.7556 13.0969 43.8332 13.1757 43.8872 13.2704C43.9412 13.3651 43.9698 13.4724 43.97 13.5817V35.8942L45.0501 35.2875V13.3567C45.0492 13.1083 44.9846 12.8644 44.8626 12.6487C44.7406 12.433 44.85 12.1231 44.6387 11.9961C44.4273 11.8691 44.1574 11.9577 43.9115 11.9524C43.6224 11.9961 43.2258 12.18 43.0092 12.2977L26.1044 21.775C25.8785 21.8969 25.8397 22.0361 25.7088 22.2584C25.5779 22.4807 25.3438 23.1356 25.3457 23.3943L25.3457 46.7586Z" fill="#BFEA14"/>
<path d="M26.1284 21.7812C25.9293 22.0201 25.7544 22.2851 25.6075 22.5708C25.4363 23.0341 25.3532 23.5352 25.3639 24.0396L21.5887 21.5443C21.5647 21.3135 21.5817 21.0793 21.6387 20.8565C21.6958 20.6336 21.7916 20.4269 21.9202 20.2493C22.1213 19.9299 22.1165 19.8823 22.4219 19.7091L26.1284 21.7812Z" fill="#BFEA14"/>
<path d="M44.5132 11.9375L40.9458 10.5617C40.6866 10.4284 40.4105 10.3341 40.1258 10.2817C39.8818 10.2903 39.7337 10.305 39.4766 10.4156L43.059 12.2825C43.3295 12.1498 43.8305 11.9861 43.8305 11.9861C43.8305 11.9861 44.2162 11.8755 44.5132 11.9375Z" fill="#BFEA14"/>
<path d="M25.3768 23.7746L25.4115 29.8706L33.4272 34.3638C33.7452 34.5408 34.1024 34.6337 34.4655 34.6337C34.8285 34.6337 35.1857 34.5408 35.5038 34.3638L53.1065 24.1456C53.1861 24.0997 53.2551 24.0371 53.3088 23.9621C53.3626 23.8871 53.3999 23.8013 53.4182 23.7105C53.4366 23.6198 53.4355 23.5261 53.4152 23.4358C53.3949 23.3454 53.3557 23.2605 53.3003 23.1867L45.4923 12.6326C45.2399 12.3158 44.9074 12.0739 44.5301 11.9327C44.0267 11.919 43.5283 12.0372 43.0834 12.2756L26.1729 21.773C25.9302 21.9856 25.7384 22.2513 25.6122 22.5498C25.429 22.9302 25.3478 23.3526 25.3768 23.7746Z" fill="#BFEA14"/>
<path d="M27.318 23.6116C26.3896 22.436 25.6968 22.3455 25.5859 22.7281C25.5376 22.8353 25.5005 22.9472 25.475 23.062C25.375 23.4714 25.3469 23.8951 25.3919 24.3142L25.4265 30.1157L33.4495 34.3869C33.8761 34.607 34.3622 34.6826 34.8352 34.6026L34.9114 34.5608C34.9894 34.519 35.0573 34.4604 35.1102 34.3893C35.1631 34.3182 35.1998 34.2362 35.2177 34.1492C35.2355 34.0623 35.2341 33.9724 35.2135 33.8861C35.1929 33.7997 35.1536 33.719 35.0984 33.6496L27.318 23.6116Z" fill="#87922F"/>
<path d="M38.2896 32.7836L28.4043 20.4793L31.4811 18.7988L41.3591 30.95L38.2896 32.7836Z" fill="#87922F"/>
<path d="M43.6528 29.6543L33.8887 17.4019L36.9277 15.7285L46.6847 27.8285L43.6528 29.6543Z" fill="#87922F"/>
<path d="M49.2134 26.4495L39.4004 14.3421L42.4547 12.6885L52.2605 24.6452L49.2134 26.4495Z" fill="#87922F"/>
</svg>
