<svg width="70" height="69" viewBox="0 0 70 69" fill="none" xmlns="http://www.w3.org/2000/svg">
<path d="M34.7969 68.9961C53.8507 68.9961 69.2969 53.7738 69.2969 34.9961C69.2969 16.2184 53.8507 0.996094 34.7969 0.996094C15.743 0.996094 0.296875 16.2184 0.296875 34.9961C0.296875 53.7738 15.743 68.9961 34.7969 68.9961Z" fill="#3E3E45"/>
<path d="M60.8087 6.37617C60.4332 6.1884 58.6494 5.29652 58.227 5.10875C57.8514 4.92099 57.3351 4.96793 56.7249 5.24958L21.2842 24.2138C20.1107 24.8241 19.1719 26.2323 19.1719 27.4058V52.6602C19.1719 53.1766 19.3596 53.5521 19.6882 53.7868C20.0638 54.0215 21.9414 54.8665 22.2231 55.0542C22.5986 55.2889 23.1619 55.2889 23.8191 54.9604L59.3066 36.043C60.4802 35.4328 61.419 34.0246 61.419 32.851V7.5497C61.419 6.9864 61.1843 6.56393 60.8087 6.37617Z" fill="#E8FF8A"/>
<path d="M58.2289 5.10875C57.8533 4.92099 57.337 4.96793 56.7267 5.24958L21.2861 24.2138C20.2065 24.7771 19.3146 26.0915 19.2207 27.2181C19.2676 27.6405 19.4554 27.9691 19.7371 28.1569C20.1126 28.3916 21.9902 29.2365 22.2719 29.4243C22.6474 29.659 23.2107 29.659 23.8679 29.3304L59.3555 10.4131C60.4351 9.84982 61.327 8.53546 61.4209 7.40887C61.3739 6.93946 61.1862 6.56393 60.8106 6.42311C60.4351 6.23534 58.6044 5.29652 58.2289 5.10875Z" fill="#E2FF6F"/>
<path d="M59.3031 36.0904L23.8155 55.0077C22.6419 55.618 21.7031 55.1486 21.7031 54.022V28.7676C21.7031 27.5941 22.6419 26.1858 23.8155 25.5756L59.3031 6.65827C60.4766 6.04804 61.4154 6.51745 61.4154 7.64404V32.8984C61.4154 34.072 60.4766 35.4802 59.3031 36.0904Z" fill="#AAC542"/>
<path d="M37.7593 36.7009L28.0425 41.7705C27.4792 42.0522 27.0098 41.8644 27.0098 41.2542V29.8005C27.0098 29.2372 27.4792 28.4862 28.0425 28.2045L37.7124 23.1349C38.2757 22.8532 38.7451 23.041 38.7451 23.6512V35.1049C38.792 35.7151 38.3226 36.4192 37.7593 36.7009Z" fill="white"/>
<path d="M38.792 35.4804C37.8063 33.0864 35.5061 32.2414 32.8305 33.6497C30.2957 35.011 28.0894 38.0152 27.0098 41.2541V41.6766C27.0098 42.0521 27.3384 42.193 27.7139 42.0052L38.1348 36.5131C38.5104 36.3253 38.792 35.8559 38.792 35.4804Z" fill="#87922F"/>
<path d="M32.826 36.231C32.1219 36.6065 31.5586 36.3249 31.5586 35.6208V33.9309C31.5586 33.2268 32.1219 32.3349 32.826 31.9594C33.5301 31.5838 34.0934 31.8655 34.0934 32.5696V34.2595C34.0934 34.9636 33.5301 35.8555 32.826 36.231Z" fill="#E5B641"/>
<path d="M35.0628 31.9574C36.063 29.8781 35.8701 27.7096 34.6318 27.1139C33.3935 26.5183 31.5789 27.7211 30.5786 29.8004C29.5784 31.8798 29.7714 34.0483 31.0097 34.6439C32.2479 35.2396 34.0626 34.0368 35.0628 31.9574Z" fill="#FFCE47"/>
<path d="M32.8297 27.2653C31.7032 27.8286 30.7643 29.096 30.2949 30.5043C30.4357 30.5512 30.5766 30.5512 30.7174 30.5043C31.8909 30.3165 32.7828 28.5797 33.7216 28.5327C34.3788 28.4858 34.1441 29.3307 34.989 29.5655C35.1768 29.6124 35.4585 29.6124 35.7401 29.6124C35.7401 29.5185 35.7401 29.4716 35.7401 29.3777C35.7401 27.3592 34.4258 26.4204 32.8297 27.2653Z" fill="black"/>
<path d="M61.4173 31.584L21.752 52.7076V48.8584L61.4173 27.7349V31.584Z" fill="#87922F"/>
<path d="M55.8775 13.6054L43.9074 20.1772C43.438 20.4119 43.0625 21.0222 43.0625 21.4916C43.0625 21.961 43.438 22.1487 43.9074 21.914L55.8775 15.3423C56.3469 15.1076 56.7224 14.4973 56.7224 14.0279C56.7224 13.5116 56.3469 13.3238 55.8775 13.6054Z" fill="#87922F"/>
<path d="M55.8775 17.5488L43.9074 24.1206C43.438 24.3553 43.0625 24.9655 43.0625 25.4349C43.0625 25.9043 43.438 26.0921 43.9074 25.8574L55.8775 19.2856C56.3469 19.0509 56.7224 18.4407 56.7224 17.9713C56.7224 17.5019 56.3469 17.3141 55.8775 17.5488Z" fill="#87922F"/>
<path d="M55.8775 21.5385L43.9074 28.1103C43.438 28.345 43.0625 28.9553 43.0625 29.4247C43.0625 29.8941 43.438 30.0818 43.9074 29.8471L55.8775 23.2754C56.3469 23.0407 56.7224 22.4304 56.7224 21.961C56.7224 21.4916 56.3469 21.3038 55.8775 21.5385Z" fill="#87922F"/>
<path d="M55.8775 25.5288L43.9074 32.1006C43.438 32.3353 43.0625 32.9455 43.0625 33.4149C43.0625 33.8843 43.438 34.0721 43.9074 33.8374L49.8925 30.5515L55.8775 27.2656C56.3469 27.0309 56.7224 26.4207 56.7224 25.9512C56.7224 25.4818 56.3469 25.2941 55.8775 25.5288Z" fill="#87922F"/>
</svg>
