<svg width="336" height="98" viewBox="0 0 336 98" fill="none" xmlns="http://www.w3.org/2000/svg">
<g clip-path="url(#clip0_16_2)">
<rect width="336" height="98" fill="url(#paint0_linear_16_2)"/>
<g opacity="0.37" clip-path="url(#clip1_16_2)">
<path d="M7.75231 58L2.81777 58C2.40199 58 2.06494 57.6431 2.06494 57.2028L2.06494 51.9777C2.06494 51.5375 2.40199 51.1806 2.81777 51.1806L7.75231 51.1806C8.16809 51.1806 8.50514 51.5375 8.50514 51.9777L8.50514 57.2028C8.50514 57.6431 8.16809 58 7.75231 58Z" fill="#666666" fill-opacity="0.52"/>
<path d="M16.7862 58L11.8516 58C11.4359 58 11.0988 57.6431 11.0988 57.2028L11.0988 51.9777C11.0988 51.5375 11.4359 51.1806 11.8516 51.1806L16.7862 51.1806C17.202 51.1806 17.539 51.5375 17.539 51.9777L17.539 57.2028C17.539 57.6431 17.202 58 16.7862 58Z" fill="#666666" fill-opacity="0.52"/>
<path d="M20.9062 41.6801L25.8407 41.6801C26.2565 41.6801 26.5936 42.037 26.5936 42.4772L26.5936 47.7024C26.5936 48.1426 26.2565 48.4995 25.8407 48.4995L20.9062 48.4995C20.4904 48.4995 20.1534 48.1426 20.1534 47.7024L20.1534 42.4772C20.1534 42.037 20.4904 41.6801 20.9062 41.6801Z" fill="#666666" fill-opacity="0.52"/>
<path d="M34.8776 58L29.9431 58C29.5273 58 29.1902 57.6431 29.1902 57.2028L29.1902 51.9777C29.1902 51.5375 29.5273 51.1806 29.9431 51.1806L34.8776 51.1806C35.2934 51.1806 35.6304 51.5375 35.6304 51.9777L35.6305 57.2028C35.6305 57.6431 35.2934 58 34.8776 58Z" fill="#666666" fill-opacity="0.52"/>
<path d="M29.9431 41.6801L34.8776 41.6801C35.2934 41.6801 35.6304 42.037 35.6304 42.4772L35.6304 47.7024C35.6304 48.1426 35.2934 48.4995 34.8776 48.4995L29.9431 48.4995C29.5273 48.4995 29.1902 48.1426 29.1902 47.7024L29.1902 42.4772C29.1902 42.037 29.5273 41.6801 29.9431 41.6801Z" fill="#666666" fill-opacity="0.52"/>
<path d="M2.81482 41.6801L7.74937 41.6801C8.16514 41.6801 8.5022 42.037 8.5022 42.4772L8.5022 47.7024C8.5022 48.1426 8.16515 48.4995 7.74937 48.4995L2.81483 48.4995C2.39905 48.4995 2.062 48.1426 2.062 47.7024L2.062 42.4772C2.062 42.037 2.39905 41.6801 2.81482 41.6801Z" fill="#666666" fill-opacity="0.52"/>
<path d="M7.75225 38.9959L2.81771 38.9959C2.40193 38.9959 2.06488 38.639 2.06488 38.1988L2.06488 32.9736C2.06488 32.5334 2.40193 32.1765 2.81771 32.1765L7.75225 32.1765C8.16803 32.1765 8.50508 32.5334 8.50508 32.9736L8.50508 38.1988C8.50508 38.639 8.16803 38.9959 7.75225 38.9959Z" fill="#666666" fill-opacity="0.52"/>
<path d="M16.7862 38.9959L11.8516 38.9959C11.4359 38.9959 11.0988 38.639 11.0988 38.1988L11.0988 32.9736C11.0988 32.5334 11.4359 32.1765 11.8516 32.1765L16.7862 32.1765C17.202 32.1765 17.539 32.5334 17.539 32.9736L17.539 38.1988C17.539 38.639 17.202 38.9959 16.7862 38.9959Z" fill="#666666" fill-opacity="0.52"/>
<path d="M34.8776 38.9959L29.9431 38.9959C29.5273 38.9959 29.1902 38.639 29.1902 38.1988L29.1902 32.9736C29.1902 32.5334 29.5273 32.1765 29.9431 32.1765L34.8776 32.1765C35.2934 32.1765 35.6304 32.5334 35.6304 32.9736L35.6305 38.1988C35.6305 38.639 35.2934 38.9959 34.8776 38.9959Z" fill="#666666" fill-opacity="0.52"/>
<path d="M20.9062 22.676L25.8407 22.676C26.2565 22.676 26.5936 23.0329 26.5936 23.4732L26.5936 28.6983C26.5936 29.1385 26.2565 29.4954 25.8407 29.4954L20.9062 29.4954C20.4904 29.4954 20.1534 29.1385 20.1534 28.6983L20.1534 23.4732C20.1534 23.0329 20.4904 22.676 20.9062 22.676Z" fill="#666666" fill-opacity="0.52"/>
<path d="M11.8516 22.676L16.7862 22.676C17.2019 22.676 17.539 23.0329 17.539 23.4732L17.539 28.6983C17.539 29.1385 17.202 29.4954 16.7862 29.4954L11.8516 29.4954C11.4359 29.4954 11.0988 29.1385 11.0988 28.6983L11.0988 23.4732C11.0988 23.0329 11.4359 22.676 11.8516 22.676Z" fill="#666666" fill-opacity="0.52"/>
<path d="M7.75225 19.9918L2.81771 19.9918C2.40193 19.9918 2.06488 19.6349 2.06488 19.1947L2.06488 13.9696C2.06488 13.5293 2.40193 13.1724 2.81771 13.1724L7.75225 13.1724C8.16803 13.1724 8.50508 13.5293 8.50508 13.9696L8.50508 19.1947C8.50508 19.6349 8.16803 19.9918 7.75225 19.9918Z" fill="#666666" fill-opacity="0.52"/>
<path d="M16.7862 19.9918L11.8516 19.9918C11.4359 19.9918 11.0988 19.6349 11.0988 19.1947L11.0988 13.9696C11.0988 13.5293 11.4359 13.1724 11.8516 13.1724L16.7862 13.1724C17.202 13.1724 17.539 13.5293 17.539 13.9696L17.539 19.1947C17.539 19.6349 17.202 19.9918 16.7862 19.9918Z" fill="#666666" fill-opacity="0.52"/>
<path d="M25.8436 19.9918L20.9091 19.9918C20.4933 19.9918 20.1562 19.6349 20.1562 19.1947L20.1562 13.9696C20.1562 13.5293 20.4933 13.1724 20.9091 13.1724L25.8436 13.1724C26.2594 13.1724 26.5965 13.5293 26.5965 13.9696L26.5965 19.1947C26.5965 19.6349 26.2594 19.9918 25.8436 19.9918Z" fill="#666666" fill-opacity="0.52"/>
<path d="M34.8776 19.9918L29.943 19.9918C29.5272 19.9918 29.1902 19.6349 29.1902 19.1947L29.1902 13.9696C29.1902 13.5293 29.5272 13.1724 29.943 13.1724L34.8776 13.1724C35.2933 13.1724 35.6304 13.5293 35.6304 13.9696L35.6304 19.1947C35.6304 19.6349 35.2933 19.9918 34.8776 19.9918Z" fill="#666666" fill-opacity="0.52"/>
<path d="M11.8516 3.66879L16.7862 3.66879C17.202 3.66879 17.539 4.02569 17.539 4.46595L17.539 9.69106C17.539 10.1313 17.202 10.4882 16.7862 10.4882L11.8516 10.4882C11.4359 10.4882 11.0988 10.1313 11.0988 9.69106L11.0988 4.46595C11.0988 4.02569 11.4359 3.66879 11.8516 3.66879Z" fill="#666666" fill-opacity="0.52"/>
<path d="M2.81476 3.66879L7.74931 3.66879C8.16508 3.66879 8.50214 4.02569 8.50214 4.46595L8.50214 9.69106C8.50214 10.1313 8.16508 10.4882 7.74931 10.4882L2.81476 10.4882C2.39899 10.4882 2.06194 10.1313 2.06194 9.69106L2.06194 4.46595C2.06194 4.02569 2.39899 3.66879 2.81476 3.66879Z" fill="#666666" fill-opacity="0.52"/>
<path d="M29.9431 3.66879L34.8776 3.66879C35.2934 3.66879 35.6304 4.02569 35.6304 4.46595L35.6304 9.69106C35.6304 10.1313 35.2934 10.4882 34.8776 10.4882L29.9431 10.4882C29.5273 10.4882 29.1902 10.1313 29.1902 9.69106L29.1902 4.46595C29.1902 4.02569 29.5273 3.66879 29.9431 3.66879Z" fill="#666666" fill-opacity="0.52"/>
<path d="M71.1927 58L66.2581 58C65.8424 58 65.5053 57.6431 65.5053 57.2028L65.5053 51.9777C65.5053 51.5374 65.8424 51.1805 66.2581 51.1805L71.1927 51.1805C71.6085 51.1805 71.9455 51.5374 71.9455 51.9777L71.9455 57.2028C71.9455 57.6431 71.6085 58 71.1927 58Z" fill="#666666" fill-opacity="0.52"/>
<path d="M80.2501 58L75.3156 58C74.8998 58 74.5627 57.6431 74.5627 57.2028L74.5627 51.9777C74.5627 51.5374 74.8998 51.1805 75.3156 51.1805L80.2501 51.1805C80.6659 51.1805 81.0029 51.5374 81.0029 51.9777L81.0029 57.2028C81.0029 57.6431 80.6659 58 80.2501 58Z" fill="#666666" fill-opacity="0.52"/>
<path d="M75.3126 41.6801L80.2472 41.6801C80.6629 41.6801 81 42.037 81 42.4772L81 47.7023C81 48.1426 80.6629 48.4995 80.2472 48.4995L75.3126 48.4995C74.8969 48.4995 74.5598 48.1426 74.5598 47.7023L74.5598 42.4772C74.5598 42.037 74.8969 41.6801 75.3126 41.6801Z" fill="#666666" fill-opacity="0.52"/>
<path d="M66.2581 41.6801L71.1927 41.6801C71.6084 41.6801 71.9455 42.037 71.9455 42.4772L71.9455 47.7024C71.9455 48.1426 71.6084 48.4995 71.1927 48.4995L66.2581 48.4995C65.8423 48.4995 65.5053 48.1426 65.5053 47.7024L65.5053 42.4772C65.5053 42.037 65.8423 41.6801 66.2581 41.6801Z" fill="#666666" fill-opacity="0.52"/>
<path d="M57.2242 41.6801L62.1587 41.6801C62.5745 41.6801 62.9116 42.037 62.9116 42.4772L62.9116 47.7024C62.9116 48.1426 62.5745 48.4995 62.1587 48.4995L57.2242 48.4995C56.8084 48.4995 56.4714 48.1426 56.4714 47.7024L56.4714 42.4772C56.4714 42.037 56.8084 41.6801 57.2242 41.6801Z" fill="#666666" fill-opacity="0.52"/>
<path d="M53.1307 41.6801L48.3314 41.6801C47.8433 41.6801 47.4433 42.1005 47.4433 42.6205L47.4433 47.5622C47.4433 48.0791 47.8403 48.5026 48.3314 48.5026L53.1307 48.5026C53.5454 48.5026 53.8835 48.1445 53.8835 47.7055L53.8835 42.4804C53.8835 42.0413 53.5454 41.6832 53.1307 41.6832L53.1307 41.6801Z" fill="#666666" fill-opacity="0.52"/>
<path d="M39.1593 41.6801L44.0938 41.6801C44.5096 41.6801 44.8467 42.037 44.8467 42.4772L44.8467 47.7024C44.8467 48.1426 44.5096 48.4995 44.0938 48.4995L39.1593 48.4995C38.7435 48.4995 38.4065 48.1426 38.4065 47.7024L38.4065 42.4772C38.4065 42.037 38.7435 41.6801 39.1593 41.6801Z" fill="#666666" fill-opacity="0.52"/>
<path d="M43.9586 38.9959L39.2946 38.9959C38.8041 38.9959 38.4065 38.5749 38.4065 38.0555L38.4065 33.1169C38.4065 32.5975 38.8041 32.1765 39.2946 32.1765L43.9586 32.1765C44.4491 32.1765 44.8467 32.5975 44.8467 33.1169L44.8467 38.0555C44.8467 38.5749 44.4491 38.9959 43.9586 38.9959Z" fill="#666666" fill-opacity="0.52"/>
<path d="M62.1558 38.9959L57.2213 38.9959C56.8055 38.9959 56.4684 38.639 56.4684 38.1988L56.4684 32.9736C56.4684 32.5334 56.8055 32.1765 57.2213 32.1765L62.1558 32.1765C62.5716 32.1765 62.9086 32.5334 62.9086 32.9736L62.9086 38.1988C62.9086 38.639 62.5716 38.9959 62.1558 38.9959Z" fill="#666666" fill-opacity="0.52"/>
<path d="M71.1927 38.9959L66.2581 38.9959C65.8424 38.9959 65.5053 38.639 65.5053 38.1988L65.5053 32.9736C65.5053 32.5334 65.8424 32.1765 66.2581 32.1765L71.1927 32.1765C71.6085 32.1765 71.9455 32.5334 71.9455 32.9736L71.9455 38.1988C71.9455 38.639 71.6085 38.9959 71.1927 38.9959Z" fill="#666666" fill-opacity="0.52"/>
<path d="M80.2501 38.9959L75.3156 38.9959C74.8998 38.9959 74.5627 38.639 74.5627 38.1987L74.5627 32.9736C74.5627 32.5334 74.8998 32.1765 75.3156 32.1765L80.2501 32.1765C80.6659 32.1765 81.0029 32.5334 81.0029 32.9736L81.0029 38.1987C81.0029 38.639 80.6659 38.9959 80.2501 38.9959Z" fill="#666666" fill-opacity="0.52"/>
<path d="M66.2581 22.676L71.1927 22.676C71.6084 22.676 71.9455 23.0329 71.9455 23.4731L71.9455 28.6982C71.9455 29.1385 71.6084 29.4954 71.1927 29.4954L66.2581 29.4954C65.8423 29.4954 65.5053 29.1385 65.5053 28.6982L65.5053 23.4731C65.5053 23.0329 65.8423 22.676 66.2581 22.676Z" fill="#666666" fill-opacity="0.52"/>
<path d="M57.2242 22.676L62.1587 22.676C62.5745 22.676 62.9116 23.0329 62.9116 23.4731L62.9116 28.6982C62.9116 29.1385 62.5745 29.4954 62.1587 29.4954L57.2242 29.4954C56.8084 29.4954 56.4714 29.1385 56.4714 28.6982L56.4714 23.4731C56.4714 23.0329 56.8084 22.676 57.2242 22.676Z" fill="#666666" fill-opacity="0.52"/>
<path d="M53.1307 22.676L48.3314 22.676C47.8433 22.676 47.4433 23.0963 47.4433 23.6164L47.4433 28.5581C47.4433 29.075 47.8403 29.4985 48.3314 29.4985L53.1307 29.4985C53.5454 29.4985 53.8835 29.1404 53.8835 28.7013L53.8835 23.4762C53.8835 23.0372 53.5454 22.6791 53.1307 22.6791L53.1307 22.676Z" fill="#666666" fill-opacity="0.52"/>
<path d="M39.1593 22.676L44.0938 22.676C44.5096 22.676 44.8467 23.0329 44.8467 23.4731L44.8467 28.6982C44.8467 29.1385 44.5096 29.4954 44.0938 29.4954L39.1593 29.4954C38.7435 29.4954 38.4065 29.1385 38.4065 28.6982L38.4065 23.4731C38.4065 23.0329 38.7435 22.676 39.1593 22.676Z" fill="#666666" fill-opacity="0.52"/>
<path d="M44.0939 19.9918L39.1593 19.9918C38.7436 19.9918 38.4065 19.6349 38.4065 19.1947L38.4065 13.9696C38.4065 13.5293 38.7435 13.1724 39.1593 13.1724L44.0939 13.1724C44.5096 13.1724 44.8467 13.5293 44.8467 13.9696L44.8467 19.1947C44.8467 19.6349 44.5096 19.9918 44.0939 19.9918Z" fill="#666666" fill-opacity="0.52"/>
<path d="M62.1558 19.9918L57.2213 19.9918C56.8055 19.9918 56.4684 19.6349 56.4684 19.1947L56.4684 13.9696C56.4684 13.5293 56.8055 13.1724 57.2213 13.1724L62.1558 13.1724C62.5716 13.1724 62.9086 13.5293 62.9086 13.9696L62.9086 19.1947C62.9086 19.6349 62.5716 19.9918 62.1558 19.9918Z" fill="#666666" fill-opacity="0.52"/>
<path d="M71.1927 19.9918L66.2581 19.9918C65.8424 19.9918 65.5053 19.6349 65.5053 19.1947L65.5053 13.9696C65.5053 13.5293 65.8424 13.1724 66.2581 13.1724L71.1927 13.1724C71.6085 13.1724 71.9455 13.5293 71.9455 13.9696L71.9455 19.1947C71.9455 19.6349 71.6085 19.9918 71.1927 19.9918Z" fill="#666666" fill-opacity="0.52"/>
<path d="M80.2501 19.9918L75.3156 19.9918C74.8998 19.9918 74.5627 19.6349 74.5627 19.1947L74.5627 13.9696C74.5627 13.5293 74.8998 13.1724 75.3156 13.1724L80.2501 13.1724C80.6659 13.1724 81.0029 13.5293 81.0029 13.9696L81.0029 19.1947C81.0029 19.6349 80.6659 19.9918 80.2501 19.9918Z" fill="#666666" fill-opacity="0.52"/>
<path d="M66.2581 3.66876L71.1927 3.66876C71.6084 3.66876 71.9455 4.02566 71.9455 4.46592L71.9455 9.69103C71.9455 10.1313 71.6084 10.4882 71.1927 10.4882L66.2581 10.4882C65.8423 10.4882 65.5053 10.1313 65.5053 9.69103L65.5053 4.46592C65.5053 4.02566 65.8423 3.66876 66.2581 3.66876Z" fill="#666666" fill-opacity="0.52"/>
<path d="M57.2242 3.66876L62.1587 3.66876C62.5745 3.66876 62.9116 4.02566 62.9116 4.46592L62.9116 9.69103C62.9116 10.1313 62.5745 10.4882 62.1587 10.4882L57.2242 10.4882C56.8084 10.4882 56.4714 10.1313 56.4714 9.69103L56.4714 4.46592C56.4714 4.02566 56.8084 3.66876 57.2242 3.66876Z" fill="#666666" fill-opacity="0.52"/>
<path d="M53.1307 3.66876L48.3314 3.66876C47.8433 3.66876 47.4433 4.08914 47.4433 4.60916L47.4433 9.55091C47.4433 10.0678 47.8403 10.4913 48.3314 10.4913L53.1307 10.4913C53.5454 10.4913 53.8835 10.1332 53.8835 9.69414L53.8835 4.46903C53.8835 4.02997 53.5454 3.67187 53.1307 3.67187L53.1307 3.66876Z" fill="#666666" fill-opacity="0.52"/>
<path d="M39.1593 3.66876L44.0938 3.66876C44.5096 3.66876 44.8467 4.02566 44.8467 4.46592L44.8467 9.69103C44.8467 10.1313 44.5096 10.4882 44.0938 10.4882L39.1593 10.4882C38.7435 10.4882 38.4065 10.1313 38.4065 9.69103L38.4065 4.46592C38.4065 4.02566 38.7435 3.66876 39.1593 3.66876Z" fill="#666666" fill-opacity="0.52"/>
<path d="M7.75225 1.32715L2.81771 1.32715C2.40193 1.32715 2.06488 0.97025 2.06488 0.529993L2.06488 -4.69512C2.06488 -5.13538 2.40193 -5.49228 2.81771 -5.49228L7.75225 -5.49228C8.16803 -5.49228 8.50508 -5.13538 8.50508 -4.69512L8.50508 0.529991C8.50508 0.970249 8.16803 1.32715 7.75225 1.32715Z" fill="#666666" fill-opacity="0.52"/>
<path d="M16.7862 1.32715L11.8516 1.32715C11.4359 1.32715 11.0988 0.97025 11.0988 0.529993L11.0988 -4.69512C11.0988 -5.13538 11.4359 -5.49228 11.8516 -5.49228L16.7862 -5.49228C17.202 -5.49228 17.539 -5.13538 17.539 -4.69512L17.539 0.529991C17.539 0.970249 17.202 1.32715 16.7862 1.32715Z" fill="#666666" fill-opacity="0.52"/>
<path d="M25.8436 1.32715L20.9091 1.32715C20.4933 1.32715 20.1562 0.97025 20.1562 0.529993L20.1562 -4.69512C20.1562 -5.13538 20.4933 -5.49228 20.9091 -5.49228L25.8436 -5.49228C26.2594 -5.49228 26.5965 -5.13538 26.5965 -4.69512L26.5965 0.529991C26.5965 0.970249 26.2594 1.32715 25.8436 1.32715Z" fill="#666666" fill-opacity="0.52"/>
<path d="M34.8776 1.32715L29.943 1.32715C29.5272 1.32715 29.1902 0.97025 29.1902 0.529993L29.1902 -4.69512C29.1902 -5.13538 29.5272 -5.49228 29.943 -5.49228L34.8776 -5.49228C35.2933 -5.49228 35.6304 -5.13538 35.6304 -4.69512L35.6304 0.529991C35.6304 0.970249 35.2933 1.32715 34.8776 1.32715Z" fill="#666666" fill-opacity="0.52"/>
<path d="M44.0939 1.32715L39.1593 1.32715C38.7436 1.32715 38.4065 0.97025 38.4065 0.529993L38.4065 -4.69512C38.4065 -5.13538 38.7435 -5.49228 39.1593 -5.49228L44.0939 -5.49228C44.5096 -5.49228 44.8467 -5.13538 44.8467 -4.69512L44.8467 0.529991C44.8467 0.970249 44.5096 1.32715 44.0939 1.32715Z" fill="#666666" fill-opacity="0.52"/>
<path d="M48.1932 1.32715L52.9925 1.32715C53.4806 1.32715 53.8806 0.90677 53.8806 0.38675L53.8806 -4.555C53.8806 -5.07191 53.4836 -5.4954 52.9925 -5.4954L48.1932 -5.49539C47.7786 -5.49539 47.4404 -5.1373 47.4404 -4.69824L47.4404 0.526875C47.4404 0.965934 47.7786 1.32404 48.1932 1.32404L48.1932 1.32715Z" fill="#666666" fill-opacity="0.52"/>
<path d="M62.1558 1.32715L57.2213 1.32715C56.8055 1.32715 56.4684 0.97025 56.4684 0.529993L56.4684 -4.69512C56.4684 -5.13538 56.8055 -5.49228 57.2213 -5.49228L62.1558 -5.49228C62.5716 -5.49228 62.9086 -5.13538 62.9086 -4.69512L62.9086 0.529991C62.9086 0.970249 62.5716 1.32715 62.1558 1.32715Z" fill="#666666" fill-opacity="0.52"/>
<path d="M71.1927 1.32715L66.2581 1.32715C65.8424 1.32715 65.5053 0.97025 65.5053 0.529993L65.5053 -4.69512C65.5053 -5.13538 65.8424 -5.49228 66.2581 -5.49228L71.1927 -5.49228C71.6085 -5.49228 71.9455 -5.13538 71.9455 -4.69512L71.9455 0.529991C71.9455 0.970249 71.6085 1.32715 71.1927 1.32715Z" fill="#666666" fill-opacity="0.52"/>
</g>
<g opacity="0.37" clip-path="url(#clip2_16_2)">
<path d="M290.852 94.6688L295.786 94.6688C296.202 94.6688 296.539 95.0257 296.539 95.4659L296.539 100.691C296.539 101.131 296.202 101.488 295.786 101.488L290.852 101.488C290.436 101.488 290.099 101.131 290.099 100.691L290.099 95.4659C290.099 95.0257 290.436 94.6688 290.852 94.6688Z" fill="#666666" fill-opacity="0.63"/>
<path d="M281.815 94.6688L286.749 94.6688C287.165 94.6688 287.502 95.0257 287.502 95.4659L287.502 100.691C287.502 101.131 287.165 101.488 286.749 101.488L281.815 101.488C281.399 101.488 281.062 101.131 281.062 100.691L281.062 95.4659C281.062 95.0257 281.399 94.6688 281.815 94.6688Z" fill="#666666" fill-opacity="0.63"/>
<path d="M308.943 94.6688L313.878 94.6688C314.293 94.6688 314.63 95.0257 314.63 95.4659L314.63 100.691C314.63 101.131 314.293 101.488 313.878 101.488L308.943 101.488C308.527 101.488 308.19 101.131 308.19 100.691L308.19 95.4659C308.19 95.0257 308.527 94.6688 308.943 94.6688Z" fill="#666666" fill-opacity="0.63"/>
<path d="M336.224 94.6688L341.159 94.6688C341.575 94.6688 341.912 95.0257 341.912 95.4659L341.912 100.691C341.912 101.131 341.575 101.488 341.159 101.488L336.224 101.488C335.808 101.488 335.471 101.131 335.471 100.691L335.471 95.4659C335.471 95.0257 335.808 94.6688 336.224 94.6688Z" fill="#666666" fill-opacity="0.63"/>
<path d="M332.131 94.6688L327.331 94.6688C326.843 94.6688 326.443 95.0891 326.443 95.6092L326.443 100.551C326.443 101.068 326.84 101.491 327.331 101.491L332.131 101.491C332.545 101.491 332.884 101.133 332.884 100.694L332.884 95.469C332.884 95.03 332.545 94.6719 332.131 94.6719L332.131 94.6688Z" fill="#666666" fill-opacity="0.63"/>
<path d="M318.159 94.6688L323.094 94.6688C323.51 94.6688 323.847 95.0257 323.847 95.4659L323.847 100.691C323.847 101.131 323.51 101.488 323.094 101.488L318.159 101.488C317.743 101.488 317.406 101.131 317.406 100.691L317.406 95.4659C317.406 95.0257 317.743 94.6688 318.159 94.6688Z" fill="#666666" fill-opacity="0.63"/>
<path d="M272.787 92.3271L277.586 92.3271C278.074 92.3271 278.474 91.9068 278.474 91.3867L278.474 86.445C278.474 85.9281 278.077 85.5046 277.586 85.5046L272.787 85.5046C272.372 85.5046 272.034 85.8627 272.034 86.3018L272.034 91.5269C272.034 91.9659 272.372 92.324 272.787 92.324L272.787 92.3271Z" fill="#666666" fill-opacity="0.63"/>
<path d="M286.752 92.3271L281.818 92.3271C281.402 92.3271 281.065 91.9703 281.065 91.53L281.065 86.3049C281.065 85.8646 281.402 85.5077 281.818 85.5077L286.752 85.5077C287.168 85.5077 287.505 85.8646 287.505 86.3049L287.505 91.53C287.505 91.9702 287.168 92.3271 286.752 92.3271Z" fill="#666666" fill-opacity="0.63"/>
<path d="M295.786 92.3271L290.852 92.3271C290.436 92.3271 290.099 91.9703 290.099 91.53L290.099 86.3049C290.099 85.8646 290.436 85.5077 290.852 85.5077L295.786 85.5077C296.202 85.5077 296.539 85.8646 296.539 86.3049L296.539 91.53C296.539 91.9702 296.202 92.3271 295.786 92.3271Z" fill="#666666" fill-opacity="0.63"/>
<path d="M304.844 92.3271L299.909 92.3271C299.493 92.3271 299.156 91.9703 299.156 91.53L299.156 86.3049C299.156 85.8646 299.493 85.5077 299.909 85.5077L304.844 85.5077C305.259 85.5077 305.596 85.8646 305.596 86.3049L305.596 91.53C305.596 91.9702 305.259 92.3271 304.844 92.3271Z" fill="#666666" fill-opacity="0.63"/>
<path d="M299.906 76.0072L304.841 76.0072C305.256 76.0072 305.594 76.3641 305.594 76.8044L305.594 82.0295C305.594 82.4698 305.256 82.8267 304.841 82.8267L299.906 82.8267C299.49 82.8267 299.153 82.4698 299.153 82.0295L299.153 76.8044C299.153 76.3641 299.49 76.0072 299.906 76.0072Z" fill="#666666" fill-opacity="0.63"/>
<path d="M313.878 92.3271L308.943 92.3271C308.527 92.3271 308.19 91.9703 308.19 91.53L308.19 86.3049C308.19 85.8646 308.527 85.5077 308.943 85.5077L313.878 85.5077C314.293 85.5077 314.63 85.8646 314.63 86.3049L314.63 91.53C314.63 91.9702 314.293 92.3271 313.878 92.3271Z" fill="#666666" fill-opacity="0.63"/>
<path d="M308.943 76.0072L313.878 76.0072C314.293 76.0072 314.63 76.3641 314.63 76.8044L314.63 82.0295C314.63 82.4698 314.293 82.8267 313.878 82.8267L308.943 82.8267C308.527 82.8267 308.19 82.4698 308.19 82.0295L308.19 76.8044C308.19 76.3641 308.527 76.0072 308.943 76.0072Z" fill="#666666" fill-opacity="0.63"/>
<path d="M290.852 76.0072L295.786 76.0072C296.202 76.0072 296.539 76.3641 296.539 76.8044L296.539 82.0295C296.539 82.4698 296.202 82.8267 295.786 82.8267L290.852 82.8267C290.436 82.8267 290.099 82.4698 290.099 82.0295L290.099 76.8044C290.099 76.3641 290.436 76.0072 290.852 76.0072Z" fill="#666666" fill-opacity="0.63"/>
<path d="M281.815 76.0072L286.749 76.0072C287.165 76.0072 287.502 76.3641 287.502 76.8044L287.502 82.0295C287.502 82.4698 287.165 82.8267 286.749 82.8267L281.815 82.8267C281.399 82.8267 281.062 82.4698 281.062 82.0295L281.062 76.8044C281.062 76.3641 281.399 76.0072 281.815 76.0072Z" fill="#666666" fill-opacity="0.63"/>
<path d="M277.724 76.0072L272.925 76.0072C272.437 76.0072 272.037 76.4276 272.037 76.9476L272.037 81.8894C272.037 82.4063 272.434 82.8298 272.925 82.8298L277.724 82.8298C278.139 82.8298 278.477 82.4717 278.477 82.0326L278.477 76.8075C278.477 76.3684 278.139 76.0103 277.724 76.0103L277.724 76.0072Z" fill="#666666" fill-opacity="0.63"/>
<path d="M263.753 76.0072L268.687 76.0072C269.103 76.0072 269.44 76.3641 269.44 76.8044L269.44 82.0295C269.44 82.4698 269.103 82.8267 268.687 82.8267L263.753 82.8267C263.337 82.8267 263 82.4698 263 82.0295L263 76.8044C263 76.3641 263.337 76.0072 263.753 76.0072Z" fill="#666666" fill-opacity="0.63"/>
<path d="M268.552 73.3231L263.888 73.3231C263.398 73.3231 263 72.902 263 72.3827L263 67.444C263 66.9247 263.398 66.5036 263.888 66.5036L268.552 66.5036C269.043 66.5036 269.44 66.9247 269.44 67.444L269.44 72.3827C269.44 72.902 269.043 73.3231 268.552 73.3231Z" fill="#666666" fill-opacity="0.63"/>
<path d="M295.786 73.323L290.852 73.323C290.436 73.323 290.099 72.9661 290.099 72.5259L290.099 67.3008C290.099 66.8605 290.436 66.5036 290.852 66.5036L295.786 66.5036C296.202 66.5036 296.539 66.8605 296.539 67.3008L296.539 72.5259C296.539 72.9661 296.202 73.323 295.786 73.323Z" fill="#666666" fill-opacity="0.63"/>
<path d="M304.844 73.323L299.909 73.323C299.493 73.323 299.156 72.9661 299.156 72.5259L299.156 67.3008C299.156 66.8605 299.493 66.5036 299.909 66.5036L304.844 66.5036C305.259 66.5036 305.596 66.8605 305.596 67.3008L305.596 72.5259C305.596 72.9661 305.259 73.323 304.844 73.323Z" fill="#666666" fill-opacity="0.63"/>
<path d="M313.878 73.323L308.943 73.323C308.527 73.323 308.19 72.9661 308.19 72.5259L308.19 67.3008C308.19 66.8605 308.527 66.5036 308.943 66.5036L313.878 66.5036C314.293 66.5036 314.63 66.8605 314.63 67.3008L314.63 72.5259C314.63 72.9661 314.293 73.323 313.878 73.323Z" fill="#666666" fill-opacity="0.63"/>
<path d="M299.906 57.0031L304.841 57.0031C305.256 57.0031 305.594 57.36 305.594 57.8003L305.594 63.0254C305.594 63.4656 305.256 63.8225 304.841 63.8225L299.906 63.8225C299.49 63.8225 299.153 63.4656 299.153 63.0254L299.153 57.8003C299.153 57.36 299.49 57.0031 299.906 57.0031Z" fill="#666666" fill-opacity="0.63"/>
<path d="M290.852 57.0031L295.786 57.0031C296.202 57.0031 296.539 57.36 296.539 57.8003L296.539 63.0254C296.539 63.4657 296.202 63.8226 295.786 63.8226L290.852 63.8226C290.436 63.8226 290.099 63.4657 290.099 63.0254L290.099 57.8003C290.099 57.36 290.436 57.0031 290.852 57.0031Z" fill="#666666" fill-opacity="0.63"/>
<path d="M281.815 57.0031L286.749 57.0031C287.165 57.0031 287.502 57.36 287.502 57.8003L287.502 63.0254C287.502 63.4657 287.165 63.8226 286.749 63.8226L281.815 63.8226C281.399 63.8226 281.062 63.4657 281.062 63.0254L281.062 57.8003C281.062 57.36 281.399 57.0031 281.815 57.0031Z" fill="#666666" fill-opacity="0.63"/>
<path d="M277.724 57.0031L272.925 57.0031C272.437 57.0031 272.037 57.4235 272.037 57.9435L272.037 62.8853C272.037 63.4022 272.434 63.8257 272.925 63.8257L277.724 63.8257C278.139 63.8257 278.477 63.4676 278.477 63.0285L278.477 57.8034C278.477 57.3644 278.139 57.0063 277.724 57.0063L277.724 57.0031Z" fill="#666666" fill-opacity="0.63"/>
<path d="M263.753 57.0031L268.687 57.0031C269.103 57.0031 269.44 57.36 269.44 57.8003L269.44 63.0254C269.44 63.4657 269.103 63.8226 268.687 63.8226L263.753 63.8226C263.337 63.8226 263 63.4657 263 63.0254L263 57.8003C263 57.36 263.337 57.0031 263.753 57.0031Z" fill="#666666" fill-opacity="0.63"/>
<path d="M323.094 92.3271L318.159 92.3271C317.744 92.3271 317.406 91.9703 317.406 91.53L317.406 86.3049C317.406 85.8646 317.744 85.5077 318.159 85.5077L323.094 85.5077C323.51 85.5077 323.847 85.8646 323.847 86.3049L323.847 91.53C323.847 91.9702 323.51 92.3271 323.094 92.3271Z" fill="#666666" fill-opacity="0.63"/>
<path d="M327.193 92.3271L331.992 92.3271C332.481 92.3271 332.881 91.9068 332.881 91.3867L332.881 86.445C332.881 85.9281 332.484 85.5046 331.992 85.5046L327.193 85.5046C326.779 85.5046 326.44 85.8627 326.44 86.3018L326.44 91.5269C326.44 91.9659 326.779 92.324 327.193 92.324L327.193 92.3271Z" fill="#666666" fill-opacity="0.63"/>
<path d="M341.156 92.3271L336.221 92.3271C335.805 92.3271 335.468 91.9703 335.468 91.53L335.468 86.3049C335.468 85.8646 335.805 85.5077 336.221 85.5077L341.156 85.5077C341.572 85.5077 341.909 85.8646 341.909 86.3049L341.909 91.53C341.909 91.9702 341.572 92.3271 341.156 92.3271Z" fill="#666666" fill-opacity="0.63"/>
<path d="M332.131 76.0072L327.331 76.0072C326.843 76.0072 326.443 76.4276 326.443 76.9476L326.443 81.8894C326.443 82.4063 326.84 82.8298 327.331 82.8298L332.131 82.8298C332.545 82.8298 332.884 82.4717 332.884 82.0326L332.884 76.8075C332.884 76.3684 332.545 76.0103 332.131 76.0103L332.131 76.0072Z" fill="#666666" fill-opacity="0.63"/>
<path d="M322.959 73.323L318.295 73.323C317.804 73.323 317.406 72.902 317.406 72.3826L317.406 67.444C317.406 66.9246 317.804 66.5036 318.295 66.5036L322.959 66.5036C323.449 66.5036 323.847 66.9246 323.847 67.444L323.847 72.3826C323.847 72.902 323.449 73.323 322.959 73.323Z" fill="#666666" fill-opacity="0.63"/>
<path d="M327.328 73.3231L332.128 73.3231C332.542 73.3231 332.881 72.965 332.881 72.5259L332.881 67.3008C332.881 66.8617 332.542 66.5036 332.128 66.5036L327.328 66.5036C326.84 66.5036 326.44 66.924 326.44 67.444L326.44 72.3858C326.44 72.9027 326.837 73.3262 327.328 73.3262L327.328 73.3231Z" fill="#666666" fill-opacity="0.63"/>
<path d="M341.156 73.323L336.221 73.323C335.805 73.323 335.468 72.9661 335.468 72.5259L335.468 67.3008C335.468 66.8605 335.805 66.5036 336.221 66.5036L341.156 66.5036C341.572 66.5036 341.909 66.8605 341.909 67.3008L341.909 72.5259C341.909 72.9661 341.572 73.323 341.156 73.323Z" fill="#666666" fill-opacity="0.63"/>
<path d="M336.224 57.0031L341.159 57.0031C341.575 57.0031 341.912 57.36 341.912 57.8003L341.912 63.0254C341.912 63.4656 341.575 63.8225 341.159 63.8225L336.224 63.8225C335.808 63.8225 335.471 63.4656 335.471 63.0254L335.471 57.8003C335.471 57.36 335.808 57.0031 336.224 57.0031Z" fill="#666666" fill-opacity="0.63"/>
<path d="M332.131 57.0031L327.331 57.0031C326.843 57.0031 326.443 57.4235 326.443 57.9435L326.443 62.8853C326.443 63.4022 326.84 63.8257 327.331 63.8257L332.131 63.8257C332.545 63.8257 332.884 63.4676 332.884 63.0285L332.884 57.8034C332.884 57.3643 332.545 57.0062 332.131 57.0062L332.131 57.0031Z" fill="#666666" fill-opacity="0.63"/>
<path d="M318.159 57.0031L323.094 57.0031C323.51 57.0031 323.847 57.36 323.847 57.8003L323.847 63.0254C323.847 63.4656 323.51 63.8225 323.094 63.8225L318.159 63.8225C317.743 63.8225 317.406 63.4656 317.406 63.0254L317.406 57.8003C317.406 57.36 317.743 57.0031 318.159 57.0031Z" fill="#666666" fill-opacity="0.63"/>
</g>
</g>
<rect x="0.25" y="0.25" width="335.5" height="97.5" stroke="white" stroke-opacity="0.1" stroke-width="0.5"/>
<defs>
<linearGradient id="paint0_linear_16_2" x1="168" y1="239.102" x2="168" y2="-33.1204" gradientUnits="userSpaceOnUse">
<stop stop-color="#636C3E"/>
<stop offset="1" stop-opacity="0"/>
</linearGradient>
<clipPath id="clip0_16_2">
<rect width="336" height="98" fill="white"/>
</clipPath>
<clipPath id="clip1_16_2">
<rect width="97" height="92" fill="white" transform="matrix(1 -1.92965e-07 -1.58427e-07 -1 -16 58)"/>
</clipPath>
<clipPath id="clip2_16_2">
<rect width="97" height="92" fill="white" transform="matrix(1 -1.92965e-07 -1.58427e-07 -1 263 149)"/>
</clipPath>
</defs>
</svg>
