<svg width="52" height="54" viewBox="0 0 52 54" fill="none" xmlns="http://www.w3.org/2000/svg">
<path d="M21.048 53.019H27.3746C27.9088 53.019 28.3418 52.5859 28.3418 52.0518V45.7252C28.3418 45.191 27.9088 44.758 27.3746 44.758H21.048C20.5139 44.758 20.0808 45.191 20.0808 45.7252V52.0518C20.0808 52.5859 20.5139 53.019 21.048 53.019Z" fill="url(#paint0_linear_1855_5913)"/>
<path d="M30.7956 53.019H37.1222C37.6563 53.019 38.0894 52.5859 38.0894 52.0518V45.7252C38.0894 45.191 37.6563 44.758 37.1222 44.758H30.7956C30.2614 44.758 29.8284 45.191 29.8284 45.7252V52.0518C29.8284 52.5859 30.2614 53.019 30.7956 53.019Z" fill="url(#paint1_linear_1855_5913)"/>
<path d="M17.6268 34.7685H11.3002C10.766 34.7685 10.333 35.2016 10.333 35.7357V42.0623C10.333 42.5965 10.766 43.0295 11.3002 43.0295H17.6268C18.1609 43.0295 18.594 42.5965 18.594 42.0623V35.7357C18.594 35.2016 18.1609 34.7685 17.6268 34.7685Z" fill="url(#paint2_linear_1855_5913)"/>
<path d="M17.6268 44.7581H11.3002C10.766 44.7581 10.333 45.1911 10.333 45.7253V52.0519C10.333 52.586 10.766 53.0191 11.3002 53.0191H17.6268C18.1609 53.0191 18.594 52.586 18.594 52.0519V45.7253C18.594 45.1911 18.1609 44.7581 17.6268 44.7581Z" fill="url(#paint3_linear_1855_5913)"/>
<path d="M7.87873 44.7583H1.55215C1.01799 44.7583 0.584961 45.1913 0.584961 45.7255L0.584961 52.0521C0.584961 52.5862 1.01799 53.0193 1.55215 53.0193H7.87873C8.41289 53.0193 8.84592 52.5862 8.84592 52.0521V45.7255C8.84592 45.1913 8.41289 44.7583 7.87873 44.7583Z" fill="url(#paint4_linear_1855_5913)"/>
<path d="M7.87922 34.7685H1.55264C1.01847 34.7685 0.585449 35.2016 0.585449 35.7357L0.585449 42.0623C0.585449 42.5965 1.01847 43.0295 1.55264 43.0295H7.87922C8.41338 43.0295 8.84641 42.5965 8.84641 42.0623V35.7357C8.84641 35.2016 8.41338 34.7685 7.87922 34.7685Z" fill="url(#paint5_linear_1855_5913)"/>
<path d="M19.5612 34.7686H25.8878C26.422 34.7686 26.855 34.3356 26.855 33.8014V27.4749C26.855 26.9407 26.422 26.5077 25.8878 26.5077H19.5612C19.027 26.5077 18.594 26.9407 18.594 27.4749V33.8014C18.594 34.3356 19.027 34.7686 19.5612 34.7686Z" fill="url(#paint6_linear_1855_5913)"/>
<path d="M1.55194 33.6064H7.87851C8.41268 33.6064 8.8457 33.1734 8.8457 32.6392V26.3127C8.8457 25.7785 8.41268 25.3455 7.87851 25.3455H1.55194C1.01777 25.3455 0.584744 25.7785 0.584744 26.3127V32.6392C0.584744 33.1734 1.01777 33.6064 1.55194 33.6064Z" fill="url(#paint7_linear_1855_5913)"/>
<path d="M1.55194 24.1843H7.87851C8.41268 24.1843 8.8457 23.7512 8.8457 23.2171V16.8905C8.8457 16.3563 8.41268 15.9233 7.87851 15.9233H1.55194C1.01777 15.9233 0.584744 16.3563 0.584744 16.8905V23.2171C0.584744 23.7512 1.01777 24.1843 1.55194 24.1843Z" fill="url(#paint8_linear_1855_5913)"/>
<path d="M34.1487 17.0846H27.8222C27.288 17.0846 26.855 17.5176 26.855 18.0518V24.3784C26.855 24.9125 27.288 25.3456 27.8222 25.3456H34.1487C34.6829 25.3456 35.1159 24.9125 35.1159 24.3784V18.0518C35.1159 17.5176 34.6829 17.0846 34.1487 17.0846Z" fill="url(#paint9_linear_1855_5913)"/>
<path d="M42.4095 8.60643L36.0829 8.60643C35.5487 8.60643 35.1157 9.03946 35.1157 9.57363V15.9002C35.1157 16.4344 35.5487 16.8674 36.0829 16.8674H42.4095C42.9437 16.8674 43.3767 16.4344 43.3767 15.9002V9.57363C43.3767 9.03946 42.9437 8.60643 42.4095 8.60643Z" fill="url(#paint10_linear_1855_5913)"/>
<path d="M44.3441 0.351258L50.5 0.351258C51.1259 0.351258 51.6379 0.862948 51.6379 1.48835V7.46944C51.6379 8.09484 51.1259 8.60653 50.5 8.60653H44.3441C43.8093 8.60653 43.377 8.17444 43.377 7.64V1.3121C43.377 0.777668 43.8093 0.345573 44.3441 0.345573V0.351258Z" fill="url(#paint11_linear_1855_5913)"/>
<defs>
<linearGradient id="paint0_linear_1855_5913" x1="18.621" y1="52.6938" x2="26.4313" y2="50.693" gradientUnits="userSpaceOnUse">
<stop stop-color="#FC8A8A" stop-opacity="0.56"/>
<stop offset="1" stop-color="#F45F5F"/>
</linearGradient>
<linearGradient id="paint1_linear_1855_5913" x1="28.3685" y1="52.6938" x2="36.1789" y2="50.693" gradientUnits="userSpaceOnUse">
<stop stop-color="#FC8A8A" stop-opacity="0.56"/>
<stop offset="1" stop-color="#F45F5F"/>
</linearGradient>
<linearGradient id="paint2_linear_1855_5913" x1="20.0538" y1="35.0937" x2="12.2435" y2="37.0945" gradientUnits="userSpaceOnUse">
<stop stop-color="#FC8A8A" stop-opacity="0.56"/>
<stop offset="1" stop-color="#F45F5F"/>
</linearGradient>
<linearGradient id="paint3_linear_1855_5913" x1="20.0538" y1="45.0833" x2="12.2435" y2="47.084" gradientUnits="userSpaceOnUse">
<stop stop-color="#FC8A8A" stop-opacity="0.56"/>
<stop offset="1" stop-color="#F45F5F"/>
</linearGradient>
<linearGradient id="paint4_linear_1855_5913" x1="10.3058" y1="45.0835" x2="2.49545" y2="47.0843" gradientUnits="userSpaceOnUse">
<stop stop-color="#FC8A8A" stop-opacity="0.56"/>
<stop offset="1" stop-color="#F45F5F"/>
</linearGradient>
<linearGradient id="paint5_linear_1855_5913" x1="10.3063" y1="35.0937" x2="2.49594" y2="37.0945" gradientUnits="userSpaceOnUse">
<stop stop-color="#FC8A8A" stop-opacity="0.56"/>
<stop offset="1" stop-color="#F45F5F"/>
</linearGradient>
<linearGradient id="paint6_linear_1855_5913" x1="17.1342" y1="34.4434" x2="24.9445" y2="32.4427" gradientUnits="userSpaceOnUse">
<stop stop-color="#FC8A8A" stop-opacity="0.56"/>
<stop offset="1" stop-color="#F45F5F"/>
</linearGradient>
<linearGradient id="paint7_linear_1855_5913" x1="-0.875125" y1="33.2812" x2="6.93521" y2="31.2805" gradientUnits="userSpaceOnUse">
<stop stop-color="#FC8A8A" stop-opacity="0.56"/>
<stop offset="1" stop-color="#F45F5F"/>
</linearGradient>
<linearGradient id="paint8_linear_1855_5913" x1="-0.875125" y1="23.8591" x2="6.93521" y2="21.8583" gradientUnits="userSpaceOnUse">
<stop stop-color="#FC8A8A" stop-opacity="0.56"/>
<stop offset="1" stop-color="#F45F5F"/>
</linearGradient>
<linearGradient id="paint9_linear_1855_5913" x1="36.5758" y1="17.4098" x2="28.7655" y2="19.4105" gradientUnits="userSpaceOnUse">
<stop stop-color="#FC8A8A" stop-opacity="0.56"/>
<stop offset="1" stop-color="#F45F5F"/>
</linearGradient>
<linearGradient id="paint10_linear_1855_5913" x1="44.8366" y1="8.93164" x2="37.0262" y2="10.9324" gradientUnits="userSpaceOnUse">
<stop stop-color="#FC8A8A" stop-opacity="0.56"/>
<stop offset="1" stop-color="#F45F5F"/>
</linearGradient>
<linearGradient id="paint11_linear_1855_5913" x1="53.0978" y1="0.67078" x2="45.2874" y2="2.67151" gradientUnits="userSpaceOnUse">
<stop stop-color="#FC8A8A" stop-opacity="0.56"/>
<stop offset="1" stop-color="#F45F5F"/>
</linearGradient>
</defs>
</svg>
