<svg width="108" height="140" viewBox="0 0 108 140" fill="none" xmlns="http://www.w3.org/2000/svg">
<line x1="5.84796" y1="26.9851" x2="5.84964" y2="95.25" stroke="#6CC481" stroke-opacity="0.2" stroke-width="0.5"/>
<line x1="56.7537" y1="37.5386" x2="-6.96909" y2="37.5386" stroke="#6CC481" stroke-opacity="0.2" stroke-width="0.5"/>
<line x1="56.7537" y1="50.5205" x2="-6.96909" y2="50.5205" stroke="#6CC481" stroke-opacity="0.2" stroke-width="0.5"/>
<line x1="56.7537" y1="63.5024" x2="-6.96909" y2="63.5024" stroke="#6CC481" stroke-opacity="0.2" stroke-width="0.5"/>
<line x1="56.7537" y1="76.4843" x2="-6.96909" y2="76.4843" stroke="#6CC481" stroke-opacity="0.2" stroke-width="0.5"/>
<line x1="56.7537" y1="88.3843" x2="-6.96909" y2="88.3843" stroke="#6CC481" stroke-opacity="0.2" stroke-width="0.5"/>
<line x1="16.9447" y1="26.9851" x2="16.9464" y2="95.25" stroke="#6CC481" stroke-opacity="0.2" stroke-width="0.5"/>
<line x1="28.0416" y1="26.9851" x2="28.0433" y2="95.25" stroke="#6CC481" stroke-opacity="0.2" stroke-width="0.5"/>
<line x1="39.1386" y1="26.9851" x2="39.1403" y2="95.25" stroke="#6CC481" stroke-opacity="0.2" stroke-width="0.5"/>
<line x1="50.2351" y1="26.9851" x2="50.2368" y2="95.25" stroke="#6CC481" stroke-opacity="0.2" stroke-width="0.5"/>
<path d="M49.4214 14.0219C49.4214 7.31861 49.4545 7.35177 42.7513 7.35177C49.4545 7.35177 49.4214 7.38492 49.4214 0.681641C49.4214 7.38492 49.3882 7.35177 56.0915 7.35177C49.3882 7.35177 49.4214 7.31861 49.4214 14.0219Z" fill="#F3F3F3"/>
<path d="M74.7376 76.8126C71.0404 74.2951 66.9965 72.2375 62.7344 70.7051C49.2187 65.8428 42.9334 69.2407 41.2623 70.4547C40.3952 76.1429 47.7603 84.5493 59.1194 90.3291C70.6412 96.1916 82.3131 97.3373 86.7498 93.3382C86.8458 91.0753 86.0109 84.4858 74.7376 76.8126Z" fill="#FAFFC5"/>
<path d="M72.1705 67.836C56.2899 59.7556 40.1924 58.6769 35.6359 65.259C35.8639 64.9933 36.0889 64.7331 36.3396 64.4718C33.4562 69.3674 35.1978 74.9619 39.5608 80.2501C43.5821 84.9615 49.7954 89.749 57.3877 93.6121C62.9291 96.4793 68.8846 98.554 75.0117 99.7517L75.2609 99.8008L75.3194 99.8306C83.7658 101.223 91.1439 99.9785 94.7016 94.6838C97.3796 87.4498 87.6869 75.731 72.1705 67.836ZM86.7714 93.4907C82.3348 97.4899 70.6597 96.3496 59.1379 90.4871C47.7788 84.7073 40.3909 76.2822 41.2808 70.6127C41.3756 69.948 41.5931 69.3114 41.9248 68.7277C42.1934 68.2625 42.5337 67.8366 42.937 67.4611C43.1628 67.2434 43.4075 67.0419 43.6694 66.8581C45.4847 65.5832 48.1818 64.9689 51.4571 65.0024C54.1159 65.1148 56.78 65.5204 59.3875 66.2097C67.3032 68.1872 74.6831 71.9423 80.7785 77.0939C81.8327 77.9814 82.8384 78.9132 83.7915 79.8854C87.9873 84.4099 89.7347 88.954 87.908 92.139C87.6078 92.6407 87.2252 93.0957 86.7714 93.4907Z" fill="#1A5A37"/>
<path d="M94.9159 94.1778C91.3739 99.4452 83.9575 100.712 75.5338 99.3246L75.4753 99.2948L75.2294 99.2545C62.3692 97.0447 47.2316 88.8263 39.7814 79.7332C35.4375 74.4264 33.7022 68.821 36.5602 63.9549C36.3095 64.2162 36.0815 64.4819 35.8566 64.7422C18.4973 85.1777 78.4768 117.669 92.4783 98.5013L94.8229 94.4133C94.8735 94.3542 94.9175 94.2776 94.9159 94.1778Z" fill="#2CA85E"/>
<path d="M83.7977 79.8604C82.8457 78.8864 81.8411 77.9528 80.7878 77.0635C74.6885 71.9168 67.3103 68.1626 59.3968 66.1792C56.7884 65.4957 54.1252 65.0903 51.4664 64.9719C48.2171 64.9517 45.5136 65.5626 43.6787 66.8277C43.4184 67.013 43.1738 67.2145 42.9463 67.4306C42.0322 68.2795 41.4551 69.3777 41.2901 70.5823C42.9613 69.3682 49.2465 65.9704 62.7623 70.8326C67.0244 72.3651 71.0683 74.4227 74.7655 76.9401C86.0388 84.6133 86.8736 91.2028 86.7776 93.4657C87.23 93.0621 87.6092 92.5981 87.9041 92.0877C89.7409 88.929 87.9902 84.3761 83.7977 79.8604Z" fill="#1A8244"/>
<path d="M69.0347 83.4462L52.8097 73.8349L53.8013 86.2485L69.0347 83.4462Z" fill="#1A5A37"/>
<path d="M69.0347 83.4462L52.8097 73.8349L73.5174 77.0387L69.0347 83.4462Z" fill="#1A8244"/>
<path d="M70.551 84.5335L74.8062 89.6746L55.2099 87.2612L70.551 84.5335Z" fill="#1A5A37"/>
<path d="M70.5513 84.5334L74.8064 89.6745L74.9392 78.0523L70.5513 84.5334Z" fill="#1A8244"/>
<path d="M53.8015 86.2486L60.7354 78.5201L73.5175 77.0388L69.0348 83.4463L53.8015 86.2486Z" fill="#3EA668" fill-opacity="0.2"/>
<path fill-rule="evenodd" clip-rule="evenodd" d="M22.4138 27.1206L25.2331 19.8869L30.3504 25.9965L27.5212 33.2556L27.4237 33.1385L22.4138 27.1206Z" fill="#6CC481" stroke="#6CC481" stroke-width="0.5"/>
<path fill-rule="evenodd" clip-rule="evenodd" d="M17.2353 20.7323L14.4243 27.9447L22.2901 26.9078L25.111 19.67L25.0207 19.6822L24.9607 19.6903L17.2353 20.7323Z" fill="#485945" stroke="#485945" stroke-width="0.5"/>
<path fill-rule="evenodd" clip-rule="evenodd" d="M14.5116 28.2838L22.397 27.1861L27.4792 33.3751L19.5942 34.3777L14.5116 28.2838Z" fill="#EBFF27" stroke="#EBFF27" stroke-width="0.5"/>
<path d="M25.2559 139.035C25.2559 128.023 25.3067 128.078 15.0294 128.078C25.3067 128.078 25.2559 128.132 25.2559 117.121C25.2559 128.132 25.2051 128.078 35.4824 128.078C25.2051 128.078 25.2559 128.023 25.2559 139.035Z" fill="#F3F3F3"/>
</svg>
