<svg width="46" height="48" viewBox="0 0 46 48" fill="none" xmlns="http://www.w3.org/2000/svg">
<path d="M17.0819 20.5307C18.9872 19.2334 21.0711 18.173 23.2675 17.3833C30.2325 14.8776 33.4715 16.6287 34.3327 17.2543C34.7795 20.1856 30.9841 24.5176 25.1304 27.4961C19.1929 30.5172 13.178 31.1077 10.8917 29.0468C10.8422 27.8806 11.2724 24.4849 17.0819 20.5307Z" fill="#FAFFC5"/>
<path d="M18.4048 15.9048C26.5885 11.7407 34.884 11.1848 37.2321 14.5768C37.1146 14.4399 36.9987 14.3057 36.8695 14.1711C38.3554 16.6939 37.4579 19.577 35.2095 22.3021C33.1372 24.73 29.9353 27.1972 26.0228 29.1879C23.1671 30.6655 20.0981 31.7347 16.9406 32.3519L16.8122 32.3771L16.7821 32.3925C12.4294 33.1099 8.62725 32.4688 6.79389 29.7402C5.41382 26.0123 10.4088 19.9733 18.4048 15.9048ZM10.8805 29.1254C13.1669 31.1863 19.1834 30.5987 25.1209 27.5775C30.9745 24.5991 34.7818 20.2574 34.3232 17.3357C34.2743 16.9931 34.1622 16.6651 33.9913 16.3643C33.8528 16.1246 33.6775 15.9051 33.4697 15.7116C33.3533 15.5994 33.2272 15.4956 33.0923 15.4009C32.1567 14.7438 30.7669 14.4273 29.079 14.4445C27.7088 14.5025 26.336 14.7115 24.9923 15.0667C20.9131 16.0858 17.11 18.0209 13.9688 20.6757C13.4256 21.133 12.9073 21.6132 12.4162 22.1142C10.2539 24.4458 9.35347 26.7875 10.2948 28.4288C10.4495 28.6874 10.6467 28.9218 10.8805 29.1254Z" fill="#1A5A37"/>
<path d="M6.68345 29.4795C8.50873 32.194 12.3306 32.8469 16.6716 32.1318L16.7018 32.1164L16.8285 32.0957C23.4557 30.9569 31.2565 26.7217 35.0958 22.0358C37.3344 19.3011 38.2286 16.4124 36.7558 13.9048C36.885 14.0394 37.0025 14.1764 37.1184 14.3105C46.0641 24.8415 15.155 41.5852 7.9396 31.7075L6.73139 29.6008C6.70527 29.5704 6.68262 29.5309 6.68345 29.4795Z" fill="#2CA85E"/>
<path d="M12.413 22.1013C12.9035 21.5994 13.4213 21.1183 13.964 20.66C17.1072 18.0078 20.9094 16.0731 24.9875 15.051C26.3317 14.6988 27.7041 14.4899 29.0742 14.4289C30.7487 14.4184 32.1419 14.7333 33.0874 15.3852C33.2216 15.4807 33.3476 15.5845 33.4649 15.6959C33.9359 16.1334 34.2333 16.6993 34.3184 17.32C33.4572 16.6944 30.2182 14.9434 23.2531 17.4491C21.0567 18.2388 18.9728 19.2991 17.0675 20.5964C11.2581 24.5506 10.8279 27.9464 10.8773 29.1126C10.6442 28.9045 10.4488 28.6654 10.2968 28.4024C9.35029 26.7746 10.2525 24.4284 12.413 22.1013Z" fill="#1A8244"/>
<path d="M20.0208 23.9492L28.382 18.9962L27.871 25.3933L20.0208 23.9492Z" fill="#1A5A37"/>
<path d="M20.0208 23.9492L28.382 18.9962L17.7107 20.6472L20.0208 23.9492Z" fill="#1A8244"/>
<path d="M19.2394 24.5095L17.0465 27.1589L27.1451 25.9152L19.2394 24.5095Z" fill="#1A5A37"/>
<path d="M19.2392 24.5095L17.0464 27.1589L16.978 21.1696L19.2392 24.5095Z" fill="#1A8244"/>
<path d="M27.8709 25.3933L24.2976 21.4106L17.7106 20.6472L20.0207 23.9492L27.8709 25.3933Z" fill="#3EA668" fill-opacity="0.2"/>
</svg>
