<svg width="126" height="118" viewBox="0 0 126 118" fill="none" xmlns="http://www.w3.org/2000/svg">
<path fill-rule="evenodd" clip-rule="evenodd" d="M40.4523 30.1132L42.999 25.7211L45.6937 30.182L43.1381 34.5896L43.0868 34.5042L40.4523 30.1132Z" fill="#6CC481" stroke="#6CC481" stroke-width="0.5"/>
<path fill-rule="evenodd" clip-rule="evenodd" d="M37.307 25.2618L34.7678 29.6411L39.9548 29.7591L42.503 25.3645L42.4435 25.3633L42.4038 25.3625L37.307 25.2618Z" fill="#485945" stroke="#485945" stroke-width="0.5"/>
<path fill-rule="evenodd" clip-rule="evenodd" d="M34.7519 30.2514L39.9577 30.3322L42.6218 34.8409L37.4258 34.6987L34.7519 30.2514Z" fill="#EBFF27" stroke="#EBFF27" stroke-width="0.5"/>
<line x1="13.6153" y1="0.988489" x2="13.617" y2="69.2534" stroke="#6CC481" stroke-opacity="0.2" stroke-width="0.5"/>
<line x1="76.3891" y1="11.542" x2="0.798264" y2="11.542" stroke="#6CC481" stroke-opacity="0.2" stroke-width="0.5"/>
<line x1="76.3891" y1="23.542" x2="0.798264" y2="23.542" stroke="#6CC481" stroke-opacity="0.2" stroke-width="0.5"/>
<line x1="77.6032" y1="35.542" x2="0.798264" y2="35.542" stroke="#6CC481" stroke-opacity="0.2" stroke-width="0.5"/>
<line x1="74.5573" y1="47.542" x2="0.798325" y2="47.542" stroke="#6CC481" stroke-opacity="0.2" stroke-width="0.5"/>
<line x1="24.712" y1="0.988489" x2="24.7136" y2="69.2534" stroke="#6CC481" stroke-opacity="0.2" stroke-width="0.5"/>
<line x1="35.8089" y1="0.988489" x2="35.8106" y2="69.2534" stroke="#6CC481" stroke-opacity="0.2" stroke-width="0.5"/>
<line x1="46.9058" y1="0.988489" x2="46.9075" y2="69.2534" stroke="#6CC481" stroke-opacity="0.2" stroke-width="0.5"/>
<line x1="58.0025" y1="0.988489" x2="58.0042" y2="69.2534" stroke="#6CC481" stroke-opacity="0.2" stroke-width="0.5"/>
<line x1="85.6769" y1="49.6597" x2="85.6786" y2="117.925" stroke="#6CC481" stroke-opacity="0.2" stroke-width="0.5"/>
<line x1="136.583" y1="60.2132" x2="72.8599" y2="60.2132" stroke="#6CC481" stroke-opacity="0.2" stroke-width="0.5"/>
<line x1="136.583" y1="73.1951" x2="72.8599" y2="73.1951" stroke="#6CC481" stroke-opacity="0.2" stroke-width="0.5"/>
<line x1="136.583" y1="86.177" x2="72.8599" y2="86.177" stroke="#6CC481" stroke-opacity="0.2" stroke-width="0.5"/>
<line x1="136.583" y1="99.1589" x2="72.8599" y2="99.1589" stroke="#6CC481" stroke-opacity="0.2" stroke-width="0.5"/>
<line x1="136.583" y1="111.059" x2="72.8599" y2="111.059" stroke="#6CC481" stroke-opacity="0.2" stroke-width="0.5"/>
<line x1="96.7737" y1="49.6597" x2="96.7753" y2="117.925" stroke="#6CC481" stroke-opacity="0.2" stroke-width="0.5"/>
<line x1="107.871" y1="49.6597" x2="107.872" y2="117.925" stroke="#6CC481" stroke-opacity="0.2" stroke-width="0.5"/>
<line x1="118.968" y1="49.6597" x2="118.969" y2="117.925" stroke="#6CC481" stroke-opacity="0.2" stroke-width="0.5"/>
<path d="M100.952 40.2711C100.952 33.5678 100.985 33.6009 94.282 33.6009C100.985 33.6009 100.952 33.6341 100.952 26.9308C100.952 33.6341 100.919 33.6009 107.622 33.6009C100.919 33.6009 100.952 33.5678 100.952 40.2711Z" fill="#F3F3F3"/>
</svg>
