<svg width="126" height="100" viewBox="0 0 126 100" fill="none" xmlns="http://www.w3.org/2000/svg">
<line x1="13.6153" y1="-17.0115" x2="13.617" y2="51.2534" stroke="#6CC481" stroke-opacity="0.2" stroke-width="0.5"/>
<line x1="76.3891" y1="5.54199" x2="0.798264" y2="5.54199" stroke="#6CC481" stroke-opacity="0.2" stroke-width="0.5"/>
<line x1="77.6032" y1="17.542" x2="0.798264" y2="17.542" stroke="#6CC481" stroke-opacity="0.2" stroke-width="0.5"/>
<line x1="74.5573" y1="29.542" x2="0.798325" y2="29.542" stroke="#6CC481" stroke-opacity="0.2" stroke-width="0.5"/>
<line x1="24.712" y1="-17.0115" x2="24.7136" y2="51.2534" stroke="#6CC481" stroke-opacity="0.2" stroke-width="0.5"/>
<line x1="35.8089" y1="-17.0115" x2="35.8106" y2="51.2534" stroke="#6CC481" stroke-opacity="0.2" stroke-width="0.5"/>
<line x1="46.9058" y1="-17.0115" x2="46.9075" y2="51.2534" stroke="#6CC481" stroke-opacity="0.2" stroke-width="0.5"/>
<line x1="58.0025" y1="-17.0115" x2="58.0042" y2="51.2534" stroke="#6CC481" stroke-opacity="0.2" stroke-width="0.5"/>
<line x1="85.6769" y1="31.6597" x2="85.6786" y2="99.9247" stroke="#6CC481" stroke-opacity="0.2" stroke-width="0.5"/>
<line x1="136.583" y1="42.2132" x2="72.8599" y2="42.2132" stroke="#6CC481" stroke-opacity="0.2" stroke-width="0.5"/>
<line x1="136.583" y1="55.1951" x2="72.8599" y2="55.1951" stroke="#6CC481" stroke-opacity="0.2" stroke-width="0.5"/>
<line x1="136.583" y1="68.177" x2="72.8599" y2="68.177" stroke="#6CC481" stroke-opacity="0.2" stroke-width="0.5"/>
<line x1="136.583" y1="81.1589" x2="72.8599" y2="81.1589" stroke="#6CC481" stroke-opacity="0.2" stroke-width="0.5"/>
<line x1="136.583" y1="93.059" x2="72.8599" y2="93.059" stroke="#6CC481" stroke-opacity="0.2" stroke-width="0.5"/>
<line x1="96.7737" y1="31.6597" x2="96.7753" y2="99.9247" stroke="#6CC481" stroke-opacity="0.2" stroke-width="0.5"/>
<line x1="107.871" y1="31.6597" x2="107.872" y2="99.9247" stroke="#6CC481" stroke-opacity="0.2" stroke-width="0.5"/>
<line x1="118.968" y1="31.6597" x2="118.969" y2="99.9247" stroke="#6CC481" stroke-opacity="0.2" stroke-width="0.5"/>
<path d="M100.952 22.2711C100.952 15.5678 100.985 15.6009 94.282 15.6009C100.985 15.6009 100.952 15.6341 100.952 8.9308C100.952 15.6341 100.919 15.6009 107.622 15.6009C100.919 15.6009 100.952 15.5678 100.952 22.2711Z" fill="#F3F3F3"/>
</svg>
