<svg width="48" height="48" viewBox="0 0 48 48" fill="none" xmlns="http://www.w3.org/2000/svg">
<circle cx="24" cy="24" r="23.175" fill="url(#paint0_linear_68_647)" fill-opacity="0.78" stroke="#E2FF6F" stroke-width="1.65"/>
<g opacity="0.8">
<path d="M13.9536 33.4904L34.102 33.4554C34.2798 33.4551 34.4558 33.4172 34.6199 33.344C34.784 33.2707 34.9331 33.1635 35.0586 33.0284C35.1841 32.8934 35.2836 32.7331 35.3513 32.5568C35.4191 32.3805 35.4538 32.1916 35.4535 32.0009L35.4334 18.6499C35.4331 18.4592 35.3979 18.2704 35.3296 18.0943C35.2613 17.9183 35.1613 17.7583 35.0354 17.6237C34.9095 17.4891 34.7601 17.3824 34.5958 17.3097C34.4314 17.237 34.2554 17.1997 34.0776 17.2001L13.7943 17.2029C13.1034 17.2029 12.5507 16.4935 12.5755 15.8854V17.2373L12.5978 32.0405C12.5981 32.2312 12.6334 32.42 12.7016 32.596C12.7699 32.7721 12.8699 32.932 12.9958 33.0667C13.1217 33.2013 13.2711 33.308 13.4354 33.3807C13.5998 33.4534 13.7759 33.4907 13.9536 33.4904Z" fill="#1D1D1D"/>
<path d="M27.7053 22.727L35.4701 22.7144C35.7404 22.714 35.9997 22.8206 36.1911 23.0109C36.3825 23.2011 36.4902 23.4594 36.4907 23.7289L36.4959 26.923C36.4963 27.1925 36.3894 27.4511 36.1986 27.642C36.0079 27.8329 35.7489 27.9404 35.4787 27.9408L27.7138 27.9534C27.6621 27.9535 27.6125 27.9331 27.5759 27.8967C27.5393 27.8603 27.5186 27.8108 27.5186 27.7593L27.5107 22.9217C27.5106 22.8702 27.5311 22.8207 27.5676 22.7842C27.6041 22.7476 27.6536 22.7271 27.7053 22.727Z" fill="#8E8E8E"/>
<path d="M30.2267 26.533C30.8893 26.533 31.4263 25.9973 31.4263 25.3366C31.4263 24.6758 30.8893 24.1401 30.2267 24.1401C29.5642 24.1401 29.0271 24.6758 29.0271 25.3366C29.0271 25.9973 29.5642 26.533 30.2267 26.533Z" fill="#2E2F28"/>
<path d="M13.5945 14.5095H30.9988C31.269 14.5095 31.5282 14.6166 31.7193 14.8072C31.9103 14.9977 32.0177 15.2562 32.0177 15.5257V17.1102H13.885C13.5377 17.1102 13.2046 16.9726 12.9591 16.7277C12.7135 16.4828 12.5756 16.1506 12.5756 15.8043V15.5257C12.5756 15.2562 12.6829 14.9977 12.874 14.8072C13.0651 14.6166 13.3242 14.5095 13.5945 14.5095Z" fill="#8E8E8E"/>
</g>
<defs>
<linearGradient id="paint0_linear_68_647" x1="-14.8886" y1="-15.3503" x2="27.9928" y2="49.6127" gradientUnits="userSpaceOnUse">
<stop stop-color="#E2FF6F"/>
<stop offset="1" stop-color="#505155"/>
</linearGradient>
</defs>
</svg>
