<svg width="48" height="48" viewBox="0 0 48 48" fill="none" xmlns="http://www.w3.org/2000/svg">
<path d="M42.3562 24.6926C42.3562 28.8733 40.9965 32.9407 38.4823 36.2809C35.9681 39.6211 32.4357 42.0531 28.4182 43.2098C24.4006 44.3665 20.1159 44.1852 16.2104 42.6932C12.3049 41.2013 8.99061 38.4796 6.76753 34.9389C4.54445 31.3982 3.53321 27.2306 3.88638 23.0648C4.23955 18.899 5.93798 14.9611 8.7254 11.8451C11.5128 8.72924 15.238 6.6044 19.3389 5.79123C23.4398 4.97806 27.6939 5.52067 31.4594 7.3372L23.0869 24.6926H42.3562Z" fill="url(#paint0_linear_68_937)" fill-opacity="0.78"/>
<g opacity="0.8">
<path d="M15.0209 32.3122L31.1979 32.2842C31.3406 32.2839 31.4819 32.2535 31.6137 32.1947C31.7455 32.1359 31.8652 32.0498 31.9659 31.9414C32.0667 31.8329 32.1465 31.7042 32.201 31.5627C32.2554 31.4211 32.2832 31.2695 32.283 31.1164L32.2669 20.3969C32.2666 20.2438 32.2383 20.0923 32.1835 19.9509C32.1286 19.8095 32.0484 19.6812 31.9473 19.5731C31.8462 19.465 31.7263 19.3793 31.5943 19.3209C31.4624 19.2626 31.321 19.2327 31.1783 19.2329L14.893 19.2352C14.3383 19.2352 13.8945 18.6656 13.9145 18.1774V19.2628L13.9323 31.1481C13.9326 31.3013 13.9609 31.4528 14.0157 31.5942C14.0706 31.7356 14.1508 31.864 14.2519 31.9721C14.353 32.0802 14.4729 32.1658 14.6049 32.2242C14.7368 32.2826 14.8782 32.3125 15.0209 32.3122Z" fill="#1D1D1D"/>
<path d="M26.0619 23.6705L32.2962 23.6604C32.5132 23.6601 32.7214 23.7457 32.8751 23.8985C33.0287 24.0512 33.1152 24.2586 33.1156 24.475L33.1198 27.0395C33.1201 27.2558 33.0343 27.4635 32.8811 27.6168C32.7279 27.77 32.52 27.8563 32.303 27.8567L26.0688 27.8668C26.0272 27.8668 25.9874 27.8504 25.958 27.8212C25.9286 27.792 25.912 27.7523 25.912 27.7109L25.9056 23.8269C25.9056 23.7855 25.922 23.7457 25.9513 23.7164C25.9806 23.6871 26.0204 23.6706 26.0619 23.6705Z" fill="#8E8E8E"/>
<path d="M28.0863 26.7262C28.6183 26.7262 29.0495 26.2962 29.0495 25.7656C29.0495 25.2351 28.6183 24.8051 28.0863 24.8051C27.5544 24.8051 27.1232 25.2351 27.1232 25.7656C27.1232 26.2962 27.5544 26.7262 28.0863 26.7262Z" fill="#2E2F28"/>
<path d="M14.7326 17.0726H28.7064C28.9233 17.0726 29.1314 17.1586 29.2848 17.3116C29.4383 17.4646 29.5244 17.6721 29.5244 17.8885V19.1607H14.9659C14.687 19.1607 14.4196 19.0502 14.2225 18.8536C14.0253 18.657 13.9146 18.3903 13.9146 18.1122V17.8885C13.9146 17.6721 14.0007 17.4646 14.1542 17.3116C14.3076 17.1586 14.5156 17.0726 14.7326 17.0726Z" fill="#8E8E8E"/>
</g>
<mask id="path-6-inside-1_68_937" fill="white">
<path d="M48 24C48 19.5566 46.7665 15.2004 44.4368 11.4167C42.1071 7.63302 38.7727 4.57036 34.8051 2.56988L24 24L48 24Z"/>
</mask>
<path d="M48 24C48 19.5566 46.7665 15.2004 44.4368 11.4167C42.1071 7.63302 38.7727 4.57036 34.8051 2.56988L24 24L48 24Z" fill="url(#paint1_linear_68_937)" stroke="#E2FF6F" stroke-width="2" mask="url(#path-6-inside-1_68_937)"/>
<mask id="mask0_68_937" style="mask-type:alpha" maskUnits="userSpaceOnUse" x="25" y="3" width="22" height="21">
<path d="M46.9672 23.007C46.9672 18.5636 45.3937 15.0374 43.064 11.2537C40.7343 7.47 39.1797 5.93258 35.2121 3.9321L25.625 22.9075L36.6961 22.9062L46.9672 23.007Z" fill="url(#paint2_linear_68_937)"/>
</mask>
<g mask="url(#mask0_68_937)">
<g opacity="0.8">
<path d="M15.0209 32.3124L31.1979 32.2843C31.3406 32.284 31.4819 32.2536 31.6137 32.1948C31.7455 32.136 31.8652 32.0499 31.9659 31.9415C32.0667 31.833 32.1465 31.7044 32.201 31.5628C32.2554 31.4213 32.2832 31.2696 32.283 31.1165L32.2669 20.3971C32.2666 20.244 32.2383 20.0924 32.1835 19.951C32.1286 19.8097 32.0484 19.6813 31.9473 19.5732C31.8462 19.4651 31.7263 19.3794 31.5943 19.3211C31.4624 19.2627 31.321 19.2328 31.1783 19.233L14.893 19.2353C14.3383 19.2353 13.8945 18.6657 13.9145 18.1775V19.2629L13.9323 31.1483C13.9326 31.3014 13.9609 31.453 14.0157 31.5943C14.0706 31.7357 14.1508 31.8641 14.2519 31.9722C14.353 32.0803 14.4729 32.166 14.6049 32.2243C14.7368 32.2827 14.8782 32.3126 15.0209 32.3124Z" fill="#1D1D1D"/>
<path d="M14.7326 17.0728H28.7064C28.9233 17.0728 29.1314 17.1587 29.2848 17.3117C29.4383 17.4647 29.5244 17.6722 29.5244 17.8886V19.1608H14.9659C14.687 19.1608 14.4196 19.0504 14.2225 18.8537C14.0253 18.6571 13.9146 18.3904 13.9146 18.1123V17.8886C13.9146 17.6722 14.0007 17.4647 14.1542 17.3117C14.3076 17.1587 14.5156 17.0728 14.7326 17.0728Z" fill="#8E8E8E"/>
</g>
</g>
<defs>
<linearGradient id="paint0_linear_68_937" x1="-8.13642" y1="-6.90142" x2="26.2927" y2="45.2568" gradientUnits="userSpaceOnUse">
<stop stop-color="#2D2D2D"/>
<stop offset="1" stop-color="#505155"/>
</linearGradient>
<linearGradient id="paint1_linear_68_937" x1="-14.8886" y1="-15.3503" x2="27.9928" y2="49.6127" gradientUnits="userSpaceOnUse">
<stop stop-color="#E2FF6F"/>
<stop offset="1" stop-color="#505155"/>
</linearGradient>
<linearGradient id="paint2_linear_68_937" x1="19.0051" y1="-2.16798" x2="35.2258" y2="25.3266" gradientUnits="userSpaceOnUse">
<stop stop-color="#E2FF6F"/>
<stop offset="1" stop-color="#505155"/>
</linearGradient>
</defs>
</svg>
