<svg width="345" height="124" viewBox="0 0 345 124" fill="none" xmlns="http://www.w3.org/2000/svg">
<path d="M232.747 70.9888C232.726 71.3198 232.706 71.6508 232.676 71.9818C232.646 72.2727 232.606 72.5636 232.566 72.8445C232.516 73.1755 232.476 73.4965 232.416 73.8275C232.365 74.1184 232.295 74.4093 232.235 74.7002C232.165 75.0211 232.085 75.3421 232.004 75.6531C231.924 75.944 231.844 76.2348 231.753 76.5157C231.653 76.8367 231.553 77.1476 231.443 77.4686C231.342 77.7495 231.232 78.0303 231.122 78.3112C230.991 78.6422 230.851 78.9732 230.7 79.3042C230.58 79.5851 230.45 79.8559 230.309 80.1368C230.149 80.4678 229.978 80.7988 229.798 81.1198C229.657 81.3806 229.507 81.6514 229.356 81.9122C229.125 82.3034 228.885 82.6946 228.634 83.0758C228.483 83.3065 228.333 83.5472 228.173 83.7779C227.882 84.2092 227.561 84.6305 227.25 85.0518C227.099 85.2524 226.959 85.4531 226.808 85.6436C226.738 85.7339 226.658 85.8242 226.588 85.9145C226.247 86.3358 225.886 86.757 225.524 87.1683C225.424 87.2786 225.324 87.399 225.224 87.5093C224.782 87.9908 224.331 88.4623 223.849 88.9337C223.769 89.0139 223.679 89.1042 223.589 89.1845C223.227 89.5355 222.846 89.8866 222.465 90.2277C222.154 90.5085 221.843 90.7793 221.522 91.0502C221.221 91.3009 220.92 91.5517 220.619 91.8025C220.288 92.0733 219.937 92.3441 219.596 92.6049C219.275 92.8457 218.954 93.0964 218.623 93.3372C218.262 93.598 217.891 93.8588 217.51 94.1196C217.169 94.3603 216.818 94.591 216.457 94.8317C216.065 95.0825 215.664 95.3333 215.263 95.584C214.761 95.895 214.27 96.206 213.738 96.5169C212.755 97.0887 211.742 97.6303 210.719 98.1519C210.418 98.3024 210.117 98.4528 209.826 98.6033C209.024 98.9945 208.211 99.3757 207.389 99.7468C207.108 99.8672 206.837 99.9975 206.556 100.118C205.483 100.579 204.39 101.031 203.276 101.452C203.086 101.522 202.885 101.592 202.685 101.663C201.742 102.014 200.789 102.345 199.836 102.666C199.445 102.796 199.043 102.927 198.652 103.047C198.121 103.217 197.589 103.378 197.047 103.538C196.596 103.669 196.145 103.799 195.683 103.93C195.141 104.08 194.59 104.22 194.048 104.371C193.587 104.491 193.125 104.612 192.664 104.722C192.112 104.852 191.55 104.983 190.989 105.113C190.527 105.214 190.066 105.324 189.594 105.414C189.023 105.534 188.451 105.645 187.869 105.755C187.428 105.835 186.987 105.926 186.545 106.006C185.311 106.227 184.078 106.427 182.824 106.598C182.643 106.618 182.473 106.638 182.292 106.668C181.209 106.818 180.115 106.939 179.022 107.059C178.601 107.099 178.19 107.139 177.768 107.18C177.066 107.25 176.354 107.3 175.652 107.36C175.21 107.39 174.769 107.42 174.328 107.45C173.596 107.501 172.853 107.531 172.121 107.561C171.71 107.581 171.288 107.601 170.877 107.611C170.235 107.631 169.593 107.641 168.961 107.651C168.51 107.651 168.069 107.671 167.617 107.671C166.935 107.671 166.243 107.661 165.561 107.651C165.16 107.651 164.759 107.651 164.357 107.631C163.725 107.611 163.093 107.581 162.461 107.561C162.03 107.541 161.599 107.531 161.157 107.511C160.465 107.47 159.783 107.42 159.091 107.37C158.72 107.34 158.349 107.32 157.978 107.29C157.135 107.22 156.303 107.139 155.46 107.049C155.239 107.029 155.029 107.009 154.808 106.989C153.755 106.869 152.712 106.738 151.668 106.588C151.488 106.558 151.307 106.528 151.127 106.507C150.244 106.377 149.361 106.247 148.489 106.096C148.118 106.036 147.746 105.956 147.375 105.886C146.703 105.765 146.021 105.635 145.359 105.504C145.008 105.434 144.657 105.354 144.306 105.274C143.564 105.113 142.831 104.953 142.099 104.772C141.688 104.672 141.287 104.572 140.885 104.471C140.213 104.301 139.551 104.13 138.889 103.94C138.518 103.839 138.137 103.729 137.766 103.619C136.723 103.318 135.68 102.997 134.656 102.656C134.476 102.595 134.295 102.545 134.115 102.475C132.941 102.074 131.788 101.653 130.644 101.201C130.183 101.021 129.721 100.83 129.27 100.65C128.909 100.499 128.538 100.349 128.177 100.198C127.665 99.9775 127.153 99.7468 126.652 99.5161C126.321 99.3656 125.98 99.2152 125.659 99.0647C125.107 98.8039 124.566 98.5331 124.024 98.2522C123.753 98.1118 123.482 97.9814 123.211 97.841C122.409 97.4197 121.617 96.9883 120.844 96.547C107.884 89.0741 101.415 79.2541 101.445 69.4541L101.395 85.8041C101.365 95.6041 107.834 105.414 120.784 112.897C121.556 113.348 122.349 113.78 123.151 114.201C123.412 114.341 123.683 114.472 123.954 114.602C124.495 114.883 125.047 115.154 125.599 115.415C125.93 115.565 126.261 115.716 126.592 115.866C127.103 116.097 127.605 116.328 128.116 116.548C128.478 116.699 128.849 116.849 129.21 117C129.561 117.14 129.902 117.29 130.253 117.431C130.363 117.471 130.474 117.511 130.584 117.551C131.727 117.993 132.881 118.424 134.055 118.825C134.235 118.885 134.416 118.946 134.596 119.006C135.619 119.347 136.653 119.668 137.706 119.969C137.876 120.019 138.047 120.079 138.227 120.129C138.428 120.189 138.639 120.229 138.839 120.29C139.501 120.47 140.163 120.651 140.825 120.811C141.237 120.912 141.638 121.022 142.049 121.122C142.781 121.293 143.514 121.463 144.256 121.624C144.537 121.684 144.807 121.754 145.088 121.814C145.169 121.834 145.239 121.844 145.319 121.854C145.991 121.995 146.663 122.115 147.335 122.236C147.706 122.306 148.077 122.376 148.449 122.446C149.321 122.597 150.204 122.737 151.087 122.857C151.257 122.878 151.428 122.918 151.598 122.938C151.598 122.938 151.618 122.938 151.628 122.938C152.672 123.088 153.715 123.219 154.768 123.339C155.019 123.369 155.259 123.389 155.51 123.409C156.313 123.489 157.125 123.58 157.928 123.64C157.948 123.64 157.968 123.64 157.988 123.64C158.359 123.67 158.72 123.69 159.091 123.71C159.763 123.76 160.435 123.81 161.107 123.851C161.549 123.871 161.99 123.891 162.421 123.901C163.043 123.931 163.675 123.961 164.297 123.971C164.347 123.971 164.397 123.971 164.448 123.971C164.799 123.971 165.16 123.971 165.511 123.981C166.193 123.991 166.875 124.001 167.557 124.001C168.008 124.001 168.46 123.991 168.911 123.981C169.553 123.981 170.185 123.961 170.827 123.941C170.947 123.941 171.058 123.941 171.178 123.941C171.479 123.931 171.77 123.911 172.071 123.901C172.813 123.871 173.545 123.83 174.288 123.79C174.729 123.76 175.17 123.73 175.622 123.7C176.324 123.65 177.026 123.59 177.728 123.53C177.979 123.509 178.22 123.489 178.47 123.469C178.641 123.449 178.812 123.429 178.992 123.409C180.085 123.299 181.169 123.168 182.252 123.018C182.433 122.998 182.613 122.978 182.794 122.948C184.037 122.777 185.281 122.577 186.505 122.356C186.615 122.336 186.736 122.326 186.856 122.296C187.187 122.236 187.508 122.165 187.839 122.105C188.411 121.995 188.983 121.885 189.554 121.764C190.026 121.664 190.487 121.564 190.949 121.463C191.51 121.343 192.062 121.212 192.624 121.072C193.085 120.962 193.547 120.841 194.008 120.721C194.56 120.581 195.101 120.43 195.643 120.28C196.094 120.149 196.546 120.019 196.997 119.888C197.539 119.728 198.07 119.567 198.602 119.397C198.833 119.327 199.074 119.256 199.304 119.186C199.475 119.136 199.635 119.066 199.796 119.016C200.759 118.695 201.702 118.364 202.644 118.013C202.845 117.942 203.046 117.872 203.236 117.792C204.35 117.371 205.433 116.919 206.506 116.458C206.787 116.338 207.058 116.207 207.339 116.087C208.161 115.716 208.974 115.334 209.766 114.943C210.067 114.793 210.368 114.652 210.659 114.492C211.682 113.96 212.695 113.429 213.678 112.857C213.949 112.696 214.22 112.546 214.481 112.385C214.731 112.235 214.962 112.085 215.203 111.934C215.604 111.683 216.005 111.433 216.397 111.182C216.758 110.951 217.099 110.71 217.45 110.47C217.821 110.209 218.202 109.948 218.563 109.687C218.894 109.446 219.215 109.196 219.536 108.955C219.887 108.684 220.228 108.423 220.569 108.153C220.88 107.902 221.181 107.651 221.472 107.4C221.793 107.129 222.114 106.849 222.425 106.568C222.555 106.457 222.686 106.347 222.816 106.227C223.067 105.996 223.308 105.755 223.548 105.524C223.639 105.444 223.729 105.354 223.809 105.274C224.291 104.802 224.742 104.331 225.183 103.849C225.284 103.739 225.384 103.619 225.494 103.508C225.865 103.097 226.217 102.676 226.568 102.254C226.638 102.164 226.718 102.074 226.788 101.984C226.818 101.944 226.859 101.903 226.889 101.853C227.009 101.703 227.109 101.542 227.23 101.382C227.551 100.96 227.862 100.539 228.152 100.108C228.313 99.8772 228.463 99.6364 228.614 99.4057C228.865 99.0246 229.105 98.6334 229.336 98.2422C229.396 98.1318 229.477 98.0315 229.537 97.9212C229.627 97.7607 229.697 97.6002 229.787 97.4397C229.968 97.1087 230.139 96.7877 230.299 96.4567C230.429 96.1759 230.56 95.905 230.69 95.6242C230.841 95.2932 230.981 94.9621 231.112 94.6311C231.172 94.4807 231.242 94.3302 231.302 94.1898C231.352 94.0594 231.392 93.919 231.433 93.7886C231.543 93.4676 231.653 93.1566 231.743 92.8356C231.834 92.5447 231.924 92.2539 231.994 91.963C232.085 91.642 232.155 91.321 232.225 91.0101C232.265 90.8395 232.315 90.669 232.355 90.4885C232.375 90.3681 232.385 90.2578 232.405 90.1374C232.466 89.8064 232.516 89.4854 232.556 89.1544C232.596 88.8635 232.636 88.5826 232.666 88.2917C232.696 87.9607 232.716 87.6297 232.736 87.2987C232.747 87.1081 232.777 86.9075 232.777 86.7169C232.777 86.5263 232.777 86.3358 232.777 86.1351L232.827 69.7851C232.827 70.1763 232.797 70.5575 232.777 70.9386L232.747 70.9888Z" fill="#43C277"/>
<path d="M213.41 42.7415C239.139 57.5969 239.279 81.6806 213.711 96.536C188.143 111.391 146.555 111.402 120.827 96.536C95.0979 81.6806 94.9575 57.5869 120.526 42.7314C146.094 27.876 187.681 27.876 213.41 42.7314V42.7415Z" fill="url(#paint0_linear_2211_63814)"/>
<path d="M166.282 86.0883L144.437 77.9216L149.024 71.5957L162.971 76.8143L178.542 52.1543L186.527 55.2139L166.282 86.0883Z" fill="white"/>
<path d="M224.463 113.347L225.232 115.783L227.668 116.552L225.232 117.321L224.463 119.757L223.696 117.321L221.258 116.552L223.696 115.783L224.463 113.347Z" fill="#63CE75"/>
<path d="M229.28 94.2891H332.095" stroke="url(#paint1_linear_2211_63814)" stroke-width="1.53041" stroke-linecap="round"/>
<path d="M1.58398 94.2891H104.399" stroke="url(#paint2_linear_2211_63814)" stroke-width="1.53041" stroke-linecap="round"/>
<circle cx="114.417" cy="33.1592" r="1.11235" fill="#63CE75"/>
<circle cx="48.835" cy="107.284" r="1.11235" fill="#D2F739"/>
<circle cx="272.814" cy="2.16097" r="2.16097" fill="#D2F739"/>
<circle cx="262.947" cy="107.284" r="1.11235" fill="#D2F739"/>
<circle cx="93.3331" cy="75.7237" r="1.8087" fill="#D2F739"/>
<circle cx="96.941" cy="116.42" r="2.06992" fill="#63CE75"/>
<circle cx="220.458" cy="25.2562" r="0.903693" fill="#63CE75"/>
<path d="M253.509 71.3477L254.278 73.7837L256.714 74.553L254.278 75.3223L253.509 77.7583L252.742 75.3223L250.304 74.553L252.742 73.7837L253.509 71.3477Z" fill="#63CE75"/>
<path d="M122.258 9.35254L122.624 10.5124L123.784 10.8787L122.624 11.2449L122.258 12.4048L121.893 11.2449L120.731 10.8787L121.893 10.5124L122.258 9.35254Z" fill="#63CE75"/>
<circle cx="343.305" cy="84.6377" r="1.11235" fill="#1D9A46"/>
<defs>
<linearGradient id="paint0_linear_2211_63814" x1="167.681" y1="33.6601" x2="167.681" y2="107.681" gradientUnits="userSpaceOnUse">
<stop offset="0.4375" stop-color="#D4F938"/>
<stop offset="1" stop-color="#32D875" stop-opacity="0.96"/>
</linearGradient>
<linearGradient id="paint1_linear_2211_63814" x1="265.391" y1="94.2891" x2="328.584" y2="94.2891" gradientUnits="userSpaceOnUse">
<stop stop-color="#3CD279"/>
<stop offset="1" stop-color="#3ED179" stop-opacity="0"/>
</linearGradient>
<linearGradient id="paint2_linear_2211_63814" x1="93.8663" y1="94.2891" x2="16.1285" y2="94.2891" gradientUnits="userSpaceOnUse">
<stop stop-color="#3CD279"/>
<stop offset="1" stop-color="#3ED179" stop-opacity="0"/>
</linearGradient>
</defs>
</svg>
