<svg width="345" height="124" viewBox="0 0 345 124" fill="none" xmlns="http://www.w3.org/2000/svg">
<path d="M232.747 70.9878C232.726 71.3188 232.706 71.6498 232.676 71.9809C232.646 72.2717 232.606 72.5626 232.566 72.8435C232.516 73.1745 232.476 73.4955 232.416 73.8265C232.365 74.1174 232.295 74.4083 232.235 74.6992C232.165 75.0202 232.085 75.3411 232.004 75.6521C231.924 75.943 231.844 76.2339 231.753 76.5147C231.653 76.8357 231.553 77.1467 231.443 77.4676C231.342 77.7485 231.232 78.0294 231.122 78.3102C230.991 78.6412 230.851 78.9722 230.7 79.3033C230.58 79.5841 230.45 79.8549 230.309 80.1358C230.149 80.4668 229.978 80.7978 229.798 81.1188C229.657 81.3796 229.507 81.6504 229.356 81.9112C229.125 82.3024 228.885 82.6936 228.634 83.0748C228.483 83.3055 228.333 83.5462 228.173 83.7769C227.882 84.2083 227.561 84.6296 227.25 85.0508C227.099 85.2515 226.959 85.4521 226.808 85.6427C226.738 85.7329 226.658 85.8232 226.588 85.9135C226.247 86.3348 225.886 86.7561 225.524 87.1673C225.424 87.2777 225.324 87.398 225.224 87.5084C224.782 87.9898 224.331 88.4613 223.849 88.9327C223.769 89.013 223.679 89.1032 223.589 89.1835C223.227 89.5346 222.846 89.8856 222.465 90.2267C222.154 90.5075 221.843 90.7784 221.522 91.0492C221.221 91.3 220.92 91.5507 220.619 91.8015C220.288 92.0723 219.937 92.3432 219.596 92.604C219.275 92.8447 218.954 93.0955 218.623 93.3362C218.262 93.597 217.891 93.8578 217.51 94.1186C217.169 94.3593 216.818 94.59 216.457 94.8308C216.065 95.0815 215.664 95.3323 215.263 95.5831C214.761 95.894 214.27 96.205 213.738 96.5159C212.755 97.0877 211.742 97.6293 210.719 98.1509C210.418 98.3014 210.117 98.4519 209.826 98.6023C209.024 98.9935 208.211 99.3747 207.389 99.7458C207.108 99.8662 206.837 99.9966 206.556 100.117C205.483 100.578 204.39 101.03 203.276 101.451C203.086 101.521 202.885 101.591 202.685 101.662C201.742 102.013 200.789 102.344 199.836 102.665C199.445 102.795 199.043 102.926 198.652 103.046C198.121 103.216 197.589 103.377 197.047 103.537C196.596 103.668 196.145 103.798 195.683 103.929C195.141 104.079 194.59 104.219 194.048 104.37C193.587 104.49 193.125 104.611 192.664 104.721C192.112 104.851 191.55 104.982 190.989 105.112C190.527 105.213 190.066 105.323 189.594 105.413C189.023 105.534 188.451 105.644 187.869 105.754C187.428 105.834 186.987 105.925 186.545 106.005C185.311 106.226 184.078 106.426 182.824 106.597C182.643 106.617 182.473 106.637 182.292 106.667C181.209 106.817 180.115 106.938 179.022 107.058C178.601 107.098 178.19 107.138 177.768 107.179C177.066 107.249 176.354 107.299 175.652 107.359C175.21 107.389 174.769 107.419 174.328 107.449C173.596 107.5 172.853 107.53 172.121 107.56C171.71 107.58 171.288 107.6 170.877 107.61C170.235 107.63 169.593 107.64 168.961 107.65C168.51 107.65 168.069 107.67 167.617 107.67C166.935 107.67 166.243 107.66 165.561 107.65C165.16 107.65 164.759 107.65 164.357 107.63C163.725 107.61 163.093 107.58 162.461 107.56C162.03 107.54 161.599 107.53 161.157 107.51C160.465 107.469 159.783 107.419 159.091 107.369C158.72 107.339 158.349 107.319 157.978 107.289C157.135 107.219 156.303 107.138 155.46 107.048C155.239 107.028 155.029 107.008 154.808 106.988C153.755 106.868 152.712 106.737 151.668 106.587C151.488 106.557 151.307 106.527 151.127 106.506C150.244 106.376 149.361 106.246 148.489 106.095C148.118 106.035 147.746 105.955 147.375 105.885C146.703 105.764 146.021 105.634 145.359 105.503C145.008 105.433 144.657 105.353 144.306 105.273C143.564 105.112 142.831 104.952 142.099 104.771C141.688 104.671 141.287 104.571 140.885 104.47C140.213 104.3 139.551 104.129 138.889 103.939C138.518 103.838 138.137 103.728 137.766 103.618C136.723 103.317 135.68 102.996 134.656 102.655C134.476 102.595 134.295 102.544 134.115 102.474C132.941 102.073 131.788 101.652 130.644 101.2C130.183 101.02 129.721 100.829 129.27 100.649C128.909 100.498 128.538 100.348 128.177 100.197C127.665 99.9765 127.153 99.7458 126.652 99.5151C126.321 99.3646 125.98 99.2142 125.659 99.0637C125.107 98.8029 124.566 98.5321 124.024 98.2512C123.753 98.1108 123.482 97.9804 123.211 97.84C122.409 97.4187 121.617 96.9874 120.844 96.546C107.884 89.0732 101.415 79.2531 101.445 69.4531L101.395 85.8032C101.365 95.6031 107.834 105.413 120.784 112.896C121.556 113.347 122.349 113.779 123.151 114.2C123.412 114.34 123.683 114.471 123.954 114.601C124.495 114.882 125.047 115.153 125.599 115.414C125.93 115.564 126.261 115.715 126.592 115.865C127.103 116.096 127.605 116.327 128.116 116.547C128.478 116.698 128.849 116.848 129.21 116.999C129.561 117.139 129.902 117.289 130.253 117.43C130.363 117.47 130.474 117.51 130.584 117.55C131.727 117.992 132.881 118.423 134.055 118.824C134.235 118.884 134.416 118.945 134.596 119.005C135.619 119.346 136.653 119.667 137.706 119.968C137.876 120.018 138.047 120.078 138.227 120.128C138.428 120.188 138.639 120.228 138.839 120.289C139.501 120.469 140.163 120.65 140.825 120.81C141.237 120.911 141.638 121.021 142.049 121.121C142.781 121.292 143.514 121.462 144.256 121.623C144.537 121.683 144.807 121.753 145.088 121.813C145.169 121.833 145.239 121.843 145.319 121.853C145.991 121.994 146.663 122.114 147.335 122.235C147.706 122.305 148.077 122.375 148.449 122.445C149.321 122.596 150.204 122.736 151.087 122.857C151.257 122.877 151.428 122.917 151.598 122.937C151.598 122.937 151.618 122.937 151.628 122.937C152.672 123.087 153.715 123.218 154.768 123.338C155.019 123.368 155.259 123.388 155.51 123.408C156.313 123.488 157.125 123.579 157.928 123.639C157.948 123.639 157.968 123.639 157.988 123.639C158.359 123.669 158.72 123.689 159.091 123.709C159.763 123.759 160.435 123.809 161.107 123.85C161.549 123.87 161.99 123.89 162.421 123.9C163.043 123.93 163.675 123.96 164.297 123.97C164.347 123.97 164.397 123.97 164.448 123.97C164.799 123.97 165.16 123.97 165.511 123.98C166.193 123.99 166.875 124 167.557 124C168.008 124 168.46 123.99 168.911 123.98C169.553 123.98 170.185 123.96 170.827 123.94C170.947 123.94 171.058 123.94 171.178 123.94C171.479 123.93 171.77 123.91 172.071 123.9C172.813 123.87 173.545 123.829 174.288 123.789C174.729 123.759 175.17 123.729 175.622 123.699C176.324 123.649 177.026 123.589 177.728 123.529C177.979 123.509 178.22 123.488 178.47 123.468C178.641 123.448 178.812 123.428 178.992 123.408C180.085 123.298 181.169 123.167 182.252 123.017C182.433 122.997 182.613 122.977 182.794 122.947C184.037 122.776 185.281 122.576 186.505 122.355C186.615 122.335 186.736 122.325 186.856 122.295C187.187 122.235 187.508 122.164 187.839 122.104C188.411 121.994 188.983 121.884 189.554 121.763C190.026 121.663 190.487 121.563 190.949 121.462C191.51 121.342 192.062 121.211 192.624 121.071C193.085 120.961 193.547 120.84 194.008 120.72C194.56 120.58 195.101 120.429 195.643 120.279C196.094 120.148 196.546 120.018 196.997 119.887C197.539 119.727 198.07 119.566 198.602 119.396C198.833 119.326 199.074 119.256 199.304 119.185C199.475 119.135 199.635 119.065 199.796 119.015C200.759 118.694 201.702 118.363 202.644 118.012C202.845 117.941 203.046 117.871 203.236 117.791C204.35 117.37 205.433 116.918 206.506 116.457C206.787 116.337 207.058 116.206 207.339 116.086C208.161 115.715 208.974 115.333 209.766 114.942C210.067 114.792 210.368 114.651 210.659 114.491C211.682 113.959 212.695 113.428 213.678 112.856C213.949 112.695 214.22 112.545 214.481 112.384C214.731 112.234 214.962 112.084 215.203 111.933C215.604 111.682 216.005 111.432 216.397 111.181C216.758 110.95 217.099 110.709 217.45 110.469C217.821 110.208 218.202 109.947 218.563 109.686C218.894 109.445 219.215 109.195 219.536 108.954C219.887 108.683 220.228 108.422 220.569 108.152C220.88 107.901 221.181 107.65 221.472 107.399C221.793 107.128 222.114 106.848 222.425 106.567C222.555 106.456 222.686 106.346 222.816 106.226C223.067 105.995 223.308 105.754 223.548 105.523C223.639 105.443 223.729 105.353 223.809 105.273C224.291 104.801 224.742 104.33 225.183 103.848C225.284 103.738 225.384 103.618 225.494 103.507C225.865 103.096 226.217 102.675 226.568 102.253C226.638 102.163 226.718 102.073 226.788 101.983C226.818 101.943 226.859 101.902 226.889 101.852C227.009 101.702 227.109 101.541 227.23 101.381C227.551 100.96 227.862 100.538 228.152 100.107C228.313 99.8762 228.463 99.6355 228.614 99.4048C228.865 99.0236 229.105 98.6324 229.336 98.2412C229.396 98.1309 229.477 98.0306 229.537 97.9202C229.627 97.7597 229.697 97.5992 229.787 97.4387C229.968 97.1077 230.139 96.7868 230.299 96.4557C230.429 96.1749 230.56 95.9041 230.69 95.6232C230.841 95.2922 230.981 94.9612 231.112 94.6302C231.172 94.4797 231.242 94.3292 231.302 94.1888C231.352 94.0584 231.392 93.918 231.433 93.7876C231.543 93.4666 231.653 93.1556 231.743 92.8347C231.834 92.5438 231.924 92.2529 231.994 91.962C232.085 91.641 232.155 91.32 232.225 91.0091C232.265 90.8386 232.315 90.668 232.355 90.4875C232.375 90.3671 232.385 90.2568 232.405 90.1364C232.466 89.8054 232.516 89.4844 232.556 89.1534C232.596 88.8625 232.636 88.5816 232.666 88.2908C232.696 87.9597 232.716 87.6287 232.736 87.2977C232.747 87.1071 232.777 86.9065 232.777 86.7159C232.777 86.5254 232.777 86.3348 232.777 86.1342L232.827 69.7841C232.827 70.1753 232.797 70.5565 232.777 70.9377L232.747 70.9878Z" fill="#D80606"/>
<path d="M213.41 42.7405C239.139 57.5959 239.279 81.6796 213.711 96.5351C188.143 111.391 146.555 111.401 120.827 96.5351C95.0979 81.6796 94.9575 57.5859 120.526 42.7305C146.094 27.875 187.681 27.875 213.41 42.7305V42.7405Z" fill="url(#paint0_linear_2211_63777)"/>
<path d="M224.463 113.347L225.232 115.783L227.668 116.552L225.232 117.321L224.463 119.757L223.696 117.321L221.258 116.552L223.696 115.783L224.463 113.347Z" fill="#F1BE41"/>
<path d="M229.28 94.2881H332.095" stroke="url(#paint1_linear_2211_63777)" stroke-width="1.53041" stroke-linecap="round"/>
<path d="M1.58398 94.2881H104.399" stroke="url(#paint2_linear_2211_63777)" stroke-width="1.53041" stroke-linecap="round"/>
<circle cx="114.417" cy="33.1592" r="1.11235" fill="#F1BE41"/>
<circle cx="48.835" cy="107.285" r="1.11235" fill="#FEFFDC"/>
<circle cx="272.814" cy="2.16097" r="2.16097" fill="#FEFFDC"/>
<circle cx="262.947" cy="107.285" r="1.11235" fill="#FEFFDC"/>
<circle cx="93.3331" cy="75.7247" r="1.8087" fill="#FEFFDC"/>
<circle cx="96.941" cy="116.42" r="2.06992" fill="#F1BE41"/>
<circle cx="220.458" cy="25.2553" r="0.903693" fill="#F1BE41"/>
<path d="M253.509 71.3477L254.278 73.7837L256.714 74.553L254.278 75.3223L253.509 77.7583L252.742 75.3223L250.304 74.553L252.742 73.7837L253.509 71.3477Z" fill="#F1BE41"/>
<path d="M122.258 9.35254L122.624 10.5124L123.784 10.8787L122.624 11.2449L122.258 12.4048L121.893 11.2449L120.731 10.8787L121.893 10.5124L122.258 9.35254Z" fill="#F1BE41"/>
<circle cx="343.305" cy="84.6377" r="1.11235" fill="#FA3939"/>
<path d="M176.77 53.2542L177.28 51.4409L174.588 52.2219L167.726 54.2126L167.314 54.332L167.239 54.6101L164.362 65.205L148.797 60.1276L148.112 59.9041L147.555 60.0658L140.692 62.0565L138.701 62.6342L141.154 63.424L163.103 70.4906L160.286 84.9013L159.931 86.7191L162.509 85.8922L168.799 83.8746L169.2 83.7459L169.258 83.4637L171.352 73.2979L185.818 78.4254L186.508 78.6701L187.09 78.5152L193.612 76.7809L195.566 76.2615L193.257 75.432L172.613 68.0131L176.77 53.2542Z" fill="#FEFFDC" stroke="#FEFFDC" stroke-width="2.2"/>
<defs>
<linearGradient id="paint0_linear_2211_63777" x1="156.018" y1="23.0997" x2="167.681" y2="107.68" gradientUnits="userSpaceOnUse">
<stop offset="0.0871174" stop-color="#F93939"/>
<stop offset="1" stop-color="#EBAC1E"/>
</linearGradient>
<linearGradient id="paint1_linear_2211_63777" x1="265.391" y1="94.2881" x2="328.584" y2="94.2881" gradientUnits="userSpaceOnUse">
<stop stop-color="#D80606"/>
<stop offset="1" stop-color="#D80606" stop-opacity="0"/>
</linearGradient>
<linearGradient id="paint2_linear_2211_63777" x1="93.8663" y1="94.2881" x2="16.1285" y2="94.2881" gradientUnits="userSpaceOnUse">
<stop stop-color="#D80606"/>
<stop offset="1" stop-color="#F25E5E" stop-opacity="0"/>
</linearGradient>
</defs>
</svg>
