<svg width="70" height="82" viewBox="0 0 70 82" fill="none" xmlns="http://www.w3.org/2000/svg">
<path d="M24.9922 71.4079L25.003 66.1758L59.1504 61.4053L59.145 66.6373L24.9922 71.4079Z" fill="url(#paint0_linear_798_2381)"/>
<path d="M24.9923 71.4079L21.2983 69.4117L21.3091 64.1797L25.0031 66.1759L24.9923 71.4079Z" fill="#058A36"/>
<path d="M25.003 66.1759L21.3091 64.1797L55.4619 59.4091L59.1504 61.4054L25.003 66.1759Z" fill="#058A36"/>
<path d="M46.276 35.3473L42.5874 33.3511L49.3596 24.4003L53.0482 26.3965L46.276 35.3473Z" fill="#058A36"/>
<mask id="mask0_798_2381" style="mask-type:luminance" maskUnits="userSpaceOnUse" x="48" y="15" width="12" height="12">
<path d="M55.7157 15.7232L59.4097 17.7194C58.6374 17.3009 57.7301 17.1399 56.8012 17.2687C55.5051 17.4511 54.263 18.1756 53.3449 19.281C52.4322 20.3918 51.9138 21.7924 51.9084 23.1822C51.903 24.4164 52.308 25.554 53.0479 26.3965L49.3539 24.4003C48.614 23.5578 48.209 22.4202 48.2144 21.186C48.2144 19.7961 48.7329 18.3956 49.6509 17.2848C50.569 16.1794 51.8057 15.4549 53.1073 15.2725C54.0416 15.1437 54.9434 15.3047 55.7157 15.7232Z" fill="white"/>
</mask>
<g mask="url(#mask0_798_2381)">
<path d="M53.0479 26.3964L49.3539 24.4002C48.614 23.5577 48.209 22.4201 48.2144 21.1859C48.2144 20.4883 48.3494 19.7853 48.5924 19.1199L52.2864 21.1161C52.038 21.7815 51.9084 22.4845 51.9084 23.1821C51.903 24.4163 52.308 25.5539 53.0479 26.3964Z" fill="#58F28A"/>
<path d="M52.2916 21.1215L48.5977 19.1253C48.7003 18.8463 48.8245 18.5726 48.9703 18.3097L52.6642 20.3059C52.5184 20.5688 52.3996 20.8425 52.2916 21.1215Z" fill="#58F28A"/>
<path d="M52.6588 20.3006L48.9648 18.3044C49.0837 18.0843 49.2187 17.8697 49.3645 17.6604L53.0584 19.6566C52.9126 19.8659 52.7776 20.0806 52.6588 20.3006Z" fill="#58F28A"/>
<path d="M53.0587 19.6566L49.3647 17.6603C49.4566 17.5316 49.5484 17.4081 49.651 17.2847C49.6942 17.2311 49.7428 17.1774 49.7914 17.1237L53.4853 19.1199C53.4367 19.1736 53.3935 19.2273 53.3449 19.2809C53.2423 19.4043 53.1505 19.5278 53.0587 19.6566Z" fill="#58F28A"/>
<path d="M53.4855 19.12L49.7915 17.1238C49.9481 16.9467 50.1155 16.7804 50.2884 16.6248L53.9823 18.621C53.8095 18.7766 53.6421 18.943 53.4855 19.12Z" fill="#58F28A"/>
<path d="M53.982 18.6209L50.2881 16.6247C50.4771 16.453 50.6769 16.2973 50.8821 16.1578L54.5761 18.154C54.3709 18.2936 54.1711 18.4492 53.982 18.6209Z" fill="#58F28A"/>
<path d="M54.5763 18.1542L50.8823 16.158C51.1361 15.9809 51.4008 15.8306 51.6762 15.7018L55.3701 17.698C55.0947 17.8268 54.8301 17.9771 54.5763 18.1542Z" fill="#58F28A"/>
<path d="M55.3702 17.698L51.6763 15.7017C52.1353 15.4871 52.616 15.3422 53.1074 15.2724C53.6907 15.192 54.2631 15.2242 54.8032 15.3637L58.4971 17.3599C57.9625 17.2204 57.3846 17.1882 56.8014 17.2687C56.3099 17.3384 55.8293 17.4833 55.3702 17.698Z" fill="#58F28A"/>
<path d="M58.4918 17.3598L54.7979 15.3636C55.0625 15.4334 55.3217 15.5246 55.5647 15.648L59.2587 17.6442C59.0157 17.5262 58.7564 17.4296 58.4918 17.3598Z" fill="#58F28A"/>
<path d="M59.2638 17.6442L55.5698 15.648C55.6184 15.6695 55.667 15.6963 55.7156 15.7232L59.4096 17.7194C59.361 17.6925 59.3124 17.6657 59.2638 17.6442Z" fill="#58F28A"/>
</g>
<path d="M29.8907 60.2623L26.1968 58.2661L26.2184 45.5805L29.9123 47.5767L29.8907 60.2623Z" fill="#058A36"/>
<path d="M37.9806 36.5064L34.2866 34.5102L35.5989 24.572L39.2929 26.5682L37.9806 36.5064Z" fill="#058A36"/>
<mask id="mask1_798_2381" style="mask-type:luminance" maskUnits="userSpaceOnUse" x="33" y="14" width="12" height="13">
<path d="M41.0858 15.1491L44.7798 17.1453C44.0021 16.7267 43.1002 16.5657 42.1659 16.6945C40.8698 16.877 39.6277 17.6014 38.7096 18.7068C37.7969 19.8176 37.2785 21.2182 37.2731 22.608C37.2731 24.3574 38.0724 25.7902 39.2875 26.5629L35.5935 24.5667C34.373 23.7939 33.5737 22.3612 33.5791 20.6118C33.5791 19.222 34.0976 17.8214 35.0157 16.7106C35.9337 15.6052 37.1759 14.8808 38.472 14.6983C39.4063 14.5695 40.3136 14.7305 41.0858 15.1491Z" fill="white"/>
</mask>
<g mask="url(#mask1_798_2381)">
<path d="M39.2928 26.5681L35.5989 24.5719C34.3784 23.7991 33.5791 22.3664 33.5845 20.617C33.5845 19.9194 33.7195 19.2164 33.9625 18.551L37.6565 20.5472C37.4081 21.2127 37.2784 21.9156 37.2784 22.6132C37.2784 24.3626 38.0777 25.7954 39.2928 26.5681Z" fill="#58F28A"/>
<path d="M37.6564 20.5473L33.9624 18.5511C34.065 18.272 34.1892 17.9984 34.335 17.7354L38.029 19.7316C37.8832 19.9946 37.7644 20.2683 37.6564 20.5473Z" fill="#58F28A"/>
<path d="M38.0235 19.7262L34.3296 17.73C34.4484 17.51 34.5834 17.2953 34.7292 17.0861L38.4232 19.0823C38.2774 19.2915 38.1423 19.5062 38.0235 19.7262Z" fill="#58F28A"/>
<path d="M38.4234 19.0877L34.7295 17.0915C34.8213 16.9627 34.9131 16.8393 35.0157 16.7158C35.0589 16.6622 35.1075 16.6085 35.1561 16.5549L38.8501 18.5511C38.8015 18.6047 38.7583 18.6584 38.7097 18.7121C38.6071 18.8355 38.5153 18.9589 38.4234 19.0877Z" fill="#58F28A"/>
<path d="M38.8497 18.5512L35.1558 16.5549C35.3124 16.3779 35.4798 16.2115 35.6526 16.0559L39.3466 18.0521C39.1737 18.2077 39.0063 18.3741 38.8497 18.5512Z" fill="#58F28A"/>
<path d="M39.3468 18.052L35.6528 16.0558C35.8418 15.8841 36.0417 15.7285 36.2469 15.589L39.9408 17.5852C39.7356 17.7247 39.5358 17.8803 39.3468 18.052Z" fill="#58F28A"/>
<path d="M39.941 17.5852L36.2471 15.589C36.5009 15.4119 36.7709 15.2616 37.0409 15.1328L40.7349 17.129C40.4595 17.2578 40.1948 17.4081 39.941 17.5852Z" fill="#58F28A"/>
<path d="M40.7345 17.1291L37.0405 15.1329C37.4996 14.9182 37.9802 14.7733 38.4717 14.7036C39.0549 14.6231 39.6274 14.6553 40.1674 14.7948L43.8614 16.791C43.3213 16.6515 42.7489 16.6193 42.1656 16.6998C41.6742 16.7695 41.1935 16.9144 40.7345 17.1291Z" fill="#58F28A"/>
<path d="M43.8614 16.7856L40.1675 14.7894C40.4375 14.8592 40.6913 14.9557 40.9398 15.0738L44.6337 17.07C44.3853 16.952 44.1261 16.8554 43.8614 16.7856Z" fill="#58F28A"/>
<path d="M44.6339 17.07L40.9399 15.0738C40.9885 15.1006 41.0372 15.1221 41.0858 15.1489L44.7797 17.1451C44.7311 17.1183 44.6825 17.0915 44.6339 17.07Z" fill="#58F28A"/>
</g>
<path d="M29.9124 47.5767L26.2185 45.5805L21.7847 29.6376L25.4786 31.6339L29.9124 47.5767Z" fill="#058A36"/>
<path d="M60.2469 18.3204C61.1595 19.1737 61.6726 20.4293 61.6672 21.8245C61.6672 23.9388 60.4413 25.9136 58.8049 26.9814L54.3117 44.1692L54.2901 56.8602L29.8906 60.2677L29.9122 47.5767L25.4784 31.6392C23.8474 31.0275 22.6323 29.3908 22.6377 27.2766C22.6377 25.8867 23.1508 24.4862 24.0742 23.3754C24.9977 22.2646 26.2291 21.5455 27.5252 21.3631C28.8213 21.1806 30.058 21.5616 30.9761 22.4095C31.8888 23.268 32.4018 24.5184 32.3964 25.9136C32.3964 27.2175 31.9536 28.4571 31.1705 29.482L37.986 36.5063L39.2983 26.5629C38.0778 25.7901 37.2785 24.3574 37.2839 22.608C37.2839 21.2182 37.8023 19.8176 38.7204 18.7068C39.6385 17.6014 40.8806 16.8769 42.1768 16.6945C43.4729 16.512 44.7096 16.893 45.6277 17.7409C46.5404 18.5995 47.0534 19.8498 47.048 21.245C47.048 22.9944 46.2379 24.6525 45.0174 25.7633L46.2919 35.3419L53.0642 26.3911C52.3243 25.5487 51.9193 24.411 51.9247 23.1768C51.9247 21.787 52.4431 20.3864 53.3612 19.2756C54.2793 18.1702 55.516 17.4458 56.8175 17.2633C58.1191 17.0809 59.3504 17.4619 60.2631 18.3151L60.2469 18.3204Z" fill="url(#paint1_linear_798_2381)"/>
<mask id="mask2_798_2381" style="mask-type:luminance" maskUnits="userSpaceOnUse" x="18" y="19" width="13" height="13">
<path d="M24.9654 31.4031L21.2715 29.4069C19.9052 28.6718 18.9385 27.1639 18.9439 25.2803C18.9439 23.8905 19.4569 22.4899 20.3804 21.3791C21.3039 20.2684 22.5352 19.5493 23.8313 19.3668C24.7656 19.238 25.6729 19.399 26.4452 19.8176L30.1391 21.8138C29.3669 21.3952 28.4596 21.2343 27.5253 21.363C26.2292 21.5455 24.987 22.2699 24.0744 23.3754C23.1617 24.4808 22.6432 25.8867 22.6378 27.2766C22.6378 29.1654 23.5991 30.668 24.9654 31.4031Z" fill="white"/>
</mask>
<g mask="url(#mask2_798_2381)">
<path d="M24.9654 31.4031L21.2715 29.4069C19.9052 28.6717 18.9385 27.1638 18.9439 25.2803C18.9439 24.5773 19.0735 23.8797 19.3219 23.209L23.0159 25.2052C22.7674 25.8706 22.6378 26.5735 22.6378 27.2765C22.6378 29.1654 23.5991 30.6679 24.9654 31.4031Z" fill="#58F28A"/>
<path d="M23.0157 25.2051L19.3218 23.2089C19.4244 22.9298 19.5486 22.6615 19.689 22.3986L23.383 24.3948C23.2425 24.6577 23.1183 24.9314 23.0157 25.2051Z" fill="#58F28A"/>
<path d="M23.3829 24.3895L19.689 22.3933C19.8078 22.1732 19.9374 21.9586 20.0832 21.7547L23.7772 23.7509C23.6313 23.9548 23.5017 24.1695 23.3829 24.3895Z" fill="#58F28A"/>
<path d="M23.7774 23.751L20.0835 21.7547C20.1753 21.626 20.2725 21.4972 20.3751 21.3737C20.4237 21.3147 20.4723 21.2611 20.5209 21.2074L24.2149 23.2036C24.1663 23.2573 24.1177 23.3163 24.0691 23.37C23.9665 23.4934 23.8693 23.6222 23.7774 23.751Z" fill="#58F28A"/>
<path d="M24.2149 23.2036L20.521 21.2074C20.6776 21.0303 20.8396 20.8639 21.0124 20.7137L24.7064 22.7099C24.5336 22.8655 24.3716 23.0319 24.2149 23.2036Z" fill="#58F28A"/>
<path d="M24.7115 22.7046L21.0176 20.7083C21.2066 20.542 21.401 20.3864 21.6062 20.2469L25.3002 22.2431C25.095 22.3826 24.9005 22.5382 24.7115 22.7046Z" fill="#58F28A"/>
<path d="M25.3004 22.2431L21.6064 20.2469C21.8603 20.0698 22.1249 19.9195 22.4003 19.7907L26.0943 21.787C25.8188 21.9157 25.5542 22.066 25.3004 22.2431Z" fill="#58F28A"/>
<path d="M26.0943 21.787L22.4004 19.7908C22.8594 19.5761 23.3401 19.4312 23.8315 19.3615C24.4148 19.281 24.9926 19.3132 25.5273 19.4527L29.2212 21.4489C28.6866 21.3094 28.1087 21.2772 27.5255 21.3577C27.0394 21.4274 26.5534 21.5723 26.0943 21.787Z" fill="#58F28A"/>
<path d="M29.2154 21.4489L25.5215 19.4527C25.7861 19.5224 26.0453 19.619 26.2938 19.7371L29.9877 21.7333C29.7393 21.6152 29.4855 21.5186 29.2154 21.4489Z" fill="#58F28A"/>
<path d="M29.9879 21.7333L26.2939 19.7371C26.3425 19.7639 26.3912 19.7854 26.4398 19.8122L30.1337 21.8084C30.0851 21.7816 30.0365 21.7547 29.9879 21.7333Z" fill="#58F28A"/>
</g>
<path d="M56.9476 43.3043C56.9476 43.3043 56.5919 44.2708 56.5705 44.51C56.5491 44.7493 56.3464 45.1819 56.9712 45.5077C56.9712 45.5077 57.7004 45.854 57.9056 45.8973C57.9056 45.8973 57.1291 45.6272 56.9103 45.606C56.6915 45.5848 56.2626 45.487 55.8851 46.3492L55.5128 47.3004C55.5128 47.3004 55.8593 46.288 55.894 46.0788C55.9287 45.8695 56.0989 45.3799 55.4366 45.0664L54.6065 44.7227C54.6065 44.7227 55.2798 44.9823 55.6987 45.015C56.1175 45.0478 56.4705 44.6049 56.9476 43.3043Z" fill="white" stroke="white" stroke-width="0.0889285" stroke-miterlimit="10"/>
<path d="M22.8348 38.0499C22.8348 38.0499 22.4792 37.0835 22.4577 36.8442C22.4363 36.6049 22.2336 36.1723 22.8584 35.8466C22.8584 35.8466 23.5876 35.5003 23.7928 35.4569C23.7928 35.4569 23.0163 35.727 22.7975 35.7482C22.5787 35.7694 22.1499 35.8672 21.7723 35.0051L21.4001 34.0539C21.4001 34.0539 21.7465 35.0663 21.7812 35.2755C21.8159 35.4847 21.9861 35.9743 21.3238 36.2878L20.4938 36.6316C20.4938 36.6316 21.167 36.372 21.5859 36.3392C22.0047 36.3064 22.3577 36.7493 22.8348 38.0499Z" fill="white" stroke="white" stroke-width="0.0889285" stroke-miterlimit="10"/>
<ellipse cx="0.481575" cy="0.477656" rx="0.481575" ry="0.477656" transform="matrix(0.995252 0.0973294 -0.0989489 0.995093 46.6895 17.4104)" fill="#33B568"/>
<ellipse cx="0.481575" cy="0.477656" rx="0.481575" ry="0.477656" transform="matrix(0.995252 0.0973294 -0.0989489 0.995093 16.7524 44.4105)" fill="#33B568"/>
<ellipse cx="0.481575" cy="0.477656" rx="0.481575" ry="0.477656" transform="matrix(0.995252 0.0973294 -0.0989489 0.995093 6.28027 80.2261)" fill="#33B568"/>
<ellipse cx="0.481575" cy="0.477656" rx="0.481575" ry="0.477656" transform="matrix(0.995252 0.0973294 -0.0989489 0.995093 0.683594 61.3365)" fill="white"/>
<ellipse cx="0.481575" cy="0.477656" rx="0.481575" ry="0.477656" transform="matrix(0.995252 0.0973294 -0.0989489 0.995093 46.9346 57.888)" fill="white"/>
<ellipse cx="0.26761" cy="0.265432" rx="0.26761" ry="0.265432" transform="matrix(0.995252 0.0973294 -0.0989489 0.995093 65.353 54.8969)" fill="white"/>
<ellipse cx="0.778208" cy="0.771875" rx="0.778208" ry="0.771875" transform="matrix(0.995252 0.0973294 -0.0989489 0.995093 61.8418 0.1875)" fill="#33B568"/>
<path d="M39.0712 7.87321C39.0712 7.87321 38.0953 9.91055 37.7513 10.3117C37.4072 10.7129 37.0373 11.6923 35.5632 11.2251C35.5632 11.2251 33.8961 10.6276 33.5123 10.3763C33.5123 10.3763 35.132 11.1642 35.5019 11.4706C35.8718 11.777 36.6854 12.2912 35.9075 14.2022L34.9812 16.2418C34.9812 16.2418 36.0435 14.1479 36.3199 13.7725C36.5962 13.397 37.1058 12.3802 38.6184 12.9245L40.4365 13.6822C40.4365 13.6822 38.9921 13.0381 38.2963 12.4394C37.6005 11.8407 37.7556 10.6127 39.0712 7.87321Z" fill="white" stroke="white" stroke-width="0.0889285" stroke-miterlimit="10"/>
<defs>
<linearGradient id="paint0_linear_798_2381" x1="42.0713" y1="61.4053" x2="42.0713" y2="71.4079" gradientUnits="userSpaceOnUse">
<stop stop-color="#D4F938"/>
<stop offset="1" stop-color="#58F28A"/>
</linearGradient>
<linearGradient id="paint1_linear_798_2381" x1="42.1525" y1="16.6498" x2="42.1525" y2="60.2677" gradientUnits="userSpaceOnUse">
<stop offset="0.416667" stop-color="#D4F938"/>
<stop offset="1" stop-color="#58F28A"/>
</linearGradient>
</defs>
</svg>
