<svg width="81" height="60" viewBox="0 0 81 60" fill="none" xmlns="http://www.w3.org/2000/svg">
<path d="M0.745117 26.1953L25.9436 11.6651L76.3396 40.7252L51.1414 55.2551L0.745117 26.1953Z" fill="white" fill-opacity="0.1"/>
<path d="M3.7207 18.6531L25.6215 6.02443L69.4223 31.2816L47.5218 43.91L3.7207 18.6531Z" fill="#E0FF5F"/>
<path d="M47.5219 41.3843L65.042 31.2816L25.6217 8.55098L8.10156 18.6535L47.5219 41.3843Z" fill="url(#paint0_linear_798_2455)"/>
<path d="M43.1421 21.1785C39.5285 19.0948 33.6155 19.0948 30.0021 21.1785C26.3888 23.2622 26.3885 26.6717 30.0021 28.7553C33.6158 30.839 39.5288 30.839 43.1421 28.7553C46.7555 26.6717 46.7555 23.2622 43.1421 21.1785Z" fill="#E0FF5F"/>
<path d="M43.1419 16.1271L21.2417 28.7555L30.0019 33.8067L51.9021 21.1783L43.1422 16.1271H43.1419Z" fill="#FDFDFD"/>
<path d="M3.72168 26.2296L47.5221 51.4861V43.9093L3.72168 18.6525V26.2293V26.2296Z" fill="#1D974F"/>
<path d="M69.4222 31.2817V38.8585L47.522 51.4869V43.9101L69.4222 31.2817Z" fill="#36D068"/>
<path d="M21.2417 28.7563V36.3332L30.0019 41.3844V33.8075L21.2417 28.7563Z" fill="#DEDEDE"/>
<mask id="mask0_798_2455" style="mask-type:luminance" maskUnits="userSpaceOnUse" x="3" y="6" width="67" height="38">
<path d="M3.7207 18.6534L25.6215 6.02473L69.4223 31.2819L47.5218 43.9103L3.7207 18.6534Z" fill="white"/>
</mask>
<g mask="url(#mask0_798_2455)">
<path d="M3.7213 21.1784C1.3123 19.7892 1.3123 17.516 3.7213 16.1271C6.1303 14.7379 10.0722 14.7379 12.4815 16.1271C14.8905 17.5163 14.8905 19.7895 12.4815 21.1784C10.0725 22.5673 6.1303 22.5676 3.7213 21.1784Z" fill="#E0FF5F"/>
<path d="M21.2413 11.0756C18.8323 9.68638 18.8323 7.41326 21.2413 6.02435C23.6503 4.63545 27.5922 4.63514 30.0015 6.02435C32.4108 7.41357 32.4105 9.68669 30.0015 11.0756C27.5925 12.4645 23.6503 12.4648 21.2413 11.0756Z" fill="#E0FF5F"/>
<path d="M43.1422 43.909C40.7332 42.5197 40.7332 40.2466 43.1422 38.8577C45.5512 37.4688 49.4931 37.4685 51.9024 38.8577C54.3114 40.2469 54.3114 42.52 51.9024 43.909C49.4934 45.2982 45.5512 45.2982 43.1422 43.909Z" fill="#E0FF5F"/>
<path d="M60.6622 33.8064C58.2532 32.4172 58.2532 30.1441 60.6622 28.7552C63.0712 27.366 67.0131 27.366 69.4224 28.7552C71.8314 30.1444 71.8314 32.4175 69.4224 33.8064C67.0134 35.1956 63.0712 35.1956 60.6622 33.8064Z" fill="#E0FF5F"/>
</g>
<path d="M7.19971 12.629L29.1005 0.000289917L72.9013 25.2574L51.0008 37.8858L7.19971 12.629Z" fill="#E0FF5F"/>
<path d="M51.0004 35.3602L68.5205 25.2574L29.1002 2.52684L11.5801 12.6293L51.0004 35.3602Z" fill="url(#paint1_linear_798_2455)"/>
<path d="M46.6206 15.1555C43.007 13.0719 37.094 13.0719 33.4806 15.1555C29.8673 17.2392 29.867 20.6487 33.4806 22.7324C37.0943 24.816 43.0073 24.816 46.6206 22.7324C50.234 20.6487 50.234 17.2392 46.6206 15.1555Z" fill="#E0FF5F"/>
<path d="M46.6204 10.103L24.7202 22.7314L33.4804 27.7826L55.3807 15.1542L46.6207 10.103H46.6204Z" fill="#FDFDFD"/>
<path d="M7.19971 20.2067L51.0002 45.4632V37.8863L7.19971 12.6295V20.2064V20.2067Z" fill="#1D974F"/>
<path d="M72.9007 25.2575V32.8344L51.0005 45.4628V37.8859L72.9007 25.2575Z" fill="#36D068"/>
<path d="M24.7202 22.7322V30.309L33.4804 35.3603V27.7834L24.7202 22.7322Z" fill="#DEDEDE"/>
<mask id="mask1_798_2455" style="mask-type:luminance" maskUnits="userSpaceOnUse" x="7" y="0" width="66" height="38">
<path d="M7.19971 12.629L29.1005 0.000289917L72.9013 25.2574L51.0008 37.8858L7.19971 12.629Z" fill="white"/>
</mask>
<g mask="url(#mask1_798_2455)">
<path d="M7.19981 15.1559C4.79082 13.7667 4.79082 11.4935 7.19981 10.1046C9.60881 8.71543 13.5507 8.71543 15.96 10.1046C18.369 11.4939 18.369 13.767 15.96 15.1559C13.551 16.5448 9.60881 16.5451 7.19981 15.1559Z" fill="#E0FF5F"/>
<path d="M24.7198 5.0531C22.3108 3.66389 22.3108 1.39077 24.7198 0.00186265C27.1288 -1.38704 31.0707 -1.38735 33.48 0.00186265C35.8894 1.39108 35.889 3.66419 33.48 5.0531C31.071 6.44201 27.1288 6.44231 24.7198 5.0531Z" fill="#E0FF5F"/>
<path d="M46.6207 37.8865C44.2117 36.4972 44.2117 34.2241 46.6207 32.8352C49.0297 31.4463 52.9716 31.446 55.3809 32.8352C57.7899 34.2244 57.7899 36.4976 55.3809 37.8865C52.9719 39.2757 49.0297 39.2757 46.6207 37.8865Z" fill="#E0FF5F"/>
<path d="M64.1407 27.7839C61.7317 26.3947 61.7317 24.1216 64.1407 22.7327C66.5497 21.3435 70.4916 21.3435 72.901 22.7327C75.31 24.1219 75.31 26.395 72.901 27.7839C70.492 29.1731 66.5497 29.1731 64.1407 27.7839Z" fill="#E0FF5F"/>
</g>
<path d="M74.8191 18.0325C74.8191 18.0325 74.1051 20.7985 74.1115 21.4653C74.118 22.1321 73.6788 23.382 75.4867 24.1131C75.4867 24.1131 77.5876 24.8728 78.1639 24.9372C78.1639 24.9372 75.9538 24.4008 75.3461 24.4013C74.7384 24.4018 73.5318 24.2474 72.729 26.7313L71.9652 29.4596C71.9652 29.4596 72.6414 26.5691 72.6796 25.9818C72.7177 25.3944 73.0522 23.9959 71.1442 23.3087L68.7667 22.5834C68.7667 22.5834 70.6899 23.1186 71.8512 23.096C73.0125 23.0734 73.8624 21.7545 74.8191 18.0325Z" fill="#33B568" stroke="#33B568" stroke-width="0.277825" stroke-miterlimit="10"/>
<path d="M6.70503 31.1059C6.70503 31.1059 6.37937 32.3675 6.38233 32.6717C6.38528 32.9758 6.18495 33.5459 7.00955 33.8794C7.00955 33.8794 7.96784 34.2259 8.23069 34.2553C8.23069 34.2553 7.22263 34.0106 6.94545 34.0108C6.66826 34.011 6.11791 33.9407 5.75173 35.0736L5.40332 36.318C5.40332 36.318 5.71178 34.9996 5.72917 34.7317C5.74656 34.4638 5.89914 33.8259 5.02888 33.5125L3.94443 33.1816C3.94443 33.1816 4.82163 33.4258 5.35133 33.4155C5.88103 33.4051 6.26868 32.8036 6.70503 31.1059Z" fill="#33B568" stroke="#33B568" stroke-width="0.277825" stroke-miterlimit="10"/>
<ellipse cx="6.65757" cy="7.47804" rx="0.607272" ry="0.604753" fill="#33B568"/>
<ellipse cx="49.0809" cy="59.0225" rx="0.98133" ry="0.977258" fill="#33B568"/>
<ellipse cx="42.4833" cy="4.03335" rx="1.19861" ry="1.19363" fill="#33B568"/>
<defs>
<linearGradient id="paint0_linear_798_2455" x1="36.5718" y1="8.55098" x2="36.5718" y2="41.3843" gradientUnits="userSpaceOnUse">
<stop stop-color="#54DD67"/>
<stop offset="1" stop-color="#D5FA39"/>
</linearGradient>
<linearGradient id="paint1_linear_798_2455" x1="40.0503" y1="2.52684" x2="40.0503" y2="35.3602" gradientUnits="userSpaceOnUse">
<stop stop-color="#54DD67"/>
<stop offset="1" stop-color="#D5FA39"/>
</linearGradient>
</defs>
</svg>
