<svg width="952" height="588" viewBox="0 0 952 588" fill="none" xmlns="http://www.w3.org/2000/svg">
<path opacity="0.2" d="M1639.48 413.216L1639.58 413.026L1639.24 412.835L1639.05 412.495L1638.86 412.601L1601.95 391.258L1601.65 390.727L1601.35 390.897L1564.63 369.659L1564.22 368.959L1563.82 369.193L1526.99 347.891L1526.59 347.191L1526.18 347.424L1489.46 326.187L1489.16 325.657L1488.86 325.826L1451.82 304.398L1451.52 303.888L1451.22 304.058L1414.5 282.821L1414.1 282.121L1413.69 282.354L1376.63 260.925L1376.44 260.607L1376.25 260.713L1339.31 239.37L1339.01 238.86L1338.71 239.03L1302.01 217.814L1301.61 217.114L1301.2 217.347L1264.16 195.918L1263.97 195.579L1263.78 195.685L1226.86 174.341L1226.56 173.811L1226.27 173.981L1189.2 152.552L1188.91 152.043L1188.61 152.213L1151.67 130.848L1151.48 130.508L1151.29 130.614L1114.03 109.059L1113.84 108.719L1113.65 108.825L1076.71 87.4816L1076.42 86.9724L1076.12 87.1422L1039.2 65.7985L1039.01 65.4378L1038.82 65.5651L1001.57 44.0093L1001.37 43.6698L1001.18 43.7759L964.267 22.4322L963.97 21.9018L963.673 22.0716L926.417 0.515747L926.332 0.367218L926.247 0.409637L889.118 -21.0613L888.927 -21.4008L888.736 -21.2947L851.82 -42.6384L851.523 -43.1688L851.226 -42.999L813.97 -64.5336L813.885 -64.7034L813.8 -64.6397L776.672 -86.1107L776.459 -86.4714L776.269 -86.3441L739.013 -107.9L738.822 -108.239L738.631 -108.133L701.714 -129.477L701.417 -130.007L701.12 -129.838L663.864 -151.393L663.779 -151.542L663.694 -151.478L626.566 -172.949L626.375 -173.289L626.163 -173.183L589.246 -194.526L588.949 -195.057L588.652 -194.887L551.396 -216.422L551.312 -216.591L551.227 -216.549L514.098 -238.02L513.886 -238.381L513.695 -238.253L476.163 -259.661L475.972 -260L475.781 -259.894L475.59 -260L475.399 -259.661L438.271 -238.19L438.186 -238.232L438.101 -238.083L400.612 -216.422L400.527 -216.485L400.442 -216.316L363.313 -194.845L363.122 -194.951L362.931 -194.632L325.781 -173.161L325.697 -173.204L325.612 -173.055L288.144 -151.393L288.059 -151.457L287.974 -151.287L250.824 -129.816L250.633 -129.922L250.442 -129.604L213.165 -108.048L212.974 -108.154L212.783 -107.815L175.633 -86.3441L175.548 -86.3865L175.464 -86.238L100.655 -42.9778L100.464 -43.0839L100.273 -42.7657L63.1229 -21.2947L63.038 -21.3371L62.9532 -21.1886L25.4639 0.473297L25.379 0.430878L25.2942 0.579376L-11.8557 22.0504L-12.0466 21.9442L-12.2375 22.2625L-49.5147 43.8183L-49.7057 43.7122L-49.8966 44.0517L-87.0253 65.5226L-87.1102 65.459L-87.195 65.6075L-124.345 87.0785L-124.536 86.9724L-124.727 87.2907L-162.004 108.846L-162.195 108.74L-162.386 109.08L-199.536 130.551L-199.621 130.508L-199.705 130.657L-236.983 152.213L-237.28 152.043L-237.577 152.552L-274.514 173.917L-274.705 173.811L-274.896 174.129L-312.173 195.685L-312.364 195.579L-312.555 195.918L-349.493 217.283L-349.79 217.114L-350.087 217.623L-387.025 238.988L-387.216 238.882L-387.407 239.2L-424.684 260.756L-424.875 260.65L-425.066 260.989L-462.003 282.354L-462.3 282.184L-462.576 282.672L-499.641 304.101L-499.938 303.931L-500.235 304.44L-537.173 325.805L-537.364 325.699L-537.555 326.017L-574.492 347.382L-574.768 347.212L-575.065 347.7L-612.13 369.129L-612.427 368.959L-612.724 369.468L-649.662 390.833L-649.832 390.727L-650.023 391.045L-687.279 412.622L-687.47 412.516L-687.661 412.856L-688 413.047L-687.894 413.238L-688 413.429L-687.661 413.62L-687.47 413.959L-687.279 413.853L-612.491 457.071L-612.385 457.24L-612.279 457.177L-574.832 478.817L-574.726 478.987L-574.62 478.924L-537.321 500.479L-500.044 522.014L-499.917 522.226L-499.79 522.162L-462.385 543.782L-462.258 543.994L-462.131 543.93L-424.875 565.465L-424.832 565.529H-424.79L-387.194 587.233V587.297H-387.131L-349.896 608.81L-349.748 609.065L-349.599 608.98L-312.385 630.493L-312.322 630.599L-312.258 630.557L-274.726 652.261L-274.663 652.367L-274.599 652.325L-237.407 673.817L-237.237 674.114L-237.067 674.008L-162.237 717.268L-162.152 717.395L-162.068 717.353L-124.578 739.015L-124.493 739.142L-124.409 739.1L-49.7482 782.254L-49.642 782.445L-49.5359 782.381L-12.0891 804.022L-11.983 804.192L-11.877 804.128L25.4214 825.684L63.0593 847.431L100.336 868.986L100.464 869.198L100.591 869.135L137.995 890.754L138.123 890.967L138.25 890.903L175.527 912.438V912.501H175.591L212.826 934.015L212.974 934.269L213.123 934.184L250.485 955.782L250.633 956.037L250.782 955.952L287.995 977.466L288.059 977.572L288.122 977.529L325.654 999.234L325.718 999.318L325.781 999.276L362.974 1020.77L363.144 1021.04L363.313 1020.96L400.484 1042.45L400.569 1042.58L400.654 1042.54L438.143 1064.2L438.228 1064.33L438.313 1064.28L475.463 1085.75L475.654 1086.09L475.845 1085.99L476.036 1086.09L476.227 1085.75L513.504 1064.22L513.695 1064.33L513.886 1063.99L551.036 1042.52L551.12 1042.56L551.205 1042.43L588.504 1020.87L588.78 1021.04L589.055 1020.56L626.014 999.191L626.184 999.276L626.354 998.979L663.546 977.487L663.588 977.529L663.652 977.423L700.993 955.846L701.247 955.995L701.502 955.528L738.503 934.142L738.652 934.227L738.8 933.972L776.162 912.374L776.311 912.459L776.459 912.204L813.482 890.797L813.715 890.924L813.949 890.5L851.12 869.008L851.375 869.156L851.629 868.732L888.673 847.324L888.8 847.409L888.927 847.197L926.205 825.663L963.63 804.022L963.842 804.149L964.055 803.767L1001.16 782.318L1001.27 782.381L1001.37 782.211L1038.82 760.571L1038.93 760.634L1039.03 760.465L1076.16 739.015L1076.35 739.121L1076.54 738.782L1113.69 717.311L1113.78 717.353L1113.86 717.226L1151.35 695.564L1151.44 695.606L1151.52 695.458L1188.69 673.966L1188.86 674.072L1189.03 673.775L1226.35 652.198L1226.52 652.304L1226.69 652.007L1263.88 630.514L1263.95 630.557L1263.99 630.451L1301.33 608.874L1301.59 609.022L1301.84 608.556L1338.84 587.169L1338.99 587.254L1339.14 587L1376.37 565.486H1376.42L1376.46 565.444L1413.84 543.824L1414.07 543.952L1414.31 543.527L1451.35 522.12L1451.48 522.184L1451.61 521.972L1489.01 500.352L1489.14 500.416L1489.27 500.204L1526.35 478.775L1526.56 478.902L1526.78 478.52L1563.99 457.007L1564.2 457.134L1564.41 456.752L1601.52 435.303L1601.63 435.366L1601.73 435.197L1638.86 413.726L1639.05 413.832L1639.24 413.492L1639.58 413.301L1639.48 413.11V413.216ZM-648.771 434.878L-612.173 413.726L-575.681 434.815L-612.279 455.967L-648.771 434.878ZM-611.112 413.11L-574.62 392.021L-538.128 413.11L-574.62 434.199L-611.091 413.11H-611.112ZM475.909 392.149L512.188 413.11L475.909 434.072L439.629 413.11L475.909 392.149ZM438.589 412.516L401.991 391.364L438.271 370.402L474.869 391.555L438.589 412.516ZM513.249 413.726L549.741 434.815L513.461 455.776L476.969 434.687L513.249 413.726ZM514.31 413.11L550.802 392.021L587.294 413.11L550.802 434.199L514.31 413.11ZM513.249 412.495L476.969 391.533L513.461 370.444L549.741 391.406L513.249 412.495ZM475.909 390.918L439.31 369.765L475.802 348.676L512.401 369.829L475.909 390.918ZM438.25 369.15L401.779 348.061L438.271 326.972L474.742 348.061L438.25 369.15ZM437.189 369.765L400.909 390.727L364.417 369.638L400.697 348.676L437.189 369.765ZM399.848 391.342L363.25 412.495L326.758 391.406L363.356 370.253L399.827 391.342H399.848ZM400.909 391.958L437.507 413.11L400.909 434.263L364.31 413.11L400.909 391.958ZM438.568 413.726L474.848 434.687L438.25 455.84L401.969 434.878L438.568 413.726ZM475.887 435.303L512.38 456.392L475.781 477.544L439.289 456.455L475.887 435.303ZM513.419 457.007L550.017 478.16L513.419 499.312L476.821 478.16L513.419 457.007ZM514.48 456.392L550.76 435.43L587.358 456.583L551.078 477.544L514.48 456.392ZM551.799 434.815L588.292 413.726L624.89 434.878L588.398 455.967L551.799 434.815ZM589.331 413.11L625.929 391.958L662.528 413.11L625.929 434.263L589.331 413.11ZM588.27 412.495L551.778 391.406L588.376 370.253L624.869 391.342L588.27 412.495ZM550.739 390.791L514.459 369.829L551.057 348.676L587.337 369.638L550.739 390.791ZM513.398 369.214L476.8 348.061L513.398 326.908L549.996 348.061L513.398 369.214ZM475.739 347.446L439.268 326.357L475.866 305.204L512.358 326.293L475.76 347.446H475.739ZM438.207 325.763L401.8 304.716L438.398 283.563L474.805 304.61L438.207 325.763ZM437.146 326.378L400.654 347.467L364.247 326.42L400.739 305.331L437.146 326.378ZM399.615 348.082L363.334 369.044L326.927 347.997L363.207 327.036L399.593 348.082H399.615ZM362.295 369.659L325.697 390.812L289.311 369.765L325.909 348.613L362.316 369.659H362.295ZM324.636 391.427L288.144 412.516L251.736 391.47L288.229 370.381L324.636 391.427ZM325.697 392.042L362.189 413.132L325.697 434.221L289.204 413.132L325.697 392.042ZM363.228 413.747L399.827 434.9L363.334 455.989L326.736 434.836L363.228 413.747ZM400.887 435.515L437.167 456.477L400.675 477.566L364.395 456.604L400.887 435.515ZM438.207 457.092L474.699 478.181L438.228 499.27L401.736 478.181L438.228 457.092H438.207ZM475.739 478.796L512.337 499.949L475.845 521.038L439.247 499.885L475.718 478.796H475.739ZM476.906 521.653L513.398 500.564L549.678 521.526L513.186 542.615L476.906 521.653ZM512.125 543.23L475.718 564.277L439.438 543.315L475.845 522.269L512.125 543.23ZM474.784 521.653L438.377 542.7L401.779 521.547L438.186 500.501L474.784 521.653ZM437.337 543.294L400.866 564.383L364.268 543.23L400.739 522.141L437.337 543.294ZM438.398 543.909L474.678 564.871L438.207 585.96L401.927 564.998L438.419 543.909H438.398ZM475.739 565.486L512.337 586.639L475.845 607.728L439.247 586.575L475.718 565.486H475.739ZM476.8 564.871L513.207 543.824L549.805 564.977L513.398 586.003L476.8 564.85V564.871ZM514.246 543.209L550.739 522.12L587.337 543.273L550.845 564.362L514.246 543.209ZM551.778 521.526L588.376 500.373L624.975 521.526L588.376 542.679L551.778 521.526ZM550.717 520.911L514.437 499.949L551.036 478.796L587.316 499.758L550.717 520.911ZM552.096 478.181L588.376 457.219L624.656 478.181L588.376 499.143L552.096 478.181ZM589.437 456.604L625.929 435.515L662.209 456.477L625.717 477.566L589.437 456.604ZM626.969 434.9L663.567 413.747L699.847 434.709L663.249 455.861L626.969 434.9ZM664.628 413.132L700.908 392.17L737.188 413.132L700.908 434.093L664.628 413.132ZM663.567 412.516L626.969 391.364L663.249 370.402L699.847 391.555L663.567 412.516ZM625.908 390.748L589.416 369.659L625.696 348.697L662.188 369.787L625.908 390.748ZM588.376 369.065L552.096 348.103L588.376 327.142L624.656 348.103L588.376 369.065ZM551.036 347.488L514.437 326.335L550.717 305.374L587.316 326.526L551.036 347.488ZM513.377 325.72L476.884 304.631L513.165 283.669L549.656 304.758L513.377 325.72ZM475.845 304.016L439.438 282.969L475.718 262.007L512.125 283.033L475.845 303.995V304.016ZM438.398 282.375L401.927 261.286L438.207 240.324L474.678 261.413L438.398 282.375ZM437.337 282.99L400.739 304.143L364.268 283.054L400.866 261.901L437.337 282.99ZM399.678 304.758L363.186 325.847L326.694 304.758L363.186 283.669L399.657 304.758H399.678ZM362.146 326.463L325.866 347.424L289.374 326.335L325.654 305.374L362.146 326.463ZM324.806 348.04L288.207 369.193L251.736 348.103L288.335 326.951L324.827 348.04H324.806ZM287.146 369.808L250.654 390.897L214.162 369.808L250.654 348.719L287.146 369.808ZM249.615 391.491L213.207 412.537L176.715 391.448L213.123 370.402L249.615 391.491ZM250.676 392.106L287.083 413.153L250.697 434.199L214.29 413.153L250.697 392.106H250.676ZM288.122 413.747L324.593 434.836L288.186 455.883L251.715 434.794L288.122 413.747ZM325.654 435.451L362.252 456.604L325.845 477.651L289.247 456.498L325.654 435.472V435.451ZM363.313 457.219L399.593 478.181L363.207 499.228L326.927 478.266L363.334 457.219H363.313ZM400.633 478.796L437.125 499.885L400.718 520.932L364.226 499.843L400.612 478.796H400.633ZM399.657 521.526L363.186 542.615L326.694 521.526L363.186 500.437L399.678 521.526H399.657ZM362.125 543.209L325.591 564.341L289.098 543.252L325.633 522.12L362.125 543.209ZM363.186 543.824L399.784 564.977L363.25 586.087L326.651 564.935L363.186 543.824ZM400.845 565.592L437.125 586.554L400.59 607.664L364.31 586.703L400.845 565.592ZM438.186 587.169L474.784 608.322L438.271 629.432L401.672 608.28L438.207 587.169H438.186ZM475.845 608.937L512.337 630.026L475.824 651.137L439.331 630.048L475.866 608.937H475.845ZM476.906 608.322L513.398 587.233L549.869 608.322L513.398 629.411L476.906 608.322ZM514.437 586.618L550.845 565.592L587.316 586.681L550.908 607.707L514.437 586.618ZM551.884 564.977L588.355 543.888L624.826 564.977L588.355 586.066L551.884 564.977ZM589.416 543.273L626.014 522.12L662.485 543.209L625.887 564.362L589.395 543.273H589.416ZM627.075 521.505L663.355 500.543L699.847 521.632L663.567 542.594L627.096 521.505H627.075ZM626.014 520.889L589.416 499.737L625.696 478.775L662.294 499.928L626.014 520.889ZM626.736 478.16L663.228 457.071L699.826 478.223L663.334 499.312L626.736 478.16ZM664.267 456.455L700.866 435.303L737.464 456.455L700.866 477.608L664.267 456.455ZM701.926 434.687L738.206 413.726L774.805 434.878L738.525 455.84L701.926 434.687ZM739.267 413.11L775.865 391.958L812.464 413.11L775.865 434.263L739.267 413.11ZM738.206 412.495L701.926 391.533L738.525 370.381L774.805 391.342L738.206 412.495ZM700.866 390.918L664.267 369.765L700.866 348.613L737.464 369.765L700.866 390.918ZM663.207 369.15L626.714 348.061L663.313 326.908L699.805 347.997L663.207 369.15ZM625.675 347.467L589.395 326.505L625.993 305.352L662.273 326.314L625.675 347.467ZM588.355 325.89L551.757 304.737L588.355 283.584L624.953 304.737L588.355 325.89ZM550.696 304.122L514.204 283.033L550.802 261.88L587.273 282.969L550.675 304.122H550.696ZM513.165 282.439L476.757 261.392L513.355 240.239L549.763 261.286L513.165 282.439ZM475.718 260.798L439.247 239.709L475.845 218.556L512.337 239.645L475.739 260.798H475.718ZM438.186 239.115L401.651 218.005L438.25 196.852L474.763 217.962L438.165 239.115H438.186ZM437.125 239.73L400.845 260.692L364.31 239.582L400.59 218.62L437.125 239.73ZM399.784 261.307L363.186 282.46L326.651 261.35L363.25 240.197L399.784 261.307ZM362.125 283.075L325.633 304.164L289.098 283.054L325.591 261.965L362.125 283.075ZM324.593 304.78L288.313 325.741L251.779 304.61L288.059 283.648L324.593 304.758V304.78ZM287.274 326.357L250.676 347.509L214.12 326.378L250.718 305.225L287.253 326.357H287.274ZM249.615 348.125L213.123 369.214L176.567 348.082L213.059 326.993L249.615 348.103V348.125ZM212.083 369.829L175.676 390.876L139.12 369.744L175.527 348.719L212.083 369.85V369.829ZM174.636 391.47L138.144 412.559L101.588 391.427L138.08 370.338L174.636 391.47ZM175.697 392.085L212.189 413.174L175.697 434.263L139.226 413.174L175.697 392.085ZM213.229 413.768L249.636 434.815L213.144 455.904L176.737 434.857L213.229 413.768ZM250.676 435.409L287.168 456.498L250.676 477.587L214.183 456.498L250.676 435.409ZM288.207 457.092L324.806 478.245L288.313 499.334L251.715 478.181L288.186 457.092H288.207ZM325.866 478.86L362.146 499.822L325.654 520.911L289.374 499.949L325.866 478.86ZM324.615 521.526L288.08 542.636L251.8 521.674L288.335 500.564L324.615 521.526ZM287.019 543.252L250.57 564.319L214.311 543.358L250.739 522.29L287.019 543.252ZM288.08 543.867L324.572 564.956L288.122 586.024L251.652 564.935L288.101 543.867H288.08ZM325.612 565.55L362.21 586.703L325.739 607.771L289.141 586.618L325.591 565.55H325.612ZM363.271 587.318L399.551 608.28L363.08 629.369L326.8 608.386L363.271 587.297V587.318ZM400.612 608.895L437.21 630.048L400.718 651.137L364.12 629.984L400.59 608.895H400.612ZM438.271 630.663L474.763 651.752L438.271 672.841L401.8 651.752L438.292 630.663H438.271ZM475.802 652.367L512.337 673.478L475.845 694.588L439.31 673.456L475.802 652.367ZM476.863 651.752L513.377 630.642L549.911 651.752L513.398 672.862L476.863 651.752ZM514.437 630.026L550.908 608.937L587.422 630.048L550.951 651.137L514.416 630.026H514.437ZM551.969 608.343L588.376 587.297L624.89 608.407L588.504 629.454L551.99 608.343H551.969ZM589.416 586.703L625.908 565.614L662.422 586.724L625.951 607.813L589.437 586.703H589.416ZM626.948 565.019L663.546 543.867L700.038 564.977L663.44 586.13L626.927 565.019H626.948ZM664.607 543.252L700.887 522.29L737.379 543.379L701.099 564.341L664.586 543.23L664.607 543.252ZM701.926 521.674L738.419 500.585L774.911 521.674L738.44 542.764L701.948 521.674H701.926ZM700.866 521.059L664.373 499.97L700.866 478.881L737.337 499.97L700.844 521.059H700.866ZM701.926 478.287L738.525 457.134L775.017 478.223L738.419 499.376L701.948 478.287H701.926ZM739.585 456.519L775.865 435.557L812.336 456.646L776.056 477.608L739.585 456.519ZM776.926 434.942L813.524 413.789L850.017 434.878L813.418 456.031L776.948 434.942H776.926ZM814.585 413.174L851.077 392.085L887.548 413.174L851.077 434.263L814.585 413.174ZM813.524 412.559L776.926 391.406L813.418 370.317L850.017 391.47L813.524 412.559ZM775.865 390.791L739.585 369.829L776.078 348.74L812.358 369.702L775.865 390.791ZM738.525 369.214L701.926 348.061L738.397 326.972L774.996 348.125L738.503 369.214H738.525ZM700.866 347.446L664.373 326.357L700.866 305.268L737.358 326.357L700.866 347.446ZM663.334 325.741L627.054 304.78L663.546 283.691L699.826 304.652L663.334 325.741ZM626.014 304.164L589.416 283.012L625.908 261.923L662.506 283.075L626.014 304.164ZM588.355 282.396L551.884 261.307L588.376 240.218L624.847 261.307L588.355 282.396ZM550.823 260.692L514.437 239.645L550.93 218.556L587.337 239.603L550.845 260.692H550.823ZM513.377 239.051L476.884 217.962L513.377 196.873L549.869 217.962L513.377 239.051ZM475.845 217.347L439.331 196.237L475.824 175.148L512.337 196.258L475.845 217.347ZM438.271 195.621L401.906 174.617L438.398 153.528L474.763 174.532L438.271 195.621ZM437.21 196.237L400.612 217.389L364.268 196.385L400.866 175.232L437.21 196.237ZM399.551 218.005L363.271 238.966L326.927 217.962L363.207 197L399.551 218.005ZM362.21 239.582L325.612 260.734L289.268 239.73L325.866 218.578L362.21 239.582ZM324.551 261.35L288.059 282.439L251.715 261.435L288.207 240.346L324.551 261.35ZM287.019 283.033L250.739 303.995L214.417 282.99L250.697 262.029L287.04 283.033H287.019ZM249.678 304.61L213.08 325.763L176.758 304.758L213.356 283.606L249.7 304.61H249.678ZM212.019 326.378L175.527 347.467L139.205 326.463L175.697 305.374L212.019 326.378ZM174.488 348.061L138.08 369.108L101.758 348.103L138.144 327.057L174.466 348.061H174.488ZM137.041 369.702L100.549 390.791L64.2261 369.787L100.718 348.697L137.041 369.702ZM99.509 391.385L62.9532 412.516L26.6307 391.533L63.1866 370.402L99.509 391.385ZM100.57 392L137.126 413.132L100.57 434.263L63.9928 413.132L100.549 392H100.57ZM138.186 413.747L174.657 434.836L138.102 455.967L101.609 434.878L138.165 413.747H138.186ZM175.718 435.451L212.125 456.477L175.57 477.608L139.162 456.583L175.718 435.451ZM213.165 457.092L249.636 478.181L213.08 499.312L176.588 478.223L213.144 457.092H213.165ZM250.697 478.796L287.295 499.949L250.76 521.08L214.162 499.928L250.697 478.796ZM249.7 521.674L213.271 542.742L176.673 521.59L213.101 500.543L249.7 521.696V521.674ZM212.21 543.336L175.824 564.362L139.226 543.209L175.612 522.184L212.21 543.336ZM213.271 543.952L249.53 564.913L213.144 585.939L176.864 564.977L213.25 543.952H213.271ZM250.591 565.529L287.062 586.618L250.697 607.643L214.205 586.554L250.591 565.529ZM288.122 587.233L324.721 608.386L288.356 629.411L251.758 608.258L288.122 587.233ZM325.76 609.001L362.04 629.963L325.675 650.988L289.395 630.026L325.76 609.001ZM363.08 630.578L399.678 651.731L363.313 672.756L326.715 651.604L363.08 630.578ZM400.718 652.346L437.189 673.435L400.845 694.439L364.353 673.35L400.718 652.346ZM438.25 674.05L474.784 695.182L438.44 716.186L401.906 695.055L438.25 674.05ZM475.824 695.776L512.146 716.78L475.824 737.784L439.501 716.78L475.824 695.776ZM476.884 695.161L513.377 674.05L549.72 695.055L513.207 716.165L476.863 695.161H476.884ZM514.437 673.456L550.951 652.346L587.294 673.35L550.781 694.461L514.437 673.456ZM551.99 651.731L588.461 630.642L624.826 651.667L588.355 672.756L552.012 651.731H551.99ZM589.522 630.026L625.908 608.98L662.273 630.005L625.887 651.052L589.522 630.026ZM626.969 608.386L663.44 587.297L699.805 608.322L663.334 629.411L626.969 608.386ZM664.501 586.681L701.099 565.529L737.485 586.554L700.887 607.707L664.522 586.681H664.501ZM702.139 564.913L738.419 543.93L774.805 564.956L738.525 585.918L702.139 564.892V564.913ZM739.458 543.336L775.929 522.247L812.315 543.273L775.823 564.362L739.437 543.336H739.458ZM776.99 521.632L813.588 500.479L849.995 521.526L813.397 542.679L777.011 521.632H776.99ZM775.929 521.017L739.437 499.928L776.035 478.775L812.527 499.864L775.929 521.017ZM777.096 478.16L813.376 457.198L849.847 478.287L813.567 499.27L777.075 478.181L777.096 478.16ZM814.437 456.583L851.035 435.43L887.506 456.519L850.908 477.672L814.437 456.583ZM852.096 434.815L888.588 413.726L925.059 434.794L888.588 455.883L852.117 434.794L852.096 434.815ZM889.628 413.11L926.035 392.064L962.485 413.132L926.099 434.178L889.628 413.11ZM888.567 412.495L852.096 391.406L888.482 370.381L924.974 391.47L888.567 412.516V412.495ZM851.035 390.812L814.437 369.659L850.844 348.613L887.442 369.765L851.035 390.812ZM813.376 369.044L777.096 348.082L813.482 327.057L849.762 348.019L813.376 369.065V369.044ZM776.035 347.467L739.437 326.314L775.844 305.268L812.443 326.42L776.056 347.467H776.035ZM738.376 325.699L701.905 304.61L738.312 283.563L774.805 304.652L738.397 325.678L738.376 325.699ZM700.844 303.995L664.564 283.033L700.95 262.007L737.23 282.969L700.823 304.016L700.844 303.995ZM663.504 282.418L626.905 261.265L663.291 240.218L699.89 261.371L663.504 282.418ZM625.845 260.65L589.374 239.561L625.76 218.514L662.231 239.603L625.845 260.65ZM588.313 238.945L551.906 217.899L588.292 196.852L624.678 217.899L588.292 238.945H588.313ZM550.866 217.305L514.374 196.215L550.781 175.19L587.252 196.279L550.866 217.326V217.305ZM513.334 195.621L476.821 174.511L513.228 153.486L549.741 174.596L513.355 195.643L513.334 195.621ZM475.76 173.896L439.395 152.87L475.781 131.845L512.146 152.849L475.739 173.896H475.76ZM438.356 152.276L401.885 131.187L438.271 110.141L474.763 131.23L438.356 152.276ZM437.295 152.892L400.803 173.981L364.332 152.892L400.824 131.803L437.295 152.892ZM399.763 174.596L363.165 195.749L326.673 174.66L363.271 153.507L399.763 174.596ZM362.104 196.364L325.824 217.326L289.353 196.237L325.633 175.275L362.125 196.364H362.104ZM324.784 217.941L288.186 239.094L251.694 218.005L288.292 196.852L324.784 217.941ZM287.125 239.709L250.633 260.798L214.141 239.709L250.633 218.62L287.125 239.709ZM249.594 261.413L213.314 282.375L176.821 261.286L213.101 240.324L249.594 261.413ZM212.274 282.99L175.676 304.143L139.205 283.054L175.803 261.901L212.295 282.99H212.274ZM174.615 304.758L138.123 325.847L101.631 304.758L138.123 283.669L174.594 304.758H174.615ZM137.083 326.463L100.697 347.509L64.205 326.42L100.591 305.395L137.083 326.484V326.463ZM99.6363 348.103L63.1442 369.193L26.652 348.103L63.1442 327.014L99.6363 348.103ZM62.1045 369.787L25.5488 390.918L-10.9434 369.829L25.6124 348.697L62.1045 369.787ZM24.488 391.533L-11.8981 412.559L-48.369 391.47L-12.0042 370.444L24.488 391.533ZM25.5488 392.149L61.8712 413.132L25.4851 434.157L-10.8161 413.174L25.5488 392.149ZM62.9108 413.747L99.4878 434.878L63.1017 455.925L26.546 434.794L62.932 413.768L62.9108 413.747ZM100.527 435.494L137.019 456.583L100.612 477.629L64.1414 456.54L100.527 435.494ZM138.059 457.177L174.466 478.223L138.059 499.27L101.673 478.223L138.08 457.177H138.059ZM175.506 478.817L211.998 499.907L175.57 520.953L139.099 499.864L175.506 478.817ZM174.509 521.568L138.123 542.594L101.652 521.505L138.059 500.458L174.53 521.547L174.509 521.568ZM137.062 543.209L100.464 564.362L63.9716 543.273L100.57 522.12L137.041 543.209H137.062ZM138.123 543.824L174.721 564.977L138.123 586.13L101.525 564.977L138.123 543.824ZM175.782 565.592L212.062 586.554L175.464 607.707L139.184 586.745L175.782 565.592ZM213.101 587.169L249.594 608.258L212.995 629.411L176.503 608.322L213.101 587.169ZM250.633 608.874L287.231 630.026L250.633 651.179L214.035 630.026L250.633 608.874ZM288.292 630.642L324.572 651.604L287.974 672.756L251.694 651.794L288.292 630.642ZM325.633 652.219L362.231 673.371L325.633 694.524L289.035 673.371L325.633 652.219ZM363.292 673.987L399.784 695.076L363.186 716.229L326.694 695.139L363.292 673.987ZM400.824 695.691L437.358 716.823L400.76 737.975L364.204 716.844L400.803 695.691H400.824ZM438.419 717.417L474.742 738.421L438.143 759.574L401.821 738.569L438.419 717.417ZM475.802 739.036L512.295 760.125L475.696 781.278L439.225 760.189L475.824 739.036H475.802ZM476.863 738.421L513.207 717.417L549.678 738.506L513.355 759.51L476.863 738.421ZM514.246 716.801L550.76 695.691L587.252 716.78L550.717 737.89L514.246 716.801ZM551.821 695.097L588.334 673.987L624.805 695.076L588.292 716.186L551.799 695.097H551.821ZM589.395 673.393L625.866 652.304L662.337 673.393L625.866 694.482L589.395 673.393ZM626.927 651.688L663.334 630.642L699.826 651.731L663.419 672.777L626.948 651.688H626.927ZM664.373 630.048L700.844 608.959L737.315 630.048L700.844 651.137L664.373 630.048ZM701.905 608.365L738.503 587.212L774.974 608.301L738.376 629.454L701.905 608.365ZM739.564 586.597L775.844 565.635L812.315 586.724L776.035 607.686L739.564 586.597ZM776.905 565.019L813.397 543.93L849.889 565.019L813.397 586.109L776.905 565.019ZM814.437 543.315L851.035 522.162L887.506 543.252L850.908 564.404L814.416 543.315H814.437ZM852.096 521.547L888.376 500.585L924.847 521.674L888.567 542.636L852.096 521.547ZM851.035 520.932L814.628 499.885L850.908 478.902L887.315 499.949L851.035 520.911V520.932ZM851.969 478.308L888.567 457.156L924.974 478.202L888.376 499.355L851.969 478.308ZM889.606 456.54L926.077 435.451L962.485 456.498L925.992 477.587L889.585 456.54H889.606ZM927.138 434.836L963.524 413.789L999.953 434.836L963.567 455.883L927.159 434.836H927.138ZM964.585 413.195L1001.06 392.106L1037.48 413.153L1000.99 434.242L964.564 413.195H964.585ZM963.524 412.58L927.074 391.512L963.567 370.423L1000.02 391.491L963.545 412.58H963.524ZM926.014 390.897L889.543 369.808L926.035 348.719L962.506 369.808L926.014 390.897ZM888.482 369.193L851.884 348.04L888.376 326.951L924.974 348.103L888.482 369.193ZM850.823 347.424L814.543 326.463L851.035 305.374L887.315 326.335L850.823 347.424ZM813.503 325.847L776.905 304.695L813.397 283.606L849.995 304.758L813.503 325.847ZM775.844 304.079L739.352 282.99L775.844 261.901L812.315 282.99L775.844 304.079ZM738.312 282.396L702.032 261.435L738.503 240.346L774.783 261.307L738.291 282.396H738.312ZM700.972 260.819L664.373 239.667L700.866 218.578L737.464 239.73L700.972 260.819ZM663.313 239.051L626.842 217.962L663.313 196.873L699.805 217.962L663.313 239.051ZM625.781 217.347L589.395 196.3L625.887 175.211L662.273 196.258L625.781 217.347ZM588.334 195.706L551.863 174.617L588.355 153.528L624.826 174.617L588.334 195.706ZM550.802 174.002L514.289 152.892L550.781 131.803L587.294 152.913L550.802 174.002ZM513.228 152.298L476.863 131.272L513.355 110.183L549.72 131.209L513.228 152.298ZM475.802 130.678L439.331 109.589L475.824 88.5L512.316 109.589L475.824 130.678H475.802ZM438.271 108.995L401.672 87.8423L438.165 66.7532L474.763 87.9059L438.271 108.995ZM437.21 109.61L400.824 130.657L364.226 109.504L400.612 88.4576L437.21 109.61ZM399.763 131.251L363.271 152.34L326.673 131.187L363.165 110.098L399.763 131.251ZM362.231 152.934L325.633 174.087L289.035 152.934L325.633 131.781L362.231 152.934ZM324.572 174.702L288.292 195.664L251.694 174.511L287.974 153.549L324.572 174.702ZM287.231 196.279L250.633 217.432L214.035 196.279L250.633 175.126L287.231 196.279ZM249.572 218.047L213.08 239.136L176.482 217.983L212.974 196.894L249.572 218.047ZM212.041 239.73L175.761 260.692L139.162 239.539L175.442 218.578L212.041 239.73ZM174.721 261.307L138.123 282.46L101.525 261.307L138.123 240.155L174.721 261.307ZM137.062 283.075L100.57 304.164L63.9716 283.012L100.464 261.923L137.062 283.075ZM99.5302 304.78L63.1442 325.826L26.546 304.674L62.9532 283.627L99.5515 304.78H99.5302ZM62.0834 326.42L25.5912 347.509L-11.0071 326.357L25.4851 305.268L62.0834 326.42ZM24.5516 348.103L-12.0255 369.235L-48.6237 348.082L-12.0466 326.951L24.5516 348.103ZM-13.0651 369.85L-49.4299 390.876L-86.0281 369.723L-49.6633 348.719L-13.0651 369.871V369.85ZM-50.4907 391.47L-86.9192 412.537L-123.517 391.385L-87.0889 370.317L-50.4907 391.47ZM-49.4299 392.085L-12.9589 413.174L-49.3875 434.221L-85.8796 413.132L-49.4511 392.085H-49.4299ZM-11.8981 413.789L24.4031 434.772L-12.0255 455.819L-48.3266 434.836L-11.8981 413.789ZM25.4639 435.388L62.0197 456.519L25.6124 477.566L-10.9434 456.434L25.4851 435.388H25.4639ZM63.0805 457.134L99.5515 478.223L63.1442 499.27L26.652 478.181L63.0593 457.134H63.0805ZM100.612 478.839L136.998 499.885L100.591 520.932L64.1838 499.885L100.591 478.839H100.612ZM99.5515 521.526L62.9532 542.679L26.546 521.632L63.1442 500.479L99.5515 521.526ZM61.8924 543.294L25.5275 564.319L-10.8585 543.273L25.5063 522.247L61.9136 543.294H61.8924ZM62.9532 543.909L99.4453 564.998L63.0805 586.024L26.6096 564.935L62.9744 543.909H62.9532ZM100.485 565.614L137.083 586.766L100.697 607.792L64.0989 586.639L100.464 565.614H100.485ZM138.144 587.382L174.424 608.343L138.038 629.369L101.758 608.407L138.144 587.382ZM175.464 608.959L211.956 630.048L175.57 651.073L139.099 629.984L175.485 608.959H175.464ZM212.995 630.663L249.594 651.816L213.186 672.862L176.588 651.71L212.974 630.684L212.995 630.663ZM250.654 652.431L286.934 673.393L250.527 694.439L214.247 673.456L250.654 652.431ZM287.995 674.008L324.593 695.161L288.186 716.207L251.588 695.055L287.995 674.008ZM325.654 695.776L362.146 716.865L325.739 737.912L289.268 716.823L325.675 695.776H325.654ZM363.186 717.459L399.742 738.591L363.334 759.658L326.779 738.527L363.186 717.48V717.459ZM400.781 739.185L437.104 760.189L400.675 781.257L364.353 760.253L400.76 739.185H400.781ZM438.165 760.783L474.635 781.872L438.207 802.919L401.736 781.829L438.165 760.762V760.783ZM475.696 782.487L512.252 803.619L475.824 824.687L439.268 803.555L475.696 782.487ZM476.757 781.872L513.355 760.719L549.89 781.851L513.292 803.003L476.736 781.872H476.757ZM514.416 760.104L550.739 739.1L587.273 760.231L550.951 781.235L514.395 760.104H514.416ZM551.799 738.506L588.334 717.395L624.869 738.506L588.334 759.637L551.799 738.506ZM589.374 716.78L625.887 695.67L662.422 716.78L625.929 737.89L589.395 716.78H589.374ZM626.927 695.076L663.398 673.987L699.911 695.097L663.44 716.186L626.905 695.076H626.927ZM664.458 673.393L700.866 652.346L737.379 673.456L700.993 694.503L664.479 673.393H664.458ZM701.905 651.731L738.376 630.642L774.89 651.752L738.419 672.841L701.905 651.731ZM739.437 630.048L776.035 608.895L812.549 630.005L775.95 651.158L739.437 630.048ZM777.096 608.28L813.376 587.318L849.868 608.407L813.588 629.369L777.075 608.258L777.096 608.28ZM814.416 586.703L850.908 565.614L887.4 586.703L850.929 607.792L814.437 586.703H814.416ZM851.947 565.019L888.546 543.867L925.016 564.956L888.418 586.109L851.926 565.019H851.947ZM889.585 543.252L925.865 522.29L962.336 543.379L926.056 564.362L889.564 543.273L889.585 543.252ZM926.926 521.674L963.524 500.522L999.995 521.611L963.397 542.764L926.926 521.674ZM925.865 521.059L889.394 499.97L925.992 478.817L962.485 499.907L925.886 521.059H925.865ZM927.032 478.202L963.524 457.113L1000.02 478.202L963.524 499.291L927.053 478.202H927.032ZM964.564 456.498L1000.97 435.472L1037.44 456.561L1001.03 477.608L964.543 456.519L964.564 456.498ZM1002.01 434.857L1038.5 413.768L1074.97 434.857L1038.48 455.946L1002.01 434.857ZM1039.54 413.153L1076.01 392.064L1112.51 413.153L1076.01 434.242L1039.54 413.153ZM1038.48 412.537L1002.05 391.47L1038.52 370.381L1074.95 391.448L1038.48 412.537ZM1000.99 390.876L964.543 369.808L1001.03 348.719L1037.48 369.787L1001.01 390.876H1000.99ZM963.482 369.193L927.011 348.103L963.503 327.014L999.974 348.103L963.482 369.193ZM925.95 347.509L889.352 326.357L925.823 305.268L962.421 326.42L925.95 347.509ZM888.291 325.741L852.011 304.78L888.503 283.691L924.783 304.652L888.291 325.741ZM850.95 304.164L814.352 283.012L850.844 261.923L887.442 283.075L850.95 304.164ZM813.291 282.396L776.799 261.307L813.291 240.218L849.783 261.307L813.291 282.396ZM775.759 260.692L739.479 239.73L775.972 218.641L812.251 239.603L775.759 260.692ZM738.419 239.115L701.82 217.962L738.312 196.873L774.911 218.026L738.419 239.115ZM700.76 217.347L664.289 196.258L700.76 175.169L737.252 196.258L700.76 217.347ZM663.228 195.664L626.842 174.617L663.334 153.528L699.741 174.575L663.249 195.664H663.228ZM625.781 174.023L589.31 152.934L625.781 131.845L662.273 152.934L625.781 174.023ZM588.249 152.34L551.736 131.23L588.228 110.141L624.741 131.251L588.27 152.34H588.249ZM550.675 130.614L514.31 109.61L550.802 88.5212L587.167 109.547L550.675 130.636V130.614ZM513.249 108.995L476.778 87.9059L513.249 66.8169L549.741 87.9059L513.249 108.995ZM475.718 87.3119L439.119 66.1591L475.611 45.0701L512.21 66.2228L475.718 87.3119ZM438.058 65.5439L401.63 44.4973L438.101 23.4082L474.529 44.476L438.037 65.5651L438.058 65.5439ZM436.998 66.1591L400.505 87.2482L364.077 66.2016L400.548 45.1125L436.976 66.1591H436.998ZM399.466 87.8635L363.08 108.889L326.673 87.8423L363.059 66.7957L399.487 87.8423L399.466 87.8635ZM362.019 109.504L325.527 130.593L289.12 109.547L325.591 88.4576L361.998 109.504H362.019ZM324.487 131.187L287.889 152.34L251.482 131.293L288.08 110.141L324.487 131.187ZM286.828 152.955L250.548 173.917L214.141 152.87L250.421 131.887L286.828 152.934V152.955ZM249.509 174.532L212.91 195.685L176.524 174.66L213.123 153.507L249.53 174.554L249.509 174.532ZM211.85 196.3L175.357 217.389L138.971 196.364L175.442 175.275L211.828 196.3H211.85ZM174.318 218.005L138.038 238.966L101.652 217.941L137.932 196.958L174.318 217.983V218.005ZM136.998 239.582L100.4 260.734L64.0352 239.709L100.633 218.556L136.998 239.582ZM99.3393 261.35L62.8471 282.439L26.4823 261.413L62.9532 240.324L99.3181 261.35H99.3393ZM61.8075 283.054L25.4002 304.101L-10.9647 283.096L25.4214 262.05L61.7863 283.075L61.8075 283.054ZM24.3607 304.695L-12.1315 325.784L-48.4752 304.78L-12.0042 283.691L24.3607 304.716V304.695ZM-13.1711 326.399L-49.7482 347.531L-86.0917 326.526L-49.5147 305.395L-13.1711 326.399ZM-50.7877 348.146L-87.1313 369.15L-123.454 348.146L-87.1102 327.142L-50.7665 348.146H-50.7877ZM-88.1922 369.765L-124.621 390.833L-160.943 369.829L-124.515 348.761L-88.1922 369.765ZM-125.681 391.427L-162.28 412.58L-198.602 391.576L-162.004 370.423L-125.681 391.427ZM-124.621 392.042L-88.0224 413.195L-124.621 434.348L-161.219 413.195L-124.621 392.042ZM-86.9616 413.81L-50.4907 434.9L-87.0889 456.052L-123.581 434.963L-86.9828 413.81H-86.9616ZM-49.4299 435.515L-13.1287 456.498L-49.7269 477.651L-86.0281 456.668L-49.4299 435.515ZM-12.0679 457.113L24.5091 478.245L-12.0891 499.397L-48.6661 478.266L-12.0679 457.113ZM25.5488 478.86L62.0197 499.949L25.4214 521.102L-11.0494 500.013L25.5488 478.86ZM24.3818 521.717L-11.9617 542.721L-48.4327 521.632L-12.0891 500.628L24.3818 521.717ZM-13.0226 543.336L-49.5359 564.447L-86.0069 543.358L-49.4724 522.247L-13.0014 543.336H-13.0226ZM-11.9617 543.952L24.4243 564.998L-12.0891 586.109L-48.4963 565.062L-11.983 543.952H-11.9617ZM25.4851 565.614L61.9561 586.703L25.4426 607.813L-11.0494 586.724L25.4639 565.614H25.4851ZM63.0168 587.297L99.6151 608.449L63.1229 629.56L26.5247 608.407L63.038 587.297H63.0168ZM100.655 609.065L136.935 630.048L100.443 651.137L64.1625 630.175L100.655 609.065ZM137.974 630.642L174.445 651.731L137.953 672.82L101.482 651.731L137.974 630.642ZM175.506 652.346L212.104 673.499L175.612 694.588L139.014 673.435L175.506 652.346ZM213.144 674.114L249.424 695.097L212.953 716.186L176.673 695.224L213.144 674.135V674.114ZM250.463 695.691L287.062 716.844L250.591 737.933L213.993 716.78L250.463 695.712V695.691ZM288.101 717.459L324.572 738.548L288.101 759.616L251.609 738.527L288.08 717.438L288.101 717.459ZM325.633 739.163L362.189 760.295L325.739 781.363L289.183 760.231L325.654 739.163H325.633ZM363.228 760.91L399.551 781.914L363.101 802.982L326.779 781.999L363.228 760.931V760.91ZM400.59 782.508L437.061 803.598L400.612 824.665L364.141 803.576L400.59 782.508ZM438.122 804.213L474.678 825.344L438.25 846.412L401.672 825.281L438.122 804.213ZM475.739 825.96L512.04 846.943L475.611 868.01L439.31 847.027L475.739 825.96ZM476.8 825.344L513.228 804.276L549.551 825.281L513.101 846.349L476.8 825.344ZM514.289 803.661L550.887 782.508L587.209 803.513L550.611 824.665L514.289 803.661ZM551.927 781.893L588.249 760.889L624.572 781.893L588.249 802.876L551.927 781.872V781.893ZM589.289 760.295L625.823 739.163L662.167 760.168L625.611 781.299L589.289 760.295ZM626.863 738.569L663.355 717.459L699.699 738.463L663.185 759.574L626.842 738.569H626.863ZM664.416 716.865L700.887 695.776L737.23 716.78L700.76 737.869L664.416 716.865ZM701.948 695.161L738.334 674.114L774.698 695.139L738.291 716.186L701.926 695.182L701.948 695.161ZM739.395 673.499L775.865 652.41L812.23 673.435L775.759 694.524L739.395 673.499ZM776.926 651.816L813.524 630.663L849.889 651.688L813.291 672.841L776.926 651.816ZM814.564 630.048L850.844 609.065L887.23 630.09L850.95 651.052L814.564 630.026V630.048ZM851.884 608.471L888.355 587.382L924.741 608.428L888.249 629.517L851.862 608.492L851.884 608.471ZM889.415 586.766L926.014 565.614L962.4 586.66L925.802 607.813L889.415 586.787V586.766ZM927.053 564.998L963.333 544.015L999.74 565.062L963.461 586.024L927.074 564.977L927.053 564.998ZM964.394 543.421L1000.99 522.269L1037.4 543.315L1000.8 564.468L964.394 543.421ZM1002.03 521.653L1038.5 500.564L1074.91 521.611L1038.42 542.7L1002.01 521.653H1002.03ZM1000.97 521.038L964.5 499.97L1000.99 478.881L1037.44 499.949L1000.97 521.038ZM1002.03 478.266L1038.44 457.219L1074.89 478.287L1038.5 499.334L1002.05 478.266H1002.03ZM1039.48 456.625L1075.97 435.536L1112.42 456.604L1075.95 477.693L1039.5 456.625H1039.48ZM1077.01 434.921L1113.48 413.832L1149.91 434.9L1113.44 455.989L1076.99 434.921H1077.01ZM1114.54 413.216L1150.99 392.149L1187.42 413.216L1150.99 434.284L1114.54 413.216ZM1113.48 412.601L1076.99 391.512L1113.44 370.444L1149.91 391.533L1113.46 412.601H1113.48ZM1075.95 390.897L1039.52 369.829L1075.97 348.761L1112.4 369.829L1075.95 390.897ZM1038.46 369.235L1002.01 348.167L1038.48 327.099L1074.91 348.167L1038.46 369.235ZM1000.97 347.573L964.5 326.484L1000.97 305.395L1037.44 326.484L1000.97 347.552V347.573ZM963.439 325.89L926.841 304.737L963.312 283.648L999.91 304.801L963.439 325.89ZM925.78 304.122L889.5 283.16L925.992 262.071L962.272 283.054L925.802 304.143L925.78 304.122ZM888.44 282.545L851.841 261.392L888.333 240.303L924.932 261.456L888.44 282.545ZM850.781 260.777L814.288 239.688L850.781 218.599L887.251 239.688L850.759 260.777H850.781ZM813.249 239.073L776.969 218.111L813.482 197L849.762 217.983L813.27 239.073H813.249ZM775.908 217.495L739.31 196.343L775.823 175.232L812.421 196.385L775.908 217.495ZM738.249 195.728L701.778 174.638L738.291 153.528L774.762 174.617L738.249 195.728ZM700.717 174.023L664.331 152.977L700.844 131.866L737.23 152.913L700.717 174.023ZM663.27 152.382L626.778 131.293L663.313 110.183L699.784 131.272L663.27 152.382ZM625.739 130.678L589.225 109.568L625.76 88.4576L662.252 109.568L625.717 130.678H625.739ZM588.186 108.974L551.821 87.9484L588.355 66.8381L624.72 87.8635L588.186 108.974ZM550.76 87.3543L514.268 66.2652L550.823 45.155L587.294 66.244L550.76 87.3755V87.3543ZM513.228 65.65L476.63 44.4973L513.186 23.3658L549.784 44.5185L513.228 65.65ZM475.569 43.882L439.141 22.8141L475.696 1.68262L512.125 22.7505L475.569 43.882ZM438.08 22.2201L401.63 1.15222L438.186 -19.9793L474.614 1.08856L438.058 22.2201H438.08ZM437.019 22.8353L400.548 43.9244L364.098 22.8566L400.59 1.76749L437.04 22.8353H437.019ZM399.487 44.5397L363.016 65.6288L326.567 44.5609L363.059 23.4718L399.508 44.5397H399.487ZM361.955 66.244L325.569 87.2907L289.098 66.2228L325.484 45.1762L361.934 66.244H361.955ZM324.509 87.9059L288.038 108.995L251.567 87.9059L288.059 66.8169L324.53 87.8847L324.509 87.9059ZM286.977 109.61L250.379 130.763L213.908 109.674L250.506 88.5212L286.977 109.61ZM249.318 131.378L213.038 152.34L176.546 131.251L212.826 110.289L249.297 131.378H249.318ZM211.998 152.955L175.4 174.108L138.908 153.019L175.506 131.866L211.998 152.955ZM174.36 174.723L137.889 195.812L101.397 174.723L137.889 153.634L174.382 174.723H174.36ZM136.829 196.428L100.549 217.389L64.0565 196.279L100.336 175.317L136.829 196.406V196.428ZM99.509 218.005L62.9108 239.157L26.3974 218.047L62.9956 196.894L99.4878 218.005H99.509ZM61.8712 239.773L25.4002 260.862L-11.1131 239.751L25.379 218.662L61.8924 239.773H61.8712ZM24.3394 261.477L-12.0466 282.524L-48.56 261.413L-12.174 240.388L24.3394 261.498V261.477ZM-13.1074 283.139L-49.5784 304.228L-86.113 283.118L-49.6208 262.029L-13.1074 283.139ZM-50.6392 304.843L-87.2162 325.996L-123.751 304.886L-87.1738 283.754L-50.6392 304.864V304.843ZM-88.2559 326.59L-124.599 347.594L-161.134 326.463L-124.812 305.458L-88.277 326.569L-88.2559 326.59ZM-125.639 348.21L-162.068 369.277L-198.602 348.146L-162.152 327.078L-125.618 348.21H-125.639ZM-163.128 369.871L-199.727 391.024L-236.282 369.893L-199.684 348.74L-163.15 369.871H-163.128ZM-200.766 391.639L-237.067 412.644L-273.623 391.512L-237.322 370.529L-200.766 391.661V391.639ZM-199.705 392.255L-163.383 413.259L-199.705 434.263L-236.028 413.259L-199.727 392.255H-199.705ZM-162.322 413.853L-125.724 435.006L-162.068 456.01L-198.666 434.857L-162.343 413.853H-162.322ZM-124.663 435.621L-88.1922 456.71L-124.536 477.714L-161.007 456.625L-124.684 435.621H-124.663ZM-87.1313 457.325L-50.8301 478.308L-87.1738 499.312L-123.475 478.329L-87.1313 457.325ZM-49.7693 478.924L-13.1923 500.055L-49.5359 521.059L-86.113 499.928L-49.7693 478.924ZM-50.5968 521.674L-87.1313 542.785L-123.708 521.632L-87.1738 500.522L-50.5968 521.674ZM-88.171 543.4L-124.663 564.489L-161.24 543.336L-124.748 522.247L-88.171 543.379V543.4ZM-87.1102 544.015L-50.6392 565.104L-87.1313 586.193L-123.602 565.104L-87.1102 544.015ZM-49.5784 565.72L-13.1711 586.745L-49.6633 607.834L-86.0706 586.809L-49.5784 565.72ZM-12.1315 587.36L24.3394 608.449L-12.1315 629.538L-48.6237 608.449L-12.1315 587.36ZM25.4002 609.065L61.9985 630.217L25.5063 651.306L-11.0919 630.154L25.4002 609.065ZM63.0593 630.833L99.3393 651.794L62.8471 672.884L26.5671 651.922L63.0593 630.833ZM100.379 652.41L136.871 673.499L100.379 694.588L63.8868 673.499L100.379 652.41ZM137.911 674.114L174.509 695.267L138.017 716.356L101.418 695.203L137.889 674.114H137.911ZM175.57 695.882L211.85 716.844L175.357 737.933L139.078 716.971L175.57 695.882ZM212.91 717.459L249.509 738.612L213.017 759.701L176.418 738.548L212.91 717.459ZM250.57 739.227L287.062 760.316L250.57 781.405L214.077 760.316L250.57 739.227ZM288.101 760.91L324.657 782.042L288.186 803.131L251.609 781.999L288.101 760.91ZM325.718 782.657L362.04 803.64L325.548 824.729L289.247 803.746L325.718 782.657ZM363.08 804.255L399.551 825.344L363.059 846.433L326.588 825.344L363.08 804.255ZM400.612 825.938L437.189 847.07L400.718 868.159L364.141 847.027L400.633 825.938H400.612ZM438.228 847.685L474.529 868.668L438.037 889.757L401.736 868.774L438.207 847.685H438.228ZM475.59 869.283L512.188 890.436L475.696 911.525L439.098 890.373L475.59 869.283ZM476.651 868.668L513.08 847.6L549.678 868.753L513.249 889.8L476.651 868.647V868.668ZM514.119 847.006L550.569 825.938L587.167 847.091L550.717 868.159L514.119 847.006ZM551.63 825.323L588.228 804.17L624.826 825.323L588.228 846.476L551.63 825.323ZM589.289 803.555L625.611 782.572L662.209 803.725L625.908 824.708L589.31 803.555H589.289ZM626.651 781.957L663.207 760.825L699.805 781.978L663.249 803.109L626.651 781.957ZM664.246 760.231L700.738 739.121L737.337 760.274L700.844 781.384L664.246 760.231ZM701.799 738.527L738.27 717.438L774.868 738.591L738.397 759.68L701.799 738.527ZM739.331 716.823L775.738 695.776L812.336 716.929L775.929 737.975L739.331 716.823ZM776.778 695.182L813.249 674.093L849.847 695.246L813.355 716.335L776.757 695.182H776.778ZM814.31 673.499L850.908 652.346L887.506 673.499L850.908 694.651L814.31 673.499ZM851.969 651.731L888.249 630.769L924.847 651.922L888.567 672.884L851.969 651.731ZM889.309 630.154L925.802 609.065L962.4 630.217L925.908 651.306L889.309 630.154ZM926.841 608.471L963.439 587.318L1000.04 608.471L963.439 629.623L926.841 608.471ZM964.479 586.703L1000.76 565.741L1037.36 586.894L1001.08 607.855L964.479 586.703ZM1001.82 565.126L1038.42 543.973L1075.02 565.126L1038.42 586.278L1001.82 565.126ZM1039.48 543.358L1075.97 522.269L1112.57 543.421L1076.08 564.51L1039.48 543.358ZM1077.01 521.674L1113.4 500.628L1149.99 521.781L1113.61 542.827L1077.01 521.674ZM1075.95 521.059L1039.54 500.013L1075.93 478.966L1112.36 500.013L1075.95 521.038V521.059ZM1076.97 478.372L1113.44 457.283L1149.87 478.329L1113.38 499.419L1076.95 478.372H1076.97ZM1114.5 456.668L1150.97 435.578L1187.4 456.625L1150.91 477.714L1114.48 456.668H1114.5ZM1152.03 434.963L1188.46 413.895L1224.89 434.963L1188.46 456.031L1152.03 434.963ZM1189.52 413.301L1225.95 392.233L1262.4 413.301L1225.95 434.369L1189.52 413.301ZM1188.46 412.686L1152.03 391.618L1188.46 370.55L1224.89 391.597L1188.46 412.665V412.686ZM1150.97 391.003L1114.5 369.914L1150.93 348.867L1187.42 369.956L1150.99 391.024L1150.97 391.003ZM1113.44 369.299L1077.01 348.231L1113.42 327.163L1149.87 348.231L1113.44 369.299ZM1075.95 347.615L1039.52 326.548L1075.93 305.501L1112.36 326.569L1075.95 347.615ZM1038.46 325.932L1001.99 304.843L1038.4 283.797L1074.87 304.886L1038.46 325.932ZM1000.93 304.249L964.33 283.096L1000.74 262.05L1037.34 283.203L1000.93 304.249ZM963.291 282.481L927.011 261.519L963.397 240.473L999.677 261.435L963.27 282.481H963.291ZM925.971 260.904L889.373 239.751L925.759 218.726L962.357 239.879L925.95 260.925L925.971 260.904ZM888.333 239.136L851.862 218.047L888.249 197.022L924.719 218.111L888.333 239.136ZM850.802 217.432L814.522 196.449L850.908 175.423L887.188 196.385L850.802 217.411V217.432ZM813.482 195.855L776.884 174.702L813.249 153.677L849.847 174.829L813.482 195.855ZM775.844 174.087L739.373 152.998L775.738 131.972L812.23 153.061L775.865 174.087H775.844ZM738.312 152.382L701.926 131.336L738.291 110.332L774.698 131.378L738.334 152.404L738.312 152.382ZM700.866 130.742L664.395 109.653L700.738 88.6485L737.23 109.738L700.866 130.742ZM663.334 109.037L626.842 87.9272L663.185 66.9229L699.699 88.012L663.355 109.016L663.334 109.037ZM625.781 87.3331L589.416 66.3077L625.76 45.3035L662.125 66.3289L625.781 87.3331ZM588.355 65.6924L551.884 44.6034L588.207 23.5991L624.678 44.6882L588.334 65.6924H588.355ZM550.823 43.9881L514.225 22.8353L550.548 1.83115L587.146 22.9839L550.823 43.9881ZM513.165 22.2201L476.736 1.15222L513.058 -19.852L549.508 1.21588L513.186 22.2201H513.165ZM475.675 0.536957L439.247 -20.5309L475.569 -41.5139L511.997 -20.446L475.675 0.558167V0.536957ZM438.186 -21.125L401.715 -42.214L438.016 -63.197L474.487 -42.108L438.165 -21.125H438.186ZM437.125 -20.5097L400.569 0.621796L364.098 -20.4673L400.675 -41.5987L437.146 -20.5097H437.125ZM399.508 1.23709L363.016 22.3262L326.524 1.23709L363.016 -19.852L399.487 1.23709H399.508ZM361.977 22.9414L325.484 44.0305L289.014 22.9414L325.506 1.85236L361.998 22.9414H361.977ZM324.445 44.6245L288.059 65.6712L251.588 44.5821L287.995 23.5355L324.466 44.6245H324.445ZM286.998 66.2652L250.506 87.3543L214.014 66.2652L250.506 45.1762L286.998 66.2652ZM249.466 87.9696L212.868 109.122L176.376 88.0332L212.974 66.8805L249.466 87.9696ZM211.807 109.738L175.527 130.699L139.056 109.61L175.336 88.6485L211.807 109.738ZM174.466 131.315L137.868 152.467L101.397 131.378L137.995 110.226L174.488 131.315H174.466ZM136.807 153.083L100.315 174.172L63.8443 153.083L100.336 131.994L136.829 153.083H136.807ZM99.2756 174.787L62.9956 195.749L26.5035 174.66L62.7834 153.698L99.2544 174.787H99.2756ZM61.9561 196.364L25.3578 217.517L-11.1343 196.428L25.4639 175.275L61.9561 196.364ZM24.297 218.132L-12.1952 239.221L-48.6873 218.132L-12.1952 197.043L24.297 218.132ZM-13.2347 239.836L-49.6208 260.883L-86.113 239.794L-49.7269 218.768L-13.256 239.858L-13.2347 239.836ZM-50.6816 261.477L-87.1738 282.566L-123.645 261.477L-87.1738 240.388L-50.6816 261.477ZM-88.2134 283.181L-124.79 304.313L-161.283 283.224L-124.706 262.092L-88.2346 283.181H-88.2134ZM-125.851 304.928L-162.174 325.932L-198.645 304.843L-162.322 283.839L-125.83 304.928H-125.851ZM-163.234 326.548L-199.684 347.615L-236.155 326.526L-199.705 305.458L-163.234 326.548ZM-200.745 348.231L-237.343 369.383L-273.835 348.294L-237.237 327.142L-200.766 348.231H-200.745ZM-238.404 369.999L-274.726 390.982L-311.197 369.893L-274.896 348.91L-238.425 369.999H-238.404ZM-275.766 391.597L-312.322 412.728L-348.814 391.639L-312.237 370.508L-275.766 391.597ZM-274.705 392.212L-238.149 413.344L-274.705 434.475L-311.261 413.344L-274.705 392.212ZM-237.089 413.959L-200.787 434.963L-237.343 456.095L-273.666 435.112L-237.11 413.98L-237.089 413.959ZM-199.727 435.557L-163.128 456.71L-199.684 477.841L-236.282 456.689L-199.727 435.557ZM-162.089 457.325L-125.618 478.414L-162.152 499.525L-198.645 478.436L-162.089 457.304V457.325ZM-124.557 479.03L-88.2559 500.013L-124.79 521.123L-161.092 500.14L-124.557 479.03ZM-125.851 521.738L-162.343 542.827L-198.645 521.844L-162.152 500.755L-125.851 521.738ZM-163.383 543.443L-199.727 564.447L-236.007 543.464L-199.663 522.459L-163.362 543.443H-163.383ZM-162.322 544.058L-125.745 565.211L-162.089 586.215L-198.666 565.062L-162.322 544.058ZM-124.684 565.805L-88.2134 586.894L-124.578 607.919L-161.049 586.83L-124.706 565.826L-124.684 565.805ZM-87.1525 587.488L-50.7453 608.534L-87.1102 629.56L-123.496 608.513L-87.1313 587.509L-87.1525 587.488ZM-49.7057 609.128L-13.2347 630.217L-49.5996 651.243L-86.0706 630.154L-49.7057 609.15V609.128ZM-12.174 630.811L24.4243 651.964L-11.9406 672.99L-48.5388 651.837L-12.174 630.811ZM25.4851 652.579L61.7651 673.541L25.379 694.567L-10.9009 673.584L25.4639 652.558L25.4851 652.579ZM62.8259 674.156L99.3181 695.246L62.932 716.271L26.4611 695.182L62.8471 674.156H62.8259ZM100.358 695.861L136.956 717.014L100.57 738.06L63.9716 716.908L100.358 695.882V695.861ZM137.995 717.629L174.276 738.591L137.868 759.637L101.588 738.675L137.974 717.629H137.995ZM175.336 739.206L211.935 760.359L175.527 781.405L138.929 760.253L175.336 739.206ZM212.995 760.974L249.487 782.063L213.08 803.109L176.609 782.021L213.017 760.974H212.995ZM250.527 782.678L287.104 803.81L250.697 824.856L214.12 803.704L250.527 782.657V782.678ZM288.144 804.425L324.445 825.408L288.016 846.455L251.715 825.472L288.122 804.404L288.144 804.425ZM325.506 826.023L361.998 847.112L325.569 868.18L289.098 847.091L325.527 826.044L325.506 826.023ZM363.037 847.706L399.615 868.838L363.186 889.906L326.609 868.753L363.037 847.685V847.706ZM400.654 869.453L436.955 890.436L400.505 911.504L364.204 890.521L400.633 869.453H400.654ZM438.016 891.052L474.614 912.204L438.165 933.272L401.566 912.119L438.016 891.052ZM475.675 912.819L512.125 933.887L475.675 954.955L439.225 933.887L475.675 912.819ZM476.736 912.204L513.228 891.115L549.678 912.183L513.207 933.272L476.757 912.204H476.736ZM514.268 890.5L550.696 869.453L587.125 890.521L550.717 911.568L514.268 890.5ZM551.736 868.838L588.186 847.77L624.614 868.838L588.164 889.927L551.736 868.859V868.838ZM589.246 847.155L625.845 826.002L662.273 847.049L625.675 868.201L589.246 847.155ZM626.905 825.387L663.207 804.404L699.614 825.45L663.313 846.433L626.884 825.387H626.905ZM664.267 803.788L700.823 782.657L737.252 803.704L700.696 824.835L664.289 803.788H664.267ZM701.884 782.063L738.376 760.953L774.783 781.999L738.291 803.088L701.863 782.042L701.884 782.063ZM739.437 760.359L775.908 739.27L812.315 760.316L775.844 781.405L739.437 760.359ZM776.969 738.675L813.376 717.629L849.783 738.675L813.397 759.722L776.99 738.675H776.969ZM814.416 717.035L850.908 695.946L887.294 716.971L850.823 738.06L814.437 717.014L814.416 717.035ZM851.947 695.352L888.546 674.199L924.932 695.224L888.333 716.377L851.947 695.352ZM889.606 673.584L925.886 652.622L962.272 673.647L925.992 694.63L889.606 673.605V673.584ZM926.926 652.007L963.418 630.918L999.783 651.943L963.312 673.032L926.926 652.007ZM964.458 630.302L1001.06 609.15L1037.42 630.154L1000.82 651.306L964.458 630.281V630.302ZM1002.1 608.534L1038.38 587.573L1074.74 608.577L1038.46 629.56L1002.1 608.534ZM1039.44 586.957L1076.03 565.805L1112.38 586.809L1075.78 607.961L1039.42 586.957H1039.44ZM1077.1 565.189L1113.59 544.1L1149.93 565.104L1113.46 586.193L1077.12 565.189H1077.1ZM1114.63 543.485L1151.03 522.459L1187.38 543.464L1150.99 564.51L1114.65 543.506L1114.63 543.485ZM1152.07 521.844L1188.57 500.755L1224.89 521.759L1188.42 542.848L1152.07 521.844ZM1151.01 521.229L1114.41 500.076L1150.89 478.987L1187.48 500.14L1150.99 521.229H1151.01ZM1151.95 478.372L1188.44 457.283L1225.04 478.436L1188.57 499.525L1151.97 478.372H1151.95ZM1189.48 456.668L1225.91 435.621L1262.51 456.774L1226.08 477.82L1189.48 456.668ZM1226.97 435.006L1263.42 413.938L1300.02 435.091L1263.57 456.158L1226.97 435.006ZM1264.48 413.323L1301.08 392.17L1337.67 413.323L1301.08 434.475L1264.48 413.323ZM1263.42 412.707L1226.97 391.639L1263.57 370.487L1300.02 391.555L1263.42 412.707ZM1225.91 391.024L1189.48 369.956L1226.08 348.804L1262.51 369.85L1225.91 391.003V391.024ZM1188.42 369.362L1151.93 348.273L1188.52 327.12L1225.02 348.21L1188.42 369.362ZM1150.89 347.658L1114.44 326.59L1151.03 305.437L1187.48 326.505L1150.89 347.658ZM1113.38 325.996L1076.95 304.928L1113.55 283.775L1149.97 304.822L1113.38 325.975V325.996ZM1075.89 304.334L1039.42 283.245L1076.01 262.092L1112.48 283.181L1075.89 304.334ZM1038.35 282.651L1001.76 261.498L1038.35 240.346L1074.95 261.498L1038.35 282.651ZM1000.7 260.883L964.415 239.921L1001.01 218.768L1037.29 239.73L1000.7 260.883ZM963.376 239.306L926.777 218.153L963.376 197L999.974 218.153L963.376 239.306ZM925.717 217.538L889.224 196.449L925.823 175.296L962.315 196.385L925.717 217.538ZM888.185 195.855L851.905 174.893L888.503 153.74L924.783 174.702L888.185 195.855ZM850.844 174.278L814.246 153.125L850.844 131.972L887.442 153.125L850.844 174.278ZM813.185 152.51L776.693 131.421L813.291 110.268L849.783 131.357L813.185 152.51ZM775.653 130.805L739.246 109.759L775.844 88.6061L812.23 109.653L775.632 130.805H775.653ZM738.206 109.165L701.714 88.0757L738.312 66.9229L774.805 88.012L738.206 109.165ZM700.675 87.4816L664.183 66.3713L700.781 45.2186L737.273 66.3077L700.675 87.4604V87.4816ZM663.122 65.7773L626.736 44.7519L663.334 23.5991L699.72 44.6245L663.122 65.7773ZM625.696 44.1366L589.225 23.0475L625.823 1.89481L662.316 22.9839L625.717 44.1366H625.696ZM588.164 22.4322L551.566 1.27951L588.164 -19.8732L624.763 1.27951L588.164 22.4322ZM550.505 0.664246L514.056 -20.4036L550.654 -41.5563L587.104 -20.4885L550.505 0.664246ZM513.016 -20.9977L476.587 -42.0655L513.186 -63.2182L549.614 -42.1504L513.016 -20.9977ZM475.527 -42.6596L439.056 -63.7486L475.654 -84.9014L512.125 -63.8123L475.527 -42.6596ZM437.995 -64.3639L401.545 -85.4318L438.143 -106.584L474.593 -85.5166L437.995 -64.3639ZM436.934 -63.7486L400.633 -42.7657L364.204 -63.8335L400.505 -84.8165L436.955 -63.7486H436.934ZM399.572 -42.1504L362.995 -21.0189L326.567 -42.0867L363.144 -63.2394L399.572 -42.1716V-42.1504ZM361.955 -20.4036L325.463 0.685455L289.035 -20.3612L325.506 -41.4502L361.934 -20.3824L361.955 -20.4036ZM324.424 1.30075L287.932 22.3898L251.503 1.34317L287.974 -19.7459L324.402 1.32196L324.424 1.30075ZM286.892 22.9839L250.506 44.0305L214.099 22.9839L250.485 1.93723L286.913 22.9839H286.892ZM249.445 44.6245L212.953 65.7136L176.546 44.667L213.017 23.5779L249.424 44.6245H249.445ZM211.913 66.3077L175.315 87.4604L138.908 66.4138L175.506 45.261L211.913 66.3077ZM174.254 88.0757L137.974 109.037L101.588 87.9908L137.868 67.029L174.276 88.0757H174.254ZM136.913 109.653L100.315 130.805L63.9291 109.78L100.527 88.6273L136.913 109.674V109.653ZM99.2544 131.421L62.7622 152.51L26.3762 131.484L62.8471 110.395L99.2332 131.421H99.2544ZM61.7227 153.104L25.4426 174.066L-10.9434 153.04L25.3366 132.078L61.7227 153.104ZM24.4031 174.681L-12.1952 195.834L-48.56 174.808L-11.9617 153.655L24.4243 174.681H24.4031ZM-13.256 196.449L-49.7482 217.538L-86.113 196.513L-49.642 175.423L-13.2772 196.449H-13.256ZM-50.7877 218.153L-87.1738 239.2L-123.539 218.196L-87.1525 197.149L-50.7877 218.174V218.153ZM-88.2346 239.794L-124.727 260.883L-161.07 239.879L-124.599 218.79L-88.2346 239.815V239.794ZM-125.766 261.477L-162.343 282.63L-198.687 261.626L-162.11 240.473L-125.766 261.477ZM-163.404 283.224L-199.727 304.207L-236.049 283.203L-199.748 262.22L-163.404 283.224ZM-200.787 304.822L-237.237 325.89L-273.56 304.886L-237.11 283.797L-200.787 304.801V304.822ZM-238.298 326.505L-274.896 347.658L-311.219 326.654L-274.62 305.501L-238.298 326.505ZM-275.957 348.273L-312.258 369.256L-348.581 348.273L-312.279 327.29L-275.957 348.273ZM-313.319 369.871L-349.896 391.003L-386.197 370.02L-349.62 348.867L-313.298 369.871H-313.319ZM-350.936 391.618L-387.428 412.707L-423.729 391.724L-387.258 370.635L-350.957 391.618H-350.936ZM-349.875 392.233L-313.383 413.323L-349.875 434.412L-386.346 413.323L-349.875 392.233ZM-312.343 413.938L-275.787 435.069L-312.258 456.158L-348.835 435.027L-312.343 413.938ZM-274.726 435.685L-238.404 456.668L-274.875 477.757L-311.176 456.774L-274.705 435.685H-274.726ZM-237.364 457.283L-200.766 478.436L-237.258 499.525L-273.857 478.372L-237.364 457.283ZM-199.705 479.051L-163.213 500.14L-199.684 521.229L-236.176 500.14L-199.705 479.051ZM-200.745 521.844L-237.089 542.848L-273.56 521.759L-237.237 500.755L-200.745 521.844ZM-238.128 543.464L-274.663 564.574L-311.155 543.485L-274.599 522.353L-238.128 543.443V543.464ZM-237.067 544.079L-200.787 565.062L-237.322 586.172L-273.602 565.211L-237.067 544.079ZM-199.727 565.677L-163.15 586.83L-199.663 607.94L-236.261 586.787L-199.727 565.677ZM-162.089 587.445L-125.618 608.534L-162.131 629.645L-198.602 608.556L-162.068 587.445H-162.089ZM-124.557 609.15L-88.171 630.196L-124.684 651.306L-161.092 630.26L-124.578 609.15H-124.557ZM-87.1102 630.79L-50.6392 651.879L-87.1525 672.99L-123.645 651.901L-87.1313 630.79H-87.1102ZM-49.5784 652.495L-12.9802 673.647L-49.4935 694.758L-86.0917 673.605L-49.5784 652.495ZM-11.9193 674.263L24.3394 695.224L-12.1528 716.313L-48.4327 695.352L-11.9406 674.241L-11.9193 674.263ZM25.4002 695.84L61.8712 716.929L25.379 738.018L-11.1131 716.929L25.379 695.84H25.4002ZM62.932 717.544L99.5302 738.697L63.038 759.786L26.4398 738.633L62.932 717.544ZM100.57 739.312L136.85 760.274L100.379 781.363L64.0989 760.401L100.591 739.312H100.57ZM137.889 760.889L174.488 782.042L138.017 803.131L101.418 781.978L137.889 760.889ZM175.527 782.657L211.998 803.746L175.527 824.814L139.056 803.725L175.527 782.636V782.657ZM213.059 804.361L249.636 825.514L213.186 846.582L176.609 825.429L213.08 804.361H213.059ZM250.676 826.108L286.977 847.091L250.527 868.159L214.226 847.176L250.676 826.108ZM288.016 847.706L324.487 868.795L288.038 889.863L251.567 868.774L288.016 847.706ZM325.548 869.411L362.125 890.563L325.697 911.631L289.098 890.479L325.548 869.411ZM363.186 891.179L399.466 912.162L363.037 933.229L326.736 912.247L363.165 891.179H363.186ZM400.527 912.756L437.125 933.908L400.697 954.955L364.098 933.802L400.527 912.734V912.756ZM438.165 934.524L474.614 955.592L438.207 976.659L401.736 955.57L438.165 934.524ZM475.675 956.207L511.976 977.19L475.548 998.236L439.247 977.253L475.654 956.207H475.675ZM476.736 955.592L513.186 934.524L549.508 955.528L513.037 976.596L476.736 955.613V955.592ZM514.246 933.908L550.717 912.819L587.04 933.824L550.548 954.913L514.225 933.908H514.246ZM551.778 912.204L588.186 891.157L624.529 912.162L588.122 933.208L551.799 912.204H551.778ZM589.246 890.542L625.696 869.453L662.04 890.457L625.569 911.525L589.225 890.521L589.246 890.542ZM626.757 868.859L663.355 847.706L699.72 868.732L663.122 889.884L626.778 868.88L626.757 868.859ZM664.395 847.091L700.696 826.108L737.061 847.134L700.76 868.116L664.395 847.091ZM701.736 825.493L738.291 804.361L774.677 825.387L738.1 846.518L701.736 825.493ZM739.352 803.746L775.844 782.657L812.23 803.704L775.738 824.793L739.352 803.767V803.746ZM776.905 782.042L813.376 760.953L849.783 781.999L813.291 803.088L776.905 782.063V782.042ZM814.437 760.337L850.823 739.291L887.23 760.337L850.823 781.363L814.416 760.316L814.437 760.337ZM851.884 738.697L888.355 717.608L924.783 738.654L888.291 759.743L851.884 738.697ZM889.415 716.992L926.014 695.84L962.442 716.908L925.844 738.06L889.415 717.014V716.992ZM927.053 695.224L963.333 674.263L999.783 695.33L963.503 716.292L927.074 695.224H927.053ZM964.373 673.647L1000.84 652.558L1037.29 673.626L1000.8 694.715L964.352 673.647H964.373ZM1001.9 651.943L1038.5 630.79L1074.97 651.879L1038.38 673.032L1001.93 651.964L1001.9 651.943ZM1039.54 630.175L1075.82 609.213L1112.29 630.302L1076.01 651.264L1039.54 630.175ZM1076.86 608.598L1113.46 587.445L1149.95 608.534L1113.35 629.687L1076.88 608.598H1076.86ZM1114.5 586.83L1150.97 565.741L1187.46 586.83L1150.97 607.919L1114.48 586.83H1114.5ZM1152.03 565.126L1188.42 544.079L1224.93 565.189L1188.52 586.215L1152.03 565.126ZM1189.48 543.485L1225.95 522.396L1262.46 543.506L1225.97 564.595L1189.46 543.485H1189.48ZM1227.01 521.781L1263.48 500.692L1300.02 521.802L1263.52 542.891L1227.01 521.781ZM1225.95 521.165L1189.63 500.161L1226.1 479.072L1262.42 500.055L1225.95 521.144V521.165ZM1227.16 478.478L1263.59 457.431L1299.89 478.414L1263.48 499.461L1227.16 478.478ZM1264.65 456.816L1301.1 435.748L1337.42 456.731L1300.97 477.82L1264.67 456.816H1264.65ZM1302.16 435.133L1338.76 413.98L1375.06 434.963L1338.46 456.116L1302.14 435.133H1302.16ZM1339.82 413.365L1376.12 392.382L1412.42 413.365L1376.12 434.348L1339.82 413.365ZM1338.76 412.75L1302.16 391.597L1338.48 370.614L1375.08 391.767L1338.78 412.75H1338.76ZM1301.1 390.982L1264.65 369.914L1300.95 348.931L1337.4 370.02L1301.08 391.003L1301.1 390.982ZM1263.59 369.299L1227.16 348.252L1263.48 327.248L1299.89 348.294L1263.59 369.277V369.299ZM1226.12 347.637L1189.63 326.548L1225.95 305.543L1262.42 326.632L1226.1 347.637H1226.12ZM1188.59 325.954L1152.14 304.886L1188.46 283.882L1224.91 304.971L1188.59 325.975V325.954ZM1151.08 304.27L1114.65 283.224L1150.99 262.22L1187.4 283.266L1151.08 304.27ZM1113.61 282.609L1077.14 261.519L1113.48 240.515L1149.95 261.604L1113.61 282.609ZM1076.08 260.925L1039.48 239.773L1075.84 218.747L1112.44 239.9L1076.1 260.904L1076.08 260.925ZM1038.42 239.157L1002.14 218.196L1038.5 197.17L1074.78 218.153L1038.42 239.157ZM1001.08 217.58L964.479 196.428L1000.84 175.402L1037.44 196.555L1001.08 217.58ZM963.418 195.812L926.926 174.723L963.312 153.698L999.783 174.787L963.418 195.812ZM925.886 174.108L889.606 153.146L925.992 132.121L962.272 153.104L925.886 174.129V174.108ZM888.546 152.531L851.947 131.378L888.333 110.353L924.932 131.506L888.546 152.531ZM850.887 130.763L814.394 109.674L850.781 88.6273L887.251 109.716L850.865 130.763H850.887ZM813.355 109.059L776.969 88.012L813.376 66.9654L849.762 88.012L813.355 109.059ZM775.908 87.418L739.416 66.3289L775.823 45.2823L812.294 66.3713L775.887 87.418H775.908ZM738.376 65.7136L701.884 44.6245L738.312 23.5779L774.805 44.667L738.397 65.7136H738.376ZM700.823 44.0093L664.437 22.9839L700.866 1.93723L737.252 22.9626L700.823 44.0093ZM663.398 22.3686L626.927 1.27951L663.355 -19.7883L699.826 1.30075L663.398 22.3474V22.3686ZM625.866 0.664246L589.268 -20.4885L625.696 -41.5563L662.294 -20.4036L625.866 0.664246ZM588.207 -21.1037L551.757 -42.1716L588.186 -63.2394L624.635 -42.1504L588.186 -21.0825L588.207 -21.1037ZM550.696 -42.7869L514.268 -63.8335L550.717 -84.9014L587.125 -63.8547L550.696 -42.7869ZM513.207 -64.4488L476.736 -85.5378L513.186 -106.606L549.656 -85.5166L513.207 -64.4488ZM475.675 -86.1319L439.225 -107.2L475.675 -128.268L512.125 -107.2L475.675 -86.1319ZM438.165 -107.815L401.736 -128.862L438.207 -149.951L474.614 -128.904L438.165 -107.815ZM437.104 -107.2L400.505 -86.047L364.077 -107.094L400.675 -128.246L437.104 -107.2ZM399.466 -85.4318L363.165 -64.4488L326.736 -85.5166L363.037 -106.5L399.466 -85.453V-85.4318ZM362.125 -63.8335L325.548 -42.6808L289.12 -63.7486L325.697 -84.9014L362.125 -63.8335ZM324.509 -42.0867L288.038 -20.9977L251.588 -42.0655L288.08 -63.1546L324.53 -42.0867H324.509ZM286.977 -20.3824L250.506 0.706665L214.056 -20.3612L250.548 -41.4502L286.998 -20.3824H286.977ZM249.445 1.32196L213.059 22.3686L176.588 1.30075L212.974 -19.7459L249.424 1.32196H249.445ZM211.998 22.9626L175.527 44.0517L139.056 22.9626L175.527 1.87357L211.998 22.9414V22.9626ZM174.466 44.667L137.868 65.8197L101.397 44.7307L137.995 23.5779L174.466 44.667ZM136.829 66.435L100.549 87.3968L64.0777 66.3077L100.358 45.3459L136.829 66.435ZM99.509 88.012L62.9108 109.165L26.4186 88.0757L63.0168 66.9229L99.509 88.012ZM61.8499 109.78L25.379 130.869L-11.1131 109.78L25.379 88.6909L61.8712 109.78H61.8499ZM24.3182 131.484L-11.9617 152.446L-48.4539 131.336L-12.174 110.374L24.3182 131.463V131.484ZM-13.0014 153.061L-49.5996 174.214L-86.113 153.104L-49.5147 131.951L-13.0226 153.061H-13.0014ZM-50.6392 174.829L-87.1102 195.918L-123.623 174.808L-87.1313 153.719L-50.618 174.829H-50.6392ZM-88.171 196.534L-124.557 217.58L-161.07 196.47L-124.684 175.423L-88.171 196.534ZM-125.618 218.196L-162.089 239.285L-198.623 218.174L-162.131 197.085L-125.618 218.196ZM-163.15 239.9L-199.727 261.053L-236.261 239.942L-199.684 218.79L-163.15 239.9ZM-200.787 261.668L-237.089 282.651L-273.623 261.519L-237.322 240.536L-200.787 261.647V261.668ZM-238.149 283.266L-274.599 304.355L-311.155 283.224L-274.684 262.135L-238.149 283.266ZM-275.66 304.949L-312.258 326.102L-348.814 304.971L-312.216 283.818L-275.66 304.949ZM-313.298 326.717L-349.599 347.7L-386.155 326.569L-349.854 305.586L-313.298 326.717ZM-350.639 348.316L-387.216 369.468L-423.793 348.337L-387.216 327.184L-350.66 348.316H-350.639ZM-388.255 370.062L-424.726 391.151L-461.303 370.02L-424.811 348.931L-388.234 370.062H-388.255ZM-425.787 391.767L-462.088 412.75L-498.665 391.597L-462.364 370.614L-425.787 391.745V391.767ZM-424.726 392.382L-388.425 413.365L-424.726 434.348L-461.027 413.365L-424.726 392.382ZM-387.364 413.98L-350.872 435.069L-387.173 456.052L-423.644 434.963L-387.343 413.98H-387.364ZM-349.832 435.685L-313.255 456.816L-349.578 477.82L-386.155 456.668L-349.854 435.685H-349.832ZM-312.216 457.431L-275.915 478.414L-312.237 499.419L-348.538 478.436L-312.216 457.431ZM-274.854 479.03L-238.256 500.182L-274.578 521.187L-311.176 500.034L-274.854 479.03ZM-275.639 521.781L-312.195 542.912L-348.793 521.759L-312.237 500.628L-275.639 521.781ZM-313.234 543.506L-349.726 564.595L-386.325 543.443L-349.854 522.353L-313.255 543.506H-313.234ZM-312.173 544.121L-275.681 565.211L-312.173 586.3L-348.665 565.211L-312.173 544.121ZM-274.642 565.826L-238.362 586.787L-274.854 607.877L-311.134 586.915L-274.642 565.826ZM-237.301 587.403L-200.703 608.556L-237.195 629.645L-273.793 608.492L-237.301 587.403ZM-199.663 609.171L-163.192 630.26L-199.684 651.349L-236.155 630.26L-199.663 609.171ZM-162.131 630.854L-125.724 651.901L-162.216 672.99L-198.623 651.943L-162.131 630.854ZM-124.684 652.495L-88.2134 673.584L-124.684 694.673L-161.155 673.584L-124.663 652.495H-124.684ZM-87.1525 674.199L-50.5543 695.352L-87.0253 716.441L-123.623 695.288L-87.1313 674.199H-87.1525ZM-49.4935 695.967L-13.2136 716.929L-49.7057 738.018L-85.9857 717.056L-49.4935 695.967ZM-12.1528 717.544L24.3394 738.633L-12.1528 759.722L-48.6448 738.633L-12.1528 717.544ZM25.379 739.248L61.9772 760.401L25.4851 781.49L-11.1131 760.337L25.3578 739.248H25.379ZM63.038 761.016L99.3181 781.978L62.8259 803.067L26.546 782.105L63.038 761.016ZM100.379 782.593L136.977 803.746L100.506 824.835L63.9079 803.682L100.4 782.593H100.379ZM138.017 804.361L174.509 825.45L138.038 846.539L101.546 825.45L138.017 804.361ZM175.548 826.044L212.125 847.197L175.655 868.286L139.056 847.134L175.548 826.044ZM213.186 847.791L249.487 868.774L213.017 889.863L176.737 868.88L213.207 847.791H213.186ZM250.548 869.39L287.019 890.479L250.527 911.568L214.056 890.479L250.548 869.39ZM288.08 891.073L324.657 912.225L288.186 933.314L251.588 912.162L288.08 891.073ZM325.718 912.841L361.998 933.824L325.506 954.913L289.226 933.951L325.697 912.862L325.718 912.841ZM363.059 934.418L399.657 955.57L363.165 976.659L326.567 955.507L363.037 934.418H363.059ZM400.718 956.186L437.189 977.275L400.718 998.364L364.247 977.275L400.739 956.186H400.718ZM438.228 977.869L474.529 998.852L438.037 1019.94L401.736 998.958L438.207 977.869H438.228ZM475.59 999.467L512.188 1020.62L475.696 1041.71L439.098 1020.56L475.59 999.467ZM476.651 998.852L513.058 977.805L549.635 998.958L513.228 1020L476.63 998.852H476.651ZM514.119 977.19L550.59 956.122L587.167 977.253L550.696 998.343L514.119 977.19ZM551.651 955.507L588.143 934.418L624.72 955.57L588.228 976.659L551.651 955.528V955.507ZM589.183 933.824L625.59 912.777L662.167 933.908L625.76 954.955L589.183 933.824ZM626.651 912.162L663.122 891.073L699.699 912.204L663.228 933.293L626.651 912.162ZM664.183 890.479L700.781 869.326L737.358 890.457L700.76 911.61L664.183 890.479ZM701.842 868.711L738.143 847.728L774.698 868.859L738.397 889.842L701.82 868.711H701.842ZM739.204 847.134L775.781 825.981L812.336 847.112L775.759 868.265L739.204 847.134ZM776.841 825.387L813.334 804.298L849.889 825.429L813.397 846.518L776.82 825.387H776.841ZM814.394 803.682L850.887 782.593L887.442 803.725L850.95 824.814L814.394 803.682ZM851.926 781.999L888.333 760.953L924.889 782.084L888.482 803.131L851.926 781.999ZM889.394 760.359L925.886 739.27L962.442 760.401L925.971 781.49L889.415 760.359H889.394ZM926.926 738.675L963.524 717.523L1000.08 738.654L963.482 759.807L926.926 738.675ZM964.585 716.908L1000.86 695.946L1037.4 717.056L1001.12 738.018L964.585 716.886V716.908ZM1001.93 695.33L1038.42 674.241L1074.95 695.352L1038.46 716.441L1001.93 695.33ZM1039.46 673.647L1076.06 652.495L1112.59 673.605L1075.99 694.758L1039.46 673.626V673.647ZM1077.12 651.879L1113.4 630.918L1149.93 652.028L1113.65 672.99L1077.12 651.879ZM1114.46 630.302L1151.06 609.15L1187.59 630.26L1150.99 651.413L1114.46 630.302ZM1152.12 608.534L1188.61 587.445L1225.12 608.556L1188.65 629.645L1152.12 608.534ZM1189.65 586.851L1226.06 565.826L1262.57 586.936L1226.16 607.961L1189.65 586.851ZM1227.1 565.211L1263.59 544.121L1300.1 565.232L1263.61 586.321L1227.1 565.211ZM1264.63 543.527L1301.12 522.438L1337.63 543.549L1301.16 564.638L1264.65 543.527H1264.63ZM1302.16 521.823L1338.57 500.776L1375.08 521.887L1338.67 542.933L1302.16 521.823ZM1301.1 521.208L1264.56 500.097L1300.97 479.051L1337.51 500.182L1301.1 521.229V521.208ZM1302.03 478.436L1338.48 457.368L1375.02 478.499L1338.54 499.588L1302.01 478.457L1302.03 478.436ZM1339.54 456.752L1376.14 435.6L1412.7 456.731L1376.1 477.884L1339.54 456.752ZM1377.18 434.984L1413.48 414.001L1450.04 435.133L1413.74 456.095L1377.18 434.963V434.984ZM1414.52 413.386L1451.08 392.255L1487.65 413.386L1451.08 434.518L1414.52 413.386ZM1413.46 412.771L1377.16 391.788L1413.71 370.656L1450.02 391.639L1413.46 412.771ZM1376.12 391.173L1339.52 370.02L1376.08 348.888L1412.67 370.041L1376.12 391.173ZM1338.48 369.405L1302.03 348.316L1338.57 327.184L1375.04 348.273L1338.48 369.405ZM1300.97 347.722L1264.56 326.675L1301.1 305.565L1337.51 326.611L1300.97 347.743V347.722ZM1263.5 326.06L1227.03 304.971L1263.54 283.86L1300.04 304.949L1263.5 326.06ZM1225.97 304.355L1189.52 283.266L1226.01 262.156L1262.48 283.224L1225.97 304.334V304.355ZM1188.46 282.672L1152.05 261.626L1188.54 240.536L1224.95 261.583L1188.46 282.693V282.672ZM1150.99 261.01L1114.52 239.921L1151.01 218.832L1187.51 239.921L1151.01 261.01H1150.99ZM1113.46 239.306L1076.86 218.153L1113.33 197.064L1149.93 218.217L1113.44 239.306H1113.46ZM1075.82 217.538L1039.54 196.555L1076.01 175.487L1112.29 196.449L1075.82 217.538ZM1038.5 195.961L1001.9 174.808L1038.35 153.74L1074.95 174.893L1038.48 195.961H1038.5ZM1000.86 174.193L964.394 153.104L1000.84 132.036L1037.34 153.125L1000.89 174.193H1000.86ZM963.333 152.489L927.053 131.527L963.482 110.459L999.762 131.421L963.312 152.489H963.333ZM926.014 130.911L889.415 109.759L925.844 88.7122L962.442 109.865L926.014 130.933V130.911ZM888.376 109.144L851.905 88.0544L888.312 67.0078L924.804 88.0969L888.376 109.144ZM850.844 87.4392L814.458 66.3925L850.865 45.3459L887.273 66.3713L850.865 87.418L850.844 87.4392ZM813.397 65.7985L776.926 44.7094L813.312 23.684L849.804 44.773L813.397 65.8197V65.7985ZM775.865 44.0941L739.373 23.0051L775.759 1.97968L812.251 23.0687L775.865 44.0941ZM738.334 22.3898L701.948 1.36438L738.312 -19.661L774.698 1.36438L738.312 22.3898H738.334ZM700.908 0.749115L664.437 -20.34L700.802 -41.3654L737.294 -20.2763L700.929 0.749115H700.908ZM663.376 -20.9552L626.778 -42.108L663.122 -63.1121L699.72 -41.9594L663.355 -20.9552H663.376ZM625.717 -42.7232L589.268 -63.8123L625.611 -84.8165L662.082 -63.7274L625.739 -42.7232H625.717ZM588.207 -64.4063L551.799 -85.453L588.122 -106.457L624.55 -85.4105L588.207 -64.4063ZM550.739 -86.0682L514.268 -107.157L550.59 -128.14L587.082 -107.051L550.76 -86.047L550.739 -86.0682ZM513.207 -107.773L476.757 -128.862L513.058 -149.845L549.529 -128.756L513.207 -107.773ZM475.696 -129.456L439.289 -150.502L475.59 -171.485L511.997 -150.439L475.696 -129.456ZM438.228 -151.118L401.757 -172.207L438.058 -193.19L474.551 -172.101L438.25 -151.118H438.228ZM437.167 -150.502L400.697 -129.413L364.226 -150.502L400.697 -171.591L437.167 -150.502ZM399.636 -128.819L363.037 -107.667L326.545 -128.756L363.144 -149.908L399.636 -128.819ZM361.977 -107.051L325.675 -86.0682L289.204 -107.157L325.484 -128.14L361.977 -107.051ZM324.636 -85.4742L288.059 -64.3215L251.567 -85.4105L288.165 -106.563L324.636 -85.4742ZM286.998 -63.7274L250.506 -42.6384L214.014 -63.7274L250.506 -84.8165L286.977 -63.7274H286.998ZM249.466 -42.0231L212.974 -20.934L176.503 -42.0231L212.995 -63.1121L249.466 -42.0231ZM211.935 -20.3187L175.527 0.727905L139.056 -20.3612L175.442 -41.4078L211.935 -20.3187ZM174.488 1.32196L137.995 22.411L101.525 1.32196L138.017 -19.7671L174.488 1.32196ZM136.956 23.0051L100.358 44.1578L63.8655 23.0687L100.464 1.91602L136.935 23.0051H136.956ZM99.2968 44.773L63.0168 65.7348L26.5247 44.6458L62.8047 23.684L99.2968 44.773ZM61.9772 66.3501L25.379 87.5028L-11.1131 66.4138L25.4851 45.261L61.9772 66.3501ZM24.3182 88.1181L-12.174 109.207L-48.6448 88.1181L-12.1528 67.029L24.3182 88.1181ZM-13.2136 109.822L-49.4935 130.784L-85.9857 109.695L-49.7057 88.7334L-13.2347 109.822H-13.2136ZM-50.5331 131.399L-87.1313 152.552L-123.623 131.463L-87.0253 110.31L-50.5543 131.399H-50.5331ZM-88.1922 153.167L-124.684 174.257L-161.176 153.167L-124.684 132.078L-88.1922 153.167ZM-125.724 174.872L-162.131 195.918L-198.623 174.829L-162.237 153.783L-125.745 174.872H-125.724ZM-163.171 196.513L-199.663 217.602L-236.155 196.513L-199.663 175.423L-163.171 196.513ZM-200.703 218.196L-237.28 239.348L-273.772 218.259L-237.173 197.107L-200.681 218.196H-200.703ZM-238.34 239.964L-274.642 260.947L-311.113 239.858L-274.811 218.875L-238.319 239.964H-238.34ZM-275.702 261.562L-312.173 282.651L-348.644 261.562L-312.173 240.473L-275.702 261.562ZM-313.213 283.245L-349.811 304.398L-386.303 283.309L-349.705 262.156L-313.234 283.245H-313.213ZM-350.872 305.013L-387.173 325.996L-423.644 304.907L-387.364 283.924L-350.872 305.013ZM-388.213 326.59L-424.811 347.743L-461.282 326.654L-424.684 305.501L-388.213 326.59ZM-425.851 348.337L-462.322 369.426L-498.814 348.337L-462.322 327.248L-425.851 348.337ZM-463.382 370.041L-499.684 391.024L-536.154 369.935L-499.875 348.952L-463.382 370.041ZM-500.723 391.618L-537.3 412.771L-573.792 391.682L-537.194 370.529L-500.723 391.618ZM-499.662 392.233L-463.085 413.386L-499.662 434.539L-536.261 413.386L-499.684 392.233H-499.662ZM-462.046 413.98L-425.745 434.963L-462.322 456.095L-498.623 435.112L-462.046 413.959V413.98ZM-424.705 435.578L-388.234 456.668L-424.79 477.799L-461.282 456.71L-424.705 435.578ZM-387.173 457.283L-350.596 478.436L-387.152 499.567L-423.729 478.414L-387.173 457.283ZM-349.557 479.03L-313.255 500.013L-349.811 521.144L-386.112 500.161L-349.557 479.03ZM-350.872 521.759L-387.364 542.848L-423.644 521.887L-387.173 500.798L-350.872 521.781V521.759ZM-388.404 543.443L-425.002 564.595L-461.282 543.633L-424.705 522.481L-388.425 543.464L-388.404 543.443ZM-387.343 544.058L-350.745 565.211L-387.343 586.363L-423.941 565.211L-387.343 544.058ZM-349.705 565.826L-313.213 586.915L-349.811 608.068L-386.303 586.978L-349.705 565.826ZM-312.173 587.53L-275.893 608.492L-312.492 629.645L-348.772 608.683L-312.173 587.53ZM-274.833 609.107L-238.234 630.26L-274.833 651.413L-311.431 630.26L-274.833 609.107ZM-237.173 630.875L-200.703 651.964L-237.301 673.117L-273.772 652.028L-237.173 630.875ZM-199.642 652.558L-163.234 673.605L-199.833 694.758L-236.24 673.711L-199.642 652.558ZM-162.195 674.199L-125.703 695.288L-162.301 716.441L-198.772 695.352L-162.174 674.199H-162.195ZM-124.663 695.882L-88.0649 717.035L-124.663 738.188L-161.261 717.035L-124.663 695.882ZM-87.0041 717.65L-50.7241 738.612L-87.3223 759.765L-123.602 738.803L-87.0041 717.65ZM-49.6845 739.227L-13.1923 760.316L-49.7906 781.469L-86.2827 760.38L-49.6845 739.227ZM-12.1528 760.91L24.4455 782.063L-12.1528 803.216L-48.751 782.063L-12.1528 760.91ZM25.4851 782.678L61.7651 803.64L25.1669 824.793L-11.1131 803.831L25.4851 782.678ZM62.8259 804.255L99.4241 825.408L62.8259 846.561L26.2277 825.408L62.8259 804.255ZM100.485 826.023L136.977 847.112L100.379 868.265L63.8868 847.176L100.485 826.023ZM138.017 847.728L174.615 868.88L138.017 890.033L101.418 868.88L138.017 847.728ZM175.655 869.474L211.935 890.457L175.336 911.61L139.056 890.648L175.655 869.496V869.474ZM212.995 891.052L249.466 912.14L212.868 933.293L176.397 912.204L212.995 891.052ZM250.527 912.734L287.125 933.887L250.527 955.04L213.929 933.887L250.527 912.734ZM288.165 934.503L324.445 955.486L287.847 976.638L251.567 955.676L288.165 934.524V934.503ZM325.506 956.08L362.104 977.232L325.506 998.385L288.908 977.232L325.506 956.08ZM363.165 977.848L399.636 998.937L363.037 1020.09L326.567 999L363.165 977.848ZM400.697 999.531L436.998 1020.51L400.399 1041.67L364.12 1020.7L400.718 999.552L400.697 999.531ZM438.037 1021.11L474.635 1042.26L438.037 1063.41L401.439 1042.26L438.037 1021.11ZM475.675 1042.88L512.167 1063.96L475.569 1085.12L439.098 1064.03L475.696 1042.88H475.675ZM476.736 1042.26L513.228 1021.17L549.699 1042.26L513.228 1063.35L476.736 1042.26ZM514.268 1020.58L550.675 999.531L587.146 1020.62L550.739 1041.67L514.268 1020.58ZM551.736 998.915L588.207 977.826L624.678 998.915L588.207 1020L551.736 998.915ZM589.268 977.232L625.76 956.143L662.231 977.232L625.739 998.321L589.268 977.232ZM626.799 955.528L663.207 934.481L699.677 955.57L663.291 976.617L626.82 955.528H626.799ZM664.246 933.887L700.717 912.798L737.188 933.887L700.696 954.976L664.225 933.887H664.246ZM701.778 912.204L738.376 891.052L774.847 912.14L738.249 933.293L701.778 912.204ZM739.437 890.436L775.717 869.474L812.188 890.563L775.908 911.546L739.437 890.457V890.436ZM776.778 868.859L813.376 847.706L849.847 868.795L813.249 889.948L776.778 868.859ZM814.416 847.112L850.908 826.023L887.379 847.112L850.887 868.201L814.394 847.112H814.416ZM851.947 825.408L888.418 804.319L924.889 825.408L888.418 846.497L851.947 825.408ZM889.479 803.725L925.886 782.678L962.357 803.767L925.95 824.814L889.479 803.725ZM926.926 782.084L963.397 760.995L999.868 782.084L963.397 803.173L926.926 782.084ZM964.458 760.401L1001.06 739.248L1037.53 760.337L1000.93 781.49L964.458 760.401ZM1002.12 738.633L1038.4 717.671L1074.87 738.76L1038.59 759.722L1002.12 738.633ZM1039.44 717.056L1075.93 695.967L1112.4 717.035L1075.91 738.124L1039.44 717.035V717.056ZM1076.97 695.352L1113.57 674.199L1150.04 695.288L1113.44 716.441L1076.97 695.352ZM1114.61 673.584L1150.89 652.622L1187.36 673.69L1151.08 694.673L1114.61 673.584ZM1151.95 652.007L1188.54 630.854L1225.02 651.943L1188.42 673.096L1151.95 652.007ZM1189.58 630.239L1226.08 609.15L1262.55 630.239L1226.06 651.328L1189.58 630.239ZM1227.12 608.534L1263.5 587.488L1299.97 608.577L1263.59 629.623L1227.12 608.534ZM1264.56 586.894L1301.06 565.805L1337.53 586.894L1301.03 607.983L1264.56 586.894ZM1302.09 565.211L1338.57 544.121L1375.04 565.189L1338.57 586.278L1302.09 565.189V565.211ZM1339.63 543.506L1376.03 522.459L1412.5 543.549L1376.1 564.595L1339.63 543.506ZM1377.09 521.865L1413.57 500.776L1450.04 521.844L1413.57 542.933L1377.09 521.844V521.865ZM1376.03 521.25L1339.52 500.14L1375.99 479.051L1412.5 500.161L1376.03 521.25ZM1377.05 478.457L1413.65 457.304L1450.14 478.393L1413.54 499.546L1377.03 478.436L1377.05 478.457ZM1414.71 456.689L1451.01 435.727L1487.5 456.816L1451.22 477.799L1414.73 456.689H1414.71ZM1452.05 435.112L1488.63 413.98L1525.12 435.069L1488.52 456.222L1452.03 435.112H1452.05ZM1489.69 413.365L1526.18 392.276L1562.67 413.365L1526.18 434.454L1489.69 413.365ZM1488.63 412.75L1452.05 391.618L1488.54 370.508L1525.12 391.661L1488.63 412.75ZM1450.99 391.003L1414.69 370.02L1451.18 348.931L1487.46 369.893L1450.97 391.003H1450.99ZM1413.65 369.426L1377.05 348.273L1413.57 327.163L1450.16 348.316L1413.67 369.426H1413.65ZM1375.99 347.658L1339.52 326.569L1376.03 305.458L1412.5 326.548L1375.99 347.658ZM1338.46 325.975L1302.05 304.928L1338.57 283.818L1374.97 304.864L1338.46 325.975ZM1300.99 304.334L1264.5 283.245L1301.01 262.135L1337.51 283.224L1300.99 304.334ZM1263.44 282.651L1226.97 261.562L1263.48 240.452L1299.95 261.541L1263.44 282.651ZM1225.91 260.968L1189.5 239.921L1226.01 218.811L1262.42 239.858L1225.91 260.968ZM1188.44 239.306L1151.95 218.217L1188.48 197.107L1224.95 218.196L1188.44 239.306ZM1150.91 217.623L1114.31 196.47L1150.84 175.36L1187.44 196.513L1150.91 217.623ZM1113.25 195.855L1076.97 174.893L1113.5 153.783L1149.78 174.745L1113.25 195.855ZM1075.91 174.278L1039.31 153.125L1075.84 132.015L1112.44 153.167L1075.91 174.299V174.278ZM1038.25 152.51L1001.76 131.421L1038.29 110.289L1074.78 131.378L1038.25 152.51ZM1000.72 130.827L964.436 109.865L1000.99 88.7334L1037.27 109.695L1000.74 130.827H1000.72ZM963.376 109.25L926.777 88.0969L963.333 66.9654L999.932 88.1181L963.376 109.25ZM925.717 87.4816L889.224 66.3925L925.78 45.261L962.272 66.3501L925.717 87.4816ZM888.185 65.7985L851.778 44.7519L888.333 23.6203L924.741 44.667L888.185 65.7985ZM850.738 44.1578L814.246 23.0687L850.802 1.93723L887.294 23.0263L850.738 44.1578ZM813.206 22.4747L776.714 1.38559L813.291 -19.7459L849.783 1.34317L813.228 22.4747H813.206ZM775.653 0.770325L739.267 -20.2551L775.844 -41.3866L812.23 -20.3612L775.675 0.770325H775.653ZM738.206 -20.8704L701.714 -41.9594L738.291 -63.0909L774.762 -42.0019L738.185 -20.8704H738.206ZM700.675 -42.5535L664.077 -63.7062L700.653 -84.8377L737.252 -63.685L700.675 -42.5535ZM663.016 -64.3215L626.545 -85.3893L663.122 -106.542L699.593 -85.453L663.016 -64.3215ZM625.484 -86.0046L589.077 -107.051L625.654 -128.204L662.061 -107.157L625.484 -86.0046ZM588.016 -107.667L551.524 -128.756L588.122 -149.908L624.593 -128.819L588.016 -107.667ZM550.484 -129.35L514.013 -150.417L550.59 -171.57L587.061 -150.481L550.463 -129.328L550.484 -129.35ZM512.952 -151.033L476.545 -172.079L513.143 -193.232L549.551 -172.185L512.974 -151.033H512.952ZM475.484 -172.673L438.992 -193.763L475.59 -214.915L512.082 -193.826L475.484 -172.673ZM437.953 -194.378L401.354 -215.509L437.953 -236.662L474.551 -215.509L437.953 -194.357V-194.378ZM436.892 -193.763L400.612 -172.78L364.035 -193.932L400.315 -214.894L436.913 -193.763H436.892ZM399.551 -172.185L363.08 -151.096L326.503 -172.228L362.974 -193.317L399.551 -172.164V-172.185ZM362.019 -150.502L325.421 -129.35L288.865 -150.481L325.463 -171.634L362.04 -150.502H362.019ZM324.36 -128.734L288.08 -107.751L251.524 -128.883L287.804 -149.845L324.36 -128.713V-128.734ZM287.019 -107.157L250.442 -86.0046L213.886 -107.136L250.485 -128.289L287.04 -107.157H287.019ZM249.381 -85.4105L212.889 -64.3215L176.333 -85.453L212.804 -106.542L249.36 -85.4105H249.381ZM211.85 -63.7062L175.357 -42.6171L138.823 -63.7274L175.294 -84.8165L211.85 -63.685V-63.7062ZM174.318 -42.0231L137.932 -20.9764L101.397 -42.0867L137.783 -63.1334L174.318 -42.0019V-42.0231ZM136.871 -20.3824L100.4 0.706665L63.8655 -20.4036L100.336 -41.4927L136.871 -20.3824ZM99.3393 1.32196L62.741 22.4747L26.2277 1.36438L62.8259 -19.7883L99.3605 1.32196H99.3393ZM61.6802 23.0899L25.4002 44.0517L-11.1131 22.9414L25.1669 1.95844L61.6802 23.0687V23.0899ZM24.3607 44.667L-12.2375 65.8197L-48.751 44.7094L-12.1528 23.5567L24.3607 44.667ZM-13.2984 66.435L-49.7906 87.524L-86.2827 66.435L-49.8118 45.3459L-13.2984 66.435ZM-50.8301 88.1393L-87.1102 109.101L-123.602 88.012L-87.3223 67.0502L-50.8301 88.1393ZM-88.1497 109.716L-124.748 130.869L-161.24 109.78L-124.642 88.6273L-88.1497 109.716ZM-125.809 131.484L-162.301 152.573L-198.772 131.484L-162.301 110.395L-125.809 131.484ZM-163.341 153.189L-199.748 174.214L-236.219 153.125L-199.833 132.078L-163.341 153.167V153.189ZM-200.787 174.829L-237.28 195.918L-273.75 174.829L-237.28 153.74L-200.809 174.829H-200.787ZM-238.319 196.534L-274.917 217.686L-311.388 196.619L-274.79 175.466L-238.319 196.555V196.534ZM-275.957 218.302L-312.258 239.285L-348.708 218.217L-312.428 197.234L-275.957 218.302ZM-313.298 239.879L-349.769 260.968L-386.218 239.9L-349.748 218.811L-313.298 239.879ZM-350.83 261.562L-387.428 282.715L-423.878 261.647L-387.279 240.494L-350.83 261.562ZM-388.489 283.33L-424.769 304.313L-461.197 283.245L-424.938 262.283L-388.489 283.351V283.33ZM-425.829 304.907L-462.428 326.06L-498.856 304.992L-462.258 283.839L-425.829 304.907ZM-463.467 326.675L-499.959 347.764L-536.388 326.717L-499.917 305.628L-463.488 326.696L-463.467 326.675ZM-500.999 348.358L-537.279 369.341L-573.686 348.294L-537.406 327.311L-500.978 348.358H-500.999ZM-538.34 369.935L-574.938 391.088L-611.345 370.041L-574.747 348.888L-538.34 369.935ZM-575.978 391.703L-612.47 412.792L-648.877 391.745L-612.406 370.656L-575.999 391.703H-575.978ZM-537.385 414.001L-500.787 435.154L-537.258 456.243L-573.856 435.091L-537.385 414.001ZM-499.747 435.748L-463.446 456.731L-499.938 477.82L-536.218 456.859L-499.747 435.769V435.748ZM-462.406 457.325L-425.914 478.414L-462.406 499.503L-498.899 478.414L-462.406 457.325ZM-424.875 479.03L-388.298 500.182L-424.769 521.271L-461.367 500.119L-424.875 479.03ZM-425.829 521.887L-462.406 543.039L-499.005 521.887L-462.428 500.734L-425.829 521.887ZM1414.58 500.204L1451.18 479.051L1487.67 500.14L1451.08 521.293L1414.58 500.204ZM1452.24 478.436L1488.52 457.474L1524.99 478.563L1488.71 499.525L1452.22 478.436H1452.24ZM1489.58 456.859L1526.18 435.706L1562.67 456.795L1526.08 477.948L1489.61 456.859H1489.58ZM1527.22 435.091L1563.71 414.001L1600.21 435.091L1563.71 456.18L1527.22 435.091ZM1564.77 413.386L1601.05 392.424L1637.53 413.513L1601.25 434.475L1564.75 413.386H1564.77ZM1563.74 412.771L1527.24 391.682L1563.54 370.72L1600.04 391.809L1563.76 412.792L1563.74 412.771ZM1526.18 391.067L1489.61 369.914L1525.89 348.931L1562.48 370.084L1526.18 391.045V391.067ZM1488.54 369.32L1452.26 348.358L1488.57 327.375L1524.85 348.358L1488.57 369.341L1488.54 369.32ZM1451.2 347.743L1414.61 326.59L1450.93 305.607L1487.53 326.76L1451.22 347.743H1451.2ZM1413.54 325.975L1377.07 304.886L1413.37 283.882L1449.85 304.971L1413.54 325.954V325.975ZM1376.01 304.292L1339.61 283.245L1375.93 262.241L1412.31 283.287L1376.01 304.27V304.292ZM1338.54 282.63L1302.05 261.541L1338.37 240.536L1374.85 261.626L1338.52 282.609L1338.54 282.63ZM1301.01 260.947L1264.54 239.858L1300.86 218.853L1337.34 239.942L1301.01 260.947ZM1263.48 239.263L1227.07 218.217L1263.42 197.213L1299.8 218.259L1263.48 239.263ZM1226.01 217.602L1189.54 196.513L1225.89 175.508L1262.36 196.597L1226.01 217.602ZM1188.48 195.918L1151.88 174.766L1188.25 153.762L1224.85 174.914L1188.5 195.918H1188.48ZM1150.82 174.15L1114.54 153.189L1150.91 132.185L1187.19 153.146L1150.82 174.172V174.15ZM1113.48 152.573L1076.88 131.421L1113.25 110.395L1149.85 131.548L1113.48 152.573ZM1075.82 130.805L1039.33 109.716L1075.7 88.6909L1112.17 109.78L1075.8 130.805H1075.82ZM1038.29 109.122L1002.01 88.1606L1038.4 67.1351L1074.68 88.0969L1038.31 109.122H1038.29ZM1000.95 87.5453L964.352 66.3925L1000.74 45.3671L1037.34 66.5198L1000.95 87.5453ZM963.291 65.7773L926.799 44.6882L963.185 23.6416L999.656 44.7307L963.27 65.756L963.291 65.7773ZM925.759 44.0941L889.373 23.0475L925.78 2.00089L962.166 23.0475L925.78 44.0941H925.759ZM888.312 22.4535L851.82 1.36438L888.227 -19.6823L924.698 1.40683L888.291 22.4535H888.312ZM850.781 0.749115L814.288 -20.34L850.717 -41.3866L887.188 -20.2975L850.781 0.749115ZM813.249 -20.9552L776.863 -41.9806L813.291 -63.0273L849.677 -41.9806L813.249 -20.934V-20.9552ZM775.802 -42.5959L739.331 -63.685L775.759 -84.7528L812.23 -63.6638L775.802 -42.6171V-42.5959ZM738.27 -64.279L701.672 -85.4318L738.1 -106.5L774.698 -85.3469L738.27 -64.279ZM700.611 -86.047L664.14 -107.136L700.569 -128.204L737.039 -107.115L700.611 -86.047ZM663.079 -107.73L626.672 -128.777L663.122 -149.845L699.508 -128.798L663.079 -107.73ZM625.632 -129.392L589.161 -150.481L625.611 -171.549L662.082 -150.46L625.632 -129.392ZM588.101 -151.096L551.63 -172.185L588.079 -193.275L624.55 -172.185L588.101 -151.118V-151.096ZM550.569 -172.78L514.162 -193.826L550.633 -214.894L587.019 -193.847L550.569 -172.758V-172.78ZM513.122 -194.441L476.651 -215.531L513.122 -236.62L549.593 -215.531L513.122 -194.463V-194.441ZM475.59 -216.125L438.992 -237.277L475.463 -258.366L512.061 -237.214L475.59 -216.125ZM-649.641 392.064L-613.234 413.11L-649.832 434.263L-686.218 413.216L-649.62 392.064H-649.641ZM-574.662 435.409L-538.064 456.561L-574.662 477.714L-611.26 456.561L-574.662 435.409ZM-537.024 457.156L-500.744 478.139L-537.343 499.291L-573.623 478.329L-537.024 457.177V457.156ZM-499.684 478.733L-463.191 499.822L-499.79 520.974L-536.282 499.885L-499.684 478.733Z" fill="url(#paint0_linear_798_2078)"/>
<defs>
<linearGradient id="paint0_linear_798_2078" x1="475.792" y1="-260" x2="475.792" y2="1086.09" gradientUnits="userSpaceOnUse">
<stop stop-color="#B7B7B7"/>
<stop offset="1" stop-color="#BDBDBD" stop-opacity="0"/>
</linearGradient>
</defs>
</svg>
